<svg width="26" height="30" viewBox="0 0 26 30" fill="none" xmlns="http://www.w3.org/2000/svg">
<path fill-rule="evenodd" clip-rule="evenodd" d="M5.48872 2.74956C5.42306 2.75058 5.35825 2.76443 5.29798 2.79051C5.23771 2.81658 5.18316 2.85431 5.13746 2.90146C5.09175 2.94862 5.05578 3.00431 5.0316 3.06537C5.00742 3.12642 4.9955 3.19164 4.99652 3.25729V4.74175C4.99558 4.808 5.00783 4.87369 5.03253 4.93518C5.05724 4.99666 5.09392 5.0527 5.14044 5.09988C5.18697 5.14707 5.2424 5.18446 5.30353 5.21004C5.36466 5.23561 5.43026 5.24879 5.49652 5.24879C5.56278 5.24879 5.62838 5.23561 5.68951 5.21004C5.75064 5.18446 5.80608 5.14707 5.8526 5.09988C5.89912 5.0527 5.9358 4.99666 5.96051 4.93518C5.98522 4.87369 5.99746 4.808 5.99652 4.74175V4.49941H10.6176V3.4994H5.99652V3.25718C5.99756 3.19021 5.98514 3.12364 5.95999 3.06156C5.93484 2.99948 5.89748 2.94317 5.85011 2.89581C5.80275 2.84845 5.74635 2.81104 5.68427 2.78589C5.62219 2.76074 5.55569 2.74851 5.48872 2.74956Z" fill="currentColor"/>
<path fill-rule="evenodd" clip-rule="evenodd" d="M20.4888 2.74963C20.4231 2.75066 20.3583 2.76451 20.298 2.79058C20.2378 2.81665 20.1832 2.85439 20.1375 2.90154C20.0918 2.94869 20.0558 3.00439 20.0317 3.06544C20.0075 3.12649 19.9956 3.19171 19.9966 3.25737V3.49959H15.4302V4.49972H19.9966V4.74194C19.9956 4.80819 20.0079 4.874 20.0326 4.93548C20.0573 4.99696 20.094 5.05289 20.1405 5.10007C20.187 5.14726 20.2425 5.18477 20.3036 5.21034C20.3647 5.23591 20.4303 5.2491 20.4966 5.2491C20.5628 5.2491 20.6284 5.23591 20.6896 5.21034C20.7507 5.18477 20.8061 5.14726 20.8527 5.10007C20.8992 5.05289 20.9359 4.99696 20.9606 4.93548C20.9853 4.874 20.9975 4.80819 20.9966 4.74194V3.25748C20.9976 3.19051 20.9852 3.12406 20.96 3.06198C20.9349 2.9999 20.8975 2.94348 20.8502 2.89612C20.8028 2.84876 20.7464 2.81146 20.6843 2.78631C20.6222 2.76116 20.5557 2.74859 20.4888 2.74963Z" fill="currentColor"/>
<path fill-rule="evenodd" clip-rule="evenodd" d="M12.4966 6.37463V18.1246H13.4966V6.37463H12.4966Z" fill="currentColor"/>
<path fill-rule="evenodd" clip-rule="evenodd" d="M5.50432 24.7496C5.43735 24.7486 5.37084 24.7609 5.30876 24.7861C5.24668 24.8112 5.19028 24.8486 5.14292 24.896C5.09555 24.9434 5.05819 24.9998 5.03304 25.0619C5.00789 25.1239 4.99547 25.1904 4.99652 25.2574V26.7437C4.9955 26.8093 5.00742 26.8745 5.0316 26.9356C5.05578 26.9966 5.09175 27.0523 5.13746 27.0995C5.18316 27.1466 5.23771 27.1844 5.29798 27.2104C5.35825 27.2365 5.42306 27.2505 5.48872 27.2515C5.55569 27.2526 5.62219 27.2401 5.68427 27.2149C5.74635 27.1898 5.80275 27.1524 5.85011 27.105C5.89748 27.0577 5.93484 27.0014 5.95999 26.9393C5.98514 26.8772 5.99756 26.8106 5.99652 26.7437V26.5014H9.12152V25.5014H5.99652V25.2572C5.99755 25.1916 5.98563 25.1264 5.96145 25.0653C5.93727 25.0043 5.9013 24.9486 5.8556 24.9014C5.80989 24.8543 5.75535 24.8165 5.69507 24.7905C5.6348 24.7644 5.56998 24.7506 5.50432 24.7496Z" fill="currentColor"/>
<path fill-rule="evenodd" clip-rule="evenodd" d="M20.4888 24.7496C20.4231 24.7507 20.3583 24.7645 20.298 24.7906C20.2378 24.8167 20.1832 24.8544 20.1375 24.9015C20.0918 24.9487 20.0558 25.0044 20.0316 25.0654C20.0075 25.1265 19.9956 25.1917 19.9966 25.2574V25.4997H16.8716V26.4996H19.9966V26.7438C19.9956 26.81 20.0079 26.8758 20.0326 26.9373C20.0573 26.9988 20.094 27.0547 20.1405 27.1019C20.187 27.1491 20.2425 27.1866 20.3036 27.2122C20.3647 27.2378 20.4303 27.2509 20.4966 27.2509C20.5628 27.2509 20.6284 27.2378 20.6896 27.2122C20.7507 27.1866 20.8061 27.1491 20.8527 27.1019C20.8992 27.0547 20.9359 26.9988 20.9606 26.9373C20.9853 26.8758 20.9975 26.81 20.9966 26.7438V25.2575C20.9976 25.1905 20.9852 25.1241 20.9601 25.062C20.9349 24.9999 20.8976 24.9435 20.8502 24.8961C20.8028 24.8488 20.7464 24.8113 20.6843 24.7862C20.6223 24.761 20.5558 24.7486 20.4888 24.7496Z" fill="currentColor"/>
<path fill-rule="evenodd" clip-rule="evenodd" d="M11.996 5.50029H13.996C14.0617 5.50029 14.1267 5.48736 14.1874 5.46223C14.2481 5.4371 14.3032 5.40024 14.3496 5.35381C14.396 5.30737 14.4329 5.2523 14.458 5.19163C14.4831 5.13097 14.496 5.06595 14.496 5.00028V3.7073C14.4959 3.57109 14.4641 3.43679 14.403 3.31502L14.0882 2.68548C14.0604 2.62983 14.0176 2.58301 13.9647 2.5503C13.9118 2.51759 13.8508 2.50024 13.7885 2.50024H12.2027C12.1405 2.50024 12.0795 2.51759 12.0266 2.5503C11.9737 2.58301 11.9309 2.62983 11.903 2.68548L11.5882 3.31502C11.5272 3.43679 11.4954 3.57109 11.4952 3.7073V5.00028C11.4952 5.06595 11.5082 5.13097 11.5333 5.19163C11.5584 5.2523 11.5952 5.30737 11.6417 5.35381C11.6881 5.40024 11.7432 5.4371 11.8039 5.46223C11.8646 5.48736 11.9304 5.50029 11.996 5.50029Z" fill="currentColor"/>
<path d="M22.9966 0.499512C22.5798 0.499512 22.2253 0.753877 22.0747 1.11475L23.0318 1.59526C23.149 1.65541 23.2377 1.75935 23.2787 1.88454C23.3197 2.00972 23.3097 2.14597 23.2507 2.26378C23.1918 2.3816 23.0888 2.47142 22.9641 2.51373C22.8393 2.55604 22.7029 2.54741 22.5845 2.48974L21.9966 2.19492V3.07579C22.0133 3.08246 22.0297 3.09008 22.0456 3.09851L23.032 3.59264C23.1492 3.65278 23.2379 3.75673 23.2789 3.88192C23.3199 4.0071 23.3098 4.14334 23.2509 4.26116C23.192 4.37898 23.089 4.4688 22.9643 4.51111C22.8395 4.55341 22.7031 4.54479 22.5847 4.48712L21.9968 4.1923V5.07317C22.0135 5.07984 22.0299 5.08746 22.0458 5.09589L23.0322 5.59002C23.1494 5.65016 23.2381 5.75411 23.2791 5.87929C23.3201 6.00448 23.31 6.14084 23.2511 6.25865C23.1922 6.37647 23.0892 6.46629 22.9645 6.5086C22.8397 6.55091 22.7033 6.54228 22.5849 6.48461L21.997 6.1898V6.49822C21.997 7.05222 22.443 7.49812 22.997 7.49812H24.997C25.551 7.49812 25.997 7.05222 25.997 6.49822V6.1898L25.4052 6.4868C25.3464 6.51699 25.2821 6.53523 25.2162 6.54043C25.1503 6.54564 25.084 6.53771 25.0212 6.51714C24.9584 6.49656 24.9002 6.46378 24.8502 6.42059C24.8001 6.37741 24.7591 6.32471 24.7296 6.26557C24.7 6.20644 24.6824 6.14203 24.6779 6.07607C24.6734 6.01011 24.682 5.94387 24.7032 5.88126C24.7245 5.81864 24.7579 5.76085 24.8016 5.71124C24.8453 5.66164 24.8984 5.62127 24.9579 5.59232L25.9443 5.0982C25.9615 5.08963 25.9792 5.08201 25.9973 5.07548V4.19265L25.4055 4.48977C25.3467 4.51996 25.2824 4.5382 25.2165 4.5434C25.1506 4.54861 25.0843 4.54068 25.0215 4.5201C24.9587 4.49953 24.9005 4.46663 24.8505 4.42345C24.8004 4.38026 24.7594 4.32756 24.7298 4.26843C24.7003 4.20929 24.6827 4.14488 24.6782 4.07892C24.6737 4.01296 24.6823 3.94684 24.7035 3.88422C24.7248 3.82161 24.7582 3.76381 24.8019 3.71421C24.8456 3.6646 24.8987 3.62412 24.9582 3.59518L25.9446 3.10105C25.9618 3.09248 25.9795 3.08486 25.9976 3.07833V2.19562L25.4058 2.49262C25.347 2.52281 25.2827 2.54105 25.2168 2.54626C25.1509 2.55146 25.0846 2.54353 25.0218 2.52296C24.959 2.50238 24.9008 2.4696 24.8508 2.42642C24.8007 2.38323 24.7597 2.33053 24.7301 2.2714C24.7006 2.21226 24.683 2.14785 24.6785 2.08189C24.674 2.01593 24.6826 1.94969 24.7038 1.88708C24.7251 1.82446 24.7585 1.76667 24.8022 1.71706C24.8459 1.66746 24.899 1.62709 24.9585 1.59814L25.9195 1.11567C25.7689 0.754724 25.4144 0.500434 24.9976 0.500434L22.9966 0.499512Z" fill="currentColor"/>
<path fill-rule="evenodd" clip-rule="evenodd" d="M15.9961 28.5004V24.1518C15.9961 24.053 15.9669 23.9565 15.9121 23.8744L15.0801 22.6264C15.0253 22.5442 14.9961 22.4477 14.9961 22.349V20.0004C14.9961 19.7352 14.8907 19.4808 14.7032 19.2932C14.5157 19.1057 14.2613 19.0004 13.9961 19.0004H11.9961C11.7309 19.0004 11.4765 19.1057 11.289 19.2932C11.1015 19.4808 10.9961 19.7352 10.9961 20.0004V22.349C10.9961 22.4477 10.9669 22.5442 10.9121 22.6264L10.0801 23.8744C10.0253 23.9565 9.99609 24.053 9.99609 24.1518V28.5004C9.99609 28.6317 10.022 28.7617 10.0722 28.883C10.1225 29.0043 10.1961 29.1146 10.289 29.2074C10.3818 29.3003 10.4921 29.374 10.6134 29.4243C10.7347 29.4745 10.8648 29.5004 10.9961 29.5004H14.9961C15.1274 29.5004 15.2575 29.4745 15.3788 29.4243C15.5001 29.374 15.6104 29.3003 15.7032 29.2074C15.7961 29.1146 15.8697 29.0043 15.92 28.883C15.9702 28.7617 15.9961 28.6317 15.9961 28.5004Z" fill="currentColor"/>
<path d="M1.00244 0.500244C0.585641 0.500244 0.231141 0.754647 0.0805412 1.11548L1.03764 1.59599C1.15444 1.65636 1.24277 1.76026 1.28351 1.88527C1.32425 2.01028 1.31412 2.14634 1.25532 2.26394C1.19651 2.38153 1.09377 2.47125 0.969311 2.51365C0.844857 2.55606 0.708711 2.5477 0.590341 2.49047L0.00244141 2.19566V3.07641C0.0191712 3.08308 0.0355285 3.09069 0.0514415 3.09913L1.03784 3.59314C1.1559 3.6528 1.24551 3.75685 1.28707 3.88242C1.32863 4.00799 1.31876 4.14485 1.25961 4.26316C1.20046 4.38147 1.09685 4.47158 0.971462 4.51369C0.84607 4.55579 0.709105 4.54649 0.590541 4.48785L0.00264145 4.19269V5.07367C0.0193713 5.08034 0.0357285 5.08796 0.0516415 5.09639L1.03804 5.59052C1.15484 5.65088 1.24318 5.7549 1.28392 5.87991C1.32466 6.00492 1.31453 6.14087 1.25572 6.25846C1.19692 6.37606 1.09417 6.46578 0.969713 6.50818C0.845258 6.55058 0.709111 6.54234 0.590741 6.48511L0.0028415 6.1903V6.49907C0.0028415 7.05303 0.448841 7.49908 1.00284 7.49908H3.00284C3.55684 7.49908 4.00284 7.05303 4.00284 6.49907V6.1903L3.41104 6.4873C3.3523 6.51667 3.28835 6.53421 3.22284 6.53886C3.15733 6.54352 3.09155 6.53518 3.02924 6.51441C2.96694 6.49364 2.90933 6.4609 2.85972 6.41787C2.81011 6.37484 2.76945 6.3224 2.74008 6.26365C2.71071 6.20491 2.6932 6.14093 2.68855 6.07542C2.68389 6.00991 2.69218 5.94418 2.71295 5.88187C2.7549 5.75604 2.84511 5.65203 2.96374 5.59271L3.95014 5.09858C3.96736 5.09001 3.98505 5.08251 4.00314 5.07598V4.19315L3.41134 4.49027C3.3525 4.52068 3.28821 4.53901 3.22219 4.54437C3.15617 4.54972 3.08975 4.54194 3.02677 4.52141C2.9638 4.50089 2.90553 4.4681 2.85534 4.42487C2.80516 4.38164 2.76406 4.32886 2.73444 4.26962C2.70482 4.21038 2.68726 4.14585 2.68278 4.07977C2.6783 4.01369 2.68699 3.94742 2.70835 3.88473C2.72971 3.82203 2.76332 3.7642 2.80721 3.7146C2.8511 3.66499 2.90441 3.62451 2.96404 3.59568L3.95044 3.10155C3.96766 3.09298 3.98535 3.08536 4.00344 3.07883V2.19612L3.41164 2.49312C3.29313 2.55142 3.15638 2.56055 3.03122 2.51838C2.90607 2.47621 2.80268 2.38622 2.74361 2.26809C2.68455 2.14997 2.67461 2.01324 2.71596 1.88781C2.75731 1.76238 2.8466 1.65836 2.96434 1.59853L3.92534 1.11606C3.77474 0.75511 3.42024 0.500821 3.00344 0.500821L1.00244 0.500244Z" fill="currentColor"/>
<path d="M22.9966 22.5002C22.5798 22.5002 22.2253 22.7546 22.0747 23.1155L23.0318 23.596C23.1486 23.6564 23.2369 23.7603 23.2777 23.8853C23.3184 24.0103 23.3083 24.1463 23.2495 24.2639C23.1907 24.3815 23.0879 24.4713 22.9635 24.5137C22.839 24.5561 22.7029 24.5477 22.5845 24.4905L21.9966 24.1957V25.0766C22.0133 25.0833 22.0297 25.0908 22.0456 25.0992L23.032 25.5935C23.1488 25.6539 23.2371 25.7578 23.2779 25.8828C23.3186 26.0078 23.3085 26.1438 23.2497 26.2614C23.1909 26.379 23.0881 26.4687 22.9637 26.5111C22.8392 26.5535 22.7031 26.5452 22.5847 26.488L21.9968 26.1931V27.0739C22.0135 27.0806 22.0299 27.0882 22.0458 27.0966L23.0322 27.5907C23.149 27.6511 23.2373 27.755 23.2781 27.88C23.3188 28.005 23.3087 28.1411 23.2499 28.2587C23.1911 28.3763 23.0883 28.4659 22.9639 28.5083C22.8394 28.5507 22.7033 28.5425 22.5849 28.4852L21.997 28.1904V28.4992C21.997 29.0532 22.443 29.4992 22.997 29.4992H24.997C25.551 29.4992 25.997 29.0532 25.997 28.4992V28.1904L25.4052 28.4874C25.3463 28.5178 25.282 28.5363 25.216 28.5416C25.15 28.547 25.0836 28.5392 25.0206 28.5187C24.9576 28.4982 24.8994 28.4654 24.8492 28.4221C24.799 28.3789 24.7579 28.3261 24.7283 28.2669C24.6987 28.2076 24.6811 28.1431 24.6766 28.077C24.6721 28.0109 24.6808 27.9446 24.7022 27.8819C24.7236 27.8192 24.7572 27.7613 24.8011 27.7117C24.8449 27.6621 24.8983 27.6218 24.9579 27.5929L25.9443 27.0988C25.9615 27.0902 25.9792 27.0826 25.9973 27.0761V26.1934L25.4055 26.49C25.3466 26.5205 25.2823 26.5389 25.2163 26.5443C25.1503 26.5496 25.0839 26.5418 25.0209 26.5213C24.9579 26.5008 24.8997 26.4679 24.8495 26.4246C24.7993 26.3814 24.7582 26.3286 24.7286 26.2694C24.699 26.2102 24.6814 26.1456 24.6769 26.0795C24.6724 26.0135 24.6811 25.9472 24.7025 25.8845C24.7239 25.8218 24.7575 25.764 24.8014 25.7144C24.8452 25.6648 24.8986 25.6244 24.9582 25.5956L25.9446 25.1014C25.9618 25.0929 25.9795 25.0852 25.9976 25.0787V24.1959L25.4058 24.493C25.3469 24.5234 25.2826 24.5419 25.2166 24.5472C25.1506 24.5526 25.0842 24.5448 25.0212 24.5243C24.9582 24.5037 24.9 24.4708 24.8498 24.4276C24.7996 24.3844 24.7585 24.3316 24.7289 24.2724C24.6993 24.2131 24.6817 24.1486 24.6772 24.0825C24.6727 24.0164 24.6814 23.9502 24.7028 23.8875C24.7242 23.8248 24.7578 23.7669 24.8017 23.7173C24.8455 23.6677 24.8989 23.6274 24.9585 23.5985L25.9195 23.1159C25.7689 22.755 25.4144 22.5008 24.9976 22.5008L22.9966 22.5002Z" fill="currentColor"/>
<path d="M1.00244 22.5002C0.585641 22.5002 0.231141 22.7546 0.0805412 23.1155L1.03764 23.596C1.15444 23.6564 1.24277 23.7603 1.28351 23.8853C1.32425 24.0103 1.31412 24.1463 1.25532 24.2639C1.19651 24.3815 1.09377 24.4713 0.969311 24.5137C0.844857 24.5561 0.708711 24.5477 0.590341 24.4905L0.00244141 24.1957V25.0765C0.0191712 25.0832 0.0355285 25.0908 0.0514415 25.0992L1.03784 25.5931C1.1559 25.6528 1.24551 25.7568 1.28707 25.8824C1.32863 26.008 1.31876 26.145 1.25961 26.2633C1.20046 26.3816 1.09685 26.4716 0.971462 26.5137C0.84607 26.5558 0.709105 26.5465 0.590541 26.4878L0.00264145 26.1927V27.0737C0.0193713 27.0803 0.0357285 27.088 0.0516415 27.0964L1.03804 27.5905C1.15484 27.6509 1.24318 27.7549 1.28392 27.8799C1.32466 28.0049 1.31453 28.1409 1.25572 28.2585C1.19692 28.3761 1.09417 28.4658 0.969713 28.5082C0.845258 28.5506 0.709111 28.5423 0.590741 28.4851L0.0028415 28.1903V28.4991C0.0028415 29.0531 0.448841 29.4991 1.00284 29.4991H3.00284C3.55684 29.4991 4.00284 29.0531 4.00284 28.4991V28.1903L3.41104 28.4873C3.29253 28.5456 3.15578 28.5546 3.03062 28.5124C2.90547 28.4703 2.80207 28.3804 2.74301 28.2623C2.68395 28.1441 2.67401 28.0074 2.71536 27.882C2.75671 27.7566 2.846 27.6525 2.96374 27.5927L3.95014 27.0987C3.96736 27.0901 3.98505 27.0825 4.00314 27.076V26.1931L3.41134 26.4903C3.3525 26.5207 3.28821 26.539 3.22219 26.5444C3.15617 26.5497 3.08975 26.5419 3.02677 26.5214C2.9638 26.5009 2.90553 26.4681 2.85534 26.4249C2.80516 26.3816 2.76406 26.3289 2.73444 26.2696C2.70482 26.2104 2.68726 26.1459 2.68278 26.0798C2.6783 26.0137 2.68699 25.9474 2.70835 25.8847C2.72971 25.822 2.76332 25.7642 2.80721 25.7146C2.8511 25.665 2.90441 25.6245 2.96404 25.5957L3.95044 25.1016C3.96766 25.093 3.98535 25.0854 4.00344 25.0788V24.196L3.41164 24.4931C3.29301 24.5524 3.15567 24.5622 3.02984 24.5202C2.90401 24.4783 2.8 24.3881 2.74069 24.2695C2.68137 24.1508 2.67161 24.0134 2.71355 23.8876C2.7555 23.7617 2.84571 23.6577 2.96434 23.5984L3.92534 23.1159C3.77474 22.755 3.42024 22.5008 3.00344 22.5008L1.00244 22.5002Z" fill="currentColor"/>
</svg>
