<svg width="27" height="30" viewBox="0 0 27 30" fill="none" xmlns="http://www.w3.org/2000/svg">
<path fill-rule="evenodd" clip-rule="evenodd" d="M13.0006 5.5V19H14.0006V5.5H13.0006Z" fill="currentColor"/>
<path fill-rule="evenodd" clip-rule="evenodd" d="M12.7076 1.99988C12.3924 1.99988 12.1025 2.17902 11.9615 2.46078L11.6471 3.08974C11.5511 3.28099 11.5008 3.49313 11.5006 3.70694V4.99992C11.5006 5.54625 11.9542 5.99994 12.5006 5.99994H14.5005C15.0468 5.99994 15.5004 5.54625 15.5004 4.99992V3.70694C15.5002 3.49302 15.4494 3.28095 15.354 3.08974L15.0395 2.46078C14.8985 2.17883 14.6087 1.99988 14.2934 1.99988H12.7076ZM12.8092 2.99989H14.1919L14.4614 3.53889C14.4874 3.59104 14.5004 3.64809 14.5004 3.70706V5.00004H12.5005V3.70706C12.5005 3.64809 12.5135 3.59142 12.5395 3.53889L12.8092 2.99989Z" fill="currentColor"/>
<path d="M23.5001 0C22.6777 0 22.0002 0.67752 22.0002 1.49991V6.49998C22.0002 7.3223 22.6777 7.99989 23.5001 7.99989H25.5C26.3223 7.99989 27 7.3223 27 6.49998V1.49991C27 0.67752 26.3223 0 25.5 0H23.5001ZM23.5001 0.9999H25.5C25.7856 0.9999 26 1.21421 26 1.49991V6.49998C26 6.78572 25.7856 6.99999 25.5 6.99999H23.5001C23.2144 6.99999 23.0001 6.78568 23.0001 6.49998V1.49991C23.0001 1.21418 23.2144 0.9999 23.5001 0.9999Z" fill="currentColor"/>
<path fill-rule="evenodd" clip-rule="evenodd" d="M26.4902 0.999878C26.4113 1.00075 26.3337 1.02033 26.2637 1.05697L25.2773 1.54925C25.1588 1.6086 25.0686 1.7125 25.0267 1.8383C24.9848 1.9641 24.9946 2.10149 25.0539 2.22008C25.1132 2.33867 25.2172 2.42878 25.343 2.47072C25.4687 2.51266 25.606 2.50299 25.7246 2.44373L26.7109 1.95145C26.8136 1.90232 26.8964 1.81964 26.9457 1.71707C26.995 1.61451 27.0079 1.49828 26.9821 1.38743C26.9564 1.27657 26.8937 1.17774 26.8042 1.10738C26.7148 1.03702 26.604 0.998777 26.4902 0.999878Z" fill="currentColor"/>
<path fill-rule="evenodd" clip-rule="evenodd" d="M22.4827 0.99995C22.3702 1.00231 22.2618 1.04255 22.175 1.11414C22.0882 1.18573 22.0281 1.28455 22.0044 1.39453C21.9807 1.50452 21.9948 1.61926 22.0443 1.72026C22.0939 1.82126 22.1761 1.90255 22.2776 1.95106L23.2639 2.44322C23.3227 2.47321 23.3868 2.49133 23.4526 2.4964C23.5185 2.50147 23.5846 2.49349 23.6473 2.47287C23.71 2.45224 23.768 2.41936 23.8179 2.37621C23.8679 2.33306 23.9088 2.28046 23.9383 2.22142C23.9678 2.16239 23.9854 2.09811 23.9899 2.03226C23.9945 1.96641 23.9859 1.90033 23.9648 1.83779C23.9437 1.77526 23.9104 1.7175 23.8668 1.6679C23.8233 1.61829 23.7704 1.57779 23.7111 1.54875L22.7248 1.05658C22.6502 1.01747 22.5669 0.998276 22.4827 0.99995Z" fill="currentColor"/>
<path fill-rule="evenodd" clip-rule="evenodd" d="M26.4903 3C26.4114 3.00087 26.3337 3.02046 26.2638 3.05709L25.2774 3.54926C25.2186 3.57862 25.1662 3.61926 25.1232 3.66887C25.0802 3.71848 25.0473 3.77611 25.0265 3.83842C25.0058 3.90073 24.9975 3.96656 25.0021 4.03208C25.0068 4.0976 25.0243 4.16157 25.0537 4.22032C25.083 4.27907 25.1237 4.33139 25.1733 4.37442C25.2229 4.41744 25.2806 4.45032 25.3429 4.47107C25.4052 4.49183 25.471 4.50009 25.5365 4.49541C25.602 4.49073 25.666 4.47325 25.7247 4.44385L26.711 3.95157C26.8137 3.90246 26.8965 3.81977 26.9458 3.7172C26.9952 3.61463 27.008 3.4983 26.9823 3.38743C26.9566 3.27656 26.8938 3.17786 26.8043 3.1075C26.7149 3.03714 26.6041 2.99888 26.4903 3Z" fill="currentColor"/>
<path fill-rule="evenodd" clip-rule="evenodd" d="M22.4826 2.99995C22.3701 3.00233 22.2618 3.04255 22.175 3.11414C22.0882 3.18573 22.0281 3.28457 22.0044 3.39453C21.9807 3.5045 21.9947 3.61927 22.0443 3.72026C22.0939 3.82125 22.176 3.90254 22.2775 3.95106L23.2638 4.44322C23.3226 4.47321 23.3868 4.49133 23.4526 4.4964C23.5184 4.50147 23.5845 4.49338 23.6472 4.47275C23.7099 4.45213 23.7679 4.41936 23.8179 4.37621C23.8678 4.33306 23.9087 4.28046 23.9382 4.22142C23.9678 4.16239 23.9853 4.09811 23.9898 4.03226C23.9944 3.96641 23.9858 3.90033 23.9647 3.83779C23.9436 3.77526 23.9103 3.7175 23.8668 3.6679C23.8232 3.61829 23.7703 3.57779 23.711 3.54875L22.7247 3.05658C22.6501 3.01747 22.5668 2.99828 22.4826 2.99995Z" fill="currentColor"/>
<path fill-rule="evenodd" clip-rule="evenodd" d="M26.4902 5C26.4113 5.00087 26.3337 5.02034 26.2637 5.05698L25.2773 5.54926C25.1588 5.60861 25.0686 5.71251 25.0267 5.83831C24.9848 5.9641 24.9946 6.1015 25.0539 6.22009C25.1132 6.33868 25.2172 6.42878 25.343 6.47073C25.4687 6.51267 25.606 6.503 25.7246 6.44374L26.7109 5.95157C26.8136 5.90246 26.8964 5.81977 26.9458 5.7172C26.9951 5.61463 27.008 5.4983 26.9822 5.38743C26.9565 5.27656 26.8937 5.17775 26.8043 5.10738C26.7148 5.03702 26.604 4.99888 26.4902 5Z" fill="currentColor"/>
<path fill-rule="evenodd" clip-rule="evenodd" d="M22.4827 4.99995C22.3702 5.00231 22.2618 5.04255 22.175 5.11414C22.0882 5.18573 22.0281 5.28444 22.0044 5.39442C21.9807 5.5044 21.9948 5.61915 22.0443 5.72015C22.0939 5.82114 22.1761 5.90255 22.2776 5.95106L23.2639 6.44322C23.3227 6.47321 23.3868 6.49133 23.4526 6.4964C23.5185 6.50147 23.5846 6.49338 23.6473 6.47275C23.71 6.45213 23.768 6.41936 23.8179 6.37621C23.8679 6.33306 23.9088 6.28046 23.9383 6.22142C23.9678 6.16239 23.9854 6.09811 23.9899 6.03226C23.9945 5.96641 23.9859 5.90033 23.9648 5.83779C23.9437 5.77526 23.9104 5.7175 23.8668 5.6679C23.8233 5.61829 23.7704 5.57779 23.7111 5.54875L22.7248 5.05658C22.6502 5.01747 22.5669 4.99828 22.4827 4.99995Z" fill="currentColor"/>
<path d="M1.50686 0C0.684658 0 0.00695801 0.67752 0.00695801 1.49991V6.49998C0.00695801 7.3223 0.684658 7.99989 1.50686 7.99989H3.50676C4.32916 7.99989 5.00676 7.3223 5.00676 6.49998V1.49991C5.00676 0.67752 4.32916 0 3.50676 0H1.50686ZM1.50686 0.9999H3.50676C3.79246 0.9999 4.00676 1.21421 4.00676 1.49991V6.49998C4.00676 6.78572 3.79246 6.99999 3.50676 6.99999H1.50686C1.22126 6.99999 1.00696 6.78568 1.00696 6.49998V1.49991C1.00696 1.21418 1.22126 0.9999 1.50686 0.9999Z" fill="currentColor"/>
<path fill-rule="evenodd" clip-rule="evenodd" d="M4.49704 0.999878C4.41873 1.00105 4.3418 1.02062 4.27244 1.05697L3.28424 1.54925C3.22494 1.57828 3.17197 1.61868 3.1284 1.66828C3.08483 1.71789 3.05151 1.77564 3.03036 1.83818C3.00922 1.90073 3.00067 1.9669 3.00521 2.03277C3.00975 2.09863 3.02729 2.16287 3.05681 2.22193C3.08634 2.28098 3.12726 2.33368 3.17723 2.37683C3.22719 2.41999 3.28521 2.45276 3.34793 2.47337C3.41065 2.49399 3.47683 2.502 3.54265 2.4969C3.60847 2.49181 3.67264 2.47375 3.73144 2.44373L4.71774 1.95145C4.82038 1.90232 4.9032 1.81964 4.95252 1.71707C5.00183 1.61451 5.01468 1.49828 4.98896 1.38743C4.96324 1.27657 4.90047 1.17774 4.81103 1.10738C4.72159 1.03702 4.61083 0.998778 4.49704 0.999878Z" fill="currentColor"/>
<path fill-rule="evenodd" clip-rule="evenodd" d="M0.491354 0.999918C0.378716 1.00187 0.270037 1.04185 0.182932 1.1133C0.095826 1.18474 0.0353975 1.2835 0.0114391 1.39358C-0.0125193 1.50366 0.0013964 1.61858 0.0509311 1.71977C0.100466 1.82095 0.182717 1.90244 0.284354 1.95103L1.27255 2.44319C1.3316 2.47575 1.39663 2.49605 1.46372 2.50282C1.53081 2.5096 1.59857 2.50273 1.66294 2.48264C1.72731 2.46255 1.78695 2.42972 1.83828 2.38598C1.88961 2.34225 1.93156 2.28856 1.96161 2.2282C1.99166 2.16783 2.00919 2.10197 2.01315 2.03465C2.01711 1.96733 2.00741 1.89997 1.98464 1.83649C1.96187 1.77302 1.92649 1.71477 1.88065 1.66533C1.8348 1.61588 1.77943 1.57621 1.71785 1.54872L0.731654 1.05655C0.657586 1.01773 0.574966 0.998548 0.491354 0.999918Z" fill="currentColor"/>
<path fill-rule="evenodd" clip-rule="evenodd" d="M4.49704 3C4.41873 3.00117 4.3418 3.02074 4.27244 3.05709L3.28424 3.54926C3.22494 3.57828 3.17197 3.61881 3.1284 3.66841C3.08483 3.71801 3.05151 3.77576 3.03036 3.83831C3.00922 3.90085 3.00067 3.96691 3.00521 4.03277C3.00975 4.09864 3.02729 4.16299 3.05681 4.22205C3.08634 4.2811 3.12726 4.33368 3.17723 4.37684C3.22719 4.41999 3.28521 4.45288 3.34793 4.47349C3.41065 4.49411 3.47683 4.50212 3.54265 4.49702C3.60847 4.49193 3.67264 4.47387 3.73144 4.44385L4.71774 3.95157C4.82041 3.90246 4.90325 3.81977 4.95258 3.7172C5.0019 3.61463 5.01477 3.4983 4.98904 3.38743C4.96332 3.27656 4.90054 3.17786 4.81108 3.1075C4.72163 3.03714 4.61084 2.99888 4.49704 3Z" fill="currentColor"/>
<path fill-rule="evenodd" clip-rule="evenodd" d="M0.4914 2.99992C0.378776 3.00189 0.270116 3.04186 0.183026 3.1133C0.0959359 3.18474 0.0355184 3.28351 0.011562 3.39358C-0.0123944 3.50365 0.00151408 3.61859 0.0510338 3.71977C0.100553 3.82094 0.182783 3.90242 0.2844 3.95103L1.2726 4.44319C1.33165 4.47575 1.39668 4.49605 1.46376 4.50282C1.53085 4.5096 1.59862 4.50273 1.66299 4.48264C1.72736 4.46255 1.787 4.42972 1.83833 4.38598C1.88965 4.34225 1.9316 4.28856 1.96165 4.2282C1.9917 4.16783 2.00924 4.10197 2.01319 4.03465C2.01715 3.96733 2.00745 3.89997 1.98468 3.83649C1.96191 3.77302 1.92654 3.71477 1.88069 3.66533C1.83485 3.61588 1.77947 3.57621 1.7179 3.54872L0.7317 3.05655C0.657632 3.01773 0.575012 2.99855 0.4914 2.99992Z" fill="currentColor"/>
<path fill-rule="evenodd" clip-rule="evenodd" d="M4.49704 5C4.41873 5.00117 4.3418 5.02063 4.27244 5.05698L3.28424 5.54926C3.22494 5.57828 3.17197 5.61869 3.1284 5.66829C3.08483 5.71789 3.05151 5.77564 3.03036 5.83819C3.00922 5.90074 3.00067 5.96691 3.00521 6.03277C3.00975 6.09864 3.02729 6.16288 3.05681 6.22193C3.08634 6.28099 3.12726 6.33368 3.17723 6.37684C3.22719 6.41999 3.28521 6.45276 3.34793 6.47338C3.41065 6.49399 3.47683 6.502 3.54265 6.49691C3.60847 6.49181 3.67264 6.47376 3.73144 6.44374L4.71774 5.95157C4.82041 5.90246 4.90325 5.81977 4.95258 5.7172C5.0019 5.61463 5.01477 5.4983 4.98904 5.38743C4.96332 5.27656 4.90054 5.17775 4.81108 5.10738C4.72163 5.03702 4.61084 4.99888 4.49704 5Z" fill="currentColor"/>
<path fill-rule="evenodd" clip-rule="evenodd" d="M0.491354 4.99992C0.378716 5.00187 0.270037 5.04174 0.182932 5.11318C0.095826 5.18463 0.0353975 5.28338 0.0114391 5.39347C-0.0125193 5.50355 0.0013964 5.61858 0.0509311 5.71977C0.100466 5.82095 0.182717 5.90244 0.284354 5.95103L1.27255 6.44319C1.3316 6.47575 1.39663 6.49605 1.46372 6.50282C1.53081 6.5096 1.59857 6.50273 1.66294 6.48264C1.72731 6.46255 1.78695 6.42972 1.83828 6.38598C1.88961 6.34225 1.93156 6.28856 1.96161 6.2282C1.99166 6.16783 2.00919 6.10197 2.01315 6.03465C2.01711 5.96733 2.00741 5.89997 1.98464 5.83649C1.96187 5.77302 1.92649 5.71477 1.88065 5.66533C1.8348 5.61588 1.77943 5.57621 1.71785 5.54872L0.731654 5.05655C0.657587 5.01773 0.574966 4.99855 0.491354 4.99992Z" fill="currentColor"/>
<path fill-rule="evenodd" clip-rule="evenodd" d="M5.99303 2.74994C5.86079 2.75203 5.73476 2.80635 5.64254 2.90115C5.55031 2.99595 5.49939 3.12346 5.50093 3.25571V4.74201C5.49975 4.80842 5.51181 4.87444 5.53641 4.93613C5.561 4.99783 5.59764 5.05392 5.64418 5.1013C5.69072 5.14868 5.74624 5.18634 5.80748 5.21203C5.86872 5.23772 5.93447 5.2509 6.00088 5.2509C6.0673 5.2509 6.13304 5.23772 6.19429 5.21203C6.25553 5.18634 6.31105 5.14868 6.35759 5.1013C6.40413 5.05392 6.44077 4.99783 6.46536 4.93613C6.48996 4.87444 6.50201 4.80842 6.50083 4.74201V3.25571C6.50161 3.1889 6.48899 3.12264 6.46372 3.06079C6.43846 2.99893 6.40105 2.94277 6.35371 2.89562C6.30637 2.84846 6.25007 2.8113 6.18812 2.78627C6.12617 2.76125 6.05984 2.7489 5.99303 2.74994Z" fill="currentColor"/>
<path fill-rule="evenodd" clip-rule="evenodd" d="M6.00085 3.5V4.50002H12.0007V3.5H6.00085Z" fill="currentColor"/>
<path fill-rule="evenodd" clip-rule="evenodd" d="M12.5006 18.5C11.6781 18.5 11.0006 19.1775 11.0006 20V22.3476L10.1686 23.5957C10.0591 23.7597 10.0007 23.9529 10.0007 24.1504V28.5C10.0007 29.3225 10.6781 30.0001 11.5006 30.0001H15.5004C16.3229 30.0001 17.0004 29.3225 17.0004 28.5V24.1504C17.0004 23.9531 16.9414 23.7599 16.8324 23.5957L16.0004 22.3476V20C16.0004 19.1775 15.323 18.5 14.5005 18.5H12.5006ZM12.5006 19.5H14.5005C14.7825 19.5 15.0005 19.7181 15.0005 20V22.3476C15.0005 22.5449 15.0585 22.7381 15.1684 22.9023L16.0004 24.1504V28.5C16.0004 28.782 15.7824 29 15.5004 29H11.5006C11.2185 29 11.0006 28.782 11.0006 28.5V24.1504L11.8326 22.9023C11.9421 22.7382 12.0006 22.5451 12.0006 22.3476V20C12.0006 19.7181 12.2185 19.5 12.5006 19.5Z" fill="currentColor"/>
<path d="M23.5001 22C22.6777 22 22.0002 22.6776 22.0002 23.5V28.5C22.0002 29.3223 22.6777 30 23.5001 30H25.5C26.3223 30 27 29.3223 27 28.5V23.5C27 22.6776 26.3223 22 25.5 22H23.5001ZM23.5001 22.9999H25.5C25.7856 22.9999 26 23.2143 26 23.5V28.5C26 28.7857 25.7856 29 25.5 29H23.5001C23.2144 29 23.0001 28.7857 23.0001 28.5V23.5C23.0001 23.2143 23.2144 22.9999 23.5001 22.9999Z" fill="currentColor"/>
<path fill-rule="evenodd" clip-rule="evenodd" d="M26.4903 22.9999C26.4113 23.0008 26.3337 23.0203 26.2638 23.057L25.2774 23.5491C25.2186 23.5785 25.1663 23.6191 25.1232 23.6687C25.0802 23.7184 25.0474 23.776 25.0266 23.8383C25.0059 23.9006 24.9976 23.9663 25.0022 24.0318C25.0069 24.0973 25.0244 24.1613 25.0538 24.2201C25.0832 24.2788 25.1238 24.3312 25.1734 24.3742C25.223 24.4172 25.2806 24.4501 25.3429 24.4708C25.4052 24.4916 25.471 24.4998 25.5365 24.4952C25.602 24.4905 25.6659 24.473 25.7247 24.4436L26.711 23.9514C26.8136 23.9023 26.8965 23.8196 26.9458 23.7171C26.9951 23.6145 27.008 23.4982 26.9823 23.3873C26.9565 23.2764 26.8938 23.1777 26.8043 23.1074C26.7148 23.037 26.6041 22.9988 26.4903 22.9999Z" fill="currentColor"/>
<path fill-rule="evenodd" clip-rule="evenodd" d="M22.4827 22.9999C22.3702 23.0023 22.2618 23.0425 22.175 23.1141C22.0882 23.1857 22.0281 23.2846 22.0044 23.3945C21.9807 23.5045 21.9948 23.6193 22.0443 23.7203C22.0939 23.8213 22.1761 23.9025 22.2776 23.9511L23.2639 24.4433C23.3227 24.4733 23.3868 24.4913 23.4526 24.4964C23.5185 24.5015 23.5846 24.4935 23.6473 24.4729C23.71 24.4522 23.768 24.4194 23.8179 24.3762C23.8679 24.3331 23.9088 24.2805 23.9383 24.2214C23.9678 24.1624 23.9854 24.0981 23.9899 24.0323C23.9945 23.9664 23.9859 23.9003 23.9648 23.8378C23.9437 23.7753 23.9104 23.7175 23.8668 23.6679C23.8233 23.6183 23.7704 23.5779 23.7111 23.5489L22.7248 23.0566C22.6502 23.0175 22.5669 22.9983 22.4827 22.9999Z" fill="currentColor"/>
<path fill-rule="evenodd" clip-rule="evenodd" d="M26.4903 24.9999C26.4113 25.0008 26.3337 25.0203 26.2638 25.057L25.2774 25.5491C25.2186 25.5785 25.1663 25.6192 25.1232 25.6689C25.0802 25.7185 25.0474 25.776 25.0266 25.8383C25.0059 25.9006 24.9976 25.9665 25.0022 26.032C25.0069 26.0975 25.0244 26.1613 25.0538 26.2201C25.0832 26.2788 25.1238 26.3312 25.1734 26.3742C25.223 26.4172 25.2806 26.4501 25.3429 26.4708C25.4052 26.4916 25.471 26.4998 25.5365 26.4952C25.602 26.4905 25.6659 26.4731 25.7247 26.4437L26.711 25.9514C26.8136 25.9023 26.8964 25.8196 26.9457 25.7171C26.9951 25.6145 27.0079 25.4983 26.9822 25.3874C26.9565 25.2766 26.8937 25.1777 26.8043 25.1074C26.7148 25.037 26.6041 24.9988 26.4903 24.9999Z" fill="currentColor"/>
<path fill-rule="evenodd" clip-rule="evenodd" d="M22.4827 24.9999C22.3702 25.0023 22.2618 25.0425 22.175 25.1141C22.0882 25.1857 22.0281 25.2846 22.0044 25.3945C21.9807 25.5045 21.9948 25.6193 22.0443 25.7203C22.0939 25.8213 22.1761 25.9025 22.2776 25.9511L23.2639 26.4432C23.3227 26.4732 23.3868 26.4913 23.4526 26.4964C23.5185 26.5015 23.5846 26.4934 23.6473 26.4728C23.71 26.4521 23.768 26.4194 23.8179 26.3762C23.8679 26.3331 23.9088 26.2805 23.9383 26.2214C23.9678 26.1624 23.9854 26.0981 23.9899 26.0323C23.9945 25.9664 23.9859 25.9003 23.9648 25.8378C23.9437 25.7753 23.9104 25.7175 23.8668 25.6679C23.8233 25.6183 23.7704 25.5778 23.7111 25.5487L22.7248 25.0566C22.6502 25.0175 22.5669 24.9983 22.4827 24.9999Z" fill="currentColor"/>
<path fill-rule="evenodd" clip-rule="evenodd" d="M26.4902 27C26.4113 27.0009 26.3337 27.0205 26.2637 27.0571L25.2773 27.5493C25.2186 27.5786 25.1661 27.6193 25.1231 27.6689C25.08 27.7185 25.0471 27.7761 25.0263 27.8384C25.0055 27.9007 24.9972 27.9665 25.0019 28.0321C25.0065 28.0976 25.024 28.1616 25.0534 28.2203C25.0828 28.2791 25.1235 28.3315 25.1731 28.3745C25.2228 28.4176 25.2804 28.4504 25.3427 28.4712C25.4051 28.4919 25.4709 28.5002 25.5364 28.4955C25.6019 28.4908 25.6659 28.4732 25.7246 28.4437L26.7109 27.9516C26.8136 27.9025 26.8964 27.8198 26.9458 27.7172C26.9951 27.6146 27.008 27.4983 26.9822 27.3874C26.9565 27.2766 26.8937 27.1777 26.8043 27.1074C26.7148 27.037 26.604 26.9989 26.4902 27Z" fill="currentColor"/>
<path fill-rule="evenodd" clip-rule="evenodd" d="M22.4826 26.9999C22.3701 27.0023 22.2618 27.0425 22.175 27.1141C22.0882 27.1857 22.0281 27.2845 22.0044 27.3944C21.9807 27.5044 21.9947 27.6192 22.0443 27.7201C22.0939 27.8211 22.176 27.9025 22.2775 27.9511L23.2638 28.4432C23.3226 28.4732 23.3868 28.4913 23.4526 28.4964C23.5184 28.5015 23.5845 28.4934 23.6472 28.4728C23.7099 28.4521 23.7679 28.4194 23.8179 28.3762C23.8678 28.3331 23.9087 28.2805 23.9382 28.2214C23.9678 28.1624 23.9853 28.0981 23.9898 28.0323C23.9944 27.9664 23.9858 27.9002 23.9647 27.8377C23.9436 27.7751 23.9103 27.7175 23.8668 27.6679C23.8232 27.6183 23.7703 27.5778 23.711 27.5487L22.7247 27.0566C22.6501 27.0175 22.5668 26.9983 22.4826 26.9999Z" fill="currentColor"/>
<path d="M1.50686 22C0.684658 22 0.00695801 22.6776 0.00695801 23.5V28.5C0.00695801 29.3223 0.684658 30 1.50686 30H3.50676C4.32916 30 5.00676 29.3223 5.00676 28.5V23.5C5.00676 22.6776 4.32916 22 3.50676 22H1.50686ZM1.50686 22.9999H3.50676C3.79246 22.9999 4.00676 23.2143 4.00676 23.5V28.5C4.00676 28.7857 3.79246 29 3.50676 29H1.50686C1.22126 29 1.00696 28.7857 1.00696 28.5V23.5C1.00696 23.2143 1.22126 22.9999 1.50686 22.9999Z" fill="currentColor"/>
<path fill-rule="evenodd" clip-rule="evenodd" d="M4.49704 22.9999C4.41873 23.0011 4.3418 23.0206 4.27244 23.057L3.28424 23.5491C3.22494 23.5782 3.17197 23.6187 3.1284 23.6683C3.08483 23.7179 3.05151 23.7756 3.03036 23.8382C3.00922 23.9007 3.00067 23.9668 3.00521 24.0327C3.00975 24.0985 3.02729 24.1629 3.05681 24.2219C3.08634 24.281 3.12726 24.3336 3.17723 24.3767C3.22719 24.4199 3.28521 24.4528 3.34793 24.4734C3.41065 24.494 3.47683 24.502 3.54265 24.4969C3.60847 24.4918 3.67264 24.4736 3.73144 24.4436L4.71774 23.9514C4.82041 23.9023 4.90325 23.8196 4.95258 23.7171C5.0019 23.6145 5.01477 23.4982 4.98904 23.3873C4.96332 23.2764 4.90054 23.1777 4.81108 23.1074C4.72163 23.037 4.61084 22.9988 4.49704 22.9999Z" fill="currentColor"/>
<path fill-rule="evenodd" clip-rule="evenodd" d="M0.491354 22.9999C0.378716 23.0019 0.270037 23.0419 0.182932 23.1133C0.095826 23.1847 0.0353975 23.2835 0.0114391 23.3936C-0.0125193 23.5037 0.0013964 23.6186 0.0509311 23.7198C0.100466 23.821 0.182717 23.9024 0.284354 23.951L1.27255 24.4433C1.3316 24.4759 1.39663 24.4962 1.46372 24.5029C1.53081 24.5097 1.59857 24.5028 1.66294 24.4828C1.72731 24.4627 1.78695 24.4297 1.83828 24.386C1.88961 24.3422 1.93156 24.2886 1.96161 24.2282C1.99166 24.1678 2.00919 24.1021 2.01315 24.0348C2.01711 23.9674 2.00741 23.9 1.98464 23.8365C1.96187 23.773 1.92649 23.7149 1.88065 23.6654C1.8348 23.616 1.77943 23.5763 1.71785 23.5488L0.731654 23.0566C0.657587 23.0177 0.574966 22.9985 0.491354 22.9999Z" fill="currentColor"/>
<path fill-rule="evenodd" clip-rule="evenodd" d="M4.49704 24.9999C4.41873 25.0011 4.3418 25.0206 4.27244 25.057L3.28424 25.5491C3.22494 25.5782 3.17197 25.6187 3.1284 25.6683C3.08483 25.7179 3.05151 25.7756 3.03036 25.8382C3.00922 25.9007 3.00067 25.9668 3.00521 26.0327C3.00975 26.0985 3.02729 26.1629 3.05681 26.2219C3.08634 26.281 3.12726 26.3336 3.17723 26.3767C3.22719 26.4199 3.28521 26.4528 3.34793 26.4734C3.41065 26.494 3.47683 26.502 3.54265 26.4969C3.60847 26.4918 3.67264 26.4738 3.73144 26.4437L4.71774 25.9514C4.82038 25.9023 4.9032 25.8196 4.95252 25.7171C5.00183 25.6145 5.01468 25.4983 4.98896 25.3874C4.96324 25.2766 4.90047 25.1777 4.81103 25.1074C4.72159 25.037 4.61083 24.9988 4.49704 24.9999Z" fill="currentColor"/>
<path fill-rule="evenodd" clip-rule="evenodd" d="M0.491354 24.9999C0.378716 25.0019 0.270037 25.0419 0.182932 25.1133C0.095826 25.1847 0.0353975 25.2835 0.0114391 25.3936C-0.0125193 25.5037 0.0013964 25.6186 0.0509311 25.7198C0.100466 25.821 0.182717 25.9024 0.284354 25.951L1.27255 26.4432C1.3316 26.4758 1.39663 26.496 1.46372 26.5028C1.53081 26.5096 1.59857 26.5027 1.66294 26.4826C1.72731 26.4626 1.78695 26.4297 1.83828 26.386C1.88961 26.3422 1.93156 26.2886 1.96161 26.2282C1.99166 26.1678 2.00919 26.102 2.01315 26.0347C2.01711 25.9673 2.00741 25.9 1.98464 25.8365C1.96187 25.773 1.92649 25.7148 1.88065 25.6653C1.8348 25.6159 1.77943 25.5762 1.71785 25.5487L0.731654 25.0566C0.657586 25.0177 0.574966 24.9985 0.491354 24.9999Z" fill="currentColor"/>
<path fill-rule="evenodd" clip-rule="evenodd" d="M4.49704 27C4.41873 27.0012 4.3418 27.0207 4.27244 27.0571L3.28424 27.5493C3.22494 27.5783 3.17197 27.6188 3.1284 27.6684C3.08483 27.718 3.05151 27.7758 3.03036 27.8383C3.00922 27.9009 3.00067 27.9669 3.00521 28.0328C3.00975 28.0986 3.02729 28.163 3.05681 28.222C3.08634 28.2811 3.12726 28.3337 3.17723 28.3768C3.22719 28.42 3.28521 28.4529 3.34793 28.4735C3.41065 28.4941 3.47683 28.5021 3.54265 28.497C3.60847 28.4919 3.67264 28.4738 3.73144 28.4437L4.71774 27.9516C4.82041 27.9025 4.90325 27.8198 4.95258 27.7172C5.0019 27.6146 5.01477 27.4983 4.98904 27.3874C4.96332 27.2766 4.90054 27.1777 4.81108 27.1074C4.72163 27.037 4.61084 26.9989 4.49704 27Z" fill="currentColor"/>
<path fill-rule="evenodd" clip-rule="evenodd" d="M0.4914 26.9999C0.378776 27.0019 0.270116 27.0419 0.183026 27.1133C0.0959359 27.1847 0.0355184 27.2835 0.011562 27.3936C-0.0123944 27.5036 0.00151408 27.6186 0.0510338 27.7198C0.100553 27.8209 0.182783 27.9024 0.2844 27.951L1.2726 28.4432C1.33165 28.4758 1.39668 28.496 1.46376 28.5028C1.53085 28.5096 1.59862 28.5027 1.66299 28.4826C1.72736 28.4626 1.787 28.4296 1.83833 28.3859C1.88965 28.3421 1.9316 28.2886 1.96165 28.2282C1.9917 28.1678 2.00924 28.102 2.01319 28.0347C2.01715 27.9673 2.00745 27.9 1.98468 27.8365C1.96191 27.773 1.92654 27.7148 1.88069 27.6653C1.83485 27.6159 1.77947 27.5762 1.7179 27.5487L0.7317 27.0566C0.657632 27.0177 0.575012 26.9985 0.4914 26.9999Z" fill="currentColor"/>
<path fill-rule="evenodd" clip-rule="evenodd" d="M5.99303 24.7499C5.86045 24.752 5.73412 24.8067 5.64183 24.902C5.54955 24.9972 5.49887 25.1251 5.50093 25.2577V26.742C5.49975 26.8084 5.51181 26.8743 5.53641 26.936C5.561 26.9977 5.59764 27.0539 5.64418 27.1013C5.69072 27.1487 5.74624 27.1863 5.80748 27.212C5.86872 27.2377 5.93447 27.2509 6.00088 27.2509C6.0673 27.2509 6.13304 27.2377 6.19429 27.212C6.25553 27.1863 6.31105 27.1487 6.35759 27.1013C6.40413 27.0539 6.44077 26.9977 6.46536 26.936C6.48996 26.8743 6.50201 26.8084 6.50083 26.742V25.2577C6.50188 25.1907 6.48945 25.1243 6.4643 25.0622C6.43915 25.0001 6.40179 24.9437 6.35442 24.8963C6.30706 24.8489 6.25066 24.8115 6.18858 24.7864C6.1265 24.7612 6.06 24.7489 5.99303 24.7499Z" fill="currentColor"/>
<path fill-rule="evenodd" clip-rule="evenodd" d="M6.00085 25.5V26.5H10.5008V25.5H6.00085Z" fill="currentColor"/>
<path fill-rule="evenodd" clip-rule="evenodd" d="M20.9925 24.7499C20.9268 24.751 20.862 24.7649 20.8018 24.791C20.7415 24.8171 20.6869 24.8547 20.6412 24.9018C20.5955 24.949 20.5596 25.0047 20.5354 25.0657C20.5112 25.1268 20.4993 25.192 20.5003 25.2577V26.742C20.4996 26.8081 20.512 26.8737 20.5368 26.935C20.5616 26.9963 20.5983 27.0521 20.6448 27.0991C20.6913 27.1461 20.7467 27.1834 20.8077 27.2089C20.8687 27.2344 20.9342 27.2474 21.0003 27.2474C21.0664 27.2474 21.1319 27.2344 21.1929 27.2089C21.2539 27.1834 21.3093 27.1461 21.3558 27.0991C21.4023 27.0521 21.439 26.9963 21.4638 26.935C21.4886 26.8737 21.501 26.8081 21.5003 26.742V25.2577C21.5013 25.1907 21.4889 25.1243 21.4638 25.0622C21.4386 25.0001 21.4013 24.9437 21.3539 24.8963C21.3065 24.8489 21.2501 24.8115 21.1881 24.7864C21.126 24.7612 21.0595 24.7489 20.9925 24.7499Z" fill="currentColor"/>
<path fill-rule="evenodd" clip-rule="evenodd" d="M16.5005 25.5V26.5H21.0003V25.5H16.5005Z" fill="currentColor"/>
<path fill-rule="evenodd" clip-rule="evenodd" d="M20.9925 2.74994C20.8602 2.752 20.7342 2.80635 20.6419 2.90115C20.5497 2.99595 20.4987 3.12344 20.5003 3.25571V4.74201C20.4996 4.80813 20.512 4.87368 20.5368 4.93498C20.5616 4.99627 20.5983 5.0521 20.6448 5.09911C20.6913 5.14612 20.7467 5.18344 20.8077 5.20892C20.8687 5.23439 20.9342 5.24744 21.0003 5.24744C21.0664 5.24744 21.1319 5.23439 21.1929 5.20892C21.2539 5.18344 21.3093 5.14612 21.3558 5.09911C21.4023 5.0521 21.439 4.99627 21.4638 4.93498C21.4886 4.87368 21.501 4.80813 21.5003 4.74201V3.25571C21.5011 3.1889 21.4884 3.12264 21.4632 3.06079C21.4379 2.99893 21.4005 2.94277 21.3532 2.89562C21.3058 2.84846 21.2495 2.8113 21.1876 2.78627C21.1256 2.76125 21.0593 2.7489 20.9925 2.74994Z" fill="currentColor"/>
<path fill-rule="evenodd" clip-rule="evenodd" d="M15.0006 3.5V4.50002H21.0003V3.5H15.0006Z" fill="currentColor"/>
</svg>
