<svg viewBox="0 0 100 100" fill="none" xmlns="http://www.w3.org/2000/svg">
<path d="M40.625 4.68701C38.055 4.68701 35.9375 6.80486 35.9375 9.37458C35.9375 11.9445 38.055 14.0622 40.625 14.0622H59.375C61.9447 14.0622 64.0625 11.9445 64.0625 9.37458C64.0625 6.80486 61.9447 4.68701 59.375 4.68701H40.625ZM40.625 7.81242H59.375C60.2675 7.81242 60.9375 8.48179 60.9375 9.37458C60.9375 10.2675 60.2675 10.9371 59.375 10.9371H40.625C39.7322 10.9371 39.0625 10.2674 39.0625 9.37458C39.0625 8.48167 39.7322 7.81242 40.625 7.81242Z" fill="currentColor"/>
<path d="M40.625 46.875C38.055 46.875 35.9375 48.9928 35.9375 51.5626C35.9375 54.1325 38.055 56.2498 40.625 56.2498H59.375C61.9447 56.2498 64.0625 54.1325 64.0625 51.5626C64.0625 48.9928 61.9447 46.875 59.375 46.875H40.625ZM40.625 50H59.375C60.2675 50 60.9375 50.6697 60.9375 51.5626C60.9375 52.4555 60.2675 53.1251 59.375 53.1251H40.625C39.7322 53.1251 39.0625 52.4554 39.0625 51.5626C39.0625 50.6697 39.7322 50 40.625 50Z" fill="currentColor"/>
<path fill-rule="evenodd" clip-rule="evenodd" d="M40.625 54.6875V57.8122C40.625 60.3825 42.7422 62.4998 45.3125 62.4998H54.6875C57.2578 62.4998 59.375 60.3825 59.375 57.8122V54.6875H56.25V57.8122C56.25 58.6933 55.5691 59.3747 54.6875 59.3747H45.3125C44.4309 59.3747 43.75 58.6932 43.75 57.8122V54.6875H40.625Z" fill="currentColor"/>
<path fill-rule="evenodd" clip-rule="evenodd" d="M60.8459 15.6311C60.7576 15.6355 60.6698 15.6472 60.5834 15.6665L38.7572 20.3418C38.5564 20.3847 38.366 20.4665 38.1969 20.5829C38.0279 20.6994 37.8834 20.8482 37.7717 21.0205C37.6601 21.1928 37.5834 21.3852 37.5462 21.5871C37.509 21.789 37.5119 21.9966 37.5548 22.1973C37.5977 22.3981 37.6797 22.5884 37.7962 22.7575C37.9126 22.9266 38.0612 23.0711 38.2335 23.1828C38.4058 23.2944 38.5984 23.3709 38.8004 23.4081C39.0023 23.4453 39.2095 23.4423 39.4103 23.3994L61.2428 18.7245C61.6341 18.6503 61.9823 18.4293 62.2163 18.107C62.4502 17.7847 62.5523 17.3854 62.5016 16.9904C62.451 16.5953 62.2514 16.2343 61.9437 15.9815C61.6359 15.7287 61.2433 15.6031 60.8459 15.6301V15.6311Z" fill="currentColor"/>
<path fill-rule="evenodd" clip-rule="evenodd" d="M60.8459 21.8809C60.7576 21.8853 60.6698 21.897 60.5834 21.9162L38.7572 26.5916C38.3517 26.6782 37.9972 26.9223 37.7717 27.2703C37.5462 27.6183 37.4682 28.0416 37.5548 28.4471C37.6414 28.8526 37.8856 29.2071 38.2335 29.4326C38.5815 29.6581 39.0048 29.7362 39.4103 29.6496L61.2428 24.9764C61.6341 24.9022 61.9823 24.6813 62.2163 24.359C62.4502 24.0367 62.5523 23.6373 62.5016 23.2423C62.451 22.8473 62.2514 22.4863 61.9437 22.2334C61.6359 21.9806 61.2433 21.8551 60.8459 21.882V21.8809Z" fill="currentColor"/>
<path fill-rule="evenodd" clip-rule="evenodd" d="M60.8459 28.1311C60.7576 28.1355 60.6698 28.1472 60.5834 28.1665L38.7572 32.8421C38.5554 32.884 38.3638 32.965 38.1936 33.0811C38.0233 33.1972 37.8777 33.3461 37.7651 33.5187C37.6526 33.6913 37.5752 33.8845 37.5376 34.0871C37.4999 34.2897 37.5027 34.4979 37.5457 34.6995C37.5888 34.901 37.6712 35.0919 37.7884 35.2614C37.9055 35.431 38.0551 35.5759 38.2284 35.6875C38.4016 35.799 38.5953 35.8752 38.7981 35.9117C39.001 35.9481 39.209 35.944 39.4103 35.8998L61.2428 31.2245C61.6341 31.1503 61.9823 30.9293 62.2162 30.607C62.4502 30.2847 62.5523 29.8854 62.5016 29.4904C62.4509 29.0953 62.2514 28.7347 61.9436 28.4818C61.6359 28.229 61.2433 28.1031 60.8459 28.13V28.1311Z" fill="currentColor"/>
<path fill-rule="evenodd" clip-rule="evenodd" d="M60.8459 34.3811C60.7576 34.3855 60.6698 34.3972 60.5834 34.4165L38.7572 39.0918C38.352 39.1787 37.9979 39.423 37.7727 39.7708C37.5475 40.1187 37.4697 40.5417 37.5562 40.947C37.6428 41.3522 37.8867 41.7066 38.2343 41.9321C38.582 42.1576 39.005 42.236 39.4103 42.1498L61.2428 37.4745C61.6341 37.4003 61.9823 37.1793 62.2162 36.857C62.4502 36.5347 62.5523 36.1354 62.5016 35.7404C62.4509 35.3453 62.2514 34.9847 61.9436 34.7318C61.6359 34.479 61.2433 34.3531 60.8459 34.38V34.3811Z" fill="currentColor"/>
<path fill-rule="evenodd" clip-rule="evenodd" d="M56.25 12.5V48.4377H59.375V12.5H56.25Z" fill="currentColor"/>
<path fill-rule="evenodd" clip-rule="evenodd" d="M40.625 12.5V48.4377H43.75V12.5H40.625Z" fill="currentColor"/>
<path fill-rule="evenodd" clip-rule="evenodd" d="M43.75 60.9375V89.0626H56.25V60.9375H53.125V85.9375H46.875V60.9375H43.75Z" fill="currentColor"/>
<path fill-rule="evenodd" clip-rule="evenodd" d="M45.3125 87.5V96.8751H54.6875V87.5H51.5625V93.7501H48.4375V87.5H45.3125Z" fill="currentColor"/>
<path fill-rule="evenodd" clip-rule="evenodd" d="M45.3125 65.625V68.75H54.6875V65.625H45.3125Z" fill="currentColor"/>
<path fill-rule="evenodd" clip-rule="evenodd" d="M45.3125 71.875V75H54.6875V71.875H45.3125Z" fill="currentColor"/>
<path fill-rule="evenodd" clip-rule="evenodd" d="M45.3125 78.1245V81.2496H54.6875V78.1245H45.3125Z" fill="currentColor"/>
</svg>
