<svg viewBox="0 0 100 100" fill="none" xmlns="http://www.w3.org/2000/svg">
<path fill-rule="evenodd" clip-rule="evenodd" d="M47.705 7.86602C44.2684 8.01956 40.8559 8.51574 37.5181 9.34924L31.2681 10.9118L30.194 16.3011C29.8703 17.9147 29.7068 19.5563 29.7056 21.2021V37.8344C29.7056 37.8344 22.3312 45.2005 18.6522 48.8816C17.1259 50.3545 19.389 52.6175 20.8619 51.0912L29.7178 42.2289V53.447C29.6646 53.4825 29.6115 53.5299 29.5647 53.5818L18.6456 64.5072C17.1725 65.9843 19.3881 68.1935 20.8612 66.7164L29.7172 57.848V68.3827V68.3946V87.4989C29.7178 90.0878 31.8162 92.1861 34.4047 92.1861H65.6547C68.2431 92.1861 70.3415 90.0878 70.3422 87.4989V68.767V68.7608V57.9208L79.1372 66.7283C80.6103 68.2054 82.8259 65.996 81.3528 64.5188L70.4337 53.5937C70.4024 53.5701 70.3743 53.5344 70.3431 53.5108V42.2989L79.1381 51.1002C80.6109 52.6265 82.8741 50.3631 81.3478 48.8907C77.6853 45.2262 70.3491 37.8921 70.3491 37.8921V21.1988C70.35 19.5532 70.1897 17.9114 69.8669 16.2975L68.7866 10.9082L62.5428 9.34564C57.701 8.13643 52.7091 7.63718 47.7235 7.86277L47.705 7.86602ZM50.0853 24.9986C54.3603 25.0049 58.6187 25.3918 62.854 26.1394C63.6256 26.2764 64.1656 27.0277 64.0684 27.8058L62.6647 39.0545C54.1465 37.1461 45.7181 37.2122 37.3718 39.0545L35.9678 27.8242C35.8709 27.0387 36.4222 26.2792 37.2009 26.1394C41.5175 25.3658 45.8103 24.9915 50.0853 24.9986ZM67.1997 42.9978V53.1356H64.0806V49.0831C64.0812 47.6629 64.5656 46.2849 65.454 45.1766L67.1997 42.9978ZM32.8428 43.2057L34.5031 45.1651C35.4425 46.2718 35.9547 47.6474 35.9556 49.0651V53.1241H32.8428V43.2057ZM32.8428 56.2488H35.9556V59.9112C35.9556 61.5685 35.2575 63.1578 34.0147 64.3299L32.8428 65.4343V56.2488ZM64.0806 56.2606H67.1997V65.6358L65.9118 64.3479C64.7381 63.1751 64.0793 61.5823 64.0806 59.9228V56.2606ZM37.5181 68.7486H62.5181L64.0747 78.2823C64.1622 79.0607 63.6059 79.832 62.8293 79.9851C54.2859 81.6407 45.9334 81.7053 37.2253 79.9851C36.4422 79.8303 35.8787 79.0497 35.9678 78.2639L37.5181 68.7486Z" fill="currentColor"/>
</svg>
