<svg viewBox="0 0 100 100" fill="none" xmlns="http://www.w3.org/2000/svg">
<path d="M37.4512 25C22.0601 25 9.375 36.1007 9.375 50C9.375 63.8995 22.0601 75 37.4512 75C39.6985 75 41.7237 74.0635 43.3227 72.571C44.9218 71.0782 46.1568 69.0571 47.1313 66.7174C49.0804 62.0386 50 56.0222 50 50C50 43.9782 49.0804 37.9675 47.1313 33.2888C46.1568 30.949 44.9218 28.928 43.3227 27.4352C41.7237 25.9424 39.6985 25 37.4512 25V25ZM37.4512 28.125C38.865 28.125 40.0458 28.6528 41.1926 29.724C42.3395 30.7952 43.3944 32.4358 44.2505 34.4908C45.9626 38.6012 46.875 44.3034 46.875 50C46.875 55.697 45.9626 61.4051 44.2505 65.5153C43.3944 67.5703 42.3395 69.2113 41.1926 70.2822C40.0458 71.3523 38.865 71.875 37.4512 71.875C23.5529 71.875 12.5 61.9888 12.5 50C12.5 38.0114 23.5529 28.125 37.4512 28.125Z" fill="currentColor"/>
<path fill-rule="evenodd" clip-rule="evenodd" d="M56.2726 40.6252C56.0654 40.6221 55.8597 40.6601 55.6674 40.7373C55.4751 40.8144 55.3 40.9289 55.1524 41.0743C55.0048 41.2197 54.8876 41.3928 54.8076 41.584C54.7276 41.7751 54.6864 41.9805 54.6864 42.1877C54.6864 42.3949 54.7276 42.6 54.8076 42.7911C54.8876 42.9822 55.0048 43.1554 55.1524 43.3008C55.3 43.4461 55.4751 43.5606 55.6674 43.6378C55.8597 43.7149 56.0654 43.753 56.2726 43.7499H85.9127C86.1199 43.753 86.3256 43.7149 86.5179 43.6378C86.7102 43.5606 86.8853 43.4461 87.0329 43.3008C87.1805 43.1554 87.2977 42.9822 87.3777 42.7911C87.4577 42.6 87.4989 42.3949 87.4989 42.1877C87.4989 41.9805 87.4577 41.7751 87.3777 41.584C87.2977 41.3928 87.1805 41.2197 87.0329 41.0743C86.8853 40.9289 86.7102 40.8144 86.5179 40.7373C86.3256 40.6601 86.1199 40.6221 85.9127 40.6252H56.2726Z" fill="currentColor"/>
<path fill-rule="evenodd" clip-rule="evenodd" d="M56.2726 28.1246C56.0658 28.1221 55.8606 28.1608 55.6688 28.2382C55.477 28.3156 55.3024 28.4302 55.1553 28.5755C55.0081 28.7209 54.8913 28.894 54.8116 29.0849C54.7319 29.2757 54.6908 29.4803 54.6908 29.6872C54.6908 29.894 54.7319 30.0986 54.8116 30.2895C54.8913 30.4803 55.0081 30.6534 55.1553 30.7988C55.3024 30.9441 55.477 31.0587 55.6688 31.1361C55.8606 31.2135 56.0658 31.2522 56.2726 31.2497H85.9128C86.1196 31.2522 86.3248 31.2135 86.5167 31.1361C86.7085 31.0587 86.883 30.9441 87.0301 30.7988C87.1773 30.6534 87.2941 30.4803 87.3738 30.2895C87.4536 30.0986 87.4946 29.894 87.4946 29.6872C87.4946 29.4803 87.4536 29.2757 87.3738 29.0849C87.2941 28.894 87.1773 28.7209 87.0301 28.5755C86.883 28.4302 86.7085 28.3156 86.5167 28.2382C86.3248 28.1608 86.1196 28.1221 85.9128 28.1246H56.2726Z" fill="currentColor"/>
<path fill-rule="evenodd" clip-rule="evenodd" d="M56.2726 65.6246C56.0658 65.6221 55.8606 65.6608 55.6688 65.7382C55.477 65.8156 55.3024 65.9302 55.1553 66.0755C55.0081 66.2209 54.8913 66.394 54.8116 66.5849C54.7319 66.7757 54.6908 66.9803 54.6908 67.1872C54.6908 67.394 54.7319 67.599 54.8116 67.7898C54.8913 67.9806 55.0081 68.1538 55.1553 68.2991C55.3024 68.4445 55.477 68.5591 55.6688 68.6365C55.8606 68.7139 56.0658 68.7522 56.2726 68.7497H85.9128C86.1196 68.7522 86.3248 68.7139 86.5167 68.6365C86.7085 68.5591 86.883 68.4445 87.0301 68.2991C87.1773 68.1538 87.2941 67.9806 87.3738 67.7898C87.4536 67.599 87.4946 67.394 87.4946 67.1872C87.4946 66.9803 87.4536 66.7757 87.3738 66.5849C87.2941 66.394 87.1773 66.2209 87.0301 66.0755C86.883 65.9302 86.7085 65.8156 86.5167 65.7382C86.3248 65.6608 86.1196 65.6221 85.9128 65.6246H56.2726Z" fill="currentColor"/>
<path fill-rule="evenodd" clip-rule="evenodd" d="M56.2726 53.1247C56.0654 53.1216 55.8597 53.1597 55.6674 53.2368C55.4751 53.3139 55.3 53.4284 55.1524 53.5738C55.0048 53.7192 54.8876 53.8927 54.8076 54.0838C54.7276 54.2749 54.6864 54.48 54.6864 54.6872C54.6864 54.8944 54.7276 55.0995 54.8076 55.2906C54.8876 55.4817 55.0048 55.6549 55.1524 55.8003C55.3 55.9457 55.4751 56.0605 55.6674 56.1376C55.8597 56.2148 56.0654 56.2528 56.2726 56.2497H85.9127C86.1199 56.2528 86.3256 56.2148 86.5179 56.1376C86.7102 56.0605 86.8853 55.9457 87.0329 55.8003C87.1805 55.6549 87.2977 55.4817 87.3777 55.2906C87.4577 55.0995 87.4989 54.8944 87.4989 54.6872C87.4989 54.48 87.4577 54.2749 87.3777 54.0838C87.2977 53.8927 87.1805 53.7192 87.0329 53.5738C86.8853 53.4284 86.7102 53.3139 86.5179 53.2368C86.3256 53.1597 86.1199 53.1216 85.9127 53.1247H56.2726Z" fill="currentColor"/>
</svg>
