<?xml version="1.0" encoding="UTF-8" standalone="no"?>
<!-- Created with Inkscape (http://www.inkscape.org/) -->

<svg
   xmlns:dc="http://purl.org/dc/elements/1.1/"
   xmlns:cc="http://creativecommons.org/ns#"
   xmlns:rdf="http://www.w3.org/1999/02/22-rdf-syntax-ns#"
   xmlns:svg="http://www.w3.org/2000/svg"
   xmlns="http://www.w3.org/2000/svg"
   xmlns:sodipodi="http://sodipodi.sourceforge.net/DTD/sodipodi-0.dtd"
   xmlns:inkscape="http://www.inkscape.org/namespaces/inkscape"
   width="32"
   height="32"
   viewBox="0 0 8.4666665 8.4666669"
   version="1.1"
   id="svg8"
   inkscape:version="0.91 r13725"
   sodipodi:docname="air-circulation-ac-conditioning-car-recycle-part.svg">
  <defs
     id="defs2">
    <inkscape:path-effect
       effect="fillet-chamfer"
       id="path-effect6194-9"
       is_visible="true"
       fillet_chamfer_values="-2.083553,1 | -1.5194253,1 | 0,1"
       method="auto"
       radius="2"
       chamfer_steps="1"
       helper_size="0"
       flexible="false"
       use_knot_distance="false"
       ignore_radius_0="false"
       only_selected="true"
       hide_knots="false" />
    <inkscape:path-effect
       effect="fillet-chamfer"
       id="path-effect6200-3"
       is_visible="true"
       fillet_chamfer_values="0,0 | -2.1346047,1 | -1.3969861,1 | -0.057274208,1 | -0.16666667,1"
       method="auto"
       radius="0.5"
       chamfer_steps="1"
       helper_size="0"
       flexible="false"
       use_knot_distance="false"
       ignore_radius_0="false"
       only_selected="true"
       hide_knots="false" />
    <pattern
       y="0"
       x="0"
       height="6"
       width="6"
       patternUnits="userSpaceOnUse"
       id="EMFhbasepattern" />
    <pattern
       y="0"
       x="0"
       height="6"
       width="6"
       patternUnits="userSpaceOnUse"
       id="EMFhbasepattern-6" />
    <inkscape:path-effect
       effect="fillet-chamfer"
       id="path-effect6795-9"
       is_visible="true"
       fillet_chamfer_values="0,0 | -2,1 | -2,1 | -2,1"
       method="auto"
       radius="2"
       chamfer_steps="1"
       helper_size="0"
       flexible="false"
       use_knot_distance="false"
       ignore_radius_0="false"
       only_selected="true"
       hide_knots="false" />
    <pattern
       y="0"
       x="0"
       height="6"
       width="6"
       patternUnits="userSpaceOnUse"
       id="EMFhbasepattern-4" />
    <pattern
       y="0"
       x="0"
       height="6"
       width="6"
       patternUnits="userSpaceOnUse"
       id="EMFhbasepattern-3" />
    <pattern
       y="0"
       x="0"
       height="6"
       width="6"
       patternUnits="userSpaceOnUse"
       id="EMFhbasepattern-0" />
    <inkscape:path-effect
       effect="fillet-chamfer"
       id="path-effect5842-1-6-2-7"
       is_visible="true"
       fillet_chamfer_values="0,0 | -0.49999733,1 | -0.50000267,1"
       method="auto"
       radius="0.5"
       chamfer_steps="1"
       helper_size="0"
       flexible="false"
       use_knot_distance="false"
       ignore_radius_0="false"
       only_selected="true"
       hide_knots="false" />
    <inkscape:path-effect
       effect="fillet-chamfer"
       id="path-effect9698-1"
       is_visible="true"
       fillet_chamfer_values="0,0 | -0.71730365,1"
       method="auto"
       radius="1"
       chamfer_steps="1"
       helper_size="0"
       flexible="false"
       use_knot_distance="false"
       ignore_radius_0="false"
       only_selected="true"
       hide_knots="false" />
  </defs>
  <sodipodi:namedview
     id="base"
     pagecolor="#ffffff"
     bordercolor="#666666"
     borderopacity="1.0"
     inkscape:pageopacity="0.0"
     inkscape:pageshadow="2"
     inkscape:zoom="7.9999996"
     inkscape:cx="-6.6629966"
     inkscape:cy="20.089676"
     inkscape:document-units="mm"
     inkscape:current-layer="layer1"
     showgrid="true"
     units="px"
     inkscape:window-width="1366"
     inkscape:window-height="716"
     inkscape:window-x="-8"
     inkscape:window-y="-8"
     inkscape:window-maximized="1">
    <inkscape:grid
       type="xygrid"
       id="grid4726" />
  </sodipodi:namedview>
  <metadata
     id="metadata5">
    <rdf:RDF>
      <cc:Work
         rdf:about="">
        <dc:format>image/svg+xml</dc:format>
        <dc:type
           rdf:resource="http://purl.org/dc/dcmitype/StillImage" />
        <dc:title></dc:title>
      </cc:Work>
    </rdf:RDF>
  </metadata>
  <g
     inkscape:label="Layer 1"
     inkscape:groupmode="layer"
     id="layer1"
     transform="translate(0,-288.53332)">
    <path
       sodipodi:nodetypes="cccccccscsccscsccsccccccccccssssccsccccsccsccccccc"
       inkscape:connector-curvature="0"
       id="path27226-6"
       d="m 3.7475809,291.04672 c -0.2263511,3e-5 -0.4482836,0.0646 -0.6392598,0.18603 l -1.0867496,0.69144 c -0.059955,0.0381 -0.1253861,0.066 -0.19431,0.0832 l -1.06142903,0.26565 c -0.29408438,0.0734 -0.50141189,0.33922 -0.50125314,0.64232 l 0,0.51264 c 0,0.36382 0.2976298,0.65738 0.66145835,0.66145 l 0.27699232,0.003 c 0.05334,0.35906 0.3835929,0.6563 0.781341,0.65836 0.3853657,0.003 0.7146132,-0.29715 0.7854686,-0.66249 l 2.6649628,0.003 c 0.070855,0.36533 0.3970073,0.65936 0.7823729,0.65936 0.3853921,0 0.7275513,-0.293 0.7818702,-0.66249 l 0.0254,0 c 0.503899,-0.0201 0.9131301,-0.41402 0.9131301,-0.92397 l 0,-0.79375 c 0,-0.2177 -0.1796786,-0.39688 -0.3974042,-0.39688 l -0.1534583,0 c -0.1159669,3e-5 -0.2258748,-0.0509 -0.3012811,-0.13898 L 6.6089703,291.2789 c -0.1256771,-0.14677 -0.3095889,-0.23104 -0.5028142,-0.23101 z m 0,0.26509 2.3584959,0 c 0.1159668,0 0.2263775,0.0504 0.3017837,0.13851 l 0.4764617,0.55602 c 0.1256771,0.14679 0.3090863,0.23104 0.5023115,0.23101 l 0.1534583,0 c 0.074533,0 0.1322917,0.0578 0.1322917,0.13229 l 0,0.79375 c 0,0.36671 -0.2946929,0.66093 -0.6614584,0.66093 l -0.1322916,0 c -0.07321,1.3e-4 -0.1324505,0.0596 -0.1322917,0.13282 0,0.29366 -0.2354792,0.52864 -0.5291667,0.52864 -0.2936875,0 -0.5286375,-0.23498 -0.5286375,-0.52864 1.588e-4,-0.0734 -0.059399,-0.13298 -0.1328208,-0.13282 l -2.9098876,0 c -0.073422,-1.6e-4 -0.1329796,0.0594 -0.1328208,0.13282 0,0.29366 -0.2349501,0.52864 -0.5286376,0.52864 -0.2936875,0 -0.5291666,-0.23498 -0.5291666,-0.52864 1.587e-4,-0.0732 -0.059082,-0.13269 -0.1322917,-0.13282 l -0.39687502,0 c -0.22063605,0 -0.39687501,-0.17574 -0.39687501,-0.39634 l 0,-0.51264 c -7.938e-5,-0.1828 0.12337521,-0.34073 0.30075188,-0.38499 l 1.06142895,-0.26562 c 0.096546,-0.0241 0.1883569,-0.0639 0.2723357,-0.11731 l 1.0867496,-0.69091 c 0.1485106,-0.0944 0.3211512,-0.14467 0.4971521,-0.1447 z"
       style="color:#000000;font-style:normal;font-variant:normal;font-weight:normal;font-stretch:normal;font-size:medium;line-height:normal;font-family:sans-serif;text-indent:0;text-align:start;text-decoration:none;text-decoration-line:none;text-decoration-style:solid;text-decoration-color:#000000;letter-spacing:normal;word-spacing:normal;text-transform:none;direction:ltr;writing-mode:lr-tb;baseline-shift:baseline;text-anchor:start;white-space:normal;clip-rule:nonzero;display:inline;overflow:visible;visibility:visible;opacity:1;isolation:auto;mix-blend-mode:normal;color-interpolation:sRGB;color-interpolation-filters:linearRGB;solid-color:#000000;solid-opacity:1;fill:#000000;fill-opacity:1;fill-rule:evenodd;stroke:none;stroke-width:1.00157475;stroke-linecap:butt;stroke-linejoin:round;stroke-miterlimit:4;stroke-dasharray:none;stroke-dashoffset:0;stroke-opacity:1;color-rendering:auto;image-rendering:auto;shape-rendering:auto;text-rendering:auto;enable-background:accumulate" />
    <path
       style="color:#000000;font-style:normal;font-variant:normal;font-weight:normal;font-stretch:normal;font-size:medium;line-height:normal;font-family:sans-serif;text-indent:0;text-align:start;text-decoration:none;text-decoration-line:none;text-decoration-style:solid;text-decoration-color:#000000;letter-spacing:normal;word-spacing:normal;text-transform:none;direction:ltr;writing-mode:lr-tb;baseline-shift:baseline;text-anchor:start;white-space:normal;clip-rule:nonzero;display:inline;overflow:visible;visibility:visible;opacity:1;isolation:auto;mix-blend-mode:normal;color-interpolation:sRGB;color-interpolation-filters:linearRGB;solid-color:#000000;solid-opacity:1;fill:#000000;fill-opacity:1;fill-rule:evenodd;stroke:none;stroke-width:0.99999994px;stroke-linecap:round;stroke-linejoin:round;stroke-miterlimit:4;stroke-dasharray:none;stroke-dashoffset:0;stroke-opacity:1;color-rendering:auto;image-rendering:auto;shape-rendering:auto;text-rendering:auto;enable-background:accumulate"
       d="m 5.160059,292.17128 a 0.13215768,0.13227066 0 0 0 -0.092393,0.2268 l 0.3019955,0.30224 -0.3019955,0.3017 a 0.13215768,0.13227066 0 1 0 0.1868752,0.18701 l 0.3954198,-0.39521 a 0.13215768,0.13227066 0 0 0 0,-0.18701 l -0.3954198,-0.39573 a 0.13215768,0.13227066 0 0 0 -0.094483,-0.0398 z"
       id="path22003"
       inkscape:connector-curvature="0" />
    <path
       style="color:#000000;font-style:normal;font-variant:normal;font-weight:normal;font-stretch:normal;font-size:medium;line-height:normal;font-family:sans-serif;text-indent:0;text-align:start;text-decoration:none;text-decoration-line:none;text-decoration-style:solid;text-decoration-color:#000000;letter-spacing:normal;word-spacing:normal;text-transform:none;direction:ltr;writing-mode:lr-tb;baseline-shift:baseline;text-anchor:start;white-space:normal;clip-rule:nonzero;display:inline;overflow:visible;visibility:visible;opacity:1;isolation:auto;mix-blend-mode:normal;color-interpolation:sRGB;color-interpolation-filters:linearRGB;solid-color:#000000;solid-opacity:1;fill:#000000;fill-opacity:1;fill-rule:evenodd;stroke:none;stroke-width:0.99999982px;stroke-linecap:round;stroke-linejoin:round;stroke-miterlimit:4;stroke-dasharray:none;stroke-dashoffset:0;stroke-opacity:1;color-rendering:auto;image-rendering:auto;shape-rendering:auto;text-rendering:auto;enable-background:accumulate"
       d="m 0.79072976,290.91457 a 0.13221274,0.13223119 0 0 0 -0.0769408,0.23756 l 1.50582318,1.17655 c 0.4180152,0.32661 0.9330531,0.50409 1.4634898,0.50409 l 1.8048288,0 a 0.13221274,0.13223119 0 1 0 0,-0.26443 l -1.8048288,0 c -0.4714875,0 -0.9292696,-0.15748 -1.3007975,-0.4478 l -1.5058761,-1.17653 a 0.13221274,0.13223119 0 0 0 -0.0856985,-0.0294 z"
       id="path22005"
       inkscape:connector-curvature="0" />
  </g>
</svg>
