<?xml version="1.0" encoding="UTF-8" standalone="no"?>
<!-- Created with Inkscape (http://www.inkscape.org/) -->

<svg
   xmlns:dc="http://purl.org/dc/elements/1.1/"
   xmlns:cc="http://creativecommons.org/ns#"
   xmlns:rdf="http://www.w3.org/1999/02/22-rdf-syntax-ns#"
   xmlns:svg="http://www.w3.org/2000/svg"
   xmlns="http://www.w3.org/2000/svg"
   xmlns:sodipodi="http://sodipodi.sourceforge.net/DTD/sodipodi-0.dtd"
   xmlns:inkscape="http://www.inkscape.org/namespaces/inkscape"
   width="32"
   height="32"
   viewBox="0 0 8.4666665 8.4666669"
   version="1.1"
   id="svg8"
   inkscape:version="0.91 r13725"
   sodipodi:docname="air-conditioner-circulation-ac-car-vehicle-recycle.svg">
  <defs
     id="defs2">
    <inkscape:path-effect
       effect="fillet-chamfer"
       id="path-effect6194-9"
       is_visible="true"
       fillet_chamfer_values="-2.083553,1 | -1.5194253,1 | 0,1"
       method="auto"
       radius="2"
       chamfer_steps="1"
       helper_size="0"
       flexible="false"
       use_knot_distance="false"
       ignore_radius_0="false"
       only_selected="true"
       hide_knots="false" />
    <inkscape:path-effect
       effect="fillet-chamfer"
       id="path-effect6200-3"
       is_visible="true"
       fillet_chamfer_values="0,0 | -2.1346047,1 | -1.3969861,1 | -0.057274208,1 | -0.16666667,1"
       method="auto"
       radius="0.5"
       chamfer_steps="1"
       helper_size="0"
       flexible="false"
       use_knot_distance="false"
       ignore_radius_0="false"
       only_selected="true"
       hide_knots="false" />
    <pattern
       y="0"
       x="0"
       height="6"
       width="6"
       patternUnits="userSpaceOnUse"
       id="EMFhbasepattern" />
    <pattern
       y="0"
       x="0"
       height="6"
       width="6"
       patternUnits="userSpaceOnUse"
       id="EMFhbasepattern-6" />
    <inkscape:path-effect
       effect="fillet-chamfer"
       id="path-effect6795-9"
       is_visible="true"
       fillet_chamfer_values="0,0 | -2,1 | -2,1 | -2,1"
       method="auto"
       radius="2"
       chamfer_steps="1"
       helper_size="0"
       flexible="false"
       use_knot_distance="false"
       ignore_radius_0="false"
       only_selected="true"
       hide_knots="false" />
    <pattern
       y="0"
       x="0"
       height="6"
       width="6"
       patternUnits="userSpaceOnUse"
       id="EMFhbasepattern-4" />
    <pattern
       y="0"
       x="0"
       height="6"
       width="6"
       patternUnits="userSpaceOnUse"
       id="EMFhbasepattern-3" />
    <pattern
       y="0"
       x="0"
       height="6"
       width="6"
       patternUnits="userSpaceOnUse"
       id="EMFhbasepattern-0" />
    <inkscape:path-effect
       effect="fillet-chamfer"
       id="path-effect5842-1-6-2-7"
       is_visible="true"
       fillet_chamfer_values="0,0 | -0.49999733,1 | -0.50000267,1"
       method="auto"
       radius="0.5"
       chamfer_steps="1"
       helper_size="0"
       flexible="false"
       use_knot_distance="false"
       ignore_radius_0="false"
       only_selected="true"
       hide_knots="false" />
    <inkscape:path-effect
       effect="fillet-chamfer"
       id="path-effect9698-1"
       is_visible="true"
       fillet_chamfer_values="0,0 | -0.71730365,1"
       method="auto"
       radius="1"
       chamfer_steps="1"
       helper_size="0"
       flexible="false"
       use_knot_distance="false"
       ignore_radius_0="false"
       only_selected="true"
       hide_knots="false" />
  </defs>
  <sodipodi:namedview
     id="base"
     pagecolor="#ffffff"
     bordercolor="#666666"
     borderopacity="1.0"
     inkscape:pageopacity="0.0"
     inkscape:pageshadow="2"
     inkscape:zoom="11.313708"
     inkscape:cx="1.6343903"
     inkscape:cy="19.616211"
     inkscape:document-units="mm"
     inkscape:current-layer="layer1"
     showgrid="true"
     units="px"
     inkscape:window-width="1366"
     inkscape:window-height="716"
     inkscape:window-x="-8"
     inkscape:window-y="-8"
     inkscape:window-maximized="1">
    <inkscape:grid
       type="xygrid"
       id="grid4726" />
  </sodipodi:namedview>
  <metadata
     id="metadata5">
    <rdf:RDF>
      <cc:Work
         rdf:about="">
        <dc:format>image/svg+xml</dc:format>
        <dc:type
           rdf:resource="http://purl.org/dc/dcmitype/StillImage" />
        <dc:title></dc:title>
      </cc:Work>
    </rdf:RDF>
  </metadata>
  <g
     inkscape:label="Layer 1"
     inkscape:groupmode="layer"
     id="layer1"
     transform="translate(0,-288.53332)">
    <path
       sodipodi:nodetypes="cccccccscsccscsccsccccccccccssssccsccccsccsccccccc"
       inkscape:connector-curvature="0"
       id="path27226"
       d="m 3.7475847,290.91457 c -0.226351,3e-5 -0.4482835,0.0646 -0.6392598,0.18603 l -1.0867495,0.69144 c -0.059955,0.0381 -0.1253861,0.066 -0.19431,0.0832 L 0.76583637,292.1409 C 0.471752,292.2143 0.2644245,292.48013 0.2645832,292.78323 l 0,0.51264 c 0,0.36384 0.29762983,0.6574 0.66145838,0.66147 l 0.27699232,0.003 c 0.05334,0.35908 0.3835929,0.65631 0.7813411,0.65837 0.3853656,0.003 0.7146131,-0.29715 0.7854685,-0.66249 l 2.6649627,0.003 c 0.070855,0.36535 0.3970074,0.65938 0.782373,0.65938 0.3853921,0 0.7275513,-0.293 0.7818702,-0.6625 l 0.0254,0 c 0.503899,-0.0201 0.9131301,-0.41403 0.9131301,-0.92398 l 0,-0.79377 c 0,-0.2177 -0.1796786,-0.39688 -0.3974042,-0.39688 l -0.1534584,0 c -0.1159668,3e-5 -0.2258748,-0.0509 -0.301281,-0.13899 L 6.6089742,291.14674 C 6.4832971,290.99997 6.2993852,290.91571 6.10616,290.91573 Z m 0,0.26509 2.3584959,0 c 0.1159669,0 0.2263776,0.0504 0.3017838,0.13851 l 0.4764617,0.55603 c 0.1256771,0.1468 0.3090863,0.23104 0.5023115,0.23101 l 0.1534583,0 c 0.074533,0 0.1322917,0.0578 0.1322917,0.1323 l 0,0.79376 c 0,0.36671 -0.294693,0.66094 -0.6614584,0.66094 l -0.1322917,0 c -0.07321,1.3e-4 -0.1324504,0.0596 -0.1322916,0.13282 0,0.29366 -0.2354792,0.52864 -0.5291667,0.52864 -0.2936875,0 -0.5286375,-0.23498 -0.5286375,-0.52864 1.587e-4,-0.0734 -0.059399,-0.13298 -0.1328209,-0.13282 l -2.9098875,0 c -0.073422,-1.6e-4 -0.1329796,0.0594 -0.1328208,0.13282 0,0.29366 -0.23495,0.52864 -0.5286375,0.52864 -0.2936876,0 -0.5291667,-0.23498 -0.5291667,-0.52864 1.587e-4,-0.0732 -0.059082,-0.13269 -0.1322917,-0.13282 l -0.39687502,0 c -0.22063605,0 -0.39687501,-0.17574 -0.39687501,-0.39636 l 0,-0.51264 c -7.936e-5,-0.1828 0.12337521,-0.34073 0.30075189,-0.385 L 1.8913474,292.1326 c 0.096546,-0.0241 0.1883569,-0.0639 0.2723357,-0.11733 l 1.0867495,-0.69091 c 0.1485107,-0.0944 0.3211513,-0.14468 0.4971521,-0.1447 z"
       style="color:#000000;font-style:normal;font-variant:normal;font-weight:normal;font-stretch:normal;font-size:medium;line-height:normal;font-family:sans-serif;text-indent:0;text-align:start;text-decoration:none;text-decoration-line:none;text-decoration-style:solid;text-decoration-color:#000000;letter-spacing:normal;word-spacing:normal;text-transform:none;direction:ltr;writing-mode:lr-tb;baseline-shift:baseline;text-anchor:start;white-space:normal;clip-rule:nonzero;display:inline;overflow:visible;visibility:visible;opacity:1;isolation:auto;mix-blend-mode:normal;color-interpolation:sRGB;color-interpolation-filters:linearRGB;solid-color:#000000;solid-opacity:1;fill:#000000;fill-opacity:1;fill-rule:evenodd;stroke:none;stroke-width:1.00157475;stroke-linecap:butt;stroke-linejoin:round;stroke-miterlimit:4;stroke-dasharray:none;stroke-dashoffset:0;stroke-opacity:1;color-rendering:auto;image-rendering:auto;shape-rendering:auto;text-rendering:auto;enable-background:accumulate" />
    <path
       style="color:#000000;font-style:normal;font-variant:normal;font-weight:normal;font-stretch:normal;font-size:medium;line-height:normal;font-family:sans-serif;text-indent:0;text-align:start;text-decoration:none;text-decoration-line:none;text-decoration-style:solid;text-decoration-color:#000000;letter-spacing:normal;word-spacing:normal;text-transform:none;direction:ltr;writing-mode:lr-tb;baseline-shift:baseline;text-anchor:start;white-space:normal;clip-rule:nonzero;display:inline;overflow:visible;visibility:visible;opacity:1;isolation:auto;mix-blend-mode:normal;color-interpolation:sRGB;color-interpolation-filters:linearRGB;solid-color:#000000;solid-opacity:1;fill:#000000;fill-opacity:1;fill-rule:nonzero;stroke:none;stroke-width:1;stroke-linecap:butt;stroke-linejoin:round;stroke-miterlimit:4;stroke-dasharray:none;stroke-dashoffset:0;stroke-opacity:1;color-rendering:auto;image-rendering:auto;shape-rendering:auto;text-rendering:auto;enable-background:accumulate"
       d="m 5.0937583,293.1635 c 0.3024452,-0.003 0.589624,-0.24736 0.5947834,-0.59378 a 0.1323049,0.13230678 0 0 0 0,-0.003 c 0,-0.32721 -0.2681023,-0.59532 -0.5953125,-0.59532 l -1.2567709,0 0,0.2646 1.2567709,0 c 0.183806,0 0.3295385,0.14604 0.3302,0.32969 -0.0037,0.2008 -0.1706034,0.33071 -0.3302,0.33177 l -1.5988772,0 -0.09353,-0.0935 -0.1870605,0.18707 0.1322917,0.13229 a 0.1323049,0.13230678 0 0 0 0.09353,0.0399 l 1.6536459,0 z"
       id="path27228"
       inkscape:connector-curvature="0" />
    <path
       style="color:#000000;font-style:normal;font-variant:normal;font-weight:normal;font-stretch:normal;font-size:medium;line-height:normal;font-family:sans-serif;text-indent:0;text-align:start;text-decoration:none;text-decoration-line:none;text-decoration-style:solid;text-decoration-color:#000000;letter-spacing:normal;word-spacing:normal;text-transform:none;direction:ltr;writing-mode:lr-tb;baseline-shift:baseline;text-anchor:start;white-space:normal;clip-rule:nonzero;display:inline;overflow:visible;visibility:visible;opacity:1;isolation:auto;mix-blend-mode:normal;color-interpolation:sRGB;color-interpolation-filters:linearRGB;solid-color:#000000;solid-opacity:1;fill:#000000;fill-opacity:1;fill-rule:evenodd;stroke:none;stroke-width:1px;stroke-linecap:butt;stroke-linejoin:miter;stroke-miterlimit:4;stroke-dasharray:none;stroke-dashoffset:0;stroke-opacity:1;color-rendering:auto;image-rendering:auto;shape-rendering:auto;text-rendering:auto;enable-background:accumulate"
       d="m 4.1398031,292.59557 0.1870604,-0.18707 -0.3033448,-0.30334 0.3033448,-0.30335 -0.1870604,-0.18707 -0.4904052,0.49042 z"
       id="path27230"
       inkscape:connector-curvature="0" />
  </g>
</svg>
