<?xml version="1.0" encoding="UTF-8" standalone="no"?>
<!-- Created with Inkscape (http://www.inkscape.org/) -->

<svg
   xmlns:dc="http://purl.org/dc/elements/1.1/"
   xmlns:cc="http://creativecommons.org/ns#"
   xmlns:rdf="http://www.w3.org/1999/02/22-rdf-syntax-ns#"
   xmlns:svg="http://www.w3.org/2000/svg"
   xmlns="http://www.w3.org/2000/svg"
   xmlns:sodipodi="http://sodipodi.sourceforge.net/DTD/sodipodi-0.dtd"
   xmlns:inkscape="http://www.inkscape.org/namespaces/inkscape"
   width="32"
   height="32"
   viewBox="0 0 8.4666665 8.4666669"
   version="1.1"
   id="svg8"
   inkscape:version="0.91 r13725"
   sodipodi:docname="airbag-indicator-engaged-active-light-signal-warning.svg">
  <defs
     id="defs2">
    <inkscape:path-effect
       effect="fillet-chamfer"
       id="path-effect6194-9"
       is_visible="true"
       fillet_chamfer_values="-2.083553,1 | -1.5194253,1 | 0,1"
       method="auto"
       radius="2"
       chamfer_steps="1"
       helper_size="0"
       flexible="false"
       use_knot_distance="false"
       ignore_radius_0="false"
       only_selected="true"
       hide_knots="false" />
    <inkscape:path-effect
       effect="fillet-chamfer"
       id="path-effect6200-3"
       is_visible="true"
       fillet_chamfer_values="0,0 | -2.1346047,1 | -1.3969861,1 | -0.057274208,1 | -0.16666667,1"
       method="auto"
       radius="0.5"
       chamfer_steps="1"
       helper_size="0"
       flexible="false"
       use_knot_distance="false"
       ignore_radius_0="false"
       only_selected="true"
       hide_knots="false" />
    <pattern
       y="0"
       x="0"
       height="6"
       width="6"
       patternUnits="userSpaceOnUse"
       id="EMFhbasepattern" />
    <pattern
       y="0"
       x="0"
       height="6"
       width="6"
       patternUnits="userSpaceOnUse"
       id="EMFhbasepattern-6" />
    <inkscape:path-effect
       effect="fillet-chamfer"
       id="path-effect6795-9"
       is_visible="true"
       fillet_chamfer_values="0,0 | -2,1 | -2,1 | -2,1"
       method="auto"
       radius="2"
       chamfer_steps="1"
       helper_size="0"
       flexible="false"
       use_knot_distance="false"
       ignore_radius_0="false"
       only_selected="true"
       hide_knots="false" />
    <pattern
       y="0"
       x="0"
       height="6"
       width="6"
       patternUnits="userSpaceOnUse"
       id="EMFhbasepattern-4" />
    <pattern
       y="0"
       x="0"
       height="6"
       width="6"
       patternUnits="userSpaceOnUse"
       id="EMFhbasepattern-3" />
    <pattern
       y="0"
       x="0"
       height="6"
       width="6"
       patternUnits="userSpaceOnUse"
       id="EMFhbasepattern-0" />
    <inkscape:path-effect
       effect="fillet-chamfer"
       id="path-effect5842-1-6-2-7"
       is_visible="true"
       fillet_chamfer_values="0,0 | -0.49999733,1 | -0.50000267,1"
       method="auto"
       radius="0.5"
       chamfer_steps="1"
       helper_size="0"
       flexible="false"
       use_knot_distance="false"
       ignore_radius_0="false"
       only_selected="true"
       hide_knots="false" />
    <inkscape:path-effect
       effect="fillet-chamfer"
       id="path-effect9698-1"
       is_visible="true"
       fillet_chamfer_values="0,0 | -0.71730365,1"
       method="auto"
       radius="1"
       chamfer_steps="1"
       helper_size="0"
       flexible="false"
       use_knot_distance="false"
       ignore_radius_0="false"
       only_selected="true"
       hide_knots="false" />
  </defs>
  <sodipodi:namedview
     id="base"
     pagecolor="#ffffff"
     bordercolor="#666666"
     borderopacity="1.0"
     inkscape:pageopacity="0.0"
     inkscape:pageshadow="2"
     inkscape:zoom="11.313708"
     inkscape:cx="1.6343903"
     inkscape:cy="19.616211"
     inkscape:document-units="mm"
     inkscape:current-layer="layer1"
     showgrid="true"
     units="px"
     inkscape:window-width="1366"
     inkscape:window-height="716"
     inkscape:window-x="-8"
     inkscape:window-y="-8"
     inkscape:window-maximized="1">
    <inkscape:grid
       type="xygrid"
       id="grid4726" />
  </sodipodi:namedview>
  <metadata
     id="metadata5">
    <rdf:RDF>
      <cc:Work
         rdf:about="">
        <dc:format>image/svg+xml</dc:format>
        <dc:type
           rdf:resource="http://purl.org/dc/dcmitype/StillImage" />
        <dc:title></dc:title>
      </cc:Work>
    </rdf:RDF>
  </metadata>
  <g
     inkscape:label="Layer 1"
     inkscape:groupmode="layer"
     id="layer1"
     transform="translate(0,-288.53332)">
    <path
       style="color:#000000;font-style:normal;font-variant:normal;font-weight:normal;font-stretch:normal;font-size:medium;line-height:normal;font-family:sans-serif;text-indent:0;text-align:start;text-decoration:none;text-decoration-line:none;text-decoration-style:solid;text-decoration-color:#000000;letter-spacing:normal;word-spacing:normal;text-transform:none;direction:ltr;writing-mode:lr-tb;baseline-shift:baseline;text-anchor:start;white-space:normal;clip-rule:nonzero;display:inline;overflow:visible;visibility:visible;opacity:1;isolation:auto;mix-blend-mode:normal;color-interpolation:sRGB;color-interpolation-filters:linearRGB;solid-color:#000000;solid-opacity:1;fill:#000000;fill-opacity:1;fill-rule:evenodd;stroke:none;stroke-width:0.99999994;stroke-linecap:round;stroke-linejoin:round;stroke-miterlimit:4;stroke-dasharray:none;stroke-dashoffset:0;stroke-opacity:1;color-rendering:auto;image-rendering:auto;shape-rendering:auto;text-rendering:auto;enable-background:accumulate"
       d="m 2.6184446,291.84158 c 0.2405761,-0.009 0.4672851,0.11398 0.5906616,0.3204 l 0.5663738,0.91827 a 0.13237122,0.13236761 0 1 1 -0.2253092,0.139 l -0.5674071,-0.91982 a 0.13230489,0.13230129 0 0 1 -0.00103,-0.003 c -0.073898,-0.12364 -0.2091203,-0.1974 -0.3534667,-0.19222 -0.3111399,0.0117 -0.4856776,0.34205 -0.3193605,0.60409 a 0.13230489,0.13230129 0 0 1 0.00103,0.003 l 1.0190592,1.65309 a 0.1323717,0.13236809 0 0 1 -0.2253092,0.13901 l -1.0180259,-1.65154 c -0.2689148,-0.42367 0.030452,-0.99152 0.5322673,-1.01026 a 0.13230489,0.13230129 0 0 1 5.292e-4,0 z"
       id="path28070"
       inkscape:connector-curvature="0" />
    <path
       style="color:#000000;font-style:normal;font-variant:normal;font-weight:normal;font-stretch:normal;font-size:medium;line-height:normal;font-family:sans-serif;text-indent:0;text-align:start;text-decoration:none;text-decoration-line:none;text-decoration-style:solid;text-decoration-color:#000000;letter-spacing:normal;word-spacing:normal;text-transform:none;direction:ltr;writing-mode:lr-tb;baseline-shift:baseline;text-anchor:start;white-space:normal;clip-rule:nonzero;display:inline;overflow:visible;visibility:visible;opacity:1;isolation:auto;mix-blend-mode:normal;color-interpolation:sRGB;color-interpolation-filters:linearRGB;solid-color:#000000;solid-opacity:1;fill:#000000;fill-opacity:1;fill-rule:evenodd;stroke:none;stroke-width:0.99999994;stroke-linecap:round;stroke-linejoin:round;stroke-miterlimit:4;stroke-dasharray:none;stroke-dashoffset:0;stroke-opacity:1;color-rendering:auto;image-rendering:auto;shape-rendering:auto;text-rendering:auto;enable-background:accumulate"
       d="m 5.5391967,293.16189 c 0.2191748,-0.003 0.4246007,0.10499 0.5488037,0.28421 l 1.1849406,1.70683 c 0.1251476,0.17211 0.1590017,0.36435 0.1198894,0.53069 -0.039112,0.16637 -0.1441379,0.30464 -0.278536,0.39739 -0.1343981,0.0927 -0.3011886,0.14203 -0.4707723,0.11988 -0.1692264,-0.022 -0.3369676,-0.12131 -0.4542359,-0.29817 l -0.9348267,-1.34664 -1.3327351,0.28524 a 0.13242709,0.13242348 0 0 1 -0.055811,-0.2589 l 1.4190348,-0.30333 a 0.13230489,0.13230129 0 0 1 0.1364258,0.0537 l 0.9859865,1.42056 a 0.13230489,0.13230129 0 0 1 0.00207,0.003 c 0.080544,0.1219 0.1721364,0.17039 0.2682007,0.18294 0.096064,0.0124 0.2005923,-0.0164 0.2862874,-0.0755 0.085695,-0.0591 0.1494969,-0.14642 0.1715658,-0.24029 0.022069,-0.0939 0.00946,-0.1965 -0.076481,-0.31469 a 0.13230489,0.13230129 0 0 1 -0.00155,-0.003 l -1.1864909,-1.70942 c -0.074755,-0.10787 -0.1980396,-0.17197 -0.328662,-0.16999 a 0.13230489,0.13230129 0 0 1 -0.00103,0 c -0.026656,1.9e-4 -0.052714,0.003 -0.078031,0.009 l -1.1554912,0.24731 a 0.13242106,0.13241745 0 0 1 -0.055811,-0.25888 l 1.1554851,-0.24752 c 0.043341,-0.009 0.087212,-0.014 0.1307415,-0.0146 z"
       id="path28072"
       inkscape:connector-curvature="0" />
    <path
       style="color:#000000;font-style:normal;font-variant:normal;font-weight:normal;font-stretch:normal;font-size:medium;line-height:normal;font-family:sans-serif;text-indent:0;text-align:start;text-decoration:none;text-decoration-line:none;text-decoration-style:solid;text-decoration-color:#000000;letter-spacing:normal;word-spacing:normal;text-transform:none;direction:ltr;writing-mode:lr-tb;baseline-shift:baseline;text-anchor:start;white-space:normal;clip-rule:nonzero;display:inline;overflow:visible;visibility:visible;opacity:1;isolation:auto;mix-blend-mode:normal;color-interpolation:sRGB;color-interpolation-filters:linearRGB;solid-color:#000000;solid-opacity:1;fill:#000000;fill-opacity:1;fill-rule:evenodd;stroke:none;stroke-width:1px;stroke-linecap:butt;stroke-linejoin:miter;stroke-miterlimit:4;stroke-dasharray:none;stroke-dashoffset:0;stroke-opacity:1;color-rendering:auto;image-rendering:auto;shape-rendering:auto;text-rendering:auto;enable-background:accumulate"
       d="m 4.0436807,293.02442 0.02377,0.01 c 0.2589427,0.10358 0.3936072,0.3938 0.3054078,0.65834 l -0.8376751,2.51348 -1.0753865,0 0.9828858,-2.8256 -0.00414,0.0135 c 0.063255,-0.27284 0.3458009,-0.43997 0.6154663,-0.3643 l -0.035657,-0.005 z m -0.068729,0.26098 c -0.1252543,-0.0308 -0.2491476,0.0417 -0.2785362,0.16846 l -0.00156,0.007 -0.8624798,2.4809 0.5115968,0 0.7777303,-2.33261 c 0.043797,-0.13137 -0.020815,-0.26846 -0.146761,-0.32347 z"
       id="path28074"
       inkscape:connector-curvature="0" />
    <path
       style="color:#000000;font-style:normal;font-variant:normal;font-weight:normal;font-stretch:normal;font-size:medium;line-height:normal;font-family:sans-serif;text-indent:0;text-align:start;text-decoration:none;text-decoration-line:none;text-decoration-style:solid;text-decoration-color:#000000;letter-spacing:normal;word-spacing:normal;text-transform:none;direction:ltr;writing-mode:lr-tb;baseline-shift:baseline;text-anchor:start;white-space:normal;clip-rule:nonzero;display:inline;overflow:visible;visibility:visible;opacity:1;isolation:auto;mix-blend-mode:normal;color-interpolation:sRGB;color-interpolation-filters:linearRGB;solid-color:#000000;solid-opacity:1;fill:#000000;fill-opacity:1;fill-rule:nonzero;stroke:none;stroke-width:1;stroke-linecap:round;stroke-linejoin:round;stroke-miterlimit:4;stroke-dasharray:none;stroke-dashoffset:0;stroke-opacity:1;color-rendering:auto;image-rendering:auto;shape-rendering:auto;text-rendering:auto;enable-background:accumulate"
       d="m 2.5796873,290.1208 c 0.4002771,0 0.7276082,0.32734 0.7276042,0.72759 4e-6,0.40028 -0.3273271,0.72758 -0.7276042,0.72758 -0.400277,0 -0.7276081,-0.3273 -0.7276041,-0.72758 -4e-6,-0.40025 0.3273271,-0.72759 0.7276041,-0.72759 z m 0,0.26458 c -0.2572845,0 -0.4630234,0.20573 -0.4630208,0.46301 -2.6e-6,0.25727 0.2057363,0.463 0.4630208,0.463 0.2572846,0 0.4630235,-0.20573 0.4630209,-0.463 2.6e-6,-0.25728 -0.2057363,-0.46301 -0.4630209,-0.46301 z"
       id="ellipse28076"
       inkscape:connector-curvature="0" />
    <path
       style="color:#000000;font-style:normal;font-variant:normal;font-weight:normal;font-stretch:normal;font-size:medium;line-height:normal;font-family:sans-serif;text-indent:0;text-align:start;text-decoration:none;text-decoration-line:none;text-decoration-style:solid;text-decoration-color:#000000;letter-spacing:normal;word-spacing:normal;text-transform:none;direction:ltr;writing-mode:lr-tb;baseline-shift:baseline;text-anchor:start;white-space:normal;clip-rule:nonzero;display:inline;overflow:visible;visibility:visible;opacity:1;isolation:auto;mix-blend-mode:normal;color-interpolation:sRGB;color-interpolation-filters:linearRGB;solid-color:#000000;solid-opacity:1;fill:#000000;fill-opacity:1;fill-rule:evenodd;stroke:none;stroke-width:1px;stroke-linecap:butt;stroke-linejoin:miter;stroke-miterlimit:4;stroke-dasharray:none;stroke-dashoffset:0;stroke-opacity:1;color-rendering:auto;image-rendering:auto;shape-rendering:auto;text-rendering:auto;enable-background:accumulate"
       d="m 0.79374978,290.64532 1.66863212,1.28929 -0.1622642,0.20927 -1.2417846,-0.95959 0,0.45938 1.1394655,0.88623 -0.1622642,0.20927 -1.24178462,-0.9658 z"
       id="path28078"
       inkscape:connector-curvature="0" />
    <path
       style="color:#000000;font-style:normal;font-variant:normal;font-weight:normal;font-stretch:normal;font-size:medium;line-height:normal;font-family:sans-serif;text-indent:0;text-align:start;text-decoration:none;text-decoration-line:none;text-decoration-style:solid;text-decoration-color:#000000;letter-spacing:normal;word-spacing:normal;text-transform:none;direction:ltr;writing-mode:lr-tb;baseline-shift:baseline;text-anchor:start;white-space:normal;clip-rule:nonzero;display:inline;overflow:visible;visibility:visible;opacity:1;isolation:auto;mix-blend-mode:normal;color-interpolation:sRGB;color-interpolation-filters:linearRGB;solid-color:#000000;solid-opacity:1;fill:#000000;fill-opacity:1;fill-rule:nonzero;stroke:none;stroke-width:1;stroke-linecap:round;stroke-linejoin:round;stroke-miterlimit:4;stroke-dasharray:none;stroke-dashoffset:0;stroke-opacity:1;color-rendering:auto;image-rendering:auto;shape-rendering:auto;text-rendering:auto;enable-background:accumulate"
       d="m 5.8208333,289.45936 c 0.8751845,0 1.5875027,0.71229 1.5875,1.58746 2.7e-6,0.87517 -0.7123155,1.58746 -1.5875,1.58746 -0.8751846,0 -1.5875027,-0.71229 -1.5875001,-1.58746 -2.6e-6,-0.87517 0.7123155,-1.58746 1.5875001,-1.58746 z m 0,0.26458 c -0.7321929,0 -1.3229191,0.59071 -1.3229167,1.32288 -2.4e-6,0.73218 0.5907238,1.32287 1.3229167,1.32287 0.7321927,0 1.322919,-0.59069 1.3229167,-1.32287 2.3e-6,-0.73217 -0.590724,-1.32288 -1.3229167,-1.32288 z"
       id="circle28080"
       inkscape:connector-curvature="0" />
  </g>
</svg>
