<?xml version="1.0" encoding="UTF-8" standalone="no"?>
<!-- Created with Inkscape (http://www.inkscape.org/) -->

<svg
   xmlns:dc="http://purl.org/dc/elements/1.1/"
   xmlns:cc="http://creativecommons.org/ns#"
   xmlns:rdf="http://www.w3.org/1999/02/22-rdf-syntax-ns#"
   xmlns:svg="http://www.w3.org/2000/svg"
   xmlns="http://www.w3.org/2000/svg"
   xmlns:sodipodi="http://sodipodi.sourceforge.net/DTD/sodipodi-0.dtd"
   xmlns:inkscape="http://www.inkscape.org/namespaces/inkscape"
   width="32"
   height="32"
   viewBox="0 0 8.4666665 8.4666669"
   version="1.1"
   id="svg8"
   inkscape:version="0.91 r13725"
   sodipodi:docname="baby-on-board-car-safety-child.svg">
  <defs
     id="defs2">
    <inkscape:path-effect
       effect="fillet-chamfer"
       id="path-effect6194-9"
       is_visible="true"
       fillet_chamfer_values="-2.083553,1 | -1.5194253,1 | 0,1"
       method="auto"
       radius="2"
       chamfer_steps="1"
       helper_size="0"
       flexible="false"
       use_knot_distance="false"
       ignore_radius_0="false"
       only_selected="true"
       hide_knots="false" />
    <inkscape:path-effect
       effect="fillet-chamfer"
       id="path-effect6200-3"
       is_visible="true"
       fillet_chamfer_values="0,0 | -2.1346047,1 | -1.3969861,1 | -0.057274208,1 | -0.16666667,1"
       method="auto"
       radius="0.5"
       chamfer_steps="1"
       helper_size="0"
       flexible="false"
       use_knot_distance="false"
       ignore_radius_0="false"
       only_selected="true"
       hide_knots="false" />
    <pattern
       y="0"
       x="0"
       height="6"
       width="6"
       patternUnits="userSpaceOnUse"
       id="EMFhbasepattern" />
    <pattern
       y="0"
       x="0"
       height="6"
       width="6"
       patternUnits="userSpaceOnUse"
       id="EMFhbasepattern-6" />
    <inkscape:path-effect
       effect="fillet-chamfer"
       id="path-effect6795-9"
       is_visible="true"
       fillet_chamfer_values="0,0 | -2,1 | -2,1 | -2,1"
       method="auto"
       radius="2"
       chamfer_steps="1"
       helper_size="0"
       flexible="false"
       use_knot_distance="false"
       ignore_radius_0="false"
       only_selected="true"
       hide_knots="false" />
    <pattern
       y="0"
       x="0"
       height="6"
       width="6"
       patternUnits="userSpaceOnUse"
       id="EMFhbasepattern-4" />
    <pattern
       y="0"
       x="0"
       height="6"
       width="6"
       patternUnits="userSpaceOnUse"
       id="EMFhbasepattern-3" />
    <pattern
       y="0"
       x="0"
       height="6"
       width="6"
       patternUnits="userSpaceOnUse"
       id="EMFhbasepattern-0" />
    <inkscape:path-effect
       effect="fillet-chamfer"
       id="path-effect5842-1-6-2-7"
       is_visible="true"
       fillet_chamfer_values="0,0 | -0.49999733,1 | -0.50000267,1"
       method="auto"
       radius="0.5"
       chamfer_steps="1"
       helper_size="0"
       flexible="false"
       use_knot_distance="false"
       ignore_radius_0="false"
       only_selected="true"
       hide_knots="false" />
    <inkscape:path-effect
       effect="fillet-chamfer"
       id="path-effect9698-1"
       is_visible="true"
       fillet_chamfer_values="0,0 | -0.71730365,1"
       method="auto"
       radius="1"
       chamfer_steps="1"
       helper_size="0"
       flexible="false"
       use_knot_distance="false"
       ignore_radius_0="false"
       only_selected="true"
       hide_knots="false" />
  </defs>
  <sodipodi:namedview
     id="base"
     pagecolor="#ffffff"
     bordercolor="#666666"
     borderopacity="1.0"
     inkscape:pageopacity="0.0"
     inkscape:pageshadow="2"
     inkscape:zoom="11.313708"
     inkscape:cx="1.6343903"
     inkscape:cy="19.616211"
     inkscape:document-units="mm"
     inkscape:current-layer="layer1"
     showgrid="true"
     units="px"
     inkscape:window-width="1366"
     inkscape:window-height="716"
     inkscape:window-x="-8"
     inkscape:window-y="-8"
     inkscape:window-maximized="1">
    <inkscape:grid
       type="xygrid"
       id="grid4726" />
  </sodipodi:namedview>
  <metadata
     id="metadata5">
    <rdf:RDF>
      <cc:Work
         rdf:about="">
        <dc:format>image/svg+xml</dc:format>
        <dc:type
           rdf:resource="http://purl.org/dc/dcmitype/StillImage" />
        <dc:title></dc:title>
      </cc:Work>
    </rdf:RDF>
  </metadata>
  <g
     inkscape:label="Layer 1"
     inkscape:groupmode="layer"
     id="layer1"
     transform="translate(0,-288.53332)">
    <path
       sodipodi:nodetypes="ccccccccccccscccccccscccccc"
       inkscape:connector-curvature="0"
       id="path26560"
       d="m 4.2333333,290.91476 c -0.8258069,0 -1.5442506,0.53812 -1.772417,1.32391 -0.2303888,0.0259 -0.4102974,0.22513 -0.4102974,0.46198 0,0.22222 0.1615473,0.41113 0.3715377,0.45476 0.1739028,0.85792 0.9280637,1.46298 1.8111767,1.46343 0.8823193,0 1.6325645,-0.60586 1.8065202,-1.46293 0.2108105,-0.043 0.3761942,-0.23246 0.3761942,-0.45526 0,-0.23685 -0.1788503,-0.43308 -0.4092656,-0.45888 -0.2281664,-0.7858 -0.947642,-1.32606 -1.7734488,-1.32701 z m 0,0.26457 c 0.7369108,0 1.3750042,0.5073 1.5435098,1.22471 0.015874,0.0668 0.080324,0.11043 0.1482922,0.10024 0.00926,-0.003 0.01852,-0.003 0.027912,-0.003 0.1111465,0 0.1984286,0.0873 0.1984286,0.19843 0,0.11115 -0.087282,0.19843 -0.1984286,0.19843 -0.00397,-8e-5 -0.00847,-1.8e-4 -0.012435,0 -0.068974,-0.005 -0.1304602,0.0433 -0.1410695,0.11163 -0.1199567,0.77365 -0.7833696,1.34297 -1.5662365,1.34408 -0.7834225,0 -1.4477349,-0.5699 -1.5677974,-1.34408 -0.010583,-0.0686 -0.072413,-0.11731 -0.1415722,-0.11163 l -0.010318,0 c -0.1111464,0 -0.1984286,-0.0873 -0.1984286,-0.19843 0,-0.11102 0.086965,-0.19819 0.1979259,-0.19843 0.00952,2e-5 0.019049,0 0.028415,0.003 0.067968,0.0103 0.1323916,-0.0334 0.1482923,-0.10024 0.1685055,-0.71741 0.8065989,-1.22386 1.5435098,-1.22471 z"
       style="color:#000000;font-style:normal;font-variant:normal;font-weight:normal;font-stretch:normal;font-size:medium;line-height:normal;font-family:sans-serif;text-indent:0;text-align:start;text-decoration:none;text-decoration-line:none;text-decoration-style:solid;text-decoration-color:#000000;letter-spacing:normal;word-spacing:normal;text-transform:none;direction:ltr;writing-mode:lr-tb;baseline-shift:baseline;text-anchor:start;white-space:normal;clip-rule:nonzero;display:inline;overflow:visible;visibility:visible;opacity:1;isolation:auto;mix-blend-mode:normal;color-interpolation:sRGB;color-interpolation-filters:linearRGB;solid-color:#000000;solid-opacity:1;fill:#000000;fill-opacity:1;fill-rule:nonzero;stroke:none;stroke-width:1;stroke-linecap:butt;stroke-linejoin:round;stroke-miterlimit:4;stroke-dasharray:none;stroke-dashoffset:0;stroke-opacity:1;color-rendering:auto;image-rendering:auto;shape-rendering:auto;text-rendering:auto;enable-background:accumulate" />
    <path
       inkscape:connector-curvature="0"
       id="path26556"
       d="m 4.8932009,293.16343 a 0.13250729,0.13251028 0 0 0 -0.1286611,0.10749 c -0.00714,0.0341 -0.017991,0.0668 -0.03151,0.0982 -0.027171,0.0628 -0.066275,0.12004 -0.1152474,0.16793 -0.097944,0.0958 -0.2331932,0.15554 -0.3844487,0.15554 -0.1512555,0 -0.286478,-0.0597 -0.3844488,-0.15554 -0.048972,-0.0479 -0.088076,-0.10512 -0.1152473,-0.16793 -0.013493,-0.0314 -0.024341,-0.0641 -0.031511,-0.0982 a 0.13251707,0.13252006 0 1 0 -0.2594123,0.0543 c 0.010848,0.0518 0.026986,0.10181 0.047544,0.14933 0.041114,0.0951 0.1005372,0.18017 0.1736383,0.25166 0.1461492,0.14301 0.3481495,0.23098 0.5694371,0.23098 0.2212875,0 0.4233143,-0.088 0.5694371,-0.23098 0.073101,-0.0715 0.1325238,-0.15658 0.1736382,-0.25166 0.020637,-0.0476 0.036696,-0.0976 0.047544,-0.14933 a 0.13250729,0.13251028 0 0 0 -0.1307512,-0.16176 z"
       style="color:#000000;font-style:normal;font-variant:normal;font-weight:normal;font-stretch:normal;font-size:medium;line-height:normal;font-family:sans-serif;text-indent:0;text-align:start;text-decoration:none;text-decoration-line:none;text-decoration-style:solid;text-decoration-color:#000000;letter-spacing:normal;word-spacing:normal;text-transform:none;direction:ltr;writing-mode:lr-tb;baseline-shift:baseline;text-anchor:start;white-space:normal;clip-rule:nonzero;display:inline;overflow:visible;visibility:visible;opacity:1;isolation:auto;mix-blend-mode:normal;color-interpolation:sRGB;color-interpolation-filters:linearRGB;solid-color:#000000;solid-opacity:1;fill:#000000;fill-opacity:1;fill-rule:nonzero;stroke:none;stroke-width:1.00157475;stroke-linecap:round;stroke-linejoin:round;stroke-miterlimit:4;stroke-dasharray:none;stroke-dashoffset:0;stroke-opacity:1;color-rendering:auto;image-rendering:auto;shape-rendering:auto;text-rendering:auto;enable-background:accumulate" />
    <path
       inkscape:connector-curvature="0"
       id="path26558"
       d="m 4.2333333,288.7979 c -0.1356987,0 -0.2713445,0.0517 -0.3741305,0.15451 l -3.44046058,3.44004 c -0.20554555,0.20552 -0.20554555,0.54323 0,0.74875 l 3.44046058,3.44004 c 0.2055456,0.20555 0.5427154,0.20555 0.7482609,0 l 3.4404606,-3.44004 c 0.2055455,-0.20552 0.2055455,-0.54323 0,-0.74875 L 4.6074637,288.95241 C 4.5046777,288.84965 4.369032,288.7979 4.2333333,288.7979 Z m 0,0.26304 c 0.067439,0 0.134852,0.0265 0.187052,0.0785 l 3.4404605,3.44003 c 0.1044528,0.10443 0.1044528,0.26969 0,0.37414 l -3.4404605,3.44054 c -0.1044264,0.10443 -0.2696777,0.10443 -0.374104,0 l -3.44046061,-3.44004 c -0.10445281,-0.10442 -0.10445281,-0.27021 0,-0.37464 l 3.44046061,-3.44003 c 0.0522,-0.0522 0.1196127,-0.0785 0.187052,-0.0785 z"
       style="color:#000000;font-style:normal;font-variant:normal;font-weight:normal;font-stretch:normal;font-size:medium;line-height:normal;font-family:sans-serif;text-indent:0;text-align:start;text-decoration:none;text-decoration-line:none;text-decoration-style:solid;text-decoration-color:#000000;letter-spacing:normal;word-spacing:normal;text-transform:none;direction:ltr;writing-mode:lr-tb;baseline-shift:baseline;text-anchor:start;white-space:normal;clip-rule:nonzero;display:inline;overflow:visible;visibility:visible;opacity:1;isolation:auto;mix-blend-mode:normal;color-interpolation:sRGB;color-interpolation-filters:linearRGB;solid-color:#000000;solid-opacity:1;fill:#000000;fill-opacity:1;fill-rule:evenodd;stroke:none;stroke-width:0.99999988px;stroke-linecap:butt;stroke-linejoin:miter;stroke-miterlimit:4;stroke-dasharray:none;stroke-dashoffset:0;stroke-opacity:1;color-rendering:auto;image-rendering:auto;shape-rendering:auto;text-rendering:auto;enable-background:accumulate" />
    <path
       inkscape:connector-curvature="0"
       id="path26562"
       d="M 3.56828,290.58226 A 0.13229895,0.13230193 0 0 0 3.4427144,290.744 c 0,0 0.015081,0.0733 0.040321,0.16226 0.025134,0.089 0.055878,0.19129 0.1085008,0.27646 0.04876,0.0789 0.1188455,0.14438 0.1803583,0.2005 0.061486,0.0561 0.1147182,0.0982 0.1147182,0.0982 a 0.13229895,0.13230193 0 1 0 0.1642989,-0.20722 c 0,0 -0.046353,-0.0372 -0.1007488,-0.0868 -0.054396,-0.0497 -0.1165173,-0.11647 -0.1333176,-0.14367 -0.020637,-0.0334 -0.056459,-0.12951 -0.079054,-0.20928 -0.022753,-0.0798 -0.036696,-0.14573 -0.036696,-0.14573 a 0.13229895,0.13230193 0 0 0 -0.1328149,-0.10644 z"
       style="color:#000000;font-style:normal;font-variant:normal;font-weight:normal;font-stretch:normal;font-size:medium;line-height:normal;font-family:sans-serif;text-indent:0;text-align:start;text-decoration:none;text-decoration-line:none;text-decoration-style:solid;text-decoration-color:#000000;letter-spacing:normal;word-spacing:normal;text-transform:none;direction:ltr;writing-mode:lr-tb;baseline-shift:baseline;text-anchor:start;white-space:normal;clip-rule:nonzero;display:inline;overflow:visible;visibility:visible;opacity:1;isolation:auto;mix-blend-mode:normal;color-interpolation:sRGB;color-interpolation-filters:linearRGB;solid-color:#000000;solid-opacity:1;fill:#000000;fill-opacity:1;fill-rule:evenodd;stroke:none;stroke-width:1px;stroke-linecap:round;stroke-linejoin:round;stroke-miterlimit:4;stroke-dasharray:none;stroke-dashoffset:0;stroke-opacity:1;color-rendering:auto;image-rendering:auto;shape-rendering:auto;text-rendering:auto;enable-background:accumulate" />
    <path
       inkscape:connector-curvature="0"
       id="path26564"
       d="m 4.2323014,290.51612 a 0.13229895,0.13230193 0 0 0 -0.1307247,0.14623 c 0,0 0.018785,0.26085 0.072334,0.42581 0.042649,0.13118 0.144165,0.29143 0.144165,0.29143 a 0.13244207,0.13244506 0 1 0 0.2273727,-0.13589 c 0,0 -0.1020717,-0.18136 -0.1204065,-0.23772 -0.029314,-0.0901 -0.059952,-0.36792 -0.059952,-0.36792 a 0.13229895,0.13230193 0 0 0 -0.1327885,-0.12194 z"
       style="color:#000000;font-style:normal;font-variant:normal;font-weight:normal;font-stretch:normal;font-size:medium;line-height:normal;font-family:sans-serif;text-indent:0;text-align:start;text-decoration:none;text-decoration-line:none;text-decoration-style:solid;text-decoration-color:#000000;letter-spacing:normal;word-spacing:normal;text-transform:none;direction:ltr;writing-mode:lr-tb;baseline-shift:baseline;text-anchor:start;white-space:normal;clip-rule:nonzero;display:inline;overflow:visible;visibility:visible;opacity:1;isolation:auto;mix-blend-mode:normal;color-interpolation:sRGB;color-interpolation-filters:linearRGB;solid-color:#000000;solid-opacity:1;fill:#000000;fill-opacity:1;fill-rule:evenodd;stroke:none;stroke-width:1px;stroke-linecap:round;stroke-linejoin:round;stroke-miterlimit:4;stroke-dasharray:none;stroke-dashoffset:0;stroke-opacity:1;color-rendering:auto;image-rendering:auto;shape-rendering:auto;text-rendering:auto;enable-background:accumulate" />
    <path
       inkscape:connector-curvature="0"
       id="circle26566"
       d="m 4.365619,289.45958 a 0.13228572,0.1322887 0 0 1 -0.1322857,0.13229 0.13228572,0.1322887 0 0 1 -0.1322857,-0.13229 0.13228572,0.1322887 0 0 1 0.1322857,-0.13229 0.13228572,0.1322887 0 0 1 0.1322857,0.13229 z"
       style="opacity:1;fill:#000000;fill-opacity:1;stroke:none;stroke-width:1;stroke-linecap:round;stroke-linejoin:round;stroke-miterlimit:4;stroke-dasharray:none;stroke-opacity:1" />
    <path
       inkscape:connector-curvature="0"
       id="circle26568"
       d="m 4.365619,296.07401 a 0.13228572,0.1322887 0 0 1 -0.1322857,0.13229 0.13228572,0.1322887 0 0 1 -0.1322857,-0.13229 0.13228572,0.1322887 0 0 1 0.1322857,-0.13228 0.13228572,0.1322887 0 0 1 0.1322857,0.13228 z"
       style="display:inline;opacity:1;fill:#000000;fill-opacity:1;stroke:none;stroke-width:1;stroke-linecap:round;stroke-linejoin:round;stroke-miterlimit:4;stroke-dasharray:none;stroke-opacity:1" />
    <path
       inkscape:connector-curvature="0"
       id="circle26570"
       d="m 7.5405027,292.89906 a 0.13228572,0.1322887 0 0 1 -0.1322857,-0.13229 0.13228572,0.1322887 0 0 1 0.1322857,-0.13229 0.13228572,0.1322887 0 0 1 0.1322858,0.13229 0.13228572,0.1322887 0 0 1 -0.1322858,0.13229 z"
       style="opacity:1;fill:#000000;fill-opacity:1;stroke:none;stroke-width:1;stroke-linecap:round;stroke-linejoin:round;stroke-miterlimit:4;stroke-dasharray:none;stroke-opacity:1" />
    <path
       inkscape:connector-curvature="0"
       id="circle26572"
       d="m 0.9262167,292.89906 a 0.13228572,0.1322887 0 0 1 -0.13228572,-0.13229 0.13228572,0.1322887 0 0 1 0.13228572,-0.13229 0.13228572,0.1322887 0 0 1 0.1322858,0.13229 0.13228572,0.1322887 0 0 1 -0.1322858,0.13229 z"
       style="display:inline;opacity:1;fill:#000000;fill-opacity:1;stroke:none;stroke-width:1;stroke-linecap:round;stroke-linejoin:round;stroke-miterlimit:4;stroke-dasharray:none;stroke-opacity:1" />
    <path
       inkscape:connector-curvature="0"
       id="circle26574"
       d="m 3.8364761,292.36993 a 0.13228572,0.1322887 0 0 1 -0.1322857,0.13229 0.13228572,0.1322887 0 0 1 -0.1322857,-0.13229 0.13228572,0.1322887 0 0 1 0.1322857,-0.13229 0.13228572,0.1322887 0 0 1 0.1322857,0.13229 z"
       style="display:inline;opacity:1;fill:#000000;fill-opacity:1;stroke:none;stroke-width:1;stroke-linecap:round;stroke-linejoin:round;stroke-miterlimit:4;stroke-dasharray:none;stroke-opacity:1" />
    <path
       inkscape:connector-curvature="0"
       id="circle26576"
       d="m 4.8947619,292.36993 a 0.13228572,0.1322887 0 0 1 -0.1322857,0.13229 0.13228572,0.1322887 0 0 1 -0.1322858,-0.13229 0.13228572,0.1322887 0 0 1 0.1322858,-0.13229 0.13228572,0.1322887 0 0 1 0.1322857,0.13229 z"
       style="display:inline;opacity:1;fill:#000000;fill-opacity:1;stroke:none;stroke-width:1;stroke-linecap:round;stroke-linejoin:round;stroke-miterlimit:4;stroke-dasharray:none;stroke-opacity:1" />
  </g>
</svg>
