<?xml version="1.0" encoding="UTF-8" standalone="no"?>
<!-- Created with Inkscape (http://www.inkscape.org/) -->

<svg
   xmlns:dc="http://purl.org/dc/elements/1.1/"
   xmlns:cc="http://creativecommons.org/ns#"
   xmlns:rdf="http://www.w3.org/1999/02/22-rdf-syntax-ns#"
   xmlns:svg="http://www.w3.org/2000/svg"
   xmlns="http://www.w3.org/2000/svg"
   xmlns:sodipodi="http://sodipodi.sourceforge.net/DTD/sodipodi-0.dtd"
   xmlns:inkscape="http://www.inkscape.org/namespaces/inkscape"
   width="32"
   height="32"
   viewBox="0 0 8.4666665 8.4666669"
   version="1.1"
   id="svg8"
   inkscape:version="0.91 r13725"
   sodipodi:docname="baby-child-seat-belt-car-protection-safety.svg">
  <defs
     id="defs2">
    <inkscape:path-effect
       effect="fillet-chamfer"
       id="path-effect6194-9"
       is_visible="true"
       fillet_chamfer_values="-2.083553,1 | -1.5194253,1 | 0,1"
       method="auto"
       radius="2"
       chamfer_steps="1"
       helper_size="0"
       flexible="false"
       use_knot_distance="false"
       ignore_radius_0="false"
       only_selected="true"
       hide_knots="false" />
    <inkscape:path-effect
       effect="fillet-chamfer"
       id="path-effect6200-3"
       is_visible="true"
       fillet_chamfer_values="0,0 | -2.1346047,1 | -1.3969861,1 | -0.057274208,1 | -0.16666667,1"
       method="auto"
       radius="0.5"
       chamfer_steps="1"
       helper_size="0"
       flexible="false"
       use_knot_distance="false"
       ignore_radius_0="false"
       only_selected="true"
       hide_knots="false" />
    <pattern
       y="0"
       x="0"
       height="6"
       width="6"
       patternUnits="userSpaceOnUse"
       id="EMFhbasepattern" />
    <pattern
       y="0"
       x="0"
       height="6"
       width="6"
       patternUnits="userSpaceOnUse"
       id="EMFhbasepattern-6" />
    <inkscape:path-effect
       effect="fillet-chamfer"
       id="path-effect6795-9"
       is_visible="true"
       fillet_chamfer_values="0,0 | -2,1 | -2,1 | -2,1"
       method="auto"
       radius="2"
       chamfer_steps="1"
       helper_size="0"
       flexible="false"
       use_knot_distance="false"
       ignore_radius_0="false"
       only_selected="true"
       hide_knots="false" />
    <pattern
       y="0"
       x="0"
       height="6"
       width="6"
       patternUnits="userSpaceOnUse"
       id="EMFhbasepattern-4" />
    <pattern
       y="0"
       x="0"
       height="6"
       width="6"
       patternUnits="userSpaceOnUse"
       id="EMFhbasepattern-3" />
    <pattern
       y="0"
       x="0"
       height="6"
       width="6"
       patternUnits="userSpaceOnUse"
       id="EMFhbasepattern-0" />
    <inkscape:path-effect
       effect="fillet-chamfer"
       id="path-effect5842-1-6-2-7"
       is_visible="true"
       fillet_chamfer_values="0,0 | -0.49999733,1 | -0.50000267,1"
       method="auto"
       radius="0.5"
       chamfer_steps="1"
       helper_size="0"
       flexible="false"
       use_knot_distance="false"
       ignore_radius_0="false"
       only_selected="true"
       hide_knots="false" />
    <inkscape:path-effect
       effect="fillet-chamfer"
       id="path-effect9698-1"
       is_visible="true"
       fillet_chamfer_values="0,0 | -0.71730365,1"
       method="auto"
       radius="1"
       chamfer_steps="1"
       helper_size="0"
       flexible="false"
       use_knot_distance="false"
       ignore_radius_0="false"
       only_selected="true"
       hide_knots="false" />
  </defs>
  <sodipodi:namedview
     id="base"
     pagecolor="#ffffff"
     bordercolor="#666666"
     borderopacity="1.0"
     inkscape:pageopacity="0.0"
     inkscape:pageshadow="2"
     inkscape:zoom="11.313708"
     inkscape:cx="1.6343903"
     inkscape:cy="19.616211"
     inkscape:document-units="mm"
     inkscape:current-layer="layer1"
     showgrid="true"
     units="px"
     inkscape:window-width="1366"
     inkscape:window-height="716"
     inkscape:window-x="-8"
     inkscape:window-y="-8"
     inkscape:window-maximized="1">
    <inkscape:grid
       type="xygrid"
       id="grid4726" />
  </sodipodi:namedview>
  <metadata
     id="metadata5">
    <rdf:RDF>
      <cc:Work
         rdf:about="">
        <dc:format>image/svg+xml</dc:format>
        <dc:type
           rdf:resource="http://purl.org/dc/dcmitype/StillImage" />
        <dc:title></dc:title>
      </cc:Work>
    </rdf:RDF>
  </metadata>
  <g
     inkscape:label="Layer 1"
     inkscape:groupmode="layer"
     id="layer1"
     transform="translate(0,-288.53332)">
    <path
       inkscape:connector-curvature="0"
       id="rect26580"
       d="m 6.35,292.50186 a 0.13251325,0.13250361 0 0 0 -0.1322917,0.13281 l 0,1.05773 A 0.13251325,0.13250361 0 0 0 6.35,293.82468 l 1.0583333,0 A 0.13251325,0.13250361 0 0 0 7.540625,293.6924 l 0,-1.05773 a 0.13251325,0.13250361 0 0 0 -0.1322917,-0.13281 z m 0.1328084,0.26509 0.7927165,0 0,0.79317 -0.7927165,0 z"
       style="color:#000000;font-style:normal;font-variant:normal;font-weight:normal;font-stretch:normal;font-size:medium;line-height:normal;font-family:sans-serif;text-indent:0;text-align:start;text-decoration:none;text-decoration-line:none;text-decoration-style:solid;text-decoration-color:#000000;letter-spacing:normal;word-spacing:normal;text-transform:none;direction:ltr;writing-mode:lr-tb;baseline-shift:baseline;text-anchor:start;white-space:normal;clip-rule:nonzero;display:inline;overflow:visible;visibility:visible;opacity:1;isolation:auto;mix-blend-mode:normal;color-interpolation:sRGB;color-interpolation-filters:linearRGB;solid-color:#000000;solid-opacity:1;fill:#000000;fill-opacity:1;fill-rule:nonzero;stroke:none;stroke-width:1.00157475;stroke-linecap:round;stroke-linejoin:round;stroke-miterlimit:4;stroke-dasharray:none;stroke-dashoffset:0;stroke-opacity:1;color-rendering:auto;image-rendering:auto;shape-rendering:auto;text-rendering:auto;enable-background:accumulate" />
    <path
       inkscape:connector-curvature="0"
       id="path26582"
       d="m 6.6807291,292.63414 0,1.05826 0.2645834,0 0,-1.05826 z"
       style="color:#000000;font-style:normal;font-variant:normal;font-weight:normal;font-stretch:normal;font-size:medium;line-height:normal;font-family:sans-serif;text-indent:0;text-align:start;text-decoration:none;text-decoration-line:none;text-decoration-style:solid;text-decoration-color:#000000;letter-spacing:normal;word-spacing:normal;text-transform:none;direction:ltr;writing-mode:lr-tb;baseline-shift:baseline;text-anchor:start;white-space:normal;clip-rule:nonzero;display:inline;overflow:visible;visibility:visible;opacity:1;isolation:auto;mix-blend-mode:normal;color-interpolation:sRGB;color-interpolation-filters:linearRGB;solid-color:#000000;solid-opacity:1;fill:#000000;fill-opacity:1;fill-rule:evenodd;stroke:none;stroke-width:1px;stroke-linecap:butt;stroke-linejoin:miter;stroke-miterlimit:4;stroke-dasharray:none;stroke-dashoffset:0;stroke-opacity:1;color-rendering:auto;image-rendering:auto;shape-rendering:auto;text-rendering:auto;enable-background:accumulate" />
    <path
       inkscape:connector-curvature="0"
       id="path26584"
       d="m 7.4083333,292.76642 0,0.26457 1.0583334,0 0,-0.26457 z"
       style="color:#000000;font-style:normal;font-variant:normal;font-weight:normal;font-stretch:normal;font-size:medium;line-height:normal;font-family:sans-serif;text-indent:0;text-align:start;text-decoration:none;text-decoration-line:none;text-decoration-style:solid;text-decoration-color:#000000;letter-spacing:normal;word-spacing:normal;text-transform:none;direction:ltr;writing-mode:lr-tb;baseline-shift:baseline;text-anchor:start;white-space:normal;clip-rule:nonzero;display:inline;overflow:visible;visibility:visible;opacity:1;isolation:auto;mix-blend-mode:normal;color-interpolation:sRGB;color-interpolation-filters:linearRGB;solid-color:#000000;solid-opacity:1;fill:#000000;fill-opacity:1;fill-rule:evenodd;stroke:none;stroke-width:1px;stroke-linecap:butt;stroke-linejoin:miter;stroke-miterlimit:4;stroke-dasharray:none;stroke-dashoffset:0;stroke-opacity:1;color-rendering:auto;image-rendering:auto;shape-rendering:auto;text-rendering:auto;enable-background:accumulate" />
    <path
       inkscape:connector-curvature="0"
       id="path26586"
       d="m 7.4083333,293.29555 0,0.26457 1.0583334,0 0,-0.26457 z"
       style="color:#000000;font-style:normal;font-variant:normal;font-weight:normal;font-stretch:normal;font-size:medium;line-height:normal;font-family:sans-serif;text-indent:0;text-align:start;text-decoration:none;text-decoration-line:none;text-decoration-style:solid;text-decoration-color:#000000;letter-spacing:normal;word-spacing:normal;text-transform:none;direction:ltr;writing-mode:lr-tb;baseline-shift:baseline;text-anchor:start;white-space:normal;clip-rule:nonzero;display:inline;overflow:visible;visibility:visible;opacity:1;isolation:auto;mix-blend-mode:normal;color-interpolation:sRGB;color-interpolation-filters:linearRGB;solid-color:#000000;solid-opacity:1;fill:#000000;fill-opacity:1;fill-rule:evenodd;stroke:none;stroke-width:1px;stroke-linecap:butt;stroke-linejoin:miter;stroke-miterlimit:4;stroke-dasharray:none;stroke-dashoffset:0;stroke-opacity:1;color-rendering:auto;image-rendering:auto;shape-rendering:auto;text-rendering:auto;enable-background:accumulate" />
    <path
       inkscape:connector-curvature="0"
       id="rect26588"
       d="m 0.92604147,292.37011 a 0.13251325,0.13250361 0 0 0 -0.13229167,0.13228 l 0,1.32229 a 0.13251325,0.13250361 0 0 0 0.13229167,0.13281 l 0.66094163,0 a 0.13251325,0.13250361 0 0 0 0.1328084,-0.13281 l 0,-1.32229 a 0.13251325,0.13250361 0 0 0 -0.1328084,-0.13228 z m 0.13229173,0.26506 0.3963582,0 0,1.05723 -0.3963582,0 z"
       style="color:#000000;font-style:normal;font-variant:normal;font-weight:normal;font-stretch:normal;font-size:medium;line-height:normal;font-family:sans-serif;text-indent:0;text-align:start;text-decoration:none;text-decoration-line:none;text-decoration-style:solid;text-decoration-color:#000000;letter-spacing:normal;word-spacing:normal;text-transform:none;direction:ltr;writing-mode:lr-tb;baseline-shift:baseline;text-anchor:start;white-space:normal;clip-rule:nonzero;display:inline;overflow:visible;visibility:visible;opacity:1;isolation:auto;mix-blend-mode:normal;color-interpolation:sRGB;color-interpolation-filters:linearRGB;solid-color:#000000;solid-opacity:1;fill:#000000;fill-opacity:1;fill-rule:nonzero;stroke:none;stroke-width:1.00157475;stroke-linecap:round;stroke-linejoin:round;stroke-miterlimit:4;stroke-dasharray:none;stroke-dashoffset:0;stroke-opacity:1;color-rendering:auto;image-rendering:auto;shape-rendering:auto;text-rendering:auto;enable-background:accumulate" />
    <path
       inkscape:connector-curvature="0"
       id="path26590"
       d="m 1.6092039,292.63621 -0.043408,0.26096 0.6831625,0.11368 0,0.30539 -0.6831625,0.11366 0.043408,0.26096 0.9043376,-0.15088 0,-0.75287 z"
       style="color:#000000;font-style:normal;font-variant:normal;font-weight:normal;font-stretch:normal;font-size:medium;line-height:normal;font-family:sans-serif;text-indent:0;text-align:start;text-decoration:none;text-decoration-line:none;text-decoration-style:solid;text-decoration-color:#000000;letter-spacing:normal;word-spacing:normal;text-transform:none;direction:ltr;writing-mode:lr-tb;baseline-shift:baseline;text-anchor:start;white-space:normal;clip-rule:nonzero;display:inline;overflow:visible;visibility:visible;opacity:1;isolation:auto;mix-blend-mode:normal;color-interpolation:sRGB;color-interpolation-filters:linearRGB;solid-color:#000000;solid-opacity:1;fill:#000000;fill-opacity:1;fill-rule:evenodd;stroke:none;stroke-width:1px;stroke-linecap:butt;stroke-linejoin:miter;stroke-miterlimit:4;stroke-dasharray:none;stroke-dashoffset:0;stroke-opacity:1;color-rendering:auto;image-rendering:auto;shape-rendering:auto;text-rendering:auto;enable-background:accumulate" />
    <path
       inkscape:connector-curvature="0"
       id="path26592"
       d="m -2.2454988e-7,292.63414 0,0.26457 0.92604169454988,0 0,-0.26457 z"
       style="color:#000000;font-style:normal;font-variant:normal;font-weight:normal;font-stretch:normal;font-size:medium;line-height:normal;font-family:sans-serif;text-indent:0;text-align:start;text-decoration:none;text-decoration-line:none;text-decoration-style:solid;text-decoration-color:#000000;letter-spacing:normal;word-spacing:normal;text-transform:none;direction:ltr;writing-mode:lr-tb;baseline-shift:baseline;text-anchor:start;white-space:normal;clip-rule:nonzero;display:inline;overflow:visible;visibility:visible;opacity:1;isolation:auto;mix-blend-mode:normal;color-interpolation:sRGB;color-interpolation-filters:linearRGB;solid-color:#000000;solid-opacity:1;fill:#000000;fill-opacity:1;fill-rule:evenodd;stroke:none;stroke-width:1px;stroke-linecap:butt;stroke-linejoin:miter;stroke-miterlimit:4;stroke-dasharray:none;stroke-dashoffset:0;stroke-opacity:1;color-rendering:auto;image-rendering:auto;shape-rendering:auto;text-rendering:auto;enable-background:accumulate" />
    <path
       inkscape:connector-curvature="0"
       id="path26594"
       d="m -2.2454988e-7,293.42783 0,0.26457 0.92604169454988,0 0,-0.26457 z"
       style="color:#000000;font-style:normal;font-variant:normal;font-weight:normal;font-stretch:normal;font-size:medium;line-height:normal;font-family:sans-serif;text-indent:0;text-align:start;text-decoration:none;text-decoration-line:none;text-decoration-style:solid;text-decoration-color:#000000;letter-spacing:normal;word-spacing:normal;text-transform:none;direction:ltr;writing-mode:lr-tb;baseline-shift:baseline;text-anchor:start;white-space:normal;clip-rule:nonzero;display:inline;overflow:visible;visibility:visible;opacity:1;isolation:auto;mix-blend-mode:normal;color-interpolation:sRGB;color-interpolation-filters:linearRGB;solid-color:#000000;solid-opacity:1;fill:#000000;fill-opacity:1;fill-rule:evenodd;stroke:none;stroke-width:1px;stroke-linecap:butt;stroke-linejoin:miter;stroke-miterlimit:4;stroke-dasharray:none;stroke-dashoffset:0;stroke-opacity:1;color-rendering:auto;image-rendering:auto;shape-rendering:auto;text-rendering:auto;enable-background:accumulate" />
    <path
       sodipodi:nodetypes="ccccccccccccccccccscccccccccccccccccccccccccccccccccccccccccccccccccccccccccccccc"
       inkscape:connector-curvature="0"
       id="path26596"
       d="m 3.8953693,291.1992 -1.6391764,0.0966 c -0.2256733,0.0133 -0.4041019,0.20234 -0.4041097,0.42838 l 0,0.0501 c 8.3e-6,0.25451 0.197917,0.46881 0.451652,0.48883 l 0.7291546,0.0574 c 0.081317,0.006 0.1421119,0.0719 0.1421101,0.15347 l 0,0.28886 c 2e-7,0.13222 -0.037368,0.26144 -0.107487,0.37359 l -0.2775024,0.44386 c -0.1837279,0.29379 -0.1931632,0.66495 -0.024805,0.96782 l 0.3250449,0.58443 c 0.048926,0.088 0.062678,0.19114 0.03824,0.28885 l -0.03824,0.15191 c -0.020534,0.0822 0.020939,0.16885 0.083716,0.20824 0.062776,0.0394 0.15865,0.0392 0.2237589,-0.0151 l 0.482141,-0.40097 c 0.1484096,-0.12361 0.1923455,-0.33521 0.1059368,-0.50794 -0.071193,-0.14263 -0.1414254,-0.28764 -0.2144662,-0.42849 -0.038406,-0.074 -0.062225,-0.15437 -0.066146,-0.23768 0.00132,-0.21957 0.1759233,-0.39479 0.3958416,-0.39479 l 0.271817,0 c 0.2045573,-0.0114 0.3757361,0.14218 0.3886068,0.34621 -7.408e-4,0.10101 -0.023513,0.20054 -0.06873,0.29092 l -0.2196248,0.4387 c -0.082069,0.16405 -0.039675,0.3647 0.1012857,0.48211 l 0.4769737,0.39735 c 0.0679,0.0566 0.1672219,0.0565 0.2325438,0.0156 0.065322,-0.041 0.1082543,-0.13027 0.086816,-0.21599 l -0.032556,-0.12969 c -0.024437,-0.0977 -0.010687,-0.20083 0.03824,-0.28885 l 0.3457154,-0.62215 c 0.1554684,-0.27967 0.1469231,-0.6221 -0.022738,-0.89341 l -0.3188436,-0.51002 c -0.058104,-0.0933 -0.088872,-0.20033 -0.088873,-0.30994 l 0,-0.32346 c -1.9e-6,-0.0816 0.060794,-0.14707 0.1421101,-0.15347 l 0.7291546,-0.0574 c 0.2537349,-0.0201 0.4516438,-0.23432 0.451652,-0.48883 l 0,-0.0501 c -7.9e-6,-0.22604 -0.1784363,-0.41507 -0.4041098,-0.42838 l -1.6391763,-0.0966 c -0.2250999,-0.0132 -0.4508281,-0.0132 -0.6759279,0 z m 0.015502,0.26403 c 0.2147261,-0.0127 0.4301959,-0.0127 0.6449219,0 l 1.6391764,0.0967 c 0.088437,0.005 0.1550262,0.0757 0.1550294,0.16432 l 0,0.0501 c -4e-6,0.11889 -0.089199,0.21594 -0.2077392,0.2253 l -0.7296714,0.0574 c -0.2165159,0.0172 -0.3855111,0.19982 -0.3855061,0.417 l 0,0.32346 c 5e-7,0.15919 0.044787,0.3151 0.129191,0.45008 l 0.3188436,0.50949 c 0.1188402,0.19004 0.1249188,0.42881 0.01602,0.62472 l -0.3457152,0.62215 c -0.073466,0.13215 -0.082811,0.28597 -0.057361,0.43404 l -0.3446819,-0.28678 c -0.047696,-0.0397 -0.061358,-0.1052 -0.03359,-0.1607 l 0.2196248,-0.4387 c 0.062092,-0.14273 0.1005187,-0.27356 0.097669,-0.41288 6.42e-5,-0.003 6.42e-5,-0.005 0,-0.007 -0.019241,-0.34833 -0.3203536,-0.61763 -0.6686932,-0.59837 -0.043548,0 -0.1852731,0 -0.2573496,0 -0.3637465,0 -0.6614583,0.29769 -0.6614583,0.66141 5.556e-4,0.13824 0.040724,0.24729 0.1002654,0.36235 l 0.2092897,0.41854 c 0.032104,0.0642 0.016383,0.14011 -0.038757,0.18604 l -0.3317629,0.27644 c 0.02545,-0.14807 0.016105,-0.30189 -0.057361,-0.43404 l -0.3245278,-0.58442 c -0.1217896,-0.21911 -0.114821,-0.48661 0.018087,-0.69914 l 0.2769857,-0.44336 c 0.09641,-0.15416 0.1477949,-0.33231 0.1477946,-0.51412 l 0,-0.28885 c 5.1e-6,-0.21718 -0.1689901,-0.39992 -0.3855061,-0.41701 L 2.3244178,292 C 2.2058647,291.99 2.11667,291.89338 2.1166661,291.77449 l 0,-0.0501 c 3.1e-6,-0.0886 0.066593,-0.15911 0.1550293,-0.16432 z"
       style="color:#000000;font-style:normal;font-variant:normal;font-weight:normal;font-stretch:normal;font-size:medium;line-height:normal;font-family:sans-serif;text-indent:0;text-align:start;text-decoration:none;text-decoration-line:none;text-decoration-style:solid;text-decoration-color:#000000;letter-spacing:normal;word-spacing:normal;text-transform:none;direction:ltr;writing-mode:lr-tb;baseline-shift:baseline;text-anchor:start;white-space:normal;clip-rule:nonzero;display:inline;overflow:visible;visibility:visible;opacity:1;isolation:auto;mix-blend-mode:normal;color-interpolation:sRGB;color-interpolation-filters:linearRGB;solid-color:#000000;solid-opacity:1;fill:#000000;fill-opacity:1;fill-rule:evenodd;stroke:none;stroke-width:1px;stroke-linecap:butt;stroke-linejoin:round;stroke-miterlimit:4;stroke-dasharray:none;stroke-dashoffset:0;stroke-opacity:1;color-rendering:auto;image-rendering:auto;shape-rendering:auto;text-rendering:auto;enable-background:accumulate" />
    <path
       inkscape:connector-curvature="0"
       id="path26598"
       d="m 3.3088417,294.622 a 0.13230488,0.13229526 0 0 0 -0.082682,0.0279 l -0.129191,0.0966 a 0.13250044,0.1324908 0 1 0 0.1591636,0.21186 l 0.129191,-0.0971 a 0.13230488,0.13229526 0 0 0 -0.076481,-0.23924 z"
       style="color:#000000;font-style:normal;font-variant:normal;font-weight:normal;font-stretch:normal;font-size:medium;line-height:normal;font-family:sans-serif;text-indent:0;text-align:start;text-decoration:none;text-decoration-line:none;text-decoration-style:solid;text-decoration-color:#000000;letter-spacing:normal;word-spacing:normal;text-transform:none;direction:ltr;writing-mode:lr-tb;baseline-shift:baseline;text-anchor:start;white-space:normal;clip-rule:nonzero;display:inline;overflow:visible;visibility:visible;opacity:1;isolation:auto;mix-blend-mode:normal;color-interpolation:sRGB;color-interpolation-filters:linearRGB;solid-color:#000000;solid-opacity:1;fill:#000000;fill-opacity:1;fill-rule:evenodd;stroke:none;stroke-width:0.99999988px;stroke-linecap:round;stroke-linejoin:round;stroke-miterlimit:4;stroke-dasharray:none;stroke-dashoffset:0;stroke-opacity:1;color-rendering:auto;image-rendering:auto;shape-rendering:auto;text-rendering:auto;enable-background:accumulate" />
    <path
       style="color:#000000;font-style:normal;font-variant:normal;font-weight:normal;font-stretch:normal;font-size:medium;line-height:normal;font-family:sans-serif;text-indent:0;text-align:start;text-decoration:none;text-decoration-line:none;text-decoration-style:solid;text-decoration-color:#000000;letter-spacing:normal;word-spacing:normal;text-transform:none;direction:ltr;writing-mode:lr-tb;baseline-shift:baseline;text-anchor:start;white-space:normal;clip-rule:nonzero;display:inline;overflow:visible;visibility:visible;opacity:1;isolation:auto;mix-blend-mode:normal;color-interpolation:sRGB;color-interpolation-filters:linearRGB;solid-color:#000000;solid-opacity:1;fill:#000000;fill-opacity:1;fill-rule:evenodd;stroke:none;stroke-width:0.99999988px;stroke-linecap:round;stroke-linejoin:round;stroke-miterlimit:4;stroke-dasharray:none;stroke-dashoffset:0;stroke-opacity:1;color-rendering:auto;image-rendering:auto;shape-rendering:auto;text-rendering:auto;enable-background:accumulate"
       d="m 5.1578248,294.62197 a 0.13230488,0.13229526 0 0 1 0.082682,0.0279 l 0.1291911,0.0971 a 0.13230488,0.13229526 0 1 1 -0.1591636,0.21133 l -0.129191,-0.0971 a 0.13230488,0.13229526 0 0 1 0.076481,-0.23924 z"
       id="path26600"
       inkscape:connector-curvature="0" />
    <path
       inkscape:connector-curvature="0"
       id="circle26604"
       d="m 4.2333332,289.45937 c -0.4368051,0 -0.7937479,0.35693 -0.79375,0.79369 2.1e-6,0.43677 0.3569449,0.7937 0.79375,0.7937 0.4368052,0 0.7937479,-0.35693 0.7937501,-0.7937 -2.2e-6,-0.43676 -0.3569449,-0.79369 -0.7937501,-0.79369 z m 0,0.2651 c 0.2935891,0 0.5286484,0.23503 0.52865,0.52859 -1.6e-6,0.29359 -0.2350609,0.52913 -0.52865,0.52913 -0.2935891,0 -0.5286483,-0.23554 -0.5286499,-0.52913 1.6e-6,-0.29356 0.2350608,-0.52859 0.5286499,-0.52859 z"
       style="color:#000000;font-style:normal;font-variant:normal;font-weight:normal;font-stretch:normal;font-size:medium;line-height:normal;font-family:sans-serif;text-indent:0;text-align:start;text-decoration:none;text-decoration-line:none;text-decoration-style:solid;text-decoration-color:#000000;letter-spacing:normal;word-spacing:normal;text-transform:none;direction:ltr;writing-mode:lr-tb;baseline-shift:baseline;text-anchor:start;white-space:normal;clip-rule:nonzero;display:inline;overflow:visible;visibility:visible;opacity:1;isolation:auto;mix-blend-mode:normal;color-interpolation:sRGB;color-interpolation-filters:linearRGB;solid-color:#000000;solid-opacity:1;fill:#000000;fill-opacity:1;fill-rule:nonzero;stroke:none;stroke-width:1.00157475;stroke-linecap:round;stroke-linejoin:round;stroke-miterlimit:4;stroke-dasharray:none;stroke-dashoffset:0;stroke-opacity:1;color-rendering:auto;image-rendering:auto;shape-rendering:auto;text-rendering:auto;enable-background:accumulate" />
  </g>
</svg>
