<?xml version="1.0" encoding="UTF-8" standalone="no"?>
<!-- Created with Inkscape (http://www.inkscape.org/) -->

<svg
   xmlns:dc="http://purl.org/dc/elements/1.1/"
   xmlns:cc="http://creativecommons.org/ns#"
   xmlns:rdf="http://www.w3.org/1999/02/22-rdf-syntax-ns#"
   xmlns:svg="http://www.w3.org/2000/svg"
   xmlns="http://www.w3.org/2000/svg"
   xmlns:sodipodi="http://sodipodi.sourceforge.net/DTD/sodipodi-0.dtd"
   xmlns:inkscape="http://www.inkscape.org/namespaces/inkscape"
   width="32"
   height="32"
   viewBox="0 0 8.4666665 8.4666669"
   version="1.1"
   id="svg8"
   inkscape:version="0.91 r13725"
   sodipodi:docname="car-automobile-vehicle.svg">
  <defs
     id="defs2">
    <inkscape:path-effect
       effect="fillet-chamfer"
       id="path-effect6194-9"
       is_visible="true"
       fillet_chamfer_values="-2.083553,1 | -1.5194253,1 | 0,1"
       method="auto"
       radius="2"
       chamfer_steps="1"
       helper_size="0"
       flexible="false"
       use_knot_distance="false"
       ignore_radius_0="false"
       only_selected="true"
       hide_knots="false" />
    <inkscape:path-effect
       effect="fillet-chamfer"
       id="path-effect6200-3"
       is_visible="true"
       fillet_chamfer_values="0,0 | -2.1346047,1 | -1.3969861,1 | -0.057274208,1 | -0.16666667,1"
       method="auto"
       radius="0.5"
       chamfer_steps="1"
       helper_size="0"
       flexible="false"
       use_knot_distance="false"
       ignore_radius_0="false"
       only_selected="true"
       hide_knots="false" />
    <pattern
       y="0"
       x="0"
       height="6"
       width="6"
       patternUnits="userSpaceOnUse"
       id="EMFhbasepattern" />
    <pattern
       y="0"
       x="0"
       height="6"
       width="6"
       patternUnits="userSpaceOnUse"
       id="EMFhbasepattern-6" />
    <inkscape:path-effect
       effect="fillet-chamfer"
       id="path-effect6795-9"
       is_visible="true"
       fillet_chamfer_values="0,0 | -2,1 | -2,1 | -2,1"
       method="auto"
       radius="2"
       chamfer_steps="1"
       helper_size="0"
       flexible="false"
       use_knot_distance="false"
       ignore_radius_0="false"
       only_selected="true"
       hide_knots="false" />
    <pattern
       y="0"
       x="0"
       height="6"
       width="6"
       patternUnits="userSpaceOnUse"
       id="EMFhbasepattern-4" />
    <pattern
       y="0"
       x="0"
       height="6"
       width="6"
       patternUnits="userSpaceOnUse"
       id="EMFhbasepattern-3" />
    <pattern
       y="0"
       x="0"
       height="6"
       width="6"
       patternUnits="userSpaceOnUse"
       id="EMFhbasepattern-0" />
    <inkscape:path-effect
       effect="fillet-chamfer"
       id="path-effect5842-1-6-2-7"
       is_visible="true"
       fillet_chamfer_values="0,0 | -0.49999733,1 | -0.50000267,1"
       method="auto"
       radius="0.5"
       chamfer_steps="1"
       helper_size="0"
       flexible="false"
       use_knot_distance="false"
       ignore_radius_0="false"
       only_selected="true"
       hide_knots="false" />
    <inkscape:path-effect
       effect="fillet-chamfer"
       id="path-effect9698-1"
       is_visible="true"
       fillet_chamfer_values="0,0 | -0.71730365,1"
       method="auto"
       radius="1"
       chamfer_steps="1"
       helper_size="0"
       flexible="false"
       use_knot_distance="false"
       ignore_radius_0="false"
       only_selected="true"
       hide_knots="false" />
  </defs>
  <sodipodi:namedview
     id="base"
     pagecolor="#ffffff"
     bordercolor="#666666"
     borderopacity="1.0"
     inkscape:pageopacity="0.0"
     inkscape:pageshadow="2"
     inkscape:zoom="11.313708"
     inkscape:cx="1.6343903"
     inkscape:cy="19.616211"
     inkscape:document-units="mm"
     inkscape:current-layer="layer1"
     showgrid="true"
     units="px"
     inkscape:window-width="1366"
     inkscape:window-height="716"
     inkscape:window-x="-8"
     inkscape:window-y="-8"
     inkscape:window-maximized="1">
    <inkscape:grid
       type="xygrid"
       id="grid4726" />
  </sodipodi:namedview>
  <metadata
     id="metadata5">
    <rdf:RDF>
      <cc:Work
         rdf:about="">
        <dc:format>image/svg+xml</dc:format>
        <dc:type
           rdf:resource="http://purl.org/dc/dcmitype/StillImage" />
        <dc:title></dc:title>
      </cc:Work>
    </rdf:RDF>
  </metadata>
  <g
     inkscape:label="Layer 1"
     inkscape:groupmode="layer"
     id="layer1"
     transform="translate(0,-288.53332)">
    <path
       inkscape:connector-curvature="0"
       id="path27684"
       d="m 2.9951657,292.83281 c -0.1904807,0 -0.3156183,0.22004 -0.2185911,0.38395 a 0.13230488,0.13230489 0 0 0 0.00723,0.0109 c 0,0 0.2678898,0.36524 0.4020429,0.54777 0.1003196,0.13648 0.2561891,0.24805 0.4475178,0.24805 l 1.1291308,0 c 0.1913176,0 0.347181,-0.11154 0.4475179,-0.24805 0.1341453,-0.18253 0.4025596,-0.54777 0.4025596,-0.54777 a 0.13230488,0.13230489 0 0 0 0.00723,-0.0109 c 0.097035,-0.16391 -0.028627,-0.38395 -0.2191081,-0.38395 z m 0.020672,0.26458 2.3641966,0 c -0.02359,0.0321 -0.2557121,0.34762 -0.383439,0.52141 -0.065427,0.089 -0.145524,0.14005 -0.2340943,0.14005 l -1.12913,0 c -0.088541,0 -0.1686748,-0.051 -0.2340944,-0.14005 -0.1277342,-0.17379 -0.3598466,-0.48931 -0.3834389,-0.52141 z"
       style="color:#000000;font-style:normal;font-variant:normal;font-weight:normal;font-stretch:normal;font-size:medium;line-height:normal;font-family:sans-serif;text-indent:0;text-align:start;text-decoration:none;text-decoration-line:none;text-decoration-style:solid;text-decoration-color:#000000;letter-spacing:normal;word-spacing:normal;text-transform:none;direction:ltr;writing-mode:lr-tb;baseline-shift:baseline;text-anchor:start;white-space:normal;clip-rule:nonzero;display:inline;overflow:visible;visibility:visible;opacity:1;isolation:auto;mix-blend-mode:normal;color-interpolation:sRGB;color-interpolation-filters:linearRGB;solid-color:#000000;solid-opacity:1;fill:#000000;fill-opacity:1;fill-rule:evenodd;stroke:none;stroke-width:0.99999982;stroke-linecap:round;stroke-linejoin:round;stroke-miterlimit:4;stroke-dasharray:none;stroke-dashoffset:0;stroke-opacity:1;color-rendering:auto;image-rendering:auto;shape-rendering:auto;text-rendering:auto;enable-background:accumulate" />
    <path
       inkscape:connector-curvature="0"
       id="path27686"
       d="m 6.9768351,292.83281 c -0.1863362,0 -0.3594028,0.099 -0.4542359,0.25941 l 0.0062,-0.009 -0.3911905,0.54725 a 0.13230488,0.13230489 0 0 0 -0.0062,0.01 c -0.09692,0.16388 0.028108,0.38344 0.2185913,0.38344 l 0.9260417,0 a 0.13230488,0.13230489 0 1 0 0,-0.26458 l -0.9053711,0 0.3736205,-0.52245 a 0.13230488,0.13230489 0 0 0 0.0062,-0.009 c 0.047513,-0.0804 0.1332788,-0.1297 0.2263428,-0.1297 l 0.4314973,0 a 0.13230488,0.13230489 0 1 0 0,-0.26459 z"
       style="color:#000000;font-style:normal;font-variant:normal;font-weight:normal;font-stretch:normal;font-size:medium;line-height:normal;font-family:sans-serif;text-indent:0;text-align:start;text-decoration:none;text-decoration-line:none;text-decoration-style:solid;text-decoration-color:#000000;letter-spacing:normal;word-spacing:normal;text-transform:none;direction:ltr;writing-mode:lr-tb;baseline-shift:baseline;text-anchor:start;white-space:normal;clip-rule:nonzero;display:inline;overflow:visible;visibility:visible;opacity:1;isolation:auto;mix-blend-mode:normal;color-interpolation:sRGB;color-interpolation-filters:linearRGB;solid-color:#000000;solid-opacity:1;fill:#000000;fill-opacity:1;fill-rule:evenodd;stroke:none;stroke-width:0.99999982;stroke-linecap:round;stroke-linejoin:round;stroke-miterlimit:4;stroke-dasharray:none;stroke-dashoffset:0;stroke-opacity:1;color-rendering:auto;image-rendering:auto;shape-rendering:auto;text-rendering:auto;enable-background:accumulate" />
    <path
       inkscape:connector-curvature="0"
       id="path27688"
       d="m 3.1749998,290.38541 c -0.4579215,0 -0.8895173,0.21606 -1.1642701,0.58239 l -1.08468826,1.44643 c -0.0858607,0.11448 -0.13229167,0.25377 -0.13229167,0.39687 l 0,0.35244 c 0,0.80212 0.65308583,1.4552 1.45520833,1.4552 l 3.9687501,0 c 0.8021225,0 1.4552084,-0.65308 1.4552084,-1.4552 l 0,-0.35244 c 0,-0.1431 -0.046431,-0.28239 -0.1322917,-0.39687 L 6.4559367,290.9678 c -0.2747529,-0.36633 -0.7063486,-0.58239 -1.1642702,-0.58239 z m 0,0.26458 2.1166667,0 c 0.3748739,0 0.7274724,0.17656 0.9523966,0.47646 l 1.0846885,1.44643 c 0.051534,0.0687 0.079582,0.15233 0.079582,0.23822 l 0,0.35244 c 0,0.65913 -0.5314939,1.19062 -1.190625,1.19062 l -3.9687501,0 c -0.6591311,0 -1.190625,-0.53149 -1.190625,-1.19062 l 0,-0.35244 c 0,-0.0859 0.028047,-0.16951 0.079582,-0.23822 l 1.0846885,-1.44643 c 0.2249242,-0.2999 0.5775228,-0.47646 0.9523966,-0.47646 z"
       style="color:#000000;font-style:normal;font-variant:normal;font-weight:normal;font-stretch:normal;font-size:medium;line-height:normal;font-family:sans-serif;text-indent:0;text-align:start;text-decoration:none;text-decoration-line:none;text-decoration-style:solid;text-decoration-color:#000000;letter-spacing:normal;word-spacing:normal;text-transform:none;direction:ltr;writing-mode:lr-tb;baseline-shift:baseline;text-anchor:start;white-space:normal;clip-rule:nonzero;display:inline;overflow:visible;visibility:visible;opacity:1;isolation:auto;mix-blend-mode:normal;color-interpolation:sRGB;color-interpolation-filters:linearRGB;solid-color:#000000;solid-opacity:1;fill:#000000;fill-opacity:1;fill-rule:evenodd;stroke:none;stroke-width:1px;stroke-linecap:butt;stroke-linejoin:miter;stroke-miterlimit:4;stroke-dasharray:none;stroke-dashoffset:0;stroke-opacity:1;color-rendering:auto;image-rendering:auto;shape-rendering:auto;text-rendering:auto;enable-background:accumulate" />
    <path
       inkscape:connector-curvature="0"
       id="path27690"
       d="m 1.0583331,292.83281 a 0.13230488,0.13230489 0 1 0 0,0.26458 l 0.4314981,0 c 0.093064,0 0.1788303,0.0493 0.2263428,0.12971 a 0.13230488,0.13230489 0 0 0 0.0062,0.009 l 0.3736205,0.52245 -0.9053716,0 a 0.13230488,0.13230489 0 1 0 0,0.26458 l 0.9260416,0 c 0.1904834,0 0.3155117,-0.21956 0.2185914,-0.38344 a 0.13230488,0.13230489 0 0 0 -0.0062,-0.01 l -0.3911905,-0.54726 0.0062,0.009 c -0.094833,-0.16044 -0.2678997,-0.25942 -0.4542359,-0.25942 z"
       style="color:#000000;font-style:normal;font-variant:normal;font-weight:normal;font-stretch:normal;font-size:medium;line-height:normal;font-family:sans-serif;text-indent:0;text-align:start;text-decoration:none;text-decoration-line:none;text-decoration-style:solid;text-decoration-color:#000000;letter-spacing:normal;word-spacing:normal;text-transform:none;direction:ltr;writing-mode:lr-tb;baseline-shift:baseline;text-anchor:start;white-space:normal;clip-rule:nonzero;display:inline;overflow:visible;visibility:visible;opacity:1;isolation:auto;mix-blend-mode:normal;color-interpolation:sRGB;color-interpolation-filters:linearRGB;solid-color:#000000;solid-opacity:1;fill:#000000;fill-opacity:1;fill-rule:evenodd;stroke:none;stroke-width:0.99999982;stroke-linecap:round;stroke-linejoin:round;stroke-miterlimit:4;stroke-dasharray:none;stroke-dashoffset:0;stroke-opacity:1;color-rendering:auto;image-rendering:auto;shape-rendering:auto;text-rendering:auto;enable-background:accumulate" />
    <path
       inkscape:connector-curvature="0"
       id="path27692"
       d="m 0.92604144,291.17916 c -0.21762112,0 -0.39687501,0.17925 -0.39687501,0.39688 l 0,0.13229 c 0,0.21762 0.17925389,0.39687 0.39687501,0.39687 l 0.52916666,0 0,-0.26458 -0.52916666,0 c -0.0746297,0 -0.13229167,-0.0577 -0.13229167,-0.13229 l 0,-0.13229 c 0,-0.0746 0.057662,-0.1323 0.13229167,-0.1323 l 0.46302086,0 c 0.038098,0 0.066146,0.0281 0.066146,0.0661 l 0,0.19844 0.2645833,0 0,-0.19844 c 0,-0.18109 -0.1496393,-0.33073 -0.3307291,-0.33073 z"
       style="color:#000000;font-style:normal;font-variant:normal;font-weight:normal;font-stretch:normal;font-size:medium;line-height:normal;font-family:sans-serif;text-indent:0;text-align:start;text-decoration:none;text-decoration-line:none;text-decoration-style:solid;text-decoration-color:#000000;letter-spacing:normal;word-spacing:normal;text-transform:none;direction:ltr;writing-mode:lr-tb;baseline-shift:baseline;text-anchor:start;white-space:normal;clip-rule:nonzero;display:inline;overflow:visible;visibility:visible;opacity:1;isolation:auto;mix-blend-mode:normal;color-interpolation:sRGB;color-interpolation-filters:linearRGB;solid-color:#000000;solid-opacity:1;fill:#000000;fill-opacity:1;fill-rule:evenodd;stroke:none;stroke-width:1px;stroke-linecap:butt;stroke-linejoin:miter;stroke-miterlimit:4;stroke-dasharray:none;stroke-dashoffset:0;stroke-opacity:1;color-rendering:auto;image-rendering:auto;shape-rendering:auto;text-rendering:auto;enable-background:accumulate" />
    <path
       inkscape:connector-curvature="0"
       id="path27694"
       d="m 7.0776041,291.17916 c -0.1810899,0 -0.3307292,0.14964 -0.3307292,0.33073 l 0,0.19844 0.2645833,0 0,-0.19844 c 0,-0.0381 0.028048,-0.0661 0.066146,-0.0661 l 0.4630208,0 c 0.07463,0 0.1322917,0.0577 0.1322917,0.1323 l 0,0.13229 c 0,0.0746 -0.057662,0.13229 -0.1322917,0.13229 l -0.5291667,0 0,0.26458 0.5291667,0 c 0.2176211,0 0.396875,-0.17925 0.396875,-0.39687 l 0,-0.13229 c 0,-0.21763 -0.1792539,-0.39688 -0.396875,-0.39688 z"
       style="color:#000000;font-style:normal;font-variant:normal;font-weight:normal;font-stretch:normal;font-size:medium;line-height:normal;font-family:sans-serif;text-indent:0;text-align:start;text-decoration:none;text-decoration-line:none;text-decoration-style:solid;text-decoration-color:#000000;letter-spacing:normal;word-spacing:normal;text-transform:none;direction:ltr;writing-mode:lr-tb;baseline-shift:baseline;text-anchor:start;white-space:normal;clip-rule:nonzero;display:inline;overflow:visible;visibility:visible;opacity:1;isolation:auto;mix-blend-mode:normal;color-interpolation:sRGB;color-interpolation-filters:linearRGB;solid-color:#000000;solid-opacity:1;fill:#000000;fill-opacity:1;fill-rule:evenodd;stroke:none;stroke-width:1px;stroke-linecap:butt;stroke-linejoin:miter;stroke-miterlimit:4;stroke-dasharray:none;stroke-dashoffset:0;stroke-opacity:1;color-rendering:auto;image-rendering:auto;shape-rendering:auto;text-rendering:auto;enable-background:accumulate" />
    <path
       inkscape:connector-curvature="0"
       id="path27696"
       d="m 7.0776041,293.95729 0,0.92604 c 0,0.0746 -0.057662,0.13228 -0.1322917,0.13228 l -0.5291667,0 c -0.07463,0 -0.1322917,-0.0576 -0.1322917,-0.13228 l 0,-0.39688 -0.2645833,0 0,0.39688 c 0,0.21761 0.1792539,0.39687 0.396875,0.39687 l 0.5291667,0 c 0.2176211,0 0.396875,-0.17926 0.396875,-0.39687 l 0,-0.92604 z"
       style="color:#000000;font-style:normal;font-variant:normal;font-weight:normal;font-stretch:normal;font-size:medium;line-height:normal;font-family:sans-serif;text-indent:0;text-align:start;text-decoration:none;text-decoration-line:none;text-decoration-style:solid;text-decoration-color:#000000;letter-spacing:normal;word-spacing:normal;text-transform:none;direction:ltr;writing-mode:lr-tb;baseline-shift:baseline;text-anchor:start;white-space:normal;clip-rule:nonzero;display:inline;overflow:visible;visibility:visible;opacity:1;isolation:auto;mix-blend-mode:normal;color-interpolation:sRGB;color-interpolation-filters:linearRGB;solid-color:#000000;solid-opacity:1;fill:#000000;fill-opacity:1;fill-rule:evenodd;stroke:none;stroke-width:1px;stroke-linecap:butt;stroke-linejoin:miter;stroke-miterlimit:4;stroke-dasharray:none;stroke-dashoffset:0;stroke-opacity:1;color-rendering:auto;image-rendering:auto;shape-rendering:auto;text-rendering:auto;enable-background:accumulate" />
    <path
       inkscape:connector-curvature="0"
       id="path27698"
       d="m 1.1244789,293.95729 0,0.92604 c 0,0.21761 0.1792539,0.39687 0.396875,0.39687 l 0.5291667,0 c 0.2176211,0 0.396875,-0.17926 0.396875,-0.39687 l 0,-0.39688 -0.2645833,0 0,0.39688 c 0,0.0746 -0.057662,0.13228 -0.1322917,0.13228 l -0.5291667,0 c -0.07463,0 -0.1322916,-0.0576 -0.1322916,-0.13228 l 0,-0.92604 z"
       style="color:#000000;font-style:normal;font-variant:normal;font-weight:normal;font-stretch:normal;font-size:medium;line-height:normal;font-family:sans-serif;text-indent:0;text-align:start;text-decoration:none;text-decoration-line:none;text-decoration-style:solid;text-decoration-color:#000000;letter-spacing:normal;word-spacing:normal;text-transform:none;direction:ltr;writing-mode:lr-tb;baseline-shift:baseline;text-anchor:start;white-space:normal;clip-rule:nonzero;display:inline;overflow:visible;visibility:visible;opacity:1;isolation:auto;mix-blend-mode:normal;color-interpolation:sRGB;color-interpolation-filters:linearRGB;solid-color:#000000;solid-opacity:1;fill:#000000;fill-opacity:1;fill-rule:evenodd;stroke:none;stroke-width:1px;stroke-linecap:butt;stroke-linejoin:miter;stroke-miterlimit:4;stroke-dasharray:none;stroke-dashoffset:0;stroke-opacity:1;color-rendering:auto;image-rendering:auto;shape-rendering:auto;text-rendering:auto;enable-background:accumulate" />
    <path
       inkscape:connector-curvature="0"
       id="path27700"
       d="m 1.9285641,291.81013 -0.083716,0.25115 0.3555339,0.11885 c 0.1138203,0.0381 0.2329566,0.0574 0.3529502,0.0574 l 3.3997925,0 c 0.1199933,0 0.2391299,-0.0193 0.3529499,-0.0574 l 0.3555339,-0.11885 -0.083716,-0.25115 -0.3555338,0.11937 c -0.086772,0.029 -0.1777852,0.0434 -0.2692342,0.0434 l -3.3997925,0 c -0.091449,0 -0.181946,-0.0144 -0.2687175,-0.0434 z"
       style="color:#000000;font-style:normal;font-variant:normal;font-weight:normal;font-stretch:normal;font-size:medium;line-height:normal;font-family:sans-serif;text-indent:0;text-align:start;text-decoration:none;text-decoration-line:none;text-decoration-style:solid;text-decoration-color:#000000;letter-spacing:normal;word-spacing:normal;text-transform:none;direction:ltr;writing-mode:lr-tb;baseline-shift:baseline;text-anchor:start;white-space:normal;clip-rule:nonzero;display:inline;overflow:visible;visibility:visible;opacity:1;isolation:auto;mix-blend-mode:normal;color-interpolation:sRGB;color-interpolation-filters:linearRGB;solid-color:#000000;solid-opacity:1;fill:#000000;fill-opacity:1;fill-rule:evenodd;stroke:none;stroke-width:1px;stroke-linecap:butt;stroke-linejoin:miter;stroke-miterlimit:4;stroke-dasharray:none;stroke-dashoffset:0;stroke-opacity:1;color-rendering:auto;image-rendering:auto;shape-rendering:auto;text-rendering:auto;enable-background:accumulate" />
  </g>
</svg>
