<?xml version="1.0" encoding="UTF-8" standalone="no"?>
<!-- Created with Inkscape (http://www.inkscape.org/) -->

<svg
   xmlns:dc="http://purl.org/dc/elements/1.1/"
   xmlns:cc="http://creativecommons.org/ns#"
   xmlns:rdf="http://www.w3.org/1999/02/22-rdf-syntax-ns#"
   xmlns:svg="http://www.w3.org/2000/svg"
   xmlns="http://www.w3.org/2000/svg"
   xmlns:sodipodi="http://sodipodi.sourceforge.net/DTD/sodipodi-0.dtd"
   xmlns:inkscape="http://www.inkscape.org/namespaces/inkscape"
   width="32"
   height="32"
   viewBox="0 0 8.4666665 8.4666669"
   version="1.1"
   id="svg8"
   inkscape:version="0.91 r13725"
   sodipodi:docname="catalytic-car-part-vehicle-auto-service.svg">
  <defs
     id="defs2">
    <inkscape:path-effect
       effect="fillet-chamfer"
       id="path-effect6194-9"
       is_visible="true"
       fillet_chamfer_values="-2.083553,1 | -1.5194253,1 | 0,1"
       method="auto"
       radius="2"
       chamfer_steps="1"
       helper_size="0"
       flexible="false"
       use_knot_distance="false"
       ignore_radius_0="false"
       only_selected="true"
       hide_knots="false" />
    <inkscape:path-effect
       effect="fillet-chamfer"
       id="path-effect6200-3"
       is_visible="true"
       fillet_chamfer_values="0,0 | -2.1346047,1 | -1.3969861,1 | -0.057274208,1 | -0.16666667,1"
       method="auto"
       radius="0.5"
       chamfer_steps="1"
       helper_size="0"
       flexible="false"
       use_knot_distance="false"
       ignore_radius_0="false"
       only_selected="true"
       hide_knots="false" />
    <pattern
       y="0"
       x="0"
       height="6"
       width="6"
       patternUnits="userSpaceOnUse"
       id="EMFhbasepattern" />
    <pattern
       y="0"
       x="0"
       height="6"
       width="6"
       patternUnits="userSpaceOnUse"
       id="EMFhbasepattern-6" />
    <inkscape:path-effect
       effect="fillet-chamfer"
       id="path-effect6795-9"
       is_visible="true"
       fillet_chamfer_values="0,0 | -2,1 | -2,1 | -2,1"
       method="auto"
       radius="2"
       chamfer_steps="1"
       helper_size="0"
       flexible="false"
       use_knot_distance="false"
       ignore_radius_0="false"
       only_selected="true"
       hide_knots="false" />
    <pattern
       y="0"
       x="0"
       height="6"
       width="6"
       patternUnits="userSpaceOnUse"
       id="EMFhbasepattern-4" />
    <pattern
       y="0"
       x="0"
       height="6"
       width="6"
       patternUnits="userSpaceOnUse"
       id="EMFhbasepattern-3" />
    <pattern
       y="0"
       x="0"
       height="6"
       width="6"
       patternUnits="userSpaceOnUse"
       id="EMFhbasepattern-0" />
    <inkscape:path-effect
       effect="fillet-chamfer"
       id="path-effect5842-1-6-2-7"
       is_visible="true"
       fillet_chamfer_values="0,0 | -0.49999733,1 | -0.50000267,1"
       method="auto"
       radius="0.5"
       chamfer_steps="1"
       helper_size="0"
       flexible="false"
       use_knot_distance="false"
       ignore_radius_0="false"
       only_selected="true"
       hide_knots="false" />
    <inkscape:path-effect
       effect="fillet-chamfer"
       id="path-effect9698-1"
       is_visible="true"
       fillet_chamfer_values="0,0 | -0.71730365,1"
       method="auto"
       radius="1"
       chamfer_steps="1"
       helper_size="0"
       flexible="false"
       use_knot_distance="false"
       ignore_radius_0="false"
       only_selected="true"
       hide_knots="false" />
  </defs>
  <sodipodi:namedview
     id="base"
     pagecolor="#ffffff"
     bordercolor="#666666"
     borderopacity="1.0"
     inkscape:pageopacity="0.0"
     inkscape:pageshadow="2"
     inkscape:zoom="11.313708"
     inkscape:cx="1.6343903"
     inkscape:cy="19.616211"
     inkscape:document-units="mm"
     inkscape:current-layer="layer1"
     showgrid="true"
     units="px"
     inkscape:window-width="1366"
     inkscape:window-height="716"
     inkscape:window-x="-8"
     inkscape:window-y="-8"
     inkscape:window-maximized="1">
    <inkscape:grid
       type="xygrid"
       id="grid4726" />
  </sodipodi:namedview>
  <metadata
     id="metadata5">
    <rdf:RDF>
      <cc:Work
         rdf:about="">
        <dc:format>image/svg+xml</dc:format>
        <dc:type
           rdf:resource="http://purl.org/dc/dcmitype/StillImage" />
        <dc:title></dc:title>
      </cc:Work>
    </rdf:RDF>
  </metadata>
  <g
     inkscape:label="Layer 1"
     inkscape:groupmode="layer"
     id="layer1"
     transform="translate(0,-288.53332)">
    <path
       inkscape:connector-curvature="0"
       id="path26500"
       d="m 1.8520832,291.44373 0,2.91012 0.2645833,0 0,-2.91012 z"
       style="color:#000000;font-style:normal;font-variant:normal;font-weight:normal;font-stretch:normal;font-size:medium;line-height:normal;font-family:sans-serif;text-indent:0;text-align:start;text-decoration:none;text-decoration-line:none;text-decoration-style:solid;text-decoration-color:#000000;letter-spacing:normal;word-spacing:normal;text-transform:none;direction:ltr;writing-mode:lr-tb;baseline-shift:baseline;text-anchor:start;white-space:normal;clip-rule:nonzero;display:inline;overflow:visible;visibility:visible;opacity:1;isolation:auto;mix-blend-mode:normal;color-interpolation:sRGB;color-interpolation-filters:linearRGB;solid-color:#000000;solid-opacity:1;fill:#000000;fill-opacity:1;fill-rule:evenodd;stroke:none;stroke-width:1px;stroke-linecap:butt;stroke-linejoin:miter;stroke-miterlimit:4;stroke-dasharray:none;stroke-dashoffset:0;stroke-opacity:1;color-rendering:auto;image-rendering:auto;shape-rendering:auto;text-rendering:auto;enable-background:accumulate" />
    <path
       inkscape:connector-curvature="0"
       id="path26502"
       d="m 6.35,291.44373 0,2.91012 0.2645833,0 0,-2.91012 z"
       style="color:#000000;font-style:normal;font-variant:normal;font-weight:normal;font-stretch:normal;font-size:medium;line-height:normal;font-family:sans-serif;text-indent:0;text-align:start;text-decoration:none;text-decoration-line:none;text-decoration-style:solid;text-decoration-color:#000000;letter-spacing:normal;word-spacing:normal;text-transform:none;direction:ltr;writing-mode:lr-tb;baseline-shift:baseline;text-anchor:start;white-space:normal;clip-rule:nonzero;display:inline;overflow:visible;visibility:visible;opacity:1;isolation:auto;mix-blend-mode:normal;color-interpolation:sRGB;color-interpolation-filters:linearRGB;solid-color:#000000;solid-opacity:1;fill:#000000;fill-opacity:1;fill-rule:evenodd;stroke:none;stroke-width:1px;stroke-linecap:butt;stroke-linejoin:miter;stroke-miterlimit:4;stroke-dasharray:none;stroke-dashoffset:0;stroke-opacity:1;color-rendering:auto;image-rendering:auto;shape-rendering:auto;text-rendering:auto;enable-background:accumulate" />
    <path
       inkscape:connector-curvature="0"
       id="path26504"
       d="m 0.7937498,292.10512 0,1.58734 0.2645834,0 0,-1.58734 z"
       style="color:#000000;font-style:normal;font-variant:normal;font-weight:normal;font-stretch:normal;font-size:medium;line-height:normal;font-family:sans-serif;text-indent:0;text-align:start;text-decoration:none;text-decoration-line:none;text-decoration-style:solid;text-decoration-color:#000000;letter-spacing:normal;word-spacing:normal;text-transform:none;direction:ltr;writing-mode:lr-tb;baseline-shift:baseline;text-anchor:start;white-space:normal;clip-rule:nonzero;display:inline;overflow:visible;visibility:visible;opacity:1;isolation:auto;mix-blend-mode:normal;color-interpolation:sRGB;color-interpolation-filters:linearRGB;solid-color:#000000;solid-opacity:1;fill:#000000;fill-opacity:1;fill-rule:evenodd;stroke:none;stroke-width:1px;stroke-linecap:butt;stroke-linejoin:miter;stroke-miterlimit:4;stroke-dasharray:none;stroke-dashoffset:0;stroke-opacity:1;color-rendering:auto;image-rendering:auto;shape-rendering:auto;text-rendering:auto;enable-background:accumulate" />
    <path
       inkscape:connector-curvature="0"
       id="path26506"
       d="m 2.3357746,291.17918 c -0.2566507,0 -0.5062644,0.0837 -0.7115845,0.23769 l -0.74207359,0.55597 -0.74982506,0 A 0.1323049,0.13229118 0 0 0 -2.2454988e-7,292.10512 l 0,1.58734 A 0.1323049,0.13229118 0 0 0 0.13229145,293.82473 l 0.74982506,0 0.74207359,0.55649 c 0.2053201,0.154 0.4549338,0.23718 0.7115845,0.23718 l 3.7951173,0 c 0.2566506,0 0.5062643,-0.0832 0.7115844,-0.23718 l 0.7420737,-0.55649 0.749825,0 a 0.1323049,0.13229118 0 0 0 0.1322917,-0.13227 l 0,-1.58734 A 0.1323049,0.13229118 0 0 0 8.334375,291.97284 l -0.749825,0 -0.7420737,-0.55597 c -0.2053201,-0.15396 -0.4549338,-0.23769 -0.7115844,-0.23769 z m 0,0.26455 3.7951173,0 c 0.1994402,0 0.3933859,0.0648 0.5529379,0.18447 l 0.7772135,0.58285 a 0.1323049,0.13229118 0 0 0 0.079582,0.0265 l 0.6614583,0 0,1.32278 -0.6614583,0 a 0.1323049,0.13229118 0 0 0 -0.079582,0.0269 l -0.7772135,0.58285 c -0.159552,0.11965 -0.3534977,0.18394 -0.5529379,0.18394 l -3.7951173,0 c -0.1994404,0 -0.3933859,-0.0643 -0.5529379,-0.18394 l -0.7772135,-0.58285 a 0.1323049,0.13229118 0 0 0 -0.0795817,-0.027 l -0.66145835,0 0,-1.32278 0.66145835,0 a 0.1323049,0.13229118 0 0 0 0.0795817,-0.0265 l 0.7772135,-0.58284 c 0.159552,-0.11966 0.3534975,-0.18448 0.5529379,-0.18448 z"
       style="color:#000000;font-style:normal;font-variant:normal;font-weight:normal;font-stretch:normal;font-size:medium;line-height:normal;font-family:sans-serif;text-indent:0;text-align:start;text-decoration:none;text-decoration-line:none;text-decoration-style:solid;text-decoration-color:#000000;letter-spacing:normal;word-spacing:normal;text-transform:none;direction:ltr;writing-mode:lr-tb;baseline-shift:baseline;text-anchor:start;white-space:normal;clip-rule:nonzero;display:inline;overflow:visible;visibility:visible;opacity:1;isolation:auto;mix-blend-mode:normal;color-interpolation:sRGB;color-interpolation-filters:linearRGB;solid-color:#000000;solid-opacity:1;fill:#000000;fill-opacity:1;fill-rule:evenodd;stroke:none;stroke-width:1px;stroke-linecap:butt;stroke-linejoin:round;stroke-miterlimit:4;stroke-dasharray:none;stroke-dashoffset:0;stroke-opacity:1;color-rendering:auto;image-rendering:auto;shape-rendering:auto;text-rendering:auto;enable-background:accumulate" />
    <path
       inkscape:connector-curvature="0"
       id="path26508"
       d="m 7.4083333,292.10512 0,1.58734 0.2645834,0 0,-1.58734 z"
       style="color:#000000;font-style:normal;font-variant:normal;font-weight:normal;font-stretch:normal;font-size:medium;line-height:normal;font-family:sans-serif;text-indent:0;text-align:start;text-decoration:none;text-decoration-line:none;text-decoration-style:solid;text-decoration-color:#000000;letter-spacing:normal;word-spacing:normal;text-transform:none;direction:ltr;writing-mode:lr-tb;baseline-shift:baseline;text-anchor:start;white-space:normal;clip-rule:nonzero;display:inline;overflow:visible;visibility:visible;opacity:1;isolation:auto;mix-blend-mode:normal;color-interpolation:sRGB;color-interpolation-filters:linearRGB;solid-color:#000000;solid-opacity:1;fill:#000000;fill-opacity:1;fill-rule:evenodd;stroke:none;stroke-width:1px;stroke-linecap:butt;stroke-linejoin:miter;stroke-miterlimit:4;stroke-dasharray:none;stroke-dashoffset:0;stroke-opacity:1;color-rendering:auto;image-rendering:auto;shape-rendering:auto;text-rendering:auto;enable-background:accumulate" />
    <path
       id="circle26510"
       d="m 1.5874998,293.42813 a 0.13229167,0.13227795 0 0 1 -0.1322916,0.13228 0.13229167,0.13227795 0 0 1 -0.1322917,-0.13228 0.13229167,0.13227795 0 0 1 0.1322917,-0.13227 0.13229167,0.13227795 0 0 1 0.1322916,0.13227 z"
       style="opacity:1;fill:#000000;fill-opacity:1;stroke:none;stroke-width:1;stroke-linecap:butt;stroke-linejoin:round;stroke-miterlimit:4;stroke-dasharray:none;stroke-opacity:1"
       inkscape:connector-curvature="0" />
    <path
       id="circle26512"
       d="m 7.14375,293.42813 a 0.13229167,0.13227795 0 0 1 -0.1322917,0.13228 0.13229167,0.13227795 0 0 1 -0.1322917,-0.13228 0.13229167,0.13227795 0 0 1 0.1322917,-0.13227 0.13229167,0.13227795 0 0 1 0.1322917,0.13227 z"
       style="opacity:1;fill:#000000;fill-opacity:1;stroke:none;stroke-width:1;stroke-linecap:butt;stroke-linejoin:round;stroke-miterlimit:4;stroke-dasharray:none;stroke-opacity:1"
       inkscape:connector-curvature="0" />
    <path
       inkscape:connector-curvature="0"
       id="path26514"
       d="m 3.1729329,293.69246 a 0.13230486,0.13229114 0 0 0 -0.1302247,0.13433 l 0,0.65779 a 0.13230486,0.13229114 0 1 0 0.2645833,0 l 0,-0.65779 a 0.13230486,0.13229114 0 0 0 -0.1343586,-0.13433 z"
       style="color:#000000;font-style:normal;font-variant:normal;font-weight:normal;font-stretch:normal;font-size:medium;line-height:normal;font-family:sans-serif;text-indent:0;text-align:start;text-decoration:none;text-decoration-line:none;text-decoration-style:solid;text-decoration-color:#000000;letter-spacing:normal;word-spacing:normal;text-transform:none;direction:ltr;writing-mode:lr-tb;baseline-shift:baseline;text-anchor:start;white-space:normal;clip-rule:nonzero;display:inline;overflow:visible;visibility:visible;opacity:1;isolation:auto;mix-blend-mode:normal;color-interpolation:sRGB;color-interpolation-filters:linearRGB;solid-color:#000000;solid-opacity:1;fill:#000000;fill-opacity:1;fill-rule:evenodd;stroke:none;stroke-width:0.9999997px;stroke-linecap:round;stroke-linejoin:round;stroke-miterlimit:4;stroke-dasharray:none;stroke-dashoffset:0;stroke-opacity:1;color-rendering:auto;image-rendering:auto;shape-rendering:auto;text-rendering:auto;enable-background:accumulate" />
    <path
       inkscape:connector-curvature="0"
       style="display:inline;opacity:1;fill:#000000;fill-opacity:1;stroke:none;stroke-width:1;stroke-linecap:butt;stroke-linejoin:round;stroke-miterlimit:4;stroke-dasharray:none;stroke-opacity:1"
       d="m 2.6458332,292.63448 a 0.13229167,0.13227795 0 0 1 -0.1322917,0.13227 0.13229167,0.13227795 0 0 1 -0.1322916,-0.13227 0.13229167,0.13227795 0 0 1 0.1322916,-0.13229 0.13229167,0.13227795 0 0 1 0.1322917,0.13229 z"
       id="circle26516" />
    <path
       inkscape:connector-curvature="0"
       style="display:inline;opacity:1;fill:#000000;fill-opacity:1;stroke:none;stroke-width:1;stroke-linecap:butt;stroke-linejoin:round;stroke-miterlimit:4;stroke-dasharray:none;stroke-opacity:1"
       d="m 2.6458332,293.16358 a 0.13229167,0.13227795 0 0 1 -0.1322917,0.13228 0.13229167,0.13227795 0 0 1 -0.1322916,-0.13228 0.13229167,0.13227795 0 0 1 0.1322916,-0.13228 0.13229167,0.13227795 0 0 1 0.1322917,0.13228 z"
       id="circle26518" />
    <path
       inkscape:connector-curvature="0"
       style="display:inline;opacity:1;fill:#000000;fill-opacity:1;stroke:none;stroke-width:1;stroke-linecap:butt;stroke-linejoin:round;stroke-miterlimit:4;stroke-dasharray:none;stroke-opacity:1"
       d="m 2.9765624,292.89903 a 0.13229167,0.13227795 0 0 1 -0.1322917,0.13227 0.13229167,0.13227795 0 0 1 -0.1322917,-0.13227 0.13229167,0.13227795 0 0 1 0.1322917,-0.13228 0.13229167,0.13227795 0 0 1 0.1322917,0.13228 z"
       id="circle26520" />
    <path
       inkscape:connector-curvature="0"
       style="display:inline;opacity:1;fill:#000000;fill-opacity:1;stroke:none;stroke-width:1;stroke-linecap:butt;stroke-linejoin:round;stroke-miterlimit:4;stroke-dasharray:none;stroke-opacity:1"
       d="m 3.3072915,292.63448 a 0.13229167,0.13227795 0 0 1 -0.1322916,0.13227 0.13229167,0.13227795 0 0 1 -0.1322917,-0.13227 0.13229167,0.13227795 0 0 1 0.1322917,-0.13229 0.13229167,0.13227795 0 0 1 0.1322916,0.13229 z"
       id="circle26522" />
    <path
       inkscape:connector-curvature="0"
       style="display:inline;opacity:1;fill:#000000;fill-opacity:1;stroke:none;stroke-width:1;stroke-linecap:butt;stroke-linejoin:round;stroke-miterlimit:4;stroke-dasharray:none;stroke-opacity:1"
       d="m 3.3072915,293.16358 a 0.13229167,0.13227795 0 0 1 -0.1322916,0.13228 0.13229167,0.13227795 0 0 1 -0.1322917,-0.13228 0.13229167,0.13227795 0 0 1 0.1322917,-0.13228 0.13229167,0.13227795 0 0 1 0.1322916,0.13228 z"
       id="circle26524" />
    <path
       inkscape:connector-curvature="0"
       style="display:inline;opacity:1;fill:#000000;fill-opacity:1;stroke:none;stroke-width:1;stroke-linecap:butt;stroke-linejoin:round;stroke-miterlimit:4;stroke-dasharray:none;stroke-opacity:1"
       d="m 2.9765624,293.42814 a 0.13229167,0.13227795 0 0 1 -0.1322917,0.13228 0.13229167,0.13227795 0 0 1 -0.1322917,-0.13228 0.13229167,0.13227795 0 0 1 0.1322917,-0.13228 0.13229167,0.13227795 0 0 1 0.1322917,0.13228 z"
       id="circle26526" />
    <path
       inkscape:connector-curvature="0"
       style="display:inline;opacity:1;fill:#000000;fill-opacity:1;stroke:none;stroke-width:1;stroke-linecap:butt;stroke-linejoin:round;stroke-miterlimit:4;stroke-dasharray:none;stroke-opacity:1"
       d="m 2.9765624,292.36991 a 0.13229167,0.13227795 0 0 1 -0.1322917,0.13228 0.13229167,0.13227795 0 0 1 -0.1322917,-0.13228 0.13229167,0.13227795 0 0 1 0.1322917,-0.13227 0.13229167,0.13227795 0 0 1 0.1322917,0.13227 z"
       id="circle26528" />
    <path
       inkscape:connector-curvature="0"
       id="path26532"
       d="m 3.1729329,291.17918 a 0.13230486,0.13229114 0 0 0 -0.1302247,0.13433 l 0,0.65779 a 0.13230486,0.13229114 0 1 0 0.2645833,0 l 0,-0.65779 a 0.13230486,0.13229114 0 0 0 -0.1343586,-0.13433 z"
       style="color:#000000;font-style:normal;font-variant:normal;font-weight:normal;font-stretch:normal;font-size:medium;line-height:normal;font-family:sans-serif;text-indent:0;text-align:start;text-decoration:none;text-decoration-line:none;text-decoration-style:solid;text-decoration-color:#000000;letter-spacing:normal;word-spacing:normal;text-transform:none;direction:ltr;writing-mode:lr-tb;baseline-shift:baseline;text-anchor:start;white-space:normal;clip-rule:nonzero;display:inline;overflow:visible;visibility:visible;opacity:1;isolation:auto;mix-blend-mode:normal;color-interpolation:sRGB;color-interpolation-filters:linearRGB;solid-color:#000000;solid-opacity:1;fill:#000000;fill-opacity:1;fill-rule:evenodd;stroke:none;stroke-width:0.9999997px;stroke-linecap:round;stroke-linejoin:round;stroke-miterlimit:4;stroke-dasharray:none;stroke-dashoffset:0;stroke-opacity:1;color-rendering:auto;image-rendering:auto;shape-rendering:auto;text-rendering:auto;enable-background:accumulate" />
    <path
       inkscape:connector-curvature="0"
       id="path26534"
       d="m 5.2895997,293.69246 a 0.13230488,0.13229116 0 0 0 -0.1302248,0.13433 l 0,0.65779 a 0.13230488,0.13229116 0 1 0 0.2645834,0 l 0,-0.65779 a 0.13230488,0.13229116 0 0 0 -0.1343586,-0.13433 z"
       style="color:#000000;font-style:normal;font-variant:normal;font-weight:normal;font-stretch:normal;font-size:medium;line-height:normal;font-family:sans-serif;text-indent:0;text-align:start;text-decoration:none;text-decoration-line:none;text-decoration-style:solid;text-decoration-color:#000000;letter-spacing:normal;word-spacing:normal;text-transform:none;direction:ltr;writing-mode:lr-tb;baseline-shift:baseline;text-anchor:start;white-space:normal;clip-rule:nonzero;display:inline;overflow:visible;visibility:visible;opacity:1;isolation:auto;mix-blend-mode:normal;color-interpolation:sRGB;color-interpolation-filters:linearRGB;solid-color:#000000;solid-opacity:1;fill:#000000;fill-opacity:1;fill-rule:evenodd;stroke:none;stroke-width:0.99999982px;stroke-linecap:round;stroke-linejoin:round;stroke-miterlimit:4;stroke-dasharray:none;stroke-dashoffset:0;stroke-opacity:1;color-rendering:auto;image-rendering:auto;shape-rendering:auto;text-rendering:auto;enable-background:accumulate" />
    <path
       inkscape:connector-curvature="0"
       style="display:inline;opacity:1;fill:#000000;fill-opacity:1;stroke:none;stroke-width:1;stroke-linecap:butt;stroke-linejoin:round;stroke-miterlimit:4;stroke-dasharray:none;stroke-opacity:1"
       d="m 5.4239577,292.63447 a 0.13229167,0.13227795 0 0 1 -0.1322917,0.13227 0.13229167,0.13227795 0 0 1 -0.1322916,-0.13227 0.13229167,0.13227795 0 0 1 0.1322916,-0.13228 0.13229167,0.13227795 0 0 1 0.1322917,0.13228 z"
       id="circle26536" />
    <path
       inkscape:connector-curvature="0"
       style="display:inline;opacity:1;fill:#000000;fill-opacity:1;stroke:none;stroke-width:1;stroke-linecap:butt;stroke-linejoin:round;stroke-miterlimit:4;stroke-dasharray:none;stroke-opacity:1"
       d="m 5.4239577,293.16358 a 0.13229167,0.13227795 0 0 1 -0.1322917,0.13228 0.13229167,0.13227795 0 0 1 -0.1322916,-0.13228 0.13229167,0.13227795 0 0 1 0.1322916,-0.13228 0.13229167,0.13227795 0 0 1 0.1322917,0.13228 z"
       id="circle26538" />
    <path
       inkscape:connector-curvature="0"
       style="display:inline;opacity:1;fill:#000000;fill-opacity:1;stroke:none;stroke-width:1;stroke-linecap:butt;stroke-linejoin:round;stroke-miterlimit:4;stroke-dasharray:none;stroke-opacity:1"
       d="m 5.7546869,292.89902 a 0.13229167,0.13227795 0 0 1 -0.1322917,0.13228 0.13229167,0.13227795 0 0 1 -0.1322917,-0.13228 0.13229167,0.13227795 0 0 1 0.1322917,-0.13228 0.13229167,0.13227795 0 0 1 0.1322917,0.13228 z"
       id="circle26540" />
    <path
       inkscape:connector-curvature="0"
       style="display:inline;opacity:1;fill:#000000;fill-opacity:1;stroke:none;stroke-width:1;stroke-linecap:butt;stroke-linejoin:round;stroke-miterlimit:4;stroke-dasharray:none;stroke-opacity:1"
       d="m 6.085416,292.63447 a 0.13229167,0.13227795 0 0 1 -0.1322916,0.13227 0.13229167,0.13227795 0 0 1 -0.1322917,-0.13227 0.13229167,0.13227795 0 0 1 0.1322917,-0.13228 0.13229167,0.13227795 0 0 1 0.1322916,0.13228 z"
       id="circle26542" />
    <path
       inkscape:connector-curvature="0"
       style="display:inline;opacity:1;fill:#000000;fill-opacity:1;stroke:none;stroke-width:1;stroke-linecap:butt;stroke-linejoin:round;stroke-miterlimit:4;stroke-dasharray:none;stroke-opacity:1"
       d="m 6.085416,293.16358 a 0.13229167,0.13227795 0 0 1 -0.1322916,0.13228 0.13229167,0.13227795 0 0 1 -0.1322917,-0.13228 0.13229167,0.13227795 0 0 1 0.1322917,-0.13228 0.13229167,0.13227795 0 0 1 0.1322916,0.13228 z"
       id="circle26544" />
    <path
       inkscape:connector-curvature="0"
       style="display:inline;opacity:1;fill:#000000;fill-opacity:1;stroke:none;stroke-width:1;stroke-linecap:butt;stroke-linejoin:round;stroke-miterlimit:4;stroke-dasharray:none;stroke-opacity:1"
       d="m 5.7546869,293.42813 a 0.13229167,0.13227795 0 0 1 -0.1322917,0.13228 0.13229167,0.13227795 0 0 1 -0.1322917,-0.13228 0.13229167,0.13227795 0 0 1 0.1322917,-0.13227 0.13229167,0.13227795 0 0 1 0.1322917,0.13227 z"
       id="circle26546" />
    <path
       inkscape:connector-curvature="0"
       style="display:inline;opacity:1;fill:#000000;fill-opacity:1;stroke:none;stroke-width:1;stroke-linecap:butt;stroke-linejoin:round;stroke-miterlimit:4;stroke-dasharray:none;stroke-opacity:1"
       d="m 5.7546869,292.36991 a 0.13229167,0.13227795 0 0 1 -0.1322917,0.13228 0.13229167,0.13227795 0 0 1 -0.1322917,-0.13228 0.13229167,0.13227795 0 0 1 0.1322917,-0.13227 0.13229167,0.13227795 0 0 1 0.1322917,0.13227 z"
       id="circle26548" />
    <path
       inkscape:connector-curvature="0"
       id="path26552"
       d="m 5.2895997,291.17918 a 0.13230488,0.13229116 0 0 0 -0.1302248,0.13433 l 0,0.65779 a 0.13230488,0.13229116 0 1 0 0.2645834,0 l 0,-0.65779 a 0.13230488,0.13229116 0 0 0 -0.1343586,-0.13433 z"
       style="color:#000000;font-style:normal;font-variant:normal;font-weight:normal;font-stretch:normal;font-size:medium;line-height:normal;font-family:sans-serif;text-indent:0;text-align:start;text-decoration:none;text-decoration-line:none;text-decoration-style:solid;text-decoration-color:#000000;letter-spacing:normal;word-spacing:normal;text-transform:none;direction:ltr;writing-mode:lr-tb;baseline-shift:baseline;text-anchor:start;white-space:normal;clip-rule:nonzero;display:inline;overflow:visible;visibility:visible;opacity:1;isolation:auto;mix-blend-mode:normal;color-interpolation:sRGB;color-interpolation-filters:linearRGB;solid-color:#000000;solid-opacity:1;fill:#000000;fill-opacity:1;fill-rule:evenodd;stroke:none;stroke-width:0.99999982px;stroke-linecap:round;stroke-linejoin:round;stroke-miterlimit:4;stroke-dasharray:none;stroke-dashoffset:0;stroke-opacity:1;color-rendering:auto;image-rendering:auto;shape-rendering:auto;text-rendering:auto;enable-background:accumulate" />
  </g>
</svg>
