<?xml version="1.0" encoding="UTF-8" standalone="no"?>
<!-- Created with Inkscape (http://www.inkscape.org/) -->

<svg
   xmlns:dc="http://purl.org/dc/elements/1.1/"
   xmlns:cc="http://creativecommons.org/ns#"
   xmlns:rdf="http://www.w3.org/1999/02/22-rdf-syntax-ns#"
   xmlns:svg="http://www.w3.org/2000/svg"
   xmlns="http://www.w3.org/2000/svg"
   xmlns:sodipodi="http://sodipodi.sourceforge.net/DTD/sodipodi-0.dtd"
   xmlns:inkscape="http://www.inkscape.org/namespaces/inkscape"
   width="32"
   height="32"
   viewBox="0 0 8.4666665 8.4666669"
   version="1.1"
   id="svg8"
   inkscape:version="0.91 r13725"
   sodipodi:docname="convertible-car-vehicle-type-body-style-automobile.svg">
  <defs
     id="defs2">
    <inkscape:path-effect
       effect="fillet-chamfer"
       id="path-effect6194-9"
       is_visible="true"
       fillet_chamfer_values="-2.083553,1 | -1.5194253,1 | 0,1"
       method="auto"
       radius="2"
       chamfer_steps="1"
       helper_size="0"
       flexible="false"
       use_knot_distance="false"
       ignore_radius_0="false"
       only_selected="true"
       hide_knots="false" />
    <inkscape:path-effect
       effect="fillet-chamfer"
       id="path-effect6200-3"
       is_visible="true"
       fillet_chamfer_values="0,0 | -2.1346047,1 | -1.3969861,1 | -0.057274208,1 | -0.16666667,1"
       method="auto"
       radius="0.5"
       chamfer_steps="1"
       helper_size="0"
       flexible="false"
       use_knot_distance="false"
       ignore_radius_0="false"
       only_selected="true"
       hide_knots="false" />
    <pattern
       y="0"
       x="0"
       height="6"
       width="6"
       patternUnits="userSpaceOnUse"
       id="EMFhbasepattern" />
    <pattern
       y="0"
       x="0"
       height="6"
       width="6"
       patternUnits="userSpaceOnUse"
       id="EMFhbasepattern-6" />
    <inkscape:path-effect
       effect="fillet-chamfer"
       id="path-effect6795-9"
       is_visible="true"
       fillet_chamfer_values="0,0 | -2,1 | -2,1 | -2,1"
       method="auto"
       radius="2"
       chamfer_steps="1"
       helper_size="0"
       flexible="false"
       use_knot_distance="false"
       ignore_radius_0="false"
       only_selected="true"
       hide_knots="false" />
    <pattern
       y="0"
       x="0"
       height="6"
       width="6"
       patternUnits="userSpaceOnUse"
       id="EMFhbasepattern-4" />
    <pattern
       y="0"
       x="0"
       height="6"
       width="6"
       patternUnits="userSpaceOnUse"
       id="EMFhbasepattern-3" />
    <pattern
       y="0"
       x="0"
       height="6"
       width="6"
       patternUnits="userSpaceOnUse"
       id="EMFhbasepattern-0" />
    <inkscape:path-effect
       effect="fillet-chamfer"
       id="path-effect5842-1-6-2-7"
       is_visible="true"
       fillet_chamfer_values="0,0 | -0.49999733,1 | -0.50000267,1"
       method="auto"
       radius="0.5"
       chamfer_steps="1"
       helper_size="0"
       flexible="false"
       use_knot_distance="false"
       ignore_radius_0="false"
       only_selected="true"
       hide_knots="false" />
    <inkscape:path-effect
       effect="fillet-chamfer"
       id="path-effect9698-1"
       is_visible="true"
       fillet_chamfer_values="0,0 | -0.71730365,1"
       method="auto"
       radius="1"
       chamfer_steps="1"
       helper_size="0"
       flexible="false"
       use_knot_distance="false"
       ignore_radius_0="false"
       only_selected="true"
       hide_knots="false" />
  </defs>
  <sodipodi:namedview
     id="base"
     pagecolor="#ffffff"
     bordercolor="#666666"
     borderopacity="1.0"
     inkscape:pageopacity="0.0"
     inkscape:pageshadow="2"
     inkscape:zoom="11.313708"
     inkscape:cx="1.6343903"
     inkscape:cy="19.616211"
     inkscape:document-units="mm"
     inkscape:current-layer="layer1"
     showgrid="true"
     units="px"
     inkscape:window-width="1366"
     inkscape:window-height="716"
     inkscape:window-x="-8"
     inkscape:window-y="-8"
     inkscape:window-maximized="1">
    <inkscape:grid
       type="xygrid"
       id="grid4726" />
  </sodipodi:namedview>
  <metadata
     id="metadata5">
    <rdf:RDF>
      <cc:Work
         rdf:about="">
        <dc:format>image/svg+xml</dc:format>
        <dc:type
           rdf:resource="http://purl.org/dc/dcmitype/StillImage" />
        <dc:title></dc:title>
      </cc:Work>
    </rdf:RDF>
  </metadata>
  <g
     inkscape:label="Layer 1"
     inkscape:groupmode="layer"
     id="layer1"
     transform="translate(0,-288.53332)">
    <path
       style="color:#000000;font-style:normal;font-variant:normal;font-weight:normal;font-stretch:normal;font-size:medium;line-height:normal;font-family:sans-serif;text-indent:0;text-align:start;text-decoration:none;text-decoration-line:none;text-decoration-style:solid;text-decoration-color:#000000;letter-spacing:normal;word-spacing:normal;text-transform:none;direction:ltr;writing-mode:lr-tb;baseline-shift:baseline;text-anchor:start;white-space:normal;clip-rule:nonzero;display:inline;overflow:visible;visibility:visible;opacity:1;isolation:auto;mix-blend-mode:normal;color-interpolation:sRGB;color-interpolation-filters:linearRGB;solid-color:#000000;solid-opacity:1;fill:#000000;fill-opacity:1;fill-rule:evenodd;stroke:none;stroke-width:1.00157475;stroke-linecap:butt;stroke-linejoin:round;stroke-miterlimit:4;stroke-dasharray:none;stroke-dashoffset:0;stroke-opacity:1;color-rendering:auto;image-rendering:auto;shape-rendering:auto;text-rendering:auto;enable-background:accumulate"
       d="m 4.8514796,292.23748 c 0.2263775,3e-5 0.4482835,0.0645 0.6392598,0.18603 l 1.0867496,0.69143 c 0.059928,0.0381 0.1253596,0.0665 0.19431,0.0837 l 1.061429,0.26561 c 0.2940579,0.0734 0.5014119,0.33867 0.5012531,0.64183 l 0,0.51263 c 0,0.36383 -0.2976298,0.66146 -0.6614583,0.66146 l -0.396875,0 0,-0.26459 0.396875,0 c 0.220636,0 0.396875,-0.17626 0.396875,-0.39687 l 0,-0.51263 c 1.058e-4,-0.1828 -0.1234017,-0.34073 -0.3007519,-0.385 l -1.061429,-0.26559 c -0.09652,-0.0241 -0.1883569,-0.0634 -0.2723356,-0.11679 l -1.0867761,-0.69143 c -0.1484841,-0.0945 -0.3210983,-0.14468 -0.4971256,-0.14471 l -2.3584959,0 c -0.1159933,0 -0.2263775,0.0504 -0.3017838,0.13851 l -0.4764616,0.55603 c -0.1257036,0.14676 -0.3090863,0.23153 -0.5023115,0.23151 l -0.41804168,0 c -0.074586,2e-5 -0.13229167,0.0578 -0.13229167,0.13229 l 0,0.79325 c 0,0.36671 0.29424313,0.66156 0.66092915,0.66145 l 0.3974042,0 0,0.26459 -0.3974042,0 c -0.50998435,1.6e-4 -0.92604166,-0.41662 -0.92604166,-0.92655 l 0,-0.79324 c 0,-0.21773 0.1792023,-0.3973 0.39687501,-0.39738 l 0.41857085,0 c 0.1159669,0 0.2258483,-0.0504 0.301281,-0.13851 l 0.4764617,-0.55602 c 0.1256771,-0.14679 0.309589,-0.23151 0.5028142,-0.23151 z m 1.1017515,2.77812 0,0.26459 -2.9098876,0 0,-0.26459 z"
       id="path28086"
       inkscape:connector-curvature="0" />
    <path
       style="color:#000000;font-style:normal;font-variant:normal;font-weight:normal;font-stretch:normal;font-size:medium;line-height:normal;font-family:sans-serif;text-indent:0;text-align:start;text-decoration:none;text-decoration-line:none;text-decoration-style:solid;text-decoration-color:#000000;letter-spacing:normal;word-spacing:normal;text-transform:none;direction:ltr;writing-mode:lr-tb;baseline-shift:baseline;text-anchor:start;white-space:normal;clip-rule:nonzero;display:inline;overflow:visible;visibility:visible;opacity:1;isolation:auto;mix-blend-mode:normal;color-interpolation:sRGB;color-interpolation-filters:linearRGB;solid-color:#000000;solid-opacity:1;fill:#000000;fill-opacity:1;fill-rule:evenodd;stroke:none;stroke-width:1;stroke-linecap:round;stroke-linejoin:round;stroke-miterlimit:4;stroke-dasharray:none;stroke-dashoffset:0;stroke-opacity:1;color-rendering:auto;image-rendering:auto;shape-rendering:auto;text-rendering:auto;enable-background:accumulate"
       d="m 3.9068377,289.72394 c 0.035613,0 0.069321,0.0161 0.09353,0.0424 l 0.79375,0.85989 c 0.04699,0.0507 0.04699,0.12912 0,0.17984 l -0.79375,0.8599 c -0.081677,0.0894 -0.2305315,0.0311 -0.2299494,-0.0899 l 0,-0.33073 -0.6082242,0 c -0.1738312,0 -0.3440112,0.0204 -0.5090319,0.0605 -0.070908,0.0172 -0.1423458,-0.0262 -0.159676,-0.0972 l -0.1870604,-0.77102 c -0.017198,-0.0709 0.026194,-0.14234 0.097155,-0.15967 0.2458773,-0.0596 0.5000625,-0.0909 0.7586133,-0.0909 l 0.6082242,0 0,-0.33073 c -2.64e-5,-0.0747 0.061754,-0.13462 0.1364192,-0.13229 z m 0.1281642,0.47077 0,0.12454 c 0,0.0731 -0.05924,0.13229 -0.1322917,0.13229 l -0.7405159,0 c -0.192061,0 -0.3806825,0.0196 -0.5658644,0.0558 l 0.1255713,0.51623 c 0.1445683,-0.0268 0.2905654,-0.0429 0.4402931,-0.0429 l 0.7405159,0 c 0.073051,0 0.1322917,0.0592 0.1322917,0.13229 l 0,0.12454 0.481621,-0.52142 z"
       id="path28104"
       inkscape:connector-curvature="0"
       sodipodi:nodetypes="cccccccsccccsccccccsccsccccc" />
    <path
       style="color:#000000;font-style:normal;font-variant:normal;font-weight:normal;font-stretch:normal;font-size:medium;line-height:normal;font-family:sans-serif;text-indent:0;text-align:start;text-decoration:none;text-decoration-line:none;text-decoration-style:solid;text-decoration-color:#000000;letter-spacing:normal;word-spacing:normal;text-transform:none;direction:ltr;writing-mode:lr-tb;baseline-shift:baseline;text-anchor:start;white-space:normal;clip-rule:nonzero;display:inline;overflow:visible;visibility:visible;opacity:1;isolation:auto;mix-blend-mode:normal;color-interpolation:sRGB;color-interpolation-filters:linearRGB;solid-color:#000000;solid-opacity:1;fill:#000000;fill-opacity:1;fill-rule:evenodd;stroke:none;stroke-width:1;stroke-linecap:round;stroke-linejoin:round;stroke-miterlimit:4;stroke-dasharray:none;stroke-dashoffset:0;stroke-opacity:1;color-rendering:auto;image-rendering:auto;shape-rendering:auto;text-rendering:auto;enable-background:accumulate"
       d="m 1.759691,290.52594 c 0.048339,0 0.092101,0.0288 0.1141941,0.0718 l 0.3617384,0.70641 c 0.03347,0.0651 0.00767,0.14494 -0.057362,0.17827 -0.262546,0.13425 -0.4990306,0.32523 -0.6898746,0.55812 l 0.1813719,0.14626 c 0.08853,0.0698 0.054716,0.21129 -0.055801,0.23357 l -1.05833339,0.21135 c -0.0754592,0.0153 -0.14800792,-0.0368 -0.15761229,-0.11316 l -0.13229167,-1.04492 c -0.0137583,-0.10724 0.1000125,-0.18473 0.19481271,-0.13279 l 0.16226896,0.0863 c 0.29196772,-0.37396 0.66047938,-0.67569 1.07333518,-0.88678 0.019579,-0.01 0.041487,-0.0151 0.063553,-0.0145 z m -0.059425,0.31367 c -0.3627966,0.20653 -0.6831012,0.48987 -0.93432309,0.83769 -0.0391319,0.0538 -0.11215688,0.0702 -0.17052396,0.0382 l -0.034634,-0.019 0.0816504,0.64804 0.63873055,-0.12766 -0.061489,-0.0491 c -0.055219,-0.044 -0.066172,-0.12362 -0.024871,-0.18087 0.2015596,-0.27903 0.456909,-0.50901 0.7462309,-0.67749 z"
       id="path28106"
       inkscape:connector-curvature="0"
       sodipodi:nodetypes="ccccccccccccccccccccccccc" />
    <path
       style="color:#000000;font-style:normal;font-variant:normal;font-weight:normal;font-stretch:normal;font-size:medium;line-height:normal;font-family:sans-serif;text-indent:0;text-align:start;text-decoration:none;text-decoration-line:none;text-decoration-style:solid;text-decoration-color:#000000;letter-spacing:normal;word-spacing:normal;text-transform:none;direction:ltr;writing-mode:lr-tb;baseline-shift:baseline;text-anchor:start;white-space:normal;clip-rule:nonzero;display:inline;overflow:visible;visibility:visible;opacity:1;isolation:auto;mix-blend-mode:normal;color-interpolation:sRGB;color-interpolation-filters:linearRGB;solid-color:#000000;solid-opacity:1;fill:#000000;fill-opacity:1;fill-rule:nonzero;stroke:none;stroke-width:0.99999994;stroke-linecap:round;stroke-linejoin:round;stroke-miterlimit:4;stroke-dasharray:none;stroke-dashoffset:0;stroke-opacity:1;color-rendering:auto;image-rendering:auto;shape-rendering:auto;text-rendering:auto;enable-background:accumulate"
       d="m 2.381356,294.35415 c 0.4368006,0 0.79375,0.35692 0.79375,0.79375 0,0.4368 -0.3569494,0.79375 -0.79375,0.79375 -0.4368007,0 -0.79375,-0.35695 -0.79375,-0.79375 0,-0.43683 0.3569493,-0.79375 0.79375,-0.79375 z m 0,0.26458 c -0.2938198,0 -0.5291667,0.23535 -0.5291667,0.52917 0,0.29382 0.2353469,0.52916 0.5291667,0.52916 0.2938198,0 0.5291667,-0.23534 0.5291667,-0.52916 0,-0.29382 -0.2353469,-0.52917 -0.5291667,-0.52917 z"
       id="circle28092"
       inkscape:connector-curvature="0" />
    <path
       style="color:#000000;font-style:normal;font-variant:normal;font-weight:normal;font-stretch:normal;font-size:medium;line-height:normal;font-family:sans-serif;text-indent:0;text-align:start;text-decoration:none;text-decoration-line:none;text-decoration-style:solid;text-decoration-color:#000000;letter-spacing:normal;word-spacing:normal;text-transform:none;direction:ltr;writing-mode:lr-tb;baseline-shift:baseline;text-anchor:start;white-space:normal;clip-rule:nonzero;display:inline;overflow:visible;visibility:visible;opacity:1;isolation:auto;mix-blend-mode:normal;color-interpolation:sRGB;color-interpolation-filters:linearRGB;solid-color:#000000;solid-opacity:1;fill:#000000;fill-opacity:1;fill-rule:nonzero;stroke:none;stroke-width:0.99999994;stroke-linecap:round;stroke-linejoin:round;stroke-miterlimit:4;stroke-dasharray:none;stroke-dashoffset:0;stroke-opacity:1;color-rendering:auto;image-rendering:auto;shape-rendering:auto;text-rendering:auto;enable-background:accumulate"
       d="m 6.6146894,294.35415 c 0.4368007,0 0.79375,0.35692 0.79375,0.79375 0,0.4368 -0.3569493,0.79375 -0.79375,0.79375 -0.4368006,0 -0.79375,-0.35695 -0.79375,-0.79375 0,-0.43683 0.3569494,-0.79375 0.79375,-0.79375 z m 0,0.26458 c -0.2938198,0 -0.5291667,0.23535 -0.5291667,0.52917 0,0.29382 0.2353469,0.52916 0.5291667,0.52916 0.2938198,0 0.5291667,-0.23534 0.5291667,-0.52916 0,-0.29382 -0.2353469,-0.52917 -0.5291667,-0.52917 z"
       id="circle28096"
       inkscape:connector-curvature="0" />
    <path
       style="opacity:1;fill:#000000;fill-opacity:1;stroke:none;stroke-width:0.99999994;stroke-linecap:round;stroke-linejoin:round;stroke-miterlimit:4;stroke-dasharray:none;stroke-opacity:1"
       d="m 6.4826094,295.14795 a 0.13229199,0.13229168 0 0 0 0.1322917,0.13229 0.13229199,0.13229168 0 0 0 0.1322917,-0.13229 0.13229199,0.13229168 0 0 0 -0.1322917,-0.13229 0.13229199,0.13229168 0 0 0 -0.1322917,0.13229 z"
       id="circle28098"
       inkscape:connector-curvature="0" />
    <path
       style="opacity:1;fill:#000000;fill-opacity:1;stroke:none;stroke-width:0.99999994;stroke-linecap:round;stroke-linejoin:round;stroke-miterlimit:4;stroke-dasharray:none;stroke-opacity:1"
       d="m 2.249276,295.14795 a 0.13229199,0.13229168 0 0 0 0.1322916,0.13229 0.13229199,0.13229168 0 0 0 0.1322917,-0.13229 0.13229199,0.13229168 0 0 0 -0.1322917,-0.13229 0.13229199,0.13229168 0 0 0 -0.1322916,0.13229 z"
       id="circle28100"
       inkscape:connector-curvature="0" />
  </g>
</svg>
