<?xml version="1.0" encoding="UTF-8" standalone="no"?>
<!-- Created with Inkscape (http://www.inkscape.org/) -->

<svg
   xmlns:dc="http://purl.org/dc/elements/1.1/"
   xmlns:cc="http://creativecommons.org/ns#"
   xmlns:rdf="http://www.w3.org/1999/02/22-rdf-syntax-ns#"
   xmlns:svg="http://www.w3.org/2000/svg"
   xmlns="http://www.w3.org/2000/svg"
   xmlns:sodipodi="http://sodipodi.sourceforge.net/DTD/sodipodi-0.dtd"
   xmlns:inkscape="http://www.inkscape.org/namespaces/inkscape"
   width="32"
   height="32"
   viewBox="0 0 8.4666665 8.4666669"
   version="1.1"
   id="svg8"
   inkscape:version="0.91 r13725"
   sodipodi:docname="daytime-light-lamp-headlight-running-car-automobile.svg">
  <defs
     id="defs2">
    <inkscape:path-effect
       effect="fillet-chamfer"
       id="path-effect6194-9"
       is_visible="true"
       fillet_chamfer_values="-2.083553,1 | -1.5194253,1 | 0,1"
       method="auto"
       radius="2"
       chamfer_steps="1"
       helper_size="0"
       flexible="false"
       use_knot_distance="false"
       ignore_radius_0="false"
       only_selected="true"
       hide_knots="false" />
    <inkscape:path-effect
       effect="fillet-chamfer"
       id="path-effect6200-3"
       is_visible="true"
       fillet_chamfer_values="0,0 | -2.1346047,1 | -1.3969861,1 | -0.057274208,1 | -0.16666667,1"
       method="auto"
       radius="0.5"
       chamfer_steps="1"
       helper_size="0"
       flexible="false"
       use_knot_distance="false"
       ignore_radius_0="false"
       only_selected="true"
       hide_knots="false" />
    <pattern
       y="0"
       x="0"
       height="6"
       width="6"
       patternUnits="userSpaceOnUse"
       id="EMFhbasepattern" />
    <pattern
       y="0"
       x="0"
       height="6"
       width="6"
       patternUnits="userSpaceOnUse"
       id="EMFhbasepattern-6" />
    <inkscape:path-effect
       effect="fillet-chamfer"
       id="path-effect6795-9"
       is_visible="true"
       fillet_chamfer_values="0,0 | -2,1 | -2,1 | -2,1"
       method="auto"
       radius="2"
       chamfer_steps="1"
       helper_size="0"
       flexible="false"
       use_knot_distance="false"
       ignore_radius_0="false"
       only_selected="true"
       hide_knots="false" />
    <pattern
       y="0"
       x="0"
       height="6"
       width="6"
       patternUnits="userSpaceOnUse"
       id="EMFhbasepattern-4" />
    <pattern
       y="0"
       x="0"
       height="6"
       width="6"
       patternUnits="userSpaceOnUse"
       id="EMFhbasepattern-3" />
    <pattern
       y="0"
       x="0"
       height="6"
       width="6"
       patternUnits="userSpaceOnUse"
       id="EMFhbasepattern-0" />
    <inkscape:path-effect
       effect="fillet-chamfer"
       id="path-effect5842-1-6-2-7"
       is_visible="true"
       fillet_chamfer_values="0,0 | -0.49999733,1 | -0.50000267,1"
       method="auto"
       radius="0.5"
       chamfer_steps="1"
       helper_size="0"
       flexible="false"
       use_knot_distance="false"
       ignore_radius_0="false"
       only_selected="true"
       hide_knots="false" />
    <inkscape:path-effect
       effect="fillet-chamfer"
       id="path-effect9698-1"
       is_visible="true"
       fillet_chamfer_values="0,0 | -0.71730365,1"
       method="auto"
       radius="1"
       chamfer_steps="1"
       helper_size="0"
       flexible="false"
       use_knot_distance="false"
       ignore_radius_0="false"
       only_selected="true"
       hide_knots="false" />
  </defs>
  <sodipodi:namedview
     id="base"
     pagecolor="#ffffff"
     bordercolor="#666666"
     borderopacity="1.0"
     inkscape:pageopacity="0.0"
     inkscape:pageshadow="2"
     inkscape:zoom="11.313708"
     inkscape:cx="1.6343903"
     inkscape:cy="19.616211"
     inkscape:document-units="mm"
     inkscape:current-layer="layer1"
     showgrid="true"
     units="px"
     inkscape:window-width="1366"
     inkscape:window-height="716"
     inkscape:window-x="-8"
     inkscape:window-y="-8"
     inkscape:window-maximized="1">
    <inkscape:grid
       type="xygrid"
       id="grid4726" />
  </sodipodi:namedview>
  <metadata
     id="metadata5">
    <rdf:RDF>
      <cc:Work
         rdf:about="">
        <dc:format>image/svg+xml</dc:format>
        <dc:type
           rdf:resource="http://purl.org/dc/dcmitype/StillImage" />
        <dc:title></dc:title>
      </cc:Work>
    </rdf:RDF>
  </metadata>
  <g
     inkscape:label="Layer 1"
     inkscape:groupmode="layer"
     id="layer1"
     transform="translate(0,-288.53332)">
    <path
       style="color:#000000;font-style:normal;font-variant:normal;font-weight:normal;font-stretch:normal;font-size:medium;line-height:normal;font-family:sans-serif;text-indent:0;text-align:start;text-decoration:none;text-decoration-line:none;text-decoration-style:solid;text-decoration-color:#000000;letter-spacing:normal;word-spacing:normal;text-transform:none;direction:ltr;writing-mode:lr-tb;baseline-shift:baseline;text-anchor:start;white-space:normal;clip-rule:nonzero;display:inline;overflow:visible;visibility:visible;opacity:1;isolation:auto;mix-blend-mode:normal;color-interpolation:sRGB;color-interpolation-filters:linearRGB;solid-color:#000000;solid-opacity:1;fill:#000000;fill-opacity:1;fill-rule:nonzero;stroke:none;stroke-width:0.99999994;stroke-linecap:butt;stroke-linejoin:round;stroke-miterlimit:4;stroke-dasharray:none;stroke-dashoffset:0;stroke-opacity:1;color-rendering:auto;image-rendering:auto;shape-rendering:auto;text-rendering:auto;enable-background:accumulate"
       d="m 3.9687498,293.6927 c -0.2906712,0 -0.5291667,0.23849 -0.5291667,0.52917 0,0.29069 0.2384955,0.52916 0.5291667,0.52916 0.2906713,0 0.5291667,-0.23847 0.5291667,-0.52916 0,-0.29068 -0.2384954,-0.52917 -0.5291667,-0.52917 z m 0,0.26458 c 0.1476904,0 0.2645834,0.11689 0.2645834,0.26459 0,0.14769 -0.116893,0.26458 -0.2645834,0.26458 -0.1476904,0 -0.2645833,-0.11689 -0.2645833,-0.26458 0,-0.1477 0.1168929,-0.26459 0.2645833,-0.26459 z"
       id="circle27930"
       inkscape:connector-curvature="0" />
    <path
       style="color:#000000;font-style:normal;font-variant:normal;font-weight:normal;font-stretch:normal;font-size:medium;line-height:normal;font-family:sans-serif;text-indent:0;text-align:start;text-decoration:none;text-decoration-line:none;text-decoration-style:solid;text-decoration-color:#000000;letter-spacing:normal;word-spacing:normal;text-transform:none;direction:ltr;writing-mode:lr-tb;baseline-shift:baseline;text-anchor:start;white-space:normal;clip-rule:nonzero;display:inline;overflow:visible;visibility:visible;opacity:1;isolation:auto;mix-blend-mode:normal;color-interpolation:sRGB;color-interpolation-filters:linearRGB;solid-color:#000000;solid-opacity:1;fill:#000000;fill-opacity:1;fill-rule:nonzero;stroke:none;stroke-width:1;stroke-linecap:butt;stroke-linejoin:round;stroke-miterlimit:4;stroke-dasharray:none;stroke-dashoffset:0;stroke-opacity:1;color-rendering:auto;image-rendering:auto;shape-rendering:auto;text-rendering:auto;enable-background:accumulate"
       d="m 2.6458331,293.75884 c -0.2541587,0 -0.4630208,0.20889 -0.4630208,0.46303 0,0.25415 0.2088621,0.46302 0.4630208,0.46302 0.2541588,0 0.4630209,-0.20887 0.4630209,-0.46302 0,-0.25414 -0.2088621,-0.46303 -0.4630209,-0.46303 z m 0,0.26459 c 0.1111515,0 0.1984375,0.0873 0.1984375,0.19844 0,0.11117 -0.087286,0.19843 -0.1984375,0.19843 -0.1111514,0 -0.1984375,-0.0873 -0.1984375,-0.19843 0,-0.11116 0.087286,-0.19844 0.1984375,-0.19844 z"
       id="circle27932"
       inkscape:connector-curvature="0" />
    <path
       style="color:#000000;font-style:normal;font-variant:normal;font-weight:normal;font-stretch:normal;font-size:medium;line-height:normal;font-family:sans-serif;text-indent:0;text-align:start;text-decoration:none;text-decoration-line:none;text-decoration-style:solid;text-decoration-color:#000000;letter-spacing:normal;word-spacing:normal;text-transform:none;direction:ltr;writing-mode:lr-tb;baseline-shift:baseline;text-anchor:start;white-space:normal;clip-rule:nonzero;display:inline;overflow:visible;visibility:visible;opacity:1;isolation:auto;mix-blend-mode:normal;color-interpolation:sRGB;color-interpolation-filters:linearRGB;solid-color:#000000;solid-opacity:1;fill:#000000;fill-opacity:1;fill-rule:nonzero;stroke:none;stroke-width:1;stroke-linecap:butt;stroke-linejoin:round;stroke-miterlimit:4;stroke-dasharray:none;stroke-dashoffset:0;stroke-opacity:1;color-rendering:auto;image-rendering:auto;shape-rendering:auto;text-rendering:auto;enable-background:accumulate"
       d="m 1.4552081,293.82499 c -0.2176198,0 -0.396875,0.17926 -0.396875,0.39688 0,0.21761 0.1792552,0.39687 0.396875,0.39687 0.2176198,0 0.396875,-0.17926 0.396875,-0.39687 0,-0.21762 -0.1792552,-0.39688 -0.396875,-0.39688 z m 0,0.26458 c 0.074639,0 0.1322916,0.0577 0.1322916,0.1323 0,0.0746 -0.057653,0.13229 -0.1322916,0.13229 -0.074639,0 -0.1322917,-0.0577 -0.1322917,-0.13229 0,-0.0746 0.057653,-0.1323 0.1322917,-0.1323 z"
       id="circle27934"
       inkscape:connector-curvature="0" />
    <path
       style="color:#000000;font-style:normal;font-variant:normal;font-weight:normal;font-stretch:normal;font-size:medium;line-height:normal;font-family:sans-serif;text-indent:0;text-align:start;text-decoration:none;text-decoration-line:none;text-decoration-style:solid;text-decoration-color:#000000;letter-spacing:normal;word-spacing:normal;text-transform:none;direction:ltr;writing-mode:lr-tb;baseline-shift:baseline;text-anchor:start;white-space:normal;clip-rule:nonzero;display:inline;overflow:visible;visibility:visible;opacity:1;isolation:auto;mix-blend-mode:normal;color-interpolation:sRGB;color-interpolation-filters:linearRGB;solid-color:#000000;solid-opacity:1;fill:#000000;fill-opacity:1;fill-rule:nonzero;stroke:none;stroke-width:1;stroke-linecap:round;stroke-linejoin:miter;stroke-miterlimit:4;stroke-dasharray:none;stroke-dashoffset:0;stroke-opacity:1;color-rendering:auto;image-rendering:auto;shape-rendering:auto;text-rendering:auto;enable-background:accumulate"
       d="m 5.8249343,290.64999 c 1.3031258,0 2.3771226,0.93985 2.3771226,2.11667 0,1.17681 -1.0739968,2.11666 -2.3771226,2.11666 -0.1902619,0 -0.3617384,-0.0793 -0.4971257,-0.20566 -0.1353873,-0.12639 -0.2399506,-0.29749 -0.3224477,-0.49559 -0.1650206,-0.39613 -0.2428875,-0.90553 -0.2428875,-1.41541 0,-0.50986 0.077867,-1.01876 0.2428875,-1.41489 0.082497,-0.19809 0.1870604,-0.3692 0.3224477,-0.49559 0.1353873,-0.12639 0.3068638,-0.20619 0.4971257,-0.20619 z m 0,0.26458 c -0.1196975,0 -0.2196836,0.0447 -0.3167592,0.13539 -0.097102,0.0907 -0.1864254,0.22961 -0.2589213,0.4036 -0.1449387,0.348 -0.2221971,0.83079 -0.2221971,1.3131 0,0.48233 0.077258,0.96562 0.2221971,1.31363 0.072496,0.17399 0.1618192,0.31292 0.2589213,0.40359 0.097076,0.0906 0.1970617,0.13486 0.3167592,0.13486 1.1767344,0 2.1125392,-0.83704 2.1125392,-1.85208 0,-1.01505 -0.9358048,-1.85209 -2.1125392,-1.85209 z"
       id="path27938"
       inkscape:connector-curvature="0" />
    <path
       style="color:#000000;font-style:normal;font-variant:normal;font-weight:normal;font-stretch:normal;font-size:medium;line-height:normal;font-family:sans-serif;text-indent:0;text-align:start;text-decoration:none;text-decoration-line:none;text-decoration-style:solid;text-decoration-color:#000000;letter-spacing:normal;word-spacing:normal;text-transform:none;direction:ltr;writing-mode:lr-tb;baseline-shift:baseline;text-anchor:start;white-space:normal;clip-rule:nonzero;display:inline;overflow:visible;visibility:visible;opacity:1;isolation:auto;mix-blend-mode:normal;color-interpolation:sRGB;color-interpolation-filters:linearRGB;solid-color:#000000;solid-opacity:1;fill:#000000;fill-opacity:1;fill-rule:nonzero;stroke:none;stroke-width:0.99999994;stroke-linecap:butt;stroke-linejoin:round;stroke-miterlimit:4;stroke-dasharray:none;stroke-dashoffset:0;stroke-opacity:1;color-rendering:auto;image-rendering:auto;shape-rendering:auto;text-rendering:auto;enable-background:accumulate"
       d="m 3.9687498,290.78228 c -0.2906712,0 -0.5291667,0.2385 -0.5291667,0.52917 0,0.2907 0.2384955,0.52916 0.5291667,0.52916 0.2906713,0 0.5291667,-0.23846 0.5291667,-0.52916 0,-0.29067 -0.2384954,-0.52917 -0.5291667,-0.52917 z m 0,0.26458 c 0.1476904,0 0.2645834,0.1169 0.2645834,0.26459 0,0.14769 -0.116893,0.26458 -0.2645834,0.26458 -0.1476904,0 -0.2645833,-0.11689 -0.2645833,-0.26458 0,-0.14769 0.1168929,-0.26459 0.2645833,-0.26459 z"
       id="circle27942"
       inkscape:connector-curvature="0" />
    <path
       style="color:#000000;font-style:normal;font-variant:normal;font-weight:normal;font-stretch:normal;font-size:medium;line-height:normal;font-family:sans-serif;text-indent:0;text-align:start;text-decoration:none;text-decoration-line:none;text-decoration-style:solid;text-decoration-color:#000000;letter-spacing:normal;word-spacing:normal;text-transform:none;direction:ltr;writing-mode:lr-tb;baseline-shift:baseline;text-anchor:start;white-space:normal;clip-rule:nonzero;display:inline;overflow:visible;visibility:visible;opacity:1;isolation:auto;mix-blend-mode:normal;color-interpolation:sRGB;color-interpolation-filters:linearRGB;solid-color:#000000;solid-opacity:1;fill:#000000;fill-opacity:1;fill-rule:nonzero;stroke:none;stroke-width:1;stroke-linecap:butt;stroke-linejoin:round;stroke-miterlimit:4;stroke-dasharray:none;stroke-dashoffset:0;stroke-opacity:1;color-rendering:auto;image-rendering:auto;shape-rendering:auto;text-rendering:auto;enable-background:accumulate"
       d="m 2.6458331,290.84843 c -0.2541587,0 -0.4630208,0.20889 -0.4630208,0.46302 0,0.25416 0.2088621,0.46302 0.4630208,0.46302 0.2541588,0 0.4630209,-0.20886 0.4630209,-0.46302 0,-0.25413 -0.2088621,-0.46302 -0.4630209,-0.46302 z m 0,0.26458 c 0.1111515,0 0.1984375,0.0873 0.1984375,0.19844 0,0.11118 -0.087286,0.19844 -0.1984375,0.19844 -0.1111514,0 -0.1984375,-0.0873 -0.1984375,-0.19844 0,-0.11115 0.087286,-0.19844 0.1984375,-0.19844 z"
       id="circle27944"
       inkscape:connector-curvature="0" />
    <path
       style="color:#000000;font-style:normal;font-variant:normal;font-weight:normal;font-stretch:normal;font-size:medium;line-height:normal;font-family:sans-serif;text-indent:0;text-align:start;text-decoration:none;text-decoration-line:none;text-decoration-style:solid;text-decoration-color:#000000;letter-spacing:normal;word-spacing:normal;text-transform:none;direction:ltr;writing-mode:lr-tb;baseline-shift:baseline;text-anchor:start;white-space:normal;clip-rule:nonzero;display:inline;overflow:visible;visibility:visible;opacity:1;isolation:auto;mix-blend-mode:normal;color-interpolation:sRGB;color-interpolation-filters:linearRGB;solid-color:#000000;solid-opacity:1;fill:#000000;fill-opacity:1;fill-rule:nonzero;stroke:none;stroke-width:1;stroke-linecap:butt;stroke-linejoin:round;stroke-miterlimit:4;stroke-dasharray:none;stroke-dashoffset:0;stroke-opacity:1;color-rendering:auto;image-rendering:auto;shape-rendering:auto;text-rendering:auto;enable-background:accumulate"
       d="m 1.4552081,290.91457 c -0.2176198,0 -0.396875,0.17926 -0.396875,0.39688 0,0.21762 0.1792552,0.39687 0.396875,0.39687 0.2176198,0 0.396875,-0.17925 0.396875,-0.39687 0,-0.21762 -0.1792552,-0.39688 -0.396875,-0.39688 z m 0,0.26459 c 0.074639,0 0.1322916,0.0577 0.1322916,0.13229 0,0.0746 -0.057653,0.13229 -0.1322916,0.13229 -0.074639,0 -0.1322917,-0.0576 -0.1322917,-0.13229 0,-0.0746 0.057653,-0.13229 0.1322917,-0.13229 z"
       id="circle27946"
       inkscape:connector-curvature="0" />
    <path
       style="color:#000000;font-style:normal;font-variant:normal;font-weight:normal;font-stretch:normal;font-size:medium;line-height:normal;font-family:sans-serif;text-indent:0;text-align:start;text-decoration:none;text-decoration-line:none;text-decoration-style:solid;text-decoration-color:#000000;letter-spacing:normal;word-spacing:normal;text-transform:none;direction:ltr;writing-mode:lr-tb;baseline-shift:baseline;text-anchor:start;white-space:normal;clip-rule:nonzero;display:inline;overflow:visible;visibility:visible;opacity:1;isolation:auto;mix-blend-mode:normal;color-interpolation:sRGB;color-interpolation-filters:linearRGB;solid-color:#000000;solid-opacity:1;fill:#000000;fill-opacity:1;fill-rule:nonzero;stroke:none;stroke-width:1;stroke-linecap:butt;stroke-linejoin:round;stroke-miterlimit:4;stroke-dasharray:none;stroke-dashoffset:0;stroke-opacity:1;color-rendering:auto;image-rendering:auto;shape-rendering:auto;text-rendering:auto;enable-background:accumulate"
       d="m 2.1166664,292.30364 c -0.2541587,0 -0.4630208,0.20888 -0.4630208,0.46302 0,0.25416 0.2088621,0.46302 0.4630208,0.46302 0.2541588,0 0.4630209,-0.20886 0.4630209,-0.46302 0,-0.25414 -0.2088621,-0.46302 -0.4630209,-0.46302 z m 0,0.26458 c 0.1111515,0 0.1984375,0.0873 0.1984375,0.19844 0,0.11117 -0.087286,0.19843 -0.1984375,0.19843 -0.1111514,0 -0.1984375,-0.0873 -0.1984375,-0.19843 0,-0.11115 0.087286,-0.19844 0.1984375,-0.19844 z"
       id="circle27950"
       inkscape:connector-curvature="0" />
    <path
       style="color:#000000;font-style:normal;font-variant:normal;font-weight:normal;font-stretch:normal;font-size:medium;line-height:normal;font-family:sans-serif;text-indent:0;text-align:start;text-decoration:none;text-decoration-line:none;text-decoration-style:solid;text-decoration-color:#000000;letter-spacing:normal;word-spacing:normal;text-transform:none;direction:ltr;writing-mode:lr-tb;baseline-shift:baseline;text-anchor:start;white-space:normal;clip-rule:nonzero;display:inline;overflow:visible;visibility:visible;opacity:1;isolation:auto;mix-blend-mode:normal;color-interpolation:sRGB;color-interpolation-filters:linearRGB;solid-color:#000000;solid-opacity:1;fill:#000000;fill-opacity:1;fill-rule:nonzero;stroke:none;stroke-width:1;stroke-linecap:butt;stroke-linejoin:round;stroke-miterlimit:4;stroke-dasharray:none;stroke-dashoffset:0;stroke-opacity:1;color-rendering:auto;image-rendering:auto;shape-rendering:auto;text-rendering:auto;enable-background:accumulate"
       d="m 0.92604143,292.36978 c -0.2176198,0 -0.396875,0.17926 -0.396875,0.39688 0,0.21762 0.1792552,0.39687 0.396875,0.39687 0.21761977,0 0.39687497,-0.17925 0.39687497,-0.39687 0,-0.21762 -0.1792552,-0.39688 -0.39687497,-0.39688 z m 0,0.26458 c 0.074639,0 0.13229167,0.0577 0.13229167,0.1323 0,0.0746 -0.057653,0.13229 -0.13229167,0.13229 -0.074639,0 -0.1322917,-0.0577 -0.1322917,-0.13229 0,-0.0746 0.057653,-0.1323 0.1322917,-0.1323 z"
       id="circle27952"
       inkscape:connector-curvature="0" />
    <path
       style="color:#000000;font-style:normal;font-variant:normal;font-weight:normal;font-stretch:normal;font-size:medium;line-height:normal;font-family:sans-serif;text-indent:0;text-align:start;text-decoration:none;text-decoration-line:none;text-decoration-style:solid;text-decoration-color:#000000;letter-spacing:normal;word-spacing:normal;text-transform:none;direction:ltr;writing-mode:lr-tb;baseline-shift:baseline;text-anchor:start;white-space:normal;clip-rule:nonzero;display:inline;overflow:visible;visibility:visible;opacity:1;isolation:auto;mix-blend-mode:normal;color-interpolation:sRGB;color-interpolation-filters:linearRGB;solid-color:#000000;solid-opacity:1;fill:#000000;fill-opacity:1;fill-rule:nonzero;stroke:none;stroke-width:0.99999994;stroke-linecap:butt;stroke-linejoin:round;stroke-miterlimit:4;stroke-dasharray:none;stroke-dashoffset:0;stroke-opacity:1;color-rendering:auto;image-rendering:auto;shape-rendering:auto;text-rendering:auto;enable-background:accumulate"
       d="m 3.4395831,292.23749 c -0.2906712,0 -0.5291666,0.2385 -0.5291666,0.52917 0,0.29069 0.2384954,0.52916 0.5291666,0.52916 0.2906713,0 0.5291667,-0.23847 0.5291667,-0.52916 0,-0.29067 -0.2384954,-0.52917 -0.5291667,-0.52917 z m 0,0.26458 c 0.1476905,0 0.2645834,0.1169 0.2645834,0.26459 0,0.14769 -0.1168929,0.26458 -0.2645834,0.26458 -0.1476904,0 -0.2645833,-0.11689 -0.2645833,-0.26458 0,-0.14769 0.1168929,-0.26459 0.2645833,-0.26459 z"
       id="circle27954"
       inkscape:connector-curvature="0" />
  </g>
</svg>
