<?xml version="1.0" encoding="UTF-8" standalone="no"?>
<!-- Created with Inkscape (http://www.inkscape.org/) -->

<svg
   xmlns:dc="http://purl.org/dc/elements/1.1/"
   xmlns:cc="http://creativecommons.org/ns#"
   xmlns:rdf="http://www.w3.org/1999/02/22-rdf-syntax-ns#"
   xmlns:svg="http://www.w3.org/2000/svg"
   xmlns="http://www.w3.org/2000/svg"
   xmlns:sodipodi="http://sodipodi.sourceforge.net/DTD/sodipodi-0.dtd"
   xmlns:inkscape="http://www.inkscape.org/namespaces/inkscape"
   width="32"
   height="32"
   viewBox="0 0 8.4666665 8.4666669"
   version="1.1"
   id="svg8"
   inkscape:version="0.91 r13725"
   sodipodi:docname="disc-brake-car-part-vehicle-service-drum.svg">
  <defs
     id="defs2">
    <inkscape:path-effect
       effect="fillet-chamfer"
       id="path-effect6194-9"
       is_visible="true"
       fillet_chamfer_values="-2.083553,1 | -1.5194253,1 | 0,1"
       method="auto"
       radius="2"
       chamfer_steps="1"
       helper_size="0"
       flexible="false"
       use_knot_distance="false"
       ignore_radius_0="false"
       only_selected="true"
       hide_knots="false" />
    <inkscape:path-effect
       effect="fillet-chamfer"
       id="path-effect6200-3"
       is_visible="true"
       fillet_chamfer_values="0,0 | -2.1346047,1 | -1.3969861,1 | -0.057274208,1 | -0.16666667,1"
       method="auto"
       radius="0.5"
       chamfer_steps="1"
       helper_size="0"
       flexible="false"
       use_knot_distance="false"
       ignore_radius_0="false"
       only_selected="true"
       hide_knots="false" />
    <pattern
       y="0"
       x="0"
       height="6"
       width="6"
       patternUnits="userSpaceOnUse"
       id="EMFhbasepattern" />
    <pattern
       y="0"
       x="0"
       height="6"
       width="6"
       patternUnits="userSpaceOnUse"
       id="EMFhbasepattern-6" />
    <inkscape:path-effect
       effect="fillet-chamfer"
       id="path-effect6795-9"
       is_visible="true"
       fillet_chamfer_values="0,0 | -2,1 | -2,1 | -2,1"
       method="auto"
       radius="2"
       chamfer_steps="1"
       helper_size="0"
       flexible="false"
       use_knot_distance="false"
       ignore_radius_0="false"
       only_selected="true"
       hide_knots="false" />
    <pattern
       y="0"
       x="0"
       height="6"
       width="6"
       patternUnits="userSpaceOnUse"
       id="EMFhbasepattern-4" />
    <pattern
       y="0"
       x="0"
       height="6"
       width="6"
       patternUnits="userSpaceOnUse"
       id="EMFhbasepattern-3" />
    <pattern
       y="0"
       x="0"
       height="6"
       width="6"
       patternUnits="userSpaceOnUse"
       id="EMFhbasepattern-0" />
    <inkscape:path-effect
       effect="fillet-chamfer"
       id="path-effect5842-1-6-2-7"
       is_visible="true"
       fillet_chamfer_values="0,0 | -0.49999733,1 | -0.50000267,1"
       method="auto"
       radius="0.5"
       chamfer_steps="1"
       helper_size="0"
       flexible="false"
       use_knot_distance="false"
       ignore_radius_0="false"
       only_selected="true"
       hide_knots="false" />
    <inkscape:path-effect
       effect="fillet-chamfer"
       id="path-effect9698-1"
       is_visible="true"
       fillet_chamfer_values="0,0 | -0.71730365,1"
       method="auto"
       radius="1"
       chamfer_steps="1"
       helper_size="0"
       flexible="false"
       use_knot_distance="false"
       ignore_radius_0="false"
       only_selected="true"
       hide_knots="false" />
  </defs>
  <sodipodi:namedview
     id="base"
     pagecolor="#ffffff"
     bordercolor="#666666"
     borderopacity="1.0"
     inkscape:pageopacity="0.0"
     inkscape:pageshadow="2"
     inkscape:zoom="11.313708"
     inkscape:cx="1.6343903"
     inkscape:cy="19.616211"
     inkscape:document-units="mm"
     inkscape:current-layer="layer1"
     showgrid="true"
     units="px"
     inkscape:window-width="1366"
     inkscape:window-height="716"
     inkscape:window-x="-8"
     inkscape:window-y="-8"
     inkscape:window-maximized="1">
    <inkscape:grid
       type="xygrid"
       id="grid4726" />
  </sodipodi:namedview>
  <metadata
     id="metadata5">
    <rdf:RDF>
      <cc:Work
         rdf:about="">
        <dc:format>image/svg+xml</dc:format>
        <dc:type
           rdf:resource="http://purl.org/dc/dcmitype/StillImage" />
        <dc:title></dc:title>
      </cc:Work>
    </rdf:RDF>
  </metadata>
  <g
     inkscape:label="Layer 1"
     inkscape:groupmode="layer"
     id="layer1"
     transform="translate(0,-288.53332)">
    <path
       style="color:#000000;font-style:normal;font-variant:normal;font-weight:normal;font-stretch:normal;font-size:medium;line-height:normal;font-family:sans-serif;text-indent:0;text-align:start;text-decoration:none;text-decoration-line:none;text-decoration-style:solid;text-decoration-color:#000000;letter-spacing:normal;word-spacing:normal;text-transform:none;direction:ltr;writing-mode:lr-tb;baseline-shift:baseline;text-anchor:start;white-space:normal;clip-rule:nonzero;display:inline;overflow:visible;visibility:visible;opacity:1;isolation:auto;mix-blend-mode:normal;color-interpolation:sRGB;color-interpolation-filters:linearRGB;solid-color:#000000;solid-opacity:1;fill:#000000;fill-opacity:1;fill-rule:nonzero;stroke:none;stroke-width:0.99999994;stroke-linecap:butt;stroke-linejoin:round;stroke-miterlimit:4;stroke-dasharray:none;stroke-dashoffset:0;stroke-opacity:1;color-rendering:auto;image-rendering:auto;shape-rendering:auto;text-rendering:auto;enable-background:accumulate"
       d="m 2.7509386,289.06258 c -0.016404,0 -0.032464,0.004 -0.047546,0.0103 -0.516308,0.21836 -0.9811809,0.53417 -1.3714942,0.92451 -0.39033983,0.39031 -0.70612005,0.85521 -0.92450713,1.37149 -0.0286279,0.0674 0.00291,0.14516 0.0702998,0.17362 l 0.99425123,0.42014 c 0.067495,0.0285 0.1453356,-0.003 0.1736196,-0.0708 0.1503098,-0.35533 0.3677973,-0.67527 0.6366669,-0.94411 0.2688696,-0.26887 0.5888038,-0.48633 0.9441127,-0.63667 0.067416,-0.0285 0.098928,-0.10625 0.0703,-0.17362 l -0.419629,-0.99424 c -0.021431,-0.0503 -0.071438,-0.0824 -0.1260739,-0.0806 z m -0.061516,0.31729 0.3121289,0.74208 c -0.3374496,0.15997 -0.645504,0.37782 -0.9064096,0.63873 -0.2608527,0.26085 -0.479769,0.56788 -0.639736,0.90535 l -0.74104504,-0.3111 c 0.2016125,-0.43566 0.46921204,-0.83507 0.80459794,-1.17046 0.3354123,-0.33541 0.7347744,-0.60301 1.1704638,-0.8046 z"
       id="path27042"
       inkscape:connector-curvature="0"
       sodipodi:nodetypes="ccccccccccccccsccsc" />
    <path
       style="color:#000000;font-style:normal;font-variant:normal;font-weight:normal;font-stretch:normal;font-size:medium;line-height:normal;font-family:sans-serif;text-indent:0;text-align:start;text-decoration:none;text-decoration-line:none;text-decoration-style:solid;text-decoration-color:#000000;letter-spacing:normal;word-spacing:normal;text-transform:none;direction:ltr;writing-mode:lr-tb;baseline-shift:baseline;text-anchor:start;white-space:normal;clip-rule:nonzero;display:inline;overflow:visible;visibility:visible;opacity:1;isolation:auto;mix-blend-mode:normal;color-interpolation:sRGB;color-interpolation-filters:linearRGB;solid-color:#000000;solid-opacity:1;fill:#000000;fill-opacity:1;fill-rule:nonzero;stroke:none;stroke-width:1;stroke-linecap:butt;stroke-linejoin:round;stroke-miterlimit:4;stroke-dasharray:none;stroke-dashoffset:0;stroke-opacity:1;color-rendering:auto;image-rendering:auto;shape-rendering:auto;text-rendering:auto;enable-background:accumulate"
       d="m 4.1947699,289.33079 c -0.4214548,0.0193 -0.8449734,0.11137 -1.2526434,0.28112 l 0.1012825,0.2439 c 1.5156657,-0.63112 3.2644028,-0.10407 4.1790939,1.25936 0.9146646,1.36342 0.7386373,3.18085 -0.4201319,4.34393 -1.1587957,1.16305 -2.9755836,1.34525 -4.3423683,0.43564 -1.366811,-0.90964 -1.89984061,-2.65595 -1.2743656,-4.17391 l -0.2449248,-0.10078 c -0.67296772,1.63319 -0.097499,3.51668 1.3730288,4.49532 1.4705277,0.97867 3.4294763,0.78161 4.676193,-0.46974 1.2467432,-1.25132 1.4362642,-3.21085 0.4521729,-4.67773 -0.7380552,-1.10019 -1.9830256,-1.69505 -3.2473371,-1.63711 z"
       id="path27022"
       inkscape:connector-curvature="0" />
    <path
       style="color:#000000;font-style:normal;font-variant:normal;font-weight:normal;font-stretch:normal;font-size:medium;line-height:normal;font-family:sans-serif;text-indent:0;text-align:start;text-decoration:none;text-decoration-line:none;text-decoration-style:solid;text-decoration-color:#000000;letter-spacing:normal;word-spacing:normal;text-transform:none;direction:ltr;writing-mode:lr-tb;baseline-shift:baseline;text-anchor:start;white-space:normal;clip-rule:nonzero;display:inline;overflow:visible;visibility:visible;opacity:1;isolation:auto;mix-blend-mode:normal;color-interpolation:sRGB;color-interpolation-filters:linearRGB;solid-color:#000000;solid-opacity:1;fill:#000000;fill-opacity:1;fill-rule:nonzero;stroke:none;stroke-width:1;stroke-linecap:butt;stroke-linejoin:round;stroke-miterlimit:4;stroke-dasharray:none;stroke-dashoffset:0;stroke-opacity:1;color-rendering:auto;image-rendering:auto;shape-rendering:auto;text-rendering:auto;enable-background:accumulate"
       d="m 4.365823,290.3855 c -1.4597063,0 -2.6458334,1.18615 -2.6458334,2.64583 0,1.45968 1.1861271,2.64584 2.6458334,2.64584 1.4596798,0 2.6458334,-1.18616 2.6458334,-2.64584 0,-1.45968 -1.1861536,-2.64583 -2.6458334,-2.64583 z m 0,0.26458 c 1.316699,0 2.3812501,1.06456 2.3812501,2.38125 0,1.3167 -1.0645511,2.38126 -2.3812501,2.38126 -1.316699,0 -2.3812501,-1.06456 -2.3812501,-2.38126 0,-1.31669 1.0645511,-2.38125 2.3812501,-2.38125 z"
       id="circle27024"
       inkscape:connector-curvature="0" />
    <path
       style="color:#000000;font-style:normal;font-variant:normal;font-weight:normal;font-stretch:normal;font-size:medium;line-height:normal;font-family:sans-serif;text-indent:0;text-align:start;text-decoration:none;text-decoration-line:none;text-decoration-style:solid;text-decoration-color:#000000;letter-spacing:normal;word-spacing:normal;text-transform:none;direction:ltr;writing-mode:lr-tb;baseline-shift:baseline;text-anchor:start;white-space:normal;clip-rule:nonzero;display:inline;overflow:visible;visibility:visible;opacity:1;isolation:auto;mix-blend-mode:normal;color-interpolation:sRGB;color-interpolation-filters:linearRGB;solid-color:#000000;solid-opacity:1;fill:#000000;fill-opacity:1;fill-rule:nonzero;stroke:none;stroke-width:0.99999994;stroke-linecap:butt;stroke-linejoin:round;stroke-miterlimit:4;stroke-dasharray:none;stroke-dashoffset:0;stroke-opacity:1;color-rendering:auto;image-rendering:auto;shape-rendering:auto;text-rendering:auto;enable-background:accumulate"
       d="m 4.365823,290.91467 c -1.1674475,0 -2.1166667,0.94922 -2.1166667,2.11666 0,1.16743 0.9492192,2.11667 2.1166667,2.11667 1.1674211,0 2.1166667,-0.94924 2.1166667,-2.11667 0,-1.16744 -0.9492456,-2.11666 -2.1166667,-2.11666 z m 0,0.26458 c 1.0244402,0 1.8520834,0.82764 1.8520834,1.85208 0,1.02445 -0.8276432,1.85209 -1.8520834,1.85209 -1.0244402,0 -1.8520834,-0.82764 -1.8520834,-1.85209 0,-1.02444 0.8276432,-1.85208 1.8520834,-1.85208 z"
       id="circle27026"
       inkscape:connector-curvature="0" />
    <path
       style="color:#000000;font-style:normal;font-variant:normal;font-weight:normal;font-stretch:normal;font-size:medium;line-height:normal;font-family:sans-serif;text-indent:0;text-align:start;text-decoration:none;text-decoration-line:none;text-decoration-style:solid;text-decoration-color:#000000;letter-spacing:normal;word-spacing:normal;text-transform:none;direction:ltr;writing-mode:lr-tb;baseline-shift:baseline;text-anchor:start;white-space:normal;clip-rule:nonzero;display:inline;overflow:visible;visibility:visible;opacity:1;isolation:auto;mix-blend-mode:normal;color-interpolation:sRGB;color-interpolation-filters:linearRGB;solid-color:#000000;solid-opacity:1;fill:#000000;fill-opacity:1;fill-rule:nonzero;stroke:none;stroke-width:1;stroke-linecap:butt;stroke-linejoin:round;stroke-miterlimit:4;stroke-dasharray:none;stroke-dashoffset:0;stroke-opacity:1;color-rendering:auto;image-rendering:auto;shape-rendering:auto;text-rendering:auto;enable-background:accumulate"
       d="m 4.365823,292.36988 c -0.3637492,0 -0.6614584,0.29771 -0.6614584,0.66145 0,0.36375 0.2977092,0.66146 0.6614584,0.66146 0.3637492,0 0.6614583,-0.29771 0.6614583,-0.66146 0,-0.36374 -0.2977091,-0.66145 -0.6614583,-0.66145 z m 0,0.26458 c 0.2207419,0 0.396875,0.17611 0.396875,0.39687 0,0.22075 -0.1761331,0.39688 -0.396875,0.39688 -0.2207683,0 -0.396875,-0.17613 -0.396875,-0.39688 0,-0.22076 0.1761067,-0.39687 0.396875,-0.39687 z"
       id="circle27028"
       inkscape:connector-curvature="0" />
    <path
       style="color:#000000;font-style:normal;font-variant:normal;font-weight:normal;font-stretch:normal;font-size:medium;line-height:normal;font-family:sans-serif;text-indent:0;text-align:start;text-decoration:none;text-decoration-line:none;text-decoration-style:solid;text-decoration-color:#000000;letter-spacing:normal;word-spacing:normal;text-transform:none;direction:ltr;writing-mode:lr-tb;baseline-shift:baseline;text-anchor:start;white-space:normal;clip-rule:nonzero;display:inline;overflow:visible;visibility:visible;opacity:1;isolation:auto;mix-blend-mode:normal;color-interpolation:sRGB;color-interpolation-filters:linearRGB;solid-color:#000000;solid-opacity:1;fill:#000000;fill-opacity:1;fill-rule:nonzero;stroke:none;stroke-width:1;stroke-linecap:butt;stroke-linejoin:round;stroke-miterlimit:4;stroke-dasharray:none;stroke-dashoffset:0;stroke-opacity:1;color-rendering:auto;image-rendering:auto;shape-rendering:auto;text-rendering:auto;enable-background:accumulate"
       d="m 4.365823,293.95738 c -0.2176198,0 -0.396875,0.17925 -0.396875,0.39687 0,0.21762 0.1792552,0.39688 0.396875,0.39688 0.2176198,0 0.396875,-0.17926 0.396875,-0.39688 0,-0.21762 -0.1792552,-0.39687 -0.396875,-0.39687 z m 0,0.26458 c 0.074612,0 0.1322917,0.0577 0.1322917,0.13229 0,0.0746 -0.057679,0.13229 -0.1322917,0.13229 -0.074639,0 -0.1322917,-0.0577 -0.1322917,-0.13229 0,-0.0746 0.057653,-0.13229 0.1322917,-0.13229 z"
       id="circle27030"
       inkscape:connector-curvature="0" />
    <path
       style="color:#000000;font-style:normal;font-variant:normal;font-weight:normal;font-stretch:normal;font-size:medium;line-height:normal;font-family:sans-serif;text-indent:0;text-align:start;text-decoration:none;text-decoration-line:none;text-decoration-style:solid;text-decoration-color:#000000;letter-spacing:normal;word-spacing:normal;text-transform:none;direction:ltr;writing-mode:lr-tb;baseline-shift:baseline;text-anchor:start;white-space:normal;clip-rule:nonzero;display:inline;overflow:visible;visibility:visible;opacity:1;isolation:auto;mix-blend-mode:normal;color-interpolation:sRGB;color-interpolation-filters:linearRGB;solid-color:#000000;solid-opacity:1;fill:#000000;fill-opacity:1;fill-rule:nonzero;stroke:none;stroke-width:1;stroke-linecap:butt;stroke-linejoin:round;stroke-miterlimit:4;stroke-dasharray:none;stroke-dashoffset:0;stroke-opacity:1;color-rendering:auto;image-rendering:auto;shape-rendering:auto;text-rendering:auto;enable-background:accumulate"
       d="m 5.7450695,293.05046 c -0.2070894,-0.0673 -0.4329642,0.0477 -0.5002477,0.25475 -0.067284,0.20708 0.047678,0.43346 0.2547673,0.50075 0.2070893,0.0673 0.4329641,-0.0482 0.5002477,-0.25527 0.067284,-0.20709 -0.047704,-0.43294 -0.2547673,-0.50023 z m -0.08165,0.25165 c 0.071067,0.023 0.1083468,0.0958 0.085249,0.16693 -0.023019,0.0711 -0.096335,0.10834 -0.1674283,0.0853 -0.071094,-0.023 -0.1078442,-0.0964 -0.084746,-0.16745 0.023019,-0.0711 0.095832,-0.10785 0.1669257,-0.0848 z"
       id="circle27032"
       inkscape:connector-curvature="0" />
    <path
       style="color:#000000;font-style:normal;font-variant:normal;font-weight:normal;font-stretch:normal;font-size:medium;line-height:normal;font-family:sans-serif;text-indent:0;text-align:start;text-decoration:none;text-decoration-line:none;text-decoration-style:solid;text-decoration-color:#000000;letter-spacing:normal;word-spacing:normal;text-transform:none;direction:ltr;writing-mode:lr-tb;baseline-shift:baseline;text-anchor:start;white-space:normal;clip-rule:nonzero;display:inline;overflow:visible;visibility:visible;opacity:1;isolation:auto;mix-blend-mode:normal;color-interpolation:sRGB;color-interpolation-filters:linearRGB;solid-color:#000000;solid-opacity:1;fill:#000000;fill-opacity:1;fill-rule:nonzero;stroke:none;stroke-width:1;stroke-linecap:butt;stroke-linejoin:round;stroke-miterlimit:4;stroke-dasharray:none;stroke-dashoffset:0;stroke-opacity:1;color-rendering:auto;image-rendering:auto;shape-rendering:auto;text-rendering:auto;enable-background:accumulate"
       d="m 5.0975547,291.58078 c -0.1007798,0.0159 -0.1958711,0.0699 -0.2599267,0.15812 -0.1281377,0.1764 -0.08853,0.42738 0.087842,0.55552 0.1763712,0.12813 0.4273814,0.0885 0.5555192,-0.0878 0.1281641,-0.17638 0.088556,-0.42736 -0.087842,-0.55552 -0.088212,-0.0641 -0.1948127,-0.0863 -0.2955925,-0.0703 z m 0.1400439,0.28422 c 0.060696,0.0441 0.073554,0.12533 0.029448,0.18603 -0.044106,0.0607 -0.1253332,0.0736 -0.1860286,0.0294 -0.060695,-0.0441 -0.073554,-0.12534 -0.029448,-0.18603 0.044106,-0.0607 0.1253331,-0.0736 0.1860285,-0.0294 z"
       id="circle27034"
       inkscape:connector-curvature="0" />
    <path
       style="color:#000000;font-style:normal;font-variant:normal;font-weight:normal;font-stretch:normal;font-size:medium;line-height:normal;font-family:sans-serif;text-indent:0;text-align:start;text-decoration:none;text-decoration-line:none;text-decoration-style:solid;text-decoration-color:#000000;letter-spacing:normal;word-spacing:normal;text-transform:none;direction:ltr;writing-mode:lr-tb;baseline-shift:baseline;text-anchor:start;white-space:normal;clip-rule:nonzero;display:inline;overflow:visible;visibility:visible;opacity:1;isolation:auto;mix-blend-mode:normal;color-interpolation:sRGB;color-interpolation-filters:linearRGB;solid-color:#000000;solid-opacity:1;fill:#000000;fill-opacity:1;fill-rule:nonzero;stroke:none;stroke-width:1;stroke-linecap:butt;stroke-linejoin:round;stroke-miterlimit:4;stroke-dasharray:none;stroke-dashoffset:0;stroke-opacity:1;color-rendering:auto;image-rendering:auto;shape-rendering:auto;text-rendering:auto;enable-background:accumulate"
       d="m 3.6340913,291.58078 c -0.1007798,-0.0159 -0.207936,0.006 -0.2961217,0.0703 -0.1763977,0.12813 -0.2160058,0.37912 -0.087842,0.55552 0.1281641,0.17639 0.3791214,0.216 0.5555191,0.0878 0.1763713,-0.12814 0.2159794,-0.37915 0.087842,-0.55552 -0.064056,-0.0882 -0.1586442,-0.14216 -0.2593975,-0.15812 z M 3.4935182,291.865 c 0.060695,-0.0441 0.1419225,-0.0312 0.1860285,0.0294 0.044106,0.0607 0.031247,0.14192 -0.029448,0.18603 -0.060695,0.0441 -0.1419225,0.0312 -0.1860285,-0.0294 -0.044106,-0.0607 -0.031247,-0.14193 0.029448,-0.18603 z"
       id="circle27036"
       inkscape:connector-curvature="0" />
    <path
       style="color:#000000;font-style:normal;font-variant:normal;font-weight:normal;font-stretch:normal;font-size:medium;line-height:normal;font-family:sans-serif;text-indent:0;text-align:start;text-decoration:none;text-decoration-line:none;text-decoration-style:solid;text-decoration-color:#000000;letter-spacing:normal;word-spacing:normal;text-transform:none;direction:ltr;writing-mode:lr-tb;baseline-shift:baseline;text-anchor:start;white-space:normal;clip-rule:nonzero;display:inline;overflow:visible;visibility:visible;opacity:1;isolation:auto;mix-blend-mode:normal;color-interpolation:sRGB;color-interpolation-filters:linearRGB;solid-color:#000000;solid-opacity:1;fill:#000000;fill-opacity:1;fill-rule:nonzero;stroke:none;stroke-width:1;stroke-linecap:butt;stroke-linejoin:round;stroke-miterlimit:4;stroke-dasharray:none;stroke-dashoffset:0;stroke-opacity:1;color-rendering:auto;image-rendering:auto;shape-rendering:auto;text-rendering:auto;enable-background:accumulate"
       d="m 2.9860473,293.05046 c -0.2070629,0.0673 -0.3220508,0.29314 -0.2547673,0.50023 0.06731,0.20706 0.2931584,0.32205 0.5002478,0.25476 0.2070629,-0.0673 0.3220508,-0.29316 0.2547673,-0.50024 -0.06731,-0.20707 -0.2931584,-0.32206 -0.5002478,-0.25475 z m 0.08165,0.25165 c 0.071093,-0.023 0.1443302,0.0138 0.1674283,0.0848 0.023019,0.0711 -0.014288,0.14433 -0.085249,0.16745 -0.071093,0.023 -0.1438275,-0.0143 -0.1669256,-0.0853 -0.023019,-0.0711 0.013758,-0.14383 0.084746,-0.16693 z"
       id="circle27038"
       inkscape:connector-curvature="0" />
    <path
       style="color:#000000;font-style:normal;font-variant:normal;font-weight:normal;font-stretch:normal;font-size:medium;line-height:normal;font-family:sans-serif;text-indent:0;text-align:start;text-decoration:none;text-decoration-line:none;text-decoration-style:solid;text-decoration-color:#000000;letter-spacing:normal;word-spacing:normal;text-transform:none;direction:ltr;writing-mode:lr-tb;baseline-shift:baseline;text-anchor:start;white-space:normal;clip-rule:nonzero;display:inline;overflow:visible;visibility:visible;opacity:1;isolation:auto;mix-blend-mode:normal;color-interpolation:sRGB;color-interpolation-filters:linearRGB;solid-color:#000000;solid-opacity:1;fill:#000000;fill-opacity:1;fill-rule:nonzero;stroke:none;stroke-width:1;stroke-linecap:round;stroke-linejoin:round;stroke-miterlimit:4;stroke-dasharray:none;stroke-dashoffset:0;stroke-opacity:1;color-rendering:auto;image-rendering:auto;shape-rendering:auto;text-rendering:auto;enable-background:accumulate"
       d="m 2.5178671,289.85633 a 0.1323049,0.13230491 0 0 1 0.063553,0.24599 c -0.4655344,0.28731 -0.8578056,0.67905 -1.1451431,1.14461 a 0.1323049,0.13230491 0 1 1 -0.22479,-0.13898 c 0.3089804,-0.50062 0.7303294,-0.922 1.230921,-1.23095 a 0.1323049,0.13230491 0 0 1 0.075459,-0.0206 z"
       id="path27044"
       inkscape:connector-curvature="0" />
  </g>
</svg>
