<?xml version="1.0" encoding="UTF-8" standalone="no"?>
<!-- Created with Inkscape (http://www.inkscape.org/) -->

<svg
   xmlns:dc="http://purl.org/dc/elements/1.1/"
   xmlns:cc="http://creativecommons.org/ns#"
   xmlns:rdf="http://www.w3.org/1999/02/22-rdf-syntax-ns#"
   xmlns:svg="http://www.w3.org/2000/svg"
   xmlns="http://www.w3.org/2000/svg"
   xmlns:sodipodi="http://sodipodi.sourceforge.net/DTD/sodipodi-0.dtd"
   xmlns:inkscape="http://www.inkscape.org/namespaces/inkscape"
   width="32"
   height="32"
   viewBox="0 0 8.4666665 8.4666669"
   version="1.1"
   id="svg8"
   inkscape:version="0.91 r13725"
   sodipodi:docname="traction-control-indicator-car-dashboard-signal-stability.svg">
  <defs
     id="defs2">
    <inkscape:path-effect
       effect="fillet-chamfer"
       id="path-effect6194-9"
       is_visible="true"
       fillet_chamfer_values="-2.083553,1 | -1.5194253,1 | 0,1"
       method="auto"
       radius="2"
       chamfer_steps="1"
       helper_size="0"
       flexible="false"
       use_knot_distance="false"
       ignore_radius_0="false"
       only_selected="true"
       hide_knots="false" />
    <inkscape:path-effect
       effect="fillet-chamfer"
       id="path-effect6200-3"
       is_visible="true"
       fillet_chamfer_values="0,0 | -2.1346047,1 | -1.3969861,1 | -0.057274208,1 | -0.16666667,1"
       method="auto"
       radius="0.5"
       chamfer_steps="1"
       helper_size="0"
       flexible="false"
       use_knot_distance="false"
       ignore_radius_0="false"
       only_selected="true"
       hide_knots="false" />
    <pattern
       y="0"
       x="0"
       height="6"
       width="6"
       patternUnits="userSpaceOnUse"
       id="EMFhbasepattern" />
    <pattern
       y="0"
       x="0"
       height="6"
       width="6"
       patternUnits="userSpaceOnUse"
       id="EMFhbasepattern-6" />
    <inkscape:path-effect
       effect="fillet-chamfer"
       id="path-effect6795-9"
       is_visible="true"
       fillet_chamfer_values="0,0 | -2,1 | -2,1 | -2,1"
       method="auto"
       radius="2"
       chamfer_steps="1"
       helper_size="0"
       flexible="false"
       use_knot_distance="false"
       ignore_radius_0="false"
       only_selected="true"
       hide_knots="false" />
    <pattern
       y="0"
       x="0"
       height="6"
       width="6"
       patternUnits="userSpaceOnUse"
       id="EMFhbasepattern-4" />
    <pattern
       y="0"
       x="0"
       height="6"
       width="6"
       patternUnits="userSpaceOnUse"
       id="EMFhbasepattern-3" />
    <pattern
       y="0"
       x="0"
       height="6"
       width="6"
       patternUnits="userSpaceOnUse"
       id="EMFhbasepattern-0" />
    <inkscape:path-effect
       effect="fillet-chamfer"
       id="path-effect5842-1-6-2-7"
       is_visible="true"
       fillet_chamfer_values="0,0 | -0.49999733,1 | -0.50000267,1"
       method="auto"
       radius="0.5"
       chamfer_steps="1"
       helper_size="0"
       flexible="false"
       use_knot_distance="false"
       ignore_radius_0="false"
       only_selected="true"
       hide_knots="false" />
    <inkscape:path-effect
       effect="fillet-chamfer"
       id="path-effect9698-1"
       is_visible="true"
       fillet_chamfer_values="0,0 | -0.71730365,1"
       method="auto"
       radius="1"
       chamfer_steps="1"
       helper_size="0"
       flexible="false"
       use_knot_distance="false"
       ignore_radius_0="false"
       only_selected="true"
       hide_knots="false" />
  </defs>
  <sodipodi:namedview
     id="base"
     pagecolor="#ffffff"
     bordercolor="#666666"
     borderopacity="1.0"
     inkscape:pageopacity="0.0"
     inkscape:pageshadow="2"
     inkscape:zoom="11.313708"
     inkscape:cx="1.6343903"
     inkscape:cy="19.616211"
     inkscape:document-units="mm"
     inkscape:current-layer="layer1"
     showgrid="true"
     units="px"
     inkscape:window-width="1366"
     inkscape:window-height="716"
     inkscape:window-x="-8"
     inkscape:window-y="-8"
     inkscape:window-maximized="1">
    <inkscape:grid
       type="xygrid"
       id="grid4726" />
  </sodipodi:namedview>
  <metadata
     id="metadata5">
    <rdf:RDF>
      <cc:Work
         rdf:about="">
        <dc:format>image/svg+xml</dc:format>
        <dc:type
           rdf:resource="http://purl.org/dc/dcmitype/StillImage" />
        <dc:title></dc:title>
      </cc:Work>
    </rdf:RDF>
  </metadata>
  <g
     inkscape:label="Layer 1"
     inkscape:groupmode="layer"
     id="layer1"
     transform="translate(0,-288.53332)">
    <path
       style="color:#000000;font-style:normal;font-variant:normal;font-weight:normal;font-stretch:normal;font-size:medium;line-height:normal;font-family:sans-serif;text-indent:0;text-align:start;text-decoration:none;text-decoration-line:none;text-decoration-style:solid;text-decoration-color:#000000;letter-spacing:normal;word-spacing:normal;text-transform:none;direction:ltr;writing-mode:lr-tb;baseline-shift:baseline;text-anchor:start;white-space:normal;clip-rule:nonzero;display:inline;overflow:visible;visibility:visible;opacity:1;isolation:auto;mix-blend-mode:normal;color-interpolation:sRGB;color-interpolation-filters:linearRGB;solid-color:#000000;solid-opacity:1;fill:#000000;fill-opacity:1;fill-rule:evenodd;stroke:none;stroke-width:1px;stroke-linecap:butt;stroke-linejoin:miter;stroke-miterlimit:4;stroke-dasharray:none;stroke-dashoffset:0;stroke-opacity:1;color-rendering:auto;image-rendering:auto;shape-rendering:auto;text-rendering:auto;enable-background:accumulate"
       d="m 3.2194235,288.79793 c -0.6978914,0 -1.2579085,0.55295 -1.3001625,1.24238 l -0.216535,0.16331 c -0.299085,0.22518 -0.4754298,0.57849 -0.4754298,0.95349 l 0,0.9969 c 0,0.4461 0.3635375,0.8114 0.8087519,0.8114 l 4.3950732,0 c 0.445188,0 0.8082228,-0.3653 0.8082228,-0.8114 l 0,-0.9969 c 0,-0.375 -0.1758421,-0.72831 -0.4749007,-0.95349 l -0.2010304,-0.15143 0,0.0656 c 0,-0.72721 -0.5904706,-1.3199 -1.3156936,-1.3199 z m 0,0.26459 2.0282959,0 c 0.5816865,0 1.0511103,0.47057 1.0511103,1.05531 l 0,0.0662 0.3064404,0.231 c 0.2326481,0.17514 0.3694906,0.44988 0.3694906,0.74212 l 0,0.9969 c 0,0.30363 -0.2419615,0.54677 -0.5436394,0.54677 l -4.3950732,0 c -0.3016779,0 -0.5441686,-0.24314 -0.5441686,-0.54677 l 0,-0.9969 c 0,-0.29224 0.1373452,-0.56698 0.3700198,-0.74212 l 0.3064405,-0.231 0,-0.0662 c 0,-0.58482 0.4693443,-1.05531 1.0510837,-1.05531 z"
       id="path26824"
       inkscape:connector-curvature="0" />
    <path
       style="color:#000000;font-style:normal;font-variant:normal;font-weight:normal;font-stretch:normal;font-size:medium;line-height:normal;font-family:sans-serif;text-indent:0;text-align:start;text-decoration:none;text-decoration-line:none;text-decoration-style:solid;text-decoration-color:#000000;letter-spacing:normal;word-spacing:normal;text-transform:none;direction:ltr;writing-mode:lr-tb;baseline-shift:baseline;text-anchor:start;white-space:normal;clip-rule:nonzero;display:inline;overflow:visible;visibility:visible;opacity:1;isolation:auto;mix-blend-mode:normal;color-interpolation:sRGB;color-interpolation-filters:linearRGB;solid-color:#000000;solid-opacity:1;fill:#000000;fill-opacity:1;fill-rule:evenodd;stroke:none;stroke-width:1px;stroke-linecap:butt;stroke-linejoin:miter;stroke-miterlimit:4;stroke-dasharray:none;stroke-dashoffset:0;stroke-opacity:1;color-rendering:auto;image-rendering:auto;shape-rendering:auto;text-rendering:auto;enable-background:accumulate"
       d="m 1.9089158,290.07751 -0.083714,0.25065 0.3555207,0.1194 c 0.1138237,0.0381 0.2329656,0.0573 0.3529541,0.0573 l 3.3997901,0 c 0.120015,0 0.2391304,-0.0193 0.3529542,-0.0573 l 0.3555471,-0.1194 -0.083714,-0.25065 -0.3560498,0.11886 c -0.086783,0.029 -0.1772708,0.0439 -0.2687373,0.0439 l -3.3997901,0 c -0.09144,0 -0.1824566,-0.0148 -0.2692135,-0.0439 z"
       id="path26826"
       inkscape:connector-curvature="0" />
    <path
       style="color:#000000;font-style:normal;font-variant:normal;font-weight:normal;font-stretch:normal;font-size:medium;line-height:normal;font-family:sans-serif;text-indent:0;text-align:start;text-decoration:none;text-decoration-line:none;text-decoration-style:solid;text-decoration-color:#000000;letter-spacing:normal;word-spacing:normal;text-transform:none;direction:ltr;writing-mode:lr-tb;baseline-shift:baseline;text-anchor:start;white-space:normal;clip-rule:nonzero;display:inline;overflow:visible;visibility:visible;opacity:1;isolation:auto;mix-blend-mode:normal;color-interpolation:sRGB;color-interpolation-filters:linearRGB;solid-color:#000000;solid-opacity:1;fill:#000000;fill-opacity:1;fill-rule:evenodd;stroke:none;stroke-width:1px;stroke-linecap:butt;stroke-linejoin:miter;stroke-miterlimit:4;stroke-dasharray:none;stroke-dashoffset:0;stroke-opacity:1;color-rendering:auto;image-rendering:auto;shape-rendering:auto;text-rendering:auto;enable-background:accumulate"
       d="m 1.2272962,291.64496 c 0,0.44612 0.363564,0.81136 0.8087519,0.81136 l 4.3950732,0 c 0.445188,0 0.8082228,-0.36524 0.8082228,-0.81136 l -0.2645834,0 c 0,0.30367 -0.2419615,0.54676 -0.5436394,0.54676 l -4.3950732,0 c -0.3016779,0 -0.5441686,-0.24312 -0.5441686,-0.54676 z"
       id="path26828"
       inkscape:connector-curvature="0" />
    <path
       style="color:#000000;font-style:normal;font-variant:normal;font-weight:normal;font-stretch:normal;font-size:medium;line-height:normal;font-family:sans-serif;text-indent:0;text-align:start;text-decoration:none;text-decoration-line:none;text-decoration-style:solid;text-decoration-color:#000000;letter-spacing:normal;word-spacing:normal;text-transform:none;direction:ltr;writing-mode:lr-tb;baseline-shift:baseline;text-anchor:start;white-space:normal;clip-rule:nonzero;display:inline;overflow:visible;visibility:visible;opacity:1;isolation:auto;mix-blend-mode:normal;color-interpolation:sRGB;color-interpolation-filters:linearRGB;solid-color:#000000;solid-opacity:1;fill:#000000;fill-opacity:1;fill-rule:evenodd;stroke:none;stroke-width:1px;stroke-linecap:butt;stroke-linejoin:miter;stroke-miterlimit:4;stroke-dasharray:none;stroke-dashoffset:0;stroke-opacity:1;color-rendering:auto;image-rendering:auto;shape-rendering:auto;text-rendering:auto;enable-background:accumulate"
       d="m 1.9037564,292.84497 0,0.67857 c -2.64e-5,0.16496 0.1361546,0.3018 0.3012546,0.3018 l 0.3379788,0 c 0.1651264,0 0.3018102,-0.13684 0.3017837,-0.3018 l 0,-0.67857 -0.2645833,0 0,0.67857 c 0,0.0225 -0.01561,0.0372 -0.0372,0.0372 l -0.3379788,0 c -0.021696,0 -0.036671,-0.0148 -0.036671,-0.0372 l 0,-0.67857 z"
       id="path26830"
       inkscape:connector-curvature="0" />
    <path
       style="color:#000000;font-style:normal;font-variant:normal;font-weight:normal;font-stretch:normal;font-size:medium;line-height:normal;font-family:sans-serif;text-indent:0;text-align:start;text-decoration:none;text-decoration-line:none;text-decoration-style:solid;text-decoration-color:#000000;letter-spacing:normal;word-spacing:normal;text-transform:none;direction:ltr;writing-mode:lr-tb;baseline-shift:baseline;text-anchor:start;white-space:normal;clip-rule:nonzero;display:inline;overflow:visible;visibility:visible;opacity:1;isolation:auto;mix-blend-mode:normal;color-interpolation:sRGB;color-interpolation-filters:linearRGB;solid-color:#000000;solid-opacity:1;fill:#000000;fill-opacity:1;fill-rule:evenodd;stroke:none;stroke-width:1px;stroke-linecap:butt;stroke-linejoin:miter;stroke-miterlimit:4;stroke-dasharray:none;stroke-dashoffset:0;stroke-opacity:1;color-rendering:auto;image-rendering:auto;shape-rendering:auto;text-rendering:auto;enable-background:accumulate"
       d="m 5.6228986,292.84497 0,0.67857 c -2.65e-5,0.16496 0.1361546,0.3018 0.301281,0.3018 l 0.3379523,0 c 0.1651001,0 0.3013076,-0.13684 0.3012811,-0.3018 l 0,-0.67857 -0.2645833,0 0,0.67857 c 0,0.0225 -0.015081,0.0372 -0.036698,0.0372 l -0.3379523,0 c -0.021696,0 -0.036698,-0.0148 -0.036698,-0.0372 l 0,-0.67857 z"
       id="path26832"
       inkscape:connector-curvature="0" />
    <path
       style="color:#000000;font-style:normal;font-variant:normal;font-weight:normal;font-stretch:normal;font-size:medium;line-height:normal;font-family:sans-serif;text-indent:0;text-align:start;text-decoration:none;text-decoration-line:none;text-decoration-style:solid;text-decoration-color:#000000;letter-spacing:normal;word-spacing:normal;text-transform:none;direction:ltr;writing-mode:lr-tb;baseline-shift:baseline;text-anchor:start;white-space:normal;clip-rule:nonzero;display:inline;overflow:visible;visibility:visible;opacity:1;isolation:auto;mix-blend-mode:normal;color-interpolation:sRGB;color-interpolation-filters:linearRGB;solid-color:#000000;solid-opacity:1;fill:#000000;fill-opacity:1;fill-rule:nonzero;stroke:none;stroke-width:1;stroke-linecap:round;stroke-linejoin:round;stroke-miterlimit:4;stroke-dasharray:none;stroke-dashoffset:0;stroke-opacity:1;color-rendering:auto;image-rendering:auto;shape-rendering:auto;text-rendering:auto;enable-background:accumulate"
       d="m 2.3740004,290.91887 c -0.2584715,2e-5 -0.470244,0.21319 -0.470244,0.47184 0,0.25864 0.2117725,0.47181 0.470244,0.47183 0.2584979,0 0.4702704,-0.21316 0.4702704,-0.47183 0,-0.25868 -0.2117725,-0.47184 -0.4702704,-0.47184 z m 0,0.2646 c 0.1149615,0 0.2056871,0.091 0.2056871,0.20724 0,0.11619 -0.090726,0.20723 -0.2056871,0.20723 -0.114935,0 -0.2056606,-0.0911 -0.2056606,-0.20723 0,-0.11621 0.090726,-0.20724 0.2056606,-0.20724 z"
       id="path26834"
       inkscape:connector-curvature="0" />
    <path
       style="color:#000000;font-style:normal;font-variant:normal;font-weight:normal;font-stretch:normal;font-size:medium;line-height:normal;font-family:sans-serif;text-indent:0;text-align:start;text-decoration:none;text-decoration-line:none;text-decoration-style:solid;text-decoration-color:#000000;letter-spacing:normal;word-spacing:normal;text-transform:none;direction:ltr;writing-mode:lr-tb;baseline-shift:baseline;text-anchor:start;white-space:normal;clip-rule:nonzero;display:inline;overflow:visible;visibility:visible;opacity:1;isolation:auto;mix-blend-mode:normal;color-interpolation:sRGB;color-interpolation-filters:linearRGB;solid-color:#000000;solid-opacity:1;fill:#000000;fill-opacity:1;fill-rule:nonzero;stroke:none;stroke-width:1;stroke-linecap:round;stroke-linejoin:round;stroke-miterlimit:4;stroke-dasharray:none;stroke-dashoffset:0;stroke-opacity:1;color-rendering:auto;image-rendering:auto;shape-rendering:auto;text-rendering:auto;enable-background:accumulate"
       d="m 6.093169,290.91887 c -0.2584979,0 -0.4707731,0.21316 -0.4707731,0.47184 0,0.25867 0.2122752,0.47183 0.4707731,0.47183 0.2584715,0 0.470244,-0.21316 0.470244,-0.47183 0,-0.25868 -0.2117725,-0.47184 -0.470244,-0.47184 z m 0,0.2646 c 0.114935,0 0.2056607,0.091 0.2056607,0.20724 0,0.11619 -0.090726,0.20723 -0.2056607,0.20723 -0.1149614,0 -0.2061898,-0.091 -0.2061898,-0.20723 0,-0.11624 0.091228,-0.20724 0.2061898,-0.20724 z"
       id="path26836"
       inkscape:connector-curvature="0" />
    <path
       style="color:#000000;font-style:normal;font-variant:normal;font-weight:normal;font-stretch:normal;font-size:medium;line-height:normal;font-family:sans-serif;text-indent:0;text-align:start;text-decoration:none;text-decoration-line:none;text-decoration-style:solid;text-decoration-color:#000000;letter-spacing:normal;word-spacing:normal;text-transform:none;direction:ltr;writing-mode:lr-tb;baseline-shift:baseline;text-anchor:start;white-space:normal;clip-rule:nonzero;display:inline;overflow:visible;visibility:visible;opacity:1;isolation:auto;mix-blend-mode:normal;color-interpolation:sRGB;color-interpolation-filters:linearRGB;solid-color:#000000;solid-opacity:1;fill:#000000;fill-opacity:1;fill-rule:evenodd;stroke:none;stroke-width:1px;stroke-linecap:butt;stroke-linejoin:round;stroke-miterlimit:4;stroke-dasharray:none;stroke-dashoffset:0;stroke-opacity:1;color-rendering:auto;image-rendering:auto;shape-rendering:auto;text-rendering:auto;enable-background:accumulate"
       d="m 3.3884129,290.91887 a 0.1323049,0.13231381 0 0 0 -0.1286669,0.16435 l 0.168963,0.67852 a 0.1323049,0.13231381 0 0 0 0.1286933,0.1008 l 1.3523648,0 a 0.1323049,0.13231381 0 0 0 0.1281642,-0.1008 l 0.1689894,-0.67852 a 0.1323049,0.13231381 0 0 0 -0.1281642,-0.16435 z m 0.1689894,0.2646 1.3518621,0 -0.1028435,0.41447 -1.1456724,0 z"
       id="path26838"
       inkscape:connector-curvature="0" />
    <path
       style="color:#000000;font-style:normal;font-variant:normal;font-weight:normal;font-stretch:normal;font-size:medium;line-height:normal;font-family:sans-serif;text-indent:0;text-align:start;text-decoration:none;text-decoration-line:none;text-decoration-style:solid;text-decoration-color:#000000;letter-spacing:normal;word-spacing:normal;text-transform:none;direction:ltr;writing-mode:lr-tb;baseline-shift:baseline;text-anchor:start;white-space:normal;clip-rule:nonzero;display:inline;overflow:visible;visibility:visible;opacity:1;isolation:auto;mix-blend-mode:normal;color-interpolation:sRGB;color-interpolation-filters:linearRGB;solid-color:#000000;solid-opacity:1;fill:#000000;fill-opacity:1;fill-rule:evenodd;stroke:none;stroke-width:1px;stroke-linecap:butt;stroke-linejoin:miter;stroke-miterlimit:4;stroke-dasharray:none;stroke-dashoffset:0;stroke-opacity:1;color-rendering:auto;image-rendering:auto;shape-rendering:auto;text-rendering:auto;enable-background:accumulate"
       d="m 1.5291064,289.64649 c -0.2584979,0 -0.4707731,0.21267 -0.4707731,0.47134 l 0,0.17001 c 0,0.16498 0.1361546,0.30182 0.3012546,0.30182 l 0.2501106,0 0,-0.26459 -0.2501106,0 c -0.021696,0 -0.036671,-0.0148 -0.036671,-0.0372 l 0,-0.17001 c 0,-0.11621 0.091228,-0.20671 0.2061898,-0.20671 l 0.5069417,0 0,-0.26463 z"
       id="path26840"
       inkscape:connector-curvature="0" />
    <path
       style="color:#000000;font-style:normal;font-variant:normal;font-weight:normal;font-stretch:normal;font-size:medium;line-height:normal;font-family:sans-serif;text-indent:0;text-align:start;text-decoration:none;text-decoration-line:none;text-decoration-style:solid;text-decoration-color:#000000;letter-spacing:normal;word-spacing:normal;text-transform:none;direction:ltr;writing-mode:lr-tb;baseline-shift:baseline;text-anchor:start;white-space:normal;clip-rule:nonzero;display:inline;overflow:visible;visibility:visible;opacity:1;isolation:auto;mix-blend-mode:normal;color-interpolation:sRGB;color-interpolation-filters:linearRGB;solid-color:#000000;solid-opacity:1;fill:#000000;fill-opacity:1;fill-rule:evenodd;stroke:none;stroke-width:1px;stroke-linecap:butt;stroke-linejoin:miter;stroke-miterlimit:4;stroke-dasharray:none;stroke-dashoffset:0;stroke-opacity:1;color-rendering:auto;image-rendering:auto;shape-rendering:auto;text-rendering:auto;enable-background:accumulate"
       d="m 6.4311213,289.64649 0,0.26463 0.5069417,0 c 0.1149615,0 0.2056871,0.0905 0.2056871,0.20671 l 0,0.17001 c 0,0.0225 -0.015081,0.0372 -0.036698,0.0372 l -0.2718329,0 0,0.26459 0.2718329,0 c 0.1651264,0 0.301281,-0.13686 0.301281,-0.30182 l 0,-0.17001 c 0,-0.25867 -0.2117989,-0.47134 -0.4702704,-0.47134 z"
       id="path26842"
       inkscape:connector-curvature="0" />
    <path
       style="color:#000000;font-style:normal;font-variant:normal;font-weight:normal;font-stretch:normal;font-size:medium;line-height:normal;font-family:sans-serif;text-indent:0;text-align:start;text-decoration:none;text-decoration-line:none;text-decoration-style:solid;text-decoration-color:#000000;letter-spacing:normal;word-spacing:normal;text-transform:none;direction:ltr;writing-mode:lr-tb;baseline-shift:baseline;text-anchor:start;white-space:normal;clip-rule:nonzero;display:inline;overflow:visible;visibility:visible;opacity:1;isolation:auto;mix-blend-mode:normal;color-interpolation:sRGB;color-interpolation-filters:linearRGB;solid-color:#000000;solid-opacity:1;fill:#000000;fill-opacity:1;fill-rule:evenodd;stroke:none;stroke-width:1px;stroke-linecap:round;stroke-linejoin:round;stroke-miterlimit:4;stroke-dasharray:none;stroke-dashoffset:0;stroke-opacity:1;color-rendering:auto;image-rendering:auto;shape-rendering:auto;text-rendering:auto;enable-background:accumulate"
       d="m 2.5026673,294.08993 a 0.1323049,0.13231381 0 0 0 -0.078026,0.23722 l 0.2645834,0.20774 c 0.1494631,0.11755 0.1207294,0.33892 -0.053737,0.41448 l -1.1105356,0.48115 c -0.3883555,0.16829 -0.4529932,0.70651 -0.1157553,0.96227 l 0.7643019,0.57986 a 0.13240377,0.13241268 0 1 0 0.1602052,-0.21086 l -0.7648042,-0.57986 c -0.1858698,-0.14092 -0.1525323,-0.41627 0.061489,-0.50904 l 1.1100065,-0.48062 c 0.3473979,-0.15051 0.4097338,-0.63108 0.1121304,-0.86512 l -0.2640542,-0.20774 a 0.1323049,0.13231381 0 0 0 -0.085804,-0.0295 z"
       id="path26846"
       inkscape:connector-curvature="0" />
    <path
       style="color:#000000;font-style:normal;font-variant:normal;font-weight:normal;font-stretch:normal;font-size:medium;line-height:normal;font-family:sans-serif;text-indent:0;text-align:start;text-decoration:none;text-decoration-line:none;text-decoration-style:solid;text-decoration-color:#000000;letter-spacing:normal;word-spacing:normal;text-transform:none;direction:ltr;writing-mode:lr-tb;baseline-shift:baseline;text-anchor:start;white-space:normal;clip-rule:nonzero;display:inline;overflow:visible;visibility:visible;opacity:1;isolation:auto;mix-blend-mode:normal;color-interpolation:sRGB;color-interpolation-filters:linearRGB;solid-color:#000000;solid-opacity:1;fill:#000000;fill-opacity:1;fill-rule:evenodd;stroke:none;stroke-width:1px;stroke-linecap:round;stroke-linejoin:round;stroke-miterlimit:4;stroke-dasharray:none;stroke-dashoffset:0;stroke-opacity:1;color-rendering:auto;image-rendering:auto;shape-rendering:auto;text-rendering:auto;enable-background:accumulate"
       d="m 5.809959,294.08993 a 0.1323049,0.13231381 0 0 0 -0.078026,0.23722 l 0.2645833,0.20774 c 0.1494632,0.11755 0.1207294,0.33892 -0.053737,0.41448 l -1.1105357,0.48115 c -0.3883554,0.16829 -0.4529931,0.70651 -0.1157552,0.96227 l 0.7643019,0.57986 a 0.13240377,0.13241268 0 1 0 0.1602052,-0.21086 l -0.7648046,-0.57986 c -0.1858698,-0.14092 -0.1525323,-0.41627 0.061489,-0.50904 l 1.1100064,-0.48062 c 0.347398,-0.15051 0.4097338,-0.63108 0.1121305,-0.86512 l -0.2640542,-0.20774 a 0.1323049,0.13231381 0 0 0 -0.085804,-0.0295 z"
       id="path26848"
       inkscape:connector-curvature="0" />
  </g>
</svg>
