<?xml version="1.0" encoding="UTF-8" standalone="no"?>
<!-- Created with Inkscape (http://www.inkscape.org/) -->

<svg
   xmlns:dc="http://purl.org/dc/elements/1.1/"
   xmlns:cc="http://creativecommons.org/ns#"
   xmlns:rdf="http://www.w3.org/1999/02/22-rdf-syntax-ns#"
   xmlns:svg="http://www.w3.org/2000/svg"
   xmlns="http://www.w3.org/2000/svg"
   xmlns:sodipodi="http://sodipodi.sourceforge.net/DTD/sodipodi-0.dtd"
   xmlns:inkscape="http://www.inkscape.org/namespaces/inkscape"
   width="32"
   height="32"
   viewBox="0 0 8.4666665 8.4666669"
   version="1.1"
   id="svg8"
   inkscape:version="0.91 r13725"
   sodipodi:docname="transmission-temprature-warning-signal-light-indicator-shift.svg">
  <defs
     id="defs2">
    <inkscape:path-effect
       effect="fillet-chamfer"
       id="path-effect6194-9"
       is_visible="true"
       fillet_chamfer_values="-2.083553,1 | -1.5194253,1 | 0,1"
       method="auto"
       radius="2"
       chamfer_steps="1"
       helper_size="0"
       flexible="false"
       use_knot_distance="false"
       ignore_radius_0="false"
       only_selected="true"
       hide_knots="false" />
    <inkscape:path-effect
       effect="fillet-chamfer"
       id="path-effect6200-3"
       is_visible="true"
       fillet_chamfer_values="0,0 | -2.1346047,1 | -1.3969861,1 | -0.057274208,1 | -0.16666667,1"
       method="auto"
       radius="0.5"
       chamfer_steps="1"
       helper_size="0"
       flexible="false"
       use_knot_distance="false"
       ignore_radius_0="false"
       only_selected="true"
       hide_knots="false" />
    <pattern
       y="0"
       x="0"
       height="6"
       width="6"
       patternUnits="userSpaceOnUse"
       id="EMFhbasepattern" />
    <pattern
       y="0"
       x="0"
       height="6"
       width="6"
       patternUnits="userSpaceOnUse"
       id="EMFhbasepattern-6" />
    <inkscape:path-effect
       effect="fillet-chamfer"
       id="path-effect6795-9"
       is_visible="true"
       fillet_chamfer_values="0,0 | -2,1 | -2,1 | -2,1"
       method="auto"
       radius="2"
       chamfer_steps="1"
       helper_size="0"
       flexible="false"
       use_knot_distance="false"
       ignore_radius_0="false"
       only_selected="true"
       hide_knots="false" />
    <pattern
       y="0"
       x="0"
       height="6"
       width="6"
       patternUnits="userSpaceOnUse"
       id="EMFhbasepattern-4" />
    <pattern
       y="0"
       x="0"
       height="6"
       width="6"
       patternUnits="userSpaceOnUse"
       id="EMFhbasepattern-3" />
    <pattern
       y="0"
       x="0"
       height="6"
       width="6"
       patternUnits="userSpaceOnUse"
       id="EMFhbasepattern-0" />
    <inkscape:path-effect
       effect="fillet-chamfer"
       id="path-effect5842-1-6-2-7"
       is_visible="true"
       fillet_chamfer_values="0,0 | -0.49999733,1 | -0.50000267,1"
       method="auto"
       radius="0.5"
       chamfer_steps="1"
       helper_size="0"
       flexible="false"
       use_knot_distance="false"
       ignore_radius_0="false"
       only_selected="true"
       hide_knots="false" />
    <inkscape:path-effect
       effect="fillet-chamfer"
       id="path-effect9698-1"
       is_visible="true"
       fillet_chamfer_values="0,0 | -0.71730365,1"
       method="auto"
       radius="1"
       chamfer_steps="1"
       helper_size="0"
       flexible="false"
       use_knot_distance="false"
       ignore_radius_0="false"
       only_selected="true"
       hide_knots="false" />
  </defs>
  <sodipodi:namedview
     id="base"
     pagecolor="#ffffff"
     bordercolor="#666666"
     borderopacity="1.0"
     inkscape:pageopacity="0.0"
     inkscape:pageshadow="2"
     inkscape:zoom="11.313708"
     inkscape:cx="1.6343903"
     inkscape:cy="19.616211"
     inkscape:document-units="mm"
     inkscape:current-layer="layer1"
     showgrid="true"
     units="px"
     inkscape:window-width="1366"
     inkscape:window-height="716"
     inkscape:window-x="-8"
     inkscape:window-y="-8"
     inkscape:window-maximized="1">
    <inkscape:grid
       type="xygrid"
       id="grid4726" />
  </sodipodi:namedview>
  <metadata
     id="metadata5">
    <rdf:RDF>
      <cc:Work
         rdf:about="">
        <dc:format>image/svg+xml</dc:format>
        <dc:type
           rdf:resource="http://purl.org/dc/dcmitype/StillImage" />
        <dc:title></dc:title>
      </cc:Work>
    </rdf:RDF>
  </metadata>
  <g
     inkscape:label="Layer 1"
     inkscape:groupmode="layer"
     id="layer1"
     transform="translate(0,-288.53332)">
    <path
       style="color:#000000;font-style:normal;font-variant:normal;font-weight:normal;font-stretch:normal;font-size:medium;line-height:normal;font-family:sans-serif;text-indent:0;text-align:start;text-decoration:none;text-decoration-line:none;text-decoration-style:solid;text-decoration-color:#000000;letter-spacing:normal;word-spacing:normal;text-transform:none;direction:ltr;writing-mode:lr-tb;baseline-shift:baseline;text-anchor:start;white-space:normal;clip-rule:nonzero;display:inline;overflow:visible;visibility:visible;opacity:1;isolation:auto;mix-blend-mode:normal;color-interpolation:sRGB;color-interpolation-filters:linearRGB;solid-color:#000000;solid-opacity:1;fill:#000000;fill-opacity:1;fill-rule:evenodd;stroke:none;stroke-width:0.59260124px;stroke-linecap:round;stroke-linejoin:round;stroke-miterlimit:4;stroke-dasharray:none;stroke-dashoffset:0;stroke-opacity:1;color-rendering:auto;image-rendering:auto;shape-rendering:auto;text-rendering:auto;enable-background:accumulate"
       d="m 1.8481645,295.62286 a 0.13229697,0.13230883 0 0 0 0.1350297,0.0327 l 0.6597587,-0.21707 c 0.052921,0.0264 0.262571,0.13005 0.4087973,0.19054 l 0,0 c 0.1427168,0.0591 0.3569343,0.13028 0.4131243,0.14922 l 0.3138358,0.61974 a 0.13229697,0.13230883 0 0 0 0.118301,0.0728 l 0.6770253,-1e-5 a 0.13229697,0.13230883 0 0 0 0.118988,-0.0746 l 0.2996691,-0.61912 c 0.055205,-0.02 0.2778518,-0.10067 0.4217543,-0.16033 0.1409581,-0.0584 0.3494455,-0.15663 0.4020071,-0.18129 l 0.6609751,0.21707 a 0.13229697,0.13230883 0 0 0 0.1356415,-0.0321 l 0.4790962,-0.47914 a 0.13229697,0.13230883 0 0 0 0.031453,-0.13751 l -0.2262781,-0.64804 c 0.025877,-0.0536 0.1281851,-0.26437 0.1886723,-0.40821 0.059846,-0.14234 0.1383719,-0.36159 0.1578454,-0.41562 l 0.6202835,-0.31325 a 0.13229697,0.13230883 0 0 0 0.072745,-0.11838 l 6.106e-4,-0.67769 a 0.13229697,0.13230883 0 0 0 -0.074706,-0.11891 l -0.6196992,-0.29905 c -0.02021,-0.0549 -0.099354,-0.27314 -0.1578309,-0.4144 -0.059127,-0.14273 -0.1592095,-0.35668 -0.1837502,-0.40944 l 0.2176623,-0.66167 a 0.13229697,0.13230883 0 0 0 -0.032682,-0.13504 L 6.607404,289.90493 a 0.13229697,0.13230883 0 0 0 -0.1375091,-0.0314 l -0.6486306,0.22567 c -0.053973,-0.0262 -0.2639591,-0.12766 -0.4081785,-0.18746 -0.1443606,-0.0598 -0.3643339,-0.13573 -0.420538,-0.15537 l -0.299032,-0.61855 a 0.13229697,0.13230883 0 0 0 -0.1195196,-0.0753 l -0.6770253,10e-6 a 0.13229697,0.13230883 0 0 0 -0.1183755,0.0727 l -0.3119909,0.61911 c -0.056774,0.018 -0.2839381,0.0888 -0.4353156,0.1517 -0.1437854,0.0598 -0.3384504,0.16225 -0.3927579,0.19053 l -0.6474281,-0.22568 a 0.13229697,0.13230883 0 0 0 -0.1375062,0.0315 l -0.4790963,0.47913 a 0.13229697,0.13230883 0 0 0 -0.032054,0.13566 l 0.2170303,0.65982 c -0.026439,0.0533 -0.1353453,0.27142 -0.1972847,0.42422 -0.056809,0.14014 -0.1218873,0.34487 -0.1406051,0.40331 l -0.61718236,0.29905 a 0.13229697,0.13230883 0 0 0 -0.0746268,0.11903 l -6.1087e-4,0.67769 a 0.13229697,0.13230883 0 0 0 0.0728415,0.11831 l 0.62092713,0.31385 c 0.019305,0.0559 0.093147,0.27046 0.1516837,0.41191 0.060415,0.14624 0.1631055,0.3583 0.1892661,0.41256 l -0.2256507,0.64869 a 0.13229697,0.13230883 0 0 0 0.031436,0.13752 z m 0.1294845,-0.24419 -0.3631708,-0.3632 0.2164315,-0.62097 a 0.13229697,0.13230883 0 0 0 -0.00616,-0.10114 c 0,0 -0.1465474,-0.30423 -0.2065777,-0.44951 -0.058032,-0.14031 -0.16522,-0.44894 -0.16522,-0.44894 a 0.13229697,0.13230883 0 0 0 -0.06524,-0.0753 l -0.59379235,-0.30029 0,-0.51305 0.59194875,-0.28614 a 0.13229697,0.13230883 0 0 0 0.067817,-0.0789 c 0,0 0.098908,-0.30615 0.1535286,-0.44089 0.059241,-0.14617 0.212725,-0.45571 0.212725,-0.45571 a 0.13229697,0.13230883 0 0 0 0.00678,-0.1005 l -0.2077825,-0.63207 0.3631737,-0.36321 0.6208969,0.21645 a 0.13229697,0.13230883 0 0 0 0.1048092,-0.007 c 0,0 0.2899142,-0.15049 0.4248295,-0.20657 0.1415566,-0.0589 0.4667745,-0.16343 0.4667745,-0.16343 a 0.13229697,0.13230883 0 0 0 0.078301,-0.066 l 0.2996571,-0.59444 0.5136183,6.1e-4 0.2860892,0.59199 a 0.13229697,0.13230883 0 0 0 0.075328,0.0665 c 0,0 0.3154569,0.11122 0.4593487,0.17082 0.1440275,0.0597 0.4457893,0.20412 0.4457893,0.20412 a 0.13229697,0.13230883 0 0 0 0.100507,0.006 l 0.6209136,-0.21645 0.3631708,0.3632 -0.2083971,0.63267 a 0.13229697,0.13230883 0 0 0 0.00553,0.0968 c 0,0 0.1406054,0.30176 0.2010159,0.44767 0.059867,0.14461 0.1732822,0.45568 0.1732822,0.45568 a 0.13229697,0.13230883 0 0 0 0.067134,0.0735 l 0.5919329,0.28611 0,0.51305 -0.5944181,0.29971 a 0.13229697,0.13230883 0 0 0 -0.065358,0.074 c 0,0 -0.1115865,0.31033 -0.1713858,0.45259 -0.06075,0.14446 -0.2059565,0.44523 -0.2059565,0.44523 a 0.13229697,0.13230883 0 0 0 -0.00616,0.10113 l 0.2164305,0.62095 -0.3631737,0.3632 -0.6320111,-0.2078 a 0.13229697,0.13230883 0 0 0 -0.097433,0.006 c 0,0 -0.2970589,0.13918 -0.4402385,0.19855 -0.146226,0.0606 -0.4618209,0.17451 -0.4618209,0.17451 a 0.13229697,0.13230883 0 0 0 -0.074605,0.0672 l -0.2854727,0.59259 -0.5136186,-6.2e-4 -0.2996609,-0.59444 a 0.13229697,0.13230883 0 0 0 -0.07659,-0.0652 c 0,0 -0.3095645,-0.10476 -0.4482521,-0.16219 a 0.13229697,0.13230883 0 0 0 -6.4e-4,-10e-4 C 3.0101501,295.32537 2.7101659,295.1776 2.7101659,295.1776 a 0.13229697,0.13230883 0 0 0 -0.099892,-0.007 z"
       id="path28596"
       inkscape:connector-curvature="0" />
    <path
       inkscape:connector-curvature="0"
       id="path28600"
       d="m 3.9682403,291.17943 c -0.2228521,0 -0.4020185,0.18823 -0.4020185,0.41136 l -0.011369,1.95396 0.038755,-0.093 c -0.2059256,0.20553 -0.2059256,0.54328 0,0.74882 0.2058957,0.20556 0.5433679,0.20556 0.7492636,0 0.2059254,-0.20554 0.2059254,-0.54329 0,-0.74882 l 0.038755,0.093 -0.011368,-1.95396 c 0,-0.22313 -0.1791662,-0.41136 -0.4020185,-0.41136 z m 0,0.2646 c 0.075102,0 0.137451,0.062 0.137451,0.14676 l 0.011368,1.95496 a 0.13229697,0.13230883 0 0 0 0.038755,0.093 c 0.1047044,0.10452 0.1047044,0.26965 0,0.37416 -0.1047055,0.10454 -0.2704428,0.10454 -0.3751483,0 -0.1047047,-0.10451 -0.1047047,-0.26964 0,-0.37416 a 0.13229697,0.13230883 0 0 0 0.038755,-0.093 l 0.011369,-1.95496 c 0,-0.0847 0.062349,-0.14676 0.137451,-0.14676 z"
       style="color:#000000;font-style:normal;font-variant:normal;font-weight:normal;font-stretch:normal;font-size:medium;line-height:normal;font-family:sans-serif;text-indent:0;text-align:start;text-decoration:none;text-decoration-line:none;text-decoration-style:solid;text-decoration-color:#000000;letter-spacing:normal;word-spacing:normal;text-transform:none;direction:ltr;writing-mode:lr-tb;baseline-shift:baseline;text-anchor:start;white-space:normal;clip-rule:nonzero;display:inline;overflow:visible;visibility:visible;opacity:1;isolation:auto;mix-blend-mode:normal;color-interpolation:sRGB;color-interpolation-filters:linearRGB;solid-color:#000000;solid-opacity:1;fill:#000000;fill-opacity:1;fill-rule:nonzero;stroke:none;stroke-width:1.00001502;stroke-linecap:round;stroke-linejoin:round;stroke-miterlimit:4;stroke-dasharray:none;stroke-dashoffset:0;stroke-opacity:1;color-rendering:auto;image-rendering:auto;shape-rendering:auto;text-rendering:auto;enable-background:accumulate" />
    <path
       inkscape:connector-curvature="0"
       id="circle28602"
       d="m 4.2328078,290.38566 c -1.3134824,0 -2.3811075,1.06773 -2.3811075,2.38132 0,1.31362 1.0676251,2.38132 2.3811075,2.38132 1.3134824,0 2.3811075,-1.0677 2.3811075,-2.38132 0,-1.31359 -1.0676251,-2.38132 -2.3811075,-2.38132 z m 0,0.26459 c 1.1704995,0 2.11654,0.94613 2.11654,2.11673 0,1.17061 -0.9460405,2.11673 -2.11654,2.11673 -1.1704995,0 -2.11654,-0.94612 -2.11654,-2.11673 0,-1.1706 0.9460405,-2.11673 2.11654,-2.11673 z"
       style="color:#000000;font-style:normal;font-variant:normal;font-weight:normal;font-stretch:normal;font-size:medium;line-height:normal;font-family:sans-serif;text-indent:0;text-align:start;text-decoration:none;text-decoration-line:none;text-decoration-style:solid;text-decoration-color:#000000;letter-spacing:normal;word-spacing:normal;text-transform:none;direction:ltr;writing-mode:lr-tb;baseline-shift:baseline;text-anchor:start;white-space:normal;clip-rule:nonzero;display:inline;overflow:visible;visibility:visible;opacity:1;isolation:auto;mix-blend-mode:normal;color-interpolation:sRGB;color-interpolation-filters:linearRGB;solid-color:#000000;solid-opacity:1;fill:#000000;fill-opacity:1;fill-rule:nonzero;stroke:none;stroke-width:1.00001502;stroke-linecap:round;stroke-linejoin:round;stroke-miterlimit:4;stroke-dasharray:none;stroke-dashoffset:0;stroke-opacity:1;color-rendering:auto;image-rendering:auto;shape-rendering:auto;text-rendering:auto;enable-background:accumulate" />
    <path
       inkscape:connector-curvature="0"
       id="path28604"
       d="m 4.629659,291.57632 0,0.26459 0.529135,0 0,-0.26459 z"
       style="color:#000000;font-style:normal;font-variant:normal;font-weight:normal;font-stretch:normal;font-size:medium;line-height:normal;font-family:sans-serif;text-indent:0;text-align:start;text-decoration:none;text-decoration-line:none;text-decoration-style:solid;text-decoration-color:#000000;letter-spacing:normal;word-spacing:normal;text-transform:none;direction:ltr;writing-mode:lr-tb;baseline-shift:baseline;text-anchor:start;white-space:normal;clip-rule:nonzero;display:inline;overflow:visible;visibility:visible;opacity:1;isolation:auto;mix-blend-mode:normal;color-interpolation:sRGB;color-interpolation-filters:linearRGB;solid-color:#000000;solid-opacity:1;fill:#000000;fill-opacity:1;fill-rule:evenodd;stroke:none;stroke-width:1.00001502px;stroke-linecap:butt;stroke-linejoin:miter;stroke-miterlimit:4;stroke-dasharray:none;stroke-dashoffset:0;stroke-opacity:1;color-rendering:auto;image-rendering:auto;shape-rendering:auto;text-rendering:auto;enable-background:accumulate" />
    <path
       inkscape:connector-curvature="0"
       id="path28606"
       d="m 4.629659,292.1055 0,0.26459 0.529135,0 0,-0.26459 z"
       style="color:#000000;font-style:normal;font-variant:normal;font-weight:normal;font-stretch:normal;font-size:medium;line-height:normal;font-family:sans-serif;text-indent:0;text-align:start;text-decoration:none;text-decoration-line:none;text-decoration-style:solid;text-decoration-color:#000000;letter-spacing:normal;word-spacing:normal;text-transform:none;direction:ltr;writing-mode:lr-tb;baseline-shift:baseline;text-anchor:start;white-space:normal;clip-rule:nonzero;display:inline;overflow:visible;visibility:visible;opacity:1;isolation:auto;mix-blend-mode:normal;color-interpolation:sRGB;color-interpolation-filters:linearRGB;solid-color:#000000;solid-opacity:1;fill:#000000;fill-opacity:1;fill-rule:evenodd;stroke:none;stroke-width:1.00001502px;stroke-linecap:butt;stroke-linejoin:miter;stroke-miterlimit:4;stroke-dasharray:none;stroke-dashoffset:0;stroke-opacity:1;color-rendering:auto;image-rendering:auto;shape-rendering:auto;text-rendering:auto;enable-background:accumulate" />
    <path
       inkscape:connector-curvature="0"
       id="path28608"
       d="m 4.629659,292.63469 0,0.26459 0.529135,0 0,-0.26459 z"
       style="color:#000000;font-style:normal;font-variant:normal;font-weight:normal;font-stretch:normal;font-size:medium;line-height:normal;font-family:sans-serif;text-indent:0;text-align:start;text-decoration:none;text-decoration-line:none;text-decoration-style:solid;text-decoration-color:#000000;letter-spacing:normal;word-spacing:normal;text-transform:none;direction:ltr;writing-mode:lr-tb;baseline-shift:baseline;text-anchor:start;white-space:normal;clip-rule:nonzero;display:inline;overflow:visible;visibility:visible;opacity:1;isolation:auto;mix-blend-mode:normal;color-interpolation:sRGB;color-interpolation-filters:linearRGB;solid-color:#000000;solid-opacity:1;fill:#000000;fill-opacity:1;fill-rule:evenodd;stroke:none;stroke-width:1.00001502px;stroke-linecap:butt;stroke-linejoin:miter;stroke-miterlimit:4;stroke-dasharray:none;stroke-dashoffset:0;stroke-opacity:1;color-rendering:auto;image-rendering:auto;shape-rendering:auto;text-rendering:auto;enable-background:accumulate" />
    <path
       inkscape:connector-curvature="0"
       id="path28610"
       d="m 4.629659,293.16387 0,0.26459 0.529135,0 0,-0.26459 z"
       style="color:#000000;font-style:normal;font-variant:normal;font-weight:normal;font-stretch:normal;font-size:medium;line-height:normal;font-family:sans-serif;text-indent:0;text-align:start;text-decoration:none;text-decoration-line:none;text-decoration-style:solid;text-decoration-color:#000000;letter-spacing:normal;word-spacing:normal;text-transform:none;direction:ltr;writing-mode:lr-tb;baseline-shift:baseline;text-anchor:start;white-space:normal;clip-rule:nonzero;display:inline;overflow:visible;visibility:visible;opacity:1;isolation:auto;mix-blend-mode:normal;color-interpolation:sRGB;color-interpolation-filters:linearRGB;solid-color:#000000;solid-opacity:1;fill:#000000;fill-opacity:1;fill-rule:evenodd;stroke:none;stroke-width:1.00001502px;stroke-linecap:butt;stroke-linejoin:miter;stroke-miterlimit:4;stroke-dasharray:none;stroke-dashoffset:0;stroke-opacity:1;color-rendering:auto;image-rendering:auto;shape-rendering:auto;text-rendering:auto;enable-background:accumulate" />
  </g>
</svg>
