<svg width="17459" height="5434" viewBox="0 0 17459 5434" fill="none" xmlns="http://www.w3.org/2000/svg">
<g clip-path="url(#clip0_601_2)">
<path d="M4143.72 0L3932.21 932.372H2678.71L1911.97 4311.04H486.425L1253.5 932.372H0L211.504 0H4143.72Z" fill="currentColor"/>
<path d="M7693.4 4311.04H6268.2L6656.46 2599.44H5304.79L4916.53 4311.04H3490.99L4469.24 0H5894.78L5520.68 1647.84H6872.35L7246.44 0H8671.65L7693.4 4311.04Z" fill="currentColor"/>
<path d="M12485.5 0C12870.7 0 13086.2 204.42 13018.4 505.99L12268.9 3807.75C12201.4 4107.97 11892.1 4313.74 11507.2 4313.74H8664.56C8279.67 4313.74 8063.79 4109.32 8131.93 3807.75L8881.47 505.99C8948.93 205.769 9257.92 0 9643.15 0H12485.5ZM11479.9 1002.54C11488.7 964.418 11454.9 932.372 11405.7 932.372H10283.4C10263.3 934.183 10244.1 941.769 10228.2 954.216C10212.3 966.662 10200.3 983.441 10193.7 1002.54L9667.44 3320.98C9660.35 3354.72 9695.43 3378.33 9728.16 3378.33H10850.4C10899.7 3378.33 10946.6 3353.03 10953.7 3320.98L11479.9 1002.54Z" fill="currentColor"/>
<path d="M16936.5 0C17273.8 0 17509.9 210.829 17448.9 485.414L17001.2 2458.78C16941.5 2720.54 16604.2 2944.19 16268.2 2944.19H16227.4L16598.5 4311.04H15204.6L14826.5 2944.19H14219.3L13909.3 4311.04H12484.8L13463.4 0H16936.5ZM15917.4 990.055C15918.1 981.87 15917 973.639 15914.3 965.882C15911.6 958.125 15907.4 951.01 15901.8 944.986C15896.2 938.963 15889.4 934.163 15881.9 930.888C15874.4 927.614 15866.3 925.937 15858 925.963H14677.4L14416.7 2075.57H15597.3C15615.5 2074.27 15633 2068.31 15648.2 2058.27C15663.3 2048.22 15675.7 2034.43 15684 2018.23L15917.4 990.055Z" fill="currentColor"/>
<path d="M8112.02 4599.45H8632.18C8663.13 4597.76 8694.01 4603.86 8722 4617.17C8749.99 4630.49 8774.2 4650.61 8792.41 4675.69C8810.64 4702.12 8822.4 4732.48 8826.74 4764.3C8831.08 4796.12 8827.87 4828.51 8817.37 4858.86L8728.99 5174.93C8707.48 5248.02 8662.56 5312.01 8601.15 5357.09C8544.36 5404.95 8472.99 5432.07 8398.75 5434H7875.89C7844.77 5435.73 7813.72 5429.59 7785.6 5416.15C7757.47 5402.7 7733.19 5382.39 7714.99 5357.09C7696.58 5330.94 7684.62 5300.8 7680.11 5269.13C7675.59 5237.47 7678.65 5205.19 7689.02 5174.93L7776.38 4862.23C7797.8 4787.83 7843.08 4722.52 7905.24 4676.36C7963.34 4627.83 8036.33 4600.68 8112.02 4599.45ZM8051.3 4817.03C8037.81 4816.16 8024.48 4820.28 8013.83 4828.62C8003.19 4836.96 7996 4848.92 7993.62 4862.23L7906.25 5174.93C7905 5179.76 7904.84 5184.81 7905.77 5189.71C7906.7 5194.61 7908.71 5199.24 7911.65 5203.27C7914.38 5207.4 7918.08 5210.8 7922.44 5213.15C7926.79 5215.5 7931.66 5216.74 7936.61 5216.76H8458.12C8470.57 5216.22 8482.46 5211.46 8491.85 5203.27C8501.55 5196.1 8508.94 5186.25 8513.1 5174.93L8601.82 4857.51C8603.43 4852.55 8603.78 4847.28 8602.84 4842.15C8601.89 4837.03 8599.69 4832.22 8596.42 4828.16C8593.32 4824.08 8589.28 4820.82 8584.64 4818.64C8579.99 4816.47 8574.9 4815.45 8569.78 4815.68L8051.3 4817.03Z" fill="currentColor"/>
<path d="M9231.95 4907.1H10054.7L9993.97 5124.67H9171.23L9084.87 5434H8867.3L9027.19 4860.54C9048.61 4786.23 9093.75 4720.96 9155.71 4674.68C9213.96 4626.17 9287.04 4599.03 9362.83 4597.77H10140.4L10079.6 4815.34H9302.11C9288.62 4814.47 9275.28 4818.59 9264.64 4826.93C9254 4835.27 9246.81 4847.24 9244.43 4860.54L9231.95 4907.1Z" fill="currentColor"/>
<path d="M10482.8 4907.1H11305.5L11244.8 5124.67H10423.4L10336.7 5434H10119.8L10279.7 4860.54C10301.1 4786.23 10346.2 4720.96 10408.2 4674.68C10466.4 4626.12 10539.5 4598.97 10615.3 4597.77H11392.9L11332.1 4815.34H10552.9C10539.4 4814.47 10526.1 4818.59 10515.4 4826.93C10504.8 4835.27 10497.6 4847.24 10495.2 4860.54L10482.8 4907.1Z" fill="currentColor"/>
<path d="M12093.1 4599.45H12874.1C12905.4 4597.59 12936.7 4603.78 12965 4617.41C12993.3 4631.05 13017.6 4651.69 13035.6 4677.38C13053.6 4704.24 13065.2 4734.9 13069.4 4766.96C13073.6 4799.02 13070.4 4831.63 13059.9 4862.23C13042.9 4920.79 13010.8 4973.85 12966.8 5016.05C12987.3 5065.49 12989.7 5120.54 12973.6 5171.56L12900.4 5434H12683.5L12757 5171.56C12765.4 5140.19 12755.3 5124.67 12726.3 5124.67H12164L12076.3 5434H11858.7L12093.1 4599.45ZM12784.7 4907.1C12798.1 4907.99 12811.5 4903.92 12822.2 4895.66C12832.9 4887.4 12840.2 4875.5 12842.7 4862.23C12851.1 4831.87 12842.7 4817.03 12813.3 4817.03H12250L12224.7 4907.1H12784.7Z" fill="currentColor"/>
<path d="M13606.4 4599.45H14126.6C14157.5 4597.8 14188.4 4603.9 14216.4 4617.22C14244.3 4630.53 14268.5 4650.63 14286.8 4675.69C14305 4702.12 14316.8 4732.48 14321.1 4764.3C14325.4 4796.12 14322.2 4828.51 14311.7 4858.86L14223.4 5174.93C14201.9 5248.02 14156.9 5312.01 14095.5 5357.09C14038.7 5404.95 13967.4 5432.07 13893.1 5434H13369.9C13338.9 5435.7 13307.9 5429.55 13279.8 5416.11C13251.7 5402.66 13227.5 5382.37 13209.4 5357.09C13190.9 5330.94 13179 5300.8 13174.5 5269.13C13170 5237.47 13173 5205.19 13183.4 5174.93L13270.8 4862.23C13292.2 4787.92 13337.3 4722.64 13399.3 4676.36C13457.5 4627.8 13530.6 4600.66 13606.4 4599.45ZM13545.7 4817.03C13532.2 4816.16 13518.8 4820.28 13508.2 4828.62C13497.6 4836.96 13490.4 4848.92 13488 4862.23L13400.6 5174.93C13399.4 5179.76 13399.2 5184.81 13400.1 5189.71C13401.1 5194.61 13403.1 5199.24 13406 5203.27C13408.7 5207.35 13412.4 5210.72 13416.7 5213.07C13421 5215.42 13425.8 5216.69 13430.6 5216.76H13952.5C13964.4 5215.97 13975.7 5211.22 13984.5 5203.27C13994.4 5196.21 14001.9 5186.33 14006.1 5174.93L14094.2 4858.86C14095.9 4853.93 14096.3 4848.67 14095.4 4843.54C14094.5 4838.41 14092.3 4833.59 14089.1 4829.51C14085.9 4825.55 14081.8 4822.37 14077.2 4820.21C14072.6 4818.05 14067.6 4816.96 14062.5 4817.03H13545.7Z" fill="currentColor"/>
<path d="M15270.8 5124.67H14665.6L14578.9 5434H14361.7L14594.8 4599.45H15634.7L15401.6 5434H15184.4L15270.8 5124.67ZM14726.3 4907.1H15331.5L15356.8 4817.03H14751.3L14726.3 4907.1Z" fill="currentColor"/>
<path d="M16725 5174.93C16703.3 5247.95 16658.4 5311.91 16597.1 5357.09C16540.3 5404.9 16469 5432.02 16394.7 5434H15612.5L15845.6 4599.45H16623.1C16654.7 4597.49 16686.3 4603.5 16714.9 4616.94C16743.6 4630.38 16768.4 4650.82 16787 4676.36C16805.6 4703.17 16817.5 4733.97 16821.9 4766.27C16826.3 4798.57 16823.1 4831.44 16812.3 4862.23L16725 5174.93ZM16507.4 5174.93L16594.8 4862.23C16603.2 4831.87 16592.4 4817.03 16561 4817.03H16002.1L15890.4 5216.76H16454.1C16466.6 5216.27 16478.5 5211.51 16487.8 5203.27C16497.1 5196.05 16503.9 5186.16 16507.4 5174.93Z" fill="currentColor"/>
</g>
<defs>
<clipPath id="clip0_601_2">
<rect width="17459" height="5434" fill="white"/>
</clipPath>
</defs>
</svg>
