<svg width="100" height="40" viewBox="0 0 100 40" fill="none" xmlns="http://www.w3.org/2000/svg">
<path d="M82.8913 21.357C82.8105 25.8184 83.7739 28.1813 87.4516 28.1813C91.1232 28.1813 91.6501 24.156 91.6501 21.0929C91.6501 18.0278 90.9534 15.0522 87.0959 15.0522C84.7295 15.0522 82.9822 16.8911 82.8913 21.357ZM75.4511 40V9.80125H82.9822V11.0262C82.9822 12.6602 83.6413 11.9864 84.1722 11.3496C84.2612 11.2432 85.9396 9.18873 89.7196 9.18873C93.4883 9.18873 99.3511 11.8139 99.3511 21.093C99.3511 28.2703 95.8534 33.5213 89.8127 33.5213C86.4841 33.5213 84.5597 32.2107 84.1196 31.6819C83.679 31.1602 83.0672 31.0692 83.0672 31.6819V39.9999H75.4511V40ZM17.2421 0H25.3831V21.357C25.3831 25.0307 23.8057 32.7356 12.5159 32.7356C1.22493 32.7356 0 25.5542 0 21.5308V17.5925H7.87817V21.4419C7.87817 23.805 9.45417 25.9922 12.4284 25.9922C15.404 25.9922 17.2421 24.3299 17.2421 21.5308V0ZM42.4082 18.1174C42.4082 15.9268 41.1853 13.8265 38.3842 13.8265C35.6708 13.8265 34.7072 15.7503 34.7072 18.1174H42.4082ZM37.5992 8.92598C43.9923 8.92598 49.5917 11.3759 49.5917 22.6676H34.4505C34.4505 26.2563 35.9369 27.7447 38.5627 27.7447C41.1892 27.7447 42.0639 25.6424 42.0639 25.6424H49.5061C49.5061 28.8821 45.0414 33.2585 38.3 33.1716C30.5996 33.1716 26.8351 27.482 26.8351 21.6172C26.8351 15.7503 30.159 8.92598 37.5992 8.92598ZM66.6135 18.1174C66.6135 15.9268 65.3891 13.8265 62.5881 13.8265C59.8761 13.8265 58.9104 15.7503 58.9104 18.1174H66.6135ZM61.8044 8.92598C68.1969 8.92598 73.7949 11.3759 73.7949 22.6676H58.6543C58.6543 26.2563 60.1421 27.7447 62.77 27.7447C65.3938 27.7447 66.2698 25.6424 66.2698 25.6424H73.7119C73.7119 28.8821 69.2466 33.2585 62.5072 33.1716C54.8028 33.1716 51.0383 27.482 51.0383 21.6172C51.0383 15.7503 54.3662 8.92598 61.8044 8.92598Z" fill="#231F20"/>
</svg>
