<svg width="213" height="62" viewBox="0 0 213 62" fill="none" xmlns="http://www.w3.org/2000/svg">
<path d="M17.3086 35.9609C17.3086 35.4277 17.1924 34.9561 16.96 34.5459C16.7412 34.1357 16.2764 33.7324 15.5654 33.3359C14.8682 32.9258 13.8018 32.4814 12.3662 32.0029C11.0811 31.5654 9.83008 31.0664 8.61328 30.5059C7.39648 29.9453 6.30273 29.2891 5.33203 28.5371C4.36133 27.7715 3.58887 26.876 3.01465 25.8506C2.44043 24.8115 2.15332 23.6016 2.15332 22.2207C2.15332 20.4707 2.65918 18.9668 3.6709 17.709C4.68262 16.4375 6.06348 15.46 7.81348 14.7764C9.56348 14.0791 11.5527 13.7305 13.7812 13.7305C15.9824 13.7305 17.9238 14.1064 19.6055 14.8584C21.3008 15.5967 22.627 16.6631 23.584 18.0576C24.5547 19.4521 25.04 21.1201 25.04 23.0615H17.3701C17.3701 22.0908 17.0625 21.3047 16.4473 20.7031C15.8457 20.1016 14.9023 19.8008 13.6172 19.8008C12.3594 19.8008 11.4092 20.0537 10.7666 20.5596C10.1377 21.0518 9.82324 21.6396 9.82324 22.3232C9.82324 23.1162 10.3018 23.7725 11.2588 24.292C12.2158 24.8115 13.4668 25.3311 15.0117 25.8506C18.1973 26.876 20.6582 28.1748 22.3945 29.7471C24.1309 31.3057 24.999 33.3633 24.999 35.9199C24.999 38.6543 23.9941 40.7529 21.9844 42.2158C19.9746 43.6787 17.2744 44.4102 13.8838 44.4102C12.3252 44.4102 10.7939 44.2119 9.29004 43.8154C7.7998 43.4189 6.44629 42.8037 5.22949 41.9697C4.02637 41.1357 3.0625 40.0693 2.33789 38.7705C1.62695 37.458 1.27148 35.8926 1.27148 34.0742H8.98242C8.98242 35.7012 9.38574 36.8291 10.1924 37.458C10.999 38.0732 12.2295 38.3809 13.8838 38.3809C15.1416 38.3809 16.0234 38.1348 16.5293 37.6426C17.0488 37.1367 17.3086 36.5762 17.3086 35.9609ZM25.7193 16.1914C25.7193 15.0977 26.0952 14.209 26.8472 13.5254C27.5991 12.8418 28.5767 12.5 29.7798 12.5C30.9966 12.5 31.9741 12.8418 32.7124 13.5254C33.4644 14.209 33.8404 15.0977 33.8404 16.1914C33.8404 17.2715 33.4644 18.1602 32.7124 18.8574C31.9741 19.541 30.9966 19.8828 29.7798 19.8828C28.5767 19.8828 27.5991 19.541 26.8472 18.8574C26.0952 18.1602 25.7193 17.2715 25.7193 16.1914ZM33.5327 44H26.1294V21.8105H33.5327V44ZM34.1914 32.7412C34.1914 30.499 34.5127 28.5303 35.1553 26.835C35.8116 25.126 36.7823 23.793 38.0674 22.8359C39.3526 21.8789 40.9454 21.4004 42.8457 21.4004C43.8301 21.4004 44.7188 21.5918 45.5118 21.9746C46.3047 22.3574 47.0088 22.8975 47.6241 23.5947V12.5H55.0479V44H48.4034L48.0547 41.6621C47.4121 42.5098 46.6534 43.1797 45.7784 43.6719C44.917 44.1641 43.9258 44.4102 42.8047 44.4102C40.918 44.4102 39.3321 43.9248 38.0469 42.9541C36.7754 41.9697 35.8116 40.6299 35.1553 38.9346C34.5127 37.2393 34.1914 35.3184 34.1914 33.1719V32.7412ZM41.5743 33.1719C41.5743 34.6621 41.7862 35.9199 42.21 36.9453C42.6475 37.957 43.4815 38.4629 44.712 38.4629C46.0655 38.4629 47.0362 37.9365 47.6241 36.8838V28.9473C47.0635 27.8809 46.1065 27.3477 44.753 27.3477C43.5498 27.3477 42.7159 27.8535 42.251 28.8652C41.7998 29.877 41.5743 31.1689 41.5743 32.7412V33.1719ZM51.1514 32.9668C51.1514 33.0078 51.1446 33.0488 51.1309 33.0898L51.1514 33.2129V32.9668ZM67.2115 44.4102C64.7505 44.4102 62.6519 43.9111 60.9156 42.9131C59.1929 41.915 57.8804 40.6025 56.9781 38.9756C56.0757 37.335 55.6246 35.5645 55.6246 33.6641V32.9053C55.6246 30.7861 56.0211 28.8584 56.814 27.1221C57.607 25.3721 58.8033 23.9844 60.4029 22.959C62.0025 21.9199 64.0123 21.4004 66.4322 21.4004C69.6451 21.4004 72.147 22.3779 73.938 24.333C75.7427 26.2744 76.6451 28.9473 76.6451 32.3516V35.4482H63.2535C63.5406 36.3916 64.067 37.1299 64.8326 37.6631C65.5982 38.1826 66.5552 38.4424 67.7037 38.4424C68.606 38.4424 69.5084 38.2852 70.4107 37.9707C71.3267 37.6562 72.0992 37.1025 72.7281 36.3096L76.0504 40.5547C75.3668 41.5117 74.2593 42.3936 72.7281 43.2002C71.2105 44.0068 69.3716 44.4102 67.2115 44.4102ZM66.3707 27.3477C65.3179 27.3477 64.5523 27.6689 64.0738 28.3115C63.5953 28.9541 63.2877 29.7539 63.1509 30.7109H69.4263V30.1162C69.4537 29.1455 69.2007 28.4414 68.6675 28.0039C68.1343 27.5664 67.3687 27.3477 66.3707 27.3477ZM108.478 35.0791C108.478 41.0264 104.684 44 97.0963 44H84.9967V14.1406H95.9479C99.6939 14.1406 102.62 14.8311 104.725 16.2119C106.844 17.5791 107.904 19.6641 107.904 22.4668C107.904 23.793 107.603 25.0371 107.002 26.1992C106.4 27.3477 105.347 28.2227 103.843 28.8242C105.566 29.2754 106.769 30.1094 107.453 31.3262C108.136 32.5293 108.478 33.7803 108.478 35.0791ZM95.9479 20.3545H92.7076V26.4453H95.8863C97.4859 26.4453 98.607 26.2061 99.2496 25.7275C99.8922 25.2354 100.213 24.5039 100.213 23.5332C100.213 22.3848 99.8785 21.5713 99.2086 21.0928C98.5387 20.6006 97.4518 20.3545 95.9479 20.3545ZM100.808 34.9561C100.808 33.917 100.548 33.1035 100.029 32.5156C99.523 31.9277 98.6412 31.6338 97.3834 31.6338H92.7076V37.8066H97.0963C98.4771 37.8066 99.441 37.5195 99.9879 36.9453C100.535 36.3711 100.808 35.708 100.808 34.9561ZM121.872 21.8105H129.788L120.949 47.2607C120.758 47.8213 120.498 48.4297 120.17 49.0859C119.842 49.7422 119.398 50.3643 118.837 50.9521C118.29 51.54 117.579 52.0186 116.704 52.3877C115.843 52.7705 114.77 52.9619 113.484 52.9619C113.02 52.9619 112.651 52.9482 112.377 52.9209C112.104 52.9072 111.837 52.8662 111.577 52.7979C111.317 52.7295 110.969 52.6406 110.531 52.5312V47.0352C110.695 47.0352 110.832 47.0283 110.942 47.0146C111.065 47.0146 111.208 47.0146 111.372 47.0146C112.466 47.0146 113.232 46.8779 113.669 46.6045C114.12 46.3447 114.435 45.9824 114.612 45.5176L115.105 44.2461L107.455 21.8105H115.371L118.529 33.418L121.872 21.8105ZM152.352 35.9609C152.352 35.4277 152.236 34.9561 152.003 34.5459C151.784 34.1357 151.319 33.7324 150.609 33.3359C149.911 32.9258 148.845 32.4814 147.409 32.0029C146.124 31.5654 144.873 31.0664 143.656 30.5059C142.44 29.9453 141.346 29.2891 140.375 28.5371C139.404 27.7715 138.632 26.876 138.058 25.8506C137.484 24.8115 137.196 23.6016 137.196 22.2207C137.196 20.4707 137.702 18.9668 138.714 17.709C139.726 16.4375 141.107 15.46 142.857 14.7764C144.607 14.0791 146.596 13.7305 148.824 13.7305C151.026 13.7305 152.967 14.1064 154.649 14.8584C156.344 15.5967 157.67 16.6631 158.627 18.0576C159.598 19.4521 160.083 21.1201 160.083 23.0615H152.413C152.413 22.0908 152.106 21.3047 151.49 20.7031C150.889 20.1016 149.945 19.8008 148.66 19.8008C147.402 19.8008 146.452 20.0537 145.81 20.5596C145.181 21.0518 144.866 21.6396 144.866 22.3232C144.866 23.1162 145.345 23.7725 146.302 24.292C147.259 24.8115 148.51 25.3311 150.055 25.8506C153.24 26.876 155.701 28.1748 157.438 29.7471C159.174 31.3057 160.042 33.3633 160.042 35.9199C160.042 38.6543 159.037 40.7529 157.027 42.2158C155.018 43.6787 152.318 44.4102 148.927 44.4102C147.368 44.4102 145.837 44.2119 144.333 43.8154C142.843 43.4189 141.489 42.8037 140.273 41.9697C139.069 41.1357 138.106 40.0693 137.381 38.7705C136.67 37.458 136.315 35.8926 136.315 34.0742H144.026C144.026 35.7012 144.429 36.8291 145.236 37.458C146.042 38.0732 147.273 38.3809 148.927 38.3809C150.185 38.3809 151.067 38.1348 151.572 37.6426C152.092 37.1367 152.352 36.5762 152.352 35.9609ZM160.762 16.1914C160.762 15.0977 161.138 14.209 161.89 13.5254C162.642 12.8418 163.62 12.5 164.823 12.5C166.04 12.5 167.017 12.8418 167.756 13.5254C168.508 14.209 168.883 15.0977 168.883 16.1914C168.883 17.2715 168.508 18.1602 167.756 18.8574C167.017 19.541 166.04 19.8828 164.823 19.8828C163.62 19.8828 162.642 19.541 161.89 18.8574C161.138 18.1602 160.762 17.2715 160.762 16.1914ZM168.576 44H161.173V21.8105H168.576V44ZM169.235 32.7412C169.235 30.499 169.556 28.5303 170.198 26.835C170.855 25.126 171.825 23.793 173.111 22.8359C174.396 21.8789 175.988 21.4004 177.889 21.4004C178.873 21.4004 179.762 21.5918 180.555 21.9746C181.348 22.3574 182.052 22.8975 182.667 23.5947V12.5H190.091V44H183.446L183.098 41.6621C182.455 42.5098 181.696 43.1797 180.821 43.6719C179.96 44.1641 178.969 44.4102 177.848 44.4102C175.961 44.4102 174.375 43.9248 173.09 42.9541C171.819 41.9697 170.855 40.6299 170.198 38.9346C169.556 37.2393 169.235 35.3184 169.235 33.1719V32.7412ZM176.617 33.1719C176.617 34.6621 176.829 35.9199 177.253 36.9453C177.691 37.957 178.525 38.4629 179.755 38.4629C181.109 38.4629 182.079 37.9365 182.667 36.8838V28.9473C182.107 27.8809 181.15 27.3477 179.796 27.3477C178.593 27.3477 177.759 27.8535 177.294 28.8652C176.843 29.877 176.617 31.1689 176.617 32.7412V33.1719ZM186.195 32.9668C186.195 33.0078 186.188 33.0488 186.174 33.0898L186.195 33.2129V32.9668ZM202.255 44.4102C199.794 44.4102 197.695 43.9111 195.959 42.9131C194.236 41.915 192.924 40.6025 192.021 38.9756C191.119 37.335 190.668 35.5645 190.668 33.6641V32.9053C190.668 30.7861 191.064 28.8584 191.857 27.1221C192.65 25.3721 193.846 23.9844 195.446 22.959C197.046 21.9199 199.055 21.4004 201.475 21.4004C204.688 21.4004 207.19 22.3779 208.981 24.333C210.786 26.2744 211.688 28.9473 211.688 32.3516V35.4482H198.297C198.584 36.3916 199.11 37.1299 199.876 37.6631C200.641 38.1826 201.598 38.4424 202.747 38.4424C203.649 38.4424 204.551 38.2852 205.454 37.9707C206.37 37.6562 207.142 37.1025 207.771 36.3096L211.093 40.5547C210.41 41.5117 209.302 42.3936 207.771 43.2002C206.254 44.0068 204.415 44.4102 202.255 44.4102ZM201.414 27.3477C200.361 27.3477 199.595 27.6689 199.117 28.3115C198.638 28.9541 198.331 29.7539 198.194 30.7109H204.469V30.1162C204.497 29.1455 204.244 28.4414 203.711 28.0039C203.177 27.5664 202.412 27.3477 201.414 27.3477Z" fill="black"/>
</svg>
