<svg viewBox="0 0 100 100" fill="none" xmlns="http://www.w3.org/2000/svg">
<path fill-rule="evenodd" clip-rule="evenodd" d="M49.9989 6.24951C45.6717 6.24951 41.3445 6.77274 37.1151 7.83042L30.8717 9.3933C30.5848 9.46492 30.324 9.61619 30.1198 9.83016C29.9156 10.0441 29.7763 10.3118 29.7181 10.6019L28.6378 15.9919C28.2947 17.7076 28.1254 19.4543 28.1254 21.2043V87.4993C28.1254 90.9334 30.9417 93.7498 34.375 93.7498H65.6229C69.0561 93.7498 71.8722 90.9334 71.8725 87.4993V21.2043C71.8725 19.4543 71.6975 17.7076 71.3535 15.9919L70.2795 10.6019C70.2213 10.3119 70.0821 10.0445 69.8779 9.83052C69.6737 9.61655 69.413 9.46497 69.1261 9.3933L62.8825 7.83042C58.6531 6.77215 54.3258 6.24951 49.9989 6.24951H49.9989ZM49.9989 9.37492C54.0715 9.37492 58.145 9.86848 62.1256 10.8639L67.4109 12.1889L68.2899 16.6022C68.593 18.1162 68.7477 19.6599 68.7477 21.2043V87.4993C68.7474 89.2446 67.3668 90.6247 65.6229 90.6247H34.3749C32.6307 90.6247 31.2501 89.2446 31.2501 87.4993V21.2043C31.2501 19.6599 31.4064 18.1162 31.7076 16.6022L32.5866 12.1889L37.8719 10.8639C41.8526 9.86824 45.9264 9.37492 49.9989 9.37492H49.9989Z" fill="currentColor"/>
<path fill-rule="evenodd" clip-rule="evenodd" d="M50.0652 23.438C45.698 23.438 41.3086 23.8135 36.9011 24.6037C35.2746 24.8942 34.1991 26.4033 34.3987 28.0214L35.8024 39.2644C35.8304 39.4793 35.9027 39.6859 36.0149 39.8713C36.1271 40.0568 36.2766 40.2168 36.4539 40.3414C36.6313 40.4659 36.8326 40.5522 37.0451 40.5948C37.2576 40.6373 37.4766 40.6353 37.6882 40.5886C45.8255 38.7924 54.0062 38.7299 62.3022 40.5886C62.5148 40.6362 62.7349 40.6387 62.9484 40.5962C63.162 40.5537 63.3644 40.467 63.5425 40.3417C63.7206 40.2164 63.8706 40.0555 63.9828 39.8688C64.095 39.6822 64.1669 39.474 64.194 39.2579L65.5977 28.0034C65.8008 26.3896 64.7187 24.8919 63.1016 24.6037C58.7812 23.8407 54.4328 23.4451 50.0652 23.438V23.438ZM50.0652 26.5627C54.2246 26.5627 58.37 26.9491 62.4972 27.6743L61.2889 37.3482C53.7006 35.8754 46.1674 35.9158 38.7194 37.3482L37.511 27.6743C41.7198 26.9231 45.8996 26.5568 50.0652 26.5627V26.5627Z" fill="currentColor"/>
<path fill-rule="evenodd" clip-rule="evenodd" d="M37.5067 67.188C37.1353 67.1875 36.776 67.3192 36.493 67.5596C36.21 67.8001 36.0219 68.1334 35.9624 68.5L34.4122 78.0157C34.4114 78.0433 34.4114 78.0707 34.4122 78.0983C34.2309 79.723 35.2934 81.2022 36.9145 81.5225C45.8158 83.2809 54.3987 83.2187 63.1212 81.5225C64.7305 81.2048 65.8014 79.7378 65.6173 78.1166C65.6179 78.093 65.6179 78.0693 65.6173 78.0456L64.0671 68.5058C64.0076 68.1393 63.8196 67.8058 63.5366 67.5654C63.2537 67.3249 62.8944 67.193 62.5232 67.1934L37.5067 67.188ZM38.8369 70.313H61.1745L62.505 78.4551C54.1453 80.0736 46.0224 80.1364 37.5126 78.4551C37.5688 78.4551 37.5123 78.3842 37.5126 78.4551L38.8369 70.313Z" fill="currentColor"/>
<path fill-rule="evenodd" clip-rule="evenodd" d="M30.9152 38.0923L28.4738 40.039L33.3563 46.1428C34.0216 46.9743 34.3819 48.0075 34.3819 49.0725V59.9121C34.3819 61.1558 33.8878 62.3467 33.0085 63.2264L28.5897 67.6454L30.7993 69.8611L35.2177 65.4359C36.6823 63.9711 37.5067 61.9833 37.5067 59.9121V49.0725C37.5063 47.2987 36.8995 45.5749 35.7915 44.1899L30.9152 38.0923Z" fill="currentColor"/>
<path fill-rule="evenodd" clip-rule="evenodd" d="M29.6775 53.125C29.4707 53.125 29.2659 53.1661 29.0751 53.2458C28.8842 53.3255 28.7111 53.4422 28.5657 53.5893L17.6457 64.5158C17.3528 64.8098 17.1887 65.2084 17.1893 65.6234C17.19 66.0385 17.3554 66.4362 17.6493 66.7293C17.9431 67.0224 18.3413 67.1867 18.7563 67.1863C19.1713 67.1859 19.5692 67.0208 19.8625 66.7271L30.3249 56.2519H35.913C36.1202 56.2549 36.326 56.2167 36.5183 56.1394C36.7106 56.0622 36.8856 55.9475 37.0332 55.8021C37.1808 55.6566 37.2981 55.4832 37.3781 55.292C37.4581 55.1008 37.4993 54.8955 37.4993 54.6883C37.4993 54.481 37.4581 54.2757 37.3781 54.0845C37.2981 53.8933 37.1808 53.72 37.0332 53.5745C36.8856 53.429 36.7106 53.3144 36.5183 53.2371C36.326 53.1599 36.1202 53.1217 35.913 53.1247L29.6775 53.125Z" fill="currentColor"/>
<path fill-rule="evenodd" clip-rule="evenodd" d="M29.6437 37.5007C29.2383 37.5121 28.8531 37.6806 28.5697 37.9707L17.6695 48.8738C17.5192 49.0176 17.3992 49.1901 17.3164 49.3809C17.2337 49.5718 17.1899 49.777 17.1876 49.985C17.1853 50.193 17.2246 50.3994 17.3032 50.592C17.3818 50.7846 17.498 50.9597 17.6451 51.1067C17.7923 51.2538 17.9673 51.3702 18.1599 51.4488C18.3526 51.5274 18.559 51.5664 18.7671 51.5641C18.9751 51.5619 19.1806 51.5182 19.3715 51.4355C19.5624 51.3527 19.7349 51.2328 19.8787 51.0826L30.779 40.1792C31.0035 39.9596 31.1566 39.6775 31.2184 39.3696C31.2801 39.0617 31.2475 38.7421 31.125 38.453C31.0024 38.1639 30.7955 37.9185 30.5313 37.7487C30.267 37.5789 29.9577 37.4925 29.6437 37.5011L29.6437 37.5007Z" fill="currentColor"/>
<path fill-rule="evenodd" clip-rule="evenodd" d="M69.0961 38.1045L64.2136 44.2079C63.1056 45.5928 62.505 47.3109 62.505 49.0847V59.9308C62.505 62.002 63.329 63.9896 64.7936 65.4542L69.2121 69.8733L71.4216 67.6638L67.0028 63.2447C66.1235 62.3648 65.6298 61.1745 65.6298 59.9308V49.0847C65.6298 48.0205 65.9898 46.9926 66.655 46.1611L71.5375 40.0574L69.0961 38.1045Z" fill="currentColor"/>
<path fill-rule="evenodd" clip-rule="evenodd" d="M64.0725 53.1255C63.8668 53.1243 63.6629 53.1635 63.4726 53.2412C63.2822 53.3189 63.1092 53.4335 62.9633 53.5782C62.8174 53.723 62.7017 53.8951 62.6227 54.0847C62.5437 54.2742 62.5031 54.4773 62.5031 54.6826C62.5031 54.8879 62.5437 55.0914 62.6227 55.281C62.7017 55.4705 62.8174 55.6427 62.9633 55.7874C63.1092 55.9321 63.2822 56.0464 63.4726 56.124C63.6629 56.2017 63.8668 56.2414 64.0725 56.2401H69.6471L80.0836 66.6649C80.2247 66.8232 80.3967 66.9512 80.5891 67.0408C80.7815 67.1305 80.9902 67.1801 81.2024 67.1864C81.4146 67.1928 81.6259 67.1556 81.8233 67.0776C82.0207 66.9995 82.2001 66.8823 82.3504 66.7326C82.5007 66.583 82.6189 66.404 82.6976 66.2071C82.7763 66.0103 82.814 65.7997 82.8082 65.5879C82.8025 65.376 82.7535 65.1674 82.6642 64.9751C82.575 64.7828 82.4473 64.6107 82.2891 64.4694L71.3954 53.5818C71.103 53.29 70.7065 53.126 70.293 53.1259L64.0725 53.1255Z" fill="currentColor"/>
<path fill-rule="evenodd" clip-rule="evenodd" d="M70.312 37.5C70.0004 37.5 69.696 37.5933 69.4376 37.7674C69.1793 37.9416 68.9789 38.1887 68.862 38.4775C68.7451 38.7663 68.7172 39.0836 68.7817 39.3884C68.8463 39.6931 69.0004 39.9715 69.2243 40.1882L80.1373 51.1057C80.2828 51.2515 80.4557 51.3674 80.646 51.4463C80.8363 51.5252 81.0404 51.5656 81.2464 51.5656C81.4525 51.5656 81.6565 51.5249 81.8468 51.4459C82.0371 51.3669 82.2099 51.2512 82.3554 51.1053C82.5009 50.9594 82.6161 50.7861 82.6945 50.5956C82.773 50.4051 82.813 50.2012 82.8125 49.9951C82.8119 49.7891 82.7706 49.5851 82.6911 49.395C82.6116 49.205 82.4953 49.0326 82.349 48.8875L71.436 37.9765C71.2901 37.8259 71.1154 37.7061 70.9223 37.6244C70.7292 37.5426 70.5217 37.5007 70.312 37.5007L70.312 37.5Z" fill="currentColor"/>
</svg>
