<svg viewBox="0 0 100 100" fill="none" xmlns="http://www.w3.org/2000/svg">
<path fill-rule="evenodd" clip-rule="evenodd" d="M27.0203 12.5L4.6875 34.8392L25.9033 56.0546L27.0081 54.9505L30.3894 51.5692C32.2068 49.7517 32.2069 46.7581 30.3894 44.9407L30.3588 44.9053H30.3526L37.0847 38.1733L37.1153 38.2087H37.1275C38.945 40.0263 41.9384 40.0263 43.7559 38.2087L48.242 33.7226L27.0203 12.5ZM27.0203 16.9252L43.8232 33.7219L41.5466 35.9988C40.9233 36.6224 39.9605 36.6224 39.3372 35.9988L39.3005 35.9635H39.2943C38.0868 34.7562 36.0825 34.7559 34.8753 35.9635L28.1432 42.6955C26.9359 43.9027 26.9358 45.9069 28.1432 47.1141L28.1736 47.1498H28.1797C28.803 47.7734 28.803 48.7358 28.1797 49.359L25.9031 51.6359L9.10626 34.8392L27.0203 16.9252Z" fill="currentColor"/>
<path fill-rule="evenodd" clip-rule="evenodd" d="M30.3894 18.0786L10.2661 38.208L12.4756 40.4171L32.5989 20.2878L30.3894 18.0786Z" fill="currentColor"/>
<path fill-rule="evenodd" clip-rule="evenodd" d="M64.9475 64.0258L56.2073 72.7658V81.8847L56.665 82.3417L64.9475 90.6243H74.0723L82.8125 81.8843V72.7654L74.0723 64.0254L64.9475 64.0258ZM66.2415 67.1508H72.7783L79.6875 74.0598V80.5907L72.7783 87.4997H66.2415L59.3323 80.5907V74.0598L66.2415 67.1508Z" fill="currentColor"/>
<path d="M64.4914 72.3095C61.733 75.0679 61.7374 79.5854 64.4958 82.3439C67.2542 85.1023 71.7674 85.1023 74.5258 82.3439C77.2841 79.5854 77.2885 75.0679 74.5302 72.3095C71.7718 69.5511 67.2499 69.5511 64.4915 72.3095H64.4914ZM66.7011 74.519C68.2653 72.955 70.7562 72.955 72.3203 74.519C73.8845 76.083 73.8802 78.5696 72.316 80.134C70.7518 81.6981 68.2695 81.6981 66.7054 80.134C65.1412 78.5696 65.1369 76.083 66.701 74.519H66.7011Z" fill="currentColor"/>
<path fill-rule="evenodd" clip-rule="evenodd" d="M72.9797 12.5L51.7578 33.7219L56.2439 38.2083C58.0614 40.0259 61.0548 40.0259 62.8723 38.2083H62.8845L62.9151 38.1726L69.6473 44.905H69.641L69.6104 44.9403C67.7929 46.7578 67.793 49.7514 69.6104 51.5689L74.0965 56.0546L75.2012 54.9502L95.3125 34.8396L72.9797 12.5ZM72.9797 16.9252L90.8936 34.8392L74.0967 51.6359L71.8201 49.3593C71.1968 48.7357 71.1968 47.7732 71.8201 47.1498H71.8263L71.8569 47.1145C73.0643 45.9073 73.0642 43.903 71.8569 42.6958L65.1247 35.9635C63.9176 34.7559 61.9132 34.7562 60.7058 35.9635H60.6995L60.6629 35.9988C60.0396 36.6224 59.0767 36.6224 58.4534 35.9988L56.1768 33.7222L72.9797 16.9252Z" fill="currentColor"/>
<path fill-rule="evenodd" clip-rule="evenodd" d="M68.5181 41.5591L39.447 70.63L41.6565 72.8391L70.7275 43.7682L68.5181 41.5591Z" fill="currentColor"/>
<path fill-rule="evenodd" clip-rule="evenodd" d="M64.0442 37.085L34.9731 66.1558L37.1826 68.3657L66.2537 39.2941L64.0442 37.085Z" fill="currentColor"/>
<path fill-rule="evenodd" clip-rule="evenodd" d="M69.6106 18.0786L67.4011 20.2878L87.5244 40.4171L89.7339 38.208L69.6106 18.0786Z" fill="currentColor"/>
<path fill-rule="evenodd" clip-rule="evenodd" d="M25.9277 64.0259L17.1875 72.7659V81.8848L25.9277 90.6248H35.0525L43.7927 81.8848V81.2374V72.7659L35.0525 64.0259H25.9277ZM27.2217 67.1509H33.7585L40.6677 74.0599V80.5908L33.7585 87.4998H27.2217L20.3125 80.5908V74.0599L27.2217 67.1509Z" fill="currentColor"/>
<path d="M35.5062 72.3093C38.2646 75.0677 38.2689 79.5852 35.5106 82.3437C32.7522 85.1021 28.2303 85.1021 25.472 82.3437C22.7136 79.5852 22.7136 75.0634 25.472 72.305C28.2303 69.5465 32.7479 69.551 35.5063 72.305L35.5062 72.3093ZM33.2965 74.5188C31.7324 72.9548 29.2458 72.9504 27.6816 74.5188C26.1175 76.0828 26.1175 78.5738 27.6816 80.1381C29.2458 81.7023 31.7367 81.7023 33.3008 80.1381C34.865 78.5738 34.8607 76.0871 33.2965 74.5231L33.2965 74.5188Z" fill="currentColor"/>
<path fill-rule="evenodd" clip-rule="evenodd" d="M35.9558 37.085L33.7463 39.2941L48.8953 54.4432L51.1047 52.2341L35.9558 37.085Z" fill="currentColor"/>
<path fill-rule="evenodd" clip-rule="evenodd" d="M31.4819 41.5591L29.2725 43.7682L44.4214 58.917L46.6309 56.7078L31.4819 41.5591Z" fill="currentColor"/>
<path fill-rule="evenodd" clip-rule="evenodd" d="M51.1047 61.1816L48.8953 63.3912L58.3435 72.8391L60.553 70.63L51.1047 61.1816Z" fill="currentColor"/>
<path fill-rule="evenodd" clip-rule="evenodd" d="M55.5786 56.708L53.3691 58.9172L62.8174 68.3658L65.0269 66.156L55.5786 56.708Z" fill="currentColor"/>
</svg>
