<svg viewBox="0 0 100 100" fill="none" xmlns="http://www.w3.org/2000/svg">
<path d="M50.5585 6.25617C49.1 6.2384 47.6415 6.29368 46.1885 6.42162C40.4652 6.92204 34.8965 8.54488 29.8003 11.1975C24.7042 13.8501 20.1804 17.4805 16.4874 21.8814C12.7943 26.2824 10.0043 31.3678 8.27653 36.847C6.5488 42.3263 5.91724 48.092 6.4179 53.8153C7.43014 65.373 12.992 76.0555 21.88 83.5126C30.768 90.9698 42.2541 94.5911 53.812 93.5798C59.5353 93.0793 65.104 91.4562 70.2001 88.8036C75.2962 86.1509 79.8199 82.5206 83.5129 78.1197C87.2059 73.7187 89.996 68.6336 91.7237 63.1544C93.4514 57.6752 94.0829 51.9091 93.5823 46.1858C92.6365 35.381 87.7108 25.313 79.7609 17.9349C71.811 10.5568 61.4037 6.39469 50.5585 6.25653V6.25617ZM49.9973 26.5629C53.0751 26.5629 56.1229 27.1692 58.9664 28.3471C61.81 29.5249 64.3937 31.2511 66.5701 33.4275C68.7465 35.6039 70.4729 38.1879 71.6507 41.0314C72.8286 43.875 73.4348 46.9225 73.4348 50.0004C73.4348 56.2164 70.9654 62.1778 66.5701 66.5732C62.1747 70.9686 56.2133 73.4379 49.9973 73.4379C43.7813 73.4379 37.8199 70.9686 33.4245 66.5732C29.0291 62.1778 26.5598 56.2164 26.5598 50.0004C26.5598 46.9225 27.166 43.875 28.3438 41.0314C29.5217 38.1879 31.2481 35.6039 33.4244 33.4275C35.6008 31.2511 38.1845 29.5249 41.0281 28.3471C43.8717 27.1692 46.9194 26.5629 49.9973 26.5629V26.5629Z" fill="currentColor"/>
<path d="M42.4165 30.9696L42.7337 32.8738C43.2443 35.945 42.5493 37.6632 41.5559 38.3854C40.5618 39.107 38.7165 39.2405 35.9528 37.8054C35.3775 37.5054 34.8012 37.2079 34.2256 36.9079C36.3956 34.2953 39.2071 32.2454 42.4165 30.9692L42.4165 30.9696Z" fill="currentColor"/>
<path d="M57.5777 30.9697C60.7883 32.2466 63.6042 34.2943 65.7748 36.9084L64.0473 37.8059C61.2836 39.2406 59.432 39.1079 58.4383 38.3859C57.4445 37.6642 56.7498 35.9461 57.2605 32.8743C57.3668 32.2389 57.473 31.6051 57.5776 30.9704L57.5777 30.9697Z" fill="currentColor"/>
<path d="M29.5686 51.3311L31.4608 51.618C34.5402 52.0821 35.958 53.2754 36.3377 54.4438C36.717 55.612 36.272 57.4103 34.0549 59.5953L32.6814 60.9441C30.9017 58.1296 29.7942 54.8564 29.5686 51.3311V51.3311Z" fill="currentColor"/>
<path d="M70.4256 51.331C70.2006 54.8563 69.0925 58.1294 67.3128 60.9437L65.9456 59.5949C63.7269 57.4099 63.2772 55.6123 63.6566 54.4438C64.0363 53.2757 65.4541 52.0816 68.5335 51.6179C69.1644 51.5235 69.7947 51.4276 70.4256 51.3296V51.331Z" fill="currentColor"/>
<path d="M49.9973 64.3682C51.2257 64.3682 52.7976 65.3483 54.1901 68.1337C54.4745 68.7054 54.7592 69.2782 55.0448 69.8491C53.4285 70.2577 51.7423 70.5022 49.9973 70.5022C48.252 70.5022 46.566 70.2589 44.9495 69.8491L45.8041 68.1337C47.1966 65.3483 48.7685 64.3682 49.9973 64.3682H49.9973Z" fill="currentColor"/>
<path d="M56.2485 50.0022C56.2485 50.8229 56.0869 51.6358 55.7728 52.3941C55.4587 53.1524 54.9983 53.8412 54.418 54.4216C53.8376 55.0019 53.1486 55.4624 52.3903 55.7765C51.632 56.0906 50.8193 56.2523 49.9985 56.2523C49.1778 56.2523 48.365 56.0906 47.6067 55.7765C46.8485 55.4624 46.1595 55.0019 45.5791 54.4216C44.9987 53.8412 44.5383 53.1524 44.2243 52.3941C43.9102 51.6358 43.7485 50.8229 43.7485 50.0022C43.7485 49.1814 43.9102 48.3689 44.2243 47.6106C44.5384 46.8524 44.9988 46.1631 45.5791 45.5828C46.1595 45.0024 46.8485 44.542 47.6068 44.2279C48.3651 43.9138 49.1778 43.7524 49.9985 43.7524C50.8193 43.7524 51.632 43.9138 52.3903 44.2279C53.1486 44.542 53.8376 45.0024 54.4179 45.5828C54.9983 46.1631 55.4587 46.8524 55.7728 47.6106C56.0869 48.3689 56.2485 49.1814 56.2485 50.0022V50.0022Z" fill="currentColor"/>
<path d="M51.2626 39.202C51.3832 39.036 51.47 38.8478 51.5179 38.6483C51.5658 38.4488 51.5739 38.2418 51.5418 38.0392C51.5097 37.8365 51.438 37.6421 51.3308 37.4671C51.2236 37.2922 51.083 37.1401 50.917 37.0195C50.751 36.8989 50.5628 36.8121 50.3633 36.7643C50.1637 36.7164 49.9567 36.7084 49.7541 36.7405C49.5514 36.7726 49.357 36.8445 49.1821 36.9517C49.0072 37.059 48.8551 37.1995 48.7345 37.3655C48.6139 37.5315 48.5271 37.7196 48.4792 37.9191C48.4313 38.1187 48.4232 38.326 48.4553 38.5286C48.4874 38.7313 48.5591 38.9254 48.6663 39.1003C48.7735 39.2753 48.9141 39.4277 49.0801 39.5483C49.2461 39.6689 49.4343 39.7553 49.6338 39.8032C49.8334 39.851 50.0404 39.8595 50.243 39.8273C50.4457 39.7952 50.6401 39.7234 50.815 39.6161C50.9899 39.5089 51.142 39.368 51.2626 39.202V39.202Z" fill="currentColor"/>
<path d="M40.1191 45.4641C39.9985 45.2981 39.8464 45.1572 39.6714 45.05C39.4965 44.9427 39.3022 44.8713 39.0995 44.8391C38.8968 44.807 38.6898 44.815 38.4903 44.8629C38.2907 44.9108 38.1026 44.9975 37.9366 45.1181C37.7706 45.2387 37.6299 45.3908 37.5227 45.5658C37.4155 45.7407 37.3438 45.9351 37.3117 46.1378C37.2796 46.3405 37.2878 46.5474 37.3357 46.7469C37.3836 46.9465 37.4703 47.1346 37.5909 47.3006C37.7115 47.4666 37.8636 47.6071 38.0386 47.7144C38.2135 47.8216 38.4078 47.8935 38.6105 47.9256C38.8132 47.9577 39.0202 47.9497 39.2197 47.9018C39.4193 47.8539 39.6074 47.7672 39.7734 47.6466C39.9394 47.526 40.0801 47.3739 40.1873 47.1989C40.2945 47.024 40.3662 46.8296 40.3983 46.6269C40.4304 46.4243 40.4222 46.2173 40.3743 46.0178C40.3264 45.8182 40.2397 45.6301 40.1191 45.4641V45.4641Z" fill="currentColor"/>
<path d="M42.6363 57.9919C42.4411 58.0552 42.2604 58.1563 42.1043 58.2896C41.9482 58.4229 41.8199 58.5854 41.7267 58.7683C41.6336 58.9511 41.5773 59.1508 41.5612 59.3554C41.5451 59.56 41.5695 59.7654 41.6329 59.9606C41.761 60.3547 42.0405 60.682 42.4097 60.87C42.779 61.0581 43.2079 61.0915 43.602 60.9634C43.996 60.8353 44.3231 60.5562 44.5112 60.187C44.6994 59.8178 44.7331 59.3887 44.6051 58.9946C44.5417 58.7994 44.4406 58.6187 44.3074 58.4626C44.1741 58.3065 44.0115 58.1781 43.8287 58.0849C43.6458 57.9916 43.4464 57.9356 43.2419 57.9194C43.0373 57.9033 42.8315 57.9274 42.6363 57.9908L42.6363 57.9919Z" fill="currentColor"/>
<path d="M55.3325 59.4781C55.3325 59.8924 55.4972 60.2898 55.7902 60.5828C56.0832 60.8758 56.4806 61.0406 56.895 61.0406C57.3094 61.0406 57.7068 60.8758 57.9999 60.5828C58.2929 60.2898 58.4575 59.8924 58.4575 59.4781C58.4575 59.2729 58.4171 59.0697 58.3386 58.8801C58.2601 58.6905 58.145 58.5184 57.9999 58.3733C57.8548 58.2282 57.6826 58.113 57.493 58.0345C57.3034 57.9559 57.1002 57.9155 56.895 57.9155C56.6898 57.9155 56.4866 57.9559 56.2971 58.0345C56.1075 58.113 55.9352 58.2282 55.7901 58.3733C55.645 58.5184 55.5299 58.6905 55.4514 58.8801C55.3729 59.0697 55.3325 59.2729 55.3325 59.4781V59.4781Z" fill="currentColor"/>
<path d="M60.6764 47.8553C61.0704 47.9833 61.4992 47.9496 61.8684 47.7616C62.2376 47.5735 62.517 47.2465 62.6451 46.8525C62.7732 46.4584 62.7394 46.0294 62.5513 45.6602C62.3632 45.291 62.0361 45.0119 61.642 44.8838C61.2479 44.7556 60.8191 44.7891 60.4498 44.9771C60.0805 45.1652 59.8011 45.4925 59.6729 45.8865C59.6095 46.0817 59.5851 46.2875 59.6013 46.4921C59.6174 46.6967 59.6736 46.896 59.7668 47.0789C59.86 47.2617 59.9883 47.4243 60.1443 47.5576C60.3004 47.6908 60.4812 47.7923 60.6764 47.8556L60.6764 47.8553Z" fill="currentColor"/>
</svg>
