<svg viewBox="0 0 554 218" fill="none" xmlns="http://www.w3.org/2000/svg">
<path fill-rule="evenodd" clip-rule="evenodd" d="M415.3 17.8C415.3 27.9 379.9 47.2 349.8 47.2C303 47.2 254.3 24.8 231.9 19.7C207.5 14 185.4 9.3 168 9.3C107 9.3 79.8 35.5 81 59.6C81.6 69.4 89.5 75.7 101.2 73.5C113.8 71.3 131.6 59.3 136 48.8C136.9 46.6 139.5 46.3 140.4 46.9C142.3 48.5 141.7 50.7 141.7 50.7C140.1 63 121.1 97.2 88.3 97.2C70 97.2 57.6 80.1 57.9 63.4C58.2 32.1 90.2 0.5 168.9 0.5C183.8 0.5 200.5 1.79999 218.9 4.89999C240.1 8.69999 292.9 17.5 335.9 18.2C351.7 18.2 371.9 18.8 388.4 16.3C405.8 13.5 402 12.8 409 12.8C415.3 12.7 415.3 15.2 415.3 17.8Z" fill="currentColor"/>
<path fill-rule="evenodd" clip-rule="evenodd" d="M536.1 163.5C534.8 163.5 532.6 166.3 531.4 167.9C525.4 174.2 500.4 200.2 486.8 200.8C489.6 200.8 482.1 202.4 481.4 196.4C481.1 192.6 484.2 187.9 485.5 185.3L553.2 65.5H528.2L487.4 134.4C484.2 128.1 479.5 113.2 460.8 112.9C429.8 112.6 417.8 133.8 396.3 154C390 159.7 382.4 167.3 365 167.3C354.9 167.3 347 159.1 348.9 148.6C350.2 140.4 353 136.3 359 134.1C361.8 142.3 367.2 146.7 376.4 146.7C386.8 146.4 392.8 136.9 393.2 128.7C393.2 121.7 388.8 112.9 376.1 112.3C364.4 111.7 355.5 117 342.9 131.6C342.9 131.6 346.1 110.1 322.3 110.7C319.8 110.7 317.2 110.7 314.7 112C301.7 116.1 285 137 271.7 153.1C272.3 149.9 272.3 146.8 272.3 143.6C272.3 134.4 268.8 122.4 262.5 116.1C261.2 114.8 260 114.8 258.7 114.8C254.6 114.8 251.1 118.3 251.1 123.7C254.3 126.9 258.4 134.8 258.4 142.4C258.4 150 256.2 163.9 253 169.3C241 189.9 225.8 203.1 207.5 200.3C197.7 198.1 191.1 188.6 193 174.4C193.9 166.2 199 154.8 203.8 147.8C211.7 137 224.7 126 243.6 123.1C243.6 123.1 244.5 119.3 242 117.4C241.1 115.8 239.8 113.9 235.4 113.9C208.5 114.8 192.1 134.1 182.6 153.1C179.1 159.7 174.1 169.2 171.2 175.2C171.2 175.2 168.7 182.2 157 191C151 195.7 149.1 197.3 148.1 197C148.4 199.2 150 202.4 152.8 204.9C153.7 205.5 156.9 203.6 158.2 203C173.1 194.5 174.6 190.4 174.6 190.4C177.8 208.1 192.9 217.3 209.7 217.3C232.8 217.3 254 196.4 266.3 178.1C279.3 158.8 297 139.8 297 139.8C304 133.2 311.2 128.7 315.7 128.7C319.8 129 322.7 132.5 321.7 136.3C320.1 142.9 317.9 149.3 313.5 157.2L279 215.7H305.9C321.4 186.6 322 185.7 337.2 157.8C341.3 173.3 349.5 179.3 362.8 179.6C374.2 179.9 382.1 179.3 390.6 174.9C388.4 183.8 389.7 192.6 392.5 198.6C395.7 205.9 402 215 417.5 215.4C436.2 215.4 454.5 207.2 459.9 202.4C461.5 211.6 465.9 216.3 477.6 216.3C501.3 215.7 522.2 191.3 534.8 175.5C537 172.7 539.9 167.9 539.9 166.6C539.9 164.8 537.4 163.5 536.1 163.5ZM473.8 156C473.8 156 463.1 174 452 185.1C432.4 205 419.7 198.4 416.9 196.2C414.1 194 411.8 186.1 413.1 178.2C414 170.3 420.1 157 425.7 150.1C437.1 136.2 451 126.7 462.1 128C475.7 129.6 477 142.9 470.3 155.2L473.8 156Z" fill="currentColor"/>
<path fill-rule="evenodd" clip-rule="evenodd" d="M249 67.1C249 62 245.2 57.3 239.5 56.3C229.4 54.7 221.5 62.9 220.5 76.5C220.5 80 221.8 84.1 221.8 84.1C221.8 84.1 199.7 87.9 180.7 88.8C204.1 49.3 225.6 35.4 231.9 29.7C233.2 28.8 236.3 25.3 236.6 24.6C237.9 21.4 235 19.5 233.8 19.5C226.2 19.2 189.5 46.4 161.1 90C153.8 90.9 123.5 93.5 113.4 104.9C112.4 106.2 111.5 108.4 111.5 109C112.1 111.5 114 112.8 116.9 110.6C123.2 103.3 148.8 100.5 154.8 100.2C117.5 152.7 82.9999 187.2 52.3999 187.2C49.1999 187.2 46.0999 187.5 42.5999 186.6C30.2999 183.8 22.9999 170.8 22.9999 159.1C22.9999 143.6 37.8999 126.8 46.3999 123.7C49.1999 122.4 50.4999 120.9 50.4999 119.6C50.4999 117.7 49.1999 116.4 45.7999 116.4C16.3999 123.7 0.599947 147.7 0.899947 167.3C1.49995 199.6 25.8999 217.6 53.3999 217.6C91.9999 217.6 111.6 200.8 174.5 99C199.5 96.5 211.8 94.9 224.5 92.7C224.5 92.7 228.3 101.9 237.8 101.9C239.4 102.2 239.1 100.6 240 97.2C235.9 96.9 231.1 94 231.1 90.6C234.9 88.7 238.1 86.5 240.9 84.3C244.9 80.4 249 72.5 249 67.1ZM229.4 83.5C228.5 79.7 227.8 76.2 229.4 71.2C230.7 66.5 233.5 64.2 238.3 63.3C240.5 63 241.5 65.2 241.8 67.1C242.4 70.9 239.3 76.6 237.4 78.5C232.6 83.9 229.4 83.5 229.4 83.5Z" fill="currentColor"/>
</svg>
