<svg version="1.0" viewBox="0 0 1172 1659" xmlns="http://www.w3.org/2000/svg">
    <g fill="currentColor" transform="translate(0 1659) scale(.1 -.1)">
        <path fill="currentColor" d="m1437 16074c-8-8 1-24 14-24 5 0 9 7 9 15 0 15-12 20-23 9z" />
        <path fill="currentColor" d="m1240 16010c0-5 5-10 10-10 6 0 10 5 10 10 0 6-4 10-10 10-5 0-10-4-10-10z"/>
        <path fill="currentColor" d="m1205 15879c-10-15 3-25 16-12 7 7 7 13 1 17-6 3-14 1-17-5z"/>
        <path fill="currentColor" d="m2616 15661c-4-5-2-12 3-15 5-4 12-2 15 3 4 5 2 12-3 15-5 4-12 2-15-3z"/>
        <path fill="currentColor" d="m183 15604c-3-8-1-20 5-26 16-16 42-2 42 22s-38 28-47 4z"/>
        <path fill="currentColor" d="m1764 15599c-8-14 11-33 25-25 11 7 4 36-9 36-5 0-12-5-16-11z"/>
        <path fill="currentColor" d="m2617 15549c-15-11-32-38-38-59-16-54 6-90 56-90 42 0 46 6 53 82 4 52 2 63-13 75-24 17-28 17-58-8z"/>
        <path fill="currentColor" d="m2483 15515c-7-20 2-29 21-22 9 4 13 13 10 22-8 19-23 19-31 0z"/>
        <path fill="currentColor" d="m2774 15486c-10-43 3-76 31-76 18 0 26 7 31 24 11 45 1 71-28 74-22 3-29-2-34-22z"/>
        <path fill="currentColor" d="m452 15488c-26-26-4-54 30-37 10 6 14 16 11 29-6 23-23 26-41 8z"/>
        <path fill="currentColor" d="m640 15489c0-5 5-7 10-4 6 3 10 8 10 11 0 2-4 4-10 4-5 0-10-5-10-11z"/>
        <path fill="currentColor" d="m610 15430c-46-46-7-109 44-69 30 23 33 50 10 73-20 21-30 20-54-4z"/>
        <path fill="currentColor" d="m253 15363c-3-10-8-21-10-25-4-8 25-38 37-38 16 0 41 46 34 64-8 22-53 21-61-1z"/>
        <path fill="currentColor" d="m1737 15373c-11-10-8-41 5-49 14-9 38 23 31 42-5 15-25 19-36 7z"/>
        <path fill="currentColor" d="m104 15346c-8-21 3-36 27-36 15 0 20 6 17 22-4 27-35 37-44 14z"/>
        <path fill="currentColor" d="m2603 15335c-28-20-36-68-18-111 15-37 35-43 59-18 34 33 34 108 1 130-18 12-24 11-42-1z"/>
        <path fill="currentColor" d="m2420 15317c-34-17-38-52-7-72 32-21 74-6 83 30 12 47-25 68-76 42z"/>
        <path fill="currentColor" d="m2143 15254c-3-8-1-20 5-26 16-16 42-2 42 22s-38 28-47 4z"/>
        <path fill="currentColor" d="m590 15249c0-5 5-7 10-4 6 3 10 8 10 11 0 2-4 4-10 4-5 0-10-5-10-11z"/>
        <path fill="currentColor" d="m56 15212c-8-16-18-51-22-79-5-43-3-53 18-78 20-22 30-27 51-21 33 8 42 36 23 80-11 27-12 42-4 64 15 38 5 62-26 62-18 0-30-9-40-28z"/>
        <path fill="currentColor" d="m2792 15184c4-21 22-23 26-1 2 10-3 17-13 17s-15-6-13-16z"/>
        <path fill="currentColor" d="m555 15165c-29-28-31-38-9-59 20-20 43-20 72 0 27 19 29 60 3 74-29 15-39 13-66-15z"/>
        <path fill="currentColor" d="m2150 15150c0-15 5-20 18-18 9 2 17 10 17 18s-8 16-17 18c-13 2-18-3-18-18z"/>
        <path fill="currentColor" d="m385 15126c-20-29-17-55 7-70s49 12 51 55c2 28-2 35-20 37-14 2-27-5-38-22z"/>
        <path fill="currentColor" d="m215 15120c-35-38-16-100 32-100 26 0 73 40 73 63 0 20-43 57-67 57-11 0-28-9-38-20z"/>
        <path fill="currentColor" d="m2446 15058c-34-53-32-119 4-138 15-8 24-6 40 10 26 26 29 134 4 144s-33 7-48-16z"/>
        <path fill="currentColor" d="m1490 15005c-10-12-9-16 3-21 17-6 37 2 37 16 0 15-29 19-40 5z"/>
        <path fill="currentColor" d="m2155 15009c-10-15 3-25 16-12 7 7 7 13 1 17-6 3-14 1-17-5z"/>
        <path fill="currentColor" d="m553 15000c-24-10-30-25-42-102-12-70-1-88 48-88 21 0 43 6 49 13 16 20 9 166-8 177-18 11-19 11-47 0z"/>
        <path fill="currentColor" d="m371 14962c-18-14-23-31-28-93-5-72-4-78 17-89 29-16 66-5 86 24 27 42-8 176-47 176-4 0-17-8-28-18z"/>
        <path fill="currentColor" d="m233 14950c-12-5-26-17-31-27-16-30-24-141-12-163 26-48 123-4 121 55-1 17-2 51-1 77 0 37-5 50-19 58-23 12-29 12-58 0z"/>
        <path fill="currentColor" d="m27 14937c-8-21 8-39 29-35 27 5 25 42-2 46-12 2-24-3-27-11z"/>
        <path fill="currentColor" d="m1505 14927c-10-8-16-23-13-38 2-19 9-24 33-24 25 0 31 4 33 27 4 34-26 54-53 35z"/>
        <path fill="currentColor" d="m950 14910c-7-4-15-30-17-57-4-38-1-53 15-73 17-21 22-22 36-11 26 22 19 134-8 144-7 3-19 2-26-3z"/>
        <path fill="currentColor" d="m1310 14897c-29-15-41-71-17-80 23-9 82 25 82 47 0 30-35 48-65 33z"/>
        <path fill="currentColor" d="m2460 14825c-15-18-6-61 16-69 19-7 31-1 44 24 8 15 6 24-10 40-24 24-33 25-50 5z"/>
        <path fill="currentColor" d="m33 14803c-21-8-14-42 12-59 14-9 32-14 40-10 22 8 18 43-7 60-24 17-26 17-45 9z"/>
        <path fill="currentColor" d="m2233 14754c-3-8-1-20 5-26 15-15 43 8 35 28-7 19-32 18-40-2z"/>
        <path fill="currentColor" d="m1434 14749c-7-12 15-31 31-26 6 2 11 11 13 20 4 19-32 24-44 6z"/>
        <path fill="currentColor" d="m1351 14730c-18-11-9-44 13-48 10-2 22 2 26 9 16 25-14 55-39 39z"/>
        <path fill="currentColor" d="m2507 14714c-14-14-7-35 11-32 9 2 17 10 17 17 0 16-18 25-28 15z"/>
        <path fill="currentColor" d="m541 14688c-9-25 3-48 25-48 21 0 68 45 60 58-4 7-23 12-42 12-27 0-37-5-43-22z"/>
        <path fill="currentColor" d="m2390 14669c0-5 5-7 10-4 6 3 10 8 10 11 0 2-4 4-10 4-5 0-10-5-10-11z"/>
        <path fill="currentColor" d="m21 14651c-16-16-21-34-21-70 0-106 61-178 120-142 24 16 17 75-13 110-15 18-27 45-27 60s-9 36-19 45c-18 17-20 17-40-3z"/>
        <path fill="currentColor" d="m218 14659c-20-11-24-54-7-64 34-22 84 30 59 60-14 17-28 18-52 4z"/>
        <path fill="currentColor" d="m2020 14659c0-5 5-7 10-4 6 3 10 8 10 11 0 2-4 4-10 4-5 0-10-5-10-11z"/>
        <path fill="currentColor" d="m2245 14660c-4-7-3-16 3-22 14-14 45-2 40 15-6 16-34 21-43 7z"/>
        <path fill="currentColor" d="m382 14648c-30-30 0-133 42-144 39-9 49 3 44 57-8 79-51 122-86 87z"/>
        <path fill="currentColor" d="m964 14636c-9-24 4-48 23-44 12 2 18 12 18 28 0 29-32 41-41 16z"/>
        <path fill="currentColor" d="m527 14607c-44-35-16-106 37-93 33 8 42 29 28 61-15 33-45 48-65 32z"/>
        <path fill="currentColor" d="m1387 14613c-12-11-8-23 8-23 8 0 15 7 15 15 0 16-12 20-23 8z"/>
        <path fill="currentColor" d="m2686 14604c-22-22-20-48 8-81 21-24 26-26 50-15 33 15 36 62 6 92-24 24-43 25-64 4z"/>
        <path fill="currentColor" d="m1774 14595c-8-20 4-35 26-35 23 0 32 13 24 34-8 20-43 21-50 1z"/>
        <path fill="currentColor" d="m2475 14580c-32-12-47-36-43-67 3-25 8-28 41-31 48-4 87 20 87 52 0 38-46 62-85 46z"/>
        <path fill="currentColor" d="m867 14563c-14-13-7-33 11-33 24 0 32 8 25 26-5 15-25 19-36 7z"/>
        <path fill="currentColor" d="m1920 14551c-21-39 24-85 54-55 19 18 20 28 6 55-14 25-46 25-60 0z"/>
        <path fill="currentColor" d="m236 14551c-4-5-2-12 3-15 5-4 12-2 15 3 4 5 2 12-3 15-5 4-12 2-15-3z"/>
        <path fill="currentColor" d="m954 14526c-9-24 15-58 39-54 17 2 22 10 22 33 0 25-4 30-28 33-17 2-29-2-33-12z"/>
        <path fill="currentColor" d="m2274 14515c-8-21 2-45 20-45s27 35 13 49c-15 15-27 14-33-4z"/>
        <path fill="currentColor" d="m1116 14481c-10-16 5-42 23-39 21 4 21 42-1 46-9 2-19-1-22-7z"/>
        <path fill="currentColor" d="m1545 14480c-9-15 4-50 19-50 20 0 39 27 32 45-6 17-42 20-51 5z"/>
        <path fill="currentColor" d="m1826 14473c-11-11-6-23 9-23 8 0 15 4 15 9 0 13-16 22-24 14z"/>
        <path fill="currentColor" d="m2727 14473c-4-3-7-14-7-24 0-24 30-33 49-14 15 15 14 18-3 31-22 16-30 17-39 7z"/>
        <path fill="currentColor" d="m1312 14429c-26-17-30-24-21-35 6-8 20-14 31-14 33 0 33-29-1-60-36-33-37-37-15-69 14-20 22-22 56-17 22 4 54 14 70 22 20 10 42 14 64 9 59-11 121 35 110 80-8 32-42 40-89 20-45-19-48-17-87 41-36 51-65 57-118 23z"/>
        <path fill="currentColor" d="m2854 14435c-4-9-2-21 4-27 15-15 44-1 40 19-4 23-36 29-44 8z"/>
        <path fill="currentColor" d="m2474 14415c-4-9-2-21 4-27 15-15 44-1 40 19-4 23-36 29-44 8z"/>
        <path fill="currentColor" d="m552 14403c4-22 43-25 43-3 0 8-11 16-23 18-19 3-23 0-20-15z"/>
        <path fill="currentColor" d="m414 14376c-10-26 4-48 28-44 17 2 23 10 23 28s-6 26-23 28c-13 2-25-3-28-12z"/>
        <path fill="currentColor" d="m972 14368c-18-18-14-45 10-62 42-30 79 21 42 58-19 19-36 20-52 4z"/>
        <path fill="currentColor" d="m252 14360c-12-5-26-20-31-32-8-23 0-134 13-175 15-48 97-38 117 14 8 21 6 42-5 84-9 30-16 65-16 77s-9 26-19 32c-23 12-28 12-59 0z"/>
        <path fill="currentColor" d="m34 14335c-13-20-15-38-10-82 8-71 32-113 72-129 69-28 101 46 44 101-27 26-30 35-28 79 3 51 3 51-29 54-25 3-35-2-49-23z"/>
        <path fill="currentColor" d="m2754 14325c-6-14 17-79 48-142 13-26 58-32 58-8 0 8-9 32-20 52-11 21-20 46-20 56 0 47-52 80-66 42z"/>
        <path fill="currentColor" d="m657 14307c-8-20 9-41 27-34 23 9 21 47-3 47-10 0-21-6-24-13z"/>
        <path fill="currentColor" d="m2873 14294c-6-17 26-85 64-132 17-21 24-24 34-15 13 13 4 52-29 123-19 39-58 53-69 24z"/>
        <path fill="currentColor" d="m590 14261c0-12 6-21 16-21 9 0 14 7 12 17-5 25-28 28-28 4z"/>
        <path fill="currentColor" d="m993 14254c-8-22 9-48 34-52s33 15 22 46c-10 26-47 30-56 6z"/>
        <path fill="currentColor" d="m390 14240c-14-26 3-60 31-60 24 0 41 38 27 63-12 23-45 22-58-3z"/>
        <path fill="currentColor" d="m860 14240c0-5 5-10 10-10 6 0 10 5 10 10 0 6-4 10-10 10-5 0-10-4-10-10z"/>
        <path fill="currentColor" d="m1124 14206c-9-24 4-48 23-44 12 2 18 12 18 28 0 29-32 41-41 16z"/>
        <path fill="currentColor" d="m1543 14205c-18-8-38-26-45-41-11-24-10-28 20-53 19-15 34-39 38-59 11-57 76-68 109-18 14 20 14 27 0 66-8 23-15 53-15 65 0 43-55 64-107 40z"/>
        <path fill="currentColor" d="m2520 14160c-24-45 37-82 74-44 19 18 19 20 6 45-15 26-66 26-80-1z"/>
        <path fill="currentColor" d="m1440 14135c-13-16-6-35 14-35 8 0 19 6 25 14 10 12 8 17-7 25s-23 7-32-4z"/>
        <path fill="currentColor" d="m1337 14123c-12-11-7-50 7-62 19-16 56 2 56 27 0 32-43 56-63 35z"/>
        <path fill="currentColor" d="m674 14105c-4-9 0-23 8-31 20-20 50-7 46 20-4 26-45 35-54 11z"/>
        <path fill="currentColor" d="m873 14085c-9-24 2-106 18-140 10-22 24-31 49-36 19-4 50-13 68-20 28-12 34-12 42 1 5 8 10 21 10 28 0 20-38 52-63 52-30 0-50 22-76 83-21 48-37 59-48 32z"/>
        <path fill="currentColor" d="m2841 14060c-104-16-82-100 26-100 59 0 79 19 67 65-5 21-34 48-46 44-2-1-23-5-47-9z"/>
        <path fill="currentColor" d="m433 14044c-8-21 13-42 28-27 13 13 5 43-11 43-6 0-13-7-17-16z"/>
        <path fill="currentColor" d="m1024 14049c-3-6-2-15 2-19 12-12 38 5 30 19-9 14-23 14-32 0z"/>
        <path fill="currentColor" d="m279 14029c-15-15-19-29-16-47 29-141 45-179 83-188 30-8 64 19 64 51 0 31-40 177-52 192-16 20-56 15-79-8z"/>
        <path fill="currentColor" d="m1424 14025c-8-21 4-35 30-35 29 0 35 6 29 31-6 23-51 26-59 4z"/>
        <path fill="currentColor" d="m124 14015c-8-19 3-35 26-35 22 0 33 23 17 39-15 15-37 14-43-4z"/>
        <path fill="currentColor" d="m2578 14014c-38-20-36-53 5-108 17-24 40-57 49-75 20-37 57-42 88-11 26 26 26 31-12 109-51 106-70 118-130 85z"/>
        <path fill="currentColor" d="m705 14009c-4-5-4-21-1-35 5-17 13-24 31-24 24 0 30 9 25 40-4 27-42 40-55 19z"/>
        <path fill="currentColor" d="m458 13953c-37-9-35-93 2-113 42-23 85 33 61 79-14 25-40 39-63 34z"/>
        <path fill="currentColor" d="m1796 13944c-19-19-20-26-4-42 18-18 46-14 58 7 7 15 6 23-6 35-19 20-29 20-48 0z"/>
        <path fill="currentColor" d="m2837 13913c-14-13-6-33 13-33 11 0 20 4 20 9 0 13-26 32-33 24z"/>
        <path fill="currentColor" d="m1936 13901c-10-16 5-41 24-41 25 0 35 18 20 35-14 17-36 20-44 6z"/>
        <path fill="currentColor" d="m1173 13884c-8-22 10-49 33-49 22 0 31 30 14 50-16 20-39 19-47-1z"/>
        <path fill="currentColor" d="m1626 13873c-9-22 25-56 47-47 9 3 17 14 17 23 0 37-52 57-64 24z"/>
        <path fill="currentColor" d="m2090 13850c0-5 5-10 11-10 5 0 7 5 4 10-3 6-8 10-11 10-2 0-4-4-4-10z"/>
        <path fill="currentColor" d="m140 13821c0-15 6-21 21-21 14 0 19 5 17 17-5 26-38 29-38 4z"/>
        <path fill="currentColor" d="m1422 13818c-17-17-15-35 5-42 21-8 48 17 40 38-8 19-28 21-45 4z"/>
        <path fill="currentColor" d="m1520 13820c0-5 5-10 10-10 6 0 10 5 10 10 0 6-4 10-10 10-5 0-10-4-10-10z"/>
        <path fill="currentColor" d="m929 13784c-19-23 8-69 41-69 31 0 39 38 14 66-21 23-37 24-55 3z"/>
        <path fill="currentColor" d="m1656 13789c-21-5-64-22-95-38s-69-33-86-38c-24-7-31-15-33-40-3-25 2-35 22-49 23-15 28-15 49-1 22 14 70 24 155 31 48 4 119 48 135 84 8 18 7 26-5 38-20 20-90 26-142 13z"/>
        <path fill="currentColor" d="m660 13761c-12-23-5-47 17-55 33-13 57 36 31 62-18 18-36 15-48-7z"/>
        <path fill="currentColor" d="m2891 13757c-16-16-14-42 7-67 33-41 69 0 42 49-12 24-35 32-49 18z"/>
        <path fill="currentColor" d="m3010 13760c0-5 5-10 11-10 5 0 7 5 4 10-3 6-8 10-11 10-2 0-4-4-4-10z"/>
        <path fill="currentColor" d="m3110 13736c0-28 22-49 47-44 40 7 15 68-28 68-13 0-19-7-19-24z"/>
        <path fill="currentColor" d="m2003 13743c-17-6-16-44 0-67 31-42 73 6 47 53-11 21-23 24-47 14z"/>
        <path fill="currentColor" d="m2717 13738c-9-7-21-26-27-41-14-38 7-81 73-153 56-61 90-71 109-29 9 21 6 35-20 93-18 38-32 73-32 79s-9 22-21 37c-22 28-55 34-82 14z"/>
        <path fill="currentColor" d="m390 13727c-14-7-31-25-38-40-15-31-47-47-94-47-40 0-71-26-58-49 19-36 135-52 193-27 11 5 17 4 17-3s-16-18-34-26c-48-20-58-42-39-80 24-47 64-85 91-85 35 0 191 70 202 91 24 43 1 133-41 162-16 12-35 14-64 10l-42-5-14 42c-18 55-45 74-79 57z"/>
        <path fill="currentColor" d="m2122 13698c-7-7-12-22-12-34 0-28 53-48 104-39 73 14 72 60-2 68-26 2-54 7-62 11-9 4-21 1-28-6z"/>
        <path fill="currentColor" d="m510 13670c0-5 5-10 10-10 6 0 10 5 10 10 0 6-4 10-10 10-5 0-10-4-10-10z"/>
        <path fill="currentColor" d="m697 13659c-24-14-23-75 2-89 28-15 39-13 51 10 23 42-15 100-53 79z"/>
        <path fill="currentColor" d="m791 13641c-15-10-8-41 9-41 15 0 25 29 14 40-5 5-15 5-23 1z"/>
        <path fill="currentColor" d="m987 13644c-12-12-8-41 9-54 22-19 54 12 38 38-12 19-36 27-47 16z"/>
        <path fill="currentColor" d="m2333 13634c-8-22 10-49 33-49 22 0 31 30 14 50-16 20-39 19-47-1z"/>
        <path fill="currentColor" d="m1093 13624c-8-22 9-49 33-49 30 0 27 59-4 63-14 2-25-3-29-14z"/>
        <path fill="currentColor" d="m2930 13610c0-23 26-38 41-23 14 14 0 43-22 43-12 0-19-7-19-20z"/>
        <path fill="currentColor" d="m3120 13580c0-15 5-20 18-18 9 2 17 10 17 18s-8 16-17 18c-13 2-18-3-18-18z"/>
        <path fill="currentColor" d="m1720 13572c-31-25-21-65 20-82s80 7 80 50c0 48-57 67-100 32z"/>
        <path fill="currentColor" d="m2062 13573c2-10 10-18 18-18 22 0 18 29-3 33-14 3-18-1-15-15z"/>
        <path fill="currentColor" d="m2202 13571c-8-5-12-17-10-27 3-16 12-19 52-19 53 0 67 13 41 39-18 17-62 21-83 7z"/>
        <path fill="currentColor" d="m1340 13546c0-10 9-16 21-16 24 0 21 23-4 28-10 2-17-3-17-12z"/>
        <path fill="currentColor" d="m1526 13499c-17-14-19-22-11-44 16-44 36-51 90-30 61 23 89 50 76 73-13 24-126 24-155 1z"/>
        <path fill="currentColor" d="m1017 13493c-10-10-8-52 3-74 22-40 74-12 62 35-9 40-44 61-65 39z"/>
        <path fill="currentColor" d="m3018 13475c-16-35 3-72 47-91 46-19 75-5 75 35 0 67-97 111-122 56z"/>
        <path fill="currentColor" d="m2400 13480c0-5 7-10 15-10s15 5 15 10c0 6-7 10-15 10s-15-4-15-10z"/>
        <path fill="currentColor" d="m3212 13469c-31-12-37-35-18-64 22-33 80-35 96-4 22 41-30 86-78 68z"/>
        <path fill="currentColor" d="m197 13455c-20-19-12-45 14-45s36 28 17 46c-13 14-17 14-31-1z"/>
        <path fill="currentColor" d="m1721 13435c-46-19-92-42-102-51-24-22-24-66 0-88 17-16 23-15 109 14 49 16 102 30 116 30 40 0 69 35 62 74-13 66-60 71-185 21z"/>
        <path fill="currentColor" d="m847 13453c-12-11-8-23 8-23 8 0 15 7 15 15 0 16-12 20-23 8z"/>
        <path fill="currentColor" d="m2832 13423c-26-23-36-98-15-118 8-8 19-15 24-15s6-20 3-44c-6-42-5-45 18-51 14-4 45-1 69 5 78 21 97 56 60 108-10 15-22 45-27 67-14 60-87 87-132 48z"/>
        <path fill="currentColor" d="m1172 13418c-7-7-12-20-12-30 0-15-8-18-44-18-41 0-76-18-76-39s32-45 71-52c24-4 63-13 87-19 33-10 45-10 57 0 17 14 3 50-19 50-8 0-18 6-24 13-9 10-6 17 8 30 21 18 18 43-8 65-20 15-25 15-40 0z"/>
        <path fill="currentColor" d="m2106 13399c-13-20-13-25 1-53 30-61 92-133 124-146 31-13 34-13 53 13l20 27 51-50c46-46 57-52 101-54 27-2 64-9 81-17 29-12 35-11 49 3s14 18 1 45c-21 39-34 49-85 63l-44 11 26 24c17 16 23 29 19 44-7 28-39 50-63 44-11-3-35 4-53 16-48 29-61 27-97-19-17-22-38-40-45-40s-27 22-44 49c-42 66-69 77-95 40z"/>
        <path fill="currentColor" d="m1285 13380c-12-38 44-72 59-35 6 17-2 45-14 45-5 0-15 3-23 6-10 3-18-2-22-16z"/>
        <path fill="currentColor" d="m700 13368c-52-27-65-46-56-81 9-37 40-52 75-37 16 6 50 10 77 8l49-3-24-20c-62-52-63-54-56-103 12-82 28-88 128-42 67 30 92 57 83 88-9 26-73 92-90 92-11 0-13 8-9 34 5 31 2 36-33 60-47 32-86 33-144 4z"/>
        <path fill="currentColor" d="m2704 13346c-3-8-4-25-2-38 2-18 9-23 33-23s31 5 33 23c2 13-2 30-8 38-16 18-49 18-56 0z"/>
        <path fill="currentColor" d="m3122 13321c-21-13-10-46 16-49 27-4 40 22 22 43-14 17-20 18-38 6z"/>
        <path fill="currentColor" d="m3298 13309c-24-14-23-36 2-44 24-8 73 20 67 38-5 16-47 20-69 6z"/>
        <path fill="currentColor" d="m455 13274c-22-13-63-31-92-40-82-24-78-64 6-64 26-1 57-7 71-15 37-21 68-18 116 10 45 26 59 50 48 81-21 59-79 70-149 28z"/>
        <path fill="currentColor" d="m1911 13229c-35-32-36-32-126-14-27 6-36 0-83-48-34-35-51-59-47-69 9-23 51-38 85-31l31 6-17-30c-17-30-17-30 17-72 19-24 43-62 54-84 18-37 24-42 58-45 44-4 82 17 99 53 16 35-4 55-54 55-41 0-61 21-39 43 8 8 24 8 60-2 42-11 54-10 80 3 37 19 58 49 72 99 13 48-7 85-52 94-18 3-41 19-56 39-14 19-30 34-37 34-6 0-26-14-45-31zm-33-112c3-12-4-17-22-17-28 0-33 9-14 28 15 15 32 10 36-11z"/>
        <path fill="currentColor" d="m1304 13205c-10-26 5-64 41-104 29-32 48-42 105-56 38-9 79-14 92-10 32 10 58 35 58 56 0 18-46 39-86 39-13 0-41 15-61 34-21 18-48 38-60 45-31 16-83 14-89-4z"/>
        <path fill="currentColor" d="m2767 13214c-12-12-8-42 6-47 21-8 39 8 35 29-3 19-29 30-41 18z"/>
        <path fill="currentColor" d="m3111 13149c-52-16-104-35-116-43-13-8-42-14-68-13-51 2-100-26-105-60-5-30 45-66 83-60 16 3 48 1 70-4s54-12 70-15c29-6 29-6 8-17-14-6-23-19-23-33 0-30 28-57 49-48 9 4 35 9 58 12 32 3 49 12 67 32 20 25 29 28 63 23 45-6 79 17 67 46-16 39-15 48 5 54 39 10 24 65-32 125-39 40-68 41-196 1zm162-86 26-36-32-16c-19-10-33-25-35-38-4-31-14-29-35 6-22 38-21 56 5 91 28 39 39 38 71-7z"/>
        <path fill="currentColor" d="m3210 13060c0-5 5-10 10-10 6 0 10 5 10 10 0 6-4 10-10 10-5 0-10-4-10-10z"/>
        <path fill="currentColor" d="m630 13144c-14-7-43-14-66-14-54 0-77-25-72-77 3-33 0-38-19-41-16-2-26 5-37 26-25 48-84 58-110 20-25-35-21-135 8-214 28-75 64-118 113-135 49-16 73 7 73 73 0 45-3 50-35 69-42 25-37 39 15 39 56 0 87-15 105-50 16-32 11-54-19-80-19-15-21-51-4-68s43-15 88 8c22 11 56 20 76 20 21 0 64 7 95 16 42 12 74 14 115 9 50-6 63-13 108-56 28-27 58-49 67-49 18 0 119 102 119 120 0 42-70 130-104 130-7 0-40-13-72-30-68-34-74-35-74-15 0 8 19 24 43 36 23 12 50 28 60 37 43 38-3 121-62 109-16-4-51-22-76-41-35-27-56-35-88-36-23 0-55-2-72-3-28-2-30 1-35 38-3 22-21 69-40 105-38 70-55 80-100 54z"/>
        <path fill="currentColor" d="m3390 13140c-8-16-6-24 10-40 41-41 103-2 66 39-24 27-62 27-76 1z"/>
        <path fill="currentColor" d="m2257 13103c-14-13-6-60 12-77 28-25 85-18 89 11 6 42-74 94-101 66z"/>
        <path fill="currentColor" d="m2392 13068c-21-21-13-58 19-91 30-30 31-32 18-70-12-37-12-41 11-59 19-15 35-18 88-15 39 3 68 10 73 18 24 37-46 181-101 211-40 21-90 24-108 6z"/>
        <path fill="currentColor" d="m1238 13009c-46-26 3-73 100-97 40-9 72-20 72-24s-16-14-35-22c-44-19-51-37-30-70 17-26 17-26-8-26-38 0-52-31-32-70 28-55 86-67 125-25 21 22 32 25 91 25 37 0 80 5 96 11 21 8 43 6 96-7 78-21 100-14 105 31 3 20-5 37-31 64-19 20-45 56-57 81-55 111-125 140-339 140-75 0-144-5-153-11z"/>
        <path fill="currentColor" d="m2636 12975c-20-20-20-25 0-53 10-15 24-22 37-20 30 4 30 55 1 75-19 12-24 12-38-2z"/>
        <path fill="currentColor" d="m3510 12975c0-8 7-15 15-15s15 7 15 15-7 15-15 15-15-7-15-15z"/>
        <path fill="currentColor" d="m2056 12927c-26-19-17-59 16-71 41-14 102 3 106 31 6 43-80 71-122 40z"/>
        <path fill="currentColor" d="m2292 12931c2-7 7-12 11-12 12 1 9 15-3 20-7 2-11-2-8-8z"/>
        <path fill="currentColor" d="m2682 12871c-22-14-10-55 21-69 16-8 35-11 43-8 22 8 17 53-8 70-25 18-37 19-56 7z"/>
        <path fill="currentColor" d="m3350 12830c-8-5-35-10-60-10-53 0-144-39-159-69-6-11-11-29-11-40 0-18-6-21-48-21-83 0-96-41-32-101 36-34 60-74 60-99 0-5-26 0-57 11-32 11-80 21-108 23-36 2-49 6-47 16 12 53 11 68-8 98-38 61-72 74-181 69-88-3-100-2-135 20-27 15-54 23-87 23-37 0-64 9-121 40-98 54-121 53-179-9-70-75-73-131-7-131 40 0 42-10 10-40-68-64-2-142 80-95 32 18 191 20 208 3 19-19 15-24-37-62-27-20-54-50-61-67-11-27-11-33 7-57 12-17 31-28 49-30 127-11 135-13 132-35-2-14-20-31-48-47-85-47-83-46-76-73 9-38 48-47 118-28 50 13 64 13 105 1 57-16 119-19 116-5-1 6-4 22-8 37-6 23-3 28 18 33 14 4 33 15 43 26 15 17 16 24 5 60-7 22-21 55-32 72-29 49-25 60 16 40 30-14 38-15 60-3 19 10 36 11 77 2 29-6 78-14 108-18 30-3 75-14 100-24 59-23 295-72 334-69 47 3 66 0 66-11 0-5-11-10-25-10-48 0-23-58 31-74 26-8 100 20 108 40 3 8-9 27-29 46-19 17-35 35-35 41 0 5 15 23 33 41 32 32 33 32 127 32 75-1 95-4 95-15 0-8-18-19-40-25-70-20-55-87 19-85 47 1 138 32 150 52 28 44-100 192-191 218-77 22-158 17-233-14-102-44-229-107-235-117-15-24-132 6-181 46-27 22-28 23-7 24 12 0 31 12 42 27 24 30 21 49-15 103-13 19-24 42-24 52 0 15 4 16 27 7 15-6 43-8 61-4 20 4 39 1 48-6 21-17 17-26-15-32-44-9-58-42-34-76 26-34 70-38 130-10 94 43 198 79 228 79 17 0 46-5 65-10 52-15 109-3 116 24 22 88-164 266-213 204-6-7-15-27-20-44-15-44-1-64 47-64 39 0 54-15 25-26-27-11-85 17-112 54-70 96-110 120-153 92zm50-150c0-5-4-10-10-10-5 0-10 5-10 10 0 6 5 10 10 10 6 0 10-4 10-10zm-861-66c23-20 40-38 37-41-11-11-96 50-96 69 0 16 17 8 59-28z"/>
        <path fill="currentColor" d="m936 12700c-15-5-36-16-47-26-16-14-83-42-187-77-38-12-41-42-7-61 54-30 87-62 110-105 24-48 85-111 108-111 7 0 39 14 71 30 32 17 65 30 72 30s40 14 72 30c33 17 65 30 71 30 39 0 32 109-10 151-23 23-47 19-95-17-21-17-44-24-75-24-24-1-55-7-69-15-54-31-85-4-34 29 24 17 96 91 102 106 4 11-27 40-41 39-7 0-25-5-41-9z"/>
        <path fill="currentColor" d="m3912 12684c-12-8-22-23-22-33 0-46 79-70 100-31 15 28 3 59-27 71-30 11-24 12-51-7z"/>
        <path fill="currentColor" d="m1469 12609c-8-17-8-31 0-60 19-64 80-96 132-68 16 8 39 2 119-36 129-60 160-65 194-32 44 44 33 72-60 144-24 18-47 25-95 27-35 2-101 13-146 25-104 27-129 27-144 0z"/>
        <path fill="currentColor" d="m1376 12574c-9-23 21-66 42-62 23 4 27 42 7 62-21 21-41 20-49 0z"/>
        <path fill="currentColor" d="m470 12556c0-12 5-27 12-34 27-27 113-2 113 33 0 17-8 19-62 21-59 2-63 1-63-20z"/>
        <path fill="currentColor" d="m2017 12433c-30-29 26-99 58-73 18 15 20 51 3 68-13 13-50 16-61 5z"/>
        <path fill="currentColor" d="m636 12408c-23-33-21-85 4-93 43-14 87 45 69 93-11 29-53 29-73 0z"/>
        <path fill="currentColor" d="m1645 12350c-10-16 11-37 87-85 67-44 68-45 68-88 0-73 72-167 128-167 12 0 39-7 60-15 30-13 45-14 84-5 26 7 52 18 59 26 6 8 28 14 49 14 48 0 68 21 50 54-16 30-50 46-122 56-90 13-112 28-116 76-5 68-41 94-148 106-49 5-104 16-122 24-41 17-68 18-77 4z"/>
        <path fill="currentColor" d="m2175 12345c-70-25-90-67-60-125 30-57 79-62 90-8 9 37 30 45 65 24 32-19 101-21 118-4 18 18-2 42-68 82-77 45-95 49-145 31z"/>
        <path fill="currentColor" d="m1202 12314c-61-30-76-50-59-85 14-28 58-37 93-18 12 6 30 9 38 6 20-8 21-51 1-67-17-14-20-91-5-121 12-21 49-26 67-8 5 5 39 20 74 32 87 30 88 46 12 159-58 86-108 129-149 127-11 0-43-12-72-25z"/>
        <path fill="currentColor" d="m4695 12289c-43-38-44-72-3-102 91-68 213 35 127 107-42 35-80 34-124-5z"/>
        <path fill="currentColor" d="m2951 12271c-20-36 21-121 59-121 9 0 25 7 36 15 27 21 41 18 60-10 16-24 15-26-10-46-31-25-33-56-6-109 34-66 89-81 115-30 23 45 47 53 95 34 28-12 54-14 86-9 38 5 55 2 100-20 113-55 152-9 66 79-28 28-57 67-65 86-24 60-75 96-154 108-297 46-368 50-382 23zm439-157 45-25-58 4c-59 4-85 17-73 36 11 17 37 12 86-15z"/>
        <path fill="currentColor" d="m913 12226c-106-32-140-53-130-80 5-12 20-16 56-16 35 0 65-8 105-29 31-17 51-33 46-36-17-11-11-66 11-102 27-44 66-63 127-63 75 0 97 22 97 98 0 53-4 64-29 91-39 40-54 44-106 26-57-20-57-20-21 14 40 38 42 81 5 110-33 26-36 26-161-13z"/>
        <path fill="currentColor" d="m3850 12159c-47-9-70-30-70-62 0-13-5-17-16-13-40 15-65 17-79 6-22-18-18-45 11-80 21-25 33-30 58-28 28 3 31 7 34 40l3 36 53-23c79-35 123-41 146-20 18 16 18 18-1 72-30 88-37 92-139 72z"/>
        <path fill="currentColor" d="m4053 12164c-21-9-15-34 17-71 17-18 30-37 30-42s-20-25-45-45c-39-33-45-42-45-76 0-33-5-41-33-59-18-11-42-30-52-41-19-21-19-22 0-56 24-45 69-77 94-69 11 3 31 21 45 40 14 18 41 39 60 45s38 20 41 31c5 13 15 19 38 19 39 0 93 31 102 59 7 24-18 75-78 157-58 79-133 125-174 108z"/>
        <path fill="currentColor" d="m722 12078c-31-31-1-128 51-170 45-36 104-13 127 48 14 37 3 50-84 94-91 46-79 43-94 28z"/>
        <path fill="currentColor" d="m2343 12078c-22-28-22-37-2-62 14-17 30-26 50-26 40 0 43 38 6 78-23 25-40 28-54 10z"/>
        <path fill="currentColor" d="m2837 12052c-37-41-13-81 61-103 62-18 71-34 39-67-46-47-31-85 43-115 107-44 145-28 134 56-4 29-13 67-20 84-13 32-90 111-143 145-35 24-93 23-114 0z"/>
        <path fill="currentColor" d="m2598 12020c-31-17-59-39-63-50-9-27 14-71 47-89 25-14 29-13 84 21 68 42 79 63 56 109-22 44-51 46-124 9z"/>
        <path fill="currentColor" d="m1475 11930c-38-33-53-40-89-40-30 0-63-11-112-37-38-20-106-47-152-59-96-26-132-46-132-75 0-22 33-39 118-59 28-6 52-16 52-20 0-5-25-26-55-47s-57-44-60-51c-8-20 16-62 48-86 35-26 156-34 241-16 70 14 198 80 246 125 19 19 49 37 65 41 46 10 95 44 106 72 13 33-4 82-41 122-33 36-58 37-120 7-33-17-47-30-53-54-10-32-10-32-38-17-16 8-29 18-29 23 0 4 26 25 58 46 107 70 123 99 82 143-33 36-80 29-135-18z"/>
        <path fill="currentColor" d="m1788 11958c-87-18-64-68 47-99 102-28 104-34 18-64-27-9-11-43 40-85 89-73 176-96 242-64 36 17 41 17 85 1 121-43 169 5 94 94-19 24-46 63-59 88-40 79-70 99-176 121-100 21-214 24-291 8z"/>
        <path fill="currentColor" d="m947 11934c-12-12-8-42 6-47 21-8 39 8 35 29-3 19-29 30-41 18z"/>
        <path fill="currentColor" d="m2346 11878c-21-29-20-40 5-72 16-21 28-26 53-24 45 4 49 47 7 88-35 36-45 37-65 8z"/>
        <path fill="currentColor" d="m2470 11855c0-22 4-26 23-23 14 2 22 10 22 23s-8 21-22 23c-19 3-23-1-23-23z"/>
        <path fill="currentColor" d="m3534 11855c-8-20 13-45 38-45 24 0 34 26 18 45s-49 19-56 0z"/>
        <path fill="currentColor" d="m4308 11840c-8-13-24-20-43-20-43 0-73-25-81-65-5-30-10-35-34-35-41 0-77-16-90-40-23-44 45-110 114-110 45 0 69 32 60 79l-7 32 40-7c45-7 92 10 141 50 40 35 40 56 1 101-36 41-81 48-101 15z"/>
        <path fill="currentColor" d="m3688 11819c-26-14-22-33 12-68 32-31 91-54 116-44 20 7 18 57-3 75-40 35-99 52-125 37z"/>
        <path fill="currentColor" d="m3171 11804c-26-18-27-40-3-53s52 4 52 33c0 30-22 39-49 20z"/>
        <path fill="currentColor" d="m3293 11809c-19-19-16-37 12-64 19-20 34-25 73-25 36 0 60-7 95-30 53-33 94-39 104-13 8 21-30 52-122 98-80 40-144 53-162 34z"/>
        <path fill="currentColor" d="m2715 11723c-59-83-69-125-30-131 74-11 84-26 35-54-24-14-30-24-30-52 0-57 57-74 115-36 26 18 40 20 105 15 135-11 143-23 59-91-50-40-59-52-59-80 0-44 38-74 94-74 22 0 58-3 79-6 52-9 50-22-20-182-3-7 26-42 66-80 75-72 84-94 60-146-22-47-4-75 67-108 80-37 95-62 71-113-18-38-46-46-68-19-36 43-114 57-142 26-23-25-22-31 14-86 16-27 27-52 22-56-4-5-37-2-73 6-36 7-95 14-132 14s-88 5-113 12c-40 11-48 10-83-10-32-18-45-20-73-12-19 6-53 10-76 10-41 0-41 0-31 28 15 39 4 76-36 119-27 30-41 37-71 37-31 0-43-7-74-41-20-23-54-49-75-58-22-8-67-39-100-68-84-73-115-93-162-106-79-21-119-78-79-111 20-17 161-50 183-44 20 6 6-5-62-47-22-14-47-38-55-52-25-46-4-69 106-122 89-42 103-46 153-42 120 11 244 84 303 179 20 32 45 57 72 70 58 29 74 46 81 87 10 54 21 63 67 56 22-4 58-15 81-25 22-10 70-22 106-25 36-4 76-14 90-23 15-9 56-17 102-20 67-4 81-2 113 18 59 36 69 59 54 124-11 50-10 58 6 76 21 24 43 26 51 5 9-23 40-18 62 10 26 33 47 32 82-4 31-30 31-54 1-110-7-11-15-47-19-79l-7-57h-40c-36 0-40-3-43-27-3-26 3-31 72-64 42-19 78-40 81-45 8-12 8-12-76 16-108 38-200 55-289 55-44 0-101 5-129 11-59 12-91 0-91-34 1-38 36-100 84-147 72-70 60-90-28-45-27 14-62 25-77 25-26 0-28 2-19 26 21 53-48 134-126 150-36 7-84-28-104-76-7-16-16-30-21-30s-41-30-81-66c-90-82-167-119-273-132-112-15-135-25-135-60 0-62 76-92 231-92 78 0 90-5 67-28-16-16-41-15-104 5-44 13-56 14-68 3-27-22-18-45 34-89 28-24 61-64 75-91 27-53 60-81 119-100 86-28 223 15 320 99 27 24 73 61 103 82 43 32 53 45 53 69 0 37 13 45 75 45h50l9 45c5 25 14 48 20 52 18 12 106 9 181-7 39-8 99-15 135-15 37 0 76-7 90-15 46-26 120-11 120 25 0 20 42 17 69-6 31-26 67-32 74-11 2 6-2 26-11 42-17 34-131 184-156 204-9 7-16 20-16 27 0 27 43 14 76-23 18-20 45-44 60-53 14-10 38-42 53-71 34-69 185-196 243-206 43-6 48-21 17-48-11-11-19-30-18-45 2-41 0-42-29-22-79 57-110 11-47-71 37-49 44-74 21-83-30-11-76 29-155 135-45 60-88 111-95 114s-24 0-38-7c-26-14-214-14-280-1-34 7-38 5-38-12 0-20 36-58 80-86 14-9 59-23 100-32 89-19 120-40 48-32-63 6-83-9-74-53 3-18 17-48 30-65 24-31 138-105 183-119 13-4 111-9 218-11 173-3 203-6 259-26 54-19 67-21 80-10 37 31 2 101-92 180-29 24-52 51-52 62 0 16 7 19 50 19 41 0 55 5 85 31 38 34 35 34 104-6 32-18 44-12 70 35 23 41 54 53 65 25 10-28-17-65-81-111-35-25-65-55-69-67-8-35 33-133 75-178 62-64 108-54 165 38 34 58 147 176 130 138-5-11-9-48-9-81 1-62 1-62-22-47-31 21-60 8-83-37-38-75-17-146 66-219 49-43 90-53 101-25 6 15 2 29-22 87-6 13 0 20 23 28 17 6 34 19 37 29 4 11 12 16 24 13 21-5 178-150 171-157-3-2-22-11-42-19l-38-16v-64c0-54 4-67 24-86 13-12 26-36 30-52 7-39 49-79 81-79 36 0 42 26 15 55-28 29-23 39 13 26 13-5 34-7 45-4 20 5 21 2 15-64-7-86 9-125 76-181 101-85 139-95 166-41 23 43 19 57-24 83-53 34-63 51-25 42 62-15 92-18 98-7 4 6 20 11 35 11 38 0 51 17 51 66 0 35-7 51-40 89-22 25-43 58-46 73-11 50-27 83-45 92-26 14-62 12-85-5-45-34-91-6-247 153l-107 109 6 54c5 52 4 56-41 117-58 79-97 105-147 97-37-5-38-5-38 27 0 18 9 53 20 77l20 43-34 34c-28 28-41 34-77 34-61 0-92 19-176 110-78 83-98 94-195 104-51 5-60 3-83-18-26-25-87-42-106-31-6 4 17 31 51 63l62 56-4 54c-6 67-43 109-103 119-22 3-48 13-59 22-24 21-53 78-61 123-4 20-20 48-37 64-26 26-38 29-107 32-73 4-80 2-95-19-9-13-16-31-16-41 0-22-42-25-59-4-8 10-4 22 19 54 16 22 36 44 43 49 8 4 24 24 35 43 24 42 19 58-35 120-48 54-58 73-67 122-7 38-7 38 20 28 94-36 193-109 249-185 19-25 29-28 124-38 84-8 105-7 116 4 21 22 1 56-49 87-55 33-55 36-19 101 1 2 31-13 65-34 74-44 121-51 126-18 4 25-47 87-89 109-15 7-42 14-59 14-25 0-33-6-44-31l-13-32-21 21c-12 12-28 34-36 51-17 33-52 49-69 32-6-6-10-33-8-61 2-39-1-50-12-50-9 0-18 13-22 30-9 39-38 75-75 90-27 11-33 10-64-14-23-17-47-26-72-26-21 0-45-7-55-16-21-19-55-11-62 16-3 12 4 27 20 42 22 20 24 29 19 73-8 65 2 80 45 71 19-4 74-10 123-13 73-4 97-10 127-30 74-49 127-10 79 57-32 45-64 57-175 63-65 5-104 12-113 21-35 35 23 47 98 21 23-8 53-15 66-15 39 0 32 45-14 90-45 45-85 58-223 70-55 4-121 16-148 26-94 34-161-4-140-79 14-51 46-71 95-58 26 7 43 7 58-1 33-17 33-18-4-48-34-28-34-28-23-76 21-90-21-91-114-3-49 47-55 49-107 49-47 0-57 3-67 23-6 12-21 32-32 44-24 27-19 34 30 42 60 10 65 41 20 135-20 42-32 76-27 76s25-8 44-17c34-16 37-16 56 2 19 17 21 17 69-4 30-13 71-21 104-21 29 0 76-7 103-15 64-19 100-19 108 1 7 19-15 48-55 71-22 13-28 25-31 65-6 58-38 98-79 98-15 0-53-13-84-30-43-22-70-30-110-30-61 0-70 8-61 55l7 34 56-20c65-22 96-18 91 14-4 26-71 67-110 67-21 0-29-6-34-26l-6-25-24 35c-28 41-41 45-143 49l-75 2-9-35c-4-19-11-47-14-62-3-16-10-28-17-28-29 1-93 58-114 103-18 37-33 52-72 72-28 14-50 32-50 40 0 28-60 85-90 85-24 0-38-12-85-77zm-195-1305c0-26-17-40-39-33-21 6-28 25-14 38 11 12 53 7 53-5zm-150-86c0-22-94-82-107-69-4 5 88 76 100 77 4 0 7-4 7-8zm1020-342c0-5-7-10-16-10-8 0-12 5-9 10 3 6 10 10 16 10 5 0 9-4 9-10zm-460-64c0-3-4-8-10-11-5-3-10-1-10 4 0 6 5 11 10 11 6 0 10-2 10-4zm2506-1127c31-19 54-46 54-64 0-3-15 5-33 19-36 27-84 34-118 16-25-14-24 0 1 28 26 28 53 28 96 1zm139-175c19-29 14-27-47 17-21 14-35 29-31 32 10 10 59-21 78-49z"/>
        <path fill="currentColor" d="m4487 11619c-10-6-22-22-27-35-13-33 25-109 82-163 38-37 42-44 39-87-1-26 7-73 19-109 36-108 76-139 120-95 24 24 26 68 5 96s-18 41 10 48c36 9 89-17 113-56 33-52 67-81 90-74 11 4 22 13 25 20 6 14-133 202-179 244-18 16-38 22-70 22-43 0-44 1-44 33-1 77-72 167-133 167-18 0-40-5-50-11z"/>
        <path fill="currentColor" d="m3870 11603c-18-13-27-14-41-5-43 27-83 4-77-44 2-22 14-33 50-52 57-29 131-40 153-22 31 26 6 107-40 128-17 8-28 7-45-5z"/>
        <path fill="currentColor" d="m1995 11557c-24-18-13-49 35-93 26-25 39-46 44-74 22-136 220-229 499-233 97-2 110 0 123 17 21 29 0 54-82 99s-110 70-135 119c-11 21-44 56-74 78-49 36-65 42-133 50-42 5-108 16-147 25-38 8-79 17-91 20-11 2-29-1-39-8z"/>
        <path fill="currentColor" d="m1740 11500c-25-16-58-30-75-30-16 0-46-10-66-23-20-12-61-37-90-55-30-17-84-41-120-52-76-23-104-48-95-83 6-26 58-57 93-57 31 0 33-9 11-46-28-48-18-91 35-149 51-56 93-69 170-51s149 61 238 143c66 61 85 73 114 73 42 0 83 34 91 75 8 42-23 78-97 116-48 24-59 34-59 53 0 57-42 116-82 116-13 0-43-14-68-30zm96-156c-3-9-6-20-6-25 0-14-26-11-40 6-16 19-4 35 27 35 19 0 24-4 19-16z"/>
        <path fill="currentColor" d="m3989 11450c-22-13-32-55-20-79 6-10 24-21 41-25 70-13 94 42 39 88-34 29-37 30-60 16z"/>
        <path fill="currentColor" d="m4250 11285c-26-32 8-58 128-100 38-14 55-16 63-8 22 22-2 52-64 82-84 41-110 46-127 26z"/>
        <path fill="currentColor" d="m2843 11233c-19-7-16-47 7-75 44-57 130-59 130-4 0 19-10 31-42 50-49 27-78 36-95 29z"/>
        <path fill="currentColor" d="m4793 11193c-17-6-16-30 1-36 21-8 40 17 24 30-7 6-19 8-25 6z"/>
        <path fill="currentColor" d="m5742 11148c-19-19-14-34 23-67 38-33 75-47 100-37 24 9 18 26-29 72-44 44-72 54-94 32z"/>
        <path fill="currentColor" d="m4460 11133c-23-8-60-45-60-59 0-28 31-44 85-44 69 0 85 7 85 35 0 27-22 53-57 66-27 10-31 10-53 2z"/>
        <path fill="currentColor" d="m2338 11110c-25-16-22-37 10-79 16-20 45-71 66-113 40-86 74-118 157-149 57-22 218-49 290-49 51 0 60 7 79 62 13 36 14 37 59 31 53-5 79 9 83 46 6 52-101 50-118-1-6-19-9-17-44 17-36 35-42 37-82 31-52-7-62 0-110 75-20 31-48 65-62 77-50 39-288 77-328 52z"/>
        <path fill="currentColor" d="m5632 11094c-29-20-28-45 3-82 29-34 67-47 95-32 45 24 31 92-25 115-43 19-46 19-73-1z"/>
        <path fill="currentColor" d="m2068 11085c-47-26-49-80-4-105 34-18 73-5 91 30 38 73-11 116-87 75z"/>
        <path fill="currentColor" d="m4878 11046c-20-7-68-33-107-57s-91-56-116-71c-44-27-45-29-45-77v-51l-50-25c-28-14-53-32-56-40-8-19 29-78 61-99 37-24 55-20 92 23 18 22 49 45 67 51 21 7 36 19 40 33 4 19 12 22 56 22 27 0 50 0 50-1 0 0-27-28-60-62-33-35-68-62-79-62-35 0-71-23-78-48-12-48 59-132 111-132 32 0 76 55 76 94 0 34 0 35 32 25 54-15 50-17 185 104 32 28 63 47 77 47 13 0 33 8 45 18 20 15 20 19 7 38-10 13-30 23-56 27-68 9-93 47-46 69 21 9 33 7 72-13 39-19 50-32 61-64 16-47 36-65 75-65 41 0 55 32 29 73-31 50-185 195-225 212-28 12-169 47-179 45-1-1-18-7-39-14z"/>
        <path fill="currentColor" d="m5980 11027c-34-17-39-68-11-96 24-24 89-29 109-9 19 19 14 63-10 85-32 29-59 35-88 20z"/>
        <path fill="currentColor" d="m2967 11023c-27-26 20-76 49-52 18 15 18 24-2 43-16 17-36 21-47 9z"/>
        <path fill="currentColor" d="m4262 11008c-21-21-13-49 22-84 50-50 96-42 96 17 0 51-85 100-118 67z"/>
        <path fill="currentColor" d="m1930 10996c-20-7-56-26-80-43-25-16-90-47-145-68-82-32-112-38-167-38-37 1-71-3-74-8-11-18 18-70 49-85 21-11 43-14 74-9 44 6 150-10 168-27 6-6 0-18-19-35-26-22-36-25-78-20-54 7-78 1-78-18 0-25 50-74 88-86 20-6 76-29 123-50 110-49 153-51 240-7 45 22 90 58 151 120 48 48 96 88 105 88 26 0 79 35 98 64 15 22 15 27 0 63-30 73-98 122-150 109-15-4-35-22-46-40-34-57-68-58-107-4-39 57-76 96-97 102-11 3-36-1-55-8z"/>
        <path fill="currentColor" d="m6441 10716c-6-7-13-52-15-99-5-85-5-85 29-125 36-42 85-68 109-59 12 5 14 23 10 99-7 121-9 131-40 167-28 34-73 42-93 17z"/>
        <path fill="currentColor" d="m6067 10692c-30-33-21-82 32-170 28-45 59-102 70-127 27-60 57-74 110-51 26 12 49 16 70 11 44-9 61 8 61 60 0 39-3 43-39 59-52 24-89 59-139 133-23 33-53 71-68 82-33 26-75 27-97 3z"/>
        <path fill="currentColor" d="m2675 10673c-21-6-35-21-35-40 0-22 51-71 96-94l46-22 49 23c45 21 52 22 90 10 45-15 71-7 77 24 10 47-99 96-223 102-44 1-89 0-100-3z"/>
        <path fill="currentColor" d="m5335 10635c-45-7-101-23-125-35-66-34-140-92-146-116-3-12 6-49 20-82 32-76 32-87 1-108-19-13-37-15-79-10-60 8-76-6-53-49 20-37 269-288 304-307 17-9 44-36 59-60 42-68 84-107 162-150 59-32 81-52 113-99 44-65 80-89 133-89 29 0 47 10 101 59 36 33 74 63 84 66 28 8 33 33 16 68-8 16-15 44-15 62 0 29 2 31 33 27 22-2 43 4 70 22 51 35 68 33 105-13 39-48 40-64 6-104-20-24-24-38-20-61 8-40 49-76 88-76 17 0 73-12 125-26 93-25 94-25 126-7 40 24 46 61 17 101-30 40-23 62 28 90 28 16 42 30 40 41-2 9-53 64-113 122-100 96-115 107-165 118-30 7-64 15-74 18-11 3-53 37-93 75-119 113-210 139-344 98-41-12-97-35-125-51-56-32-114-37-169-16-57 22-197 102-202 115-9 23 5 25 34 4 45-31 111-62 134-62 11 0 34 8 49 17 25 15 34 15 69 3 46-15 51-12 66 33 10 30 13 31 94 43 95 14 121 30 104 66-21 43-226 250-268 269-46 21-78 22-190 4zm25-185c45-37 69-37 105 0 34 35 51 37 85 10 24-19 24-21 7-34-11-8-36-18-58-21-40-7-59-27-59-64 0-48-118-32-145 19-27 52-15 120 20 120 6 0 26-13 45-30zm617-359c72-52 97-111 48-111-35 0-75 21-75 39 0 9-7 29-15 45-17 31-19 56-7 56 5 0 27-13 49-29zm-114-159c-16-27-15-31 6-65 12-21 18-37 13-37-20 0-77 47-86 72-14 41-2 58 43 58h40l-16-28z"/>
        <path fill="currentColor" d="m4327 10360c-91-16-112-67-54-125 22-22 53-39 93-50 99-27 103-30 110-77 13-81 97-134 185-117 27 5 76 4 126-3 83-12 132-6 140 18 7 22-43 68-104 95-65 30-76 42-87 96-7 29-5 32 21 35 20 2 29 9 31 25 4 31-17 39-147 58-62 9-127 23-145 30-45 18-113 24-169 15z"/>
        <path fill="currentColor" d="m735 10133c-30-8-65-44-65-68 0-12 10-31 23-43 33-31 147-82 185-82 94 0 94 128 0 169-48 21-112 32-143 24z"/>
        <path fill="currentColor" d="m4955 10070c-8-13 22-67 44-80 33-17 71-13 71 9 0 40-97 100-115 71z"/>
        <path fill="currentColor" d="m214 10009c-10-17 13-36 27-22 12 12 4 33-11 33-5 0-12-5-16-11z"/>
        <path fill="currentColor" d="m4660 9886c-28-34 54-107 168-150 102-38 140-46 219-46 104 0 98-16-10-24-102-8-126-20-108-55 29-53 176-96 406-117 126-12 177-13 198-5 61 24 16 92-100 150-43 21-71 44-93 75-38 52-97 102-143 120-19 7-71 11-131 10-81-2-107 2-145 18-33 15-70 21-131 23-47 1-92 5-101 9-10 4-21 1-29-8z"/>
        <path fill="currentColor" d="m8866 9804c-30-29 9-77 82-102 41-14 82-1 82 27 0 17-51 71-68 71-4 0-24 4-45 9-28 7-41 6-51-5z"/>
        <path fill="currentColor" d="m6941 9687c-34-11-101-66-101-85 0-5 8-20 18-31 35-44 129-25 168 34 15 23 15 27 0 50-23 35-46 43-85 32z"/>
        <path fill="currentColor" d="m3262 9632c-15-15-35-42-44-59-9-18-34-41-55-51-21-11-63-42-94-69-53-46-61-50-124-56-93-9-99-16-91-102 20-195 24-207 84-232 30-12 37-12 58 2 13 8 24 23 24 32s3 13 7 10c3-4 9-48 13-98 8-103 16-116 81-127 42-7 44-9 49-48 6-43 39-105 90-169 18-22 41-57 51-77 33-64 67-69 113-19 24 26 58 27 80 2 27-29 16-54-28-66-73-21-68-46 31-157 74-84 119-122 171-145 31-13 39-12 85 6 29 11 66 23 82 26 18 4 49 27 81 61 28 30 58 54 67 54 26 0 97-69 97-94 0-31-57-83-110-100-25-8-75-18-113-21-84-8-98-25-67-84 28-56 25-75-15-105-46-35-58-61-50-103s77-120 123-140c37-15 63-11 105 19 35 25 52 13 68-44 13-51 10-58-37-83-44-22-53-49-34-96 19-45 74-87 138-104 98-28 112-36 175-109 71-83 98-106 124-106 27 0 41 12 48 43 8 32 7 32 47 11 23-12 47-15 85-11l54 6 92-93c85-87 101-98 220-155 132-64 190-110 232-182 36-61 157-129 190-106 14 11 14 16 0 57-9 25-17 74-18 110l-2 64-95 84c-125 110-187 145-259 147-52 2-120 20-181 49-21 10-24 18-22 48 4 48-34 123-91 175l-44 41-218-4-20-36c-17-31-18-43-9-87 13-63 7-59-82 55-72 92-109 165-100 197 3 12 21 32 40 44 22 14 36 32 38 48l3 26 35-26c45-34 107-50 126-34 8 6 14 27 14 46 0 34 1 35 31 29 37-7 93 15 108 43 6 11 30 41 52 67 38 44 41 51 35 91-9 70 13 66 103-20 134-125 211-166 292-152 42 7 71 37 62 64-11 30-74 101-103 116-16 8-44 15-63 15-47 0-63 16-92 89-13 35-36 79-51 98-28 37-212 188-250 205-33 15-59-5-87-66-18-38-38-62-69-84-25-17-52-41-61-54s-16-18-16-12c-1 15 91 155 113 173 43 36 57 100 32 150-23 43-102 111-131 111-28 0-59-40-75-101-9-31-18-40-61-58-70-29-92-27-124 10-20 24-25 41-23 68 3 35 4 36 50 39 48 3 85 32 71 55-3 5-9 45-14 87-11 112-56 190-146 249-44 30-54 31-99 14-7-3-13 15-16 46-5 53-38 108-84 137-52 35-104-13-104-96 0-38-2-41-22-34-45 15-70 6-119-42-56-55-68-54-106 12-29 51-29 86 2 122 14 17 25 37 25 45 0 23 40 67 61 67 12 0 34 13 50 29 42 43 39 75-14 125-24 23-54 58-66 79-40 65-70 76-115 38-18-15-18-14-12 35 14 96-39 174-116 174-30 0-46-7-66-28zm114-247c-22-16-46-20-46-7 0 15 13 22 39 22 25-1 25-1 7-15zm58-497c3-18 18-45 32-60 29-29 27-62-3-56-23 4-63 76-63 114 0 55 23 56 34 2zm490-40c-23-68-60-73-79-10-5 19-3 22 18 22 14 0 35 9 48 19 13 11 25 18 26 17 2-2-4-23-13-48zm331-844c-25-43-27-61-10-106 5-11-7-13-62-10-73 4-103 18-129 57-27 41-7 53 74 47 67-4 69-4 93 26 13 17 32 31 42 31 17 1 16-3-8-45zm61-155c19-11 32-25 28-30-7-11-33 2-58 30-24 27-13 27 30 0z"/>
        <path fill="currentColor" d="m2107 9560c-58-46-12-140 70-140 44 0 55 6 72 37 17 33 14 50-16 83-38 41-88 49-126 20z"/>
        <path fill="currentColor" d="m6595 9549c-22-10-49-19-60-19s-37-11-57-25c-55-38-155-31-260 16-99 46-102-10-6-108 61-61 61-63 43-83-46-50-158 13-123 70 17 27 4 46-56 88-62 41-100 42-149 1-38-31-39-31-135-28l-97 4-17-34c-27-54-31-56-95-38-67 18-305 17-311-1-2-6 23-29 55-53 32-23 72-54 88-70 42-39 95-59 159-59 94 0 71-18-31-25-54-3-107-7-118-8-63-6 17-105 107-132 28-8 70-15 91-15 34 0 46 6 77 40 20 22 46 40 57 40 12 0 57-18 101-40 106-53 156-70 207-70 81 0 84 52 5 109-43 31-78 45-144 56l-40 7 34 21c27 17 48 21 100 20 61-1 67-4 90-34 99-129 184-188 273-192 39-2 42 0 45 25 3 21-7 37-48 75-58 55-62 82-15 95 41 11 55 33 55 90s18 64 50 18c30-42 74-64 101-49 16 8 20 17 15 37-22 95-23 90 30 112 27 11 61 27 76 35 14 8 37 15 51 15s33 7 42 16c15 16 14 19-17 51-63 65-103 75-173 42z"/>
        <path fill="currentColor" d="m7036 9505c-6-17 26-55 47-55 14 0 37 19 37 31 0 32-73 52-84 24z"/>
        <path fill="currentColor" d="m9153 9503c-7-2-13-15-13-28 0-27 111-135 140-135 26 0 32 27 14 63-43 83-94 120-141 100z"/>
        <path fill="currentColor" d="m7133 9399c-49-18-30-97 28-118 65-23 114 36 72 87-22 27-71 42-100 31z"/>
        <path fill="currentColor" d="m6793 9328c-45-15-84-59-85-96-1-19 10-47 25-70 23-32 36-72 23-72-2 0-50 15-107 34-57 18-109 31-116 29-22-9-15-35 18-69 38-39 33-64-10-64-34 0-58-21-77-67-26-61-20-77 49-121 89-59 147-83 169-71 26 14 39 44 32 76-6 28-5 29 29 25 27-3 38 1 52 20l17 23-6-25c-3-14-6-33-6-42 0-10-16-33-35-52-58-58-46-127 34-199 61-55 95-47 136 32 13 27 36 58 50 69s36 45 50 76c16 36 34 61 50 68 14 6 41 33 60 60l35 48h65c109 0 156 42 108 98-35 40-319 256-362 275-52 23-152 31-198 15z"/>
        <path fill="currentColor" d="m1315 9297c-13-21-13-29-1-64 21-61 62-137 92-173 49-57 130-78 157-39 22 30 11 53-62 134-36 40-84 94-107 119-46 52-57 56-79 23z"/>
        <path fill="currentColor" d="m1723 9215c-31-22-29-56 5-89 55-52 135-41 135 18 0 60-92 106-140 71z"/>
        <path fill="currentColor" d="m4003 9180c-30-12-37-44-18-74 23-35 95-80 150-96 42-12 45-15 45-45 0-51 8-62 76-111 79-56 94-77 87-118-7-42 23-78 88-107 44-20 55-31 81-82 39-79 68-104 136-118 71-14 89-23 97-49 8-25 146-145 197-171 46-23 222-49 339-49 47 0 119-7 158-16 219-50 197 73-44 245-132 94-238 153-315 175-91 26-269 47-374 44-96-2-99-2-122 25-27 32-30 50-11 69 16 15 164 17 293 4 75-8 83-7 92 10 5 10 6 28 2 40-11 28-240 246-318 302-79 56-120 71-197 72-33 0-141 14-240 30s-180 30-180 29c0 0-10-4-22-9zm1157-780c0-13-30-13-50 0-11 7-7 10 18 10 17 0 32-4 32-10z"/>
        <path fill="currentColor" d="m5282 9088c-40-40 17-118 88-118 81 0 76 62-9 105-57 29-63 29-79 13z"/>
        <path fill="currentColor" d="m2344 8932c-36-24-16-71 44-101 78-39 132-34 132 13 0 53-131 119-176 88z"/>
        <path fill="currentColor" d="m5726 8904c-9-8-16-20-16-27 0-27 111-116 201-161 52-26 95-52 95-57 3-20 4-21 17-10 15 11 43-14 106-96 39-51 66-59 201-64 220-7 369-4 381 8 36 36-44 111-162 154-49 18-73 36-140 106-98 102-130 123-189 123-25 0-82 9-128 20-109 26-342 29-366 4zm245-77c45-30 51-57 12-57s-93 35-93 60c0 28 38 26 81-3z"/>
        <path fill="currentColor" d="m7430 8845c-19-7-50-14-68-14-18-1-42-6-52-11-22-12-70-89-70-112 0-8 23-33 52-54 61-46 68-60 35-75-20-9-33-7-72 10-65 29-82 27-101-11-9-18-27-47-40-64-31-40-56-113-50-140 8-32 108-118 173-150l56-28 39 21 38 21v-41c0-24 9-56 20-74 26-43 96-93 131-93 38 0 87 44 99 90 6 21 28 60 50 87 22 26 48 72 57 100 21 66 39 82 132 118 88 33 108 51 116 102 3 21 11 55 17 75s8 45 6 56c-5 19-2 20 46 15 41-4 56-2 69 12 23 22 21 31-8 60-16 17-35 25-58 25-41 0-57-15-57-53 0-22-4-27-17-23-10 2-28 7-41 11s-45 1-72-6c-60-15-79-8-185 76-67 53-141 86-189 84-12 0-37-7-56-14zm306-210c8-21-11-41-45-48-16-3-41-9-57-13l-27-7 33 41c25 32 40 42 62 42 16 0 31-6 34-15zm-256-283c0-7-31-35-97-85-22-16 5 57 28 76 22 17 69 24 69 9z"/>
        <path fill="currentColor" d="m1809 8644c-18-22-16-103 5-142 37-71 151-90 185-31 19 35 8 71-36 120-59 65-125 88-154 53z"/>
        <path fill="currentColor" d="m3024 8635c-8-20 36-77 80-104 35-22 66-19 66 5 0 19-58 82-91 100-36 18-48 18-55-1z"/>
        <path fill="currentColor" d="m5825 8565c-35-34-31-65 21-161 64-118 96-136 152-89 34 29 47 20 32-21-14-35-5-77 21-100 25-23 24-38-1-24-37 20-72 8-102-35-33-49-34-62-6-127 18-43 33-58 96-99 52-34 85-49 109-49 31 0 36 4 54 48 41 94 39 106-29 173-69 66-61 77 18 24 29-19 60-35 69-35 46 0 75 84 47 138-9 17-44 64-78 104-33 40-71 96-84 124-39 83-69 104-196 134-103 25-94 25-123-5z"/>
        <path fill="currentColor" d="m9903 8455c-3-9 1-37 8-63s14-74 14-107c2-90 3-92 38-131 17-20 50-65 72-99 43-68 173-247 259-358 58-74 95-144 151-285 24-59 52-108 86-148 52-62 89-155 89-225 0-43-50-130-92-162-63-46-289-149-315-142-38 9-103 83-103 116 0 25 5 30 58 45 117 36 117 69-3 130-42 21-93 53-113 69-21 17-67 52-104 78-36 26-115 100-175 164-188 205-257 263-376 319-59 27-91 30-127 9-47-27-67-19-143 58-79 80-156 124-268 153-78 21-124 14-174-26-21-17-45-30-54-30-41 0-98 72-86 109 3 11 30 25 74 39 112 36 106 54-63 187-236 186-280 205-486 205-158 0-158 0-185-94-15-53-16-62-2-96 14-38 14-39-9-44-46-12-63-62-40-116 5-12-2-18-26-25-43-13-72-63-63-107 14-62 160-190 235-205 46-9 70 18 70 78 0 40 4 51 24 64 13 9 37 41 53 71 15 29 30 54 33 54 7-1 40-73 40-87 0-6-13-16-30-22-43-15-38-40 21-106 29-30 50-58 47-60-3-3-25 2-50 12-51 18-84 12-74-14 5-11-2-24-20-38l-27-22 36-39c48-53 119-89 170-85 21 1 56 72 57 112 0 14 7 47 16 72 21 61 49 70 98 33 42-32 71-79 81-131 4-21 13-52 21-67 13-26 13-28-11-44-27-18-34-64-12-82 6-5 39-18 72-28 65-20 46-34-20-15-20 5-43 7-51 4-33-13-7-49 91-126 104-81 137-97 164-80 29 18 61 75 61 109 0 23 5 34 14 34 36 0 29-87-11-157-27-46-24-61 19-99 36-33 162-104 184-104 21 0 54 30 73 67 12 23 2 65-19 78-16 10 7 25 37 25 28 0 45 30 37 67-3 16 2 48 11 73s21 68 26 95c13 76 50 105 133 105 49 0 70-5 96-22 61-42 60-50-6-117-56-59-61-61-96-55-51 8-58-13-24-70 23-40 26-55 26-145 0-95-1-102-26-126-24-24-26-32-22-86 5-71 23-93 148-178 111-76 142-91 184-91 29 0 38-5 50-27 23-44 94-109 156-142 64-34 101-39 120-16 21 25 56 17 110-26 62-49 70-65 41-86-49-34-20-63 177-179 86-50 300-214 315-240 5-9 3-16-8-20-16-7-26-4-90 20-22 8-54 15-71 16-28 0-30 3-26 28 3 24-5 36-50 77-79 71-172 135-228 156-57 22-138 24-190 5-34-13-35-14-32-65 1-28-1-51-6-51s-58 24-118 53c-107 51-111 52-195 51-154-2-175-18-136-106 34-77 105-131 238-183 72-29 94-46 120-96 20-41 17-49-20-49-35 0-99-45-106-73-2-12-4-38-2-57 2-34 1-35-34-32-74 5-75-45-3-104 30-25 47-48 54-75 6-21 29-72 51-113 65-121 226-258 319-272 55-8 98-36 170-110 45-47 51-55 30-50-14 4-62 10-107 15-88 9-129 27-259 116-74 51-114 59-114 22 0-24 30-57 88-96 39-27 34-41-18-41-22 0-70-5-107-12l-68-11-122 62c-67 35-130 61-140 59-19-4-21-19-8-75 5-23 4-33-4-33-15 0-155 119-159 136-2 8 18 15 63 19 78 9 93 26 52 60-56 43-142 90-217 116-74 25-152 70-179 103-12 14-9 16 28 16 45 0 134-45 280-143 40-27 93-58 118-69 44-19 44-19 106 1 34 11 75 23 90 26 48 10 46 34-8 82-62 57-114 83-164 83-37 0-45 6-118 86-43 48-107 107-143 133-60 43-69 46-130 47-36 1-78 7-93 13-53 21-239 6-275-22-9-7-13-27-10-59 4-63-9-62-82 8-45 43-73 60-120 75-88 27-122 6-83-51 24-35 40-46 103-69 30-11 79-38 107-60 64-48 107-60 132-37 17 15 20 15 42-3 23-18 23-20 6-38-9-11-17-28-17-38 0-34 107-160 209-246 34-30 71-70 81-89 25-48 76-95 130-119 56-25 76-26 89-3 9 16 12 16 47-3 20-11 55-36 78-57l41-37-38-1c-75 0-55-51 36-91 49-21 90-27 225-28 49-1 57-4 105-50 29-26 62-54 75-60 12-7 78-58 146-115 221-184 352-266 428-266 35 0 68-20 68-42 0-5 9-21 20-35 43-55 27-55-91-2-71 32-98 40-123 34-86-18-101-17-136 7-32 22-43 36-95 120-14 22-64 60-160 118-77 47-156 95-175 108-43 27-70 28-70 4 0-10 17-28 41-42 51-31 109-79 109-91 0-29-174 78-420 256-93 68-205 143-248 169-104 59-132 93-132 155 0 36-5 52-22 68-29 27-306 198-335 207-12 4-38 3-57-3-44-11-54-1-65 66-4 26-14 58-22 70-7 13-84 69-169 125-158 103-284 197-277 205 3 2 22-3 43-12 43-18 84-13 84 10 0 8-14 30-31 50-34 38-32 40 21 25 39-11 100 2 140 30 22 15 43 17 155 13 140-4 177 4 183 43 2 15-16 36-65 77-37 32-89 82-116 111l-47 55 27 3c35 4 33 27-8 82-16 22-28 41-26 42 1 1 34-13 72-31 77-37 95-41 113-23s15 50-11 120c-26 69-26 148-1 148 19 0 180-47 203-59 10-6 21-17 24-25 7-18-17-46-39-46-28 0-26-30 5-65 35-40 35-40 31-146-1-56 3-87 15-113 21-45 109-124 170-155 41-20 46-21 73-7 16 8 34 22 41 30 25 30 48 19 61-28 6-24 30-66 51-92 22-27 53-66 69-86 32-39 111-81 174-92 76-14 97 47 53 155l-23 56 27 15c52 30 51 149-1 232-51 80-230 201-288 194-41-5-64-57-60-135 2-35 1-63-3-63-3 0-19 10-35 22s-31 23-32 24c-2 1 7 16 19 33 28 38 30 116 4 177-11 27-14 50-9 74 4 19 6 41 5 48-3 17 1 16 103-25 80-33 101-37 176-37 76-1 92 3 155 33 57 27 88 34 167 41 107 9 118 12 118 41 0 26-66 72-180 127-71 34-109 59-152 103-70 71-250 191-314 209-37 11-68 34-150 110-120 113-226 175-327 191-34 5-70 12-80 15-18 6-17 7 2 21 35 24 25 49-36 98-136 107-284 155-481 155-128 0-322-19-339-32-20-16-15-53 10-75 35-32 176-110 233-128 28-9 107-25 175-34l124-19-82-1c-45 0-88-4-97-7-27-10-18-40 22-76 81-73 217-117 363-118 42 0 96-7 122-16 44-15 51-15 96 1 53 20 85 16 122-14 36-29 12-51-59-51-65 0-232-47-240-68-3-8 0-22 6-31 22-31 62-110 62-124 0-7 11-24 25-37 22-21 39-25 133-31 59-4 124-11 144-14 32-6 35-10 26-25-17-27-4-46 66-97 36-26 64-48 62-50-8-8-129 23-173 45-49 24-52 25-77 9-14-9-33-17-42-17-40 0-174 136-174 177 0 7-37 31-82 52-46 21-92 46-103 54-19 14-19 16-2 22 35 14 19 51-54 119-82 77-131 106-157 90-37-23-26-52 43-119 56-54 65-67 56-83-8-14-5-28 9-54l19-36-29-6c-22-4-31-13-36-33-4-15-12-34-18-42s-10-47-9-95c2-70-1-85-22-122-14-24-25-53-25-67 0-36-7-37-63-11-59 27-79 29-140 12-70-18-194 2-265 44-45 27-57 39-57 58 0 33 54 60 120 60 28 0 55 4 61 8 21 14 23 41 4 65-34 43-183 149-268 190-91 44-107 63-98 112 6 28 2 36-25 59-24 20-41 26-79 26-27 0-71 8-97 19-106 41-148 45-248 26-88-18-98-18-193-2-56 9-123 17-151 17-32 0-55 6-65 16-19 18-18 14-5 51 10 30 11 30 97 36 101 6 121 12 131 41 13 35 1 54-67 109-45 35-61 53-50 55 9 2 30-4 47-12 39-21 51-20 51 3 0 25-16 37-86 65-50 20-65 33-103 86-59 83-107 117-179 125-31 4-76 11-99 16s-88 9-145 10c-112 1-244 20-277 40-26 17-45 54-37 74 5 14 25 16 143 15 203-2 201-2 213 19 8 16 5 26-16 50-21 25-33 31-65 31-23 0-61 11-89 25-51 26-66 41-30 32 10-3 24 1 31 9 9 11 4 20-19 44-33 32-39 35-61 21-12-8-13-14-3-36 11-24 10-25-7-15-11 5-29 21-40 36-16 20-18 31-10 51 13 35-12 75-80 131-45 37-59 43-84 38-19-4-60 3-106 16-66 20-99 23-246 23-132 0-177-3-200-15-57-29-38-90 41-136 23-14 69-55 101-91 67-77 200-169 300-207 54-20 76-36 106-72 20-26 42-65 49-88 16-53 104-142 180-179 31-16 64-39 72-51 26-40 76-85 144-130 82-53 99-71 137-149 22-47 39-67 67-82 32-17 41-18 58-7 26 16 27 16 34-12 10-39 53-84 94-97 80-25 179-86 243-149 37-36 87-84 112-108 33-32 53-63 74-115 24-62 39-83 106-147 44-41 124-119 178-173 96-94 130-119 157-110 49 18-85 207-215 304-43 32-53 45-53 69 0 16 5 32 11 35 16 10 117-45 172-94 46-42 49-47 43-81-9-55 23-84 184-167 96-49 100-53 272-230l60-61-41 5c-32 4-42 2-47-11-10-27-30-19-91 38-96 89-174 119-181 70-2-15 12-35 46-65 49-45 140-193 124-203s-90 54-121 104c-21 34-39 51-58 56-74 16-104 34-244 145-188 149-229 177-292 201-77 29-167 97-167 125 0 7 11 18 25 23s30 20 36 33c9 20 18 23 52 23 36-1 42 2 45 21 4 31-82 121-175 184-87 59-111 69-140 58-19-7-23-4-29 24-8 38-128 161-191 195l-41 22-31-25c-59-50-50-119 25-185 73-63 156-84 225-55 13 5 20-2 28-28 6-18 26-50 44-69 18-20 40-44 48-54 12-16 12-17-1-9-8 4-27 17-42 27-15 11-44 18-70 18-38 0-60 10-150 69-196 127-465 340-440 349 6 2 29-6 51-17 49-26 67-26 80-3 11 21-6 75-37 120-25 35-27 43-8 36 7-3 21 2 30 11 14 14 14 19 1 44-25 50-185 170-261 196-29 10-39 20-50 51-15 44-77 103-141 135-56 27-76 22-87-23-6-23-18-40-33-47-17-8-23-19-23-41 0-38-10-38-85 1-71 36-98 59-136 118-41 64-36 69 21 19 88-75 140-93 140-47 0 10-8 27-18 37-36 36-52 67-52 102 0 60-18 103-69 166-54 67-131 129-173 139-21 5-33 1-54-20-23-23-26-33-21-68 2-23 8-50 12-59 17-43-83-8-203 70-80 52-124 67-151 52-31-16-71-75-77-112-5-31 0-42 51-101 37-44 75-76 108-94 29-14 69-41 90-59 20-19 47-34 60-34s70-30 128-66c57-37 135-80 173-96 83-34 96-44 96-73 0-38 411-430 498-474 20-10 78-31 127-46 130-39 255-109 255-142 0-30-113-203-154-236-57-46-55-46-137-57-62-9-81-8-120 6-53 19-79 14-79-15 0-14 24-36 78-72 98-66 145-105 315-259 230-208 320-255 443-230 93 19 189 59 219 90 21 22 28 42 36 100 12 101 26 116 54 58 8-18 42-64 75-102 65-75 85-124 74-182-12-64-38-83-154-110-111-27-130-36-130-64 0-42 455-440 566-495 30-15 96-33 164-45 84-14 126-27 159-48 45-27 46-29 45-78 0-27-4-63-8-80-11-44 28-86 144-153 53-31 105-71 123-94 59-72 309-241 434-291 32-13 86-29 119-36 56-11 66-10 109 9 53 23 91 26 147 11 41-12 52-27 74-100 8-29 25-57 41-70 14-11 24-22 22-23-2-2-26-12-54-23-40-15-51-25-53-45-3-22 17-41 150-144 172-135 209-170 201-191-17-44-171 23-618 267-88 48-205 106-260 129s-131 56-170 72c-71 30-107 60-137 116-25 47-85 73-161 70-56-2-77 3-222 62-312 126-1137 560-1162 610-7 14-22 47-34 73-25 56-82 103-137 113-27 5-45 1-78-17l-43-23-43 21c-52 25-440 269-837 526-287 187-294 192-317 241-24 52-79 114-122 136-19 9-31 9-60-3-20-8-44-12-52-9s-103 69-210 147-244 173-304 211c-99 62-112 74-138 124-15 30-37 88-49 129-18 65-28 81-77 130-57 56-282 199-351 222-32 11-36 10-56-15l-22-28-114 96c-130 109-189 143-222 129-19-9-21-18-22-96-1-80 0-89 23-109 19-19 35-23 86-23 56 0 67-4 114-39 29-21 64-58 78-82 19-31 41-52 74-69 31-15 59-40 77-67 22-33 57-60 155-119 126-75 127-75 97-86-53-20-30-91 38-120 31-12 38-12 60 2 18 12 24 23 20 41-2 13-1 24 3 24 15 0 124-88 225-179 134-122 208-174 504-354 243-147 388-244 461-306l35-30-53-1c-57 0-69-11-58-55 11-45 108-74 136-40 7 8 10 26 8 39-5 25-5 25 26 9 44-22 202-133 261-183 28-23 123-77 214-122 91-44 262-140 380-213 403-247 598-354 1081-595 201-100 385-196 408-212 24-17 81-65 126-108 107-101 134-117 307-185 79-32 161-66 182-77 24-12 49-17 65-14 39 8 61-8 161-119 104-115 113-138 49-129-109 16-220 64-445 191-73 41-198 104-279 139-80 35-162 73-180 85-19 11-42 19-51 17-34-6-18-33 43-73 33-22 82-57 109-78 46-35 175-102 505-260 155-74 205-108 252-171 42-57 65-68 112-54 29 9 47 8 89-5 28-9 255-118 504-242 249-123 474-230 500-236 26-7 68-22 93-35 64-32 234-207 259-267 19-43 24-48 48-45 19 2 32 12 42 33 8 17 19 33 25 38 25 17 30 13 547-302 64-39 184-107 267-152 151-81 152-82 158-121 8-45 19-51 104-62 120-15 280-67 342-111 22-15 21-15-22-9-91 12-81-44 19-107 25-16 57-29 73-29h27v85 85l-107 62c-59 34-188 112-287 172-245 149-279 166-334 167-38 0-42 2-23 9 12 6 22 18 22 30 0 30 25 26 163-26 135-52 279-121 345-166 39-27 201-108 216-108 3 0 6 302 6 672 0 662 0 671-19 654-33-30-55-17-63 39-8 60-34 85-87 85-50 0-145 56-149 89-3 15 4 28 20 39 33 24 39 22 52-18 8-26 22-41 54-57 61-31 136-39 167-19l25 16v254c0 213-2 256-15 266-8 7-15 20-15 30s7 23 15 30c23 19 22 346-2 372-15 17-15 18 1 18 15 0 16 22 15 229l-1 230-29 6c-17 4-57 18-89 31-70 28-97 30-122 7-13-11-37-17-71-18h-52l-3-42c-2-30-8-43-18-43-26 0-197 91-264 140-79 59-144 125-136 138 10 17 119-8 191-43 78-39 154-46 189-20s82 17 187-35c100-51 139-57 139-24 0 9-13 27-30 41-45 37-39 47 24 39 30-3 61-9 70-12 14-5 16 5 16 73v80l-61 34c-122 69-154 93-157 120-4 35 35 84 54 68 8-6 14-20 14-31 0-37 22-60 83-89l62-29 3 353 3 352-23 15c-37 24-108 92-108 102 0 6 26 9 65 6l65-4v42c0 41-1 42-72 84-90 54-145 109-183 184-37 72-91 114-125 96-27-14-21-47 16-96 36-46 24-58-48-50-44 4-80 0-141-15-45-12-85-26-88-32-4-5 1-28 11-51 17-37 18-65 14-278l-5-237 26-48c14-26 25-53 25-59s10-24 22-39l21-28-24 13c-31 17-88 60-164 126-78 67-110 126-125 231-12 78-11 83 9 109 19 24 20 37 17 143-2 64-8 127-15 138-10 19-8 24 11 34 13 7 35 22 50 34 15 13 59 35 98 50 88 33 102 55 63 93-15 15-129 91-253 169s-234 151-244 162c-25 28-14 69 21 77 15 4 47 1 72-6 115-33 141-22 141 61 0 27 4 49 9 49s58-51 116-114c59-63 120-120 135-126 60-25 88 27 57 103-8 18-64 78-125 135-71 66-126 128-153 170-23 37-62 89-87 117-61 68-88 110-167 255-37 69-109 190-159 270-49 80-106 177-126 215-19 39-45 83-58 99-16 21-22 42-22 80 0 64-11 76-155 168-55 36-121 86-147 111-52 52-56 54-65 32zm-4473-605c0-5-4-10-10-10-5 0-10 5-10 10 0 6 5 10 10 10 6 0 10-4 10-10zm3717-225c49-21 103-63 103-80 0-11-16-13-82-9-46 3-88 2-94-3-6-4-17-21-25-38-13-27-20-30-65-33-46-3-55 1-95 34-24 20-50 45-57 55-11 16-10 17 18 9 16-5 40-16 52-24 51-36 107-9 150 72 19 36 40 40 95 17zm338-555c-3-5-10-10-16-10-5 0-9 5-9 10 0 6 7 10 16 10 8 0 12-4 9-10zm473-6c25-17 30-54 7-54-14 0-55 37-55 50 0 8 11 20 19 20 4 0 17-7 29-16zm-4112-32c16-10 36-52 26-52-13 0-62 40-62 51s21 12 36 1zm3948-93c-21-23-40-24-48-3-4 9-5 18-4 19 40 31 82 17 52-16zm-123-249c22-13 25-30 4-30-8 0-19 9-25 20-12 23-7 25 21 10zm517-71c63-44 112-82 110-85-3-2-18 0-35 5-43 13-63-2-63-48 0-45-8-56-29-37-9 8-35 19-58 25-42 12-97 63-90 85 2 6 18 10 35 8 44-4 48 13 14 65-30 46-33 63-9 63 7 0 63-37 125-81zm-3030-11c29-29 13-38-65-38-84 0-86 5-15 30 60 22 66 22 80 8zm209-14c-3-3-12-4-19-1-8 3-5 6 6 6 11 1 17-2 13-5zm3439-60c33-16 64-48 64-68 0-5-20-6-45-4-53 6-81-9-73-40 6-20 3-21-37-15-52 7-64-8-91-104-10-35-21-63-26-63s-7 9-3 19c3 11 7 58 8 105 2 84 2 86 27 86 36 0 46 10 65 58 15 36 21 42 47 42 17 0 45-7 64-16zm-2311-144c14-16 16-23 6-33-16-16-45 3-49 32-4 27 19 28 43 1zm2120-315 30-24-42-1c-39 0-43 2-43 25 0 32 17 32 55 0zm-4080-2c-4-10-12-39-18-65-10-39-16-48-37-50-18-2-31-15-46-43-18-34-25-40-52-39-54 3-121 65-108 100 4 10 22 14 61 14 69 0 110 17 154 64 37 39 57 47 46 19zm1533-161c2-7-2-10-12-6-9 3-16 11-16 16 0 13 23 5 28-10zm349-167c3-9 3-19-1-22-7-7-36 16-36 28 0 15 30 10 37-6zm3153-94c0-11-4-23-10-26-6-4-10 5-10 19s5 26 10 26c6 0 10-9 10-19zm-754-81c42-30 62-65 51-94-7-18-83-36-157-36-61 0-62 1-118 53-68 65-84 71-113 48l-21-17 23-53c20-48 21-58 10-95-25-84-25-86 5-117 51-53 123-101 187-123 53-18 62-25 65-47 2-21-4-32-28-49-28-20-31-26-25-57l6-35-57 41c-58 41-58 41-78 22-19-20-19-20 6-58 14-21 48-65 76-98 41-48 48-61 34-63-9-2-24-13-33-24l-16-21-32 22c-45 32-115 128-135 186-26 74-25 89 4 93 35 5 50 20 50 50 0 39-86 115-216 191-195 115-330 218-311 237 3 4 29-3 58-15 65-29 83-23 75 24-5 27-4 35 7 35 17 0 119-74 180-129 53-48 83-64 107-56 37 12 25 58-31 119-28 30-48 60-44 66s60 10 138 11c73 1 143 5 157 9s49 8 78 9c44 1 61-4 98-29zm-3355-50c24-13 24-34 0-134-18-73-23-83-67-121-44-39-47-45-48-91-1-43-4-49-23-52-36-5-93 28-110 64-21 43-13 58 36 72 22 7 68 29 101 49 68 40 79 63 61 125-11 34-10 43 3 57 9 10 16 23 16 29 0 15 6 15 31 2zm572-100c60-28 117-78 117-102 0-16-5-19-27-14-16 2-45 7-65 11-66 10-119 80-86 113 15 15 11 16 61-8zm-50-206c134-125 147-141 147-175 0-39-16-69-38-69-18 0-104 31-158 56-53 25-70 99-38 164 15 30 15 35 0 66-9 20-11 34-5 34s47-34 92-76zm3237 41c0-8-6-15-14-15-17 0-28 14-19 24 12 12 33 6 33-9zm-1095-74c10-21 12-32 4-37-16-9-53 31-46 50 10 24 25 19 42-13zm1155-1c0-5-9-10-21-10-11 0-17 5-14 10 3 6 13 10 21 10s14-4 14-10zm-285-20c3-5-14-14-37-20-24-6-51-13-60-16-31-9-19 16 15 31 38 17 73 19 82 5zm-2507-362c-6-18-28-21-28-4 0 9 7 16 16 16s14-5 12-12zm336-159c188-101 245-139 300-200 37-40 42-65 14-63-8 1-91 50-184 109-92 60-187 114-210 121-91 27-157 82-133 110 6 8 19 14 27 14 9 0 93-41 186-91zm2057 52c16-16 29-34 29-40 0-22-27-10-65 29-36 37-37 40-16 40 12 0 36-13 52-29zm-519-26c31-27 114-55 161-55 16 0 45-8 64-17 37-17 213-178 213-194 0-21-78 4-295 94-33 14-81 29-107 32-27 4-48 8-49 9-4 12-24 156-21 156 2 0 17-11 34-25zm-283-20c27-13 41-33 41-56 0-14-36-2-80 25-19 11-48 26-65 33-29 11-28 12 23 12 29 1 66-6 81-14zm1462-66c16-11 29-25 29-30 0-17-33-9-57 13-42 40-22 53 28 17zm-302-48c20-15 62-43 94-61 44-25 57-36 51-49-4-9-6-26-5-39l1-22-48 24c-60 30-147 99-162 127-14 25-6 49 16 49 9 0 33-13 53-29zm-1009-131c17-13 20-20 10-20-8 0-26 9-40 20-17 13-20 20-10 20 8 0 26-9 40-20zm-1904-31c49-13 62-24 38-33-18-7-97 25-109 45-6 9-3 11 10 6 10-4 37-12 61-18zm3310-36c39-17 39-17 11-21-28-3-57 12-57 29 0 12 2 12 46-8zm-686-40c60-16 124-49 183-96 85-66 61-99-27-36-63 45-108 55-114 25-5-23 40-70 133-141 39-29 77-61 85-70 19-23-84 29-210 106-148 89-180 89-180-2 0-45-2-49-24-49-16 0-32 13-51 41-47 67-82 73-111 18l-15-29-47 24c-26 13-58 33-72 45-25 21-25 21-5 36 16 13 33 14 85 8 113-14 180-8 243 20 65 30 72 50 32 87-14 13-25 27-25 31 0 10 42 3 120-18zm-1557-34c85-43 211-123 199-127-17-5-146 61-212 108-60 44-54 52 13 19zm-258-129c18-36 19-60 2-60-23 0-110 97-104 115 6 14 11 13 47-5 22-11 46-33 55-50zm74-250c110-59 261-205 261-252 0-7 14-33 30-58s30-48 30-52c0-15-32-8-103 22-82 34-153 91-199 158-17 26-55 77-85 114l-53 67 27 15c35 19 26 21 92-14zm1481-120c35-28 82-55 105-61 82-23 112-52 85-84-19-23-44-18-123 21-102 51-122 68-136 111-7 21-15 44-17 51-11 25 23 10 86-38zm-637 14c18-9 84-52 147-94 139-94 144-97 217-115l58-15-47 4c-31 2-55-2-69-12-19-13-21-21-15-73 10-88-9-174-45-200-34-24-35-35-12-83 15-32 15-37 1-53-8-10-20-33-28-50-12-31-16-33-60-33-49 0-80 17-80 44 0 7-18 38-40 69-22 30-40 58-40 61s15 6 34 6c25 0 39 7 51 23 10 15 26 22 47 22 50 0 47 27-5 67-46 34-73 66-63 75 3 3 32-6 63-20 90-40 126-40 121 0-3 25-17 35-113 83-125 63-134 76-91 139 14 20 26 41 26 45s-25 34-57 67c-57 60-57 72 0 43zm-228-34c10-11 15-20 11-20-14 0-46 21-46 30 0 16 16 11 35-10zm-991-250c14-5 92-51 173-101s216-131 301-178l154-86-41-6c-22-3-49-13-59-22-26-23-42-22-117 12-235 107-515 299-515 354 0 34 51 48 104 27zm-32-206c46-20 87-40 93-45 15-15-83-10-121 6-49 20-95 55-89 66 10 15 31 11 117-27zm1951-67c4-10 2-28-5-40s-15-42-18-67c-5-43-6-44-19-22-14 26-19 172-6 192 7 12 33-22 48-63zm352-16c19-32 121-124 179-163 6-4 8-10 4-13-10-10-82 31-213 119l-120 81 40 6c79 12 83 11 110-30zm-2048-72c19-12 32-23 29-26-5-6-63 24-71 37-10 16 5 12 42-11zm2385-55c51-26 90-96 104-184 5-37 17-55 60-99 30-30 54-58 54-62 0-3-6-12-14-18-11-9-29-8-80 3-65 16-106 11-121-13-12-20-35-11-79 29-43 40-106 143-106 174 0 25 21 20 121-29 82-40 95-43 108-30 12 11 12 19 3 40-7 14-12 43-12 64 0 40-33 80-97 117-18 10-33 22-33 26 0 10 58-2 92-18zm-1667-124c94-54 174-105 180-114 12-19-27-103-51-113-24-9-76 22-184 108-137 110-150 125-150 169 0 38 6 50 24 50 6-1 88-45 181-100zm919-46c9-3 16-12 16-19 0-21-40-65-60-65-22 0-70 20-70 29 0 5 87 59 97 61 1 0 8-3 17-6zm-381-135c171-72 228-102 200-107-25-4-125 34-233 89-162 81-142 92 33 18zm166-245c3-3 0-9-6-15-12-12-77 4-88 20-4 8 85 2 94-5zm963-14c61-30 108-63 108-78 0-16-83 27-132 69-39 34-32 36 24 9zm-916-115c141-59 272-128 249-133-60-12-38-46 65-101 45-24 79-45 77-47-6-7-77 21-152 59-85 43-357 227-363 245-6 21 36 13 124-23z"/>
        <path fill="currentColor" d="m3041 8413c-28-23-21-64 16-93 49-39 111-14 98 39-14 57-75 86-114 54z"/>
        <path fill="currentColor" d="m5687 8383c-16-15-5-53 28-96l34-45-24-6c-15-4-25-14-25-24 0-23 54-74 107-102 49-25 73-18 93 29 18 44-2 92-64 156-72 73-130 108-149 88z"/>
        <path fill="currentColor" d="m6535 8375c-33-13-48-14-86-4-84 22-97 0-52-84 20-35 60-77 133-140 111-94 133-107 181-107 16 0 58-14 91-32 56-29 74-33 182-39 67-4 150-12 186-18 82-14 135-14 183 0 80 22 31 86-116 152-61 27-68 34-77 68-8 29-26 52-69 87-119 99-177 118-386 127-103 4-138 2-170-10zm104-106c19-11 47-33 62-48 15-16 49-34 74-40 40-10 66-33 53-46-3-3-27 2-53 10-29 8-66 12-90 8-24-3-51 0-63 6-33 17-58 131-29 131 6 0 27-9 46-21z"/>
        <path fill="currentColor" d="m3365 8263c-23-22-15-81 16-123 29-39 105-90 134-90 50 0 71 65 38 118-59 95-145 139-188 95z"/>
        <path fill="currentColor" d="m2111 8241c-25-25-27-48-6-77 18-27 75-54 112-54 94 0 54 134-43 147-34 4-46 1-63-16z"/>
        <path fill="currentColor" d="m6485 8036c-18-13-20-26-20-109 0-86-1-94-17-86-27 14-53 11-72-10-22-24-49-127-42-155 6-26 164-147 220-170 24-10 85-61 152-126 62-61 123-112 138-116 36-9 71 11 97 53 27 43 20 85-22 143l-31 42 51-28c63-36 84-27 89 35 6 82-15 147-66 201-52 55-153 120-187 120-29 0-55-31-80-93s-49-70-91-32l-29 26 26-5c48-10 99 52 99 121 0 46-37 106-93 150-64 50-94 59-122 39zm153-445c3-8-1-12-9-9-7 2-15 10-17 17-3 8 1 12 9 9 7-2 15-10 17-17z"/>
        <path fill="currentColor" d="m1953 8018c-27-13-47-59-38-87 17-55 141-122 199-107 70 17 24 146-68 190-39 18-61 19-93 4z"/>
        <path fill="currentColor" d="m3332 7985c-44-37-44-80 1-123 42-41 89-55 137-42 130 35 90 176-53 188-46 4-57 1-85-23z"/>
        <path fill="currentColor" d="m7464 7966c-9-23 15-56 49-71 37-15 47-12 47 16 0 45-82 91-96 55z"/>
        <path fill="currentColor" d="m1620 7899c-41-16-60-40-60-74 0-69 84-147 182-167 49-10 61-10 96 6 45 20 68 61 57 97-14 43-85 107-141 129-59 22-95 24-134 9z"/>
        <path fill="currentColor" d="m2402 7884c-25-17-31-79-10-117 25-48 83-109 140-147 94-62 158-64 158-3 0 65-122 223-204 262-51 25-55 25-84 5z"/>
        <path fill="currentColor" d="m7180 7831c-58-3-111-10-117-14-19-12-16-51 7-79 29-38 111-87 187-113 67-22 68-23 65-55-3-26 3-40 34-71 48-49 111-73 244-93 136-20 530-40 543-27 44 44-171 181-286 181-53 0-64 15-28 36 45 26 37 49-34 107-137 110-150 117-265 127-110 10-178 10-350 1z"/>
        <path fill="currentColor" d="m3700 7603c-26-34-21-71 16-121 26-33 76-62 109-62 23 0 55 37 55 65 0 40-36 101-73 124-47 29-81 27-107-6z"/>
        <path fill="currentColor" d="m7171 7462c-6-12-11-56-11-99 0-53-5-86-14-99-8-10-13-28-10-40 4-15-4-28-30-48-45-34-47-65-7-128 64-101 149-159 187-127 18 15 10 43-23 83-13 16-23 38-21 50 3 18 10 21 58 21 55 0 55 0 58 33 3 26 8 32 27 32 13 0 27 5 30 10 3 6 10 10 14 10 9 0 31-105 31-148 0-28 4-32 43-43 23-6 70-27 104-46 78-43 109-41 140 7 52 82 44 78 104 49 59-28 79-28 79 1 0 45-101 130-239 201-96 50-178 120-215 183-34 57-86 89-161 98-33 4-76 10-97 14-30 5-38 3-47-14z"/>
        <path fill="currentColor" d="m1853 7318c-29-14-46-58-37-94 10-40 131-164 152-157 31 10 42 36 42 92-1 76-27 133-73 154-40 19-53 20-84 5z"/>
        <path fill="currentColor" d="m3997 7292c-28-30-20-65 23-115 46-51 164-117 212-117 30 0 102 32 113 50 3 6 4 19 0 30-7 22-146 122-209 151-54 24-118 25-139 1z"/>
        <path fill="currentColor" d="m4290 6968c-57-30-23-103 78-166 120-75 192-77 192-5 0 50-35 118-77 151-29 21-48 27-102 30-41 2-75-2-91-10z"/>
        <path fill="currentColor" d="m7394 6905c-33-51-2-89 186-223 75-54 100-78 120-117 39-77 103-112 139-76 27 27 19 48-45 122-30 35-65 86-78 114-29 60-58 88-107 104-20 6-62 32-94 56-65 51-97 56-121 20z"/>
        <path fill="currentColor" d="m3897 6830c-38-55 54-145 101-98 31 31-6 101-59 113-20 5-30 1-42-15z"/>
        <path fill="currentColor" d="m5010 6807c-14-7-26-22-28-33-6-43 80-114 137-114 11 0 28 11 37 24 14 23 14 28 0 58-26 55-101 88-146 65z"/>
        <path fill="currentColor" d="m7983 6745c-28-20-30-64-5-93 28-33 178-114 203-110 30 4 54 46 46 80-23 88-182 168-244 123z"/>
        <path fill="currentColor" d="m5636 6667c-9-7-27-30-39-52-20-35-28-41-67-45-60-7-64-33-16-98 38-51 146-159 186-186 31-21 93-21 155 1 40 13 56 14 92 5 55-15 86-15 101 0 17 17 16 170-3 214-17 42-71 69-120 60-27-5-43 1-101 41-99 68-154 85-188 60z"/>
        <path fill="currentColor" d="m7922 6568c-14-14-15-98-3-172 7-39 16-57 46-84 33-31 41-33 79-28 24 4 55 2 71-4 38-15 60-5 79 34 29 62 16 136-30 178-18 15-200 88-221 88-5 0-14-5-21-12z"/>
        <path fill="currentColor" d="m11207 6553c-24-23 21-83 61-83 38 0 39 30 4 62-32 28-52 34-65 21z"/>
        <path fill="currentColor" d="m11416 6473c-14-14-4-38 38-98 56-77 109-125 141-125 50 0 29 46-64 143-57 59-103 91-115 80z"/>
        <path fill="currentColor" d="m4928 6334c-34-18-48-43-48-87 0-138 300-268 399-173 15 14 32 26 37 26s29-20 53-44c30-30 63-51 105-66 33-13 87-36 118-51 62-31 108-38 108-15 0 25-94 101-279 225-193 130-272 171-359 190-69 14-101 13-134-5z"/>
        <path fill="currentColor" d="m8527 5863c-16-16-1-38 94-140 110-119 202-185 257-187 43-1 60 21 47 61-10 28-35 44-135 87-27 12-70 46-106 84-85 89-134 118-157 95z"/>
        <path fill="currentColor" d="m6651 5363c-30-20-24-50 23-129 21-34 31-61 25-63s-42 11-81 29-90 35-114 38c-64 7-66-12-13-122 57-119 81-152 123-166 30-10 42-8 82 9 45 20 49 21 101 4 63-20 100-11 122 28 26 47 7 90-100 232-110 146-133 165-168 140z"/>
        <path fill="currentColor" d="m4912 5208c-17-17-15-59 4-87 36-50 126-62 140-19 16 51-108 142-144 106z"/>
        <path fill="currentColor" d="m5462 5168c-32-32 4-98 63-118 41-14 71-6 86 21 28 54-105 141-149 97z"/>
        <path fill="currentColor" d="m6360 4519c-48-30-59-48-60-97 0-37 6-50 33-77 42-42 79-53 111-32 29 19 58 78 63 132 10 84-67 123-147 74z"/>
        <path fill="currentColor" d="m9423 4493c-7-2-13-10-13-17 0-20 44-56 68-56 36 0 37 21 3 52-32 29-37 30-58 21z"/>
        <path fill="currentColor" d="m6762 4298c-21-21-13-46 29-87l41-39-17-31c-15-30-15-34 2-64 22-38 94-83 145-92 46-9 78 19 78 67 0 25-10 41-46 75-35 32-45 48-41 64 9 34-2 47-68 84-64 36-103 43-123 23z"/>
        <path fill="currentColor" d="m7807 4263c-15-14-6-43 20-63 28-22 64-24 70-4 9 27-71 86-90 67z"/>
        <path fill="currentColor" d="m7108 4110c-22-18-22-19-6-54 31-65 142-129 213-124 35 3 40 6 43 29 3 22-7 35-54 74-99 80-161 104-196 75z"/>
        <path fill="currentColor" d="m5046 4011c-54-60 28-295 115-331 39-17 84-4 115 33 23 27 26 38 22 83-7 83-71 184-140 220-39 20-91 18-112-5z"/>
        <path fill="currentColor" d="m5658 3855c-75-41-46-194 54-279 78-67 184-78 223-23 51 72-45 240-170 298-48 22-71 23-107 4z"/>
        <path fill="currentColor" d="m7330 3600c-67-67 61-196 204-207 72-6 96 9 96 59 0 59-134 154-234 165-36 4-48 1-66-17z"/>
        <path fill="currentColor" d="m7178 3475c-18-10-29-26-32-48-14-87-16-146-7-170 13-34 83-85 129-93 62-12 67-2 68 137 0 68-3 132-8 141-21 43-100 60-150 33z"/>
        <path fill="currentColor" d="m8295 3140c-21-24-14-61 21-108 29-38 64-58 129-72 39-9 52-8 71 5 40 26 32 66-22 114-85 75-164 99-199 61z"/>
        <path fill="currentColor" d="m7390 2960c-20-20-22-30-18-99 6-87 55-245 94-302 50-73 115-103 154-71 27 22 26 33-19 187-11 39-27 102-36 140-16 73-35 107-76 136-42 31-74 34-99 9z"/>
        <path fill="currentColor" d="m7628 2238c-21-23-41-52-44-65-10-38 129-290 183-333 55-43 123-15 123 53 0 33 17 42 54 27 38-14 69 3 60 33-10 35-82 125-184 229-114 117-131 122-192 56z"/>
        <path fill="currentColor" d="m10627 1759c-8-11-12-30-9-42 16-65 137-189 203-209 50-15 89-2 107 34 27 56-20 111-174 203-66 40-106 45-127 14z"/>
        <path fill="currentColor" d="m11237 1733c-28-28 43-102 124-128 139-46 102 62-39 115-56 21-75 24-85 13z"/>
        <path fill="currentColor" d="m10158 1589c-38-14-51-57-33-115 15-49 49-94 73-94 7 0 32 16 55 35 81 70 115 62 229-56 61-61 95-89 110-89 41 1 113 43 116 68 5 36-35 89-104 138-58 42-73 47-143 55-43 5-122 22-176 39-53 16-98 30-99 29 0 0-13-5-28-10z"/>
        <path fill="currentColor" d="m11140 1568c-11-4-25-18-31-32-10-20-8-33 11-70 26-55 151-190 223-243 29-20 113-95 187-166s147-138 163-149l27-19v64c0 88-14 122-65 157-45 31-181 187-172 197 9 8 72-33 160-105l77-63v126 125h-45c-57 0-110 22-155 64-19 18-59 52-89 76l-54 44-108 1c-60 0-118-3-129-7zm220-251c0-5-7-4-15 3s-15 20-15 29c1 13 3 13 15-3 8-11 15-24 15-29z"/>
        <path fill="currentColor" d="m8088 1319c-12-7-18-22-18-47 0-44-6-54-42-69-20-9-28-20-28-38 0-28 12-41 105-122 33-28 85-84 115-124s77-96 104-126c27-29 43-53 37-53-7 0-9-4-6-10 9-14 128-13 143 2 22 22 13 39-58 117-38 43-70 81-70 86 0 4 10 4 23 1 99-28 178-24 191 10 9 24-38 98-106 166-60 60-123 97-166 98-14 0-44 20-75 49-76 70-109 84-149 60zm206-260c32-38 60-89 48-89-7 0-68 76-86 108-14 24 13 11 38-19z"/>
        <path fill="currentColor" d="m9312 1238c-17-17-15-74 4-115 31-65 131-107 163-69 15 18 16 63 3 96-28 72-133 125-170 88z"/>
        <path fill="currentColor" d="m10261 1183c-60-42 14-143 127-173 85-22 120 37 62 104-51 58-152 95-189 69z"/>
        <path fill="currentColor" d="m10589 1068c-19-72 13-232 66-323 36-62 114-129 203-174 43-22 82-47 86-56 11-29 7-73-10-109-16-32-16-36 2-68 21-35 40-46 209-124 87-41 110-56 176-125 83-87 124-106 124-57-1 16 0 28 1 28s18-7 38-15c28-12 58-14 136-9l100 7v323 323l-37 10c-21 6-69 15-108 21-61 9-80 8-145-10-41-11-97-25-124-31-174-40-390 81-574 321-74 96-88 110-114 110-12 0-21-13-29-42zm578-622c116-49 333-159 333-168 0-13-23-10-203 28-95 20-179 43-188 51-27 22-51 123-30 123 5 0 45-15 88-34z"/>
    </g>
</svg>
