<svg width="664" height="500" viewBox="0 0 664 500" fill="none" xmlns="http://www.w3.org/2000/svg">
<g clip-path="url(#clip0_404_106)">
<path d="M292.127 5.2945C250.52 18.2966 194.871 60.9437 172.507 96.8296L162.105 113.992L107.496 116.073C61.2088 117.633 51.3272 119.713 42.4857 128.555C34.1643 136.876 32.6041 142.077 36.2447 151.959C39.3652 159.76 38.8451 167.561 35.2045 173.282C31.0438 180.563 32.6041 185.244 44.566 197.726C57.0481 211.248 58.0883 214.369 52.8874 224.771C49.2468 231.532 42.4857 241.933 37.2848 247.654C30.0036 256.496 28.9635 263.257 32.084 289.261C37.2848 331.388 29.4836 386.517 14.4011 419.803L1.39893 447.887L12.8408 455.169C26.8831 464.01 78.8917 471.811 78.8917 464.53C78.8917 461.93 74.2109 455.689 68.49 450.488C38.8451 423.963 82.5323 312.145 123.099 310.065C131.94 309.545 145.463 307.464 153.264 305.384L167.826 301.223L156.384 330.868C145.983 358.433 145.983 361.553 153.784 365.714C158.465 368.314 162.105 374.035 162.105 378.716C162.105 382.877 167.826 391.198 175.108 396.919C181.869 402.12 190.71 416.162 193.831 427.604C199.552 445.807 199.032 449.968 189.67 462.45C170.947 488.454 171.467 493.135 192.27 496.775C202.672 498.336 222.955 499.896 236.478 499.896C259.361 499.896 261.442 498.856 258.321 489.494C256.241 483.773 256.761 466.09 258.841 449.968C261.442 427.604 265.082 419.283 274.964 413.042C291.087 402.64 299.408 406.801 319.691 436.446C328.533 449.968 338.935 458.289 348.296 460.369C367.019 463.49 409.146 457.249 409.146 450.488C409.146 447.367 397.184 438.526 382.102 430.725C367.019 422.923 349.856 409.401 344.135 401.08C330.093 381.316 335.294 381.316 358.178 401.08C371.7 413.042 380.541 416.682 398.224 416.682C420.588 416.682 421.108 416.162 432.55 389.638C443.472 364.674 444.512 363.113 451.273 372.475C455.434 377.676 458.554 386.517 458.554 391.718C458.554 396.919 462.195 401.08 466.356 401.08C470.516 401.08 474.157 405.24 474.157 409.921C474.157 421.883 518.364 451.528 542.808 455.689C556.33 458.289 565.172 464.01 574.013 477.012C587.536 496.255 610.939 503.017 645.265 497.296C661.908 494.695 665.028 492.095 662.948 484.293C661.388 478.572 652.026 469.211 642.145 463.49C630.703 456.729 624.982 449.968 627.062 445.287C628.622 441.126 625.502 420.843 619.781 400.56C613.02 374.035 605.218 358.433 593.777 346.471C584.415 337.109 578.694 326.707 580.254 324.107C582.335 320.987 576.094 319.946 563.092 321.507C552.17 323.067 538.127 321.507 531.886 317.866C516.284 309.545 511.603 315.266 523.565 328.268C530.326 336.069 531.366 338.669 525.645 338.669C522.005 338.669 513.163 332.428 506.402 324.107C498.601 314.745 493.4 312.145 491.84 316.306C486.119 329.308 474.157 322.547 453.874 295.502C442.432 280.94 427.349 261.177 420.068 252.335C406.546 235.692 397.184 208.648 404.985 208.648C407.586 208.648 413.827 216.449 418.508 226.331C424.229 238.813 431.51 245.054 442.952 247.654C451.793 249.735 460.635 254.936 462.195 259.616C466.876 272.098 507.442 309.025 509.523 302.784C510.563 299.663 525.125 298.623 546.449 300.703L581.815 303.824L584.935 280.42C586.495 267.418 587.015 248.695 584.935 237.773C583.375 226.331 583.895 219.05 587.536 219.05C590.656 219.05 594.817 213.849 596.377 207.088C598.457 200.847 606.779 189.405 615.1 181.604C637.464 160.8 635.383 141.037 608.339 114.512C578.694 85.9078 567.772 80.1868 567.772 94.2292C567.772 107.231 568.292 107.231 525.125 93.189C503.802 86.4279 492.36 80.1868 496 78.1065C506.402 71.3454 485.079 46.9014 455.434 30.7787C407.586 4.77442 332.173 -6.66747 292.127 5.2945ZM378.981 17.2565C382.622 20.377 388.343 32.339 391.463 43.7808C398.224 69.265 395.624 71.3454 345.176 95.2693C318.651 107.231 312.93 111.912 315.531 119.193C317.611 123.874 320.211 136.356 321.772 146.238L324.892 164.441L311.37 151.959C304.089 145.198 294.727 141.037 291.087 142.077C287.446 143.117 276.004 160.28 266.123 180.043C246.879 218.01 235.438 225.811 206.833 220.61C188.11 216.969 185.509 200.327 197.991 167.041C203.712 151.439 207.353 137.916 206.313 136.356C204.752 135.316 195.911 139.997 186.029 146.758C173.547 155.599 159.505 176.923 136.621 221.65C106.456 280.42 55.4878 353.232 49.2468 346.991C47.1665 345.431 45.6062 323.587 45.0861 298.623C44.566 254.936 45.0861 250.775 64.3293 211.769L84.6126 171.202L125.699 151.959C162.105 135.316 168.346 130.115 182.909 106.191C209.953 61.4638 256.761 25.0578 302.529 13.0958C326.973 6.33467 368.059 8.41502 378.981 17.2565ZM371.7 111.392C369.62 126.474 371.7 130.635 385.742 142.597C394.584 150.398 407.586 156.639 413.827 156.639C424.229 156.639 439.311 169.642 458.034 194.086C463.755 201.887 463.235 202.407 448.673 196.686C439.831 193.566 432.55 187.324 432.55 183.684C432.55 178.483 427.869 177.443 412.267 180.043C393.544 183.164 389.903 181.604 370.14 163.921C351.417 146.758 348.816 142.077 351.417 128.555C354.017 115.553 367.539 94.2292 373.26 94.2292C373.78 94.2292 373.26 102.03 371.7 111.392ZM621.341 139.477C631.743 157.16 610.419 185.764 596.897 172.242C593.257 168.601 593.257 163.401 597.937 156.119C603.658 147.278 603.138 142.597 594.297 127.515C588.056 117.633 583.375 107.751 583.375 106.711C583.375 102.03 616.66 131.155 621.341 139.477ZM109.057 123.354C125.179 128.035 123.099 134.276 102.296 143.117C92.4139 147.278 79.4118 158.72 73.6908 168.081C67.9699 177.443 63.2891 182.124 63.2891 178.483C63.2891 174.842 59.6485 168.081 55.4878 163.401C48.2066 156.639 48.2066 154.039 54.4477 144.157C61.7289 133.236 82.0122 120.233 91.8938 120.233C95.0144 120.233 102.296 121.794 109.057 123.354ZM458.554 220.09C458.554 226.331 451.273 225.291 443.992 218.01C434.11 208.128 436.711 202.927 448.153 209.688C453.874 213.329 458.554 218.01 458.554 220.09ZM304.609 263.257C306.689 276.259 306.689 300.183 304.609 316.826L300.968 345.951L283.805 294.462C263.522 233.092 264.042 237.773 274.964 226.851C283.285 218.53 284.326 218.53 292.647 228.411C297.328 234.652 303.049 250.255 304.609 263.257ZM196.431 329.828C194.351 340.23 196.431 356.352 201.112 369.875C212.034 401.08 207.353 401.6 193.831 370.395C188.11 356.352 180.308 343.87 176.668 342.31C171.987 340.75 173.547 336.069 182.389 326.187C199.032 308.504 200.592 309.025 196.431 329.828Z" fill="currentColor"/>
</g>
<defs>
<clipPath id="clip0_404_106">
<rect width="663.609" height="500" fill="currentColor" transform="translate(0.276855)"/>
</clipPath>
</defs>
</svg>
