<svg width="780" height="500" viewBox="0 0 780 500" fill="none" xmlns="http://www.w3.org/2000/svg">
<path d="M79.1152 316.433L704.505 66.6665V180.296L79.1152 431.308V316.433ZM203.882 279.673V368.224L242.822 352.648V263.863L203.882 279.673ZM394.925 203.427V292.212L465.019 264.174V247.897L433.788 260.124V187.695L394.925 203.427ZM474.442 171.495V259.969L513.383 244.392V155.607L474.442 171.495ZM524.91 151.09V240.187L563.928 223.987V193.302L590.174 182.632V164.486L563.928 175.467V154.673L593.679 142.056V123.754L524.91 151.09ZM600.611 120.95V139.486L621.405 131.308V201.324L660.268 185.747V115.654L678.57 108.411V90.031L600.611 120.95ZM122.807 400.779L127.402 384.735L154.505 375.233L159.022 386.137L194.925 371.729L167.277 294.237L130.206 308.723L101.857 409.034L122.807 400.779ZM139.551 334.969L148.897 357.554L133.788 362.928L139.551 334.969ZM298.975 301.402L317.121 322.585L356.374 307.165L331.452 280.607C335.268 274.455 338.928 261.059 336.047 252.18C330.05 233.645 311.592 236.76 293.991 243.224L257.075 258.177V346.651L293.835 332.321V302.959L298.975 301.402ZM293.757 262.617C303.103 258.723 304.427 266.355 304.349 272.819C304.271 279.205 301.078 286.137 293.757 288.318V262.617Z" fill="currentColor"/>
<path d="M307.23 369.237C348.04 397.118 401.077 404.984 448.741 385.125C495.47 365.654 526.934 324.844 536.28 278.738L699.364 213.318C710.579 209.579 704.582 192.913 693.679 197.43L82.2301 442.835C72.5728 445.95 78.7254 460.748 88.0712 456.854L307.23 369.237Z" fill="currentColor"/>
<path d="M249.676 216.978C259.956 172.508 290.797 133.334 336.124 114.486C382.853 95.0158 434.878 101.947 474.13 127.804L694.769 39.8756C704.037 35.9815 710.19 50.779 700.61 53.8943L89.1616 299.377C78.2582 303.894 72.2613 287.228 83.4762 283.489L249.676 216.978Z" fill="currentColor"/>
</svg>
