<svg width="1314" height="500" viewBox="0 0 1314 500" fill="none" xmlns="http://www.w3.org/2000/svg">
<path d="M885.089 2.17357C868.744 7.04229 852.486 18.9533 842.748 33.2117C832.315 48.3395 825.969 71.3789 825.969 93.6359C825.969 138.932 845.096 170.318 879.003 180.751C885.35 182.664 900.13 184.837 902.129 184.055C903.173 183.62 903.347 182.055 903.173 175.969L902.912 168.319L899.608 167.797C894.913 167.014 890.827 162.667 888.132 155.799L885.958 150.061V93.9837C885.958 39.3845 886.045 37.8196 887.871 31.0381C890.132 22.5179 893.87 17.91 899.608 16.345L903.347 15.3887V7.73783V0.0869766L897.522 0.173918C894.044 0.173918 888.914 0.956391 885.089 2.17357Z" fill="currentColor"/>
<path d="M912.91 7.82475V15.5625L915.779 16.1711C929.864 19.2141 943.079 35.7329 950.295 59.2071C951.773 64.2497 953.773 69.1184 954.729 69.9878C956.989 72.4222 961.945 72.2483 964.466 69.814C966.379 67.9013 966.379 67.6404 966.64 36.1676L966.901 4.43404L964.727 2.2605C961.945 -0.521623 957.772 -0.608564 955.511 1.99968C950.034 8.25946 948.469 9.65052 946.817 9.65052C945.861 9.65052 939.253 7.73781 932.211 5.39039C925.169 3.04297 917.953 0.86944 916.214 0.608616L912.91 2.5756e-05V7.82475Z" fill="currentColor"/>
<path d="M61.4056 7.73752C60.6231 10.5196 60.0145 13.7365 60.0145 14.8667C60.0145 16.6055 81.7499 114.067 83.141 118.501C83.5757 119.892 82.3585 120.066 69.0565 120.24L54.5372 120.501L52.9723 127.021C50.1902 138.497 48.5383 137.367 69.3173 137.628L87.2272 137.889L89.2269 146.583C90.3571 151.365 91.2265 157.103 91.3135 159.363C91.3135 162.928 90.9657 163.623 88.6183 165.449C80.185 171.796 79.2286 174.23 83.4018 178.404L85.9231 180.925H122.004C145.217 180.925 158.954 180.577 160.693 179.968C162.258 179.447 163.736 178.056 164.344 176.665C165.822 172.926 164.257 170.057 159.128 167.449C156.172 165.971 154.259 164.319 153.39 162.406C152.694 160.841 143.739 124.413 133.567 81.3769L115.048 3.12963L88.966 2.8688L62.8836 2.69492L61.4056 7.73752Z" fill="currentColor"/>
<path d="M175.038 3.73819C172.691 4.86843 171.126 9.04162 172.082 11.6499C173.212 14.5189 175.647 16.3447 179.994 17.4749C184.863 18.7791 188.253 21.822 190.166 26.9515C191.035 29.1251 203.12 64.5972 216.944 105.72L242.157 180.49L245.722 180.751L249.199 181.012L264.153 130.76L279.107 80.4205L278.933 59.6415L278.672 38.8625L273.543 56.8594C270.761 66.8577 268.152 74.5954 267.805 74.2477C267.283 73.726 251.025 27.821 243.722 6.34643L242.418 2.69489L209.728 2.78184C188.514 2.78184 176.255 3.1296 175.038 3.73819Z" fill="currentColor"/>
<path d="M292.844 82.1597C292.583 172.057 293.278 164.059 285.367 166.145C279.889 167.623 277.368 170.058 277.368 173.709C277.368 177.187 279.716 179.795 283.628 180.49C285.193 180.751 303.103 180.925 323.273 180.751L360.136 180.49L361.788 178.404C365.266 174.144 363.092 168.666 357.267 166.928C355.355 166.319 353.007 164.841 352.051 163.711C350.486 161.624 350.399 159.451 350.399 91.4625C350.486 36.0808 350.66 21.0399 351.529 19.9097C352.138 19.1272 354.833 17.4753 357.528 16.3451C360.832 14.8671 362.484 13.563 362.832 12.1719C363.788 8.52037 363.527 7.04237 361.267 4.86883L359.18 2.69529H326.142H293.018L292.844 82.1597Z" fill="currentColor"/>
<path d="M386.48 4.86846C382.306 8.9547 384.045 13.8234 390.653 16.5186C393.696 17.8227 395.695 19.2138 396.391 20.6049C397.087 22.1698 397.347 42.3402 397.347 92.1576C397.347 159.45 397.26 161.624 395.695 163.71C394.739 164.841 392.392 166.319 390.479 166.927C385.349 168.405 383.089 172.491 384.828 177.012C386.306 180.664 388.74 180.925 422.56 180.925H454.729V91.8099V2.69492H421.691H388.566L386.48 4.86846Z" fill="currentColor"/>
<path d="M465.162 10.0853C465.162 14.1715 465.422 17.4753 465.857 17.4753C466.205 17.4753 469.074 18.0839 472.204 18.6925C485.245 21.4746 495.156 29.1254 501.416 41.3842C503.329 45.2096 505.242 49.2958 505.589 50.513C506.633 54.0776 508.632 55.7295 512.023 55.7295C518.804 55.7295 519.065 54.4254 519.065 26.0825V2.69523H492.113H465.162V10.0853Z" fill="currentColor"/>
<path d="M542.713 3.56478C540.366 4.52114 538.888 8.08574 539.583 11.0417C540.279 13.65 543.496 16.2582 546.886 17.0407C552.364 18.2579 552.103 14.5194 552.103 91.6364C552.103 136.411 551.755 162.494 551.233 163.537C550.799 164.406 548.364 165.797 545.93 166.58C542.452 167.797 541.235 168.667 540.105 171.101C538.801 173.796 538.801 174.318 540.018 176.404C542.539 180.925 542.626 180.925 583.663 180.751L621.83 180.491L624.003 177.969C625.655 175.97 626.003 174.839 625.655 172.753C624.873 169.101 623.569 168.058 617.657 166.319C608.789 163.711 609.484 170.84 609.484 80.6818V2.69537L577.142 2.78231C559.319 2.78231 543.843 3.13008 542.713 3.56478Z" fill="currentColor"/>
<path d="M620.091 10.1721L620.352 17.6491L624.612 19.3009C630.263 21.3875 632.61 23.735 634.697 29.3861C636.262 33.6463 636.436 36.1676 636.436 57.1205C636.436 81.8988 636.175 83.5506 631.828 86.4197C630.698 87.2022 628.35 88.1585 626.785 88.5063L623.829 89.2888L623.569 95.5486C623.395 100.939 623.569 101.895 624.873 102.33C629.307 103.634 632.697 106.068 634.436 109.198C636.262 112.502 636.436 113.632 636.436 130.064C636.523 157.19 638.262 164.667 646.782 173.187C654.694 181.012 666.17 184.229 680.95 182.577C690.861 181.447 697.556 178.143 704.772 171.014C713.64 162.059 716.074 154.669 711.466 150.148C708.336 147.018 704.772 147.626 701.207 151.8C698.164 155.364 694.947 155.886 694.252 152.843C693.991 151.8 693.73 143.279 693.643 133.977C693.383 117.893 693.296 116.762 691.209 112.85C686.949 104.417 677.298 98.0699 664.344 95.2008C660.693 94.4183 656.606 93.462 655.128 93.2011C652.868 92.6795 653.563 92.2448 661.214 89.7235C672.43 85.985 677.559 83.2898 682.95 77.8995C690.861 69.9008 694.687 60.0765 694.687 47.47C694.687 31.8205 688.688 20.5181 676.168 12.3456C665.387 5.30338 653.303 2.69513 631.828 2.69513H619.83L620.091 10.1721Z" fill="currentColor"/>
<path d="M728.159 3.73868C725.638 5.12974 725.117 6.17304 725.117 9.73764C725.117 13.3022 726.595 14.9541 731.463 16.6929C738.245 19.0404 737.723 13.0414 737.984 89.5498C738.158 138.063 737.984 158.842 737.288 161.19C736.506 163.972 735.636 164.841 732.246 166.319C729.985 167.275 727.464 168.667 726.681 169.449C724.421 171.362 724.595 176.752 726.942 178.839C728.681 180.404 730.768 180.491 765.457 180.751C804.929 180.925 805.103 180.925 807.624 176.404C808.841 174.318 808.841 173.796 807.537 171.101C806.407 168.667 805.19 167.797 801.712 166.58C799.278 165.797 796.843 164.406 796.408 163.537C795.887 162.494 795.539 136.411 795.539 91.6364C795.539 13.65 795.104 18.6926 801.451 16.7799C805.885 15.4758 808.059 12.9545 808.059 9.12905C808.059 2.95621 809.363 3.13009 767.457 2.95621C740.418 2.78232 729.377 2.95621 728.159 3.73868Z" fill="currentColor"/>
<path d="M1038.54 3.73846C1038.37 4.34705 1037.58 7.12918 1036.89 9.99824L1035.58 15.1278L1047.32 66.684C1053.76 95.1139 1058.97 118.762 1058.97 119.197C1058.97 119.718 1053.67 120.066 1044.71 120.066H1030.54L1029.06 126.847C1028.28 130.586 1027.41 134.498 1027.06 135.542L1026.63 137.454H1044.89H1063.15L1064.45 143.279C1068.8 162.58 1068.71 163.189 1062.45 167.101C1057.75 169.97 1056.45 172.666 1057.75 176.491C1059.32 180.838 1060.02 180.925 1099.92 180.751C1135.05 180.49 1137.13 180.403 1138.87 178.838C1141.39 176.578 1141.31 172.231 1138.7 169.797C1137.57 168.753 1136.26 167.884 1135.74 167.884C1133.31 167.884 1129.31 163.189 1128.09 158.929C1126.87 154.582 1091.14 4.08623 1091.14 3.12987C1091.14 2.86905 1079.4 2.69518 1065.06 2.69518C1044.89 2.69518 1038.8 2.95599 1038.54 3.73846Z" fill="currentColor"/>
<path d="M1153.39 4.52069C1151.65 5.91175 1151.13 7.04199 1151.13 9.56329C1151.13 13.9104 1152.43 15.3014 1158.26 17.475C1160.95 18.5183 1164.08 20.344 1165.21 21.6481C1166.34 23.0392 1187.73 59.3807 1212.68 102.504L1258.24 180.925H1275.98H1293.71V151.886V122.761L1259.2 62.7714L1224.59 2.69492H1190.17C1156.61 2.69492 1155.65 2.78186 1153.39 4.52069Z" fill="currentColor"/>
<path d="M1263.72 4.86885C1259.89 8.60733 1261.11 12.5197 1267.11 16.0843C1272.41 19.1272 1276.24 23.2135 1278.41 27.9083C1280.06 31.4729 1280.24 33.7334 1280.5 55.2949L1280.85 78.769L1287.02 89.6367L1293.28 100.504L1293.8 67.032C1294.15 44.8619 1294.58 32.5162 1295.28 30.4296C1297.02 25.2131 1301.19 20.2575 1306.41 17.3884C1312.23 14.0846 1314.06 11.5633 1313.27 7.9118C1312.14 2.8692 1311.19 2.69531 1287.37 2.69531H1265.8L1263.72 4.86885Z" fill="currentColor"/>
<path d="M1029.5 37.6454C1029.24 40.0797 999.504 147.105 998.026 150.843C995.678 157.364 990.288 163.015 982.898 166.84C976.551 170.231 975.595 171.622 976.812 176.317C977.768 180.316 981.333 180.925 1002.81 180.925C1026.19 180.925 1028.46 180.403 1028.54 174.665C1028.54 170.753 1027.67 169.709 1021.41 166.406C1014.54 162.841 1012.54 160.059 1012.63 153.973C1012.63 151.712 1017.5 132.238 1024.46 106.764L1036.37 63.5539L1032.98 50.2519C1031.06 43.0357 1029.5 37.2976 1029.5 37.6454Z" fill="currentColor"/>
<path d="M38.3663 93.2883C30.0199 123.544 22.5429 149.887 21.7605 151.8C18.9783 158.147 15.3268 162.146 9.50172 165.189C-0.322654 170.405 -1.97454 173.274 2.1117 178.056L4.1983 180.49L25.8467 180.751C49.3209 180.925 51.0597 180.664 52.6247 176.317C53.8418 172.666 51.7552 169.797 45.6693 166.667C39.4096 163.45 36.5405 159.625 36.5405 154.495C36.5405 152.495 41.8439 131.282 48.4515 107.199L60.3624 63.4674L57.4934 51.5564C55.8415 45.0358 54.2765 39.3846 54.0157 38.9499C53.668 38.6021 46.6257 63.0326 38.3663 93.2883Z" fill="currentColor"/>
<path d="M1169.21 100.678L1168.95 150.93L1166.69 155.712C1164.08 161.189 1161.48 164.059 1155.48 167.884C1151.13 170.666 1149.91 172.927 1151.13 176.056C1152.69 180.317 1153.48 180.49 1175.82 180.751C1198.6 181.012 1200.43 180.664 1201.9 176.404C1203.12 172.927 1201.47 170.231 1196.17 166.754C1190.17 162.841 1187.3 159.798 1184.86 154.408C1182.86 150.148 1182.86 149.539 1182.43 110.503L1181.99 70.9443L1176.08 60.6852C1172.78 55.1209 1169.91 50.513 1169.74 50.513C1169.56 50.513 1169.3 73.1178 1169.21 100.678Z" fill="currentColor"/>
<path d="M486.462 55.7296C483.767 56.7729 482.985 58.1639 480.811 65.0323C478.551 72.2485 474.812 77.2041 468.987 80.5948L465.162 82.8553L465.249 90.3323V97.8962L469.77 100.07C474.986 102.678 478.898 108.329 481.333 116.502C483.419 123.892 484.55 125.283 488.636 125.283C491.418 125.283 492.374 124.848 493.591 122.935C494.983 120.762 495.156 117.806 495.156 89.8976C495.156 60.4244 495.069 59.2072 493.418 57.5554C491.244 55.4688 488.723 54.7732 486.462 55.7296Z" fill="currentColor"/>
<path d="M191.992 107.981C191.731 145.627 191.47 150.495 190.166 153.973C187.731 160.146 184.428 164.319 178.95 167.971C174.516 171.014 173.908 171.796 173.908 174.317C173.908 176.143 174.603 177.795 175.733 178.838C177.472 180.403 179.124 180.49 199.121 180.49C219.291 180.49 220.769 180.403 222.508 178.838C223.899 177.534 224.334 176.317 224.16 174.057C223.899 171.448 223.203 170.492 219.552 167.884C217.205 166.232 213.553 163.189 211.553 161.189C205.728 155.364 205.207 152.408 205.207 125.456V102.504L199.034 84.5939C195.643 74.6825 192.774 66.4231 192.6 66.2492C192.426 66.0753 192.165 84.8547 191.992 107.981Z" fill="currentColor"/>
<path d="M508.98 126.499C508.024 127.195 505.676 131.368 503.937 135.715C497.069 152.147 486.375 161.885 470.9 165.797L465.162 167.188V174.056V180.925H492.113H519.065V157.19C519.065 131.368 518.544 127.456 515.066 126.152C512.11 125.021 511.067 125.021 508.98 126.499Z" fill="currentColor"/>
<path d="M957.25 129.89C955.076 130.934 954.555 131.803 949.425 142.932C945.339 151.713 938.123 159.016 929.168 163.45C925.256 165.362 920.126 167.275 917.692 167.623L913.345 168.318L913.084 175.622C912.91 179.621 913.171 183.272 913.605 183.707C914.996 185.098 927.951 181.881 935.515 178.23C941.514 175.187 944.383 173.1 950.816 166.58C957.25 160.146 959.51 157.103 962.553 151.017C967.248 141.454 968.031 135.455 964.988 132.064C962.38 129.195 960.032 128.499 957.25 129.89Z" fill="currentColor"/>
<path d="M351.268 193.532C333.358 196.575 315.709 204.138 301.016 215.18C269.63 238.828 250.416 275.256 245.113 320.901C242.679 342.288 244.243 374.022 248.764 394.279C253.111 413.841 262.675 435.055 273.63 449.661C285.019 464.789 302.146 479.308 318.231 487.393C330.489 493.566 353.616 500 363.527 500H367.005L366.744 488.089L366.483 476.265L362.918 475.048C354.659 472.266 349.616 465.05 347.791 453.399C347.182 449.313 346.921 412.798 347.095 341.332C347.356 239.35 347.443 235.09 349.008 231.003C351.008 225.7 356.398 220.31 362.397 217.527L366.918 215.441V203.791V192.227L362.397 192.314C359.876 192.401 354.833 192.923 351.268 193.532Z" fill="currentColor"/>
<path d="M384.306 205.355V217.006L388.045 218.571C396.391 221.961 401.434 228.656 403.433 238.741C404.129 242.566 404.303 272.213 404.129 347.852C403.868 439.141 403.607 452.269 402.477 456.094C399.347 466.093 394.739 471.657 387.697 473.917L384.306 475.048V486.959V498.957L388.479 498.522C395.956 497.739 409.867 494.696 417.518 492.175C434.211 486.611 450.208 476.613 463.51 463.484C485.593 441.662 498.46 414.884 504.024 379.151C506.198 364.98 506.198 328.117 504.024 313.945C498.982 281.777 488.636 257.955 470.204 235.872C450.469 212.398 420.213 196.227 391.957 194.227L384.306 193.705V205.355Z" fill="currentColor"/>
<path d="M927.69 197.878C914.736 200.487 898.999 207.703 885.697 217.179C876.395 223.874 863.353 236.915 856.485 246.566C850.312 255.347 841.009 273.604 837.793 283.603C830.403 306.034 828.142 321.335 828.142 350.026C828.229 373.761 829.098 383.324 833.098 400.452C841.444 436.533 860.919 464.702 888.914 481.134C902.564 489.045 920.735 494.349 938.297 495.392L946.817 495.914V482.785V469.57H944.383C943.079 469.57 939.949 468.527 937.427 467.31C931.95 464.615 927.69 459.137 925.169 451.487C923.343 446.009 923.343 445.835 923.517 345.853L923.778 245.696L926.038 239.958C929.603 230.829 934.993 225.439 942.818 223.352L946.817 222.309V209.442V196.574L940.123 196.661C936.384 196.661 930.82 197.27 927.69 197.878Z" fill="currentColor"/>
<path d="M963.336 209.616C963.336 221.701 963.423 222.657 964.901 222.657C968.205 222.657 977.594 226.396 982.898 229.699C989.679 233.959 1000.72 245.349 1006.28 253.956C1012.89 263.954 1019.41 278.386 1023.41 291.775C1028.72 309.772 1030.37 312.294 1037.24 313.511C1041.41 314.206 1047.41 311.076 1049.58 306.99C1051.06 304.121 1051.15 301.078 1050.97 253.347L1050.71 202.66L1047.93 199.965C1045.84 197.792 1044.28 197.096 1040.97 196.835C1035.15 196.227 1031.76 198.053 1029.06 203.356C1027.93 205.617 1026.02 208.312 1024.8 209.442C1020.63 213.354 1017.59 212.92 997.678 206.225C987.68 202.747 976.725 199.444 973.334 198.748C970.03 198.053 966.379 197.27 965.336 197.009L963.336 196.575V209.616Z" fill="currentColor"/>
<path d="M144.348 213.354V225.787L150.869 226.917C164.953 229.264 176.69 234.655 185.732 242.914C195.035 251.434 202.512 263.432 206.946 276.995C209.728 285.255 212.336 287.863 218.248 287.863C223.639 287.863 225.638 286.906 227.377 283.516C228.507 281.342 228.681 274.995 228.681 240.914V200.921H186.515H144.348V213.354Z" fill="currentColor"/>
<path d="M660.084 212.659L660.345 224.57L665.127 226.482C675.386 230.482 679.472 234.133 682.167 241.958C683.645 246.131 683.819 249.783 683.819 283.951C683.819 317.771 683.645 321.77 682.254 325.856C679.559 333.507 672.604 338.463 662.084 340.202C660.432 340.463 660.345 341.245 660.084 351.852L659.823 363.241L663.475 363.85C671.3 365.067 678.776 371.327 681.819 379.151C683.645 383.672 683.732 385.759 684.254 417.406C684.775 450.791 684.775 450.878 687.123 458.007C691.731 471.744 700.947 482.525 713.553 488.698C722.508 493.045 729.116 494.262 743.809 494.175C758.936 494.175 766.5 492.523 776.586 487.22C790.931 479.743 806.841 459.833 806.841 449.4C806.841 443.836 801.103 437.402 796.147 437.402C792.757 437.402 790.235 439.054 784.584 444.966C780.063 449.661 777.368 450.356 775.803 447.14C775.455 446.27 774.934 432.707 774.673 416.884L774.238 388.106L770.587 380.716C765.805 371.153 759.023 364.632 747.808 358.807C739.896 354.721 725.638 350.374 715.553 349.07C713.118 348.722 711.032 348.2 710.771 347.939C710.597 347.592 715.031 345.853 720.595 344.027C726.16 342.201 734.854 338.724 739.896 336.289C747.895 332.464 749.981 330.899 756.937 324.031C765.805 315.076 770.5 307.164 773.977 295.166C775.629 289.341 775.977 286.298 775.977 274.822C775.977 259.172 774.412 252.217 768.5 240.828C759.98 224.483 741.2 210.833 719.552 205.269C711.553 203.269 698.599 202.052 677.038 201.269L659.823 200.661L660.084 212.659Z" fill="currentColor"/>
<path d="M1216.33 213.354V225.787L1222.86 226.917C1238.59 229.525 1250.07 235.35 1260.24 245.609C1269.37 254.912 1273.8 262.65 1280.24 280.386C1282.5 286.646 1284.06 287.863 1289.89 287.863C1295.63 287.863 1297.63 286.993 1299.36 283.516C1300.49 281.342 1300.67 274.995 1300.67 240.914V200.921H1258.5H1216.33V213.354Z" fill="currentColor"/>
<path d="M17.8481 205.182C11.5014 206.747 8.71924 209.876 8.71924 215.528C8.71924 222.57 11.1536 225.178 20.5433 228.221C26.5422 230.134 28.5419 232.568 29.5852 238.828C30.6285 245.001 30.7154 450.617 29.6721 456.79C28.6288 462.963 26.4553 465.31 19.0653 468.006C10.9797 470.962 8.71924 473.483 8.71924 479.569C8.71924 484.611 10.1103 487.133 14.1965 489.393C16.8048 490.784 21.6735 490.871 79.1418 490.871C136.436 490.871 141.479 490.784 144.087 489.393C148.521 486.959 150.434 483.829 150.434 479.047C150.434 472.526 147.652 469.918 137.827 467.31C129.22 465.049 126.786 463.224 125.308 457.573C124.699 455.399 124.351 413.319 124.351 329.334V204.399L72.4473 204.486C43.8436 204.573 19.3261 204.834 17.8481 205.182Z" fill="currentColor"/>
<path d="M536.889 205.182C530.542 206.747 527.76 209.876 527.76 215.528C527.76 222.57 530.194 225.178 539.584 228.221C545.322 230.134 547.495 232.568 548.626 238.219C549.669 243.958 549.756 451.661 548.713 457.312C547.582 463.137 545.322 465.397 538.106 468.006C530.02 470.962 527.76 473.483 527.76 479.569C527.76 484.611 529.151 487.133 533.237 489.393C535.845 490.784 540.714 490.871 598.182 490.871C655.477 490.871 660.519 490.784 663.128 489.393C667.562 486.959 669.474 483.829 669.474 479.047C669.474 472.526 666.692 469.918 656.868 467.31C648.261 465.049 645.826 463.224 644.348 457.573C643.74 455.399 643.392 413.319 643.392 329.334V204.399L591.488 204.486C562.884 204.573 538.367 204.834 536.889 205.182Z" fill="currentColor"/>
<path d="M1088.18 205.703C1082.62 207.703 1080.36 210.572 1080.36 215.701C1080.36 221.526 1082.53 224.309 1089.05 226.83C1097.14 229.873 1098.44 230.742 1100.01 233.959C1101.49 236.828 1101.57 244.044 1101.57 347.852C1101.57 451.66 1101.49 458.876 1100.01 461.746C1098.44 464.962 1097.14 465.832 1089.05 468.875C1082.53 471.396 1080.36 474.178 1080.36 480.003C1080.36 484.698 1081.75 486.959 1086.36 489.48C1088.71 490.697 1094.7 490.871 1142.7 491.132L1196.34 491.393V347.852V204.399H1144C1101.4 204.486 1090.97 204.747 1088.18 205.703Z" fill="currentColor"/>
<path d="M173.734 287.254C171.56 289.254 171.039 290.558 166.605 304.295C162.866 315.858 158.171 321.422 146.521 328.204L140.783 331.595L141.044 343.766L141.305 355.851L145.913 357.59C156.085 361.328 164.344 372.37 168.518 387.498C171.734 399.061 174.516 402.104 181.906 402.104C188.079 402.104 190.253 399.67 191.383 391.41C191.905 387.672 192.166 366.545 191.992 338.898C191.731 296.731 191.557 292.384 190.166 289.863C188.166 286.124 186.254 285.255 180.602 285.255C176.864 285.255 175.473 285.689 173.734 287.254Z" fill="currentColor"/>
<path d="M1245.03 287.863C1243.37 289.602 1241.98 292.819 1240.68 297.6C1236.59 312.815 1230.77 320.901 1218.94 327.856L1212.77 331.421L1213.03 343.679L1213.29 355.851L1217.81 357.59C1223.55 359.677 1231.03 366.458 1234.51 372.457C1235.9 374.978 1238.42 381.586 1240.16 387.15C1242.68 395.149 1243.9 397.757 1245.9 399.496C1249.29 402.278 1252.59 402.973 1256.85 401.582C1263.46 399.409 1263.28 401.235 1263.28 343.245C1263.28 307.251 1263.02 291.514 1262.33 290.21C1260.5 286.559 1257.89 285.255 1252.59 285.255C1247.98 285.255 1247.2 285.516 1245.03 287.863Z" fill="currentColor"/>
<path d="M1288.06 402.452C1285.37 404.103 1283.71 407.233 1278.93 419.579C1277.45 423.404 1274.59 429.23 1272.67 432.62C1268.07 440.271 1256.94 451.573 1248.42 457.138C1241.37 461.746 1228.85 466.44 1220.94 467.484L1216.33 468.092V479.656V491.306H1260.24H1304.23L1303.97 449.313C1303.8 417.232 1303.45 406.973 1302.58 405.495C1300.06 401.06 1292.84 399.582 1288.06 402.452Z" fill="currentColor"/>
<path d="M1034.98 406.886C1031.85 408.277 1028.8 412.798 1026.8 418.883C1022.37 432.533 1013.5 445.661 1003.5 453.486C994.113 460.876 977.855 468.092 967.944 469.31L963.336 469.831V482.872V495.914L969.596 495.305C979.594 494.262 991.331 490.871 999.591 486.611C1021.33 475.308 1041.32 452.965 1048.71 431.751C1052.54 420.622 1051.58 412.711 1045.84 408.451C1043.24 406.625 1037.67 405.755 1034.98 406.886Z" fill="currentColor"/>
</svg>
