<svg width="182" height="161" viewBox="0 0 182 161" fill="none" xmlns="http://www.w3.org/2000/svg">
<path d="M86.5383 0.743156C51.2049 1.27649 46.8049 1.67649 43.6049 3.80982C41.6049 5.27649 36.2716 12.7432 31.7383 20.4765C27.2049 28.3432 18.4049 43.4098 12.1383 54.0765C-4.66175 82.3432 -5.06175 78.4765 19.7383 120.743C34.1383 145.41 40.8049 155.543 44.0049 157.676C48.4049 160.743 48.9383 160.743 90.5383 160.743H132.538L137.205 157.543C140.538 155.276 145.605 148.076 155.205 131.543C162.538 118.876 171.338 103.676 174.938 97.6765C179.872 89.0098 181.205 85.6765 181.205 80.7432C181.205 75.0098 180.405 73.1432 171.872 58.7432C170.538 56.4765 163.205 43.9432 155.738 30.8765C148.138 17.8098 140.272 5.80982 138.405 4.47649C132.938 0.343156 128.138 0.076489 86.5383 0.743156ZM88.6716 17.4098C88.2716 18.4765 84.6716 25.1432 80.5383 32.2098C76.4049 39.2765 73.3383 45.2765 73.6049 45.5432C73.7383 45.8098 77.2049 45.1432 81.2049 44.0765C91.6049 41.2765 112.538 41.1432 118.938 43.8098C121.605 45.0098 124.272 46.8765 124.672 48.0765C125.738 50.8765 122.272 59.6765 116.538 68.8765L111.872 76.3432L103.872 77.1432C99.3383 77.6765 94.1383 78.8765 92.1383 80.0765L88.5383 81.9432L93.2049 81.0098C101.472 79.2765 116.405 80.0765 121.205 82.4765C126.272 85.0098 125.872 85.4098 131.472 74.3432L135.072 67.4098H154.138C164.938 67.4098 173.205 67.9432 173.205 68.6098C173.205 69.2765 170.138 75.1432 166.405 81.6765C162.538 88.0765 155.072 101.143 149.472 110.743C144.005 120.21 138.938 128.876 138.138 129.676C137.205 130.876 131.605 131.41 118.272 131.41C100.405 131.41 99.7383 131.276 100.538 128.743C101.338 126.21 101.205 126.21 96.2716 128.343C92.4049 130.076 87.0716 130.61 73.6049 130.743C56.8049 130.743 56.0049 130.61 52.6716 127.543C50.8049 125.676 49.2049 123.41 49.2049 122.343C49.2049 120.61 55.6049 108.21 61.3383 98.4765L64.0049 94.3432L59.6049 93.4098C57.2049 92.8765 53.6049 91.5432 51.6049 90.6098C48.5383 89.0098 47.8716 89.0098 46.8049 90.7432C45.8716 92.4765 42.5383 92.7432 26.2716 92.4765L6.80492 92.0765L26.8049 57.4098C37.7383 38.3432 47.6049 21.8098 48.6716 20.7432C51.4716 17.8098 62.8049 15.6765 77.0716 15.5432C87.6049 15.4098 89.3383 15.6765 88.6716 17.4098Z" fill="currentColor"/>
<path d="M71.2049 53.41C67.2049 55.41 66.2716 56.7433 57.4716 72.61C53.7382 79.41 53.2049 81.2767 54.6716 82.21C57.4716 83.9433 65.7382 83.6767 68.2716 81.6767C69.3382 80.8767 73.7382 74.0767 77.8716 66.8767C85.6049 53.01 85.7382 51.41 78.5382 51.41C76.6716 51.41 73.4716 52.3433 71.2049 53.41Z" fill="currentColor"/>
<path d="M105.738 91.1432C104.005 92.3432 89.2051 117.277 89.2051 119.143C89.2051 121.277 95.0717 122.077 100.272 120.61C103.738 119.677 106.272 117.677 108.938 113.677C115.338 104.077 120.138 94.0766 119.338 92.0766C118.538 89.9432 108.405 89.2766 105.738 91.1432Z" fill="currentColor"/>
</svg>
