<svg width="2441" height="500" viewBox="0 0 2441 500" fill="none" xmlns="http://www.w3.org/2000/svg">
<path fill-rule="evenodd" clip-rule="evenodd" d="M2226.52 7.75629C2157.39 26.3449 2097.83 77.6742 2063.12 148.583C2036.67 202.613 2026.87 241.485 2026.87 292.436C2026.87 347.171 2034.62 370.16 2062.49 398.153C2091.57 427.366 2118.96 435.846 2173.63 432.579C2212.46 430.261 2233.78 422.618 2266.18 399.389L2278.31 390.699L2274.71 407.057L2271.12 423.42H2311.66H2352.2L2391.27 312.378C2412.75 251.303 2430.3 199.555 2430.26 197.38C2430.23 195.205 2393.04 194.056 2347.61 194.827L2265.02 196.231L2250.87 234.521C2243.09 255.581 2236.61 275.686 2236.46 279.193C2236.28 283.482 2244.56 285.575 2261.72 285.575C2275.76 285.575 2287.25 287.668 2287.25 290.226C2287.25 298.236 2257.71 320.159 2238.28 326.571C2212 335.245 2181.2 329.91 2165.21 313.904C2153.47 302.147 2152 296.715 2152.33 266.302C2153.05 199.912 2186.93 137.177 2234.67 113.82C2276.87 93.169 2312.93 103.339 2320.55 138.05L2323.8 152.835H2382.1H2440.41L2440.3 120.927C2440.02 42.6208 2387.01 -0.810505 2292.7 0.0114579C2271.45 0.195251 2241.67 3.68221 2226.52 7.75629ZM100.438 177.152C67.2018 269.074 33.4248 362.247 25.3685 384.195L10.7263 424.109L159.823 422.485C308.027 420.877 309.089 420.79 337 407.644C376.888 388.856 395.42 371.36 413.284 335.607C425.859 310.443 428.896 297.955 428.896 271.397C428.896 240.066 427.942 237.482 409.751 219.481L390.606 200.54L416.133 185.622C450.497 165.543 470.132 129.984 470.745 86.7363C471.276 49.4569 461.969 33.2372 432.327 19.7794C413.289 11.136 397.738 10.1048 285.946 10.0639L160.865 10.018L100.438 177.152ZM548.821 16.2669C526.409 78.9199 401.802 416.721 400.061 419.534C398.744 421.674 474.186 423.404 567.716 423.389L737.771 423.358L755.052 376.164C764.559 350.209 773.422 326.101 774.744 322.589C776.623 317.611 753.883 316.207 671.401 316.207C588.934 316.207 566.174 314.803 568.028 309.825C569.335 306.318 573.47 294.877 577.217 284.406L584.033 265.368L680.55 263.984L777.072 262.601L794.399 216.652C803.926 191.381 811.742 170.132 811.763 169.428C811.783 168.723 769.296 168.151 717.349 168.151C665.402 168.151 622.9 166.508 622.9 164.491C622.9 162.479 626.658 150.992 631.252 138.964L639.605 117.098H743.085H846.571L861.714 74.9786C870.046 51.8105 878.454 27.6876 880.409 21.3723L883.963 9.88523H717.533C589.011 9.88523 550.583 11.3403 548.821 16.2669ZM845.719 213.308C804.6 325.192 770.956 418.238 770.956 420.076C770.956 425.569 1011.55 423.608 1036.43 417.911C1066.29 411.075 1111.46 388.412 1138.43 366.735C1169.75 341.565 1207.41 282.129 1223.11 233.066C1238.64 184.565 1242.19 121.279 1231.14 89.8556C1221.37 62.062 1196.39 35.7337 1166.66 21.8879C1142.38 10.5847 1135.56 9.98223 1030.79 9.93628L920.481 9.88523L845.719 213.308ZM1330.07 16.0219C1328.79 19.6671 1294.65 112.891 1254.2 223.187L1180.68 423.726L1242.13 422.296L1303.58 420.867L1329.37 350.668L1355.16 280.469H1391.22C1449.5 280.469 1459.99 295.581 1442.25 354.033C1438.07 367.817 1434.65 389.066 1434.65 401.257V423.42H1493.36H1552.08L1552.09 406.827C1552.1 397.704 1555.75 369.558 1560.21 344.286C1570.05 288.449 1567.6 258.705 1551.78 241.863C1541.81 231.254 1541.38 229.416 1548.84 229.416C1579.95 229.416 1629.17 182.278 1641.54 140.644C1658.08 84.9443 1646.69 41.9877 1610.32 22.9039C1591.99 13.2905 1579.83 12.3154 1461.39 10.9165C1359.19 9.71164 1331.93 10.7685 1330.07 16.0219ZM1716.23 23.925C1713.17 31.6494 1689.75 94.2513 1664.19 163.046C1615.53 294.029 1607.15 330.487 1618.09 363.626C1626.39 388.8 1658.27 416.098 1690.54 425.686C1720.93 434.708 1793.22 436.05 1827.18 428.219C1881.35 415.731 1934.78 376.879 1962.02 330.185C1972.19 312.73 2083.03 21.454 2083.03 12.1622C2083.03 10.7378 2055.07 10.2171 2020.89 11.0033L1958.74 12.4379L1912.12 140.914C1886.48 211.573 1859.05 278.693 1851.17 290.062C1826.67 325.412 1781.4 340.034 1757.6 320.276C1744.05 309.034 1751.17 282.476 1819.27 90.2947L1847.76 9.88523H1784.77H1721.79L1716.23 23.925ZM332.099 116.235C346.537 127.931 342.861 148.761 324.19 160.994C306.812 172.379 221.767 178.122 225.647 167.646C227.107 163.715 232.263 148.435 237.113 133.69L245.925 106.887H283.24C311.8 106.887 323.261 109.082 332.099 116.235ZM1501.02 113.463C1515.87 120.937 1520.49 143.186 1510.91 161.091C1500.74 180.103 1475.89 188.573 1430.28 188.573H1389.16L1401.89 154.112C1408.89 135.161 1415.6 116.781 1416.81 113.269C1419.76 104.733 1483.97 104.881 1501.02 113.463ZM1098.87 131.326C1108.73 141.2 1110.4 148.052 1110.04 177.239C1109.54 218.158 1097.07 249.398 1068.7 280.842C1042.93 309.402 1024.86 316.207 974.787 316.207C937.268 316.207 933.577 315.339 936.783 307.273C938.733 302.356 953.712 261.58 970.065 216.652C986.417 171.725 1001.48 130.719 1003.54 125.527C1006.83 117.231 1012.14 116.307 1047.28 117.899C1080.64 119.416 1089.19 121.642 1098.87 131.326ZM297.03 258.287C310.498 270.473 308.537 288.092 291.603 307.043C276.971 323.421 276.353 323.584 221.899 325.601C176.926 327.265 167.441 326.367 169.6 320.644C171.05 316.799 177.452 299.298 183.829 281.746L195.418 249.837H241.555C277.323 249.837 289.796 251.736 297.03 258.287ZM5.97322 482.371C2.7109 489.524 0.0458984 496.416 0.0458984 497.687C0.0458984 498.958 532.801 500 1183.94 500C2258.8 500 2368.13 499.255 2370.94 491.923C2380.14 467.969 2453.17 469.368 1192.97 469.368H11.8954L5.97322 482.371Z" fill="currentColor"/>
</svg>
