<svg width="2552" height="500" viewBox="0 0 2552 500" fill="none" xmlns="http://www.w3.org/2000/svg">
<path fill-rule="evenodd" clip-rule="evenodd" d="M2521.02 0.951638C2516.66 2.53412 2510.37 9.55688 2508.64 14.7835C2506.48 21.3042 2507.92 31.0234 2511.87 36.5492C2515.93 42.2275 2526.03 46.1143 2533.48 44.8584C2544.68 42.9722 2551.63 34.2159 2551.63 22.0046C2551.63 8.44136 2543.2 -0.212718 2530.2 0.00397732C2526.42 0.0665443 2522.28 0.493831 2521.02 0.951638ZM94.5177 2.43646C73.7755 3.11706 73.7831 3.10791 81.1457 15.9372C88.6491 29.0121 94.8146 45.1529 100.317 66.1311C103.163 76.9705 106.379 86.4532 107.466 87.2024C108.563 87.9609 121.349 88.176 136.229 87.6877C165.23 86.737 180.791 88.2157 185.383 92.3589C190.437 96.9171 192.992 109.186 193.93 133.404C194.928 159.171 192.596 185.329 188.556 193.67C184.618 201.802 181.106 202.791 156.051 202.815C140.796 202.831 133.201 203.415 131.943 204.67C130.611 205.997 130.106 217.087 130.106 244.984C130.106 266.15 130.524 284.554 131.035 285.881C131.816 287.911 135.289 288.314 152.847 288.413C188.366 288.613 191.109 290.656 192.978 318.32C195.89 361.401 194.221 395.084 188.714 404.398C184.312 411.845 181.466 412.616 155.362 413.429L130.871 414.192L130.463 454.444C130.161 484.182 130.538 495.278 131.904 496.92C134.621 500.182 241.963 498.94 253.325 495.513C266.507 491.536 272.048 488.644 279.362 481.924C298.157 464.65 302.619 446.242 304.153 379.622C305.817 307.316 299.27 272.582 280.985 256.715C274.885 251.421 258.262 242.518 254.473 242.516C253.422 242.515 252.56 241.828 252.56 240.989C252.56 240.15 253.292 239.463 254.185 239.463C258.467 239.463 279.165 227.758 283.414 222.933C290.322 215.091 298.117 197.586 299.971 185.759C305.05 153.352 304.603 76.5661 299.212 55.5161C293.928 34.8782 281.969 17.7318 267.85 10.5503C254.201 3.60844 245.102 2.78439 176.791 2.30064C141.433 2.05037 104.41 2.11141 94.5177 2.43646ZM375.097 3.77936C355.518 8.01102 345.091 18.2934 337.688 40.6679C330.135 63.4987 328.758 76.2029 328.057 129.589C327.699 156.867 327.973 180.001 328.664 180.998C329.573 182.307 341.339 182.898 371.077 183.127C409.407 183.42 412.373 183.25 414.282 180.648C415.903 178.437 416.135 171.936 415.395 149.525C414.427 120.226 416.35 89.6059 419.546 83.4103C422.668 77.3565 428.95 71.7164 434.58 69.9111C437.599 68.9421 440.929 67.4694 441.981 66.6362C444.65 64.5242 444.721 5.88985 442.057 3.23457C439.389 0.57471 387.989 0.991314 375.097 3.77936ZM458.818 2.2808C458.186 2.91715 457.67 17.8081 457.67 35.3726C457.67 66.299 457.77 67.3336 460.813 68.1272C470.222 70.581 476.9 75.6077 480.63 83.0456C484.402 90.5673 484.463 91.2861 484.881 133.404C485.115 156.905 485.645 177.679 486.058 179.567L486.811 183H528.785C551.871 183 571.141 182.385 571.606 181.634C573.258 178.971 572.642 90.5826 570.873 76.1846C565.759 34.576 554.955 14.3608 533.315 5.90663C525.103 2.69741 521.248 2.30827 492.111 1.74517C474.431 1.40334 459.451 1.64445 458.818 2.2808ZM1456.82 2.54633L1417.4 2.98125L1417.41 6.38886C1417.41 8.26281 1418.39 14.6034 1419.59 20.4786C1421.32 28.9419 1421.97 56.3661 1422.73 152.48C1423.25 219.205 1424.39 281.635 1425.26 291.213C1428.74 329.527 1439.6 353.303 1458.25 363.423C1470.97 370.328 1480.45 371.037 1550.86 370.353C1611.05 369.768 1616.29 369.503 1625.05 366.6C1646.4 359.527 1655.73 346.315 1661.79 314.551C1663.99 303.063 1664.46 282.597 1665.29 163.162C1666.25 26.1905 1666.28 24.9758 1669.62 15.1375C1671.47 9.68201 1673 4.36077 1673.01 3.31087C1673.03 1.00352 1623.14 0.576236 1619.52 2.85306C1617.59 4.07235 1617.64 5.32064 1619.86 12.3678C1621.27 16.8284 1623.12 25.2856 1623.97 31.1608C1626.11 45.9479 1626.1 287.111 1623.96 294.795C1620.98 305.483 1619.6 305.79 1572.07 306.281C1523.38 306.786 1521.82 306.46 1515.75 294.458L1512.31 287.649L1512.4 160.168C1512.45 90.0531 1513.11 29.2533 1513.88 25.0567C1518.25 1.002 1518.35 1.24311 1504.65 1.78179C1500.02 1.96339 1478.5 2.30827 1456.82 2.54633ZM1772.54 4.07388C1772.54 5.54344 1774.27 10.4176 1776.36 14.9071C1778.46 19.3967 1780.17 24.0877 1780.17 25.3314C1780.17 27.8524 1754 117.962 1741.91 157.058C1737.63 170.906 1728.57 202.152 1721.77 226.492C1703.22 292.952 1695.11 317.94 1682.02 348.877C1672.72 370.879 1670.57 369.175 1707.63 369.175H1739.18L1738.18 363.452C1735.99 350.888 1735.53 333.649 1737.19 326.762C1738.14 322.811 1742.14 309.152 1746.07 296.406C1751.86 277.644 1753.82 273.074 1756.37 272.393C1761.59 270.994 1846.6 271.456 1848.88 272.895C1850.05 273.632 1852.53 279.974 1854.41 286.988C1856.28 294.001 1859.33 305.234 1861.18 311.949C1865.96 329.21 1866.86 344.758 1863.78 356.724C1862.41 362.047 1861.68 367.025 1862.15 367.788C1863.4 369.8 1976.1 369.613 1976.1 367.598C1976.1 366.73 1974.29 362.463 1972.08 358.114C1963.05 340.347 1965.3 348.613 1887.04 45.658C1881.08 22.5769 1875.43 3.18726 1874.49 2.57075C1873.55 1.95423 1850.22 1.43996 1822.65 1.42623C1775.91 1.40487 1772.52 1.58341 1772.54 4.07388ZM1979.16 4.47522C1979.16 6.16453 1980.69 12.5158 1982.55 18.5909C1985.93 29.6134 1985.94 29.9216 1986.44 178.559C1986.9 312.272 1986.69 329.106 1984.38 343.37C1982.97 352.106 1981.73 361.316 1981.64 363.834L1981.46 368.412L2030.86 368.815C2071.65 369.147 2080.41 368.851 2081.07 367.118C2081.52 365.964 2080.75 360.289 2079.37 354.507C2075.8 339.575 2073.99 295.509 2075.11 250.699L2076.07 212.338L2083.05 211.553C2086.9 211.122 2092.26 211.128 2094.98 211.569C2099.02 212.222 2100.11 213.238 2100.94 217.14C2103.29 228.17 2138.5 362.599 2139.86 365.741L2141.35 369.175H2188.83H2236.31V364.907C2236.31 362.56 2233.54 352.43 2230.14 342.398C2226.75 332.366 2217.09 300.994 2208.68 272.681C2200.28 244.369 2192.72 219.432 2191.9 217.264C2191.07 215.095 2190.39 213.05 2190.39 212.718C2190.39 212.385 2193.86 211.086 2198.1 209.831C2209.05 206.589 2213.95 202.559 2218.12 193.343L2221.77 185.289V115.855C2221.77 47.0909 2221.74 46.3264 2218.23 36.6285C2213.66 24.019 2207.53 15.2215 2199.71 10.062C2186.8 1.54679 2184.78 1.40334 2077.57 1.40334C1979.98 1.40334 1979.16 1.42928 1979.16 4.47522ZM2254.84 2.76913C2252.55 4.24785 2252.68 5.84101 2256.83 28.2537C2258.75 38.5971 2259.29 71.9956 2260.17 233.504C2261.23 430.921 2260.77 455.362 2255.45 480.545C2252.94 492.439 2253.5 495.479 2258.38 496.701C2260.23 497.164 2306.82 497.31 2361.92 497.025C2458.43 496.526 2462.43 496.392 2471.43 493.35C2496.95 484.721 2509.64 465.601 2517.56 423.842C2520.03 410.826 2520.26 396.105 2520.25 250.908C2520.24 106.848 2519.99 90.723 2517.56 76.1785C2510.95 36.6484 2497.76 14.7286 2475.1 5.56938C2466.71 2.17856 2466.31 2.16483 2361.83 1.77874C2301.36 1.55594 2256.07 1.9756 2254.84 2.76913ZM623.086 5.09479C621.662 6.80546 621.581 8.66568 622.77 12.4075C627.015 25.7678 627.457 41.4813 627.728 188.341C627.981 324.832 627.745 342.152 625.498 352.389C624.116 358.683 622.985 365.402 622.985 367.321L622.983 370.808L721.329 370.373C817.622 369.947 819.821 369.871 826.641 366.724C835.265 362.746 844.14 355.105 848.94 347.522C854.411 338.883 859.777 321.264 861.635 305.845C863.896 287.079 863.875 87.8174 861.609 69.3114C858.322 42.4488 849.685 23.0607 836.797 13.6115C823.243 3.67559 824.895 3.82056 720.039 3.28645C636.925 2.86069 624.756 3.08807 623.086 5.09479ZM871.493 5.2535C870.993 6.55214 872.662 11.5392 875.202 16.3355C879.358 24.1838 904.072 84.126 942.729 180.111C963.398 231.428 963.006 229.017 961.365 295.167C960.594 326.312 959.282 352.408 958.337 355.43C957.421 358.363 956.67 362.997 956.67 365.731V370.701H1005.7C1047.92 370.701 1054.85 370.382 1055.61 368.407C1056.1 367.145 1055.3 360.106 1053.84 352.765C1051.76 342.28 1051.04 328.453 1050.48 288.296L1049.78 237.174L1064.56 198.26C1072.69 176.858 1083.5 149.046 1088.58 136.456C1093.66 123.867 1101.12 104.295 1105.16 92.9647C1119.6 52.4168 1127.12 35.8701 1139.42 17.5899C1143.3 11.8215 1146.47 6.1508 1146.47 4.98492C1146.47 3.23304 1140.98 2.93852 1114.71 3.28035L1082.95 3.69237L1081.75 14.3745C1081.09 20.2497 1079.82 28.8336 1078.92 33.4498C1076.71 44.7821 1037.43 148.314 1035.5 147.888C1034.66 147.702 1028.06 132.692 1020.83 114.534C1013.6 96.3769 1005.06 74.9958 1001.85 67.0223C988.288 33.3705 986.863 28.6077 986.548 15.9006L986.246 3.69237L929.323 3.29256C879.12 2.94005 872.295 3.17047 871.493 5.2535ZM1198.11 4.58968C1173.71 10.3199 1160 32.5388 1155.69 73.3202C1153.63 92.8289 1153.68 278.215 1155.75 297.13C1159.99 335.853 1170.87 357.551 1190.62 366.654C1197.47 369.808 1199.77 369.938 1249.03 369.938C1307.7 369.938 1306.3 370.208 1314.85 357.214L1320.21 349.066L1320.97 358.415C1321.46 364.374 1322.57 368.291 1324.03 369.224C1325.37 370.077 1341.29 370.53 1362.3 370.312L1398.27 369.938L1398.11 365.36C1398.02 362.842 1396.47 355.351 1394.66 348.711C1391.52 337.148 1391.38 333.516 1391.38 262.318C1391.38 186.109 1391.79 179.687 1397.81 161.155C1400.71 152.219 1400.88 150.557 1398.97 149.351C1396.52 147.81 1263.07 147.311 1259.1 148.828C1257 149.635 1256.68 154.187 1256.68 184.09C1256.68 216.205 1256.86 218.352 1259.36 217.293C1269.28 213.101 1274.24 212.124 1285.77 212.085C1292.92 212.06 1299.68 212.613 1300.78 213.31C1302.38 214.317 1302.69 223.095 1302.31 255.984L1301.84 297.388L1297.6 301.616C1293.5 305.698 1292.72 305.863 1274.89 306.358C1262.44 306.702 1254.9 306.243 1251.77 304.949C1242.75 301.224 1242.91 303.367 1242.91 184.457V75.9434L1247.16 71.7057L1251.41 67.4679L1298.82 66.6713C1352.19 65.7725 1362.32 66.6179 1374.93 73.0165L1383.73 77.4832L1383.67 68.82C1383.59 56.6133 1378.48 7.09846 1377.07 4.82011C1376.16 3.35055 1356.77 2.96294 1289.88 3.08197C1242.58 3.16742 1201.28 3.84498 1198.11 4.58968ZM52.4654 6.28967C51.5838 7.37925 47.0285 16.1676 42.3431 25.8197C28.2517 54.8447 22.6555 79.2732 19.9187 123.722C17.5813 161.659 15.4904 171.309 4.75887 193.682L0.0015366 203.601L5.9232e-06 338.349C-0.00152475 456.149 0.292365 473.662 2.33429 477.599C3.61852 480.074 5.34053 482.101 6.16097 482.101C9.19783 482.101 7.52327 485.276 3.72873 486.715C0.457678 487.956 -0.116325 489.029 0.284712 493.163L0.763813 498.124L26.9613 499.303C41.3696 499.952 66.5109 499.952 82.831 499.303L112.503 498.124L112.982 493.163C113.383 489.029 112.809 487.956 109.538 486.715C107.381 485.897 105.615 484.921 105.615 484.545C105.615 484.168 107.711 481.772 110.27 479.219L114.926 474.579L114.403 342.141C113.813 193.102 114.658 204.018 101.678 177.601L94.9003 163.809V146.777C94.9003 118.201 87.8271 72.1665 79.4926 46.4912C73.6867 28.6077 61.227 5.38016 57.1095 4.76364C55.438 4.51337 53.3486 5.20008 52.4654 6.28967ZM2545.43 22.7677C2545.45 24.8659 2544.81 27.6097 2544.02 28.8641C2542.78 30.8205 2542.25 30.7121 2540.32 28.1011C2538.92 26.2119 2538.61 24.5073 2539.49 23.607C2540.28 22.8089 2540.94 19.7187 2540.97 16.7399L2541.03 11.3225L2543.22 15.1375C2544.42 17.2358 2545.42 20.6694 2545.43 22.7677ZM2517.67 27.7272L2517.18 32.6868L2515.23 27.184C2513.67 22.7951 2513.66 20.7869 2515.16 17.2648L2517.05 12.8485L2517.6 17.8081C2517.91 20.5366 2517.93 24.9987 2517.67 27.7272ZM2533.27 16.6636C2533.27 17.5029 2531.2 18.1896 2528.67 18.1896C2526.15 18.1896 2524.08 17.5029 2524.08 16.6636C2524.08 15.8243 2526.15 15.1375 2528.67 15.1375C2531.2 15.1375 2533.27 15.8243 2533.27 16.6636ZM2531.85 30.555C2534.63 34.4509 2534.85 35.5298 2533.1 36.6362C2528.12 39.7798 2524.08 37.2542 2524.08 30.9975C2524.08 24.3639 2527.29 24.1808 2531.85 30.555ZM2131.53 69.2427C2135.28 72.9814 2135.29 73.0455 2135.29 105.003C2135.29 122.614 2134.65 138.698 2133.87 140.748C2133.04 142.908 2130.38 145.196 2127.52 146.188C2120.66 148.573 2078.31 148.477 2075.9 146.07C2074.57 144.747 2074.06 133.992 2074.06 107.282C2074.06 86.9552 2074.48 69.2381 2074.99 67.9105C2075.79 65.8412 2079.62 65.4963 2101.85 65.4963C2127.34 65.4963 2127.84 65.5604 2131.53 69.2427ZM770.6 70.6054C773.735 73.7307 774.327 76.2181 775.243 90.0622C775.82 98.7926 776.066 149.199 775.789 202.075C775.255 304.012 775.281 303.658 768.016 305.973C766.121 306.576 754.372 307.115 741.904 307.168C723.581 307.247 718.967 306.838 717.821 305.03C715.548 301.447 715.909 71.1288 718.191 68.8535C719.46 67.5885 727.288 67.0223 743.516 67.0223C766.126 67.0223 767.141 67.1566 770.6 70.6054ZM2417.63 90.462C2420.37 93.1982 2421.5 96.5142 2422.33 104.271C2422.94 109.885 2423.52 177.45 2423.63 254.416C2423.84 409.587 2424.06 405.786 2414.6 409.73C2407.45 412.708 2362.99 412.85 2360.54 409.901C2358.72 407.722 2357.72 91.3151 2359.52 88.4156C2360.11 87.4558 2370.73 86.8606 2387.25 86.8606C2413.33 86.8606 2414.1 86.9522 2417.63 90.462ZM1820.02 151.746C1827.57 180.418 1833.75 204.674 1833.75 205.648C1833.75 206.93 1825.28 207.416 1802.95 207.416H1772.16L1773.05 203.983C1773.54 202.094 1780.67 176.362 1788.9 146.798C1799.98 107.006 1804.18 93.8986 1805.08 96.3296C1805.75 98.1349 1812.47 123.072 1820.02 151.746ZM443.274 173.122C436.893 176.441 434.814 179.843 434.759 187.061C434.719 192.309 435.528 194.096 439.42 197.361C449.164 205.536 467.157 200.992 469.259 189.823C470.589 182.754 468.27 177.712 461.91 173.845C455.941 170.217 449.354 169.962 443.274 173.122ZM330.138 190.098C328.454 191.778 328.941 277.894 330.725 293.846C333.696 320.414 341.068 343.379 349.941 353.715C361.841 367.576 375.446 371.078 414.811 370.414L443.129 369.938L443.542 337.473C443.923 307.528 443.746 304.948 441.246 304.212C431.075 301.218 424.612 296.393 420.956 289.059C417.222 281.57 417.137 280.58 416.364 235.648L415.577 189.867L373.379 189.463C350.171 189.238 330.712 189.525 330.138 190.098ZM487.072 191.537C486.32 192.873 486.022 207.467 486.406 223.965C487.203 258.128 485.083 284.813 481.002 291.964C479.17 295.175 475.002 298.277 467.989 301.648L457.67 306.609V336.942C457.67 361.659 458.084 367.617 459.902 369.123C462.823 371.537 523.249 370.457 531.414 367.843C551.75 361.333 564.019 342.62 570.322 308.499C572.69 295.674 575.264 200.435 573.438 193.182L572.413 189.104H530.425C493.597 189.104 488.269 189.403 487.072 191.537Z" fill="currentColor"/>
<path fill-rule="evenodd" clip-rule="evenodd" d="M355.117 458.034V500H397.18C432.385 500 440.253 499.597 445.44 497.528C448.849 496.168 452.307 493.809 453.124 492.286C453.942 490.765 454.611 484.254 454.611 477.822C454.611 466.772 454.355 465.887 449.98 461.814C445.808 457.928 445.632 457.412 448.205 456.598C453.1 455.049 454.78 449.586 454.298 436.797C453.888 425.916 453.472 424.5 449.901 421.848C443.303 416.948 435.537 416.143 394.532 416.105L355.117 416.069V458.034ZM641.353 452.794C641.353 473.623 641.996 490.717 642.839 492.286C646.236 498.614 654.716 500 689.982 499.991C724.387 499.983 732.766 498.9 737.885 493.797C740.652 491.038 740.847 488.392 740.847 453.456V416.069H724.009H707.172V450.404V484.74H691.1H675.028V450.404V416.069H658.19H641.353V452.794ZM927.589 457.995V500H944.427H961.264L961.35 482.069L961.434 464.138L968.621 482.062L975.805 499.985L989.029 499.992L1002.25 500L1010.03 481.306L1017.8 462.612L1017.85 481.306L1017.9 500H1034.74H1051.57V458.034V416.069H1027.96H1004.34L997.022 438.13C992.997 450.264 989.332 459.83 988.877 459.388C988.423 458.947 984.895 449.191 981.036 437.708L974.022 416.832L950.805 416.411L927.589 415.989V457.995ZM1236.79 458.034V500H1254.39H1271.99V483.365V466.73L1298.4 466.156C1325.89 465.559 1333.01 463.978 1335.33 457.966C1335.85 456.608 1336.28 448.712 1336.28 440.419C1336.28 427.004 1335.92 425.011 1333.02 422.316C1327.59 417.276 1316.52 416.069 1275.74 416.069H1236.79V458.034ZM1523.02 458.034V500H1572.77H1622.52V492.37V484.74H1590.37H1558.23V475.584V466.427H1581.95H1605.68V458.034V449.641H1581.95H1558.23V441.248V432.855H1590.37H1622.52V424.462V416.069H1572.77H1523.02V458.034ZM1809.26 458.034V500H1826.1H1842.93V483.214V466.427H1859.01H1875.08V483.214V500H1891.91H1908.75V483.038C1908.75 466.453 1908.66 465.99 1904.51 462.203L1900.27 458.33L1904.51 454.103C1908.38 450.25 1908.75 448.881 1908.75 438.652C1908.75 417.502 1904.95 416.069 1848.78 416.069H1809.26V458.034ZM2109.46 417.598C2106.61 418.268 2102.48 420.157 2100.27 421.799C2096.46 424.633 2096.24 425.564 2095.82 440.323L2095.39 455.864L2103.48 459.533C2107.93 461.55 2122.41 465.472 2135.67 468.248L2159.77 473.295L2159.78 479.017L2159.78 484.74H2144.48H2129.17V477.873V471.006H2112.33H2095.49V481.451C2095.49 493.034 2096.84 495.172 2106.05 498.257C2112.66 500.47 2175.17 500.597 2183.06 498.413C2192.42 495.819 2194.99 491.035 2194.99 476.141C2194.99 461.039 2193.48 458.773 2180.91 455.004C2174.13 452.968 2132.15 443.537 2129.88 443.537C2129.49 443.537 2129.17 441.134 2129.17 438.196V432.855H2144.48H2159.78V439.722V446.589H2177.56H2195.33L2194.72 435.724C2193.99 422.943 2191.8 420.328 2179.59 417.717C2170.82 415.843 2117.3 415.751 2109.46 417.598ZM420.936 441.248V449.641H404.864H388.792V441.248V432.855H404.864H420.936V441.248ZM1302.6 441.248V449.641H1287.3H1271.99V441.248V432.855H1287.3H1302.6V441.248ZM1875.08 441.248V449.641H1859.01H1842.93V441.248V432.855H1859.01H1875.08V441.248ZM420.936 475.584V484.74H404.864H388.792V475.584V466.427H404.864H420.936V475.584Z" fill="currentColor"/>
</svg>
