<svg width="2097" height="500" viewBox="0 0 2097 500" fill="none" xmlns="http://www.w3.org/2000/svg">
<path fill-rule="evenodd" clip-rule="evenodd" d="M814.929 2.62484C762.825 12.1526 717.604 35.5866 681.335 71.8559C616.804 136.385 593.181 229.937 618.957 318.883C644.875 408.323 727.746 480.819 822.585 497.018C848.475 501.44 888.991 500.466 912.564 494.856C997.97 474.53 1067.23 413.672 1092.67 336.606C1095.07 329.322 1097.49 321.167 1098.05 318.482L1099.06 313.6H1039.82H980.585L974.95 322.729C963.135 341.87 938.065 362.943 916.56 371.81C891.654 382.078 860.32 385.459 835.848 380.521C782.044 369.662 740.546 326.91 730.889 272.392C728.4 258.343 729.002 233.42 732.205 217.902C737.654 191.492 749.286 170.122 768.414 151.375C793.158 127.122 823.934 115.122 861.521 115.071C897.314 115.021 928.596 127.471 954.423 152.04C963.622 160.791 975.652 176.541 975.652 179.832C975.652 180.919 996.616 181.416 1042.49 181.416H1109.34V275.783C1109.34 379.549 1109.81 386.461 1118.52 410.398C1132.43 448.655 1164.09 479.153 1203.45 492.217C1228.29 500.465 1269.61 502.455 1297.61 496.752C1359.92 484.064 1401.89 438.777 1409.59 375.936C1410.63 367.434 1411.25 328.274 1411.25 270.415L1411.26 178.412H1431.56H1451.85L1451.46 130.721L1451.06 83.0299H1360.94H1270.81L1270.41 130.721L1270.02 178.412H1287.38H1304.74L1304.26 270.415C1303.71 375.819 1304.04 372.896 1291.3 385.634C1282.85 394.081 1273.46 397.716 1260.08 397.716C1246.94 397.716 1235.85 393.29 1228.2 384.995C1216.09 371.851 1216.79 378.454 1216.31 272.668L1215.88 178.412H1232.45H1249.03V130.334V82.2548L1161.53 82.6423L1074.04 83.0299L1073.62 103.164L1073.2 123.298L1063.18 108.421C1048.91 87.2237 1017.61 56.1921 996.091 41.8968C968.248 23.4017 939.273 11.0981 906.948 4.04281C885.342 -0.67223 837.034 -1.41726 814.929 2.62484ZM41.5541 8.7939C26.4041 11.771 11.6175 23.6856 4.82362 38.3925C1.67976 45.1984 1.53255 47.6453 1.09995 100.304C0.852102 130.458 0.852102 160.787 1.09995 167.702L1.55058 180.273L6.75379 172.96C20.0547 154.262 38.7707 138.672 59.5926 128.946C75.9187 121.318 88.2388 118.194 106.6 117.025L121.525 116.076L123.406 104.89C128.987 71.6816 148.974 41.685 178.045 22.8789C183.415 19.4061 191.527 15.017 196.07 13.1259C200.614 11.2348 204.975 9.12285 205.759 8.43189C207.639 6.7751 50.0514 7.12359 41.5541 8.7939ZM281.689 8.23813C281.689 8.90055 285.697 10.9975 290.594 12.8961C309.26 20.1346 331.632 38.1987 343.516 55.6304C354.908 72.3426 360.757 87.4866 365.175 111.72C365.69 114.544 367.089 114.969 378.529 115.777C401.782 117.417 423.151 124.549 442.735 137.203C455.145 145.222 473.993 163.536 481.158 174.538L485.973 181.932V114.888C485.973 51.1557 485.822 47.441 482.919 39.6797C478.621 28.1948 469.8 18.7888 457.763 12.863L447.739 7.92569L364.714 7.47958C319.051 7.23324 281.689 7.57571 281.689 8.23813ZM227.437 78.2563C214.13 83.2267 202.586 93.8629 197.419 105.917C193.604 114.818 192.269 128.001 194.411 135.603C195.989 141.209 195.845 141.838 192.248 144.991C187.695 148.982 177.252 149.608 172.699 146.165C168.429 142.936 163.998 143.385 160.195 147.435L156.84 151.005L147.54 147.929C133.415 143.257 104.714 143.358 89.4225 148.133C28.8915 167.034 -2.47351 228.059 18.0329 287.029C30.9268 324.102 64.9896 351.454 105.286 357.087C116.76 358.691 135.283 357.95 138.85 355.745C139.795 355.161 141.65 350.877 142.973 346.225L145.38 337.768L141.516 333.176L137.653 328.585L140.541 322.219C144.267 314.013 144.235 308.069 140.435 301.835C137.497 297.017 137.148 296.877 131.053 298.08C119.167 300.426 107.562 299.048 97.4992 294.094C86.6706 288.763 80.0119 281.787 74.6029 270.108C69.5589 259.218 69.3051 242.81 74.0141 232.223C78.1854 222.847 88.3335 212.093 97.6239 207.207C104.179 203.758 107.009 203.222 118.713 203.21C130.037 203.198 133.444 203.793 139.703 206.874C149.18 211.536 158.439 220.762 162.909 229.994C166.977 238.396 168.575 253.255 166.299 261.497C164.925 266.469 165.108 267.616 167.686 270.194C172.533 275.041 177.475 276.235 184.923 274.359C188.604 273.433 191.982 272.081 192.429 271.357C193.886 269 198.076 269.963 201.996 273.554L205.834 277.071L215.103 274.211L224.371 271.352L225.417 260.196C226.545 248.158 224.383 228.969 220.735 218.627C218.606 212.594 218.654 212.319 222.545 208.259L226.542 204.086L223.182 196.275C219.569 187.877 219.821 181.373 223.936 176.824C225.86 174.699 228.343 174.405 239.314 175.004C250.159 175.596 253.833 175.175 260.779 172.547C275.849 166.845 286.636 155.109 291.327 139.316C294.472 128.72 294.328 122.161 290.687 110.371C287.014 98.4833 278.119 87.9071 266.44 81.5443C259.688 77.8657 256.37 77.0921 245.639 76.6971C237.493 76.3982 230.904 76.9615 227.437 78.2563ZM1472.84 239.954V397.629L1452.94 398.048L1433.04 398.467V445.783V493.099H1505.89H1578.74L1579.49 428.254L1580.24 363.409L1627.63 428.254L1675.02 493.099L1730.15 493.492L1785.27 493.887V445.801V397.716L1759.36 397.632L1733.45 397.55L1715.99 374.855L1698.52 352.158L1708.48 347.309C1743.28 330.354 1769.21 292.631 1776.3 248.635L1778.18 236.993H1818.53H1858.88V209.205V181.416H1868.64H1878.4V289.523V397.629L1858.5 398.048L1838.6 398.467V445.783V493.099H1932.48H2026.36V445.783V398.467L2005.71 398.05L1985.05 397.632V289.524V181.416H1995.57H2006.08V209.227V237.037L2051.52 236.64L2096.96 236.242V159.636V83.0299L1932.1 82.6484L1767.25 82.2653L1767.21 126.209L1767.17 170.151L1761.35 159.177C1745.76 129.806 1720.42 106.231 1692.18 94.8242C1665.55 84.0678 1645.32 82.3539 1544.57 82.3104L1472.84 82.2788V239.954ZM349.893 145.327C347.553 146.274 346.247 148.953 344.795 155.795C342.941 164.533 343.004 165.162 346.062 168.419C349.884 172.486 349.992 173.703 347.039 179.368C343.595 185.971 344.137 195.527 348.225 200.28C351.602 204.204 351.85 204.251 360.164 202.525C376.104 199.216 392.197 204.526 404.204 217.056C422.52 236.173 421.092 268.654 401.163 286.197C390.904 295.228 379.822 299.045 366.297 298.209C347.954 297.075 333.811 287.851 324.939 271.233C321.959 265.65 321.491 262.577 321.472 248.405C321.449 232.289 321.383 231.978 317.308 228.935C312.398 225.268 302.741 225.135 297.362 228.658C292.578 231.793 290.789 231.602 286.278 227.47L282.44 223.954L273.205 226.803C262.305 230.166 262.212 230.368 262.183 250.602C262.168 260.273 263.188 269.021 265.306 277.393L268.45 289.826L264.997 293.503C261.811 296.894 261.701 297.554 263.58 302.01C267.226 310.648 267.305 319.896 263.774 324.385C260.881 328.063 260.202 328.253 255.015 326.82C247.288 324.685 232.591 326.106 224.254 329.794C214.907 333.929 204.153 344.133 199.435 353.345C193.888 364.176 193.035 381.653 197.476 393.431C201.927 405.23 210.659 414.6 222.74 420.548C231.366 424.794 234.283 425.466 244.137 425.466C253.991 425.466 256.908 424.794 265.534 420.548C277.611 414.603 286.34 405.236 290.807 393.431C293.484 386.359 293.897 382.757 293.297 371.768C292.603 359.081 292.717 358.476 296.348 355.621C301.182 351.819 308.018 351.847 315.207 355.7C321.096 358.858 322.315 358.676 327.713 353.826C330.798 351.054 331.255 351.039 338.979 353.424C351.559 357.31 378.01 358.088 391.966 354.984C430.269 346.462 462.711 314.892 472.502 276.614C476.454 261.158 476.454 239.867 472.502 224.411C462.923 186.961 432.362 156.399 394.912 146.82C382.773 143.717 356.066 142.831 349.893 145.327ZM1646.43 186.941C1654.18 191.087 1663.02 200.825 1667.15 209.773C1669.72 215.321 1670.36 219.581 1670.36 230.985C1670.37 243.582 1669.87 246.261 1666.15 253.838C1660.98 264.369 1651.11 273.332 1639.79 277.778C1632.5 280.641 1627.67 281.197 1605.4 281.732L1579.49 282.353V232.525V182.698L1609.91 183.183C1637.75 183.629 1640.84 183.946 1646.43 186.941ZM1.21111 387.953L1.55058 455.547L5.72787 464.054C13.3269 479.526 25.9024 489.132 42.7392 492.325C53.5722 494.38 206.585 494.401 206.585 492.348C206.585 491.522 205.705 490.846 204.628 490.846C200.712 490.846 178.591 479.098 170.669 472.81C145.444 452.792 130.141 428.028 124.442 398.009L121.962 384.949L109.229 384.47C68.506 382.934 28.2802 359.977 3.46423 324.107C0.993305 320.535 0.886657 323.542 1.21111 387.953ZM480.084 328.879C472.308 340.158 455.378 356.364 442.624 364.738C423.893 377.034 402.532 384.008 376.02 386.485L365.956 387.424L364.933 394.448C360.966 421.681 344.331 450.928 322.423 469.193C313.041 477.014 288.363 490.846 283.789 490.846C282.634 490.846 281.689 491.553 281.689 492.418C281.689 493.501 307.587 493.853 364.714 493.545L447.739 493.099L457.763 488.161C469.813 482.228 478.621 472.828 482.934 461.303C485.878 453.433 485.988 450.408 485.612 387.262L485.222 321.427L480.084 328.879Z" fill="currentColor"/>
</svg>
