<svg width="4201" height="500" viewBox="0 0 4201 500" fill="none" xmlns="http://www.w3.org/2000/svg">
<path fill-rule="evenodd" clip-rule="evenodd" d="M0.6875 250V500H72.9097H145.132V311.111V122.222H334.021H522.91V250V377.778H356.243H189.576V438.889V500H381.71H573.843L620.599 452.356L667.354 404.711V243.5V82.2889L625.221 41.1444L583.087 0H291.887H0.6875V250ZM722.91 202.356V404.711L769.665 452.356C797.787 481.011 826.576 500 841.887 500C866.443 500 867.354 496.6 867.354 405.556V311.111H1128.47H1389.58V250V188.889H1128.47H867.354V94.4444V0H795.132H722.91V202.356ZM911.799 61.1111V122.222H1144.48C1300.84 122.222 1379.62 118.233 1384.67 110.078C1388.79 103.389 1370.54 75.8889 1344.11 48.9667L1296.07 0H1103.93H911.799V61.1111ZM1480.78 47.6444L1434.02 95.2889V250V404.711L1480.78 452.356L1527.53 500H1767.35H2007.18L2054 452.289C2124.67 380.278 2117.02 377.778 1826.24 377.778H1578.47V188.889V0H1553C1537.69 0 1508.9 18.9889 1480.78 47.6444ZM1622.91 61.1111V122.222H1849.33C2039.93 122.222 2078 119.511 2089.99 105.056C2102.02 90.5556 2097.59 81.1 2061.31 43.9444L2018.4 0H1820.65H1622.91V61.1111ZM2134.02 250V500H2206.24H2278.47V250V0H2206.24H2134.02V250ZM2500.69 94.4444C2415.91 179.667 2402.64 188.889 2364.82 188.889H2322.91V250V311.111H2403.61H2484.32L2639.58 155.556L2794.83 0H2694.74H2594.64L2500.69 94.4444ZM2822.91 202.356V404.711L2869.67 452.356C2897.79 481.011 2926.58 500 2941.89 500C2966.44 500 2967.35 496.6 2967.35 405.556V311.111H3228.47H3489.58V250V188.889H3228.47H2967.35V94.4444V0H2895.13H2822.91V202.356ZM3011.8 61.1111V122.222H3250.69C3438.51 122.222 3489.58 119.156 3489.58 107.867C3489.58 99.9778 3468.13 72.4778 3441.93 46.7556L3394.29 0H3203.04H3011.8V61.1111ZM3545.13 250V500H3611.8H3678.47V311.111V122.222H3873.28H4068.09L4064.94 247.222L4061.8 372.222L3897.91 375.3L3734.02 378.367V439.189V500H3924.2H4114.36L4157.53 452.778L4200.69 405.567V243.922V82.2889L4158.55 41.1444L4116.42 0H3830.78H3545.13V250ZM2589.58 272.222L2540.3 322.433L2628.57 411.211C2707.8 490.911 2721.13 500 2758.77 500H2800.69V441.389C2800.69 383.367 2799.87 381.967 2719.77 302.4L2638.84 222.022L2589.58 272.222ZM911.799 438.889V500H1150.69H1389.58V438.889V377.778H1150.69H911.799V438.889ZM3011.8 438.889V500H3250.69H3489.58V438.889V377.778H3250.69H3011.8V438.889Z" fill="currentColor"/>
</svg>
