<svg width="2296" height="500" viewBox="0 0 2296 500" fill="none" xmlns="http://www.w3.org/2000/svg">
<path fill-rule="evenodd" clip-rule="evenodd" d="M1744.19 3.85078C1737.38 5.67972 1726.73 9.94495 1720.51 13.3301C1706.01 21.2211 1685.17 43.7276 1678.14 59.0879C1675.13 65.6702 1658.73 114.165 1641.71 166.851C1624.69 219.537 1600.43 294.505 1587.79 333.442C1554.4 436.374 1551.8 448.681 1559.56 467.239C1566.34 483.468 1578.95 492.528 1601.39 497.284C1618.42 500.893 2093.95 500.912 2111.11 497.302C2140.54 491.114 2167.73 470.241 2181.24 443.46C2189.89 426.338 2290.59 98.9487 2294.01 76.8685C2300.01 38.1078 2283.02 12.5623 2245.36 3.68348C2224.1 -1.3312 1762.88 -1.17765 1744.19 3.85078ZM1957.09 29.1305C1989.23 33.1642 2022.93 39.7511 2029.54 43.2898C2031.95 44.5802 2035.97 47.9309 2038.48 50.7362C2043.03 55.8288 2043.03 55.8357 2038.46 54.4926C2024.12 50.2847 1979.42 43.4869 1953.52 41.5732C1903.25 37.858 1851.84 44.2112 1823.19 57.6784C1801.35 67.9438 1790.6 84.1338 1794.13 101.422L1795.7 109.088L1849.47 109.226C1903.4 109.363 1922.25 111.027 1969.7 119.83C1996.81 124.859 2003.82 127.524 2010.96 135.516C2015.53 140.636 2015.53 140.638 2010.95 139.272C1966.79 126.105 1881.88 121.345 1838.47 129.601C1826.81 131.819 1816.71 134.53 1816.03 135.626C1813.96 138.972 1844.53 160.065 1870.42 173.149C1901.42 188.821 1942.64 202.258 1986.12 210.874C2028.58 219.285 2048.8 221.607 2050.85 218.299C2051.91 216.583 2056.86 216.913 2067.18 219.39C2088.06 224.396 2127.68 222.569 2145.55 215.776C2173.78 205.048 2175.24 184.297 2149.12 165.004C2136.5 155.685 2106.05 141.408 2090.6 137.57C2073.28 133.265 2075.75 130.831 2093.63 134.579C2142.72 144.869 2195.02 172.782 2201.84 192.328C2205.02 201.436 2200.16 211.706 2189.27 218.914C2180.15 224.946 2149.66 233.875 2137.21 234.157C2121.62 234.512 2121.57 237.105 2136.98 245.092C2155.12 254.495 2171.31 268.446 2174.41 277.337C2177.93 287.437 2171.71 297.897 2157.63 305.534C2145.25 312.251 2120.43 318.797 2107.33 318.797C2098.56 318.797 2096.38 322.18 2103.66 324.492C2106.12 325.272 2115.76 330.887 2125.08 336.97C2141.49 347.686 2151.9 359.726 2151.9 367.99C2151.9 381.387 2127.87 396.032 2096.9 401.505C2075.61 405.266 2016.11 405.326 1986.89 401.615C1897.9 390.309 1786.56 354.716 1736.44 321.545L1727.34 315.522L1722.07 322.123C1708.57 339.064 1714.1 359.533 1738.62 383.319C1777.19 420.745 1856.82 451.725 1937.61 460.744C2001.33 467.858 2064.6 464.842 2102.63 452.878C2105.68 451.918 2105.29 452.541 2101.48 454.739C2094 459.048 2059.64 466.925 2035.08 469.957C2010.08 473.042 1945.37 473.044 1920.36 469.959C1836.34 459.598 1723.38 416.001 1679.07 376.839C1665.71 365.034 1655.3 349.74 1652.41 337.698C1648.28 320.479 1653.55 309.37 1671.32 297.886C1678.88 292.999 1686.45 289.002 1688.15 289.002C1692.23 289.002 1692.27 289.149 1684.36 274.105C1670.31 247.397 1679.26 225.494 1709.59 212.345C1715.25 209.893 1720.27 207.615 1720.74 207.287C1721.21 206.957 1718.85 203.427 1715.5 199.439C1701.5 182.8 1698.02 163.56 1706.44 149.27C1711.07 141.402 1726.37 130.249 1738.59 125.83C1742.8 124.309 1746.24 122.173 1746.24 121.079C1746.24 119.988 1743.48 115.482 1740.11 111.066C1732.39 100.94 1728.02 84.3309 1730.36 73.9624C1732.45 64.7168 1743.98 51.9968 1755.81 45.898C1774.48 36.2743 1812.78 27.9226 1853.96 24.4894C1872.38 22.9538 1927.75 25.4451 1957.09 29.1305ZM115.307 52.3978C113.914 53.3238 98.6108 98.4307 81.3023 152.634C30.4634 311.834 1.50518 402.25 0.375274 405.316C-0.463563 407.592 36.2871 408.181 179.338 408.181H359.36L365.047 389.273C375.285 355.227 376.428 350.868 375.39 349.829C374.826 349.266 337.789 348.573 293.088 348.292C248.384 348.012 206.055 347.363 199.021 346.852L186.235 345.922L200.449 300.845L214.661 255.77L302.741 255.169L390.821 254.571L400.479 226.521C405.79 211.094 410.119 197.184 410.099 195.607C410.069 193.366 390.815 192.742 321.576 192.742C251.756 192.742 233.315 192.137 234.147 189.878C234.727 188.303 240.592 170.779 247.179 150.94L259.159 114.868L353.271 114.27L447.386 113.672L457.403 85.0391C462.911 69.2892 466.922 55.1092 466.314 53.5255C465.441 51.2473 428.878 50.6514 291.525 50.6789C196.001 50.6995 116.701 51.4719 115.307 52.3978ZM509.407 52.3978C507.486 53.624 430.361 290.639 395.316 403.024L393.707 408.181H474.788H555.868L611.314 231.132C641.808 133.756 666.757 53.3077 666.755 52.3635C666.753 50.1403 512.897 50.1747 509.407 52.3978ZM717.837 53.5094C716.033 55.8678 609.902 397.386 608.687 404.743C608.442 406.226 636.704 407.248 688.666 407.638L769.022 408.239L783.548 356.941L798.074 305.642L813.43 297.347L828.785 289.053L847.114 348.044L865.444 407.035L957.471 407.633C1008.09 407.963 1049.5 407.448 1049.49 406.488C1049.49 405.529 1046.31 397.008 1042.44 387.554C993.076 267.099 971.463 212.421 972.362 210.257C972.96 208.818 999.069 193.717 1030.38 176.699L1087.32 145.758L1036.39 145.142L985.458 144.525L904.604 189.511C860.132 214.254 822.265 235.674 820.454 237.111C817.853 239.176 817.427 239.004 818.426 236.289C819.123 234.398 827.122 209.645 836.198 181.283C845.276 152.921 858.243 112.757 865.016 92.0294C871.791 71.3014 876.817 53.5117 876.189 52.4941C875.559 51.4765 840.167 50.6445 797.535 50.6445C738.226 50.6445 719.512 51.3161 717.837 53.5094ZM1139.97 147.477C1137.83 153.235 1122.84 198.248 1122.84 198.921C1122.84 199.304 1176.39 199.618 1241.83 199.618C1307.28 199.618 1362.45 200.244 1364.45 201.009C1372.05 203.927 1365.28 223.85 1356 225.881C1353.19 226.498 1307.57 227.398 1254.63 227.884C1152.18 228.824 1147.83 229.259 1125.22 240.817C1110.75 248.211 1093.06 267.252 1084.58 284.549C1073.93 306.253 1063.25 344.338 1063.25 360.576C1063.25 383.926 1071.55 394.774 1095.63 402.887C1106.71 406.618 1117.14 407.031 1199.62 406.992C1281.08 406.95 1292.41 406.504 1301.33 402.981C1313.63 398.115 1313.42 398.113 1312.6 403.024C1311.97 406.767 1316.99 407.077 1387.7 407.638L1463.49 408.243L1491.45 320.546C1522.78 222.251 1524.99 213.512 1523.26 194.461C1520.92 168.673 1504.44 153.759 1471.85 147.95C1447 143.522 1141.6 143.086 1139.97 147.477ZM1774.13 157.47C1766.74 166.436 1764.44 175.535 1766.74 186.745L1768.2 193.888H1820.24C1848.86 193.888 1872.28 193.114 1872.29 192.169C1872.29 191.225 1871.14 190.451 1869.73 190.451C1864.73 190.451 1818.09 169.688 1800.25 159.524C1790.28 153.844 1781.86 149.196 1781.54 149.196C1781.21 149.196 1777.88 152.918 1774.13 157.47ZM1833.33 211.327C1814.88 213.418 1795.24 217.47 1789.98 220.273C1787.62 221.524 1791.09 225.221 1802.58 233.713C1834.7 257.443 1879.42 276.855 1919.79 284.588C1933.37 287.192 1946.62 290.696 1949.22 292.376C1954.14 295.548 2007.92 305.046 2020.97 305.046C2025.35 305.046 2027.83 304.101 2027 302.754C2025.16 299.777 2025.49 299.804 2044.84 304.205C2056.73 306.911 2067.02 307.583 2081.96 306.632C2143.95 302.687 2159.12 275.308 2115.56 246.029C2102.78 237.439 2099.54 236.286 2088.1 236.266C2065.71 236.229 2015.51 229.72 1974.65 221.559C1914.14 209.476 1874.82 206.627 1833.33 211.327ZM1748.65 242.39C1742.81 249.809 1741.08 256.102 1742.06 266.34C1742.91 275.237 1736.22 274.403 1797.23 273.218L1832.18 272.537L1818.43 266.567C1810.87 263.283 1794.07 255.128 1781.1 248.443C1768.13 241.757 1756.6 236.289 1755.48 236.289C1754.36 236.289 1751.29 239.034 1748.65 242.39ZM1340.57 288.553C1340.57 291.262 1325.59 334.909 1322.07 342.461C1316.88 353.6 1309.89 355.467 1273.38 355.467C1243.43 355.467 1239.78 355.023 1234.31 350.716C1226.82 344.824 1226.81 342.032 1234.23 318.343C1240.74 297.531 1246.26 289.747 1255.48 288.324C1267.1 286.534 1340.57 286.731 1340.57 288.553ZM1792.64 292.596C1780.97 294.468 1768.71 297.035 1765.38 298.301L1759.32 300.602L1764.81 306.51C1808.06 353.047 1951.95 395.903 2049.92 391.425C2081.68 389.974 2099.48 385.329 2108.74 376.069C2122.03 362.769 2114.3 344.817 2088.18 328.391C2078.43 322.258 2074.94 321.479 2051.06 320.113C2010.85 317.812 1964.42 310.503 1923.86 300.088C1889.67 291.308 1884.71 290.62 1850.52 289.933C1825.78 289.436 1806.95 290.302 1792.64 292.596Z" fill="currentColor"/>
</svg>
