<svg width="2574" height="501" viewBox="0 0 2574 501" fill="none" xmlns="http://www.w3.org/2000/svg">
<path fill-rule="evenodd" clip-rule="evenodd" d="M604.093 1.22435C531.654 6.12067 472.207 45.5372 453.82 100.859C441.823 136.958 444.729 182.056 460.77 208.695C483.974 247.231 506.564 259.529 613.215 291.693C670.366 308.929 687.117 322.718 686.84 352.305C686.629 374.843 674.127 392.51 649.974 404.398C631.46 413.509 616.421 416.108 588.615 414.999C552.287 413.547 532.492 407.039 516.487 391.286C503.384 378.387 495.953 358.847 495.805 336.904L495.744 327.875H444.747H393.749L394.877 346.363C398.164 400.308 417.754 440.106 453.745 465.964C484.638 488.158 531.873 500.102 589.296 500.24C629.598 500.336 658.904 495.412 689.65 483.38C756.981 457.033 794.215 399.799 789.128 330.475C787.281 305.321 779.139 279.071 769.304 266.568C767.378 264.119 766.299 261.314 766.905 260.334C767.512 259.354 767.29 258.994 766.415 259.534C765.537 260.076 761.355 257.001 757.119 252.701C735.599 230.853 705.533 217.591 643.138 202.422C597.016 191.209 577.948 183.46 561.982 169.441C552.571 161.178 548.531 151.941 548.748 139.176C549.336 104.68 580.958 83.595 631.968 83.6896C680.474 83.7808 709.915 103.447 713.372 138.063C713.926 143.613 714.734 149.906 715.169 152.049L715.96 155.944L766.225 155.489L816.49 155.033L815.987 139.91C815.354 120.951 809.109 95.8591 800.878 79.2009C781.705 40.4018 741.506 13.1685 688.364 2.97687C675.691 0.546765 628.595 -0.433552 604.093 1.22435ZM1025.45 1.16762C1000.79 3.09897 975.324 10.6214 947.197 24.2871C882.024 55.9472 831.742 119.341 810.695 196.386C801.354 230.579 799.442 245.975 799.385 287.459C799.346 317.306 799.992 328.55 802.446 340.711C823.514 445.035 894.589 499.813 1009.13 500.004C1040.18 500.056 1053.99 498.532 1076.18 492.609C1144.79 474.295 1191.15 425.717 1223.89 337.839C1233.75 311.375 1238.97 313.99 1177.33 314.522L1124.56 314.976L1122.5 323.069C1119.52 334.745 1111.08 351.99 1103.17 362.567C1088.81 381.782 1072.5 394.108 1050.7 402.241C1032.69 408.957 1004.17 410.706 985.204 406.259C934.681 394.413 906.617 352.391 906.437 288.319C906.335 251.597 912.75 219.495 926.686 186.989C953.144 125.277 1000.74 90.6807 1059.33 90.5689C1078.69 90.5328 1090.31 92.8666 1103.32 99.4053C1127.86 111.735 1141.73 133.877 1144.94 165.856L1146.18 178.25H1199.59H1252.99L1251.94 158.902C1247.58 78.8122 1198.12 22.1116 1117.35 4.61413C1099.66 0.778934 1052.82 -0.976996 1025.45 1.16762ZM1473.46 1.08852C1423.66 5.11462 1375.98 26.5659 1334.28 63.7054C1330.56 67.016 1326.87 69.3188 1326.07 68.8252C1325.27 68.3317 1324.82 68.698 1325.08 69.6404C1325.34 70.5829 1320.82 77.0253 1315.03 83.9562C1279.22 126.861 1258.47 173.296 1247.89 234.218C1243.67 258.542 1243.66 317.351 1247.87 339.659C1267.61 444.17 1340.33 500.434 1455.4 500.235C1485.97 500.181 1507.64 497.368 1532.23 490.256C1634.09 460.799 1703.99 366.851 1716.97 241.98C1719.74 215.33 1718.06 170.436 1713.47 148.826C1699.12 81.1667 1657.36 33.2646 1594.52 12.3585C1584.48 9.02028 1570.17 5.16965 1562.7 3.8024C1545.91 0.725645 1496.52 -0.775761 1473.46 1.08852ZM99.28 11.858C98.4923 13.9803 81.7241 92.1133 77.041 115.477C75.7151 122.098 71.044 144.542 66.6619 165.352C52.4442 232.868 47.3019 257.438 37.5024 304.657C32.2019 330.196 26.6659 356.509 25.1988 363.131C23.7318 369.752 20.7153 384.07 18.495 394.947C11.5865 428.788 7.52256 448.41 3.27977 468.418C1.03025 479.033 -0.400637 488.125 0.0998303 488.626C0.600297 489.128 84.0218 489.537 185.482 489.537H369.954L371.924 479.648C374.244 468.007 381.026 436.254 385.599 415.62C387.377 407.6 388.462 400.44 388.012 399.711C387.561 398.984 328.422 398.387 256.588 398.387C153.207 398.387 126.001 397.938 126.066 396.237C126.113 395.056 131.417 369.709 137.854 339.913L149.559 285.739L269.721 284.879L389.883 284.019L397.988 247.043C402.446 226.706 406.144 207.553 406.204 204.478L406.314 198.888H287.646C193.875 198.888 168.972 198.438 168.948 196.738C168.931 195.557 173.318 173.504 178.698 147.734L188.478 100.879L318.405 100.439L448.334 99.9987L456.464 60.4429C460.934 38.6872 464.939 18.3727 465.36 15.2976L466.129 9.70824H283.104C138.256 9.70824 99.9112 10.1571 99.28 11.858ZM1779.57 11.858C1779.15 13.0412 1775.26 31.034 1770.93 51.8438C1766.61 72.6536 1760.43 102.062 1757.21 117.197C1744.67 176.145 1678.98 488.242 1678.98 488.872C1678.98 490.239 1785.44 489.479 1786.29 488.107C1786.78 487.319 1791.49 466.23 1796.76 441.242C1802.03 416.253 1807.46 390.777 1808.82 384.629C1812.74 366.978 1819.48 335.273 1822.82 318.845L1825.87 303.797L1883.56 303.823C1943.41 303.849 1955 304.932 1968.42 311.755C1981.29 318.295 1989.69 333.417 1991.49 353.292C1991.99 358.797 1991.05 380.676 1989.4 401.913C1986.31 441.608 1986.57 476.088 1990.03 484.808L1991.9 489.537H2043.74H2095.58L2094.47 485.668C2089.04 466.667 2088.07 438.043 2090.69 373.45C2092.02 340.522 2091.84 333.741 2089.29 321.171C2084.2 296.039 2072.05 277.938 2053.9 268.448C2048.11 265.421 2047.11 264.381 2049.93 264.322C2055.25 264.209 2077.37 256.055 2086.58 250.816C2119.15 232.272 2141.85 200.307 2149.6 162.062C2151.7 151.665 2152.16 142.946 2151.43 126.711C2149.72 88.2558 2141.21 66.1028 2119.95 44.7083C2100.93 25.5719 2077.46 15.4851 2042.72 11.5089C2018.83 8.77437 1780.56 9.09082 1779.57 11.858ZM2173.51 11.858C2173.14 13.0412 2170.8 23.6818 2168.32 35.5055C2165.84 47.3292 2162.32 63.9685 2160.51 72.4816C2158.69 80.9947 2156.71 90.8544 2156.1 94.3904L2154.99 100.822L2229.61 101.27L2304.23 101.718L2268.6 271.121C2249 364.292 2230.72 451.235 2227.97 464.327C2224.55 480.634 2223.57 488.361 2224.88 488.86C2225.92 489.261 2250.32 489.384 2279.1 489.133L2331.42 488.677L2365.44 327.015C2384.15 238.1 2401.85 153.743 2404.79 139.554C2407.72 125.366 2410.87 110.856 2411.79 107.308L2413.47 100.859H2484.78C2524 100.859 2556.09 100.577 2556.09 100.231C2556.09 99.8852 2559.64 82.6646 2563.99 61.9649C2568.33 41.2635 2572.3 21.0367 2572.81 17.0175L2573.73 9.70824H2373.96C2215.64 9.70824 2174.04 10.1537 2173.51 11.858ZM1536.95 93.9415C1567.89 101.856 1589.39 121.295 1600.84 151.734C1622.62 209.587 1607.59 297.932 1566.73 352.201C1547.55 377.679 1523.87 394.956 1495.82 403.945C1480.54 408.844 1447.66 410.006 1430.77 406.248C1391.35 397.479 1365.73 370.084 1354.35 324.521C1350.52 309.204 1350.56 265.631 1354.41 244.463C1369.2 163.243 1411.02 110.252 1473.2 93.9535C1490.45 89.4304 1519.29 89.4252 1536.95 93.9415ZM1988.55 95.6148C2010.7 98.0019 2020.59 101.835 2030.78 111.979C2041.45 122.609 2044.45 131.714 2044.25 152.828C2044.12 165.976 2043.45 169.165 2038.74 178.723C2029.34 197.813 2012.38 210.313 1984.25 218.881C1968.81 223.581 1968.6 223.597 1905.82 224.285L1842.87 224.973L1849.46 193.443C1853.09 176.101 1858.79 148.369 1862.13 131.815C1865.47 115.262 1868.95 99.978 1869.87 97.8489L1871.52 93.9793L1922.73 94.0103C1950.89 94.0275 1980.51 94.7498 1988.55 95.6148Z" fill="currentColor"/>
</svg>
