<svg width="1916" height="501" viewBox="0 0 1916 501" fill="none" xmlns="http://www.w3.org/2000/svg">
<path fill-rule="evenodd" clip-rule="evenodd" d="M73.9025 73.2328L0.862305 145.817L0.890151 248.929L0.918771 352.041L74.9851 426.306L149.052 500.572H250.764H352.476L426.677 426.171L500.879 351.77V249.326V146.881L451.982 98.5009C425.09 71.8915 391.854 38.9718 378.126 25.3454L353.167 0.571533L250.055 0.609993L146.943 0.648453L73.9025 73.2328ZM405.95 74.6207L455.455 124.131L250.052 124.119L44.6489 124.107L94.2368 74.6084L143.825 25.1106H250.135H356.445L405.95 74.6207ZM894.027 141.248C893.839 141.436 893.686 175.389 893.686 216.7C893.686 269.227 893.963 293.116 894.607 296.149C896.236 303.821 900.139 310.614 906.78 317.337C917.157 327.843 930.869 334.253 946.919 336.101C952.226 336.713 986.878 336.906 1057.36 336.717L1160.06 336.441L1166.93 334.61C1190.8 328.246 1207.68 312.404 1210.36 293.848C1210.85 290.443 1211.18 259.117 1211.19 214.763L1211.21 141.316H1185.84H1160.47V199.682C1160.47 251.505 1160.32 258.487 1159.13 261.966C1157.26 267.455 1150.64 273.862 1143.08 277.499C1131.35 283.142 1134.52 282.964 1049.76 282.711L973.475 282.481L967.556 280.317C957.038 276.471 950.313 271.389 946.594 264.478C944.844 261.224 944.832 260.844 944.608 201.283L944.383 141.362L919.375 141.135C905.62 141.009 894.213 141.061 894.027 141.248ZM588.535 142.581C576.974 145.088 568.425 148.976 559.857 155.621C548.264 164.613 542.864 174.03 541.43 187.758L540.897 192.872H699.697H858.497V167.094V141.316L726.129 141.381C616.567 141.435 592.861 141.642 588.535 142.581ZM1296.31 141.883C1281.88 144.31 1268.21 151.3 1258.36 161.295C1250.51 169.267 1246.4 178.479 1246.4 188.111V192.872H1404.75H1563.1V167.094V141.316L1430.73 141.427C1357.93 141.489 1297.44 141.693 1296.31 141.883ZM1598.29 215.172C1598.3 260.672 1598.61 291.071 1599.12 294.348C1600.14 300.93 1604.48 309.812 1609.44 315.486C1615.58 322.501 1626.21 329.309 1636.73 332.957C1648.06 336.887 1648.23 336.892 1786.31 336.897L1915.83 336.902L1915.61 310.101L1915.4 283.3L1797.14 282.873C1692.59 282.495 1678.42 282.296 1674.8 281.156C1667.74 278.93 1661.55 275.589 1657.13 271.619C1649.37 264.643 1649.88 269.561 1649.86 201.26L1649.84 141.316H1624.06H1598.29L1598.29 215.172ZM160.445 315.01V483.794L96.1861 419.535L31.9269 355.276L32.4899 250.751L33.0521 146.226H96.7483H160.445V315.01ZM541.168 275.73L541.387 336.492L566.96 336.709L592.534 336.925V299.269V261.614H725.516H858.497V238.291V214.968H699.723H540.948L541.168 275.73ZM1246.4 254.509C1246.4 297.876 1246.41 298.036 1251.45 307.566C1254.25 312.843 1262.86 321.723 1268.9 325.56C1274.96 329.405 1282.41 332.617 1289.99 334.646L1296.72 336.448L1429.91 336.696L1563.1 336.944V309.917V282.891H1430.11H1297.13V272.252V261.614H1430.11H1563.1V238.291V214.968H1404.75H1246.4V254.509ZM359.83 225.812L383.68 226.015L371.287 239.98C364.471 247.661 345.869 268.56 329.949 286.422L301.004 318.898H237.68H174.357V272.312C174.357 229.385 174.465 225.705 175.728 225.461C177.15 225.187 317.86 225.456 359.83 225.812ZM1072.5 363.086C1067.42 364.147 1065.15 365.215 1061.91 368.065C1056.63 372.698 1056.54 373.158 1056.54 394.85V414.417L1058.69 417.586C1061.32 421.458 1062.46 422.422 1067.18 424.717C1070.8 426.483 1071.44 426.511 1108.09 426.511H1145.33L1149.95 424.24C1152.6 422.94 1155.57 420.666 1156.91 418.921L1159.24 415.872L1159.49 396.253C1159.62 385.462 1159.53 375.802 1159.27 374.786C1158.49 371.653 1153.83 367.119 1149.06 364.847L1144.51 362.68L1110.14 362.541C1091.24 362.464 1074.3 362.71 1072.5 363.086ZM1188.07 363.117C1180.02 364.477 1173.08 370.694 1172.57 377.001L1172.33 379.865L1224.12 380.075L1275.91 380.286L1275.68 371.483L1275.45 362.68L1233.71 362.568C1210.76 362.506 1190.22 362.753 1188.07 363.117ZM1302.31 363.122C1297.74 364.029 1294.47 365.806 1291.04 369.235C1288.28 371.998 1285.92 377.858 1286.91 379.475C1287.23 379.981 1306.28 380.274 1338.94 380.274H1390.48L1390.25 371.477L1390.02 362.68L1347.87 362.561C1324.69 362.496 1304.19 362.748 1302.31 363.122ZM1465.71 371.227V380.274H1508.68H1551.64V383.548V386.821H1508.68H1465.71V406.871V426.92H1474.31H1482.9V414.645V402.37H1506.53H1530.16L1540.59 414.645L1551.03 426.92H1559.93C1564.82 426.92 1568.81 426.644 1568.8 426.306C1568.78 425.968 1564.39 420.537 1559.05 414.236L1549.33 402.779L1555.01 401.806C1566.3 399.874 1568.82 396.527 1568.82 383.478C1568.82 371.339 1566.61 367.54 1557.37 363.868C1555.08 362.958 1545.61 362.675 1510.11 362.455L1465.71 362.181V371.227ZM1596.11 363.122C1588.6 364.609 1581.68 370.184 1580.68 375.552C1580.41 377.024 1580.3 386.542 1580.44 396.703C1580.68 414.698 1580.74 415.255 1582.67 418.063C1585.36 421.983 1590.59 425.127 1596.13 426.152C1599 426.682 1613.65 426.91 1634.97 426.757L1669.19 426.511L1674.01 424.045C1677.23 422.399 1679.66 420.406 1681.32 418.044L1683.8 414.507L1684.09 397.595C1684.45 376.237 1683.95 373.663 1678.46 368.465C1676.24 366.359 1673.58 364.46 1672.56 364.245C1671.54 364.031 1668.91 363.498 1666.71 363.063C1661.91 362.111 1600.96 362.163 1596.11 363.122ZM1733.01 370.05C1729.99 374.329 1727.32 378.38 1727.06 379.052C1726.66 380.097 1728.12 380.274 1737.18 380.274H1747.77L1750.41 383.957L1753.05 387.639H1737.17H1721.28L1715.3 396.437C1702.47 415.295 1698.64 420.855 1697.18 422.734C1694.28 426.478 1694.97 426.92 1703.74 426.92H1711.82L1721.06 414.645L1730.31 402.37H1746.75H1763.19L1772.19 414.627L1781.19 426.884L1789.57 426.902C1794.19 426.912 1797.96 426.623 1797.96 426.26C1797.96 425.896 1794.6 420.648 1790.49 414.598C1786.38 408.547 1778.04 396.232 1771.95 387.23C1765.86 378.228 1759.45 368.93 1757.71 366.567L1754.54 362.271H1746.51H1738.48L1733.01 370.05ZM1809.42 371.272V380.274H1848.37C1890.83 380.274 1890.84 380.276 1894.55 384.99C1895.9 386.704 1896.16 388.316 1896.16 394.787C1896.16 402.38 1896.12 402.577 1893.64 404.885C1892.26 406.179 1889.77 407.614 1888.12 408.073C1886.34 408.568 1873.22 408.909 1855.88 408.912L1826.65 408.916L1826.42 397.664L1826.2 386.412H1818.01H1809.83L1809.61 406.7L1809.39 426.986L1853.8 426.749L1898.21 426.511L1902.51 424.567C1907.69 422.224 1911.32 418.313 1912.55 413.746C1913.13 411.601 1913.37 403.889 1913.2 392.599C1912.95 375.205 1912.9 374.766 1910.89 371.799C1908.08 367.636 1902.43 364.21 1896.63 363.154C1893.57 362.598 1876.53 362.271 1850.6 362.271H1809.42V371.272ZM1137.3 381.864C1141.92 383.964 1143.28 386.845 1143.28 394.516C1143.28 402.411 1142.35 404.329 1137.27 406.861L1133.14 408.916L1108.14 408.854C1081.93 408.789 1079.84 408.542 1075.82 405.035C1073.81 403.275 1073.72 402.831 1073.72 394.319C1073.72 384.672 1073.84 384.383 1079.04 381.637C1081.13 380.532 1085.38 380.337 1107.68 380.325C1131.68 380.311 1134.16 380.44 1137.3 381.864ZM1661.28 381.9C1666.3 384.464 1667.03 386.097 1667.03 394.858C1667.03 402.372 1666.97 402.58 1664.51 404.885C1663.12 406.179 1660.64 407.614 1658.98 408.073C1657.25 408.553 1645.64 408.909 1631.61 408.912C1605.57 408.916 1603.59 408.655 1599.32 404.643C1597.64 403.063 1597.47 402.159 1597.47 394.808C1597.47 390.356 1597.85 386.004 1598.31 385.137C1598.77 384.27 1600.52 382.837 1602.2 381.953C1605.04 380.455 1607.02 380.344 1631.67 380.31C1656.46 380.277 1658.29 380.375 1661.28 381.9ZM1172.12 406.666L1172.33 426.511L1180.72 426.744L1189.11 426.977V414.673V402.37H1232.48H1275.86V394.595V386.821H1223.88H1171.9L1172.12 406.666ZM1286.68 406.666L1286.9 426.511L1295.29 426.744L1303.68 426.977V414.673V402.37H1347.05H1390.42V394.595V386.821H1338.44H1286.46L1286.68 406.666ZM1401.24 394.391L1401.47 401.96L1427.39 402.176L1453.32 402.393L1453.58 395.406C1453.73 391.563 1453.72 388.06 1453.57 387.621C1453.4 387.122 1443.44 386.821 1427.15 386.821H1401L1401.24 394.391Z" fill="currentColor"/>
</svg>
