<svg width="1375" height="501" viewBox="0 0 1375 501" fill="none" xmlns="http://www.w3.org/2000/svg">
<path fill-rule="evenodd" clip-rule="evenodd" d="M133.023 3.92683C75.2583 11.1471 25.2215 28.5981 7.23053 47.7999L1.81477 53.5803L7.77515 73.1303C30.3194 147.095 34.7464 236.47 19.4972 309.865C15.6896 328.19 4.9913 362.356 1.78672 366.43C-0.875584 369.815 3.12371 372.928 14.9837 376.708C30.2376 381.565 74.7044 401.386 90.9984 410.588C99.3289 415.293 114.478 425.101 124.666 432.385C143.312 445.715 182.318 482.239 190.539 494.066L194.964 500.429L208.958 483.728C244.325 441.519 296.297 407.115 363.907 381.153C384.871 373.103 389.934 370.294 388.648 367.426C387.76 365.441 384.039 354.883 380.381 343.963C367.389 305.19 362.088 268.17 362.088 216.254C362.088 162.847 368.018 124.294 385.516 63.9209C388.316 54.2605 388.174 53.5896 381.898 47.0402C373.291 38.0576 343.999 23.0444 323.521 17.1238C269.289 1.44216 194.407 -3.74453 133.023 3.92683ZM107.311 28.944C87.9668 37.4311 67.2691 48.7208 57.5291 56.0977C47.9341 63.367 46.5316 65.4403 47.8195 70.4563C62.828 128.992 68.6388 175.046 66.8413 221.238C65.502 255.698 61.0609 295.23 55.6826 320.577C51.155 341.925 51.4986 344.374 59.3944 346.959C68.772 350.028 72.2501 353.03 72.2501 358.05C72.2501 360.893 78.6569 365.691 92.3307 373.082C125.573 391.057 139.911 401.872 168.334 430.407L195.462 457.643L215.774 435.933C239.613 410.45 267.774 388.645 296.183 373.664C311.633 365.518 317.159 361.309 319.08 356.22C320.835 351.569 324.052 348.806 329.577 347.198C339.081 344.433 339.074 344.533 332.158 306.305C318.991 233.537 320.386 165.883 336.494 96.1865C339.315 83.9735 342.115 71.7723 342.713 69.0726C343.548 65.3 341.161 62.2263 332.417 55.8055C322.913 48.8307 293.495 32.9293 280.279 27.6234C272.764 24.6082 296.295 29.283 310.665 33.6586C329.542 39.4109 349.244 49.3426 358.993 58.0213L366.419 64.6315L359.669 90.8619C347.746 137.199 344.658 164.345 344.714 222.406C344.768 280.037 347.977 302.624 361.868 343.17L368.408 362.258L347.954 369.574C308.398 383.724 269.627 405.172 243.493 427.364C236.761 433.081 230.16 437.085 228.828 436.26C227.493 435.437 226.692 435.678 227.045 436.795C227.398 437.913 220.474 446.708 211.657 456.341L195.628 473.852L171.922 450.329C136.092 414.772 94.9346 388.906 43.6169 369.688C32.3693 365.476 23.1716 361.381 23.181 360.587C23.1903 359.794 25.8199 351.412 29.0268 341.964C42.2589 302.977 45.1876 281.652 45.2811 223.575C45.3793 164.7 42.177 135.983 30.2376 88.6156L23.8565 63.2969L30.8547 57.4066C39.5218 50.1139 55.0304 42.2392 73.4188 35.795C95.3693 28.1026 121.074 22.9065 107.311 28.944ZM474.283 207.213V339.276H501.164H528.044V207.213V75.1498H501.164H474.283V207.213ZM596.431 94.5246L579.506 113.717L579.485 207.877L579.467 302.037L597.359 320.657L615.255 339.276H711.967H808.679L808.023 311.812L807.363 284.347L721.431 283.735L635.499 283.12L636.116 207.769L636.733 132.416L722.048 131.248L807.363 130.079L808.023 102.614L808.679 75.1498L711.02 75.241L613.359 75.3345L596.431 94.5246ZM851.19 93.7322L834.244 112.057V207.606V303.156L852.41 321.215L870.576 339.276H959.636H1048.69L1066.52 320.439L1084.35 301.6V206.806V112.011L1066.41 93.5802L1048.47 75.1498L958.306 75.2784L868.136 75.407L851.19 93.7322ZM1135.77 207.213V339.276H1163.79H1191.81L1192.42 257.451L1193.03 175.625L1209.4 195.842C1218.4 206.961 1231.34 222.743 1238.17 230.914C1245.35 239.502 1249.88 246.909 1248.91 248.473C1247.92 250.081 1248.26 250.546 1249.76 249.623C1251.18 248.742 1259.45 256.939 1268.84 268.544C1277.96 279.808 1294.61 300.298 1305.84 314.079L1326.27 339.136L1350.23 339.206L1374.18 339.276V207.138V75.0026L1346.72 75.6594L1319.25 76.3185V158.904V241.491L1312.66 233.701C1288.91 205.626 1258.87 167.094 1258.87 164.693C1258.87 163.123 1258.1 162.319 1257.15 162.905C1256.2 163.492 1245.56 151.611 1233.5 136.507C1221.45 121.4 1205.34 101.418 1197.72 92.096L1183.85 75.1498H1159.81H1135.77V207.213ZM182.108 207.213V336.939H154.059H126.01V326.421V315.902H136.529H147.047V207.213V98.5239H136.529H126.01V88.0056V77.4872H154.059H182.108V207.213ZM263.917 87.8723V98.2551L253.983 98.975L244.049 99.6926L243.442 207.797L242.834 315.902L249.285 316.171C262.695 316.732 262.725 316.756 263.466 327.005L264.186 336.939H236.002H207.819V207.213V77.4872H235.868H263.917V87.8723ZM1027.08 207.213V282.01H958.126H889.172L888.553 209.574C888.214 169.733 888.45 135.796 889.079 134.158C889.977 131.815 904.896 131.311 958.649 131.797L1027.08 132.416V207.213ZM1011.77 380.391C1011.65 382.703 1011.68 449.188 1011.81 452.056C1011.85 453.021 1014.52 453.809 1017.73 453.809C1023.56 453.809 1023.57 453.744 1023.57 431.431V409.05L1047.1 432.015C1060.04 444.644 1071.61 455.328 1072.81 455.756C1074.11 456.219 1075 441.631 1075 419.957V383.376L1068.57 384.117C1062.17 384.853 1062.14 384.942 1061.96 403.555C1061.87 413.84 1060.82 422.479 1059.63 422.752C1058.44 423.026 1047.21 413.127 1034.68 400.757C1022.14 388.388 1011.83 379.223 1011.77 380.391ZM1110.5 383.687C1105.24 396.255 1082.26 444.985 1081 446.243C1077.21 450.041 1080.06 455.116 1085.85 454.861C1090.47 454.66 1093.13 452.437 1096.42 446.019C1100.66 437.751 1101.27 437.447 1113.43 437.447C1125.65 437.447 1126.16 437.711 1130.32 446.145C1133.79 453.204 1135.81 454.791 1141.03 454.56C1144.56 454.405 1149.97 454.171 1153.04 454.043C1158.03 453.833 1158.92 452.171 1161.52 438.032C1163.13 429.355 1165 421.287 1165.68 420.102C1166.37 418.919 1170.95 426.543 1175.87 437.048C1180.78 447.552 1185.7 456.147 1186.8 456.147C1187.9 456.147 1192.83 447.533 1197.78 437.006L1206.76 417.862L1211.58 436.365C1215.99 453.26 1216.92 454.866 1222.25 454.856C1225.47 454.852 1228.1 453.826 1228.1 452.575C1228.1 447.035 1211.84 381.35 1210.46 381.35C1209.62 381.35 1203.95 392.132 1197.86 405.308L1186.78 429.266L1177.41 409.398C1172.26 398.471 1166.94 386.901 1165.59 383.687C1163.21 378.024 1163.04 378.168 1160.14 388.362C1158.5 394.147 1154.63 409.924 1151.55 423.423L1145.95 447.966L1135.6 425.767C1111.76 374.63 1113.25 377.131 1110.5 383.687ZM712.701 383.975C698.908 389.474 689.325 403.723 689.325 418.725C689.325 441.568 707.954 457.872 731.473 455.611C745.322 454.281 750.097 450.749 750.097 441.837C750.097 434.292 748.627 433.717 742.054 438.691C739.558 440.577 732.903 442.122 727.265 442.122C703.541 442.122 694.736 414.76 713.556 399.516C719.713 394.53 735.867 394.128 742.054 398.805C748.688 403.824 750.097 403.202 750.097 395.255C750.097 389.327 748.73 387.551 741.991 384.737C732.746 380.873 721.228 380.574 712.701 383.975ZM1279.52 386.081C1266.4 392.716 1261.21 400.846 1260.22 416.305C1259.11 433.686 1264.45 443.924 1278.26 450.887C1296.47 460.069 1320.42 455.796 1320.42 443.368C1320.42 435.813 1316.88 434.056 1310.56 438.48C1307.7 440.484 1300.95 442.122 1295.57 442.122C1287.51 442.122 1284.71 440.853 1279.73 434.93C1265.86 418.456 1276.29 395.374 1297.59 395.374C1303.23 395.374 1309.88 396.919 1312.38 398.805C1318.96 403.782 1320.42 403.204 1320.42 395.641C1320.42 382.56 1297.21 377.135 1279.52 386.081ZM1341.46 383.007C1333.95 385.77 1329.77 391.625 1329.77 399.397C1329.77 410.799 1332.93 415.291 1346.17 422.712C1359.38 430.117 1362.97 436.622 1356.48 441.37C1351.43 445.063 1343.83 443.165 1339.6 437.155C1337.08 433.567 1335.83 433.331 1332.01 435.715C1325.93 439.514 1326.24 443.48 1333.17 450.408C1337.61 454.845 1341.36 456.147 1349.71 456.147C1363.6 456.147 1374.23 446.804 1374.11 434.706C1374.02 424.783 1370.86 420.779 1356.56 412.386C1343.96 405.002 1340.11 396.884 1348.2 394.769C1350.75 394.1 1355 395.061 1357.63 396.905C1361.25 399.439 1363.56 399.642 1367.13 397.733C1381.02 390.302 1357.82 376.993 1341.46 383.007ZM475.244 387.778C482.581 408.319 503.957 455.85 505.633 455.357C507.36 454.845 537.393 387.717 537.393 384.363C537.393 383.827 534.147 383.72 530.178 384.124C523.509 384.8 522.298 386.415 514.199 405.43L505.436 426.003L496.666 404.845C488.359 384.802 487.525 383.687 480.84 383.687C475.12 383.687 474.061 384.463 475.244 387.778ZM542.068 418.748V453.809H561.663C579.097 453.809 581.39 453.309 582.447 449.27C584.118 442.879 582.646 442.122 568.558 442.122H556.093V432.088V422.056L568.364 422.154C580.042 422.25 580.67 421.943 581.374 415.826C582.103 409.494 581.919 409.398 569.103 409.398C556.205 409.398 556.093 409.338 556.093 402.386C556.093 395.444 556.223 395.374 568.948 395.374C581.103 395.374 581.804 395.056 581.804 389.531C581.804 383.755 581.57 383.687 561.936 383.687H542.068V418.748ZM593.491 418.475C593.491 452.224 593.643 453.304 598.573 454.592C606.487 456.663 607.515 454.676 607.515 437.309V421.086H622.708H637.902V437.447V453.809H644.914H651.926V418.748V383.687H645.035C638.371 383.687 638.124 384.089 637.439 395.958L636.733 408.23L622.124 408.926L607.515 409.621V396.655C607.515 383.804 607.452 383.687 600.503 383.687H593.491V418.475ZM665.951 419.356V455.338L672.488 454.377L679.026 453.419L678.916 419.136L678.806 384.856L672.378 384.117L665.951 383.376V419.356ZM761.525 412.166C761.223 445.925 761.616 452.234 764.119 453.809C765.141 454.452 773.34 454.632 782.341 454.211C797.53 453.498 798.785 453.038 799.79 447.783C800.83 442.337 800.375 442.122 787.755 442.125L774.64 442.127V413.491V384.856L768.212 384.117L761.784 383.376L761.525 412.166ZM806.195 418.657V453.809H824.894C835.178 453.809 844.369 454.073 845.318 454.394C846.267 454.714 847.055 452.348 847.071 449.134C847.097 443.655 846.258 443.246 833.659 442.59L820.219 441.888V432.011V422.13L829.309 422.997C840.169 424.033 848.088 420.366 847.268 414.683C846.793 411.409 843.972 410.425 833.446 409.866C820.57 409.183 820.219 408.985 820.219 402.386C820.219 395.774 820.549 395.589 833.659 394.907C845.306 394.299 847.099 393.581 847.099 389.531C847.099 385.262 845.316 384.797 826.647 384.18L806.195 383.505V418.657ZM886.19 419.127L886.835 454.566L905.385 454.022C926.662 453.398 935.285 449.868 941.858 439.086C947.481 429.865 947.972 409.796 942.818 399.829C936.626 387.855 926.872 383.706 904.889 383.696L885.545 383.687L886.19 419.127ZM946.439 384.793C946.439 385.4 951.13 393.553 956.866 402.908C966.125 418.016 967.34 421.616 967.737 435.11C968.31 454.552 968.731 455.494 976.33 454.387C982.575 453.475 982.657 453.239 981.876 438.27C981.318 427.532 982.066 421.932 984.429 419.162C988.514 414.37 1004.87 387.144 1004.87 385.134C1004.87 384.339 1001.96 383.687 998.409 383.687C993.04 383.687 990.602 385.929 984.048 396.886L976.152 410.083L967.959 396.886C961.108 385.849 958.675 383.687 953.103 383.687C949.438 383.687 946.439 384.185 946.439 384.793ZM1233.94 418.358C1233.94 437.429 1234.49 453.58 1235.16 454.253C1235.84 454.926 1238.99 454.98 1242.18 454.37L1247.96 453.265V418.475V383.687H1240.95H1233.94V418.358ZM920.428 397.957C929.509 401.122 932.414 406.171 932.414 418.774C932.414 432.331 922.686 442.122 909.22 442.122H899.691V418.748V395.374H906.355C910.02 395.374 916.352 396.536 920.428 397.957ZM1119.32 422.705C1119.37 424.306 1117.28 425.082 1114.42 424.531C1107.46 423.191 1107.17 422.516 1110.4 415.415L1113.26 409.141L1116.25 414.529C1117.9 417.493 1119.28 421.172 1119.32 422.705Z" fill="currentColor"/>
</svg>
