<svg width="7695" height="500" viewBox="0 0 7695 500" fill="none" xmlns="http://www.w3.org/2000/svg">
<path fill-rule="evenodd" clip-rule="evenodd" d="M414.401 1.80054C411.938 2.44947 409.151 6.50001 408.207 10.8005C407.263 15.0984 404.789 18.617 402.712 18.617C400.632 18.617 398.933 20.4122 398.933 22.6064C398.933 24.8005 397.138 26.5957 394.944 26.5957C392.75 26.5957 390.954 28.391 390.954 30.5851C390.954 32.7793 389.159 34.5745 386.965 34.5745C384.75 34.5745 382.976 36.9388 382.976 39.8936C382.976 43.4388 381.202 45.2128 377.657 45.2128C374.731 45.2128 372.337 46.8803 372.337 48.9176C372.337 50.9548 370.542 53.3112 368.348 54.1543C366.016 55.0479 364.359 59.0346 364.359 63.7473C364.359 69.1409 363.037 71.8085 360.369 71.8085C358.175 71.8085 356.38 73.6037 356.38 75.7979C356.38 77.992 354.585 79.7872 352.391 79.7872C350.197 79.7872 348.401 81.5824 348.401 83.7766C348.401 85.992 346.037 87.766 343.082 87.766C340.128 87.766 337.763 89.5399 337.763 91.7553C337.763 93.9495 335.968 95.7447 333.774 95.7447C331.559 95.7447 329.785 98.109 329.785 101.064C329.785 104.019 328.011 106.383 325.795 106.383C322.782 106.383 321.806 109.633 321.806 119.681V132.979H813.823H1305.84V119.681C1305.84 109.633 1304.86 106.383 1301.85 106.383C1299.66 106.383 1297.86 104.476 1297.86 102.144C1297.86 99.8138 1295.47 97.2792 1292.54 96.5159C1289.62 95.75 1287.22 93.4681 1287.22 91.4441C1287.22 89.4229 1285.43 87.766 1283.23 87.766C1281.04 87.766 1279.25 85.9707 1279.25 83.7766C1279.25 81.5612 1276.88 79.7872 1273.93 79.7872C1270.97 79.7872 1268.61 78.0133 1268.61 75.7979C1268.61 73.6037 1267.41 71.8085 1265.95 71.8085C1264.48 71.8085 1263.29 69.4149 1263.29 66.4894C1263.29 62.9442 1261.51 61.1702 1257.97 61.1702C1255.01 61.1702 1252.65 59.3963 1252.65 57.1809C1252.65 54.9867 1250.85 53.1915 1248.66 53.1915C1246.47 53.1915 1244.67 51.3963 1244.67 49.2021C1244.67 47.008 1242.88 45.2128 1240.68 45.2128C1238.47 45.2128 1236.69 42.8484 1236.69 39.8936C1236.69 36.3484 1234.92 34.5745 1231.37 34.5745C1228.42 34.5745 1226.05 32.8005 1226.05 30.5851C1226.05 28.391 1224.26 26.5957 1222.06 26.5957C1219.87 26.5957 1218.08 24.8005 1218.08 22.6064C1218.08 20.4122 1216.28 18.617 1214.09 18.617C1211.89 18.617 1210.1 16.8218 1210.1 14.6277C1210.1 12.4335 1208.44 10.6383 1206.42 10.6383C1204.39 10.6383 1202.11 8.24468 1201.35 5.31915C1199.96 0.0292554 1197.85 0.00265243 809.419 0.308504C594.623 0.478716 416.864 1.14894 414.401 1.80054ZM1511.4 5.31915C1510.63 8.24468 1508.35 10.6383 1506.33 10.6383C1504.3 10.6383 1502.65 12.4335 1502.65 14.6277C1502.65 16.8218 1500.85 18.617 1498.66 18.617C1496.46 18.617 1494.67 20.4122 1494.67 22.6064C1494.67 24.8005 1492.87 26.5957 1490.68 26.5957C1487.89 26.5957 1486.69 29.4043 1486.69 35.9043C1486.69 43.4388 1485.68 45.2128 1481.37 45.2128C1478.42 45.2128 1476.05 46.9867 1476.05 49.2021C1476.05 51.3963 1474.26 53.1915 1472.06 53.1915C1469.87 53.1915 1468.07 54.9867 1468.07 57.1809C1468.07 59.375 1466.28 61.1702 1464.08 61.1702C1461.87 61.1702 1460.09 63.5346 1460.09 66.4894C1460.09 69.4441 1458.32 71.8085 1456.11 71.8085C1453.91 71.8085 1452.12 73.6037 1452.12 75.7979C1452.12 78.0133 1449.75 79.7872 1446.8 79.7872C1443.84 79.7872 1441.48 81.5612 1441.48 83.7766C1441.48 85.9707 1439.68 87.766 1437.49 87.766C1435.29 87.766 1433.5 89.5612 1433.5 91.7553C1433.5 93.9495 1431.7 95.7447 1429.51 95.7447C1426.72 95.7447 1425.52 98.5532 1425.52 105.053C1425.52 111.553 1424.32 114.362 1421.53 114.362C1418.74 114.362 1417.54 117.17 1417.54 123.67V132.979H1756.63C2056.28 132.979 2095.73 132.513 2095.73 128.989C2095.73 126.774 2098.09 125 2101.05 125C2103.97 125 2106.37 123.332 2106.37 121.295C2106.37 119.258 2108.16 116.902 2110.36 116.059C2112.55 115.218 2114.34 112.697 2114.34 110.455C2114.34 108.215 2115.45 106.383 2116.79 106.383C2118.14 106.383 2120.03 102.793 2120.99 98.4043C2121.96 94.016 2124.45 90.4255 2126.52 90.4255C2128.6 90.4255 2130.3 88.6303 2130.3 86.4362C2130.3 84.2207 2132.67 82.4468 2135.62 82.4468C2139.17 82.4468 2140.94 80.6729 2140.94 77.1277C2140.94 74.1729 2142.71 71.8085 2144.93 71.8085C2147.12 71.8085 2148.92 70.0133 2148.92 67.8191C2148.92 65.625 2150.71 63.8298 2152.91 63.8298C2155.1 63.8298 2156.9 62.0346 2156.9 59.8404C2156.9 57.6463 2158.69 55.8511 2160.89 55.8511C2163.1 55.8511 2164.88 53.4867 2164.88 50.5319C2164.88 47.6064 2166.58 45.2128 2168.66 45.2128C2170.73 45.2128 2173.22 41.6223 2174.18 37.234C2175.15 32.8457 2177.64 29.2553 2179.71 29.2553C2181.79 29.2553 2183.49 27.4601 2183.49 25.266C2183.49 23.0718 2185.29 21.2766 2187.48 21.2766C2190.36 21.2766 2191.47 18.3218 2191.47 10.6383V0H1852.13C1515.03 0 1512.78 0.0345745 1511.4 5.31915ZM2364.34 5.31915C2364.34 8.86436 2362.57 10.6383 2359.02 10.6383C2356.07 10.6383 2353.7 12.4122 2353.7 14.6277C2353.7 16.8218 2351.91 18.617 2349.72 18.617C2347.52 18.617 2345.73 20.4122 2345.73 22.6064C2345.73 24.8005 2343.93 26.5957 2341.74 26.5957C2339.54 26.5957 2337.75 28.391 2337.75 30.5851C2337.75 32.7793 2335.95 34.5745 2333.76 34.5745C2330.97 34.5745 2329.77 37.383 2329.77 43.883C2329.77 51.4176 2328.76 53.1915 2324.45 53.1915C2321.49 53.1915 2319.13 54.9654 2319.13 57.1809C2319.13 59.375 2317.34 61.1702 2315.14 61.1702C2312.93 61.1702 2311.15 63.5346 2311.15 66.4894C2311.15 69.4441 2309.38 71.8085 2307.16 71.8085C2304.97 71.8085 2303.17 73.6037 2303.17 75.7979C2303.17 77.992 2301.38 79.7872 2299.18 79.7872C2296.99 79.7872 2295.19 81.5824 2295.19 83.7766C2295.19 85.992 2292.83 87.766 2289.88 87.766C2286.92 87.766 2284.56 89.5399 2284.56 91.7553C2284.56 93.9495 2282.76 95.7447 2280.57 95.7447C2278.35 95.7447 2276.58 98.109 2276.58 101.064C2276.58 104.019 2274.8 106.383 2272.59 106.383C2269.58 106.383 2268.6 109.633 2268.6 119.681V132.979H2609.02C2909.85 132.979 2949.44 132.516 2949.44 128.989C2949.44 126.795 2951.24 125 2953.43 125C2955.63 125 2957.42 123.12 2957.42 120.822C2957.42 118.521 2959.22 114.846 2961.41 112.652C2963.61 110.457 2965.4 106.354 2965.4 103.535C2965.4 100.713 2967.2 98.4043 2969.39 98.4043C2971.59 98.4043 2973.38 96.609 2973.38 94.4149C2973.38 92.1995 2975.74 90.4255 2978.7 90.4255C2981.65 90.4255 2984.02 88.6516 2984.02 86.4362C2984.02 84.242 2985.81 82.4468 2988.01 82.4468C2990.22 82.4468 2992 80.0824 2992 77.1277C2992 74.1729 2993.77 71.8085 2995.99 71.8085C2998.18 71.8085 2999.98 70.0133 2999.98 67.8191C2999.98 65.625 3001.77 63.8298 3003.97 63.8298C3006.16 63.8298 3007.95 62.0346 3007.95 59.8404C3007.95 57.6463 3009.7 55.8511 3011.82 55.8511C3014.14 55.8511 3016.39 52.1144 3017.44 46.5426C3018.44 41.2101 3020.76 37.234 3022.88 37.234C3024.91 37.234 3026.57 35.4388 3026.57 33.2447C3026.57 31.0505 3028.37 29.2553 3030.56 29.2553C3032.76 29.2553 3034.55 27.4601 3034.55 25.266C3034.55 22.9707 3036.95 21.2766 3040.2 21.2766C3045.11 21.2766 3045.64 20.1888 3044.19 12.9654C3043.28 8.39362 3042.53 3.60638 3042.53 2.32713C3042.53 1.01064 2895.43 0 2703.44 0C2366.12 0 2364.34 0.0265957 2364.34 5.31915ZM3223.38 5.31647C3223.38 9.45743 3221.61 10.6383 3215.4 10.6383C3210.08 10.6383 3207.42 11.9681 3207.42 14.6277C3207.42 16.8431 3205.06 18.617 3202.1 18.617C3199.15 18.617 3196.78 20.391 3196.78 22.6064C3196.78 24.8005 3194.99 26.5957 3192.79 26.5957C3190.6 26.5957 3188.8 28.391 3188.8 30.5851C3188.8 33.2447 3186.14 34.5745 3180.83 34.5745C3174.62 34.5745 3172.85 35.7553 3172.85 39.8936C3172.85 43.4388 3171.07 45.2128 3167.53 45.2128C3164.6 45.2128 3162.21 46.9122 3162.21 48.992C3162.21 51.0692 3158.62 53.5585 3154.23 54.5213C3149.84 55.484 3146.25 57.375 3146.25 58.7207C3146.25 60.0691 3144.46 61.1702 3142.26 61.1702C3140.05 61.1702 3138.27 63.5346 3138.27 66.4894C3138.27 70.0346 3136.5 71.8085 3132.95 71.8085C3130 71.8085 3127.63 73.5824 3127.63 75.7979C3127.63 78.4574 3124.98 79.7872 3119.66 79.7872C3114.34 79.7872 3111.68 81.117 3111.68 83.7766C3111.68 85.9707 3109.88 87.766 3107.69 87.766C3105.49 87.766 3103.7 89.5612 3103.7 91.7553C3103.7 93.9707 3101.33 95.7447 3098.38 95.7447C3094.83 95.7447 3093.06 97.5186 3093.06 101.064C3093.06 105.202 3091.29 106.383 3085.08 106.383C3079.76 106.383 3077.1 107.713 3077.1 110.372C3077.1 112.566 3075.38 114.362 3073.27 114.362C3067.82 114.362 3066.04 118.378 3068 126.207L3069.7 132.979H4490.75C5750.37 132.979 5912.26 132.527 5915.8 128.989C5917.99 126.795 5921.67 125 5923.97 125C5926.26 125 5928.14 123.205 5928.14 121.011C5928.14 118.795 5930.51 117.021 5933.46 117.021C5936.39 117.021 5938.78 115.322 5938.78 113.242C5938.78 111.165 5942.37 108.676 5946.76 107.713C5952.44 106.465 5954.74 104.399 5954.74 100.543C5954.74 96.4335 5956.02 95.4601 5960.06 96.5159C5963.52 97.4202 5965.38 96.5958 5965.38 94.1649C5965.38 92.1091 5967.17 90.4255 5969.37 90.4255C5971.56 90.4255 5973.36 88.6303 5973.36 86.4362C5973.36 83.7766 5976.02 82.4468 5981.34 82.4468C5987.54 82.4468 5989.31 81.266 5989.31 77.1277C5989.31 73.5824 5991.09 71.8085 5994.63 71.8085C5997.59 71.8085 5999.95 70.0346 5999.95 67.8191C5999.95 65.625 6001.75 63.8298 6003.94 63.8298C6006.14 63.8298 6007.93 62.0346 6007.93 59.8404C6007.93 57.1809 6010.59 55.8511 6015.91 55.8511C6021.23 55.8511 6023.89 54.5213 6023.89 51.8617C6023.89 49.6463 6026.25 47.8723 6029.21 47.8723C6032.75 47.8723 6034.53 46.0984 6034.53 42.5532C6034.53 38.4149 6036.3 37.234 6042.51 37.234C6047.82 37.234 6050.48 35.9043 6050.48 33.2447C6050.48 31.0505 6052.28 29.2553 6054.47 29.2553C6056.67 29.2553 6058.46 27.4601 6058.46 25.266C6058.46 23.0106 6060.85 21.2766 6063.94 21.2766C6068.65 21.2766 6069.31 19.867 6068.6 11.3032L6067.77 1.32979L4645.57 0.662215C3224.71 -0.00533794 3223.38 -1.87057e-05 3223.38 5.31647ZM6758.59 1.79522C6756.76 2.51597 6755.27 4.79785 6755.27 6.86966C6755.27 10.0585 6739.07 10.6383 6650.21 10.6383C6558.61 10.6383 6545.16 11.1489 6545.16 14.6277C6545.16 18.0372 6537.63 18.617 6493.3 18.617C6448.97 18.617 6441.44 19.1968 6441.44 22.6064C6441.44 25.9761 6435.23 26.5957 6401.54 26.5957C6367.86 26.5957 6361.65 27.2154 6361.65 30.5851C6361.65 33.8989 6356.48 34.5745 6331.07 34.5745C6302.26 34.5745 6300.48 34.883 6300.48 39.8936C6300.48 44.8404 6298.71 45.2128 6275.22 45.2128C6254.53 45.2128 6249.95 45.9362 6249.95 49.2021C6249.95 52.3404 6246.25 53.1915 6232.58 53.1915C6219.59 53.1915 6214.82 54.1995 6213.68 57.1809C6212.54 60.1516 6207.8 61.1702 6195.14 61.1702C6179.92 61.1702 6178.14 61.7261 6178.14 66.4894C6178.14 71.0213 6176.37 71.8085 6166.17 71.8085C6157.31 71.8085 6154.21 72.8431 6154.21 75.7979C6154.21 78.8112 6150.96 79.7872 6140.91 79.7872C6130.86 79.7872 6127.61 80.7633 6127.61 83.7766C6127.61 86.5638 6124.8 87.766 6118.3 87.766C6112.03 87.766 6108.99 89 6108.99 91.5452C6108.99 93.6224 6105.4 96.1117 6101.02 97.0745C6096.63 98.0372 6093.04 100.527 6093.04 102.604C6093.04 105.149 6090 106.383 6083.73 106.383C6077.23 106.383 6074.42 107.585 6074.42 110.372C6074.42 112.566 6072.62 114.362 6070.43 114.362C6065.19 114.362 6065.31 123.489 6070.62 128.801C6074.4 132.58 6151.95 132.979 6884.44 132.979H7694.09V123.67C7694.09 117.17 7692.89 114.362 7690.1 114.362C7687.31 114.362 7686.11 111.553 7686.11 105.053C7686.11 97.5186 7685.1 95.7447 7680.79 95.7447C7677.84 95.7447 7675.47 93.9707 7675.47 91.7553C7675.47 89.5612 7673.68 87.766 7671.48 87.766C7669.29 87.766 7667.49 85.9707 7667.49 83.7766C7667.49 81.5824 7665.7 79.7872 7663.5 79.7872C7661.31 79.7872 7659.51 77.992 7659.51 75.7979C7659.51 73.5824 7657.15 71.8085 7654.19 71.8085C7650.65 71.8085 7648.88 70.0346 7648.88 66.4894C7648.88 62.3511 7647.1 61.1702 7640.9 61.1702C7635.58 61.1702 7632.92 59.8404 7632.92 57.1809C7632.92 54.3936 7630.11 53.1915 7623.61 53.1915C7617.11 53.1915 7614.3 51.9894 7614.3 49.2021C7614.3 46.2633 7611.23 45.2128 7602.64 45.2128C7593.22 45.2128 7590.72 44.1915 7589.59 39.8936C7588.46 35.5479 7585.97 34.5745 7575.99 34.5745C7566.9 34.5745 7563.77 33.5532 7563.77 30.5851C7563.77 27.3511 7559.49 26.5957 7541.16 26.5957C7522.84 26.5957 7518.56 25.8404 7518.56 22.6064C7518.56 19.266 7512.94 18.617 7483.98 18.617C7455.02 18.617 7449.41 17.9681 7449.41 14.6277C7449.41 11.1755 7439.36 10.6383 7374.94 10.6383C7313.1 10.6383 7300.47 10.0106 7300.47 6.93617C7300.47 4.9016 7297.67 2.53193 7294.23 1.67023C7286.76 -0.207431 6763.37 -0.0824386 6758.59 1.79522ZM260.636 179.521C260.636 181.715 258.841 183.511 256.647 183.511C253.86 183.511 252.658 186.319 252.658 192.819C252.658 200.354 251.644 202.128 247.338 202.128C244.384 202.128 242.019 203.902 242.019 206.117C242.019 208.311 240.224 210.106 238.03 210.106C235.836 210.106 234.041 211.902 234.041 214.096C234.041 216.29 232.245 218.085 230.051 218.085C227.857 218.085 226.062 219.88 226.062 222.074C226.062 224.269 224.267 226.064 222.073 226.064C219.857 226.064 218.083 228.428 218.083 231.383C218.083 234.928 216.309 236.702 212.764 236.702C209.809 236.702 207.445 238.476 207.445 240.691C207.445 242.886 205.65 244.681 203.456 244.681C201.262 244.681 199.466 246.476 199.466 248.67C199.466 250.864 197.671 252.66 195.477 252.66C192.69 252.66 191.488 255.468 191.488 261.968C191.488 269.503 190.475 271.277 186.169 271.277C183.214 271.277 180.85 273.051 180.85 275.266C180.85 277.46 179.054 279.255 176.86 279.255C174.666 279.255 172.871 281.051 172.871 283.245C172.871 285.439 171.076 287.234 168.882 287.234C166.666 287.234 164.892 289.598 164.892 292.553C164.892 295.508 163.118 297.872 160.903 297.872C158.709 297.872 156.914 299.668 156.914 301.862C156.914 304.077 154.549 305.851 151.595 305.851C148.64 305.851 146.275 307.625 146.275 309.84C146.275 312.035 144.48 313.83 142.286 313.83C139.499 313.83 138.297 316.638 138.297 323.138C138.297 329.638 137.095 332.447 134.307 332.447C132.113 332.447 130.318 334.242 130.318 336.436C130.318 338.63 128.523 340.426 126.329 340.426C124.135 340.426 122.339 342.221 122.339 344.415C122.339 346.63 119.975 348.404 117.02 348.404C114.066 348.404 111.701 350.178 111.701 352.394C111.701 354.588 109.906 356.383 107.712 356.383C105.497 356.383 103.723 358.747 103.723 361.702C103.723 364.657 101.949 367.021 99.7332 367.021C97.5391 367.021 95.7439 368.816 95.7439 371.011C95.7439 373.205 93.9487 375 91.7546 375C89.5605 375 87.7653 376.657 87.7653 378.678C87.7653 380.702 85.3717 382.984 82.4462 383.75C78.5738 384.763 77.127 387.378 77.127 393.367C77.127 398.91 75.8239 401.596 73.1377 401.596C70.9436 401.596 69.1484 403.391 69.1484 405.585C69.1484 407.779 67.3532 409.574 65.1591 409.574C62.9649 409.574 61.1697 411.231 61.1697 413.253C61.1697 415.277 58.7761 417.559 55.8506 418.324C52.9251 419.088 50.5315 421.622 50.5315 423.952C50.5315 426.285 48.7363 428.191 46.5422 428.191C44.3481 428.191 42.5529 429.987 42.5529 432.181C42.5529 434.375 40.7577 436.17 38.5635 436.17C36.3694 436.17 34.5742 437.965 34.5742 440.16C34.5742 442.354 32.779 444.149 30.5849 444.149C28.3695 444.149 26.5955 446.513 26.5955 449.468C26.5955 452.394 24.8961 454.787 22.8163 454.787C20.7392 454.787 18.2499 458.378 17.2871 462.766C16.3243 467.154 13.835 470.745 11.7579 470.745C9.67813 470.745 7.97866 472.54 7.97866 474.734C7.97866 476.928 6.18346 478.723 3.98933 478.723C1.77392 478.723 0 481.088 0 484.043C0 489.335 1.77394 489.362 344.412 489.362C648.782 489.362 688.824 488.899 688.824 485.372C688.824 483.178 690.62 481.383 692.814 481.383C695.008 481.383 696.803 479.588 696.803 477.394C696.803 475.199 698.598 473.404 700.792 473.404C703.008 473.404 704.782 471.04 704.782 468.085C704.782 465.16 706.481 462.766 708.561 462.766C710.638 462.766 713.127 459.176 714.09 454.787C715.053 450.399 717.542 446.809 719.619 446.809C721.699 446.809 723.398 445.013 723.398 442.819C723.398 440.625 725.194 438.83 727.388 438.83C729.603 438.83 731.377 436.465 731.377 433.511C731.377 430.556 733.151 428.191 735.366 428.191C737.561 428.191 739.356 426.396 739.356 424.202C739.356 421.987 741.72 420.213 744.675 420.213C748.311 420.213 749.994 418.439 749.994 414.609C749.994 410.809 751.233 409.481 753.848 410.484C756.425 411.473 757.212 410.686 756.223 408.109C755.22 405.495 756.547 404.255 760.348 404.255C764.552 404.255 765.951 402.596 765.951 397.606C765.951 393.508 767.462 390.957 769.89 390.957C772.055 390.957 774.579 387.965 775.496 384.309C776.414 380.652 778.832 377.66 780.866 377.66C782.903 377.66 784.568 375.864 784.568 373.67C784.568 371.476 786.363 369.681 788.558 369.681C790.773 369.681 792.547 367.316 792.547 364.362C792.547 361.407 794.321 359.043 796.536 359.043C798.73 359.043 800.526 357.247 800.526 355.053C800.526 352.838 802.89 351.064 805.845 351.064C808.799 351.064 811.164 349.29 811.164 347.074C811.164 344.88 812.959 343.085 815.153 343.085C817.368 343.085 819.142 340.721 819.142 337.766C819.142 334.811 820.916 332.447 823.132 332.447C825.791 332.447 827.121 329.787 827.121 324.468C827.121 319.149 828.451 316.489 831.11 316.489C833.305 316.489 835.1 314.694 835.1 312.5C835.1 310.306 837.007 308.511 839.339 308.511C841.669 308.511 844.203 306.117 844.967 303.191C845.733 300.266 848.015 297.872 850.038 297.872C852.06 297.872 853.717 296.077 853.717 293.883C853.717 291.689 855.512 289.894 857.706 289.894C859.9 289.894 861.695 288.098 861.695 285.904C861.695 283.689 864.06 281.915 867.014 281.915C869.94 281.915 872.333 280.247 872.333 278.21C872.333 276.173 874.129 273.816 876.323 272.973C878.517 272.133 880.312 269.527 880.312 267.181C880.312 262.335 886.493 255.319 890.762 255.319C892.328 255.319 893.61 257.114 893.61 259.309C893.61 261.524 895.974 263.298 898.929 263.298C902.474 263.298 904.248 265.072 904.248 268.617C904.248 271.572 906.022 273.936 908.237 273.936C910.897 273.936 912.227 276.596 912.227 281.915C912.227 287.234 913.557 289.894 916.216 289.894C918.41 289.894 920.205 291.689 920.205 293.883C920.205 296.098 922.57 297.872 925.525 297.872C929.07 297.872 930.844 299.646 930.844 303.191C930.844 306.146 932.618 308.511 934.833 308.511C937.027 308.511 938.822 310.306 938.822 312.5C938.822 314.694 940.618 316.489 942.812 316.489C945.006 316.489 946.801 318.285 946.801 320.479C946.801 322.673 948.596 324.468 950.79 324.468C952.984 324.468 954.78 326.263 954.78 328.457C954.78 330.673 957.144 332.447 960.099 332.447C963.644 332.447 965.418 334.221 965.418 337.766C965.418 340.721 967.192 343.085 969.407 343.085C971.601 343.085 973.397 344.88 973.397 347.074C973.397 349.269 975.192 351.064 977.386 351.064C979.58 351.064 981.375 352.859 981.375 355.053C981.375 357.247 983.075 359.043 985.154 359.043C987.232 359.043 989.721 362.633 990.684 367.021C991.646 371.41 994.136 375 996.213 375C998.293 375 999.992 377.394 999.992 380.319C999.992 383.274 1001.77 385.638 1003.98 385.638C1006.18 385.638 1007.97 387.434 1007.97 389.628C1007.97 391.918 1010.37 393.617 1013.6 393.617C1017.92 393.617 1018.91 394.854 1017.84 398.936C1016.93 402.394 1017.76 404.255 1020.19 404.255C1022.24 404.255 1023.93 406.051 1023.93 408.245C1023.93 410.46 1026.29 412.234 1029.25 412.234C1032.2 412.234 1034.57 414.008 1034.57 416.223C1034.57 418.418 1036.36 420.213 1038.56 420.213C1040.75 420.213 1042.54 422.008 1042.54 424.202C1042.54 426.396 1044.34 428.191 1046.53 428.191C1048.75 428.191 1050.52 430.556 1050.52 433.511C1050.52 437.056 1052.3 438.83 1055.84 438.83C1058.8 438.83 1061.16 440.604 1061.16 442.819C1061.16 445.013 1062.96 446.809 1065.15 446.809C1067.35 446.809 1069.14 448.604 1069.14 450.798C1069.14 452.992 1070.94 454.787 1073.13 454.787C1075.79 454.787 1077.12 457.447 1077.12 462.766C1077.12 468.085 1078.45 470.745 1081.11 470.745C1083.32 470.745 1085.1 473.109 1085.1 476.064C1085.1 479.532 1086.87 481.383 1090.2 481.383C1093 481.383 1095.79 482.88 1096.4 484.707C1097.28 487.34 1169.07 488.176 1441.03 488.726C1746.05 489.343 1784.56 488.971 1784.56 485.402C1784.56 483.191 1786.36 481.383 1788.55 481.383C1790.74 481.383 1792.54 479.588 1792.54 477.394C1792.54 475.199 1794.33 473.404 1796.53 473.404C1798.72 473.404 1800.52 471.609 1800.52 469.415C1800.52 467.221 1802.31 465.426 1804.51 465.426C1806.72 465.426 1808.5 463.061 1808.5 460.106C1808.5 456.561 1810.27 454.787 1813.82 454.787C1816.77 454.787 1819.13 453.013 1819.13 450.798C1819.13 448.604 1820.93 446.809 1823.12 446.809C1825.34 446.809 1827.11 444.444 1827.11 441.489C1827.11 438.535 1828.89 436.17 1831.1 436.17C1833.76 436.17 1835.09 433.511 1835.09 428.191C1835.09 421.987 1836.27 420.213 1840.41 420.213C1843.37 420.213 1845.73 418.439 1845.73 416.223C1845.73 414.029 1847.53 412.234 1849.72 412.234C1851.91 412.234 1853.71 410.439 1853.71 408.245C1853.71 406.051 1855.5 404.255 1857.7 404.255C1859.91 404.255 1861.69 401.891 1861.69 398.936C1861.69 395.981 1863.46 393.617 1865.68 393.617C1867.87 393.617 1869.67 391.822 1869.67 389.628C1869.67 387.412 1872.03 385.638 1874.99 385.638C1878.53 385.638 1880.3 383.864 1880.3 380.319C1880.3 377.364 1882.08 375 1884.29 375C1886.95 375 1888.28 372.34 1888.28 367.021C1888.28 361.702 1889.61 359.043 1892.27 359.043C1894.47 359.043 1896.26 357.247 1896.26 355.053C1896.26 352.859 1898.06 351.064 1900.25 351.064C1902.44 351.064 1904.24 349.269 1904.24 347.074C1904.24 344.859 1906.6 343.085 1909.56 343.085C1913.1 343.085 1914.88 341.311 1914.88 337.766C1914.88 334.811 1916.65 332.447 1918.87 332.447C1921.06 332.447 1922.86 330.652 1922.86 328.457C1922.86 326.263 1924.65 324.468 1926.85 324.468C1929.04 324.468 1930.84 322.673 1930.84 320.479C1930.84 318.285 1932.63 316.489 1934.83 316.489C1937.04 316.489 1938.81 314.125 1938.81 311.17C1938.81 308.245 1940.51 305.851 1942.59 305.851C1944.67 305.851 1947.16 302.261 1948.12 297.872C1949.09 293.484 1951.57 289.894 1953.65 289.894C1955.73 289.894 1957.43 288.098 1957.43 285.904C1957.43 283.71 1959.23 281.915 1961.42 281.915C1963.61 281.915 1965.41 280.12 1965.41 277.926C1965.41 275.731 1967.24 273.936 1969.48 273.936C1971.72 273.936 1974.32 271.933 1975.26 269.484C1977.44 263.806 1985.88 255.319 1989.35 255.319C1990.81 255.319 1992.01 253.524 1992.01 251.33C1992.01 249.136 1993.8 247.34 1995.99 247.34C1998.21 247.34 1999.98 244.976 1999.98 242.021C1999.98 239.096 2001.68 236.702 2003.76 236.702C2005.84 236.702 2008.33 233.112 2009.29 228.723C2010.26 224.335 2012.74 220.745 2014.82 220.745C2016.9 220.745 2018.6 218.949 2018.6 216.755C2018.6 214.561 2020.4 212.766 2022.59 212.766C2024.81 212.766 2026.58 210.402 2026.58 207.447C2026.58 204.492 2028.35 202.128 2030.57 202.128C2032.76 202.128 2034.56 200.332 2034.56 198.138C2034.56 195.848 2036.96 194.149 2040.19 194.149C2044.73 194.149 2045.51 192.992 2044.21 188.165C2043.33 184.875 2042.59 180.686 2042.57 178.856C2042.54 176.205 1862.55 175.532 1151.59 175.532C361.404 175.532 260.636 175.984 260.636 179.521ZM2207.43 183.511C2207.43 188.83 2206.1 191.489 2203.44 191.489C2201.22 191.489 2199.45 193.854 2199.45 196.809C2199.45 200.354 2197.68 202.128 2194.13 202.128C2191.18 202.128 2188.81 203.902 2188.81 206.117C2188.81 208.311 2187.02 210.106 2184.82 210.106C2182.63 210.106 2180.83 211.902 2180.83 214.096C2180.83 216.29 2179.04 218.085 2176.84 218.085C2174.65 218.085 2172.86 219.88 2172.86 222.074C2172.86 224.269 2171.06 226.064 2168.87 226.064C2166.65 226.064 2164.88 228.428 2164.88 231.383C2164.88 234.928 2163.1 236.702 2159.56 236.702C2155.42 236.702 2154.24 238.476 2154.24 244.681C2154.24 250 2152.91 252.66 2150.25 252.66C2148.05 252.66 2146.26 254.455 2146.26 256.649C2146.26 258.843 2144.46 260.638 2142.27 260.638C2140.05 260.638 2138.28 263.003 2138.28 265.957C2138.28 269.503 2136.51 271.277 2132.96 271.277C2130.01 271.277 2127.64 273.051 2127.64 275.266C2127.64 277.46 2125.85 279.255 2123.65 279.255C2121.37 279.255 2119.66 281.652 2119.66 284.859C2119.66 288.545 2118.4 289.979 2115.98 289.048C2113.39 288.053 2112.69 289.16 2113.63 292.753C2114.64 296.614 2113.58 297.872 2109.34 297.872C2106.11 297.872 2103.71 299.572 2103.71 301.862C2103.71 304.056 2102.01 305.851 2099.93 305.851C2097.85 305.851 2095.36 309.441 2094.4 313.83C2093.44 318.218 2090.95 321.809 2088.87 321.809C2086.79 321.809 2085.09 324.202 2085.09 327.128C2085.09 330.082 2083.32 332.447 2081.1 332.447C2078.91 332.447 2077.11 334.242 2077.11 336.436C2077.11 338.63 2075.32 340.426 2073.12 340.426C2070.93 340.426 2069.13 342.221 2069.13 344.415C2069.13 346.63 2066.77 348.404 2063.81 348.404C2060.86 348.404 2058.49 350.178 2058.49 352.394C2058.49 354.588 2056.7 356.383 2054.5 356.383C2052.29 356.383 2050.52 358.747 2050.52 361.702C2050.52 364.657 2048.74 367.021 2046.53 367.021C2043.87 367.021 2042.54 369.681 2042.54 375C2042.54 380.319 2041.21 382.979 2038.55 382.979C2036.35 382.979 2034.56 384.774 2034.56 386.968C2034.56 389.184 2032.19 390.957 2029.24 390.957C2025.69 390.957 2023.92 392.731 2023.92 396.277C2023.92 399.231 2022.15 401.596 2019.93 401.596C2017.74 401.596 2015.94 403.391 2015.94 405.585C2015.94 407.779 2014.15 409.574 2011.95 409.574C2009.76 409.574 2007.96 411.231 2007.96 413.253C2007.96 415.277 2005.57 417.559 2002.64 418.324C1999.72 419.088 1997.32 421.622 1997.32 423.952C1997.32 426.285 1995.53 428.191 1993.34 428.191C1991.14 428.191 1989.35 429.987 1989.35 432.181C1989.35 434.375 1988.24 436.17 1986.9 436.17C1985.55 436.17 1983.66 439.761 1982.7 444.149C1981.73 448.537 1979.24 452.128 1977.17 452.128C1975.09 452.128 1973.39 454.521 1973.39 457.447C1973.39 460.992 1971.61 462.766 1968.07 462.766C1965.11 462.766 1962.75 464.54 1962.75 466.755C1962.75 468.949 1960.96 470.745 1958.76 470.745C1955.97 470.745 1954.77 473.553 1954.77 480.053V489.362H2295.19C2596.02 489.362 2635.62 488.899 2635.62 485.372C2635.62 483.178 2637.41 481.383 2639.61 481.383C2641.8 481.383 2643.6 479.588 2643.6 477.394C2643.6 475.199 2645.39 473.404 2647.59 473.404C2649.78 473.404 2651.57 471.609 2651.57 469.415C2651.57 467.199 2653.94 465.426 2656.89 465.426C2660.44 465.426 2662.21 463.652 2662.21 460.106C2662.21 457.152 2663.99 454.787 2666.2 454.787C2668.4 454.787 2670.19 453.12 2670.19 451.082C2670.19 449.045 2671.99 446.689 2674.18 445.846C2676.51 444.952 2678.17 440.965 2678.17 436.253C2678.17 429.965 2679.34 428.191 2683.49 428.191C2686.44 428.191 2688.81 426.418 2688.81 424.202C2688.81 422.008 2690.6 420.213 2692.8 420.213C2694.99 420.213 2696.79 418.418 2696.79 416.223C2696.79 414.029 2698.58 412.234 2700.78 412.234C2702.97 412.234 2704.77 410.439 2704.77 408.245C2704.77 406.051 2706.56 404.255 2708.76 404.255C2710.97 404.255 2712.74 401.891 2712.74 398.936C2712.74 395.391 2714.52 393.617 2718.06 393.617C2721.02 393.617 2723.38 391.843 2723.38 389.628C2723.38 387.434 2725.18 385.638 2727.37 385.638C2730.03 385.638 2731.36 382.979 2731.36 377.66C2731.36 372.34 2732.69 369.681 2735.35 369.681C2737.57 369.681 2739.34 367.316 2739.34 364.362C2739.34 361.407 2741.11 359.043 2743.33 359.043C2745.52 359.043 2747.32 357.247 2747.32 355.053C2747.32 352.838 2749.68 351.064 2752.64 351.064C2755.59 351.064 2757.96 349.29 2757.96 347.074C2757.96 344.88 2759.75 343.085 2761.95 343.085C2764.16 343.085 2765.94 340.721 2765.94 337.766C2765.94 334.811 2767.71 332.447 2769.92 332.447C2772.12 332.447 2773.91 330.652 2773.91 328.457C2773.91 326.263 2775.71 324.468 2777.9 324.468C2780.1 324.468 2781.89 322.673 2781.89 320.479C2781.89 318.285 2783.63 316.489 2785.76 316.489C2788.08 316.489 2790.33 312.753 2791.38 307.181C2792.38 301.848 2794.7 297.872 2796.82 297.872C2798.85 297.872 2800.51 296.077 2800.51 293.883C2800.51 291.689 2802.3 289.894 2804.5 289.894C2806.69 289.894 2808.49 288.098 2808.49 285.904C2808.49 283.689 2810.85 281.915 2813.81 281.915C2816.76 281.915 2819.13 280.141 2819.13 277.926C2819.13 275.731 2820.92 273.936 2823.12 273.936C2825.33 273.936 2827.11 271.572 2827.11 268.617C2827.11 265.662 2828.88 263.298 2831.09 263.298C2833.29 263.298 2835.08 261.503 2835.08 259.309C2835.08 257.114 2836.88 255.319 2839.07 255.319C2841.29 255.319 2843.06 252.955 2843.06 250C2843.06 247.074 2844.76 244.681 2846.84 244.681C2848.92 244.681 2851.41 241.09 2852.37 236.702C2853.33 232.314 2855.82 228.723 2857.9 228.723C2859.98 228.723 2861.68 226.928 2861.68 224.734C2861.68 222.54 2863.47 220.745 2865.67 220.745C2867.88 220.745 2869.66 218.38 2869.66 215.426C2869.66 212.471 2871.43 210.106 2873.65 210.106C2875.84 210.106 2877.64 208.311 2877.64 206.117C2877.64 203.902 2880 202.128 2882.96 202.128C2887.26 202.128 2888.27 200.354 2888.27 192.819C2888.27 187.699 2889.47 183.511 2890.93 183.511C2892.4 183.511 2893.59 181.715 2893.59 179.521C2893.59 175.995 2853.7 175.532 2550.51 175.532H2207.43V183.511ZM3518.59 183.511C3518.59 188.83 3517.26 191.489 3514.6 191.489C3512.38 191.489 3510.61 193.854 3510.61 196.809C3510.61 199.763 3508.84 202.128 3506.62 202.128C3504.43 202.128 3502.63 203.923 3502.63 206.117C3502.63 208.311 3500.84 210.106 3498.64 210.106C3496.45 210.106 3494.65 211.902 3494.65 214.096C3494.65 216.311 3492.29 218.085 3489.33 218.085C3486.38 218.085 3484.01 219.859 3484.01 222.074C3484.01 224.269 3482.22 226.064 3480.03 226.064C3477.81 226.064 3476.04 228.428 3476.04 231.383C3476.04 234.338 3474.26 236.702 3472.05 236.702C3469.39 236.702 3468.06 239.362 3468.06 244.681C3468.06 250.886 3466.88 252.66 3462.74 252.66C3459.78 252.66 3457.42 254.434 3457.42 256.649C3457.42 258.843 3455.62 260.638 3453.43 260.638C3451.21 260.638 3449.44 263.003 3449.44 265.957C3449.44 268.912 3447.67 271.277 3445.45 271.277C3443.26 271.277 3441.46 273.072 3441.46 275.266C3441.46 277.46 3439.67 279.255 3437.47 279.255C3435.28 279.255 3433.48 280.912 3433.48 282.934C3433.48 284.957 3431.09 287.239 3428.16 288.005C3425.24 288.769 3422.85 291.303 3422.85 293.633C3422.85 295.965 3421.05 297.872 3418.86 297.872C3416.66 297.872 3414.87 299.668 3414.87 301.862C3414.87 304.056 3413.07 305.851 3410.88 305.851C3408.22 305.851 3406.89 308.511 3406.89 313.83C3406.89 319.149 3405.56 321.809 3402.9 321.809C3400.68 321.809 3398.91 324.173 3398.91 327.128C3398.91 330.673 3397.14 332.447 3393.59 332.447C3390.64 332.447 3388.27 334.221 3388.27 336.436C3388.27 338.63 3386.48 340.426 3384.28 340.426C3382.09 340.426 3380.29 342.221 3380.29 344.415C3380.29 346.609 3378.5 348.404 3376.3 348.404C3374.11 348.404 3372.31 350.199 3372.31 352.394C3372.31 354.588 3370.52 356.383 3368.32 356.383C3366.11 356.383 3364.33 358.747 3364.33 361.702C3364.33 365.247 3362.56 367.021 3359.02 367.021C3354.88 367.021 3353.7 368.795 3353.7 375C3353.7 380.319 3352.37 382.979 3349.71 382.979C3347.51 382.979 3345.72 384.774 3345.72 386.968C3345.72 389.162 3343.92 390.957 3341.73 390.957C3339.51 390.957 3337.74 393.322 3337.74 396.277C3337.74 399.822 3335.97 401.596 3332.42 401.596C3329.47 401.596 3327.1 403.37 3327.1 405.585C3327.1 407.779 3325.31 409.574 3323.11 409.574C3320.92 409.574 3319.12 411.37 3319.12 413.564C3319.12 415.758 3317.33 417.553 3315.13 417.553C3312.92 417.553 3311.14 419.918 3311.14 422.872C3311.14 425.827 3309.37 428.191 3307.15 428.191C3304.96 428.191 3303.17 429.987 3303.17 432.181C3303.17 434.375 3301.47 436.17 3299.39 436.17C3297.31 436.17 3294.82 439.761 3293.86 444.149C3292.89 448.537 3290.4 452.128 3288.33 452.128C3286.25 452.128 3284.55 454.521 3284.55 457.447C3284.55 460.402 3282.77 462.766 3280.56 462.766C3278.36 462.766 3276.57 464.561 3276.57 466.755C3276.57 468.949 3274.77 470.745 3272.58 470.745C3269.79 470.745 3268.59 473.553 3268.59 480.053V489.362H3607.68C3907.33 489.362 3946.78 488.896 3946.78 485.372C3946.78 483.157 3949.14 481.383 3952.1 481.383C3955.05 481.383 3957.42 479.609 3957.42 477.394C3957.42 475.199 3959.21 473.404 3961.4 473.404C3963.6 473.404 3965.39 471.609 3965.39 469.415C3965.39 467.221 3967.19 465.426 3969.38 465.426C3971.6 465.426 3973.37 463.061 3973.37 460.106C3973.37 457.152 3975.15 454.787 3977.36 454.787C3979.56 454.787 3981.35 452.992 3981.35 450.798C3981.35 448.604 3983.09 446.809 3985.22 446.809C3987.53 446.809 3989.79 443.072 3990.84 437.5C3991.84 432.168 3994.16 428.191 3996.27 428.191C3998.31 428.191 3999.97 426.396 3999.97 424.202C3999.97 422.008 4001.76 420.213 4003.96 420.213C4006.15 420.213 4007.95 418.418 4007.95 416.223C4007.95 414.008 4010.31 412.234 4013.27 412.234C4016.9 412.234 4018.59 410.46 4018.59 406.63C4018.59 402.742 4019.81 401.495 4022.57 402.559C4025.29 403.598 4026.56 402.415 4026.56 398.854C4026.56 395.971 4028.36 393.617 4030.55 393.617C4032.75 393.617 4034.54 391.822 4034.54 389.628C4034.54 387.434 4036.34 385.638 4038.53 385.638C4040.73 385.638 4042.52 383.843 4042.52 381.649C4042.52 379.455 4044.43 377.66 4046.76 377.66C4049.09 377.66 4051.62 375.266 4052.39 372.34C4053.15 369.415 4054.74 367.021 4055.92 367.021C4057.09 367.021 4058.85 363.431 4059.81 359.043C4060.77 354.654 4063.26 351.064 4065.34 351.064C4067.42 351.064 4069.12 349.269 4069.12 347.074C4069.12 344.88 4070.91 343.085 4073.11 343.085C4075.32 343.085 4077.1 340.721 4077.1 337.766C4077.1 334.221 4078.87 332.447 4082.41 332.447C4085.34 332.447 4087.73 330.779 4087.73 328.742C4087.73 326.705 4089.53 324.348 4091.72 323.505C4093.92 322.665 4095.71 320.016 4095.71 317.617C4095.71 314.904 4097.17 313.819 4099.57 314.739C4102.14 315.729 4102.93 314.942 4101.94 312.364C4100.94 309.75 4102.27 308.511 4106.07 308.511C4109.9 308.511 4111.67 306.827 4111.67 303.191C4111.67 300.266 4113.33 297.872 4115.35 297.872C4119.38 297.872 4122.21 289.979 4122.27 278.59C4122.3 271.997 4121.39 271.277 4113 271.277C4105.46 271.277 4103.69 270.263 4103.69 265.957C4103.69 261.359 4101.92 260.638 4090.61 260.638C4082.98 260.638 4077.11 259.34 4076.5 257.521C4075.92 255.771 4068.24 253.88 4058.99 253.213C4047.34 252.37 4042.52 250.947 4042.52 248.351C4042.52 245.721 4038.76 244.681 4029.22 244.681C4019.18 244.681 4015.93 243.705 4015.93 240.691C4015.93 237.556 4012.23 236.702 3998.64 236.702C3983.13 236.702 3981.35 236.157 3981.35 231.383C3981.35 226.872 3979.58 226.064 3969.67 226.064C3961.74 226.064 3957.49 224.782 3956.45 222.074C3955.37 219.261 3950.98 218.085 3941.54 218.085C3931.42 218.085 3928.16 217.114 3928.16 214.096C3928.16 210.992 3924.62 210.106 3912.2 210.106C3899.79 210.106 3896.25 209.221 3896.25 206.117C3896.25 203.114 3893.03 202.128 3883.26 202.128C3872.51 202.128 3870.03 201.213 3868.88 196.809C3867.66 192.157 3865.25 191.489 3849.67 191.489C3835.63 191.489 3832.14 190.713 3833.25 187.83C3834.02 185.819 3833.25 184.213 3831.54 184.261C3816.15 184.697 3808.48 183.12 3808.48 179.521C3808.48 176.024 3790.6 175.532 3663.53 175.532H3518.59V183.511ZM4824.43 179.521C4824.43 181.737 4822.07 183.511 4819.11 183.511C4816.16 183.511 4813.79 185.285 4813.79 187.5C4813.79 189.694 4812 191.489 4809.8 191.489C4807.59 191.489 4805.81 193.854 4805.81 196.809C4805.81 199.763 4804.04 202.128 4801.82 202.128C4799.63 202.128 4797.83 203.923 4797.83 206.117C4797.83 208.332 4795.47 210.106 4792.52 210.106C4789.59 210.106 4787.2 211.774 4787.2 213.811C4787.2 215.848 4785.4 218.205 4783.21 219.048C4780.87 219.941 4779.22 223.928 4779.22 228.641C4779.22 234.035 4777.9 236.702 4775.23 236.702C4773.03 236.702 4771.24 238.497 4771.24 240.691C4771.24 242.886 4769.44 244.681 4767.25 244.681C4765.06 244.681 4763.26 246.476 4763.26 248.67C4763.26 250.886 4760.9 252.66 4757.94 252.66C4754.99 252.66 4752.62 254.434 4752.62 256.649C4752.62 258.843 4750.83 260.638 4748.63 260.638C4746.42 260.638 4744.64 263.003 4744.64 265.957C4744.64 268.883 4743.45 271.277 4741.98 271.277C4740.52 271.277 4739.32 273.072 4739.32 275.266C4739.32 277.481 4736.96 279.255 4734 279.255C4730.46 279.255 4728.69 281.029 4728.69 284.574C4728.69 287.5 4726.99 289.894 4724.91 289.894C4722.83 289.894 4720.34 293.484 4719.38 297.872C4718.41 302.261 4715.93 305.851 4713.85 305.851C4711.77 305.851 4710.07 307.646 4710.07 309.84C4710.07 312.035 4708.27 313.83 4706.08 313.83C4703.89 313.83 4702.09 315.625 4702.09 317.819C4702.09 320.013 4700.3 321.809 4698.1 321.809C4695.89 321.809 4694.11 324.173 4694.11 327.128C4694.11 330.673 4692.34 332.447 4688.79 332.447C4685.84 332.447 4683.47 334.221 4683.47 336.436C4683.47 338.63 4681.68 340.426 4679.48 340.426C4677.29 340.426 4675.49 342.221 4675.49 344.415C4675.49 346.609 4673.7 348.404 4671.51 348.404C4668.72 348.404 4667.52 351.213 4667.52 357.713C4667.52 365.247 4666.5 367.021 4662.2 367.021C4659.24 367.021 4656.88 368.795 4656.88 371.011C4656.88 373.205 4655.08 375 4652.89 375C4650.69 375 4648.9 376.795 4648.9 378.989C4648.9 381.184 4647.1 382.979 4644.91 382.979C4642.72 382.979 4640.92 384.774 4640.92 386.968C4640.92 389.162 4639.13 390.957 4636.93 390.957C4634.72 390.957 4632.94 393.322 4632.94 396.277C4632.94 399.822 4631.17 401.596 4627.62 401.596C4624.67 401.596 4622.3 403.37 4622.3 405.585C4622.3 407.779 4620.51 409.574 4618.31 409.574C4616.12 409.574 4614.32 411.37 4614.32 413.564C4614.32 415.758 4612.53 417.553 4610.34 417.553C4607.55 417.553 4606.35 420.362 4606.35 426.862C4606.35 433.362 4605.14 436.17 4602.36 436.17C4600.16 436.17 4598.37 437.965 4598.37 440.16C4598.37 442.375 4596 444.149 4593.05 444.149C4590.09 444.149 4587.73 445.923 4587.73 448.138C4587.73 450.332 4585.93 452.128 4583.74 452.128C4581.52 452.128 4579.75 454.492 4579.75 457.447C4579.75 460.402 4577.98 462.766 4575.76 462.766C4573.57 462.766 4571.77 464.561 4571.77 466.755C4571.77 468.949 4569.98 470.745 4567.78 470.745C4565 470.745 4563.79 473.553 4563.79 480.053V489.362H4877.62C5154.8 489.362 5191.45 488.896 5191.45 485.372C5191.45 483.178 5193.24 481.383 5195.44 481.383C5197.63 481.383 5199.43 479.588 5199.43 477.394C5199.43 475.199 5201.22 473.404 5203.42 473.404C5205.63 473.404 5207.41 471.04 5207.41 468.085C5207.41 465.13 5209.18 462.766 5211.39 462.766C5214.05 462.766 5215.38 460.106 5215.38 454.787C5215.38 448.582 5216.56 446.809 5220.7 446.809C5223.66 446.809 5226.02 445.035 5226.02 442.819C5226.02 440.625 5227.82 438.83 5230.01 438.83C5232.23 438.83 5234 436.465 5234 433.511C5234 430.556 5235.77 428.191 5237.99 428.191C5240.18 428.191 5241.98 426.396 5241.98 424.202C5241.98 422.008 5244.33 420.213 5247.22 420.213C5250.78 420.213 5251.96 418.936 5250.92 416.223C5249.86 413.455 5251.1 412.234 5254.99 412.234C5258.2 412.234 5260.6 410.529 5260.6 408.245C5260.6 406.051 5262.39 404.255 5264.59 404.255C5266.8 404.255 5268.58 401.891 5268.58 398.936C5268.58 395.981 5270.35 393.617 5272.56 393.617C5274.78 393.617 5276.55 391.253 5276.55 388.298C5276.55 385.372 5278.32 382.979 5280.49 382.979C5282.66 382.979 5285.18 379.987 5286.1 376.33C5287.02 372.673 5289.43 369.681 5291.47 369.681C5293.51 369.681 5295.17 367.287 5295.17 364.362C5295.17 361.407 5296.94 359.043 5299.16 359.043C5301.35 359.043 5303.15 357.247 5303.15 355.053C5303.15 352.859 5304.94 351.064 5307.14 351.064C5309.33 351.064 5311.13 349.269 5311.13 347.074C5311.13 344.859 5313.49 343.085 5316.45 343.085C5319.99 343.085 5321.77 341.311 5321.77 337.766C5321.77 334.84 5322.96 332.447 5324.43 332.447C5325.89 332.447 5327.09 330.652 5327.09 328.457C5327.09 326.242 5329.45 324.468 5332.4 324.468C5335.36 324.468 5337.72 322.694 5337.72 320.479C5337.72 318.285 5339.39 316.489 5341.42 316.489C5343.53 316.489 5345.86 312.513 5346.86 307.181C5347.9 301.609 5350.16 297.872 5352.47 297.872C5354.6 297.872 5356.34 296.077 5356.34 293.883C5356.34 291.689 5358.14 289.894 5360.33 289.894C5363.12 289.894 5364.32 287.085 5364.32 280.585C5364.32 271.721 5363.87 271.277 5355.01 271.277C5348.89 271.277 5345.7 270.027 5345.7 267.62C5345.7 263.681 5334.55 260.638 5320.1 260.638C5313.9 260.638 5311.13 259.407 5311.13 256.649C5311.13 253.636 5307.88 252.66 5297.83 252.66C5287.78 252.66 5284.53 251.684 5284.53 248.67C5284.53 245.657 5281.28 244.681 5271.23 244.681C5261.19 244.681 5257.94 243.705 5257.94 240.691C5257.94 237.588 5254.39 236.702 5241.98 236.702C5227.8 236.702 5226.02 236.112 5226.02 231.383C5226.02 226.787 5224.25 226.064 5213.01 226.064C5203.89 226.064 5199.54 224.87 5198.46 222.074C5197.34 219.138 5192.7 218.085 5180.89 218.085C5168.41 218.085 5164.85 217.202 5164.85 214.096C5164.85 211.082 5161.6 210.106 5151.55 210.106C5141.51 210.106 5138.26 209.13 5138.26 206.117C5138.26 203.104 5135.01 202.128 5124.96 202.128C5115.41 202.128 5111.66 201.09 5111.66 198.449C5111.66 193.989 5103.54 191.574 5088.39 191.527C5080.13 191.5 5077.09 190.415 5077.09 187.5C5077.09 184.487 5073.84 183.511 5063.79 183.511C5053.74 183.511 5050.49 182.535 5050.49 179.521C5050.49 176.037 5036.16 175.532 4937.46 175.532C4838.76 175.532 4824.43 176.037 4824.43 179.521ZM5997.29 179.521C5997.29 181.737 5994.93 183.511 5991.97 183.511C5989.02 183.511 5986.65 185.285 5986.65 187.5C5986.65 189.694 5984.86 191.489 5982.67 191.489C5979.88 191.489 5978.68 194.298 5978.68 200.798C5978.68 207.298 5977.47 210.106 5974.69 210.106C5972.49 210.106 5970.7 211.902 5970.7 214.096C5970.7 216.29 5968.9 218.085 5966.71 218.085C5964.51 218.085 5962.72 219.88 5962.72 222.074C5962.72 224.269 5960.92 226.064 5958.73 226.064C5956.51 226.064 5954.74 228.428 5954.74 231.383C5954.74 234.928 5952.97 236.702 5949.42 236.702C5946.47 236.702 5944.1 238.476 5944.1 240.691C5944.1 242.886 5942.31 244.681 5940.11 244.681C5937.45 244.681 5936.12 247.34 5936.12 252.66C5936.12 257.979 5934.79 260.638 5932.13 260.638C5929.92 260.638 5928.14 263.003 5928.14 265.957C5928.14 269.503 5926.37 271.277 5922.83 271.277C5918.69 271.277 5917.51 273.051 5917.51 279.255C5917.51 284.574 5916.18 287.234 5913.52 287.234C5910.5 287.234 5909.53 290.484 5909.53 300.532C5909.53 310.58 5908.55 313.83 5905.54 313.83C5902.26 313.83 5901.55 318.559 5901.55 340.426C5901.55 362.293 5902.26 367.021 5905.54 367.021C5908.33 367.021 5909.53 369.83 5909.53 376.33C5909.53 382.83 5910.73 385.638 5913.52 385.638C5916.3 385.638 5917.51 388.447 5917.51 394.947C5917.51 402.481 5918.52 404.255 5922.83 404.255C5925.78 404.255 5928.14 406.029 5928.14 408.245C5928.14 410.439 5929.94 412.234 5932.13 412.234C5934.33 412.234 5936.12 414.029 5936.12 416.223C5936.12 418.418 5937.92 420.213 5940.11 420.213C5942.31 420.213 5944.1 422.008 5944.1 424.202C5944.1 426.418 5946.47 428.191 5949.42 428.191C5952.35 428.191 5954.74 429.891 5954.74 431.971C5954.74 434.048 5958.33 436.537 5962.72 437.5C5967.11 438.463 5970.7 440.952 5970.7 443.029C5970.7 445.455 5973.56 446.809 5978.68 446.809C5983.99 446.809 5986.65 448.138 5986.65 450.798C5986.65 453.862 5990.05 454.787 6001.28 454.787C6014.14 454.787 6015.91 455.431 6015.91 460.106C6015.91 464.622 6017.68 465.426 6027.66 465.426C6034.61 465.426 6039.85 466.766 6040.5 468.71C6041.21 470.843 6049.2 472.34 6063.32 472.981C6079.66 473.723 6085.06 474.888 6085.06 477.676C6085.06 480.657 6091.84 481.383 6119.63 481.383C6148.59 481.383 6154.21 482.032 6154.21 485.372C6154.21 488.816 6163.66 489.362 6223.35 489.362C6279.71 489.362 6292.5 490.027 6292.5 492.96C6292.5 499.194 6324.29 500 6570.42 500C6819.02 500 6856.33 499.08 6856.33 492.952C6856.33 490 6874.31 489.362 6957.39 489.362C7045.45 489.362 7058.45 488.848 7058.45 485.372C7058.45 481.96 7066.12 481.383 7111.46 481.383C7155.02 481.383 7165.17 480.673 7168.45 477.394C7171.57 474.269 7179.71 473.404 7205.95 473.404C7233.29 473.404 7239.75 472.67 7241 469.415C7242.23 466.205 7248.23 465.426 7271.75 465.426C7298.73 465.426 7301.08 465.019 7302.36 460.106C7303.63 455.263 7305.99 454.787 7328.71 454.787C7349.12 454.787 7353.66 454.061 7353.66 450.798C7353.66 447.662 7357.36 446.809 7370.95 446.809C7384.54 446.809 7388.24 445.955 7388.24 442.819C7388.24 439.676 7391.96 438.83 7405.78 438.83C7421.07 438.83 7423.49 438.152 7424.7 433.511C7425.83 429.213 7428.33 428.191 7437.75 428.191C7446.34 428.191 7449.41 427.141 7449.41 424.202C7449.41 421.189 7452.66 420.213 7462.71 420.213C7472.75 420.213 7476 419.237 7476 416.223C7476 413.436 7478.81 412.234 7485.31 412.234C7491.81 412.234 7494.62 411.032 7494.62 408.245C7494.62 405.585 7497.28 404.255 7502.6 404.255C7508.8 404.255 7510.58 403.074 7510.58 398.936C7510.58 394.63 7512.35 393.617 7519.89 393.617C7526.39 393.617 7529.2 392.415 7529.2 389.628C7529.2 387.434 7530.99 385.638 7533.18 385.638C7535.38 385.638 7537.17 383.843 7537.17 381.649C7537.17 379.455 7538.97 377.66 7541.16 377.66C7543.36 377.66 7545.15 375.918 7545.15 373.79C7545.15 371.476 7548.89 369.221 7554.46 368.176C7559.79 367.176 7563.77 364.851 7563.77 362.737C7563.77 360.705 7565.56 359.043 7567.76 359.043C7569.95 359.043 7571.75 357.247 7571.75 355.053C7571.75 352.859 7573.54 351.064 7575.74 351.064C7577.93 351.064 7579.73 349.407 7579.73 347.386C7579.73 345.362 7582.12 343.08 7585.05 342.314C7587.97 341.551 7590.37 339.016 7590.37 336.686C7590.37 334.354 7592.16 332.447 7594.35 332.447C7596.55 332.447 7598.34 330.652 7598.34 328.457C7598.34 326.263 7600.14 324.468 7602.33 324.468C7604.99 324.468 7606.32 321.809 7606.32 316.489C7606.32 311.17 7607.65 308.511 7610.31 308.511C7612.53 308.511 7614.3 306.146 7614.3 303.191C7614.3 299.646 7616.07 297.872 7619.62 297.872C7622.57 297.872 7624.94 296.098 7624.94 293.883C7624.94 291.689 7626.73 289.894 7628.93 289.894C7631.12 289.894 7632.92 288.098 7632.92 285.904C7632.92 283.71 7634.71 281.915 7636.91 281.915C7639.1 281.915 7640.9 280.258 7640.9 278.237C7640.9 276.213 7643.29 273.931 7646.22 273.165C7650.09 272.152 7651.53 269.537 7651.53 263.548C7651.53 258.005 7652.84 255.319 7655.52 255.319C7657.72 255.319 7659.51 253.524 7659.51 251.33C7659.51 249.136 7661.31 247.34 7663.5 247.34C7666.29 247.34 7667.49 244.532 7667.49 238.032C7667.49 231.532 7668.69 228.723 7671.48 228.723C7673.68 228.723 7675.47 226.928 7675.47 224.734C7675.47 222.519 7677.84 220.745 7680.79 220.745C7685.1 220.745 7686.11 218.971 7686.11 211.436C7686.11 204.936 7687.31 202.128 7690.1 202.128C7693.11 202.128 7694.09 198.878 7694.09 188.83V175.532H7357.65H7021.22V183.511C7021.22 188.83 7019.89 191.489 7017.23 191.489C7015.02 191.489 7013.24 193.854 7013.24 196.809C7013.24 199.763 7011.47 202.128 7009.25 202.128C7006.59 202.128 7005.26 204.787 7005.26 210.106C7005.26 215.426 7003.93 218.085 7001.27 218.085C6998.49 218.085 6997.28 220.894 6997.28 227.394C6997.28 234.928 6996.27 236.702 6991.97 236.702C6989.01 236.702 6986.65 238.476 6986.65 240.691C6986.65 242.886 6984.85 244.681 6982.66 244.681C6980.46 244.681 6978.67 246.476 6978.67 248.67C6978.67 250.864 6976.87 252.66 6974.68 252.66C6971.89 252.66 6970.69 255.468 6970.69 261.968C6970.69 269.503 6969.68 271.277 6965.37 271.277C6962.42 271.277 6960.05 273.051 6960.05 275.266C6960.05 277.46 6958.26 279.255 6956.06 279.255C6953.87 279.255 6952.07 281.051 6952.07 283.245C6952.07 285.439 6950.28 287.234 6948.08 287.234C6945.87 287.234 6944.09 289.598 6944.09 292.553C6944.09 295.508 6942.32 297.872 6940.1 297.872C6937.91 297.872 6936.11 299.668 6936.11 301.862C6936.11 304.077 6933.75 305.851 6930.8 305.851C6927.84 305.851 6925.48 307.625 6925.48 309.84C6925.48 312.5 6922.82 313.83 6917.5 313.83C6912.18 313.83 6909.52 315.16 6909.52 317.819C6909.52 320.013 6907.72 321.809 6905.53 321.809C6903.31 321.809 6901.54 324.173 6901.54 327.128C6901.54 331.434 6899.77 332.447 6892.23 332.447C6885.73 332.447 6882.92 333.649 6882.92 336.436C6882.92 339.096 6880.26 340.426 6874.95 340.426C6869.96 340.426 6866.97 341.793 6866.97 344.069C6866.97 346.439 6862.58 348.207 6854.42 349.128C6847.52 349.904 6841.44 351.856 6840.9 353.463C6840.3 355.255 6831.8 356.383 6818.87 356.383C6799.59 356.383 6797.82 356.83 6797.82 361.702C6797.82 366.912 6796.04 367.021 6711.38 367.021C6626.72 367.021 6624.95 366.912 6624.95 361.702C6624.95 357.093 6623.17 356.383 6611.65 356.383C6601.6 356.383 6598.35 355.407 6598.35 352.394C6598.35 350.199 6596.56 348.404 6594.36 348.404C6592.17 348.404 6590.37 346.609 6590.37 344.415C6590.37 342.221 6588.58 340.426 6586.38 340.426C6583.17 340.426 6582.39 336.287 6582.39 319.149C6582.39 302.011 6583.17 297.872 6586.38 297.872C6589.04 297.872 6590.37 295.213 6590.37 289.894C6590.37 284.574 6591.7 281.915 6594.36 281.915C6596.56 281.915 6598.35 280.12 6598.35 277.926C6598.35 275.731 6600.15 273.936 6602.34 273.936C6605.13 273.936 6606.33 271.128 6606.33 264.628C6606.33 257.093 6607.34 255.319 6611.65 255.319C6614.6 255.319 6616.97 253.545 6616.97 251.33C6616.97 249.136 6618.76 247.34 6620.96 247.34C6623.17 247.34 6624.95 244.976 6624.95 242.021C6624.95 239.096 6626.05 236.702 6627.4 236.702C6628.74 236.702 6630.63 233.112 6631.6 228.723C6632.56 224.335 6635.05 220.745 6637.13 220.745C6639.21 220.745 6640.9 218.949 6640.9 216.755C6640.9 214.54 6643.27 212.766 6646.22 212.766C6649.77 212.766 6651.54 210.992 6651.54 207.447C6651.54 204.492 6653.32 202.128 6655.53 202.128C6658.55 202.128 6659.52 198.878 6659.52 188.83V175.532H6328.41C6035.86 175.532 5997.29 175.997 5997.29 179.521Z" fill="currentColor"/>
</svg>
