<svg width="748" height="501" viewBox="0 0 748 501" fill="none" xmlns="http://www.w3.org/2000/svg">
<path fill-rule="evenodd" clip-rule="evenodd" d="M22.4327 6.61396C7.26451 15.0223 0.931603 29.8104 0.760789 57.2345L0.611328 81.7889L142.6 81.8146C227.234 81.8274 291.016 83.6209 300.496 86.2557C341.875 97.7472 375.935 140.609 379.561 185.75C383.507 234.936 362.595 274.266 320.135 297.509C299.441 308.834 292.608 310.158 244.02 312.272C213.915 313.578 186.602 316.888 181.375 319.86C176.28 322.76 169.9 331.817 167.206 339.991C157.516 369.349 161.398 372.407 293.129 439.22C404.897 495.909 414.3 499.876 437.253 500.073L461.808 500.282L461.85 334.806C461.893 169.664 461.91 169.288 472.001 147.979C484.235 122.148 504.336 102.329 530.133 90.667C547.667 82.737 558.048 81.9683 648.635 81.8829L747.92 81.7889V58.0886C747.92 30.2844 740.14 12.8572 724.553 5.75562C707.39 -2.06763 36.6103 -1.24773 22.4327 6.61396ZM0.611328 312.601C0.611328 479.588 1.28177 484.84 23.9786 495.179C31.7207 498.706 67.0578 500.214 138.53 500.06L241.885 499.838L188.293 472.7C112.037 434.083 89.4172 406.787 89.0713 352.955C88.8493 318.592 102.621 287.397 127.803 265.234C153.041 243.02 179.406 235.521 232.264 235.521C288.658 235.521 303.404 227.322 303.669 195.828C303.767 184.192 300.846 176.663 293.321 169.139L282.842 158.655H141.725H0.611328V312.601ZM550.891 166.816L540.809 174.972L538.674 337.629L536.538 500.286H624.947C684.39 500.282 717.024 498.612 724.553 495.179C747.25 484.84 747.92 479.588 747.92 312.601V158.655H654.447C568.797 158.655 560.128 159.338 550.891 166.816Z" fill="currentColor"/>
</svg>
