<svg width="1331" height="500" viewBox="0 0 1331 500" fill="none" xmlns="http://www.w3.org/2000/svg">
<path fill-rule="evenodd" clip-rule="evenodd" d="M883.714 4.38693C859.847 11.1099 849.028 16.9735 835.017 30.7869C815.708 49.8261 811.937 60.0284 811.906 93.3766C811.878 121.215 812.641 124.493 822.379 138.428C835.409 157.068 869.284 174.992 909.022 184.272C924.208 187.817 944.821 193.754 954.825 197.458C970.867 203.405 973.019 205.356 973.019 213.954C973.019 227.428 954.475 236.445 933.811 233.024C914.293 229.791 908.218 226.166 901.925 213.995L896.602 203.703H849.451H802.303L804.4 216.698C813.14 270.877 863.223 304.201 935.907 304.201C1006.78 304.201 1051.08 279.895 1064.95 233.395C1071.38 211.85 1071.35 202.424 1064.81 180.377C1058.97 160.724 1042.02 141.38 1021.45 130.88C1014.39 127.283 989.452 119.499 966.029 113.587C942.606 107.672 919.003 100.54 913.576 97.7326C893.362 87.2773 906.721 68.55 934.393 68.55C947.368 68.55 951.401 70.3798 961.115 80.6791L972.555 92.8082H1016.11H1059.66V82.7653C1059.66 69.8322 1042.03 36.3178 1029.51 25.4293C1024.17 20.7856 1011.23 13.6017 1000.74 9.46392C975.57 -0.471554 910.928 -3.27521 883.714 4.38693ZM554.565 5.30533C553.133 5.7801 552.388 71.6654 552.905 151.721L553.847 297.27H671.597C736.363 297.27 790.517 297.277 791.949 297.284C793.38 297.295 794.991 280.92 795.532 260.897L796.516 224.496H721.891H647.266V203.703V182.91H707.672H768.082L769.184 149.683C769.794 131.41 769.641 115.815 768.844 115.029C768.051 114.246 740.372 113.601 707.332 113.601H647.266V94.4058V75.2071L718.107 76.2121L788.944 77.2137L790.015 41.6857C790.601 22.144 790.303 6.14053 789.35 6.11628C758.413 5.39893 556.384 4.69887 554.565 5.30533ZM1.89616 152.321L2.83185 299.003L48.6799 298.355L94.5245 297.707L96.2572 248.106L97.99 198.505L118.783 197.396C144.465 196.027 162.288 201.021 168.765 211.396C171.583 215.905 174.247 231.205 174.972 247.021C175.672 262.269 177.034 279.811 177.994 286.008L179.744 297.27H229.924H280.103L274.819 287.047C271.37 280.38 269.53 267.169 269.53 249.097C269.53 197.424 260.943 176.565 234.928 165.049L225.318 160.797L236.161 155.034C242.125 151.863 251.593 142.801 257.197 134.893C266.446 121.845 267.403 117.87 267.538 91.9349C267.662 68.0682 266.332 60.971 259.48 48.932C250.061 32.3809 237.385 22.0573 216.554 13.962C204.567 9.30442 183.972 8.05343 101.455 6.96181L0.957031 5.63455L1.89616 152.321ZM292.995 151.721L293.938 297.27H415.152H536.371V260.883V224.496H461.863H387.356V203.547V182.602L447.794 183.621L508.231 184.643L509.306 150.55C509.898 131.802 509.732 115.815 508.935 115.029C508.141 114.246 480.338 113.601 447.149 113.601H386.805L387.959 95.4073L389.116 77.2137L460.145 75.4809L531.173 73.7482V39.9564V6.16133L411.614 6.16471L292.056 6.1682L292.995 151.721ZM1083.12 152.587L1084.06 299.003L1206.14 298.061L1328.23 297.118L1327.14 260.807L1326.05 224.496H1251.77H1177.48V203.703V182.91H1237.55C1270.59 182.91 1298.27 182.266 1299.06 181.482C1299.86 180.696 1300.01 165.101 1299.4 146.828L1298.3 113.601H1237.89H1177.48V94.541V75.4809H1248.52H1319.57V40.8263V6.17169H1200.87L1082.18 6.1682L1083.12 152.587ZM163.196 82.9316C173.488 88.3482 175.848 92.6004 175.911 105.856C175.994 123.53 160.982 130.901 124.847 130.914L96.2572 130.928V104.937V78.9464H125.942C142.268 78.9464 159.031 80.738 163.196 82.9316ZM2.68976 414.219V500L666.388 499.116L1330.09 498.233L1329.16 414.212L1328.23 330.192L665.459 329.316L2.68976 328.442V414.219Z" fill="currentColor"/>
</svg>
