<svg viewBox="0 0 100 100" fill="none" xmlns="http://www.w3.org/2000/svg">
<path d="M78.9062 51.562C83.6337 51.562 87.5 55.428 87.5 60.1557C87.5 64.8833 83.6337 68.7498 78.9062 68.7498C74.1784 68.7498 70.3125 64.8833 70.3125 60.1557C70.3125 55.428 74.1784 51.562 78.9062 51.562ZM78.9062 54.6871C75.8672 54.6871 73.4375 57.117 73.4375 60.1557C73.4375 63.1945 75.8672 65.6247 78.9062 65.6247C81.945 65.6247 84.375 63.1945 84.375 60.1557C84.375 57.117 81.945 54.6871 78.9062 54.6871Z" fill="currentColor"/>
<path d="M24.2188 51.562C28.9463 51.562 32.8125 55.428 32.8125 60.1557C32.8125 64.8833 28.9463 68.7498 24.2188 68.7498C19.4909 68.7498 15.625 64.8833 15.625 60.1557C15.625 55.428 19.4909 51.562 24.2188 51.562ZM24.2188 54.6871C21.1797 54.6871 18.75 57.117 18.75 60.1557C18.75 63.1945 21.1797 65.6247 24.2188 65.6247C27.2575 65.6247 29.6875 63.1945 29.6875 60.1557C29.6875 57.117 27.2575 54.6871 24.2188 54.6871Z" fill="currentColor"/>
<path fill-rule="evenodd" clip-rule="evenodd" d="M65.625 37.5V45.3126H62.5V37.5H65.625Z" fill="currentColor"/>
<path fill-rule="evenodd" clip-rule="evenodd" d="M50 34.3745V45.1597L53.0944 60.6318L50.0303 61.2424L46.875 45.465V34.3749L50 34.3745Z" fill="currentColor"/>
<path fill-rule="evenodd" clip-rule="evenodd" d="M55.0841 32.812C58.211 32.812 61.2525 33.8526 63.7206 35.772L72.8941 42.9135C73.6269 43.4839 74.5135 43.8241 75.4394 43.8903L86.7125 44.6955C92.4216 45.103 96.875 49.8791 96.875 55.6029V57.8124C96.875 60.3827 94.7578 62.4996 92.1875 62.4996H85.9375V59.3749H92.1875C93.0688 59.3749 93.75 58.6934 93.75 57.8124V55.6029C93.75 51.4891 90.596 48.1076 86.4928 47.8148L75.2197 47.0092C73.6766 46.9029 72.1988 46.329 70.9778 45.3796L61.7981 38.2446C59.8778 36.751 57.5166 35.9371 55.0841 35.9371H34.375V45.1226L38.2322 60.5586L35.1988 61.3159L31.2925 45.6907C31.2626 45.5669 31.2479 45.4402 31.2488 45.3129V34.3753C31.2489 33.9609 31.4135 33.5635 31.7065 33.2705C31.9995 32.9775 32.3969 32.8128 32.8113 32.8127L55.0841 32.812Z" fill="currentColor"/>
<path fill-rule="evenodd" clip-rule="evenodd" d="M74.2188 43.75V46.875H6.25V54.6873H3.125V45.3125C3.12505 44.8981 3.28968 44.5008 3.5827 44.2078C3.87571 43.9148 4.27312 43.75 4.6875 43.75H74.2188Z" fill="currentColor"/>
<path fill-rule="evenodd" clip-rule="evenodd" d="M71.875 59.375V62.5H31.25V59.375H71.875Z" fill="currentColor"/>
<path fill-rule="evenodd" clip-rule="evenodd" d="M18.75 53.9062V57.0313H4.6875V57.812C4.6875 58.6931 5.36844 59.3745 6.25 59.3745H17.1875V62.4992H6.25C3.67969 62.4992 1.5625 60.3823 1.5625 57.812V57.0313C1.5625 55.3238 2.98 53.9062 4.6875 53.9062H18.75Z" fill="currentColor"/>
<path fill-rule="evenodd" clip-rule="evenodd" d="M95.3125 53.9062V57.0313H84.375V53.9062H95.3125Z" fill="currentColor"/>
<path fill-rule="evenodd" clip-rule="evenodd" d="M71.8506 48.4377C72.0578 48.4346 72.2635 48.4726 72.4558 48.5498C72.6481 48.6269 72.8231 48.7414 72.9707 48.8868C73.1183 49.0322 73.2355 49.2053 73.3155 49.3965C73.3955 49.5876 73.4367 49.793 73.4367 50.0002C73.4367 50.2074 73.3955 50.4125 73.3155 50.6036C73.2355 50.7947 73.1183 50.9679 72.9707 51.1133C72.8231 51.2586 72.6481 51.3731 72.4558 51.4503C72.2635 51.5274 72.0578 51.5655 71.8506 51.5624H70.3306C70.1235 51.5655 69.9177 51.5274 69.7255 51.4503C69.5332 51.3731 69.3581 51.2586 69.2105 51.1133C69.0629 50.9679 68.9457 50.7947 68.8657 50.6036C68.7857 50.4125 68.7445 50.2074 68.7445 50.0002C68.7445 49.793 68.7857 49.5876 68.8657 49.3965C68.9457 49.2053 69.0629 49.0322 69.2105 48.8868C69.3581 48.7414 69.5332 48.6269 69.7255 48.5498C69.9177 48.4726 70.1235 48.4346 70.3306 48.4377H71.8506Z" fill="currentColor"/>
<path fill-rule="evenodd" clip-rule="evenodd" d="M56.2256 48.4377C56.4328 48.4346 56.6385 48.4726 56.8308 48.5498C57.0231 48.6269 57.1981 48.7414 57.3457 48.8868C57.4933 49.0322 57.6105 49.2053 57.6905 49.3965C57.7705 49.5876 57.8117 49.793 57.8117 50.0002C57.8117 50.2074 57.7705 50.4125 57.6905 50.6036C57.6105 50.7947 57.4933 50.9679 57.3457 51.1133C57.1981 51.2586 57.0231 51.3731 56.8308 51.4503C56.6385 51.5274 56.4328 51.5655 56.2256 51.5624H54.7056C54.4985 51.5655 54.2927 51.5274 54.1005 51.4503C53.9082 51.3731 53.7331 51.2586 53.5855 51.1133C53.4379 50.9679 53.3207 50.7947 53.2407 50.6036C53.1607 50.4125 53.1195 50.2074 53.1195 50.0002C53.1195 49.793 53.1607 49.5876 53.2407 49.3965C53.3207 49.2053 53.4379 49.0322 53.5855 48.8868C53.7331 48.7414 53.9082 48.6269 54.1005 48.5498C54.2927 48.4726 54.4985 48.4346 54.7056 48.4377H56.2256Z" fill="currentColor"/>
<path fill-rule="evenodd" clip-rule="evenodd" d="M56.2256 48.4377C56.4328 48.4346 56.6385 48.4726 56.8308 48.5498C57.0231 48.6269 57.1981 48.7414 57.3457 48.8868C57.4933 49.0322 57.6105 49.2053 57.6905 49.3965C57.7705 49.5876 57.8117 49.793 57.8117 50.0002C57.8117 50.2074 57.7705 50.4125 57.6905 50.6036C57.6105 50.7947 57.4933 50.9679 57.3457 51.1133C57.1981 51.2586 57.0231 51.3731 56.8308 51.4503C56.6385 51.5274 56.4328 51.5655 56.2256 51.5624H54.7056C54.4985 51.5655 54.2927 51.5274 54.1005 51.4503C53.9082 51.3731 53.7331 51.2586 53.5855 51.1133C53.4379 50.9679 53.3207 50.7947 53.2407 50.6036C53.1607 50.4125 53.1195 50.2074 53.1195 50.0002C53.1195 49.793 53.1607 49.5876 53.2407 49.3965C53.3207 49.2053 53.4379 49.0322 53.5855 48.8868C53.7331 48.7414 53.9082 48.6269 54.1005 48.5498C54.2927 48.4726 54.4985 48.4346 54.7056 48.4377H56.2256Z" fill="currentColor"/>
<path d="M77.3425 60.1564C77.3425 60.5708 77.5072 60.9685 77.8002 61.2615C78.0932 61.5545 78.4906 61.7189 78.905 61.7189C79.3194 61.7189 79.7169 61.5545 80.0099 61.2615C80.3029 60.9685 80.4675 60.5708 80.4675 60.1564C80.4675 59.742 80.3029 59.3447 80.0099 59.0516C79.7169 58.7586 79.3194 58.5942 78.905 58.5942C78.4906 58.5942 78.0932 58.7586 77.8002 59.0516C77.5072 59.3447 77.3425 59.742 77.3425 60.1564Z" fill="currentColor"/>
<path d="M22.655 60.1564C22.655 60.5708 22.8197 60.9685 23.1127 61.2615C23.4057 61.5545 23.8031 61.7189 24.2175 61.7189C24.6319 61.7189 25.0294 61.5545 25.3224 61.2615C25.6154 60.9685 25.78 60.5708 25.78 60.1564C25.78 59.742 25.6154 59.3447 25.3224 59.0516C25.0294 58.7586 24.6319 58.5942 24.2175 58.5942C23.8031 58.5942 23.4057 58.7586 23.1127 59.0516C22.8197 59.3447 22.655 59.742 22.655 60.1564V60.1564Z" fill="currentColor"/>
</svg>
