<svg width="55" height="50" viewBox="0 0 55 50" fill="none" xmlns="http://www.w3.org/2000/svg">
<path d="M27.0895 44.3438H27.2517V49.9524H27.0895V44.3438Z" fill="currentColor"/>
<path d="M27.2044 49.7988L27.0552 49.7967C19.9237 49.4355 13.2076 46.5846 8.13969 41.7654C2.98526 36.8619 0.162536 30.4659 0.197144 23.7541C0.253382 12.1972 6.8592 3.83284 18.8033 0.201159C19.2164 0.246582 19.7053 0.378526 20.1098 0.549403L20.1552 0.56887L19.967 0.629434C17.1746 1.48815 14.6027 2.69727 12.3294 4.2157L12.3056 4.18541C12.8897 3.62952 13.2941 3.10824 13.6878 2.41175L13.5494 2.49827L13.4564 2.54802L12.7426 2.93087C11.9769 3.33752 11.3691 3.65764 10.7764 4.18541C10.002 4.87541 9.62784 5.66058 9.2969 6.35274L9.08709 6.77886C8.43603 7.38882 7.81741 8.0334 7.24854 8.69744C6.66628 9.37645 6.12666 10.0909 5.63277 10.8367L5.59817 10.8172C6.08052 9.70756 6.28384 8.78829 6.47634 7.79547L6.31628 7.98581L6.20813 8.09612L6.18001 8.11992L6.17352 8.12857L5.98102 8.31891C5.16773 9.12571 4.52532 9.7638 4.05378 11.2022C3.88533 11.7187 3.80418 12.2596 3.81369 12.8028C3.81369 12.9824 3.81801 13.1554 3.8245 13.3284C3.82883 13.4885 3.83315 13.6421 3.83315 13.7956C3.83315 13.9297 3.83099 14.0617 3.82018 14.1936C2.94849 16.2312 2.39476 18.4115 2.18062 20.674H2.14385C2.01839 19.5925 1.77614 18.8679 1.562 18.2276C1.45136 17.8976 1.35037 17.5643 1.25918 17.2283L1.15752 17.6004C0.876328 18.6213 0.718428 19.3827 0.718428 20.2046C0.718428 20.6502 0.763851 21.1131 0.865513 21.6473C1.06235 22.6942 1.51874 23.553 1.88429 24.2451L2.1525 24.7664C2.36015 27.3728 3.00905 29.8884 4.07541 32.2461L4.04297 32.2634L3.73149 31.8005C3.10855 30.905 2.64134 30.4875 2.18927 30.0809C1.89943 29.8213 1.62473 29.5769 1.33056 29.2222L1.30244 29.1876L1.2873 29.1703L1.17482 29.0275C1.12396 28.954 1.07772 28.8775 1.03639 28.7982C1.23322 30.5524 1.64419 31.5799 2.69325 32.949C3.41137 33.8878 4.33713 34.3983 5.01415 34.7703L5.17854 34.8611C5.35591 34.9563 5.52462 35.0472 5.64575 35.1358C6.75466 36.8617 8.07495 38.4421 9.57593 39.8404L9.5543 39.8707L8.97678 39.5267C8.2785 39.1243 7.53011 38.816 6.75105 38.6096C6.36603 38.4971 6.00048 38.3912 5.5787 38.2008L5.15475 37.9975C6.09998 39.5267 6.91976 40.2557 8.49659 40.9716C9.47427 41.415 10.3373 41.5145 11.0295 41.5946L11.1679 41.6097C11.4188 41.6378 11.6546 41.6616 11.8146 41.7179C13.4573 42.9497 15.2292 43.9991 17.0989 44.8477L17.088 44.8823C16.5434 44.7161 15.9855 44.5974 15.4204 44.5276C14.7626 44.4389 14.0964 44.4317 13.4369 44.506C12.9549 44.567 12.467 44.5648 11.9855 44.4995L11.8255 44.48C13.2682 45.4426 14.4146 45.9054 15.76 46.0633C16.9842 46.2061 17.8018 46.0785 18.4615 45.9768L18.6476 45.9465C18.9807 45.8925 19.2965 45.8427 19.6274 45.8557C20.9663 46.3186 22.3333 46.6798 23.6939 46.9307L23.6917 46.9675C23.4342 46.9634 23.1767 46.967 22.9195 46.9783C21.6671 47.0324 20.9468 47.266 20.1855 47.5104C19.8637 47.6182 19.5383 47.7148 19.2099 47.8002L18.905 47.8694L18.8141 47.8867H18.8184L18.6108 47.9322C20.251 48.5131 22.006 48.6955 23.7306 48.4643C24.8792 48.3064 25.6362 47.9711 26.3046 47.6769C26.5707 47.5601 26.8086 47.4563 27.0508 47.3698L27.2066 47.3611L27.2022 47.147H27.0573C25.6283 47.0683 24.2082 46.8722 22.8113 46.5608C22.4999 46.2364 22.2684 45.94 22.0435 45.6567C21.6368 45.1419 21.2151 44.6076 20.3174 43.8809C19.8221 43.4807 18.7016 42.8837 16.8934 42.0553L16.6684 41.9471C17.101 42.6285 18.1436 43.9436 19.0001 44.666C19.7637 45.3084 20.3325 45.7194 20.9014 46.0352L20.8841 46.072C18.5739 45.3863 16.36 44.4102 14.2956 43.1671C14.0784 42.7431 13.8715 42.314 13.6748 41.8801C13.3635 41.1714 13.0081 40.4829 12.6106 39.8187C12.0807 38.9622 10.7223 37.7185 10.1621 37.2231L10.0237 37.0934L10.1967 37.6774C10.4433 38.5447 10.7829 39.7344 11.2804 40.5023C11.6048 41.0019 11.8968 41.3934 12.1997 41.733L12.1737 41.7611C11.5008 41.268 10.8505 40.7448 10.2248 40.1929C9.28392 39.3602 8.40791 38.4604 7.61192 37.5108L7.44104 36.2368C7.34587 35.4646 7.25719 34.7357 7.06468 33.8791C6.83973 32.882 5.97885 31.29 5.6198 30.6498L5.5376 30.4789L5.51381 31.0002C5.49218 31.4501 5.46622 32.0168 5.46622 32.577C5.46622 33.1221 5.49002 33.6628 5.57005 34.0825C5.63061 34.4047 5.70632 34.7032 5.80365 34.9909L5.76904 35.0061C4.60193 33.1881 3.70775 31.2088 3.11504 29.1313L3.18642 28.8091L3.4503 27.7838C3.6666 26.9856 3.87209 26.2286 3.94347 25.3526C3.96077 25.1276 3.97159 24.8745 3.97159 24.6063C3.97159 23.7822 3.88723 22.7916 3.73149 21.8182L3.70986 21.6798L3.62551 21.8723C3.29889 22.6531 2.68892 24.1088 2.52454 25.0606C2.49187 25.2484 2.46662 25.4374 2.44883 25.6273H2.41855C2.1384 23.3341 2.21062 21.0116 2.63269 18.7403C2.85705 18.2967 3.14246 17.8868 3.48058 17.5225C3.78989 17.1656 4.14246 16.7633 4.66807 15.9413C5.20666 15.1021 5.68901 14.0509 6.14324 12.7336C6.06658 12.8076 5.99087 12.8826 5.91613 12.9586C5.76472 13.1035 5.58951 13.2484 5.40782 13.3998C4.9471 13.7827 4.37174 14.2564 3.80287 15.0415L3.5909 15.353L3.55845 15.3379C4.25104 13.4365 5.21569 11.6457 6.42227 10.0212C6.89164 9.70324 7.19446 9.52587 7.53838 9.37013C8.03803 9.14518 8.55499 8.91158 9.33367 8.31026C10.1313 7.67707 10.8606 6.96228 11.5097 6.17754L11.3128 6.27271C11.0213 6.39425 10.723 6.49896 10.4195 6.58635C9.95878 6.73127 9.55862 6.8524 8.88593 7.26769L8.86214 7.23957L8.89891 7.20497C8.89891 7.20497 8.94866 7.15522 8.95515 7.16387L9.45264 6.68368C10.6036 5.6403 11.8475 4.70416 13.1687 3.88692L14.1031 3.65548C14.8731 3.46513 15.5999 3.2856 16.5408 2.90924C17.5963 2.48745 18.083 2.24087 18.4767 2.04404L18.5502 2.00727C18.8704 1.84721 19.3916 1.58332 19.8567 1.40595H19.5755H19.5128C18.9396 1.4146 18.3988 1.49247 17.6461 1.67849V1.67633L17.6374 1.67849V1.66551L17.6223 1.64388C18.3988 1.33241 19.2056 1.04906 20.0189 0.798149L20.0405 0.793823L20.3888 0.689998L20.3953 0.687835L20.4039 0.692161C20.683 0.841409 20.9317 1.01878 21.1242 1.20696L21.1458 1.22859L21.1156 1.23724C15.9763 3.05849 12.1867 5.49836 9.18875 8.91807C5.96371 12.5973 4.20086 17.0488 4.09271 21.7858C3.95861 27.6908 6.34656 33.2908 10.8153 37.5541C15.0678 41.6119 20.8365 44.1556 27.0573 44.7158H27.2001V44.2053C21.0593 43.6732 15.3685 41.1771 11.1744 37.1777C6.81161 33.0161 4.48205 27.5545 4.614 21.7988C4.71999 17.1851 6.43741 12.8482 9.58025 9.26198C12.496 5.93528 16.1688 3.51272 21.6563 1.5963L21.6541 1.58981C21.6276 1.53399 21.5965 1.48046 21.5611 1.42975L21.5546 1.41893C21.4765 1.30443 21.389 1.19662 21.2929 1.09664C21.023 0.833516 20.7117 0.616491 20.3715 0.454231C19.9595 0.258154 19.523 0.118466 19.0737 0.0389341L18.8963 0.010815L18.7817 0C12.9783 1.76285 8.51389 4.58773 5.34726 8.32973C1.83021 12.487 0.030593 17.6761 0.000310964 23.7541C-0.0342971 30.5351 2.82087 36.996 8.03803 41.9406C13.1622 46.7966 19.9475 49.6582 27.146 50H27.1936L27.2044 49.7988ZM2.12871 24.7188L2.07679 24.5587L2.12654 24.6864C2.1285 24.6971 2.12922 24.708 2.12871 24.7188ZM26.2202 47.5017C25.5649 47.7916 24.8229 48.1182 23.7025 48.2718C22.2921 48.4661 20.8568 48.3704 19.4847 47.9906C21.7383 47.9787 23.9885 47.8154 26.2202 47.5017ZM18.8422 43.7554C19.9713 44.6812 21.1415 45.6242 22.3787 46.4375C21.1718 46.0958 20.2395 45.4577 19.1234 44.5168C18.4962 43.9869 17.8062 43.1736 17.3216 42.5355C17.8213 42.927 18.321 43.3293 18.8422 43.7554ZM18.7427 45.7367L18.4334 45.7821C17.5596 45.9441 16.6663 45.9733 15.7837 45.8687C14.6936 45.741 13.7981 45.4317 12.6885 44.785C14.6785 45.3084 15.8162 45.4209 17.0123 45.5377C17.5488 45.5896 18.1003 45.6437 18.7427 45.7367ZM10.545 38.0537C11.395 39.4662 12.6106 41.4886 13.7375 42.7864C12.7599 42.1332 12.1564 41.4886 11.4469 40.3984C11.0208 39.7409 10.7115 38.7502 10.4757 37.9369L10.545 38.0537ZM10.8759 41.3761C10.2292 41.2982 9.44831 41.1858 8.57878 40.7899C7.30261 40.2102 6.52826 39.6111 5.78851 38.5858C7.00195 39.4813 9.23417 40.7012 10.8759 41.3761ZM4.90817 34.4891C4.27224 34.1344 3.4741 33.6477 2.84899 32.8301C2.00325 31.7248 1.61824 30.9288 1.37814 29.698C2.24767 31.3982 3.68391 33.2584 4.90817 34.4891ZM5.69117 31.4847C6.02644 33.1005 6.53907 35.3413 7.23123 37.0068C6.50879 36.1308 6.01346 35.3716 5.76472 34.0478C5.68954 33.5722 5.65624 33.0909 5.66522 32.6095C5.66522 32.2244 5.6782 31.8373 5.69117 31.4847ZM3.45463 23.1852C3.24482 24.5523 2.99175 26.2091 2.99175 28.3137L2.99391 28.4435C2.78626 27.7081 2.6262 27.0008 2.6262 26.194C2.6262 25.8479 2.65648 25.4845 2.72353 25.0908C2.84682 24.3835 3.22319 23.3799 3.54115 22.5991L3.45463 23.1852ZM2.08545 24.2019C1.64203 22.5601 1.3284 19.7417 1.30244 18.0654L1.37598 18.2904C1.62473 19.0344 1.90592 19.8802 1.99893 21.2645C2.03786 21.8334 2.04435 22.3071 2.05084 22.7591C2.05034 23.2403 2.06188 23.7213 2.08545 24.2019ZM5.59817 13.6291C5.24127 14.5289 4.906 15.2059 4.50152 15.8354C3.9824 16.6443 3.63632 17.0423 3.33134 17.3927C3.22319 17.5182 3.11504 17.6436 3.00472 17.7799C3.69256 16.2896 4.44745 15.234 5.18287 14.2153L5.59817 13.6291ZM4.123 13.363C4.5556 11.6045 5.21531 9.99741 6.12378 8.49628C5.8967 9.63834 5.49315 10.7381 4.92763 11.7559C4.53829 12.4935 4.31118 12.9477 4.123 13.363ZM10.6228 6.87619C10.1814 7.33371 9.70953 7.7608 9.21038 8.15453C8.45333 8.74286 7.94719 8.96998 7.45619 9.19277C7.32641 9.25117 7.19446 9.31173 7.06036 9.37662C8.25866 8.33406 9.48076 7.57917 10.3351 7.05356L10.6228 6.87619ZM11.0533 5.02466C10.4238 5.55459 10.002 5.91798 9.62784 6.25541C10.6509 4.94895 11.8211 4.03184 12.6474 3.38943L12.9956 3.11689C12.509 3.77877 11.9682 4.2503 11.0533 5.02466ZM18.5848 1.7715L18.3858 1.86884C17.7622 2.18711 17.1225 2.47301 16.4694 2.72539C15.8726 2.96356 15.2606 3.16156 14.6374 3.31805C14.8991 3.20341 15.1565 3.08877 15.4074 2.97413C16.4889 2.48529 17.4558 2.05053 18.5848 1.7715Z" fill="currentColor"/>
<path d="M27.189 50H27.2366C34.4351 49.6604 41.2204 46.7988 46.3446 41.9406C51.5617 36.9939 54.4147 30.5351 54.3823 23.7541C54.352 17.6761 52.5524 12.487 49.0353 8.32973C45.8687 4.58773 41.4064 1.76501 35.6031 0L35.4884 0.010815L35.3089 0.0389341C34.8806 0.114639 34.4005 0.263887 34.0133 0.452068C33.6734 0.614899 33.3622 0.831862 33.0918 1.09448C32.995 1.19434 32.9068 1.30215 32.828 1.41677L32.8215 1.42758C32.7861 1.47903 32.755 1.53329 32.7285 1.58981L32.7263 1.5963C38.2138 3.51272 41.8866 5.93745 44.8023 9.26198C47.9474 12.8482 49.6648 17.1851 49.7686 21.7988C49.9005 27.5545 47.5688 33.0161 43.2082 37.1777C39.0163 41.1771 33.3254 43.6732 27.1847 44.2053L27.1825 44.7158H27.3253C33.5461 44.1556 39.3148 41.6119 43.5673 37.5541C48.036 33.2908 50.424 27.6908 50.2877 21.7879C50.1796 17.051 48.4167 12.5995 45.1938 8.92023C42.1959 5.50052 38.4063 3.06065 33.267 1.2394L33.2389 1.23075L33.2606 1.20912C33.4531 1.02094 33.7018 0.843572 33.9808 0.694324L33.9873 0.689998L33.9938 0.692161L34.3421 0.795986L34.3615 0.800312C35.1748 1.05122 35.9838 1.33674 36.7581 1.64605L36.7452 1.66768V1.68065L36.7365 1.67849C36.1273 1.51436 35.5006 1.42576 34.8698 1.41028H34.8071H34.5259C34.9888 1.58765 35.5122 1.84937 35.8345 2.01159L35.9059 2.04836C36.2974 2.2452 36.7841 2.49178 37.8418 2.91357C38.7849 3.28993 39.5116 3.46946 40.2795 3.6598L41.2118 3.88908C42.5528 4.71968 43.8009 5.66058 44.9278 6.68585L45.4253 7.16603C45.4318 7.15738 45.4837 7.20713 45.4837 7.20713L45.5183 7.24174L45.4967 7.26769C44.824 6.8524 44.4238 6.72911 43.9631 6.58635C43.6992 6.50415 43.4245 6.4198 43.0698 6.27271L42.8751 6.17754C43.5219 6.96437 44.2514 7.67939 45.0511 8.31026C45.8276 8.91158 46.3467 9.14518 46.8464 9.37013C47.1903 9.52587 47.4931 9.70107 47.9625 10.0212C49.1683 11.6462 50.1328 13.4369 50.8263 15.3379L50.7917 15.353L50.5797 15.0394C50.0109 14.2542 49.4377 13.7805 48.9769 13.3976C48.8015 13.2568 48.6312 13.1096 48.4665 12.9564L48.2415 12.7314C48.6958 14.0487 49.1803 15.1021 49.7167 15.9392C50.2423 16.759 50.5949 17.1634 50.9042 17.5182C51.1962 17.8556 51.4493 18.1454 51.7542 18.7359C52.1718 21.0092 52.2433 23.3326 51.9662 25.6273H51.9273C51.9092 25.4376 51.8846 25.2486 51.8537 25.0606C51.6893 24.1088 51.0794 22.6531 50.7528 21.8723L50.6684 21.6798L50.6468 21.8182C50.4889 22.7916 50.4067 23.7822 50.4067 24.6063C50.4067 24.8767 50.4153 25.1276 50.4326 25.3526C50.504 26.2286 50.7073 26.9856 50.9258 27.7838L51.1919 28.8091L51.2632 29.1313C50.6705 31.2088 49.7763 33.1881 48.6092 35.0061L48.5746 34.9909C48.672 34.7032 48.7498 34.4047 48.8104 34.0825C48.8892 33.5847 48.924 33.0809 48.9142 32.577C48.9142 32.0168 48.8883 31.4501 48.8688 31.0002L48.845 30.4789L48.7606 30.6498C48.3994 31.29 47.5407 32.882 47.3158 33.8791C47.1232 34.7357 47.0324 35.4646 46.9372 36.2368L46.7664 37.5108C45.9635 38.4688 45.0901 39.3653 44.1534 40.1929C43.5435 40.7337 42.8881 41.2615 42.2067 41.7611L42.1808 41.733C42.4836 41.3934 42.7756 41.0041 43.1001 40.5023C43.5976 39.7366 43.9371 38.5469 44.1837 37.6774L44.3568 37.0934L44.2183 37.2231C43.6581 37.7185 42.2998 38.9622 41.7698 39.8187C41.3329 40.5239 41.0279 41.1814 40.7056 41.8801C40.5131 42.2954 40.3141 42.7258 40.0848 43.1671C38.0209 44.4097 35.8078 45.3858 33.4985 46.072L33.4833 46.0352C34.0522 45.7194 34.6211 45.3106 35.3846 44.666C36.2412 43.9436 37.2837 42.6285 37.7163 41.9471L37.4914 42.0553C35.6831 42.8837 34.5627 43.4807 34.0674 43.8809C33.1675 44.6055 32.7479 45.1419 32.3391 45.6567C32.1142 45.9422 31.8827 46.2385 31.5712 46.5608C30.1502 46.8766 28.7247 47.0713 27.3253 47.147H27.1804L27.176 47.3611L27.3318 47.3698C27.574 47.4563 27.8141 47.5601 28.078 47.6769C28.7442 47.9733 29.5013 48.3064 30.6498 48.4643C32.3752 48.6955 34.1308 48.5132 35.7718 47.9322L35.562 47.8867H35.5663L35.4755 47.8694L35.1705 47.7981C34.8419 47.7133 34.5165 47.6166 34.195 47.5082C33.4314 47.2638 32.7133 47.0302 31.4609 46.9761C31.2037 46.9648 30.9462 46.9612 30.6887 46.9653L30.6844 46.9285C32.0656 46.6724 33.4256 46.3131 34.753 45.8535C35.0818 45.8405 35.3976 45.8925 35.7329 45.9444L35.9189 45.9747C36.5786 46.0763 37.3962 46.2039 38.6205 46.0612C39.968 45.9033 41.1144 45.4404 42.5571 44.4779L42.3949 44.4973C41.7482 44.5817 41.3567 44.5427 40.9435 44.5038C40.2847 44.4295 39.6193 44.4368 38.9622 44.5254C38.3973 44.5965 37.8395 44.7152 37.2946 44.8802L37.2816 44.8456C39.1513 43.9957 40.9237 42.9463 42.568 41.7157C42.728 41.6616 42.9638 41.6357 43.2125 41.6075L43.3531 41.5924C44.0453 41.5124 44.9062 41.4129 45.8838 40.9695C47.4607 40.2535 48.2805 39.5246 49.2257 37.9953L48.8017 38.1987C48.4221 38.3651 48.0302 38.5017 47.6294 38.6075C47.0086 38.7892 46.3684 38.9752 45.4037 39.5246L44.8261 39.8685L44.8045 39.8382C46.3049 38.4394 47.6251 36.859 48.7347 35.1337C48.8852 35.0323 49.042 34.9406 49.2041 34.859L49.3684 34.7681C50.0433 34.3961 50.9712 33.8856 51.6893 32.9469C52.7362 31.5777 53.1472 30.5481 53.3484 28.7896C53.307 28.8688 53.2608 28.9454 53.2099 29.0189L53.0975 29.1616C53.0922 29.1672 53.0871 29.1729 53.0823 29.1789L53.0542 29.2135C52.7579 29.5704 52.4832 29.8148 52.1955 30.0722C51.7434 30.4789 51.2741 30.8964 50.6533 31.7918L50.3396 32.2547L50.3072 32.2374C51.3757 29.8797 52.0203 27.3642 52.2301 24.7577C52.2301 24.7513 52.4983 24.2365 52.4983 24.2365C52.8639 23.5465 53.3203 22.6856 53.5171 21.6387C53.6166 21.1066 53.6642 20.6437 53.6642 20.196C53.6642 19.374 53.5041 18.6127 53.2251 17.5917L53.1256 17.2197C53.033 17.5555 52.9313 17.8887 52.8206 18.219C52.5343 19.0097 52.3391 19.8304 52.2387 20.6653H52.202C51.9945 18.4333 51.4414 16.2471 50.5624 14.185C50.5537 14.0554 50.5493 13.9255 50.5494 13.7956C50.5494 13.6421 50.5538 13.4885 50.5603 13.3306C50.5646 13.1576 50.5711 12.9845 50.5711 12.805C50.5711 12.3205 50.53 11.8035 50.3331 11.2022C49.8594 9.7638 49.217 9.12788 48.4037 8.31891L48.2134 8.13073L48.2047 8.12208L48.1766 8.09612L48.0685 7.98581L47.9084 7.79547C48.1009 8.78829 48.3042 9.70973 48.7866 10.8172L48.752 10.8367C48.2574 10.0914 47.7178 9.37699 47.1362 8.69744C46.5586 8.02437 45.9441 7.38386 45.2955 6.77886L45.0857 6.35274C44.7548 5.66058 44.3806 4.87541 43.604 4.18541C43.0114 3.65764 42.4057 3.33535 41.6379 2.93087L40.9262 2.54802L40.8332 2.49827L40.6948 2.41175C41.0885 3.10824 41.4929 3.62952 42.077 4.18541L42.0532 4.2157C39.6936 2.65679 37.1202 1.44877 34.4134 0.629434L34.2274 0.571033L34.275 0.551566C34.6795 0.378526 35.1662 0.248745 35.5815 0.203322C47.5234 3.83501 54.1292 12.1993 54.1876 23.7563C54.2222 30.4681 51.3995 36.8641 46.2451 41.7676C41.1771 46.5868 34.461 49.4398 27.3296 49.7988L27.1804 49.801L27.189 50ZM52.2561 24.6864C52.2734 24.6453 52.2907 24.6042 52.3058 24.5587L52.2539 24.7188L52.2561 24.6864ZM34.898 47.9906C33.5261 48.3725 32.0905 48.4682 30.6801 48.2718C29.5597 48.1182 28.8156 47.7894 28.1602 47.5017C30.1761 47.8002 32.5835 47.9733 34.898 47.9906ZM37.061 42.5355C36.5743 43.1736 35.8864 43.9869 35.2592 44.5168C34.1431 45.4577 33.2108 46.0958 32.0038 46.4375C33.2389 45.6242 34.4091 44.6812 35.5404 43.7554C36.0616 43.3293 36.5613 42.927 37.061 42.5355ZM37.3703 45.5356C38.8316 45.4183 40.2791 45.1663 41.6941 44.7828C40.5845 45.4296 39.6912 45.7389 38.5988 45.8665C37.4027 46.0049 36.6305 45.886 35.9513 45.78L35.642 45.7346C36.2823 45.6437 36.8338 45.5896 37.3703 45.5356ZM43.9069 37.9391C43.6711 38.7524 43.3618 39.743 42.9357 40.4006C42.2262 41.4907 41.6227 42.1353 40.6451 42.7885C41.772 41.4907 42.9876 39.4662 43.8376 38.0559L43.9069 37.9391ZM48.5941 38.5858C47.8543 39.6111 47.0822 40.2102 45.8038 40.7899C44.9343 41.1858 44.1534 41.2982 43.5067 41.3761C45.1506 40.7012 47.3806 39.4813 48.5941 38.5858ZM53.0045 29.698C52.7644 30.9288 52.3772 31.7269 51.5336 32.8301C50.9085 33.6477 50.1104 34.1344 49.4744 34.4891C50.7009 33.2584 52.1371 31.3982 53.0045 29.698ZM48.7174 32.6095C48.7174 33.1329 48.6914 33.6477 48.6179 34.0478C48.3691 35.3716 47.8738 36.1308 47.1514 37.0068C47.8435 35.3413 48.3562 33.1005 48.6914 31.4847C48.7066 31.8373 48.7174 32.2244 48.7174 32.6095ZM50.8414 22.6012C51.1594 23.3821 51.5379 24.3857 51.6591 25.093C51.7261 25.4867 51.7564 25.8501 51.7564 26.1961C51.7564 27.0008 51.5963 27.7102 51.3887 28.4457L51.3909 28.3159C51.3909 26.2091 51.1378 24.5523 50.928 23.1874C50.8996 22.9919 50.8708 22.7965 50.8414 22.6012ZM52.3274 23.1939L52.3296 22.757C52.3339 22.3071 52.3447 21.8312 52.3815 21.2623C52.4724 19.878 52.7557 19.0344 53.0045 18.2882L53.078 18.0632C53.0499 19.7374 52.7384 22.558 52.295 24.1997C52.3166 23.8558 52.3253 23.5248 52.3274 23.1939ZM49.2019 14.2153C49.9352 15.2362 50.69 16.2896 51.3779 17.7799C51.2676 17.6436 51.1594 17.5182 51.0513 17.3927C50.075 16.2851 49.307 15.01 48.7844 13.6291C48.9229 13.8281 49.0635 14.0228 49.2019 14.2153ZM49.455 11.7559C48.8908 10.7382 48.4873 9.63942 48.2588 8.49844C49.1673 9.99957 49.8292 11.6045 50.2596 13.3652C50.0092 12.8201 49.7408 12.2833 49.455 11.7559ZM44.0475 7.05356C44.904 7.57917 46.1239 8.33406 47.3222 9.37662C47.1914 9.31302 47.0594 9.25173 46.9264 9.19277C46.2976 8.92807 45.7076 8.57955 45.1722 8.15669C44.6738 7.76296 44.2026 7.33587 43.7619 6.87835L44.0475 7.05356ZM41.387 3.11689L41.7374 3.38943C42.5636 4.02968 43.7317 4.94895 44.7569 6.25541C44.2888 5.83707 43.8136 5.42676 43.3315 5.02466C42.4144 4.2503 41.8736 3.77877 41.387 3.11689ZM38.9752 2.97413C39.2261 3.08877 39.4835 3.20341 39.7452 3.31805C39.1227 3.16153 38.5114 2.96353 37.9153 2.72539C36.8684 2.30793 36.3839 2.06351 35.9968 1.86884C35.9318 1.83509 35.8662 1.80263 35.7999 1.7715C36.9268 2.05053 37.8959 2.48529 38.9752 2.97413Z" fill="currentColor"/>
<path d="M45.5334 13.5512C45.4534 13.5404 37.2902 12.4134 27.1609 11.4033C17.0337 12.4134 8.87265 13.5404 8.79262 13.5512L8.23889 13.6291L11.5072 19.2247C11.5331 19.9775 11.7235 25.0627 12.2578 29.4774C12.5627 31.9994 13.1121 33.3297 16.8217 34.6426C20.183 35.8301 21.5868 36.2195 22.9452 36.5958C23.5075 36.7516 23.8926 36.8749 24.2646 36.9938C24.9351 37.208 25.5667 37.4091 27.0787 37.7487L27.1673 37.766L27.2474 37.7487C28.7615 37.4091 29.3931 37.208 30.0636 36.9938C30.4356 36.8749 30.8207 36.7537 31.383 36.5958C32.7392 36.2195 34.143 35.8301 37.5065 34.6426C41.2182 33.3319 41.7676 31.9994 42.0726 29.4774C42.6047 25.0627 42.7972 19.9775 42.8232 19.2247L46.0915 13.6312L45.5334 13.5512ZM33.6823 19.7352V15.5801H41.8996L41.0863 16.9731H33.9008V18.2557H40.3335L40.1605 18.552L40.1302 19.9515H33.9008V24.2191L40.0437 24.217L40.0394 24.4311H27.2755V27.468H39.9788L39.9745 27.6799H27.269V29.9338H39.8555C39.8534 29.9554 39.8231 30.096 39.8123 30.1436L27.2712 30.1458V34.5323H27.0549L27.0527 28.9042H20.6416V33.2778C19.7418 33.0993 18.8504 32.8807 17.9702 32.6224C16.8606 32.2763 16.1295 31.9757 15.6364 31.6858H20.4296V30.401H14.583C14.5485 30.267 14.5175 30.1321 14.49 29.9965C14.4236 29.5641 14.3875 29.1275 14.3818 28.69H20.4274V24.4224H14.291C14.2906 24.351 14.2892 24.2797 14.2867 24.2083H27.057V21.1866L14.2261 21.1887C14.2257 21.1181 14.2243 21.0474 14.2218 20.9768L27.0549 20.9746V18.7229L14.1742 18.7294C14.1742 18.7294 14.1634 18.5391 14.1482 18.5153L27.0549 18.5088V15.5801H27.2755V19.7352H33.6823ZM27.442 34.5323V30.3274H39.795C39.5808 31.1559 39.1114 31.7723 36.3688 32.6267C35.138 33.0096 33.3362 33.3665 31.7356 33.6671C30.1134 33.9721 28.6209 34.249 27.442 34.5323ZM39.9831 27.269H27.455V24.6279H40.0372L39.9831 27.269ZM12.433 15.5801H26.8753V18.3184C26.5033 18.3184 16.2442 18.312 14.0271 18.3184L12.433 15.5801ZM26.8775 24.0158H14.2823L14.2304 21.3877L26.8775 21.3856V24.0158ZM23.0879 36.0767C21.7382 35.7025 20.3431 35.3153 17.0012 34.1343C13.5447 32.9122 13.0819 31.8134 12.792 29.4125C12.2556 24.9762 12.0652 19.7828 12.0458 19.2053L12.0393 19.069L9.11058 14.053C15.0895 13.2552 21.0811 12.5557 27.083 11.9549V15.3638H12.0566L13.9557 18.6126L13.9838 19.8455L14.0725 24.3229L14.1396 27.5718C14.1569 28.6122 14.1742 29.4968 14.2758 30.0419C14.5181 31.1948 14.769 31.861 17.901 32.8322C19.1166 33.2107 20.8535 33.559 22.558 33.8791C24.2494 34.1949 25.8306 34.4977 27.0787 34.8049V37.1863C26.1819 36.9975 25.296 36.7607 24.4246 36.4769C24.0526 36.3601 23.6633 36.2346 23.0879 36.0767ZM42.2846 19.069L42.2802 19.2053C42.2608 19.7828 42.0683 24.9762 41.5318 29.4125C41.242 31.8113 40.7813 32.9101 37.3226 34.1343C33.9786 35.3153 32.5835 35.7025 31.2359 36.0767C30.6606 36.2368 30.2734 36.3601 29.897 36.479C29.2611 36.6823 28.6533 36.8749 27.2409 37.1885V34.8092C28.4933 34.502 30.0744 34.1971 31.7702 33.8813C33.4747 33.5611 35.2115 33.2107 36.4272 32.8344C39.5592 31.8632 39.8079 31.197 40.0524 30.0441C40.154 29.499 40.1713 28.6165 40.1886 27.5739L40.2557 24.3251L40.3465 19.8477L40.3746 18.6148L42.2738 15.3659H27.2409V11.9549C36.2931 12.8569 43.7879 13.8583 45.2133 14.053L42.2846 19.069Z" fill="currentColor"/>
</svg>
