<svg width="190" height="50" viewBox="0 0 190 50" fill="none" xmlns="http://www.w3.org/2000/svg">
<path d="M110.844 23.0284C109.675 23.9545 108.22 24.0436 107.594 23.2336C106.967 22.421 107.41 21.0143 108.579 20.091C109.748 19.1649 111.203 19.0758 111.83 19.8858C112.456 20.6985 112.013 22.1051 110.844 23.0284ZM89.4426 26.7002C89.0592 26.4275 88.4734 26.2116 87.5338 26.2413C86.4404 26.2764 85.3037 26.7758 84.2589 27.3185C79.661 29.7025 74.1641 34.978 71.5507 38.9954C70.3627 40.8205 70.3627 41.6331 70.7056 41.9301C71.0134 42.2001 71.9637 42.0543 73.311 41.2795C77.3959 38.9306 84.591 31.7652 89.4426 26.7002ZM65.9161 26.6786C65.5597 26.3762 65.0683 26.271 64.1315 26.2764C63.0407 26.2818 61.7016 26.7191 60.6433 27.2321C55.9887 29.4946 49.9464 35.0023 47.2277 38.9522C45.9911 40.7476 45.983 41.6439 46.3394 42.0003C46.6391 42.2973 47.576 42.0516 48.9421 41.3118C53.0837 39.0683 60.9348 31.6194 65.9161 26.6786ZM110.304 36.4656C118.874 30.7608 126.304 23.4604 129.627 18.7924C131.428 16.2626 130.383 15.1098 127.759 16.7675C120.845 21.1412 112.022 30.48 110.304 36.4656ZM162.992 26.6786C162.636 26.3762 162.144 26.271 161.207 26.2764C160.117 26.2818 158.778 26.7191 157.719 27.2321C153.067 29.4946 147.022 35.0023 144.304 38.9522C143.067 40.7476 143.059 41.6439 143.415 42.0003C143.715 42.2973 144.652 42.0516 146.018 41.3118C150.16 39.0683 158.014 31.6194 162.992 26.6786ZM187.115 36.7329L187.418 37.9829C185.692 39.8512 181.429 42.7671 176.745 43.874C172.844 44.7974 169.939 44.2061 168.257 42.489C166.826 41.0284 166.572 38.6417 167.425 36.1902C159.453 43.6769 154.887 44.4491 153.319 43.0641C151.963 41.868 152.368 39.0818 153.969 36.9435C151.577 38.9927 148.934 41.077 146.825 42.3108C143.397 44.3141 141.512 43.5311 141.164 41.3334C140.988 40.2103 141.477 38.7038 142.349 37.1244C135.532 43.0047 130.364 44.1953 127.346 43.2314C126.061 42.8211 125.175 41.7357 124.762 40.267C115.858 44.9972 108.563 44.7056 106.989 40.1239C101.568 43.0992 96.3299 44.441 94.2781 43.1451C92.6824 42.138 91.967 40.0726 93.5842 36.7923C87.9901 41.895 83.0764 44.7839 80.5331 43.1261C78.978 42.1137 79.4639 38.9738 80.9759 36.8436C78.6351 38.9522 76.2214 40.969 74.1452 42.2541C70.7677 44.3438 68.7536 43.5635 68.4323 41.3604C68.2568 40.1509 68.7617 38.5256 69.6203 36.8706C62.4765 43.4501 57.8246 44.5598 56.2317 42.9912C54.9358 41.7141 55.2759 39.1034 56.8932 36.9408C54.5011 38.99 51.8579 41.0743 49.7493 42.3081C46.3205 44.3114 44.436 43.5284 44.0877 41.3307C43.8853 40.0564 44.5467 38.288 45.6483 36.4818C36.4903 43.9604 25.0673 50.0108 17.37 50C7.78548 49.9865 5.03972 43.0992 8.49284 34.8457C9.67808 32.0162 11.9649 28.8439 14.8726 25.8795C6.17096 25.3152 2.15898 23.3119 0.522866 20.2854C-0.602974 18.2011 -0.111602 14.3997 3.99488 10.9655C10.2315 5.74935 22.0758 2.41233 31.1743 1.38908C33.2262 1.15959 35.0162 1.0813 35.999 1.0975L36.8332 2.62022C28.7823 1.87506 13.9574 5.71155 7.65859 11.4028C3.32802 15.3176 3.625 18.9219 5.76058 21.1736C7.286 22.7827 9.88327 24.0787 16.4196 24.3784C17.1054 23.7439 17.8154 23.1229 18.5498 22.5209C31.6819 11.7997 52.8812 2.20174 67.1283 0.228145C70.8487 -0.287527 74.3153 -0.0904381 75.0146 2.53112C75.8839 5.77095 72.5442 10.8197 60.9024 16.6244C50.8455 21.638 34.3494 26.001 20.5531 26.0442C17.5266 29.1868 15.0697 32.3186 13.2446 35.3803C8.97072 42.5592 10.9524 48.4692 17.7533 48.4935C27.2433 48.5286 40.1378 39.8161 48.6343 32.3132C50.2262 30.8952 51.9586 29.6431 53.8045 28.5766C56.121 27.1592 58.2674 26.1954 60.4111 25.6068C64.3097 24.5376 68.4674 24.5835 71.089 26.2575C70.8892 26.3924 70.4788 26.6516 70.1657 26.9081C64.828 31.3008 59.35 37.3377 57.9245 39.8107C57.4277 40.672 57.2576 41.4468 57.6437 41.8518C58.775 43.0506 64.5985 40.1509 72.7683 32.2187C73.6627 31.3388 74.632 30.5384 75.6653 29.8267C78.4353 27.7073 81.2918 26.2413 83.5542 25.623C87.2503 24.6105 89.7099 24.7725 91.2677 25.3395C93.8299 22.8718 98.3548 18.7195 101.684 15.6038C103.304 15.5984 104.486 15.6092 106.144 15.5417C105.86 15.728 105.609 15.8846 105.347 16.1222C102.883 18.3523 97.8095 22.8826 93.5734 26.8811C88.387 31.776 83.7972 36.6951 82.1692 39.5677C81.5374 40.6855 81.3215 41.4576 81.8317 41.8707C83.044 42.8481 88.2277 40.1779 95.8953 33.0665C98.4922 30.3248 101.188 27.679 103.979 25.1343C105.55 25.137 106.903 25.137 108.568 25.1019C108.071 25.4181 107.598 25.7709 107.154 26.1576C103.814 29.2408 98.2306 34.4353 96.1086 37.5213C94.4022 40.0051 94.7262 41.1607 95.4714 41.7087C96.8699 42.7401 101.992 41.4252 106.857 38.7308C106.722 36.795 107.445 34.2355 108.887 31.7382C111.355 27.4643 116.973 21.3302 125.899 16.2221C128.553 14.7048 130.594 14.2053 131.582 15.1529C132.522 16.0574 132.292 17.9608 130.74 20.2935C126.333 26.9162 118.345 32.9261 109.87 38.4338C109.362 41.7519 114.306 44.4086 124.538 38.801C124.446 36.8193 125.108 34.357 126.792 31.7139C129.938 26.7839 136.018 20.6877 143.947 16.1789C146.604 14.667 148.559 14.0973 149.63 15.1421C150.592 16.0817 150.362 17.9554 148.807 20.2908C144.652 26.5355 138.35 31.4709 127.718 38.5931C127.141 41.409 129.112 43.2962 134.53 40.5829C137.408 39.1412 141.164 36.4143 146.323 31.8921C146.696 31.5681 147.106 31.2414 147.473 30.9579C147.83 30.6582 148.186 30.3747 148.537 30.129C151.79 27.8423 154.641 26.3951 157.487 25.6149C161.386 24.5457 165.546 24.5916 168.165 26.2656C167.965 26.4005 167.555 26.6597 167.244 26.9162C161.907 31.3089 156.44 37.2459 155.014 39.7756C154.525 40.645 154.398 41.4198 154.793 41.814C155.638 42.6645 160.6 41.1445 169.504 32.4995C170.876 31.1685 171.737 30.3504 172.825 29.527C175.8 27.1727 178.94 25.542 182.053 24.6402C185.409 23.6683 188.749 23.7709 189.17 26.2953C189.672 29.311 186.165 31.9649 182.712 33.188L182.601 31.8732C185.166 30.1614 187.393 27.4265 186.378 25.9767C185.773 25.1208 184.04 25.2423 181.516 26.387C178.694 27.6668 174.091 31.7625 171.721 35.518C170.128 38.045 169.777 40.5964 171.005 41.8005C172.239 43.0101 174.191 43.1154 176.537 42.5943C179.858 41.8599 184.469 39.3653 187.115 36.7329ZM22.1946 24.4027C36.6496 23.9491 48.9772 19.6671 62.0607 13.3197C70.2979 9.32396 74.0372 5.18508 73.5 2.9577C73.0491 1.0948 70.2655 1.1002 67.2984 1.54567C53.521 3.61646 34.0092 13.7382 24.7352 22.0241C23.8469 22.8151 23.01 23.6089 22.1946 24.4027ZM128.115 36.6573C136.731 30.9201 144.695 23.1607 147.943 18.409C149.412 16.2599 148.164 15.2879 146.202 16.5002C139.317 20.7524 129.973 30.4476 128.115 36.6573Z" fill="currentColor"/>
</svg>
