<svg width="500" height="73" viewBox="0 0 500 73" fill="none" xmlns="http://www.w3.org/2000/svg">
<path fill-rule="evenodd" clip-rule="evenodd" d="M86.8833 29.4749H65.4109V0.758301H50.4304V72.5388H65.4109V40.4274H86.8739L86.8771 72.5388H101.864V0.758301H86.8833V29.4749ZM444.325 0.758301V11.7139H464.675V72.5388H479.656V11.7139H500V0.758301H444.325ZM365.228 0.758301H350.248V72.5388H393.099V61.5801H365.222L365.228 0.758301ZM193.807 60.5989C193.587 61.345 193.035 61.5487 192.245 61.5487C191.487 61.5487 190.904 61.254 190.666 60.5644L174.892 0.761429H157.416L175.541 66.2413C176.422 70.5515 179.293 72.5483 183.359 72.5483H197.179C201.245 72.5483 203.875 70.4731 204.894 66.3448L222.583 0.761429H209.351L193.807 60.5989ZM0.00940479 11.971L0 61.323C0 69.307 4.097 72.5451 11.1876 72.5451L44.6877 72.5388V61.5613H20.4599C16.3034 61.5613 14.9711 60.5519 14.9711 56.0756L14.9899 17.1933C14.9899 12.8706 15.9899 11.7139 20.4693 11.7139H44.6877V0.761429H11.2189C3.56097 0.758294 0.00940479 4.71423 0.00940479 11.971ZM125.838 56.0756L125.844 40.4274H155.617V29.4749H125.863L125.86 17.1933C125.86 13.0367 126.778 11.7139 131.342 11.7139H155.934V0.761429L122.079 0.773956C114.34 0.773956 110.879 4.63586 110.879 11.971L110.87 61.323C110.87 68.9026 114.562 72.5451 122.06 72.5451L159.053 72.5388V61.5613H131.33C127.17 61.5613 125.838 60.6303 125.838 56.0756ZM266.299 42.2079C273.229 42.2079 277.489 39.0544 277.489 30.9858L277.477 11.971C277.477 4.47599 273.944 0.761429 266.28 0.761429H224.529V72.5388H239.51V11.7139H257.014C261.653 11.7139 262.493 13.0367 262.493 17.1933L262.512 25.9359C262.512 30.1739 261.343 31.4278 257.026 31.4278L248.842 31.4341C245.663 31.4341 243.876 33.3493 243.876 36.4432C243.876 37.998 244.666 39.1234 245.29 40.2393L264.202 72.542H282.74L262.935 42.2361L266.299 42.2079ZM329.97 0.770828H296.965C289.063 0.770828 285.768 4.79259 285.768 11.9678L285.755 61.3199C285.755 69.47 290.097 72.542 296.946 72.542H329.976C337.151 72.542 341.179 69.144 341.179 61.3199L341.167 11.9678C341.167 4.63585 337.709 0.770828 329.97 0.770828ZM320.719 61.5613H306.215C301.899 61.5613 300.73 60.392 300.73 56.0756V17.1933C300.73 13.4411 301.244 11.7139 306.215 11.7139H320.726C324.638 11.7139 326.193 12.3879 326.193 17.1933L326.205 56.0756C326.205 60.7086 324.791 61.5613 320.719 61.5613ZM410.976 56.0756L410.982 40.4274H440.755V29.4749H411.001V17.1933C411.001 13.0367 411.919 11.7139 416.48 11.7139H441.068V0.761429L407.217 0.773956C399.471 0.773956 396.014 4.63586 396.014 11.971L396.008 61.323C396.008 68.9026 399.7 72.5451 407.198 72.5451L444.191 72.5388V61.5613H416.468C412.311 61.5613 410.976 60.6303 410.976 56.0756Z" fill="currentColor"/>
</svg>
