<svg width="1369" height="500" viewBox="0 0 1369 500" fill="none" xmlns="http://www.w3.org/2000/svg">
<path fill-rule="evenodd" clip-rule="evenodd" d="M454.18 1.71738C447.29 3.88808 444.18 6.07686 441.176 10.8695C438.643 14.9125 438.514 16.5971 437.93 52.984C437.28 93.4465 437.135 94.4055 431.028 98.4076C428.029 100.373 418.629 100.553 289.988 101.115L152.159 101.717L145.252 105.109C141.453 106.974 136.383 110.764 133.983 113.532C130.017 118.106 10.1183 349.825 2.81085 367.038C1.26584 370.678 0.00120581 375.551 2.54082e-06 377.868C-0.00360728 384.012 3.83961 391.484 9.04497 395.455L13.5945 398.925L220.704 399.527C415.335 400.092 428.008 400.255 431.028 402.234C436.977 406.131 437.142 407.295 437.242 445.853C437.332 481.201 437.393 482.07 440.157 487.683C442.189 491.809 444.55 494.339 448.58 496.708L454.18 500H687.014H919.847L924.66 497.42C936.597 491.024 937.177 488.628 937.242 445.492C937.298 407.64 937.673 405.068 943.624 401.669C945.752 400.452 974.926 400.002 1082.29 399.527C1209.2 398.965 1218.56 398.783 1222.8 396.792C1229.38 393.7 1236.37 386.949 1240.34 379.848C1242.25 376.443 1271.88 318.712 1306.2 251.559C1364.95 136.574 1368.58 129.107 1368.49 123.379C1368.35 113.72 1363.59 106.756 1354.55 102.978C1350.59 101.322 1327.93 101.114 1150.61 101.108C1015.73 101.104 949.668 100.695 946.609 99.8455C938.102 97.4835 937.971 96.8481 937.294 54.8467C936.719 19.1227 936.575 17.2685 934.013 12.4746C930.886 6.62673 926.57 3.24919 919.847 1.38652C912.44 -0.66506 460.724 -0.34383 454.18 1.71738ZM851.688 81.1707C858.113 84.4929 858.386 86.3051 859.061 129.994C859.531 160.388 860.077 170.994 861.284 173.113C864.984 179.605 856.407 179.328 1053.67 179.333C1232.39 179.336 1236.39 179.387 1240.14 181.674C1245.14 184.721 1246.94 188.285 1246.21 193.639C1245.5 198.833 1187.29 313.388 1183.17 317.704L1180.3 320.712L1024.2 321.314C900.92 321.789 867.543 322.238 865.426 323.447C859.923 326.593 859.716 328.159 859.082 371.25C858.639 401.335 858.072 412.875 856.94 414.856C853.135 421.516 862.01 421.186 687.13 421.186C569.117 421.186 525.082 420.819 522.881 419.815C516.571 416.94 516.149 413.958 516.146 372.271C516.145 329.224 515.843 327.477 507.726 323.422C503.771 321.446 492.183 321.318 317.609 321.312C135.15 321.305 131.631 321.261 127.838 318.948C123.87 316.529 121.485 310.979 122.386 306.263C122.64 304.935 136.567 277.049 153.335 244.295C174.097 203.741 184.847 183.975 187.031 182.336C190.191 179.965 192.589 179.921 348.681 179.328C520.721 178.674 510.362 179.123 513.958 172.173C515.146 169.875 515.699 158.687 516.149 127.787L516.75 86.4748L520.68 82.9648L524.61 79.4561H686.49C824.244 79.4561 848.866 79.7111 851.688 81.1707Z" fill="black"/>
</svg>
