<svg width="500" height="197" viewBox="0 0 500 197" fill="none" xmlns="http://www.w3.org/2000/svg">
<path fill-rule="evenodd" clip-rule="evenodd" d="M375.159 16.0445C375.159 25.188 343.112 42.6602 315.862 42.6602C273.494 42.6602 229.406 22.3816 209.128 17.7645C187.039 12.6043 167.031 8.34944 151.279 8.34944C96.056 8.34944 71.4319 32.0683 72.5183 53.8859C73.0615 62.7579 80.2133 68.4612 90.8053 66.4696C102.212 64.4779 118.326 53.6144 122.31 44.1087C123.124 42.1171 125.478 41.8455 126.293 42.3886C128.013 43.8371 127.47 45.8288 127.47 45.8288C126.021 56.9639 108.821 87.9252 79.127 87.9252C62.56 87.9252 51.3343 72.4445 51.6059 57.3261C51.8775 28.9902 80.847 0.382812 152.094 0.382812C165.583 0.382812 180.701 1.55969 197.359 4.36612C216.551 7.80625 264.351 15.7729 303.279 16.4066C317.583 16.4066 335.87 16.9498 350.807 14.6865C366.559 12.1517 363.119 11.518 369.456 11.518C375.159 11.4275 375.159 13.6907 375.159 16.0445Z" fill="currentColor"/>
<path fill-rule="evenodd" clip-rule="evenodd" d="M484.519 147.946C483.342 147.946 481.351 150.481 480.264 151.93C474.833 157.633 452.2 181.171 439.888 181.714C442.423 181.714 435.633 183.162 435 177.731C434.728 174.29 437.534 170.036 438.711 167.682L500 59.2271H477.368L440.431 121.602C437.534 115.899 433.279 102.41 416.35 102.138C388.286 101.867 377.423 121.059 357.959 139.346C352.255 144.506 345.375 151.386 329.623 151.386C320.479 151.386 313.327 143.963 315.048 134.457C316.224 127.034 318.759 123.322 324.191 121.331C326.726 128.754 331.614 132.737 339.943 132.737C349.358 132.466 354.79 123.865 355.152 116.442C355.152 110.105 351.169 102.138 339.672 101.595C329.08 101.052 321.023 105.85 309.616 119.067C309.616 119.067 312.513 99.6034 290.967 100.147C288.703 100.147 286.35 100.147 284.086 101.323C272.317 105.035 257.199 123.956 245.159 138.531C245.702 135.634 245.702 132.828 245.702 129.931C245.702 121.602 242.533 110.739 236.83 105.035C235.653 103.858 234.567 103.858 233.39 103.858C229.678 103.858 226.509 107.027 226.509 111.915C229.406 114.812 233.118 121.964 233.118 128.844C233.118 135.725 231.126 148.308 228.229 153.197C217.366 171.846 203.605 183.796 187.038 181.261C178.166 179.27 172.191 170.669 173.912 157.814C174.726 150.391 179.343 140.07 183.689 133.733C190.841 123.956 202.61 113.998 219.72 111.372C219.72 111.372 220.534 107.932 218.271 106.212C217.456 104.764 216.28 103.043 212.296 103.043C187.944 103.858 173.097 121.331 164.496 138.531C161.328 144.506 156.801 153.106 154.176 158.538C154.176 158.538 151.913 164.875 141.321 172.842C135.889 177.097 134.169 178.545 133.264 178.274C133.535 180.265 134.984 183.162 137.519 185.426C138.333 185.969 141.23 184.249 142.407 183.706C155.896 176.011 157.254 172.299 157.254 172.299C160.151 188.323 173.821 196.651 189.03 196.651C209.942 196.651 229.135 177.731 240.27 161.164C252.039 143.691 268.063 126.491 268.063 126.491C274.4 120.516 280.918 116.442 284.992 116.442C288.703 116.713 291.329 119.882 290.423 123.322C288.975 129.297 286.983 135.091 283 142.243L251.767 195.203H276.12C290.152 168.859 290.695 168.044 304.456 142.786C308.167 156.818 315.591 162.25 327.631 162.522C337.952 162.793 345.103 162.25 352.798 158.267C350.807 166.324 351.984 174.29 354.519 179.722C357.415 186.331 363.119 194.569 377.151 194.931C394.08 194.931 410.647 187.508 415.536 183.162C416.984 191.491 420.967 195.746 431.559 195.746C453.015 195.203 471.936 173.114 483.342 158.81C485.334 156.275 487.96 151.93 487.96 150.753C487.96 149.123 485.696 147.946 484.519 147.946ZM428.119 141.157C428.119 141.157 418.433 157.452 408.384 167.501C390.64 185.516 379.143 179.541 376.608 177.55C374.073 175.558 371.991 168.406 373.168 161.254C373.982 154.102 379.505 142.062 384.574 135.815C394.895 123.232 407.478 114.631 417.527 115.808C429.839 117.257 431.016 129.297 424.951 140.432L428.119 141.157Z" fill="currentColor"/>
<path fill-rule="evenodd" clip-rule="evenodd" d="M224.608 60.6755C224.608 56.0585 221.168 51.8036 216.008 50.8983C206.864 49.4498 199.713 56.8732 198.807 69.1853C198.807 72.3538 199.984 76.0655 199.984 76.0655C199.984 76.0655 179.977 79.5057 162.776 80.3204C183.96 44.5612 203.424 31.9775 209.128 26.8173C210.305 26.0025 213.111 22.834 213.383 22.2003C214.559 19.3034 211.934 17.5833 210.848 17.5833C203.967 17.3117 170.743 41.9358 145.033 81.4068C138.424 82.2216 110.993 84.5753 101.85 94.8957C100.945 96.0726 100.13 98.0643 100.13 98.6075C100.673 100.871 102.393 102.048 105.018 100.056C110.722 93.4473 133.897 90.9124 139.329 90.6409C105.562 138.169 74.3288 169.402 46.6267 169.402C43.7297 169.402 40.9233 169.673 37.7547 168.859C26.6196 166.324 20.0109 154.555 20.0109 143.963C20.0109 129.931 33.4998 114.722 41.1949 111.915C43.7297 110.738 44.9066 109.381 44.9066 108.204C44.9066 106.484 43.7297 105.307 40.6517 105.307C14.0359 111.915 -0.267792 133.642 0.00379734 151.386C0.546976 180.627 22.6363 196.923 47.532 196.923C82.4765 196.923 100.22 181.714 157.164 89.5545C179.796 87.2912 190.931 85.8428 202.428 83.8511C202.428 83.8511 205.869 92.1798 214.469 92.1798C215.917 92.4514 215.646 91.003 216.461 87.925C212.749 87.6534 208.403 85.028 208.403 81.95C211.844 80.2299 214.741 78.2383 217.275 76.2466C220.897 72.7159 224.608 65.5641 224.608 60.6755ZM206.864 75.5224C206.05 72.0822 205.416 68.9137 206.864 64.3872C208.041 60.1323 210.576 58.0501 214.922 57.2353C216.913 56.9638 217.819 58.9554 218.09 60.6755C218.633 64.1156 215.827 69.2758 214.107 70.9959C209.761 75.8845 206.864 75.5224 206.864 75.5224Z" fill="currentColor"/>
</svg>
