<svg width="1335" height="500" viewBox="0 0 1335 500" fill="none" xmlns="http://www.w3.org/2000/svg">
<path fill-rule="evenodd" clip-rule="evenodd" d="M633.84 0.294548C482.844 3.01568 340.201 24.5144 227.208 61.5814C104.65 101.786 25.6488 157.636 5.79935 218.108C-6.424 255.345 2.48324 291.683 32.4946 327.016C37.256 332.622 51.5377 346.583 58.1969 352.141C149.537 428.385 335.603 482.588 554.103 496.604C591.421 498.998 608.393 499.565 652.913 499.908C691.284 500.204 717.551 499.801 746.69 498.471C983.765 487.648 1186.71 430.461 1280.96 347.921C1318.37 315.158 1336.99 278.044 1333.81 242.581C1333.06 234.201 1331.24 225.539 1328.63 217.905C1324.62 206.192 1315.23 189.556 1306.45 178.621C1283.91 150.545 1248.13 123.901 1201.8 100.704C1067.7 33.5544 856.839 -3.72354 633.84 0.294548ZM734.77 23.5429C789.784 25.9693 831.464 29.3243 877.025 34.9934C1100.52 62.8042 1264.07 133.249 1298.26 216.433C1303.08 228.167 1305.11 238.171 1305.11 250.174C1305.11 262.135 1303.07 272.257 1298.31 283.774C1257.66 382.313 1038.39 460.793 762.85 475.424C731.652 477.08 721.71 477.353 681.523 477.65C639.845 477.959 614.866 477.532 581.653 475.942C380.117 466.299 202.784 422.473 105.615 358.294C75.0752 338.123 53.7703 316.965 41.2111 294.332C25.3426 265.737 25.3426 234.611 41.2111 206.016C44.6845 199.757 45.8856 197.912 50.7657 191.342C101.754 122.693 242.721 65.7029 427.598 38.9967C486.521 30.4851 548.306 25.2082 613.972 23.0786C632.039 22.4924 718.491 22.8252 734.77 23.5429ZM611.323 41.6521C403.547 48.2625 221.55 89.4102 122.538 152.162C96.8654 168.432 75.5006 188.313 64.3364 206.321C47.9169 232.805 46.3651 258.969 59.6343 285.609C68.8223 304.055 86.1531 322.654 110.211 339.886C169.521 382.367 272.414 417.681 397.013 438.319C456.678 448.202 517.237 454.441 584.832 457.669C632.463 459.944 701.35 459.943 749.604 457.666C897.994 450.665 1029.17 426.82 1129.22 388.659C1152.87 379.637 1181.87 366.039 1199.68 355.618C1243.6 329.923 1270.5 302.381 1279.99 273.407C1282.72 265.084 1283.6 259.385 1283.6 250.174C1283.6 237.693 1281.21 227.601 1275.42 215.731C1269.9 204.392 1262.33 194.288 1250.58 182.595C1210.11 142.308 1134.86 107.421 1033.32 81.8818C941.363 58.7522 836.724 45.2721 720.73 41.6118C701.804 41.015 630.533 41.041 611.323 41.6521ZM528.672 86.6684C552.98 88.2563 576.138 91.2456 616.879 98.0538C658.009 104.927 677.642 107.842 696.888 109.935C751.443 115.866 799.607 114.153 844.206 104.695C855.677 102.263 858.179 102.606 860.617 106.947C862.291 109.926 861.899 114.914 859.604 119.819C853.817 132.192 829.35 146.628 804.97 152.053C793.347 154.639 786.463 155.255 769.208 155.252C738.543 155.246 719.064 151.723 661.125 135.705C643.241 130.76 621.718 125.193 613.84 123.474C612.756 123.237 612.647 123.41 612.647 125.379C612.647 126.569 612.405 127.996 612.11 128.549C611.814 129.101 607.344 132.768 602.176 136.697C571.301 160.166 553.446 178.604 539.562 201.355C537.008 205.54 537.177 205.942 541.342 205.605C542.824 205.485 549.52 205.143 556.222 204.843C573.385 204.078 584.219 203.268 584.795 202.708C585.066 202.445 585.33 199.302 585.382 195.725C585.485 188.647 586.445 184.582 589.359 178.886C593.044 171.683 600.081 165.697 607.534 163.426C616.529 160.685 626.102 164.516 629.957 172.398C631.098 174.731 631.449 176.32 631.621 179.923C632.232 192.693 624.71 204.259 611.988 210.118C609.582 211.225 607.197 212.276 606.687 212.453C605.669 212.806 605.493 213.969 606.246 215.376C606.513 215.875 608.718 217.692 611.146 219.412C617.52 223.928 617.946 224.371 617.946 226.485C617.946 227.887 617.517 228.723 616.123 230.038C613.398 232.609 612.065 232.742 608.013 230.845C603.197 228.59 598.22 224.943 593.743 220.388C589.317 215.886 590.939 216.168 576.09 217.317C553.533 219.061 527.554 221.917 525.827 222.841C525.265 223.142 522.235 227.626 519.094 232.806C483.027 292.287 462.285 321.54 439.929 344.456C414.325 370.7 391.222 383.371 362.897 386.703C355.991 387.516 339.303 387.03 333.965 385.862C305.05 379.531 285.993 360.874 280.096 333.122C278.628 326.213 278.763 309.849 280.348 302.547C283.712 287.049 290.908 273.797 301.878 262.895C309.091 255.726 315.187 251.361 324.164 246.938C335.961 241.127 344.849 239.631 351.114 242.403C355.464 244.328 357.832 250.81 355.492 254.383C354.995 255.141 353.381 256.412 351.905 257.208C345.603 260.605 336.348 267.175 331.898 271.411C315.376 287.14 310.767 305.148 318.951 321.992C320.984 326.176 322.124 327.744 325.695 331.267C333.251 338.723 341.735 341.802 354.628 341.769C366.177 341.738 375.917 339.195 388.271 332.984C399.21 327.485 406.672 321.992 419.53 309.979C431.25 299.029 443.352 285.909 455.872 270.58C466.906 257.071 486.791 230.054 486.294 229.249C485.859 228.545 480.815 228.559 475.656 229.276C466.523 230.547 455.685 234.862 447.066 240.659C444.676 242.266 441.95 243.803 441.01 244.072C434.584 245.916 430.388 238.442 434.551 232.568C435.891 230.677 442.711 226.266 449.191 223.1C459.773 217.928 470.61 214.923 491.166 211.462C497.224 210.442 502.681 209.395 503.293 209.135C503.905 208.876 508.781 202.739 514.13 195.498C529.004 175.362 533.12 170.382 543.203 160.326C561.343 142.236 573.781 132.463 589.601 123.87C595.444 120.695 596.595 119.514 594.786 118.545C593.7 117.964 567.707 112.982 553.043 110.544C542.286 108.756 530.376 107.178 520.195 106.191C511.366 105.334 488.011 105.328 480.459 106.18C459.114 108.587 440.762 114.025 427.514 121.868C408.004 133.418 396.399 151.681 398.619 167.343C399.654 174.64 403.108 179.78 408.859 182.58C423.084 189.508 444.381 181.631 462.74 162.654C465.524 159.775 469.18 155.452 470.864 153.046C472.549 150.64 474.436 148.315 475.059 147.878C476.806 146.654 478.923 146.912 480.784 148.574C482.136 149.783 482.499 150.578 482.712 152.801C483.082 156.653 482.2 159.587 478.271 167.571C474.49 175.254 468.374 184.913 463.35 191.136C458.326 197.358 448.97 206.009 442.8 210.136C433.808 216.151 425.906 219.554 416.086 221.639C410.022 222.927 398.166 222.921 393.304 221.627C379.681 218.001 370.607 210.789 364.578 198.796C361.174 192.022 359.815 185.859 359.78 177.031C359.703 157.315 367.372 140.481 383.59 124.773C401.645 107.285 429.549 94.36 460.591 89.1075C467.166 87.9945 471.945 87.4623 484.168 86.4807C489.364 86.0636 521.488 86.1988 528.672 86.6684ZM607.818 176.161C603.074 179.171 599.572 185.764 599.069 192.632C598.778 196.611 599.546 198.665 601.424 198.934C603.593 199.245 609.321 196.08 612.693 192.706C616.747 188.65 618.739 184.562 618.74 180.298C618.74 177.565 618.567 177.055 617.254 175.925C615.052 174.031 611.017 174.132 607.818 176.161ZM1058.5 176.796C1058.92 177.462 1058.83 177.591 1030.47 221.553C970.36 314.732 950.807 346.186 948.803 352.937C946.679 360.091 948.857 364.568 955.146 365.978C960.733 367.23 968.679 364.238 977.954 357.388C986.785 350.866 994.175 344.204 1010.59 327.965C1020.09 318.569 1026.67 312.452 1027.28 312.452C1027.83 312.453 1030.43 314.442 1033.05 316.874C1037.49 321.007 1037.77 321.378 1037.2 322.571C1036.13 324.834 1022.73 340.009 1013.19 349.762C991.645 371.791 974.798 384.14 958.284 390.012C950.284 392.857 940.222 393.884 934.006 392.491C924.951 390.461 917.395 382.469 915.6 373.025C914.37 366.553 914.15 365.983 912.899 366C912.2 366.01 909.804 367.727 906.959 370.258C897.414 378.748 886.414 385.423 876.992 388.442C856.362 395.052 837.059 387.725 828.041 369.863C823.795 361.453 821.92 350.024 822.995 339.105C823.333 335.674 823.679 332.746 823.764 332.597C824.141 331.941 822.937 329.942 822.165 329.942C821.695 329.942 818.951 331.393 816.067 333.166C810.2 336.773 804.972 339.112 797.226 341.597C783.986 345.845 771.571 343.55 763.516 335.365C757.958 329.717 755.81 325.015 754.141 314.84C753.493 310.887 753.059 309.502 752.432 309.381C751.497 309.201 744.75 319.392 718.114 361.214C709.295 375.06 701.696 386.691 701.227 387.059C700.571 387.574 696.344 387.697 682.876 387.589C666.403 387.458 665.367 387.393 665.192 386.48C664.94 385.17 667.564 380.757 684.118 354.656C706.549 319.287 722.166 293.204 726.154 284.448C729.302 277.54 728.687 271.181 724.687 269.283C715.379 264.864 694.786 280.066 670.931 308.965C663.977 317.389 652.909 331.789 647.955 338.857C640.861 348.978 635.837 355.008 627.764 363.09C616.934 373.932 607.686 380.437 596.393 385.158C585.661 389.644 573.608 391.364 563.384 389.868C544.716 387.137 530.308 375.308 524.366 357.833C522.061 351.057 521.371 351.073 514.5 358.063C508.918 363.742 499.248 371.729 496.209 373.172C494.469 373.998 494.298 373.991 493.014 373.032C490.613 371.239 484.962 362.871 484.962 361.109C484.962 359.345 484.858 359.459 494.782 350.375C508.299 338.001 511.368 333.723 517.808 318.279C534.084 279.236 557.516 256.311 591.451 246.225C603.067 242.773 611.987 242.444 614.731 245.366C616.043 246.763 619.535 255.608 619.535 257.534C619.535 259.182 619.073 259.508 613.442 261.826C583.769 274.038 564.125 294.046 557.465 318.84C556.004 324.278 555.741 335.388 556.969 339.748C560.93 353.806 572.998 360.655 587.746 357.215C592.258 356.162 600.901 351.914 605.23 348.621C609.792 345.152 617.063 337.435 620.222 332.71C633.443 312.935 637.649 287.068 631.502 263.339C629.636 256.136 630.578 254.163 637.979 249.765C646.469 244.72 649.026 244.249 652.422 247.108C657.115 251.059 661.836 264.652 662.955 277.439C663.574 284.508 664.234 285.779 666.401 284.071C667.124 283.501 671.976 278.378 677.184 272.685C696.095 252.01 706.46 244.065 720.78 239.263C729.692 236.274 739.434 236.594 745.353 240.07C752.345 244.175 755.898 251.522 756.586 263.292C756.908 268.806 756.958 268.99 758.15 268.99C759.069 268.99 760.332 267.786 763.116 264.255C778.564 244.664 801.027 236.078 816.531 243.839C821.313 246.232 825.703 250.7 828.167 255.68C829.912 259.205 830.125 260.107 830.31 264.718C830.55 270.682 829.695 274.745 827.076 280.082C824.728 284.871 819.58 290.012 814.784 292.357C811.291 294.066 810.782 294.166 805.513 294.166C800.721 294.166 799.583 293.99 797.428 292.918C793.94 291.184 790.814 287.981 789.157 284.443C787.958 281.883 787.744 280.683 787.689 276.219C787.628 271.228 787.281 270.092 785.805 270.058C784.975 270.039 781.99 273.054 779.849 276.074C771.904 287.282 769.928 299.8 774.645 309.03C776.066 311.81 780.019 315.433 783.154 316.829C786.887 318.49 792.623 318.664 798.117 317.284C809.691 314.375 822.388 305.806 844.176 286.2C867.123 265.551 877.183 257.849 889.047 251.845C903.319 244.622 918.991 242.547 931.331 246.246C942.254 249.521 951.065 257.27 953.572 265.81C954.042 267.413 954.6 269.321 954.81 270.05C955.316 271.799 957.043 271.999 958.441 270.47C959.466 269.348 964.942 261.069 996.928 212.278C1006.49 197.684 1014.78 184.812 1019.36 177.429L1020.1 176.236H1039.13C1051.92 176.236 1058.27 176.42 1058.5 176.796ZM914.128 269.278C904.488 271.973 894.052 279.729 883.495 292.046C868.539 309.495 860.667 327.772 861.215 343.776C861.393 348.983 861.55 349.699 863.256 353.043C865.509 357.461 868.232 359.392 873.48 360.291C882.694 361.87 895.478 355.537 908.934 342.727C911.569 340.219 915.211 336.256 917.028 333.922C923.797 325.227 933.715 309.024 933.715 306.661C933.715 306.15 933.115 305.458 932.382 305.124C929.841 303.966 929.732 302.527 931.822 297.771C935.436 289.548 936.461 281.801 934.544 277.203C931.698 270.376 922.696 266.882 914.128 269.278Z" fill="black"/>
</svg>
