<svg width="500" height="102" viewBox="0 0 500 102" fill="none" xmlns="http://www.w3.org/2000/svg">
<path d="M0 27.8909C0 11.2999 10.3237 0.0917969 29.837 0.0917969H156.51V23.623H33.6435C30.2022 23.623 27.1455 25.3917 27.1455 30.5824V69.8203C27.1455 74.5881 29.1449 77.6641 35.4314 77.6641H121.962C126.519 77.6641 130.037 76.0492 130.037 70.051V60.8616H79.3794V38.4454H156.51V74.5112C156.51 91.7751 143.956 101.215 124.231 101.215H30.0484C10.9966 101.215 0.0192249 90.8908 0.0192249 73.6269L0 27.8909ZM269.513 101.215L312.788 24.5266V101.215H339.915V0.0917969H298.197L256.94 72.7233L215.684 0.0917969H173.985V101.215H201.111V24.5266L244.386 101.215H269.513ZM499.981 101.215H386.554C367.464 101.215 356.525 90.8908 356.525 73.6269V27.8909C356.525 11.2999 366.81 0.0917969 386.323 0.0917969H500V25.5071H390.149C386.708 25.5071 383.632 27.2565 383.632 32.4472V67.9363C383.632 72.7233 385.651 75.78 391.937 75.78H500V101.215" fill="currentColor"/>
</svg>
