<svg width="2324" height="500" viewBox="0 0 2324 500" fill="none" xmlns="http://www.w3.org/2000/svg">
<path fill-rule="evenodd" clip-rule="evenodd" d="M87.6733 6.60659C50.1111 18.1447 23.7957 43.3723 8.88703 82.1294C3.08034 97.2285 1.91432 118.309 0.607907 231.949C-1.02998 374.569 1.22406 401.83 17.2987 433.591C28.8926 456.495 56.6587 481.457 80.8604 490.734C97.6371 497.161 119.721 497.856 344.853 499.047C600.944 500.398 623.699 499.297 658.781 483.851C682.214 473.531 706.993 448.565 718.025 424.169C726.616 405.165 727.084 399.32 728.278 295.867L729.526 187.476L550.84 188.491L372.151 189.506V243.354V297.199L488.129 297.351C554.884 297.441 605.054 299.038 606.341 301.119C607.566 303.11 608.572 316.023 608.572 329.814C608.572 356.201 601.396 376.119 590.36 380.359C586.889 381.691 486.015 382.784 366.2 382.784H148.353L137.41 373.362L126.468 363.936V248.075V132.214L137.41 122.788L148.353 113.366H438.664H728.976V56.7495V0.132743L417.972 0.406094C151.481 0.636466 104.208 1.52671 87.6733 6.60659ZM807.36 249.961L807.641 499.922H869.662H931.688L932.698 309.573L933.712 119.223L943.902 136.794C949.505 146.458 966.883 178.964 982.521 209.029C998.158 239.094 1012.27 265.451 1013.89 267.598C1015.5 269.746 1030.59 297.941 1047.41 330.255C1064.24 362.574 1091.16 413.986 1107.25 444.508L1136.5 500L1194.62 498.985L1252.74 497.97L1277.75 451.114C1291.5 425.344 1316.9 377.025 1334.19 343.738C1351.48 310.451 1366.89 281.459 1368.44 279.312C1369.99 277.164 1384.54 249.93 1400.77 218.791C1417.01 187.651 1435.67 152.51 1442.24 140.698L1454.18 119.223L1454.4 193.411C1454.53 234.214 1454.52 319.869 1454.4 383.76L1454.17 499.922H1516.64H1579.12V250.027V0.132743H1482.58H1386.04L1343.16 80.9971C1319.58 125.474 1292.29 176.867 1282.52 195.207C1272.75 213.547 1253.53 249.637 1239.81 275.407C1226.08 301.178 1210.56 330.693 1205.3 341.001C1200.06 351.305 1194.43 358.333 1192.8 356.619C1191.17 354.901 1179.24 333.293 1166.29 308.596C1153.34 283.9 1111.26 204.832 1072.79 132.889L1002.83 2.08504L904.955 1.04252L807.076 0L807.36 249.961ZM1744.86 5.59529C1709.38 16.8288 1686.58 35.7779 1669.45 68.2798L1659.06 87.9863V246.123C1659.06 391.882 1659.64 405.759 1666.44 423.407C1681.07 461.383 1714.62 487.205 1760.35 495.67C1775.51 498.473 1875.31 499.922 2053.65 499.922H2323.96V437.448V374.975H2066.84C1913.48 374.975 1805.77 373.475 1799.94 371.257C1782.45 364.6 1781.44 357.685 1781.77 247.091C1782.04 161.51 1783.13 141.354 1787.94 134.014L1793.78 125.08H2058.87H2323.96V62.6064V0.132743L2042.21 0.394357C1826.45 0.593492 1756.8 1.81173 1744.86 5.59529Z" fill="black"/>
</svg>
