<svg width="500" height="202" viewBox="0 0 500 202" fill="none" xmlns="http://www.w3.org/2000/svg">
<path d="M417.164 107.483C416.757 129.935 421.606 141.827 440.114 141.827C458.592 141.827 461.244 121.569 461.244 106.153C461.244 90.7274 457.738 75.7526 438.324 75.7526C426.414 75.7526 417.621 85.0068 417.164 107.483ZM379.72 201.306V49.3261H417.621C417.621 49.3261 417.621 51.5269 417.621 55.4911C417.621 63.7144 420.938 60.3233 423.61 57.1188C424.058 56.583 432.505 46.2437 451.529 46.2437C470.495 46.2437 500 59.4552 500 106.153C500 142.275 482.397 168.701 451.997 168.701C435.245 168.701 425.56 162.106 423.346 159.444C421.128 156.819 418.049 156.361 418.049 159.444C418.049 162.533 418.049 201.306 418.049 201.306H379.72" fill="currentColor"/>
<path d="M86.7735 -0.000247834H127.744C127.744 -0.000247834 127.744 88.9741 127.744 107.482C127.744 125.97 119.806 164.747 62.9887 164.747C6.16493 164.747 0 128.605 0 108.357V88.5366H39.6481C39.6481 88.5366 39.6481 96.0241 39.6481 107.91C39.6481 119.802 47.5798 130.809 62.5479 130.809C77.5228 130.809 86.7735 122.444 86.7735 108.357C86.7735 94.2607 86.7735 -0.000247834 86.7735 -0.000247834Z" fill="currentColor"/>
<path d="M213.426 91.1785C213.426 80.1542 207.271 69.5843 193.174 69.5843C179.519 69.5843 174.669 79.2658 174.669 91.1785H213.426ZM189.224 44.9212C221.398 44.9212 249.578 57.2511 249.578 114.078H173.377C173.377 132.139 180.858 139.63 194.073 139.63C207.291 139.63 211.693 129.05 211.693 129.05H249.147C249.147 145.354 226.678 167.379 192.75 166.941C153.998 166.941 135.052 138.307 135.052 108.792C135.052 79.2658 151.78 44.9212 189.224 44.9212" fill="currentColor"/>
<path d="M335.242 91.1785C335.242 80.1542 329.081 69.5843 314.984 69.5843C301.335 69.5843 296.476 79.2658 296.476 91.1785H335.242ZM311.041 44.9212C343.211 44.9212 371.384 57.2511 371.384 114.078H295.187C295.187 132.139 302.675 139.63 315.9 139.63C329.105 139.63 333.513 129.05 333.513 129.05H370.967C370.967 145.354 348.495 167.379 314.577 166.941C275.804 166.941 256.858 138.307 256.858 108.792C256.858 79.2658 273.607 44.9212 311.041 44.9212" fill="currentColor"/>
</svg>
