<svg width="1243" height="500" viewBox="0 0 1243 500" fill="none" xmlns="http://www.w3.org/2000/svg">
<path d="M1037.11 266.963C1036.1 322.729 1048.14 352.267 1094.11 352.267C1140.01 352.267 1146.59 301.951 1146.59 263.661C1146.59 225.347 1137.88 188.153 1089.66 188.153C1060.08 188.153 1038.24 211.138 1037.11 266.963ZM944.104 500V122.515H1038.24C1038.24 122.515 1038.24 127.982 1038.24 137.828C1038.24 158.252 1046.48 149.83 1053.12 141.87C1054.23 140.54 1075.21 114.859 1122.46 114.859C1169.57 114.859 1242.85 147.674 1242.85 263.661C1242.85 353.379 1199.13 419.017 1123.62 419.017C1082.02 419.017 1057.96 402.635 1052.46 396.023C1046.95 389.504 1039.31 388.367 1039.31 396.023C1039.31 403.696 1039.31 500 1039.31 500H944.104" fill="black"/>
<path d="M216.491 0.00144971H318.253C318.253 0.00144971 318.253 220.994 318.253 266.965C318.253 312.885 298.536 409.197 157.415 409.197C16.2772 409.197 0.964844 319.429 0.964844 269.138V219.907H99.4421C99.4421 219.907 99.4421 238.505 99.4421 268.026C99.4421 297.564 119.143 324.904 156.32 324.904C193.514 324.904 216.491 304.125 216.491 269.138C216.491 234.125 216.491 0.00144971 216.491 0.00144971Z" fill="black"/>
<path d="M531.067 226.467C531.067 199.085 515.78 172.832 480.767 172.832C446.849 172.832 434.805 196.879 434.805 226.467H531.067ZM470.955 111.574C550.868 111.574 620.86 142.199 620.86 283.345H431.596C431.596 328.204 450.176 346.809 482.999 346.809C515.83 346.809 526.763 320.531 526.763 320.531H619.791C619.791 361.027 563.982 415.732 479.714 414.645C383.46 414.645 336.403 343.525 336.403 270.214C336.403 196.879 377.952 111.574 470.955 111.574" fill="black"/>
<path d="M833.633 226.467C833.633 199.085 818.329 172.832 783.316 172.832C749.415 172.832 737.346 196.879 737.346 226.467H833.633ZM773.521 111.574C853.426 111.574 923.401 142.199 923.401 283.345H734.145C734.145 328.204 752.742 346.809 785.59 346.809C818.388 346.809 829.338 320.531 829.338 320.531H922.365C922.365 361.027 866.549 415.732 782.306 414.645C686.001 414.645 638.944 343.525 638.944 270.214C638.944 196.879 680.544 111.574 773.521 111.574" fill="black"/>
</svg>
