<svg width="687" height="500" viewBox="0 0 687 500" fill="none" xmlns="http://www.w3.org/2000/svg">
<path fill-rule="evenodd" clip-rule="evenodd" d="M317.023 0.469567C311.978 0.702952 304.9 1.16132 301.293 1.48806C297.687 1.8148 290.371 2.28525 285.036 2.53385C273.569 3.06827 256.548 5.61452 241.264 9.08226C238.097 9.80077 234.44 10.3971 233.137 10.4076C231.834 10.4175 229.471 10.7464 227.885 11.1376C221.64 12.679 208.962 16.3009 206.65 17.2046C205.784 17.5423 203.661 18.0432 201.931 18.317C197.602 19.0024 186.196 22.7864 182.124 24.8879C181.324 25.3007 179.383 25.8765 177.81 26.1671C174.921 26.7015 173.15 27.3807 166.014 30.6905C163.852 31.6933 161.138 32.9494 159.985 33.4812C158.831 34.013 157.062 34.581 156.052 34.7431C155.043 34.9051 152.683 35.9818 150.809 37.1356C148.935 38.2895 147.152 39.2335 146.848 39.2335C146.544 39.234 145.22 39.9163 143.906 40.7497C142.592 41.5836 140.756 42.4327 139.828 42.6367C138.391 42.9519 133.09 45.956 128.263 49.1888C127.542 49.6718 126.218 50.3201 125.322 50.629C123.396 51.2924 120.22 53.266 118.091 55.1226C117.254 55.8521 115.248 57.0924 113.634 57.8786C112.019 58.6653 110.58 59.4708 110.436 59.6691C110.292 59.8668 108.758 60.9855 107.028 62.1545C105.298 63.3241 103.433 64.7815 102.883 65.3931C102.334 66.0051 101.542 66.506 101.124 66.506C100.194 66.506 96.6893 69.1854 94.1102 71.8686C93.061 72.96 91.4094 74.1977 90.4399 74.6188C89.4699 75.0405 87.2609 76.8399 85.5307 78.6168C83.8004 80.3942 81.7304 82.0793 80.9302 82.362C80.1307 82.6441 79.1869 83.4004 78.833 84.0413C78.4796 84.6827 76.7745 86.4376 75.0442 87.9412C73.3139 89.4448 71.6623 90.9448 71.3739 91.2747C71.0856 91.6045 68.94 93.7842 66.6062 96.1186C64.2725 98.4535 62.2669 100.626 62.1495 100.947C61.8045 101.889 57.5984 106.264 56.4423 106.883C55.8582 107.196 55.0334 108.282 54.6097 109.296C54.1861 110.31 52.3111 112.692 50.4435 114.588C48.5753 116.484 46.9058 118.678 46.7333 119.463C46.5614 120.248 45.5987 121.688 44.5946 122.661C42.8817 124.321 42.0306 125.554 36.3821 134.555C35.1599 136.502 33.8827 138.331 33.544 138.619C32.4376 139.561 30.743 142.788 30.7409 143.958C30.7399 144.586 30.3975 145.441 29.9806 145.858C28.3012 147.538 22.9962 157.143 22.3921 159.598C22.0372 161.04 21.4373 162.574 21.0593 163.007C19.8984 164.335 14.4848 176.506 14.4827 177.792C14.4816 178.458 13.7623 180.891 12.8841 183.198C9.39415 192.367 7.04307 200.172 6.64354 203.915C6.41284 206.078 5.85543 209.264 5.40556 210.995C2.98895 220.286 0.850304 238.883 0.854498 250.565C0.859217 263.698 3.07026 283.259 5.62215 292.737C5.92625 293.867 6.37818 296.706 6.62619 299.045C7.05351 303.079 8.49751 308.359 11.591 317.198C12.3476 319.362 13.207 321.567 13.4996 322.099C13.7921 322.632 14.2347 324.315 14.4827 325.84C14.7474 327.468 16.4657 331.773 18.6416 336.263C20.6812 340.471 22.3496 344.236 22.3496 344.629C22.3496 345.53 26.2884 353.124 27.844 355.222C29.5208 357.484 30.7388 359.991 30.7388 361.183C30.7388 361.75 30.9386 362.293 31.1824 362.389C31.8241 362.642 38.4648 372.507 39.3404 374.508C39.7478 375.438 40.7183 376.908 41.4974 377.773C44.4688 381.074 46.4685 383.672 46.4685 384.232C46.4685 384.552 47.7977 386.298 49.4221 388.112C51.047 389.925 53.2695 392.613 54.3617 394.084C57.5968 398.442 76.4195 417.143 82.9091 422.449C84.351 423.627 86.4613 425.445 87.5991 426.488C88.7369 427.53 89.9429 428.384 90.2795 428.384C90.6156 428.384 92.0438 429.473 93.4537 430.804C94.8636 432.135 96.7518 433.647 97.6494 434.163C98.5471 434.68 99.8421 435.42 100.527 435.808C101.213 436.196 102.13 436.885 102.565 437.34C103.688 438.513 109.003 442.02 109.658 442.02C109.958 442.02 110.545 442.492 110.96 443.069C111.376 443.646 112.013 444.118 112.377 444.118C113.056 444.118 117.547 446.925 119.874 448.805C120.595 449.387 121.55 449.869 121.997 449.875C122.444 449.881 123.034 450.099 123.308 450.357C123.582 450.616 125.694 451.833 128.001 453.063C130.308 454.293 132.785 455.7 133.506 456.19C134.227 456.68 137.059 458.078 139.798 459.297C142.538 460.515 146.752 462.554 149.164 463.828C151.576 465.102 153.879 466.145 154.282 466.145C154.685 466.145 156.015 466.589 157.238 467.132C158.46 467.675 160.286 468.421 161.295 468.79C162.305 469.159 164.782 470.212 166.801 471.129C168.82 472.046 173.302 473.7 176.763 474.805C180.224 475.91 186.004 477.823 189.609 479.057C195.56 481.093 202.247 482.959 210.058 484.762C211.644 485.128 216.835 486.38 221.593 487.543C239.211 491.851 274.091 497.201 290.803 498.16C295.562 498.432 302.404 498.905 306.009 499.211C314.241 499.908 362.153 500.29 371.287 499.732C392.666 498.427 397.852 498.034 406.417 497.07C417.221 495.855 436.499 492.889 445.746 491.019C449.21 490.319 452.631 489.741 453.349 489.735C454.067 489.728 457.722 488.901 461.471 487.896C465.22 486.891 469.939 485.684 471.957 485.213C473.976 484.743 477.549 483.8 479.898 483.119C482.247 482.437 484.554 481.879 485.026 481.879C485.498 481.879 489.121 480.74 493.077 479.348C504.175 475.444 506.925 474.52 509.073 473.976C510.165 473.699 513.667 472.296 516.854 470.858C520.041 469.42 523.085 468.243 523.62 468.243C524.153 468.243 524.725 468.024 524.891 467.757C525.056 467.489 526.072 466.992 527.15 466.653C529.963 465.767 552.913 454.647 554.379 453.46C554.724 453.181 557.083 451.884 559.622 450.578C562.161 449.272 564.356 448.027 564.501 447.811C564.764 447.417 570.423 443.93 574.751 441.495C576.033 440.774 578.064 439.363 579.266 438.36C580.467 437.356 581.943 436.277 582.545 435.962C585.075 434.634 586.31 433.8 588.069 432.229C590.706 429.874 592.655 428.384 593.097 428.384C593.641 428.384 608.223 416.085 611.752 412.65C613.382 411.063 615.627 408.918 616.742 407.883C617.856 406.847 620.527 404.192 622.677 401.982L626.586 397.965H599.722H572.858L571.322 399.715C570.477 400.677 568.774 402.147 567.536 402.981C566.3 403.815 564.231 405.529 562.94 406.789C561.648 408.048 559.702 409.533 558.614 410.088C557.526 410.643 556.636 411.329 556.636 411.612C556.636 411.894 556.4 412.125 556.112 412.125C555.646 412.125 549.433 416.615 548.771 417.43C548.627 417.608 547.978 417.919 547.329 418.122C546.68 418.324 546.149 418.684 546.149 418.921C546.149 419.159 545.065 419.862 543.739 420.485C542.414 421.108 541.058 421.839 540.725 422.109C537.916 424.384 536.204 425.432 530.944 428.093C527.628 429.771 524.796 431.302 524.652 431.496C524.179 432.132 520.61 434.153 519.96 434.153C519.611 434.153 515.651 435.923 511.162 438.086C506.672 440.25 502.576 442.02 502.059 442.02C501.542 442.02 500.995 442.221 500.843 442.467C500.691 442.713 499.202 443.333 497.535 443.844C495.868 444.356 493.088 445.409 491.357 446.186C487.913 447.731 484.281 449.012 477.463 451.085C475.012 451.83 469.939 453.393 466.19 454.559C462.441 455.724 458.312 456.913 457.014 457.201C455.716 457.489 452.177 458.305 449.149 459.016C446.121 459.726 442.346 460.533 440.76 460.809C439.174 461.085 433.865 462.141 428.963 463.157C424.06 464.171 418.28 465.251 416.117 465.556C406.231 466.948 398.032 467.865 391.998 468.251C388.393 468.482 379.781 469.068 372.86 469.553C349.259 471.207 310.878 470.18 284.774 467.197C279.871 466.636 274.498 466.035 272.832 465.86C271.167 465.685 265.976 464.749 261.297 463.779C256.618 462.81 250.784 461.629 248.333 461.155C245.882 460.681 241.741 459.722 239.131 459.023C236.521 458.325 233.925 457.755 233.363 457.755C232.801 457.756 228.566 456.57 223.952 455.119C219.338 453.669 213.675 451.887 211.368 451.161C209.061 450.434 206.348 449.582 205.339 449.267C204.329 448.953 201.202 447.666 198.388 446.406C195.575 445.148 192.976 444.118 192.613 444.118C192.25 444.118 191.072 443.646 189.996 443.069C188.92 442.492 187.705 442.02 187.296 442.02C186.887 442.02 183.129 440.25 178.946 438.086C174.762 435.923 170.991 434.153 170.565 434.153C170.139 434.153 168.527 433.302 166.984 432.261C165.442 431.221 162.882 429.683 161.295 428.844C155.518 425.787 152.385 423.895 150.697 422.445C149.749 421.631 148.266 420.658 147.401 420.283C145.662 419.53 134.396 411.223 134.118 410.49C134.022 410.235 133.643 410.028 133.276 410.028C132.91 410.028 131.101 408.659 129.257 406.986C127.413 405.312 124.484 402.863 122.749 401.542C121.014 400.222 119.286 398.582 118.909 397.898C118.532 397.213 117.035 395.731 115.583 394.604C114.132 393.476 112.277 391.633 111.462 390.508C110.647 389.383 109.022 387.703 107.849 386.775C106.677 385.847 104.749 383.796 103.565 382.218C102.381 380.638 100.433 378.285 99.235 376.987C98.0374 375.689 95.474 372.384 93.5387 369.644C91.6029 366.904 89.472 364.072 88.8035 363.351C88.135 362.63 87.2626 361.213 86.8651 360.204C86.4672 359.194 85.0295 356.834 83.6699 354.959C82.3103 353.084 80.557 350.252 79.7736 348.666C77.2097 343.473 76.2224 341.626 74.4344 338.679C73.4644 337.081 71.8836 333.541 70.9209 330.813C69.9583 328.084 68.6936 324.908 68.1105 323.754C66.007 319.59 63.3853 312.083 61.7007 305.398C60.7559 301.648 59.4204 296.456 58.733 293.86C55.6028 282.033 54.9857 277.566 54.3554 262.154C53.3188 236.805 54.9306 221.503 60.3416 205.326C61.3625 202.274 62.1983 199.318 62.1983 198.758C62.1983 196.493 66.3672 185.659 69.5084 179.76C70.0548 178.734 70.664 177.03 70.8622 175.973C71.0604 174.916 71.9092 172.968 72.7482 171.645C73.5871 170.321 74.9729 167.853 75.8271 166.161C76.6812 164.468 77.6034 162.945 77.8761 162.776C78.1487 162.608 78.5331 161.706 78.7307 160.772C79.1051 159.002 80.7488 155.963 82.0565 154.624C82.9709 153.689 86.3172 148.512 86.3172 148.033C86.3172 147.461 92.2499 139.17 92.9819 138.721C93.3605 138.488 94.2408 137.19 94.9381 135.836C95.636 134.482 96.8105 132.785 97.5487 132.064C98.287 131.342 99.495 130.162 100.234 129.441C100.972 128.72 101.926 127.422 102.353 126.557C103.413 124.412 104.132 123.564 106.008 122.248C106.889 121.63 108.654 119.69 109.93 117.937C111.206 116.184 112.655 114.622 113.149 114.465C114.149 114.148 119.35 108.648 119.35 107.91C119.35 107.652 120.071 107.068 120.952 106.612C121.834 106.156 124.016 104.29 125.802 102.466C127.588 100.642 129.757 98.7849 130.623 98.3397C131.488 97.8944 133.422 96.2576 134.92 94.7025C136.419 93.1475 138.54 91.4178 139.634 90.8598C140.727 90.3013 142.297 89.1894 143.123 88.3886C143.95 87.5877 147.374 85.1359 150.732 82.9399C154.091 80.7445 157.839 78.1411 159.06 77.1551C160.282 76.1697 162.314 75.0111 163.576 74.5811C164.837 74.151 166.315 73.3932 166.86 72.8976C167.404 72.4014 169.548 70.9927 171.625 69.7676C173.701 68.5419 175.544 67.3063 175.719 67.0226C175.895 66.7383 176.681 66.506 177.466 66.506C178.735 66.506 181.491 65.0847 189.656 60.2208C190.979 59.4326 192.985 58.6165 194.112 58.4073C195.24 58.198 197.225 57.4742 198.523 56.7987C204.313 53.7857 210.053 51.3029 212.443 50.7784C215.402 50.1286 218.566 49.0336 222.428 47.3238C223.897 46.6735 226.296 45.7856 227.761 45.3508C229.226 44.9155 230.927 44.2903 231.542 43.961C232.157 43.6316 234.476 43.06 236.695 42.6907C238.915 42.3215 244.388 40.9396 248.858 39.6195C260.456 36.1953 267.598 34.5165 270.617 34.5055C272.059 34.5002 274.89 34.1436 276.909 33.7141C296.355 29.5719 323.18 26.6538 341.854 26.6496C352.435 26.647 353.464 26.7298 355.226 27.72C357.506 29.0018 359.595 32.3935 359.595 34.8149C359.595 36.5409 357.017 42.3808 356.256 42.3808C355.711 42.3808 353.198 45.1442 353.198 45.7436C353.198 46.0127 352.07 47.5493 350.691 49.1579C346.981 53.4862 344.809 56.3634 344.809 56.9498C344.809 57.2356 344.208 57.8629 343.474 58.3438C342.741 58.8247 341.932 59.7373 341.677 60.3708C341.421 61.0049 339.426 63.7657 337.243 66.506C335.06 69.2457 333.274 71.7448 333.274 72.0595C333.274 72.3736 332.436 73.3937 331.411 74.3262C330.387 75.2587 329.342 76.5352 329.089 77.1641C328.836 77.7924 326.842 80.5484 324.659 83.2887C322.476 86.0285 320.69 88.5213 320.69 88.8275C320.69 89.1343 319.982 89.9085 319.117 90.5483C318.252 91.1881 317.544 91.9864 317.544 92.3225C317.544 92.6582 315.774 95.2317 313.612 98.0407C311.449 100.85 309.679 103.362 309.679 103.624C309.679 103.886 308.616 105.226 307.317 106.602C306.017 107.978 304.602 109.847 304.171 110.756C303.74 111.664 302.856 112.995 302.208 113.713C300.656 115.431 296.571 120.925 296.571 121.294C296.571 121.454 295.863 122.325 294.998 123.23C294.133 124.136 293.425 125.093 293.425 125.358C293.425 125.908 290.934 129.419 289.943 130.266C289.243 130.865 285.56 136.196 285.56 136.611C285.56 136.747 284.492 138.08 283.186 139.574C281.879 141.068 280.405 143.036 279.909 143.948C279.006 145.607 273.403 153.279 271.422 155.569C270.843 156.239 269.989 157.587 269.525 158.567C269.06 159.546 267.76 161.241 266.634 162.333C265.509 163.425 264.588 164.554 264.587 164.842C264.586 165.377 262.422 168.485 258.427 173.693C257.201 175.291 256.198 176.803 256.198 177.053C256.198 177.304 255.608 178.063 254.887 178.741C254.166 179.418 253.567 180.226 253.555 180.536C253.543 180.847 252.491 182.399 251.217 183.985C249.942 185.572 248.124 188.129 247.175 189.669C246.226 191.209 244.328 193.783 242.959 195.389C241.589 196.995 240.468 198.551 240.468 198.847C240.468 199.143 239.217 201.053 237.688 203.092C231.453 211.407 230.218 213.146 229.657 214.401C229.334 215.124 228.079 216.832 226.867 218.197C225.656 219.563 224.106 221.732 223.422 223.018C222.738 224.304 221.159 226.609 219.912 228.14C218.665 229.671 217.069 231.868 216.364 233.022C215.66 234.176 214.91 235.194 214.698 235.285C214.487 235.375 213.826 236.455 213.232 237.684C212.637 238.913 211.313 240.897 210.29 242.093C209.267 243.289 207.619 245.852 206.626 247.789C205.635 249.726 204.63 251.444 204.393 251.607C203.773 252.034 200.095 258.237 200.095 258.856C200.095 259.144 199.743 259.672 199.313 260.029C198.882 260.386 198.286 261.584 197.988 262.691C197.69 263.799 196.858 265.403 196.14 266.257C195.422 267.111 194.226 269.187 193.483 270.87C192.74 272.553 191.683 274.92 191.133 276.13C190.583 277.34 190.133 278.705 190.133 279.163C190.133 279.622 189.577 281.109 188.897 282.47C186.124 288.019 184.311 294.626 183.281 302.931C182.724 307.426 182.27 313.242 182.272 315.856C182.276 321.193 183.863 332.587 185.063 335.889C185.93 338.276 189.923 345.949 192.062 349.339C193.745 352.006 204.064 362.302 205.053 362.302C205.451 362.302 205.854 362.489 205.951 362.719C206.203 363.323 216.66 370.169 217.33 370.169C217.64 370.169 218.904 370.63 220.137 371.194C224.218 373.06 233.34 376.388 236.536 377.177C242.651 378.686 252.901 380.079 261.966 380.632C275.019 381.428 624.826 381.4 631.352 380.603C633.947 380.285 637 379.578 638.136 379.031C639.271 378.483 640.498 378.036 640.862 378.036C641.226 378.036 642.42 376.945 643.516 375.612C644.612 374.279 646.497 372.248 647.706 371.098C648.914 369.949 650.396 367.957 651 366.672C651.955 364.64 654.078 361.22 657.305 356.516C658.677 354.518 660.452 350.897 660.452 350.1C660.452 349.712 661.064 348.581 661.812 347.587C663.526 345.31 668.316 335.415 668.319 334.145C668.32 333.622 668.752 332.486 669.279 331.621C670.644 329.379 675.133 318.802 675.133 317.827C675.133 317.378 675.364 316.286 675.647 315.4C680.977 298.683 682.535 292.676 683.477 285.206C683.786 282.754 684.398 278.152 684.835 274.979C685.273 271.806 685.911 264.805 686.252 259.421C686.915 248.973 686.452 237.652 684.905 226.466C684.486 223.438 683.858 218.6 683.509 215.715C682.586 208.085 681.998 205.747 676.777 188.968C675.879 186.083 675.141 183.251 675.136 182.674C675.131 182.097 674.753 180.917 674.297 180.052C673.841 179.186 672.862 176.944 672.122 175.069C671.382 173.194 670.505 171.306 670.173 170.874C669.334 169.782 668.317 167.311 668.317 166.366C668.317 165.133 663.926 156.108 662.099 153.585C661.193 152.334 660.452 150.927 660.452 150.457C660.452 149.379 655.01 140.119 653.324 138.328C652.631 137.591 652.063 136.743 652.063 136.442C652.063 135.371 650.292 132.294 648.544 130.329C647.567 129.231 645.918 126.989 644.878 125.347C642.762 122.006 638.443 116.345 636.221 114.001C635.418 113.153 634.76 112.29 634.76 112.084C634.76 111.367 630.967 107.147 629.722 106.479C629.032 106.11 628.468 105.449 628.468 105.012C628.468 104.574 626.812 102.583 624.789 100.587C622.765 98.5909 619.928 95.5375 618.483 93.801C617.039 92.065 615.285 90.5006 614.585 90.3249C613.885 90.1492 612.37 88.7573 611.219 87.2321C610.068 85.7065 608.228 83.9207 607.131 83.263C606.033 82.6053 603.956 80.8851 602.514 79.4402C601.072 77.9953 598.942 76.2048 597.781 75.4617C595.665 74.108 592.24 71.4029 588.601 68.2105C587.532 67.2727 586.381 66.506 586.043 66.506C585.411 66.506 581.178 63.4924 578.395 61.061C577.53 60.3053 575.996 59.3219 574.987 58.8756C572.712 57.8702 572.855 57.9578 567.56 54.3516C565.157 52.7142 561.836 50.7816 560.182 50.0563C558.528 49.3315 556.404 48.1661 555.463 47.4675C553.443 45.9676 548.618 43.4517 544.576 41.7913C542.99 41.1399 540.867 40.0983 539.857 39.4774C536.703 37.5369 530.263 34.5139 529.284 34.5139C528.769 34.5139 526.75 33.7801 524.796 32.8833C514.719 28.2576 511.092 26.7597 509.184 26.4361C508.031 26.24 506.453 25.8309 505.679 25.5272C504.541 25.0804 504.015 25.1601 502.939 25.9416C502.207 26.4739 501.455 27.3649 501.267 27.9219C501.08 28.4789 500.248 29.8713 499.419 31.0162C498.59 32.1611 497.911 33.4167 497.911 33.8058C497.911 34.1955 497.613 34.5139 497.248 34.5139C496.883 34.5139 495.645 36.0642 494.496 37.9596C493.346 39.8545 491.901 41.9198 491.282 42.5486C488.914 44.959 489.158 45.7966 492.822 47.8467C494.663 48.8762 496.974 49.9765 497.958 50.2918C500.275 51.0344 504.208 53.0908 508.042 55.5641C509.721 56.6477 511.963 57.8125 513.024 58.1529C515.246 58.8667 517.998 60.4904 522.958 64.0148C524.887 65.3852 526.983 66.506 527.616 66.506C528.248 66.506 529.433 67.0603 530.248 67.7385C532.581 69.6774 539.295 74.3729 539.735 74.3729C540.438 74.3729 545.496 77.967 547.825 80.122C549.066 81.2701 550.672 82.3463 551.393 82.5136C552.114 82.6803 554.463 84.4572 556.614 86.4617C558.766 88.4667 560.816 90.1067 561.172 90.1067C561.527 90.1067 562.846 91.11 564.103 92.3357C565.36 93.5613 567.556 95.5805 568.984 96.8224C573.66 100.89 579.807 106.601 580.948 107.936C581.562 108.656 583.403 110.662 585.038 112.394C586.673 114.126 588.792 116.487 589.745 117.641C590.699 118.795 592.605 120.997 593.982 122.535C595.358 124.072 596.484 125.626 596.484 125.989C596.484 126.351 597.713 127.986 599.214 129.623C600.716 131.259 602.663 133.852 603.54 135.384C604.418 136.917 606.222 139.806 607.551 141.804C610.195 145.784 611.651 148.451 613.039 151.862C613.538 153.088 614.134 154.091 614.364 154.091C615.006 154.091 620.603 166.156 620.603 167.54C620.603 167.997 621.068 169.229 621.637 170.278C623.329 173.4 626.895 182.737 626.895 184.046C626.895 184.715 627.223 186.213 627.623 187.377C628.024 188.54 628.594 190.672 628.89 192.114C629.186 193.557 630.017 197.097 630.737 199.981C631.995 205.022 632.656 208.187 633.75 214.404C635.461 224.127 636.413 256.871 635.281 267.076C634.105 277.688 632.297 285.795 629.799 291.669C629.33 292.771 628.737 294.659 628.48 295.865C627.667 299.68 626.041 303.644 622.743 309.856C620.981 313.173 619.067 316.922 618.487 318.186C617.908 319.45 616.71 321.401 615.824 322.52L614.212 324.554L458.931 324.416L303.649 324.278L300.625 322.793C293.43 319.26 290.082 308.477 292.895 297.896C293.801 294.491 298.165 285.735 300.008 283.627C300.389 283.192 301.67 280.95 302.854 278.645C304.038 276.34 306.764 271.622 308.912 268.161C311.06 264.7 312.819 261.608 312.821 261.292C312.824 260.976 313.325 260.15 313.936 259.457C315.58 257.59 317.544 254.386 317.544 253.568C317.544 253.174 318.001 252.439 318.559 251.934C319.116 251.429 320.041 250.019 320.614 248.801C321.186 247.583 322.499 245.48 323.532 244.127C324.564 242.773 325.409 241.489 325.409 241.271C325.409 241.053 326.235 239.649 327.244 238.149C328.253 236.65 329.079 235.286 329.079 235.119C329.079 234.951 329.53 234.33 330.081 233.739C330.631 233.148 331.634 231.575 332.309 230.244C332.984 228.913 334.053 227.286 334.684 226.628C335.316 225.971 336.43 224.244 337.159 222.792C337.888 221.339 339.199 219.388 340.072 218.457C340.944 217.526 341.659 216.548 341.66 216.286C341.663 215.823 344.732 210.741 345.331 210.208C346.006 209.607 349.528 204.402 349.528 204.005C349.528 203.767 350.106 203.03 350.812 202.366C351.519 201.702 352.558 200.186 353.122 198.997C353.686 197.807 354.877 196.141 355.77 195.294C356.662 194.447 357.393 193.52 357.393 193.235C357.393 192.69 360.899 187.249 361.832 186.345C362.977 185.237 365.257 181.93 365.257 181.38C365.257 181.063 365.91 180.162 366.708 179.378C367.506 178.595 368.784 176.892 369.548 175.594C370.311 174.296 371.379 172.762 371.921 172.185C373.44 170.568 377.317 165.202 377.317 164.718C377.317 164.48 378.139 163.511 379.144 162.562C380.149 161.614 381.329 160.085 381.766 159.163C382.203 158.243 383.101 156.901 383.762 156.183C385.557 154.234 389.376 149.073 389.376 148.598C389.376 148.37 390.143 147.421 391.08 146.489C392.017 145.556 393.445 143.758 394.252 142.493C395.059 141.228 397.001 138.659 398.567 136.784C400.133 134.909 401.42 133.097 401.425 132.757C401.431 132.418 401.977 131.71 402.639 131.184C403.3 130.658 404.711 128.93 405.775 127.343C406.839 125.757 408.653 123.397 409.808 122.099C410.962 120.801 412.266 118.991 412.705 118.077C413.144 117.164 414.18 115.847 415.006 115.152C415.832 114.456 416.811 113.316 417.181 112.617C417.88 111.296 420.936 107.372 422.558 105.713C423.073 105.186 424.314 103.472 425.317 101.904C426.32 100.336 427.61 98.8012 428.183 98.4944C428.756 98.1876 429.225 97.6836 429.225 97.3747C429.225 96.738 432.68 92.0892 434.627 90.1067C435.335 89.3856 436.528 87.8059 437.277 86.596C438.026 85.3865 439.411 83.5861 440.355 82.5948C441.299 81.6036 442.661 79.9086 443.382 78.8282C444.103 77.7478 445.813 75.6541 447.183 74.1762C448.552 72.6978 449.676 71.2523 449.68 70.9639C449.685 70.6754 451.01 68.9054 452.626 67.0304C454.242 65.1555 456.217 62.6145 457.016 61.3836C457.815 60.1527 459.085 58.6606 459.838 58.0679C460.592 57.4748 461.213 56.7117 461.218 56.3718C461.223 56.0325 462.674 54.1072 464.443 52.0938C466.212 50.0804 468.318 47.3611 469.124 46.0515C469.93 44.7414 471.31 43.1365 472.191 42.4852C473.072 41.8332 473.802 41.0125 473.814 40.6605C473.826 40.3086 474.533 39.2036 475.387 38.205C476.24 37.2064 476.938 35.9671 476.938 35.4516C476.938 34.9355 477.168 34.5139 477.448 34.5139C478.245 34.5139 479.706 28.8004 479.398 26.8966C479.245 25.9563 478.51 23.8967 477.764 22.3202C476.591 19.84 475.896 19.1383 472.61 17.1212C470.521 15.8384 467.396 14.2786 465.666 13.6545C461.141 12.0229 453.849 10.3887 451.093 10.3887C449.789 10.3887 444.631 9.5763 439.629 8.5835C420.133 4.71298 405.354 2.52178 398.748 2.52178C396.217 2.52178 390.182 2.1662 385.338 1.73142C366.629 0.0520994 337.632 -0.483378 317.023 0.469567Z" fill="black"/>
</svg>
