<svg width="501" height="75" viewBox="0 0 501 75" fill="none" xmlns="http://www.w3.org/2000/svg">
<g clip-path="url(#clip0_201_23)">
<path fill-rule="evenodd" clip-rule="evenodd" d="M450.937 73.8945V32.8478H448.276L426.24 73.9437H392.917L370.881 32.8478H368.809V73.8945H319.168V0.621582H397.006L410.614 23.4362L425.253 0.621582H500.035V73.8945H450.937Z" fill="currentColor"/>
<path fill-rule="evenodd" clip-rule="evenodd" d="M110.499 48.665C110.499 48.665 131.401 44.3285 131.401 27.7226C131.401 0.768983 98.5203 0.719727 98.5203 0.719727H0.37207V74.6332H53.9568V50.2908H62.2385L80.5273 74.1896H137.513L110.499 48.665ZM66.1329 32.9952H53.5132V15.7487H67.3655C69.8588 15.9236 72.1927 17.0387 73.895 18.8683C75.597 20.6978 76.5406 23.1054 76.5344 25.6039C76.5344 32.8967 66.3301 32.9952 66.3301 32.9952H66.1329Z" fill="currentColor"/>
<path fill-rule="evenodd" clip-rule="evenodd" d="M267.457 0.719727H187.203L148.703 73.9432H202.928L210.372 56.3026H243.499L250.646 73.8939H305.563L267.457 0.719727ZM215.351 39.5488L226.935 16.7343L238.471 39.4996L215.351 39.5488Z" fill="currentColor"/>
</g>
<defs>
<clipPath id="clip0_201_23">
<rect width="500" height="74.359" fill="white" transform="translate(0.203613 0.473633)"/>
</clipPath>
</defs>
</svg>
