<svg width="487" height="500" viewBox="0 0 487 500" fill="none" xmlns="http://www.w3.org/2000/svg">
<path fill-rule="evenodd" clip-rule="evenodd" d="M233.619 0.0309005C171.928 0.455775 86.4177 5.27696 50.5496 10.353C32.2218 12.9468 20.4589 17.7783 12.1427 26.1288C5.82591 32.4717 2.35904 39.7856 0.892252 49.8638C0.127149 55.1202 0.699153 116.254 1.92705 160.441C5.03305 272.223 12.3789 342.379 23.2476 364.058C26.5463 370.638 37.0547 381.889 49.8163 392.503C79.6175 417.291 129.642 447.026 193.703 478.03C211.368 486.58 238.763 499.117 241.211 499.772C242.346 500.076 244.751 500.076 245.877 499.773C246.897 499.498 255.226 495.947 265.026 491.608C300.519 475.894 337.051 457.769 365.729 441.643C411.857 415.705 443.011 392.513 457.79 373.109C462.546 366.867 464.437 363.042 466.665 355.16C475.117 325.26 481.079 257.519 484.563 151.826C485.465 124.459 486.376 81.0692 486.453 61.8235C486.49 52.3934 486.469 51.7474 486.037 49.053C483.705 34.5317 476.232 24.3329 463.092 17.7362C453.092 12.7159 442.089 10.4754 414.359 7.81303C362.259 2.81103 288.861 -0.349378 233.619 0.0309005ZM281.641 19.344C334.009 20.6689 382.701 23.4774 419.019 27.2679C435.226 28.9592 443.044 30.331 449.761 32.6615C461.279 36.6581 466.434 42.5524 467.553 53.0058C468.218 59.2224 466.889 122.145 465.111 168.549C461.348 266.803 455.282 332.496 448.119 352.564C447.095 355.431 446.331 356.915 444.495 359.6C434.382 374.388 411.741 392.525 377.988 412.876C346.535 431.841 304.151 453.47 259.15 473.521C252.105 476.66 243.724 480.312 243.567 480.312C243.225 480.312 223.55 471.297 213.154 466.377C144.996 434.117 91.001 402.605 61.4912 377.866C50.9958 369.067 41.7019 359.211 39.209 354.237C29.1739 334.21 21.8708 242.692 19.5465 107.838C19.1854 86.8832 19.0596 55.3793 19.3275 52.9417C20.4782 42.4662 25.8825 36.4896 37.8071 32.505C44.1935 30.3709 50.685 29.1938 64.4293 27.6767C102.077 23.5214 162.955 20.121 217.004 19.1543C228.655 18.9459 270.795 19.0696 281.641 19.344ZM337.97 80.1043C327.87 80.981 320.063 83.2574 318.68 85.729C318.537 85.9854 318.387 85.9816 317.529 85.699C316.691 85.4231 316.315 85.4095 315.032 85.609C311.846 86.1046 307.199 88.1649 303.043 90.925C298.899 93.6767 296.566 95.9189 295.942 97.7493L295.612 98.7162L293.996 98.7256C292.504 98.7341 292.229 98.8064 290.43 99.6633C287.255 101.175 284.422 103.244 281.06 106.506C278.781 108.718 277.283 110.589 276.744 111.897C276.433 112.653 276.307 112.775 275.967 112.654C273.17 111.657 264.185 116.753 257.659 123.037C254.031 126.529 251.897 129.621 251.218 132.367C250.506 135.241 250.824 143.284 252.069 153.954C253.376 165.146 256.813 186.768 257.692 189.326C259.779 195.399 263.77 198.853 269.53 199.569C274.088 200.135 279.691 198.443 284.022 195.191C286.33 193.458 287.686 191.938 290.459 187.973C315.835 151.698 346.749 124.563 372.051 116.353C374.993 115.398 376.666 115.158 379.305 115.312C384.887 115.636 391.259 117.902 400.479 122.843C409.769 127.82 411.459 128.565 412.156 127.985C412.882 127.383 412.041 123.237 410.447 119.56C405.998 109.298 393.455 94.7687 385.931 91.1611C384.636 90.5403 384.317 90.4659 383.37 90.5636L382.289 90.6753L381.925 89.8665C380.133 85.8928 367.267 81.1553 358.131 81.1057C355.713 81.0925 355.28 81.1434 354.405 81.5429L353.414 81.9951L352.379 81.4924C350.151 80.411 346.963 79.9523 342.022 80.0015C340.239 80.0193 338.416 80.0656 337.97 80.1043ZM141.529 80.5922C139.068 80.829 137.016 81.3278 135.739 82L134.631 82.5832L133.884 82.1421C132.842 81.5275 128.919 81.4012 125.636 81.8765C116.159 83.2487 107.237 87.2692 106.039 90.7071C105.869 91.1948 105.741 91.3051 105.487 91.1822C104.722 90.8119 103.333 91.0537 101.813 91.8216C94.3682 95.5834 82.504 109.269 78.0119 119.277C76.4693 122.714 75.4274 126.791 75.7563 128.102C76.0458 129.256 77.6046 128.695 84.2863 125.03C94.5931 119.378 99.9928 117.085 105.466 116.038C107.344 115.678 108.262 115.615 110.512 115.688C113.017 115.77 113.468 115.846 115.592 116.545C141.201 124.977 171.188 151.085 197.203 187.603C201.917 194.22 204.338 196.443 209.021 198.454C212.578 199.983 216.906 200.474 219.942 199.694C224.69 198.475 228.258 194.844 229.928 189.529C231.084 185.849 234.134 168.917 235.532 158.414C237.139 146.34 237.487 138.665 236.624 134.291C236.079 131.522 234.02 128.247 230.458 124.482C226.277 120.062 219.954 115.363 215.956 113.705C214.899 113.267 214.234 113.129 213.137 113.12L211.701 113.108L211.174 111.994C210.884 111.38 209.927 110.058 209.047 109.054C204.045 103.348 196.801 98.7073 193.502 99.0953L192.468 99.2169L192.212 98.2597C191.997 97.4568 191.623 96.9736 189.891 95.2605C185.294 90.713 176.971 86.3562 172.378 86.0922C171.281 86.0292 170.495 86.0848 170.085 86.2544C169.489 86.5015 169.437 86.4817 168.863 85.7852C168.534 85.3852 167.787 84.7884 167.205 84.459C162.397 81.7403 149.609 79.8144 141.529 80.5922ZM381.371 127.626C373.822 128.353 365.62 132.055 358.84 137.794C356.47 139.8 351.936 144.398 349.899 146.859C346.317 151.189 341.969 157.487 338.424 163.481C335.065 169.161 332.504 174.045 325.724 187.705C321.961 195.286 318.22 202.72 317.41 204.225C312.313 213.701 308.476 218.613 304.716 220.477C303.142 221.257 302.869 221.327 301.415 221.327H299.829L300.015 222.002C300.118 222.373 300.156 222.75 300.102 222.838C300.047 222.927 300.391 223.103 300.867 223.231C302.498 223.667 303.915 225.801 304.451 228.628C304.814 230.544 304.89 233.532 304.651 236.456C304.122 242.916 302.186 251.822 300.344 256.275C299.839 257.496 299.575 257.859 298.809 258.386C297.216 259.482 294.636 260.499 287.314 262.915C283.414 264.203 279.906 265.412 279.519 265.603C279.121 265.799 278.615 266.301 278.353 266.76C277.174 268.824 275.547 275.495 275.339 279.119C275.141 282.579 275.794 283.069 277.648 280.849C281.126 276.685 282.475 275.477 285.001 274.266C287.899 272.877 291.431 272.587 295.065 273.441L296.534 273.786L296.531 275.037C296.525 277.526 295.384 280.677 293.907 282.28C293.29 282.95 292.6 283.289 288.935 284.719C283.919 286.677 280.254 288.373 278.569 289.518C277.541 290.217 277.266 290.54 276.778 291.627C275.103 295.353 271.175 308.888 268.079 321.6C265.993 330.165 265.86 330.969 265.861 335.073C265.862 339.331 266.136 340.911 267.765 346.062C269.196 350.588 269.459 352.033 269.323 354.625C269.184 357.275 268.768 358.723 267.984 359.282C266.99 359.99 265.188 360.303 260.302 360.616C253.302 361.064 251.175 361.647 249.423 363.597C247.55 365.681 246.795 368.132 246.814 372.067C246.826 374.425 246.902 375.049 247.367 376.585C247.664 377.565 248.23 379.009 248.625 379.794C249.477 381.485 250.053 381.824 252.744 382.214C255.231 382.574 263.626 382.346 267.153 381.823C272.026 381.101 275.291 380.25 277.004 379.255C278.667 378.29 280.759 375.59 282.15 372.613C283.765 369.158 284.641 365.275 285.887 356.053C287.094 347.117 287.844 344.057 289.929 339.564C291.829 335.467 293.904 332.281 300.144 323.881C308.437 312.716 310.028 309.821 313.658 299.295C319.122 283.451 324.479 260.037 324.499 251.92L324.502 250.544L325.968 249.497C328.374 247.779 330.89 246.257 338.882 241.684C343.061 239.293 347.321 236.816 348.348 236.178C350.475 234.859 353.155 232.897 353.815 232.175C354.466 231.463 355.012 230.101 355.431 228.145C355.952 225.719 355.961 216.775 355.447 214.029C354.697 210.031 353.566 207.518 352.052 206.492C351.458 206.089 351.171 206.028 350.279 206.117C349.219 206.223 349.216 206.221 349.216 205.643C349.216 204.53 349.834 202.132 350.459 200.822C352.446 196.657 356.987 195.368 361.58 197.667C365.88 199.819 367.265 203.335 369.263 217.164C369.72 220.321 370.273 223.418 370.493 224.044C370.881 225.148 370.821 225.494 370.242 225.507C369.933 225.513 368.843 227.711 368.281 229.462C367.1 233.138 366.422 237.929 366.416 242.638C366.411 245.853 366.6 247.366 367.132 248.383C367.39 248.875 367.36 248.964 366.67 249.751C363.649 253.195 361.304 270.304 363.368 273.849C363.718 274.45 363.718 274.451 363.037 275.048C361.715 276.21 360.061 280.251 359.061 284.764C357.3 292.715 358.188 298.725 361.316 300.035C365.604 301.831 374.73 295.706 384.097 284.744C401.108 264.836 413.394 237.674 415.566 215.171C415.994 210.735 416.017 210.616 416.6 209.923C417.312 209.077 418.426 208.594 422.046 207.564C426.239 206.371 428.42 205.402 430.11 203.982C431.199 203.066 431.683 199.508 431.683 192.415C431.683 183.454 430.618 174.789 428.528 166.76C423.373 146.947 413.055 134.084 398.604 129.453C393.358 127.771 386.931 127.09 381.371 127.626ZM97.5581 128.235C93.1944 128.677 87.8745 130.199 84.0958 132.088C75.9358 136.168 69.6055 142.921 64.8351 152.636C60.7405 160.975 58.2316 170.244 56.9065 181.928C56.4812 185.677 56.3063 195.798 56.6107 199.037C56.9509 202.656 57.2684 203.767 58.2 204.596C59.43 205.689 62.3601 206.989 65.8476 207.988C67.6307 208.499 69.5384 209.161 70.0869 209.46C71.7328 210.355 71.8232 210.579 72.2511 214.811C73.0782 222.99 74.6787 230.252 77.4686 238.483C81.9701 251.764 88.9529 265.142 97.6249 277.099C107.016 290.047 117.579 299.477 123.816 300.482C125.157 300.698 126.726 300.494 127.468 300.008C130.043 298.32 130.667 292.482 129.052 285.192C128.026 280.559 126.342 276.367 125.053 275.234C124.388 274.65 124.378 274.62 124.719 274.197C125.533 273.193 125.741 269.059 125.222 264.227C124.472 257.246 122.81 251.268 121.256 249.959C120.755 249.537 120.732 249.457 120.981 248.982C121.501 247.989 121.68 246.535 121.681 243.28C121.684 235.726 119.803 227.388 117.728 225.755L117.23 225.364L117.606 224.372C117.812 223.827 118.222 221.648 118.515 219.53C120.068 208.33 120.792 205.075 122.429 201.938C124.054 198.823 128.031 196.684 131.599 197.006C133.291 197.159 135.175 198.069 136.174 199.217C137.538 200.783 138.677 203.904 138.687 206.104C138.69 206.84 138.67 206.863 138.133 206.717C135.572 206.02 133.712 208.528 132.703 214.037C131.713 219.446 132.089 227.823 133.466 231.035C134.289 232.957 137.195 235.114 145.276 239.803C147.727 241.226 151.686 243.525 154.073 244.913C158.259 247.348 161.297 249.276 162.822 250.466L163.55 251.035L163.681 253.323C164.327 264.628 170.413 289.747 176.07 304.464C178.731 311.385 180.412 314.224 187.374 323.549C194.134 332.604 195.81 335.108 197.834 339.18C200.064 343.667 201.014 346.725 203.326 356.864C207.225 373.96 208.739 378.006 211.938 379.881C213.645 380.882 217.367 381.899 221.665 382.538C225.084 383.047 233.405 383.055 235.4 382.551C237.669 381.979 237.915 381.782 238.83 379.805C240.175 376.896 240.666 374.672 240.67 371.459C240.673 369.043 240.611 368.532 240.14 367.101C238.586 362.376 235.728 360.938 227.844 360.914C223.099 360.9 220.4 360.402 219.506 359.376C219.022 358.82 218.737 357.622 218.595 355.546C218.427 353.099 218.728 351.454 220.173 346.931C222.009 341.18 222.253 339.828 222.255 335.377C222.258 331.763 222.23 331.506 221.494 328.282C219.069 317.663 214.456 300.71 212.338 294.64C211.368 291.859 210.991 291.152 210.07 290.389C208.579 289.154 203.496 286.789 197.227 284.414C194.802 283.495 194.634 283.395 193.912 282.427C192.867 281.026 192.052 279.203 191.683 277.44C191.35 275.852 191.275 274.243 191.526 274.088C192.074 273.75 195.219 273.31 197.046 273.316C199.473 273.325 200.933 273.649 203.023 274.644C205.144 275.653 206.623 276.902 209.203 279.862C211.748 282.781 212.104 283.095 212.461 282.738C213.573 281.625 211.745 270.93 209.771 266.997C209.26 265.981 208.978 265.863 199.781 262.839C191.535 260.127 188.76 258.933 187.982 257.764C186.674 255.794 184.48 247.063 183.546 240.104C183.089 236.698 183.081 230.819 183.531 228.788C184.177 225.87 185.508 223.916 187.149 223.474C187.577 223.359 187.928 223.142 187.928 222.993C187.928 222.844 187.98 222.46 188.044 222.14L188.16 221.557H186.463C184.913 221.557 184.634 221.492 183.257 220.808C179.695 219.04 176 214.462 171.424 206.151C170.565 204.59 166.641 196.837 162.704 188.921C155.312 174.059 152.727 169.159 149.074 163.076C139.475 147.095 129.987 137.096 119.543 131.954C115.458 129.943 111.556 128.773 107.087 128.22C105.101 127.974 100.062 127.982 97.5581 128.235ZM429.711 211.123C427.566 211.607 424.88 212.87 423.722 213.937C422.094 215.439 421.646 217.1 420.436 226.118C420.039 229.072 419.531 232.584 419.306 233.922C417.367 245.451 413.853 256.104 408.807 265.747C406.719 269.736 405.06 272.454 400.576 279.227C388.364 297.672 378.716 310.037 369.654 318.856C366.093 322.322 363.318 324.577 359.853 326.819C354.426 330.332 354.343 330.417 354.136 332.704C353.435 340.436 366.352 343.509 384.472 339.922C394.517 337.933 404.135 333.684 409.109 329.036C411.667 326.646 413.356 323.879 413.834 321.297C413.955 320.638 414.055 320.07 414.055 320.035C414.055 320 414.269 319.971 414.531 319.971C417.023 319.971 424.461 309.387 426.738 302.602C427.226 301.148 427.461 299.039 427.218 298.303C427.157 298.121 427.349 297.959 427.756 297.848C430.186 297.185 434.25 288.607 435.829 280.805C436.578 277.103 436.492 273.553 435.652 273.55C435.531 273.55 435.742 273.36 436.121 273.129C437.136 272.51 437.481 272.042 438.576 269.801C441.652 263.506 443.455 250.422 441.641 247.557C441.255 246.946 441.255 246.943 441.734 246.237C442.814 244.645 443.113 242.032 442.97 235.442C442.824 228.704 442.114 222.666 440.873 217.606C439.758 213.06 438.895 211.552 437.106 211.021C435.643 210.586 431.856 210.638 429.711 211.123ZM52.5758 212.068C52.2972 212.115 51.4908 212.341 50.784 212.57C49.6743 212.93 49.4216 213.109 48.9357 213.875C47.7074 215.813 46.4706 220.771 45.696 226.861C44.4369 236.763 44.6851 245.222 46.2854 246.94L46.6975 247.382L46.281 248.089C44.8429 250.527 45.9002 260.447 48.3388 267.398C49.544 270.833 51.2817 273.551 52.2721 273.551C52.4995 273.551 52.4717 273.705 52.144 274.26C50.2925 277.4 54.9011 293.247 58.846 297.306C59.5315 298.011 60.1639 298.484 60.421 298.484C60.8127 298.484 60.8337 298.546 60.6589 299.18C59.5461 303.211 69.5674 319.692 73.6257 320.504C74.1442 320.607 74.2565 320.727 74.2565 321.176C74.2565 322.039 74.8394 323.8 75.6355 325.343C76.5694 327.153 79.9121 330.546 82.3614 332.171C90.6126 337.644 103.533 341.377 115.693 341.799C127.146 342.196 134.044 339.177 134.026 333.773C134.017 331.304 133.333 330.437 129.551 328.114C124.982 325.307 121.45 322.38 116.485 317.286C108.449 309.04 100.209 298.402 89.7537 282.774C82.6274 272.123 80.6985 268.914 77.6877 262.706C75.3867 257.962 74.2301 255.111 72.6296 250.24C70.3746 243.376 69.0857 237.341 67.4777 226.115C66.1858 217.096 65.7208 215.578 63.7997 214.11C62.7086 213.276 60.6291 212.46 58.7692 212.137C57.6147 211.936 53.6281 211.892 52.5758 212.068ZM221.158 385.653C219.762 385.821 218.422 386.409 217.535 387.243C216.915 387.826 216.861 387.969 216.95 388.768C217.312 391.977 224.283 397.048 231.749 399.532C235.99 400.943 237.885 401.275 242.433 401.399C246.897 401.522 249.413 401.255 253.285 400.252C260.898 398.278 268.781 393.772 270.81 390.232C271.51 389.011 271.56 388.328 271 387.615C270.463 386.933 268.452 385.939 266.995 385.636C265.39 385.302 262.026 385.495 258.299 386.136C251.747 387.263 247.261 387.144 243.936 385.755C243.419 385.539 243.195 385.543 242.637 385.778C240.551 386.655 238.735 386.946 235.342 386.946C232.536 386.946 231.396 386.844 228.25 386.313C223.909 385.582 222.693 385.468 221.158 385.653Z" fill="black"/>
</svg>
