<svg width="780" height="500" viewBox="0 0 780 500" fill="none" xmlns="http://www.w3.org/2000/svg">
<path fill-rule="evenodd" clip-rule="evenodd" d="M344.35 0.778404C261.648 8.45339 199.12 25.6627 140.473 56.8914C81.8048 88.1328 32.4079 137.562 13.6568 183.788C-5.29317 230.502 -3.78623 279.987 17.9226 323.817C62.3066 413.424 175.349 478.053 321.402 497.326C348.835 500.945 417.889 500.878 452.045 497.201C600.988 481.158 719.461 414.053 763.743 320.653C788.19 269.086 784.807 210.956 754.322 158.786C740.262 134.727 698.844 93.3763 669.993 74.5936C618.202 40.8824 552.741 16.9661 480.764 5.46002C456.089 1.51653 368.719 -1.48195 344.35 0.778404ZM354.006 54.3373C331.283 76.9178 316.69 109.201 306.445 159.545C303.789 172.604 300.956 183.949 300.15 184.758C298.123 186.786 268.339 181.05 242.665 173.684C176.626 154.74 149.782 124.275 174.744 96.5995C191.504 78.0161 235.177 59.8796 289.27 49.0376C324.268 42.0215 331.831 41.005 353.193 40.4304L368.413 40.0217L354.006 54.3373ZM488.663 48.9635C574.991 66.4717 623.707 97.5956 611.307 127.32C606.866 137.97 593.033 150.327 575.649 159.177C560.796 166.737 484.542 186.6 481.664 183.658C480.649 182.621 476.307 167.008 472.01 148.958C461.543 104.974 448.731 77.9701 427.976 56.1609L411.92 39.2887L434.86 40.9948C447.476 41.9347 471.689 45.5206 488.663 48.9635ZM410.033 96.8549C423.641 110.067 436.114 142.021 442.428 179.857L444.241 190.712H391.746H339.251V180.904C339.251 157.417 353.991 116.59 368.861 98.8879C381.715 83.5891 395.66 82.8995 410.033 96.8549ZM102.121 142.437C102.121 145.219 104.324 151.821 107.017 157.108C124.141 190.73 183.299 218.85 266.582 232.954C282.498 235.651 293.278 238.787 295.267 241.298C297.18 243.714 298.457 253.044 298.462 264.629C298.488 335.901 321.645 408.459 355.039 441.91L369.983 456.879L348.879 455.207C313.863 452.43 290.989 448.724 260.733 440.916C115.253 403.379 30.3247 309.203 53.5302 211.145C57.8674 192.816 73.8979 161.943 87.0292 146.636C97.5292 134.395 102.121 133.118 102.121 142.437ZM700.947 163.572C717.962 189.68 725.448 213.918 725.502 243.07C725.576 285.013 709.897 319.682 674.547 355.731C622.238 409.072 542.943 442.416 439.33 454.642C423.554 456.504 410.645 457.572 410.645 457.012C410.645 456.455 417.825 448.89 426.599 440.204C445.102 421.883 458.945 397.339 466.544 369.382C473.247 344.705 481.169 295.442 483.461 264.159L485.272 239.459L498.316 236.92C505.491 235.523 521.114 232.474 533.034 230.142C611.129 214.866 666.342 185.969 680.001 153.226C681.946 148.557 684.695 144.739 686.107 144.739C687.518 144.739 694.198 153.213 700.947 163.572ZM439.503 268.256C438.639 315.22 425.349 359.171 406.473 377.496C395.242 388.4 381.284 389.25 371.011 379.655C362.829 372.013 351.554 350.331 345.806 331.186C340.592 313.823 334.187 272.741 334.167 256.541L334.151 244.47L376.86 243.648C400.349 243.196 424.159 242.879 429.768 242.948L439.967 243.07L439.503 268.256Z" fill="black"/>
</svg>
