<svg viewBox="0 0 501 73" fill="none" xmlns="http://www.w3.org/2000/svg">
<path fill-rule="evenodd" clip-rule="evenodd" d="M87.7791 28.9746H66.3067V0.258057H51.3261V72.0386H66.3067V39.9272H87.7697L87.7728 72.0386H102.76V0.258057H87.7791V28.9746ZM445.221 0.258057V11.2137H465.571V72.0386H480.552V11.2137H500.896V0.258057H445.221ZM366.124 0.258057H351.144V72.0386H393.994V61.0798H366.118L366.124 0.258057ZM194.702 60.0987C194.483 60.8447 193.931 61.0485 193.141 61.0485C192.383 61.0485 191.8 60.7538 191.561 60.0642L175.788 0.261185H158.312L176.437 65.7411C177.317 70.0512 180.189 72.048 184.254 72.048H198.075C202.141 72.048 204.771 69.9729 205.79 65.8445L223.478 0.261185H210.247L194.702 60.0987ZM0.905157 11.4707L0.895752 60.8228C0.895752 68.8068 4.99275 72.0449 12.0833 72.0449L45.5834 72.0386V61.061H21.3557C17.1991 61.061 15.8669 60.0517 15.8669 55.5754L15.8857 16.6931C15.8857 12.3704 16.8856 11.2137 21.3651 11.2137H45.5834V0.261185H12.1147C4.45673 0.25805 0.905157 4.21398 0.905157 11.4707ZM126.733 55.5754L126.74 39.9272H156.513V28.9746H126.759L126.755 16.6931C126.755 12.5365 127.674 11.2137 132.238 11.2137H156.829V0.261185L122.975 0.273712C115.236 0.273712 111.775 4.13562 111.775 11.4707L111.765 60.8228C111.765 68.4024 115.458 72.0449 122.956 72.0449L159.948 72.0386V61.061H132.225C128.066 61.061 126.733 60.13 126.733 55.5754ZM267.194 41.7076C274.125 41.7076 278.385 38.5542 278.385 30.4856L278.373 11.4707C278.373 3.97575 274.84 0.261185 267.176 0.261185H225.425V72.0386H240.406V11.2137H257.91C262.549 11.2137 263.389 12.5365 263.389 16.6931L263.408 25.4356C263.408 29.6737 262.238 30.9275 257.922 30.9275L249.738 30.9338C246.559 30.9338 244.772 32.8491 244.772 35.943C244.772 37.4978 245.562 38.6231 246.186 39.7391L265.097 72.0417H283.636L263.831 41.7358L267.194 41.7076ZM330.866 0.270584H297.861C289.958 0.270584 286.664 4.29234 286.664 11.4676L286.651 60.8197C286.651 68.9698 290.993 72.0417 297.842 72.0417H330.872C338.047 72.0417 342.075 68.6438 342.075 60.8197L342.063 11.4676C342.063 4.13561 338.605 0.270584 330.866 0.270584ZM321.615 61.061H307.111C302.795 61.061 301.625 59.8918 301.625 55.5754V16.6931C301.625 12.9409 302.14 11.2137 307.111 11.2137H321.621C325.534 11.2137 327.088 11.8876 327.088 16.6931L327.101 55.5754C327.101 60.2084 325.687 61.061 321.615 61.061ZM411.871 55.5754L411.878 39.9272H441.651V28.9746H411.896V16.6931C411.896 12.5365 412.815 11.2137 417.376 11.2137H441.964V0.261185L408.113 0.273712C400.367 0.273712 396.91 4.13562 396.91 11.4707L396.903 60.8228C396.903 68.4024 400.596 72.0449 408.094 72.0449L445.086 72.0386V61.061H417.363C413.207 61.061 411.871 60.13 411.871 55.5754Z" fill="currentColor"/>
</svg>
