<svg viewBox="0 0 551 246" fill="none" xmlns="http://www.w3.org/2000/svg">
    <path fill-rule="evenodd" clip-rule="evenodd" d="M95.7716 197.978H72.152V166.389H55.6734V245.348H72.152V210.025H95.7613L95.7647 245.348H112.25V166.389H95.7716V197.978V197.978ZM488.958 166.389V178.44H511.343V245.348H527.822V178.44H550.2V166.389H488.958V166.389ZM401.951 166.389H385.473V245.348H432.609V233.293H401.944L401.951 166.389V166.389ZM213.387 232.214C213.146 233.035 212.539 233.259 211.67 233.259C210.836 233.259 210.194 232.935 209.932 232.176L192.581 166.393H173.358L193.295 238.421C194.264 243.162 197.422 245.358 201.895 245.358H217.097C221.57 245.358 224.463 243.076 225.583 238.534L245.041 166.393H230.486L213.387 232.214V232.214ZM0.210296 178.723L0.199951 233.01C0.199951 241.793 4.70665 245.355 12.5063 245.355L49.3564 245.348V233.273H22.7059C18.1336 233.273 16.6682 232.162 16.6682 227.238L16.6889 184.468C16.6889 179.713 17.7888 178.44 22.7162 178.44H49.3564V166.393H12.5408C4.11702 166.389 0.210296 170.741 0.210296 178.723V178.723ZM138.621 227.238L138.628 210.025H171.379V197.978H138.649L138.646 184.468C138.646 179.896 139.656 178.44 144.676 178.44H171.727V166.393L134.487 166.407C125.974 166.407 122.167 170.655 122.167 178.723L122.157 233.01C122.157 241.348 126.219 245.355 134.466 245.355L175.158 245.348V233.273H144.663C140.087 233.273 138.621 232.248 138.621 227.238V227.238ZM293.128 211.984C300.752 211.984 305.438 208.515 305.438 199.64L305.424 178.723C305.424 170.479 301.538 166.393 293.108 166.393H247.182V245.348H263.661V178.44H282.915C288.018 178.44 288.942 179.896 288.942 184.468L288.963 194.085C288.963 198.746 287.677 200.126 282.929 200.126L273.926 200.133C270.429 200.133 268.464 202.239 268.464 205.643C268.464 207.353 269.333 208.591 270.019 209.818L290.822 245.351H311.214L289.429 212.015L293.128 211.984V211.984ZM363.167 166.403H326.861C318.169 166.403 314.545 170.827 314.545 178.72L314.531 233.007C314.531 241.972 319.307 245.351 326.841 245.351H363.174C371.066 245.351 375.497 241.614 375.497 233.007L375.483 178.72C375.483 170.655 371.68 166.403 363.167 166.403V166.403ZM352.991 233.273H337.037C332.289 233.273 331.003 231.986 331.003 227.238V184.468C331.003 180.34 331.568 178.44 337.037 178.44H352.998C357.301 178.44 359.012 179.182 359.012 184.468L359.026 227.238C359.026 232.335 357.47 233.273 352.991 233.273ZM452.273 227.238L452.28 210.025H485.03V197.978H452.301V184.468C452.301 179.896 453.311 178.44 458.328 178.44H485.375V166.393L448.139 166.407C439.619 166.407 435.815 170.655 435.815 178.723L435.808 233.01C435.808 241.348 439.87 245.355 448.118 245.355L488.81 245.348V233.273H458.314C453.742 233.273 452.273 232.248 452.273 227.238V227.238ZM419.416 22.9956L331.651 23.0059C329.41 23.0059 327.941 22.337 327.941 19.2578V6.24113C327.941 2.48612 325.92 0.5 322.251 0.5L221.783 0.503446C218.028 0.503446 216.097 2.61716 216.097 6.20665L216.09 19.2233C216.09 21.9715 214.794 22.9714 212.38 22.9714L154.866 22.9887C150.466 22.9887 147.89 25.0886 146.562 27.8471L118.56 82.5861C118.189 83.3035 117.993 84.0987 117.988 84.9066C117.988 87.0755 119.409 89.8719 123.329 89.8719L212.373 89.8616C215.122 89.8616 216.084 91.1098 216.084 93.6097L216.077 106.626C216.077 110.547 218.356 112.333 221.776 112.333L272.016 112.33L322.241 112.326C325.662 112.326 327.937 110.671 327.937 106.661L327.93 93.6442C327.93 90.9822 329.061 89.8961 331.641 89.8961L387.476 89.8823C391.328 89.8823 394.096 88.8685 396.027 85.2825L423.712 31.1883C424.319 30.0194 424.743 29.3539 424.743 27.9643C424.754 24.2886 421.585 22.9956 419.416 22.9956V22.9956ZM397.3 44.8015L383.952 70.9073C383.118 72.421 381.628 72.4865 380.583 72.4865H314.328C311.579 72.4865 310.576 73.7347 310.576 76.2312L310.562 91.2477C310.562 93.7442 309.473 94.9372 306.804 94.9372H272.022L237.217 94.9441C234.89 94.9441 233.466 94.1269 233.466 91.2098L233.459 76.1932C233.459 73.4485 232.2 72.4692 229.707 72.4692H148.48C146.483 72.4692 145.104 71.2107 145.104 69.4659C145.104 68.9625 145.232 68.4832 145.452 68.066L158.8 41.9602C159.31 41.0327 160.148 40.3983 162.165 40.3983L229.707 40.4017C232.038 40.4017 233.486 39.4638 233.486 36.6329L233.483 21.6198C233.483 18.9544 234.645 17.8854 237.224 17.8854L306.818 17.882C309.317 17.882 310.562 18.9923 310.562 21.6542L310.555 36.6674C310.555 39.2466 311.755 40.3914 314.334 40.3914H394.276C396.82 40.3914 397.651 42.0671 397.651 43.3947C397.645 43.8846 397.525 44.3664 397.3 44.8015V44.8015Z" fill="currentColor"/>
</svg>
