<svg  viewBox="0 0 501 102" fill="none" xmlns="http://www.w3.org/2000/svg">
    <path d="M0.199951 28.1669C0.199951 11.5759 10.5237 0.367798 30.0369 0.367798H156.709V23.899H33.8434C30.4022 23.899 27.3454 25.6677 27.3454 30.8584V70.0963C27.3454 74.8641 29.3448 77.9401 35.6314 77.9401H122.162C126.719 77.9401 130.237 76.3252 130.237 70.327V61.1376H79.5794V38.7214H156.709V74.7872C156.709 92.0511 144.156 101.491 124.431 101.491H30.2484C11.1966 101.491 0.219176 91.1668 0.219176 73.9029L0.199951 28.1669ZM269.713 101.491L312.988 24.8026V101.491H340.115V0.367798H298.397L257.14 72.9993L215.884 0.367798H174.185V101.491H201.311V24.8026L244.586 101.491H269.713ZM500.181 101.491H386.754C367.664 101.491 356.725 91.1668 356.725 73.9029V28.1669C356.725 11.5759 367.01 0.367798 386.523 0.367798H500.2V25.7831H390.349C386.908 25.7831 383.832 27.5325 383.832 32.7232V68.2123C383.832 72.9993 385.85 76.056 392.137 76.056H500.2V101.491" fill="currentColor"/>
</svg>
