<svg viewBox="0 0 501 202" fill="none" xmlns="http://www.w3.org/2000/svg">
    <path d="M417.363 107.759C416.956 130.211 421.806 142.103 440.314 142.103C458.792 142.103 461.444 121.845 461.444 106.429C461.444 91.0036 457.937 76.0287 438.524 76.0287C426.614 76.0287 417.821 85.2829 417.363 107.759ZM379.919 201.582V49.6023H417.821C417.821 49.6023 417.821 51.803 417.821 55.7672C417.821 63.9905 421.138 60.5994 423.81 57.3949C424.257 56.8591 432.704 46.5198 451.728 46.5198C470.694 46.5198 500.2 59.7313 500.2 106.429C500.2 142.551 482.597 168.977 452.196 168.977C435.444 168.977 425.76 162.382 423.545 159.72C421.328 157.095 418.248 156.637 418.248 159.72C418.248 162.809 418.248 201.582 418.248 201.582H379.919" fill="currentColor"/>
    <path d="M86.9735 0.276119H127.944C127.944 0.276119 127.944 89.2505 127.944 107.759C127.944 126.247 120.006 165.023 63.1887 165.023C6.36488 165.023 0.199951 128.882 0.199951 108.634V88.813H39.8481C39.8481 88.813 39.8481 96.3004 39.8481 108.186C39.8481 120.078 47.7798 131.086 62.7478 131.086C77.7227 131.086 86.9735 122.72 86.9735 108.634C86.9735 94.5371 86.9735 0.276119 86.9735 0.276119Z" fill="currentColor"/>
    <path d="M213.626 91.4547C213.626 80.4304 207.471 69.8605 193.374 69.8605C179.719 69.8605 174.869 79.5419 174.869 91.4547H213.626ZM189.424 45.1974C221.598 45.1974 249.778 57.5272 249.778 114.354H173.577C173.577 132.415 181.058 139.906 194.273 139.906C207.491 139.906 211.893 129.326 211.893 129.326H249.347C249.347 145.63 226.878 167.655 192.951 167.217C154.198 167.217 135.252 138.583 135.252 109.068C135.252 79.5419 151.98 45.1974 189.424 45.1974" fill="currentColor"/>
    <path d="M335.442 91.4547C335.442 80.4304 329.281 69.8605 315.184 69.8605C301.535 69.8605 296.676 79.5419 296.676 91.4547H335.442ZM311.241 45.1974C343.411 45.1974 371.584 57.5272 371.584 114.354H295.387C295.387 132.415 302.875 139.906 316.1 139.906C329.305 139.906 333.713 129.326 333.713 129.326H371.167C371.167 145.63 348.695 167.655 314.777 167.217C276.004 167.217 257.058 138.583 257.058 109.068C257.058 79.5419 273.807 45.1974 311.241 45.1974" fill="currentColor"/>
</svg>
