<svg viewBox="0 0 501 86" fill="none" xmlns="http://www.w3.org/2000/svg">
    <path fill-rule="evenodd" clip-rule="evenodd" d="M59.2793 5.10949C61.0968 5.15981 60.9037 6.43699 60.6031 6.8773C55.2393 15.2214 42.5656 29.9136 33.3375 46.0332C31.8096 48.6451 30.6718 50.5667 30.6718 53.4329C30.6718 57.3189 33.0978 61.9132 37.9712 63.8848C41.1771 65.1692 43.1953 65.2086 46.6553 65.2586C72.3431 66.0529 82.6412 65.3589 105.627 64.5789C106.955 64.5751 108.189 63.6807 108.633 63.1404C113.077 58.5067 115.639 50.1767 115.639 42.827C115.639 26.457 103.849 11.7114 85.4572 4.61949L82.5053 8.40512C98.625 15.0676 106.955 28.3748 106.955 42.6267C106.955 45.8329 106.411 48.9386 105.427 51.9048C104.697 53.9732 103.799 55.1611 101.187 55.2004C82.455 55.6011 71.8493 55.8945 53.0675 55.4007C50.645 55.3507 49.8615 54.467 49.4678 52.5489C49.1671 51.4111 49.4178 50.4664 50.2015 49.0389C60.1631 31.3914 77.5171 11.2211 80.9237 6.43699C81.5712 5.55324 81.2671 3.77137 79.045 3.18105C72.5434 1.25949 65.2478 0.479492 57.8515 0.479492C24.3634 0.615429 0.743702 19.4507 0.199951 42.827C1.54183 70.8873 25.9412 85.3789 57.8515 85.3789C77.3778 85.3789 95.265 78.4764 105.731 67.5307L96.0628 67.9207C87.1353 75.8608 72.8334 80.1045 58.0412 80.1045C31.0796 80.1045 9.12745 66.697 9.12745 42.6267C9.12745 21.9236 31.0759 5.05949 58.0412 5.05949L59.2793 5.10949ZM280.776 55.7907L299.013 43.8148L271.408 23.2511V28.2854H230.574C225.246 28.2854 220.862 32.0748 220.068 37.0089L267.407 36.9589V45.9329L231.214 45.9829C225.496 45.9829 220.812 50.327 220.562 55.7907H280.776ZM454.188 28.1351H496.049V19.3114H453.952C438.208 19.3114 425.345 31.3411 424.701 46.4267L475.446 46.3732C478.742 46.3732 481.404 48.5451 481.404 51.1607C481.404 53.8229 478.738 55.9448 475.446 55.9448L419.577 55.9411V19.3114H403.006V55.7014H369.729C364.845 54.907 363.313 51.3611 363.313 44.4551L363.317 19.3114H336.595L312.571 34.887L291.667 19.3114H227.368C213.116 19.3114 201.236 29.1192 198.621 42.1829H211.538C206.664 45.4892 202.914 50.1767 200.842 55.7051L159.958 55.7014C155.139 54.907 153.557 51.3611 153.557 44.4551L153.561 19.3114H137.037V42.777C136.342 58.317 144.772 63.8848 154.391 64.7686L282.844 64.7648L306.513 49.4789L327.177 64.9689H352.461L320.272 40.7589L346.743 23.6017L346.793 42.777C346.113 58.317 355.373 63.8848 364.995 64.7686L485.204 64.7648C493.487 64.7648 500.2 58.707 500.2 51.1607C500.2 43.6607 493.484 37.6029 485.204 37.6029H443.686C444.076 32.3251 448.621 28.1351 454.188 28.1351Z" fill="currentColor"/>
</svg>
