<svg viewBox="0 0 365 46" fill="none" xmlns="http://www.w3.org/2000/svg">
<path fill-rule="evenodd" clip-rule="evenodd" d="M144.675 36.8037L162.913 24.8278L135.307 4.26403V9.2984H94.473C89.1452 9.2984 84.7617 13.0878 83.9674 18.0218L131.307 17.9718V26.9459L95.1133 26.9959C89.3955 26.9959 84.7117 31.34 84.4611 36.8037H144.675ZM318.087 9.14809H359.949V0.324341H317.851C302.107 0.324341 289.244 12.354 288.6 27.4397L339.346 27.3862C342.641 27.3862 345.303 29.5581 345.303 32.1737C345.303 34.8359 342.637 36.9578 339.346 36.9578L283.476 36.954V0.324341H266.905V36.7143H233.628C228.744 35.92 227.213 32.374 227.213 25.4681L227.216 0.324341H200.494L176.471 15.9L155.567 0.324341H91.2671C77.0152 0.324341 65.1355 10.1322 62.5199 23.1959H75.4371C70.5636 26.5022 66.8136 31.1897 64.7417 36.7181L23.8577 36.7143C19.038 35.92 17.4564 32.374 17.4564 25.4681L17.4599 0.324341H0.935798V23.79C0.241734 39.33 8.67174 44.8978 18.2899 45.7815L146.743 45.7778L170.413 30.4918L191.076 45.9818H216.36L184.171 21.7718L210.642 4.61465L210.692 23.79C210.012 39.33 219.273 44.8978 228.894 45.7815L349.103 45.7778C357.386 45.7778 364.099 39.72 364.099 32.1737C364.099 24.6737 357.383 18.6159 349.103 18.6159H307.586C307.976 13.3381 312.52 9.14809 318.087 9.14809Z" fill="currentColor"/>
</svg>
