<svg viewBox="0 0 195 29" fill="none" xmlns="http://www.w3.org/2000/svg">
    <path fill-rule="evenodd" clip-rule="evenodd" d="M175.786 28.6341V12.6259H174.748L166.154 28.6533H153.158L144.564 12.6259H143.756V28.6341H124.396V0.0576782H154.753L160.06 8.95538L165.769 0.0576782H194.934V28.6341H175.786Z" fill="currentColor"/>
    <path fill-rule="evenodd" clip-rule="evenodd" d="M43.0153 18.7947C43.0153 18.7947 51.1669 17.1035 51.1669 10.6272C51.1669 0.115271 38.3435 0.0960617 38.3435 0.0960617H0.0656738V28.9223H20.9637V19.4288H24.1936L31.3262 28.7493H53.5508L43.0153 18.7947ZM25.7124 12.6835H20.7907V5.95738H26.1931C27.1655 6.02559 28.0757 6.46045 28.7396 7.17399C29.4034 7.88752 29.7714 8.82646 29.769 9.80088C29.769 12.6451 25.7893 12.6835 25.7893 12.6835H25.7124Z" fill="currentColor"/>
    <path fill-rule="evenodd" clip-rule="evenodd" d="M104.229 0.0960617H72.9296L57.9146 28.6532H79.0625L81.9656 21.7734H94.8851L97.6727 28.634H119.09L104.229 0.0960617ZM83.9073 15.2394L88.4253 6.34174L92.9241 15.2202L83.9073 15.2394Z" fill="currentColor"/>
</svg>
