<svg viewBox="0 0 495 96" fill="none" xmlns="http://www.w3.org/2000/svg">
<path d="M38.5413 55.3811C38.5413 54.1295 38.2686 53.0224 37.723 52.0595C37.2094 51.0966 36.1183 50.1499 34.4493 49.2192C32.8127 48.2565 30.3094 47.2133 26.9395 46.09C23.9228 45.0631 20.9861 43.8917 18.1298 42.576C15.2734 41.26 12.706 39.7196 10.4273 37.9544C8.14868 36.1572 6.33539 34.0551 4.98746 31.648C3.63952 29.2088 2.96556 26.3687 2.96556 23.1271C2.96556 19.0192 4.15302 15.4889 6.52795 12.5363C8.90288 9.55155 12.1443 7.25695 16.2523 5.65225C20.3603 4.0154 25.0298 3.19709 30.261 3.19709C35.4282 3.19709 39.9855 4.07949 43.9331 5.84474C47.9127 7.57784 51.0258 10.0811 53.2723 13.3546C55.551 16.6281 56.6902 20.5436 56.6902 25.1008H38.6857C38.6857 22.8222 37.9636 20.9769 36.5195 19.5647C35.1073 18.1527 32.8927 17.4466 29.8761 17.4466C26.9235 17.4466 24.693 18.0403 23.1845 19.2278C21.7082 20.3832 20.9701 21.7631 20.9701 23.3677C20.9701 25.2293 22.0934 26.7699 24.3399 27.9893C26.5864 29.2088 29.523 30.4285 33.1495 31.648C40.6275 34.0551 46.4042 37.1039 50.4801 40.7947C54.5561 44.4534 56.5939 49.2835 56.5939 55.2849C56.5939 61.7037 54.235 66.63 49.5174 70.064C44.7995 73.498 38.461 75.2152 30.5019 75.2152C26.8432 75.2152 23.2486 74.7497 19.7184 73.8189C16.2202 72.8882 13.0429 71.444 10.1866 69.4863C7.36239 67.5285 5.09978 65.0253 3.39882 61.9764C1.72994 58.8954 0.895508 55.2208 0.895508 50.9523H18.9963C18.9963 54.7715 19.9431 57.4192 21.8366 58.8954C23.7301 60.3396 26.6186 61.0619 30.5019 61.0619C33.4545 61.0619 35.5244 60.4842 36.712 59.3288C37.9315 58.1412 38.5413 56.8255 38.5413 55.3811ZM58.2848 8.97385C58.2848 6.40648 59.1672 4.32033 60.9324 2.71564C62.6974 1.11094 64.9923 0.308594 67.8164 0.308594C70.6728 0.308594 72.9674 1.11094 74.7005 2.71564C76.4657 4.32033 77.3484 6.40648 77.3484 8.97385C77.3484 11.5093 76.4657 13.5955 74.7005 15.2321C72.9674 16.8368 70.6728 17.6391 67.8164 17.6391C64.9923 17.6391 62.6974 16.8368 60.9324 15.2321C59.1672 13.5955 58.2848 11.5093 58.2848 8.97385ZM76.6261 74.2523H59.2474V22.1642H76.6261V74.2523ZM78.1723 47.8231C78.1723 42.5598 78.9265 37.9384 80.435 33.9588C81.9756 29.9471 84.2542 26.818 87.2709 24.5713C90.2878 22.3248 94.0268 21.2016 98.4876 21.2016C100.798 21.2016 102.885 21.6508 104.746 22.5494C106.607 23.448 108.26 24.7159 109.704 26.3525V0.308594H127.131V74.2523H111.534L110.715 68.7642C109.207 70.7541 107.426 72.3267 105.372 73.4821C103.35 74.6375 101.023 75.2152 98.3913 75.2152C93.9625 75.2152 90.2397 74.0757 87.2228 71.7971C84.238 69.4863 81.9756 66.3412 80.435 62.3616C78.9265 58.3821 78.1723 53.8729 78.1723 48.8342V47.8231ZM95.5031 48.8342C95.5031 52.3323 96.0005 55.2849 96.9953 57.6919C98.0223 60.0668 99.9801 61.2544 102.869 61.2544C106.046 61.2544 108.324 60.0187 109.704 57.5476V38.9173C108.389 36.414 106.142 35.1623 102.965 35.1623C100.14 35.1623 98.1829 36.3497 97.0916 38.7246C96.0324 41.0997 95.5031 44.1323 95.5031 47.8231V48.8342ZM117.985 48.3527C117.985 48.449 117.969 48.5452 117.936 48.6415L117.985 48.9304V48.3527ZM155.684 75.2152C149.907 75.2152 144.981 74.0436 140.905 71.7008C136.861 69.3579 133.78 66.2769 131.662 62.4579C129.544 58.6067 128.485 54.4506 128.485 49.9896V48.2084C128.485 43.2337 129.416 38.7086 131.277 34.6328C133.139 30.5248 135.947 27.2673 139.702 24.8602C143.457 22.421 148.174 21.2016 153.855 21.2016C161.397 21.2016 167.27 23.4962 171.474 28.0856C175.711 32.6429 177.829 38.9173 177.829 46.9086V54.1776H146.393C147.067 56.3922 148.303 58.1253 150.1 59.3769C151.897 60.5964 154.144 61.2063 156.84 61.2063C158.958 61.2063 161.076 60.8372 163.194 60.099C165.344 59.3607 167.158 58.0609 168.634 56.1997L176.433 66.1647C174.828 68.4112 172.228 70.4814 168.634 72.3748C165.072 74.2682 160.755 75.2152 155.684 75.2152ZM153.711 35.1623C151.239 35.1623 149.442 35.9163 148.319 37.4248C147.196 38.9332 146.473 40.8107 146.152 43.0572H160.883V41.6612C160.948 39.3825 160.354 37.7297 159.102 36.7027C157.85 35.6757 156.053 35.1623 153.711 35.1623ZM252.554 53.3112C252.554 67.272 243.648 74.2523 225.836 74.2523H197.434V4.15977H223.141C231.934 4.15977 238.803 5.78066 243.744 9.02198C248.718 12.2314 251.207 17.1257 251.207 23.7048C251.207 26.818 250.5 29.7384 249.089 32.4663C247.676 35.1623 245.204 37.2163 241.674 38.6283C245.718 39.6875 248.542 41.6452 250.148 44.5016C251.751 47.3257 252.554 50.2624 252.554 53.3112ZM223.141 18.7464H215.534V33.044H222.996C226.751 33.044 229.383 32.4825 230.891 31.3591C232.4 30.2039 233.153 28.4868 233.153 26.2081C233.153 23.5123 232.367 21.6027 230.795 20.4795C229.222 19.3241 226.671 18.7464 223.141 18.7464ZM234.549 53.0224C234.549 50.5832 233.939 48.6736 232.721 47.2936C231.533 45.9135 229.463 45.2236 226.51 45.2236H215.534V59.7138H225.836C229.078 59.7138 231.34 59.0398 232.624 57.6919C233.908 56.344 234.549 54.7875 234.549 53.0224ZM283.995 22.1642H302.577L281.829 81.9065C281.38 83.2224 280.77 84.6506 280 86.191C279.23 87.7316 278.188 89.1919 276.871 90.5717C275.587 91.9518 273.918 93.0753 271.864 93.9417C269.843 94.8403 267.324 95.2896 264.305 95.2896C263.216 95.2896 262.35 95.2574 261.707 95.1933C261.066 95.1612 260.439 95.0649 259.829 94.9046C259.218 94.744 258.401 94.5354 257.373 94.2785V81.3771C257.758 81.3771 258.08 81.3609 258.338 81.3288C258.627 81.3288 258.962 81.3288 259.347 81.3288C261.916 81.3288 263.714 81.0079 264.739 80.3661C265.798 79.7562 266.538 78.9058 266.953 77.8147L268.11 74.83L250.153 22.1642H268.735L276.148 49.4119L283.995 22.1642ZM355.545 55.3811C355.545 54.1295 355.272 53.0224 354.725 52.0595C354.211 51.0966 353.12 50.1499 351.453 49.2192C349.815 48.2565 347.312 47.2133 343.941 46.09C340.925 45.0631 337.988 43.8917 335.131 42.576C332.277 41.26 329.709 39.7196 327.43 37.9544C325.15 36.1572 323.338 34.0551 321.991 31.648C320.643 29.2088 319.967 26.3687 319.967 23.1271C319.967 19.0192 321.155 15.4889 323.531 12.5363C325.906 9.55155 329.148 7.25695 333.256 5.65225C337.364 4.0154 342.033 3.19709 347.263 3.19709C352.432 3.19709 356.988 4.07949 360.937 5.84474C364.916 7.57784 368.028 10.0811 370.275 13.3546C372.554 16.6281 373.692 20.5436 373.692 25.1008H355.688C355.688 22.8222 354.967 20.9769 353.521 19.5647C352.11 18.1527 349.894 17.4466 346.878 17.4466C343.925 17.4466 341.695 18.0403 340.188 19.2278C338.711 20.3832 337.972 21.7631 337.972 23.3677C337.972 25.2293 339.096 26.7699 341.343 27.9893C343.589 29.2088 346.526 30.4285 350.153 31.648C357.629 34.0551 363.406 37.1039 367.484 40.7947C371.559 44.4534 373.596 49.2835 373.596 55.2849C373.596 61.7037 371.237 66.63 366.519 70.064C361.803 73.498 355.465 75.2152 347.505 75.2152C343.845 75.2152 340.251 74.7497 336.721 73.8189C333.223 72.8882 330.045 71.444 327.19 69.4863C324.364 67.5285 322.103 65.0253 320.401 61.9764C318.732 58.8954 317.899 55.2208 317.899 50.9523H336C336 54.7715 336.946 57.4192 338.84 58.8954C340.732 60.3396 343.622 61.0619 347.505 61.0619C350.458 61.0619 352.528 60.4842 353.714 59.3288C354.934 58.1412 355.545 56.8255 355.545 55.3811ZM375.286 8.97385C375.286 6.40648 376.169 4.32033 377.934 2.71564C379.7 1.11094 381.995 0.308594 384.819 0.308594C387.676 0.308594 389.969 1.11094 391.704 2.71564C393.469 4.32033 394.35 6.40648 394.35 8.97385C394.35 11.5093 393.469 13.5955 391.704 15.2321C389.969 16.8368 387.676 17.6391 384.819 17.6391C381.995 17.6391 379.7 16.8368 377.934 15.2321C376.169 13.5955 375.286 11.5093 375.286 8.97385ZM393.629 74.2523H376.251V22.1642H393.629V74.2523ZM395.176 47.8231C395.176 42.5598 395.93 37.9384 397.437 33.9588C398.979 29.9471 401.256 26.818 404.275 24.5713C407.291 22.3248 411.028 21.2016 415.491 21.2016C417.8 21.2016 419.887 21.6508 421.749 22.5494C423.61 23.448 425.263 24.7159 426.707 26.3525V0.308594H444.134V74.2523H428.535L427.718 68.7642C426.209 70.7541 424.427 72.3267 422.373 73.4821C420.352 74.6375 418.026 75.2152 415.394 75.2152C410.965 75.2152 407.242 74.0757 404.225 71.7971C401.242 69.4863 398.979 66.3412 397.437 62.3616C395.93 58.3821 395.176 53.8729 395.176 48.8342V47.8231ZM412.505 48.8342C412.505 52.3323 413.002 55.2849 413.998 57.6919C415.026 60.0668 416.984 61.2544 419.871 61.2544C423.049 61.2544 425.326 60.0187 426.707 57.5476V38.9173C425.392 36.414 423.146 35.1623 419.967 35.1623C417.143 35.1623 415.185 36.3497 414.094 38.7246C413.035 41.0997 412.505 44.1323 412.505 47.8231V48.8342ZM434.988 48.3527C434.988 48.449 434.972 48.5452 434.939 48.6415L434.988 48.9304V48.3527ZM472.688 75.2152C466.911 75.2152 461.984 74.0436 457.908 71.7008C453.864 69.3579 450.784 66.2769 448.664 62.4579C446.547 58.6067 445.488 54.4506 445.488 49.9896V48.2084C445.488 43.2337 446.418 38.7086 448.279 34.6328C450.141 30.5248 452.948 27.2673 456.704 24.8602C460.46 22.421 465.176 21.2016 470.857 21.2016C478.399 21.2016 484.272 23.4962 488.477 28.0856C492.714 32.6429 494.831 38.9173 494.831 46.9086V54.1776H463.397C464.07 56.3922 465.305 58.1253 467.103 59.3769C468.899 60.5964 471.146 61.2063 473.843 61.2063C475.96 61.2063 478.077 60.8372 480.197 60.099C482.347 59.3607 484.16 58.0609 485.636 56.1997L493.434 66.1647C491.831 68.4112 489.23 70.4814 485.636 72.3748C482.075 74.2682 477.758 75.2152 472.688 75.2152ZM470.714 35.1623C468.242 35.1623 466.444 35.9163 465.322 37.4248C464.197 38.9332 463.477 40.8107 463.155 43.0572H477.885V41.6612C477.951 39.3825 477.357 37.7297 476.106 36.7027C474.852 35.6757 473.056 35.1623 470.714 35.1623Z" fill="currentColor"/>
</svg>
