<svg viewBox="0 0 501 90" fill="none" xmlns="http://www.w3.org/2000/svg">
    <path fill-rule="evenodd" clip-rule="evenodd" d="M198.22 87.0393H217.127V55.3564L249.653 3.60157H227.884L207.674 38.6722L187.467 3.60157H165.691L198.22 55.3564V87.0393ZM76.3285 44.7992C76.3285 20.3618 96.1427 0.550415 120.583 0.550415C145.022 0.550415 164.834 20.3611 164.834 44.7992C164.834 69.2394 145.022 89.048 120.583 89.048C96.1427 89.048 76.3285 69.2394 76.3285 44.7992V44.7992ZM120.583 72.8224C134.225 72.8224 145.289 60.2747 145.289 44.7992C145.289 29.3244 134.226 16.7753 120.583 16.7753C106.939 16.7753 95.8743 29.3244 95.8743 44.7992C95.8743 60.274 106.939 72.8224 120.583 72.8224V72.8224ZM45.5514 87.0393H26.9071V18.9869H0.895508V3.60157H71.5602V18.9869H45.5514V87.0393ZM437.787 68.2661L430.617 87.0393H408.845L443.267 3.60091H466.469L500.896 87.0393H479.119L471.949 68.266L437.787 68.2661ZM454.952 23.6484H454.789L443.137 54.1856H466.599L454.952 23.6484ZM389.225 87.0393H370.582V18.9869H344.57V3.60157H415.232V18.9869H389.225V87.0393ZM250.515 44.7992C250.515 20.3618 270.33 0.550415 294.761 0.550415C319.206 0.550415 339.018 20.3611 339.018 44.7992C339.018 69.2394 319.206 89.048 294.761 89.048C270.33 89.048 250.515 69.2394 250.515 44.7992ZM294.761 72.8224C308.411 72.8224 319.474 60.2747 319.474 44.7992C319.474 29.3244 308.411 16.7753 294.761 16.7753C281.122 16.7753 270.061 29.3244 270.061 44.7992C270.061 60.274 281.122 72.8224 294.761 72.8224Z" fill="currentColor"/>
</svg>
