<svg width="104" height="1094" viewBox="0 0 104 1094" fill="none" xmlns="http://www.w3.org/2000/svg">
<path d="M45.7319 1093.43H57.5293V0.0159912H45.7319V1093.43Z" fill="#393536"/>
<path d="M0.110718 0.0160561C0.630718 4.08139 3.00003 7.72273 6.59203 9.82673L23.1881 19.5521V7.23337C23.1881 4.62404 22.4027 2.13605 21.0334 0.0160561H0.110718Z" fill="#393536"/>
<path d="M27.188 4.41877V17.9081C27.188 20.8054 28.132 23.6241 29.8773 25.9374L41.7319 41.6521V28.1626C41.7319 25.264 40.7879 22.4454 39.0426 20.1334L27.188 4.41877Z" fill="#393536"/>
<path d="M29.0081 0.0160561C29.2734 0.470722 29.5574 0.918749 29.8774 1.34275L41.732 17.056V3.56671C41.732 2.35871 41.5587 1.16672 41.24 0.0160561H29.0081Z" fill="#393536"/>
<path d="M16.596 20.3254L0 10.6V22.9188C0 27.6521 2.50799 32.0293 6.59199 34.4227L23.188 44.1481V31.8293C23.188 27.096 20.68 22.7188 16.596 20.3254Z" fill="#393536"/>
<path d="M27.188 29.0134V42.504C27.188 45.4014 28.132 48.22 29.8773 50.5333L41.7319 66.248V52.7573C41.7319 49.86 40.7879 47.0413 39.0426 44.728L27.188 29.0134Z" fill="#393536"/>
<path d="M16.596 44.92L0 35.1946V47.5134C0 52.2467 2.50799 56.624 6.59199 59.0173L23.188 68.7427V56.4239C23.188 51.6906 20.68 47.3134 16.596 44.92Z" fill="#393536"/>
<path d="M27.188 53.6093V67.0986C27.188 69.996 28.132 72.8146 29.8773 75.1279L41.7319 90.8427V77.3533C41.7319 74.4547 40.7879 71.6359 39.0426 69.3226L27.188 53.6093Z" fill="#393536"/>
<path d="M16.596 69.516L0 59.7893V72.1093C0 76.8413 2.50799 81.2199 6.59199 83.6119L23.188 93.3386V81.0187C23.188 76.2867 20.68 71.908 16.596 69.516Z" fill="#393536"/>
<path d="M27.188 78.2039V91.6932C27.188 94.5906 28.132 97.4105 29.8773 99.7238L41.7319 115.437V101.948C41.7319 99.0506 40.7879 96.2306 39.0426 93.9186L27.188 78.2039Z" fill="#393536"/>
<path d="M16.596 94.1107L0 84.3854V96.7041C0 101.437 2.50799 105.815 6.59199 108.208L23.188 117.933V105.615C23.188 100.881 20.68 96.504 16.596 94.1107Z" fill="#393536"/>
<path d="M27.188 102.799V116.289C27.188 119.187 28.132 122.005 29.8773 124.319L41.7319 140.033V126.543C41.7319 123.645 40.7879 120.827 39.0426 118.513L27.188 102.799Z" fill="#393536"/>
<path d="M16.596 118.705L0 108.98V121.299C0 126.032 2.50799 130.411 6.59199 132.803L23.188 142.528V130.209C23.188 125.477 20.68 121.099 16.596 118.705Z" fill="#393536"/>
<path d="M27.188 127.395V140.884C27.188 143.781 28.132 146.6 29.8773 148.913L41.7319 164.628V151.139C41.7319 148.24 40.7879 145.421 39.0426 143.108L27.188 127.395Z" fill="#393536"/>
<path d="M16.596 143.301L0 133.575V145.895C0 150.627 2.50799 155.005 6.59199 157.397L23.188 167.124V154.804C23.188 150.072 20.68 145.693 16.596 143.301Z" fill="#393536"/>
<path d="M27.188 151.989V165.479C27.188 168.377 28.132 171.196 29.8773 173.508L41.7319 189.223V175.733C41.7319 172.836 40.7879 170.017 39.0426 167.704L27.188 151.989Z" fill="#393536"/>
<path d="M16.596 167.896L0 158.171V170.489C0 175.223 2.50799 179.6 6.59199 181.993L23.188 191.719V179.4C23.188 174.667 20.68 170.289 16.596 167.896Z" fill="#393536"/>
<path d="M27.188 176.585V190.075C27.188 192.972 28.132 195.791 29.8773 198.104L41.7319 213.819V200.328C41.7319 197.431 40.7879 194.612 39.0426 192.299L27.188 176.585Z" fill="#393536"/>
<path d="M16.596 192.491L0 182.765V195.084C0 199.817 2.50799 204.195 6.59199 206.588L23.188 216.313V203.995C23.188 199.263 20.68 194.884 16.596 192.491Z" fill="#393536"/>
<path d="M27.188 201.18V214.669C27.188 217.567 28.132 220.385 29.8773 222.699L41.7319 238.413V224.924C41.7319 222.025 40.7879 219.207 39.0426 216.893L27.188 201.18Z" fill="#393536"/>
<path d="M16.596 217.087L0 207.36V219.68C0 224.412 2.50799 228.791 6.59199 231.184L23.188 240.909V228.589C23.188 223.857 20.68 219.479 16.596 217.087Z" fill="#393536"/>
<path d="M27.188 225.775V239.264C27.188 242.163 28.132 244.981 29.8773 247.295L41.7319 263.008V249.519C41.7319 246.621 40.7879 243.803 39.0426 241.489L27.188 225.775Z" fill="#393536"/>
<path d="M16.596 241.681L0 231.956V244.275C0 249.008 2.50799 253.385 6.59199 255.779L23.188 265.504V253.185C23.188 248.452 20.68 244.075 16.596 241.681Z" fill="#393536"/>
<path d="M27.188 250.371V263.86C27.188 266.757 28.132 269.576 29.8773 271.889L41.7319 287.604V274.113C41.7319 271.216 40.7879 268.397 39.0426 266.084L27.188 250.371Z" fill="#393536"/>
<path d="M16.596 266.276L0 256.551V268.869C0 273.603 2.50799 277.981 6.59199 280.373L23.188 290.099V277.78C23.188 273.048 20.68 268.669 16.596 266.276Z" fill="#393536"/>
<path d="M27.188 274.965V288.455C27.188 291.352 28.132 294.171 29.8773 296.484L41.7319 312.199V298.709C41.7319 295.812 40.7879 292.992 39.0426 290.679L27.188 274.965Z" fill="#393536"/>
<path d="M16.596 290.872L0 281.145V293.465C0 298.197 2.50799 302.576 6.59199 304.969L23.188 314.695V302.375C23.188 297.643 20.68 293.264 16.596 290.872" fill="#393536"/>
<path d="M27.188 299.56V313.049C27.188 315.948 28.132 318.767 29.8773 321.08L41.7319 336.793V323.304C41.7319 320.407 40.7879 317.588 39.0426 315.275L27.188 299.56Z" fill="#393536"/>
<path d="M16.596 315.467L0 305.741V318.06C0 322.793 2.50799 327.171 6.59199 329.564L23.188 339.289V326.971C23.188 322.237 20.68 317.86 16.596 315.467Z" fill="#393536"/>
<path d="M27.188 324.156V337.645C27.188 340.543 28.132 343.361 29.8773 345.675L41.7319 361.389V347.899C41.7319 345.001 40.7879 342.183 39.0426 339.869L27.188 324.156Z" fill="#393536"/>
<path d="M16.596 340.061L0 330.336V342.655C0 347.388 2.50799 351.767 6.59199 354.159L23.188 363.884V351.565C23.188 346.833 20.68 342.455 16.596 340.061Z" fill="#393536"/>
<path d="M27.188 348.751V362.24C27.188 365.137 28.132 367.956 29.8773 370.269L41.7319 385.984V372.495C41.7319 369.596 40.7879 366.777 39.0426 364.464L27.188 348.751Z" fill="#393536"/>
<path d="M16.596 364.657L0 354.931V367.251C0 371.983 2.50799 376.361 6.59199 378.755L23.188 388.48V376.161C23.188 371.428 20.68 367.049 16.596 364.657Z" fill="#393536"/>
<path d="M27.188 373.345V386.836C27.188 389.733 28.132 392.552 29.8773 394.865L41.7319 410.58V397.089C41.7319 394.192 40.7879 391.373 39.0426 389.06L27.188 373.345Z" fill="#393536"/>
<path d="M16.596 389.252L0 379.527V391.845C0 396.579 2.50799 400.956 6.59199 403.349L23.188 413.075V400.756C23.188 396.023 20.68 391.645 16.596 389.252Z" fill="#393536"/>
<path d="M27.188 397.941V411.431C27.188 414.328 28.132 417.147 29.8773 419.46L41.7319 435.175V421.684C41.7319 418.787 40.7879 415.968 39.0426 413.655L27.188 397.941Z" fill="#393536"/>
<path d="M16.596 413.847L0 404.121V416.441C0 421.173 2.50799 425.552 6.59199 427.944L23.188 437.671V425.351C23.188 420.619 20.68 416.24 16.596 413.847Z" fill="#393536"/>
<path d="M27.188 422.536V436.025C27.188 438.923 28.132 441.743 29.8773 444.055L41.7319 459.769V446.28C41.7319 443.383 40.7879 440.563 39.0426 438.249L27.188 422.536Z" fill="#393536"/>
<path d="M16.596 438.443L0 428.716V441.036C0 445.769 2.50799 450.147 6.59199 452.54L23.188 462.265V449.947C23.188 445.213 20.68 440.835 16.596 438.443Z" fill="#393536"/>
<path d="M27.188 447.131V460.621C27.188 463.519 28.132 466.337 29.8773 468.651L41.7319 484.365V470.875C41.7319 467.977 40.7879 465.159 39.0426 462.845L27.188 447.131Z" fill="#393536"/>
<path d="M16.596 463.037L0 453.312V465.631C0 470.364 2.50799 474.743 6.59199 477.135L23.188 486.86V474.541C23.188 469.808 20.68 465.431 16.596 463.037Z" fill="#393536"/>
<path d="M27.188 471.727V485.216C27.188 488.113 28.132 490.932 29.8773 493.245L41.7319 508.96V495.469C41.7319 492.572 40.7879 489.753 39.0426 487.44L27.188 471.727Z" fill="#393536"/>
<path d="M16.596 487.633L0 477.907V490.227C0 494.959 2.50799 499.337 6.59199 501.729L23.188 511.456V499.136C23.188 494.404 20.68 490.025 16.596 487.633Z" fill="#393536"/>
<path d="M27.188 496.321V509.811C27.188 512.708 28.132 515.527 29.8773 517.84L41.7319 533.555V520.065C41.7319 517.167 40.7879 514.348 39.0426 512.035L27.188 496.321Z" fill="#393536"/>
<path d="M16.596 512.228L0 502.503V514.821C0 519.555 2.50799 523.932 6.59199 526.325L23.188 536.051V523.732C23.188 518.999 20.68 514.621 16.596 512.228Z" fill="#393536"/>
<path d="M27.188 520.916V534.407C27.188 537.304 28.132 540.123 29.8773 542.436L41.7319 558.151V544.66C41.7319 541.763 40.7879 538.944 39.0426 536.631L27.188 520.916Z" fill="#393536"/>
<path d="M16.596 536.823L0 527.097V539.416C0 544.149 2.50799 548.527 6.59199 550.92L23.188 560.645V548.327C23.188 543.593 20.68 539.216 16.596 536.823Z" fill="#393536"/>
<path d="M27.188 545.512V559.001C27.188 561.899 28.132 564.717 29.8773 567.031L41.7319 582.745V569.256C41.7319 566.357 40.7879 563.539 39.0426 561.225L27.188 545.512Z" fill="#393536"/>
<path d="M16.596 561.419L0 551.692V564.012C0 568.744 2.50799 573.123 6.59199 575.515L23.188 585.241V572.921C23.188 568.189 20.68 563.811 16.596 561.419Z" fill="#393536"/>
<path d="M27.188 570.107V583.596C27.188 586.493 28.132 589.313 29.8773 591.627L41.7319 607.34V593.851C41.7319 590.953 40.7879 588.133 39.0426 585.821L27.188 570.107Z" fill="#393536"/>
<path d="M16.596 586.013L0 576.288V588.607C0 593.34 2.50799 597.717 6.59199 600.111L23.188 609.836V597.517C23.188 592.784 20.68 588.407 16.596 586.013Z" fill="#393536"/>
<path d="M27.188 594.701V608.192C27.188 611.089 28.132 613.908 29.8773 616.221L41.7319 631.936V618.445C41.7319 615.548 40.7879 612.729 39.0426 610.416L27.188 594.701Z" fill="#393536"/>
<path d="M16.596 610.608L0 600.883V613.201C0 617.935 2.50799 622.313 6.59199 624.705L23.188 634.431V622.112C23.188 617.38 20.68 613.001 16.596 610.608Z" fill="#393536"/>
<path d="M27.188 619.297V632.787C27.188 635.684 28.132 638.503 29.8773 640.816L41.7319 656.531V643.041C41.7319 640.143 40.7879 637.324 39.0426 635.011L27.188 619.297Z" fill="#393536"/>
<path d="M16.596 635.204L0 625.477V637.797C0 642.529 2.50799 646.908 6.59199 649.3L23.188 659.027V646.707C23.188 641.975 20.68 637.596 16.596 635.204Z" fill="#393536"/>
<path d="M27.188 643.892V657.381C27.188 660.28 28.132 663.099 29.8773 665.411L41.7319 681.125V667.636C41.7319 664.739 40.7879 661.92 39.0426 659.607L27.188 643.892Z" fill="#393536"/>
<path d="M16.596 659.799L0 650.073V662.392C0 667.125 2.50799 671.503 6.59199 673.896L23.188 683.621V671.303C23.188 666.569 20.68 662.192 16.596 659.799Z" fill="#393536"/>
<path d="M27.188 668.488V681.977C27.188 684.875 28.132 687.693 29.8773 690.007L41.7319 705.721V692.231C41.7319 689.333 40.7879 686.515 39.0426 684.201L27.188 668.488Z" fill="#393536"/>
<path d="M16.596 684.393L0 674.668V686.987C0 691.72 2.50799 696.097 6.59199 698.491L23.188 708.216V695.897C23.188 691.165 20.68 686.787 16.596 684.393Z" fill="#393536"/>
<path d="M27.188 693.083V706.572C27.188 709.469 28.132 712.288 29.8773 714.601L41.7319 730.316V716.827C41.7319 713.928 40.7879 711.109 39.0426 708.796L27.188 693.083Z" fill="#393536"/>
<path d="M16.596 708.989L0 699.263V711.583C0 716.315 2.50799 720.693 6.59199 723.087L23.188 732.812V720.492C23.188 715.76 20.68 711.381 16.596 708.989Z" fill="#393536"/>
<path d="M27.188 717.677V731.167C27.188 734.065 28.132 736.884 29.8773 739.197L41.7319 754.911V741.421C41.7319 738.524 40.7879 735.705 39.0426 733.392L27.188 717.677Z" fill="#393536"/>
<path d="M16.596 733.584L0 723.859V736.177C0 740.911 2.50799 745.288 6.59199 747.681L23.188 757.407V745.088C23.188 740.355 20.68 735.977 16.596 733.584Z" fill="#393536"/>
<path d="M27.188 742.273V755.763C27.188 758.66 28.132 761.479 29.8773 763.792L41.7319 779.507V766.016C41.7319 763.119 40.7879 760.3 39.0426 757.987L27.188 742.273Z" fill="#393536"/>
<path d="M16.596 758.179L0 748.453V760.772C0 765.505 2.50799 769.884 6.59199 772.276L23.188 782.001V769.683C23.188 764.951 20.68 760.572 16.596 758.179Z" fill="#393536"/>
<path d="M27.188 766.868V780.357C27.188 783.255 28.132 786.073 29.8773 788.387L41.7319 804.101V790.612C41.7319 787.715 40.7879 784.895 39.0426 782.581L27.188 766.868Z" fill="#393536"/>
<path d="M16.596 782.775L0 773.048V785.368C0 790.1 2.50799 794.479 6.59199 796.872L23.188 806.597V794.279C23.188 789.545 20.68 785.167 16.596 782.775Z" fill="#393536"/>
<path d="M27.188 791.463V804.953C27.188 807.851 28.132 810.669 29.8773 812.983L41.7319 828.697V815.207C41.7319 812.309 40.7879 809.491 39.0426 807.177L27.188 791.463Z" fill="#393536"/>
<path d="M16.596 807.369L0 797.644V809.963C0 814.696 2.50799 819.073 6.59199 821.467L23.188 831.192V818.873C23.188 814.14 20.68 809.763 16.596 807.369Z" fill="#393536"/>
<path d="M27.188 816.059V829.548C27.188 832.445 28.132 835.264 29.8773 837.577L41.7319 853.292V839.801C41.7319 836.904 40.7879 834.085 39.0426 831.772L27.188 816.059Z" fill="#393536"/>
<path d="M16.596 831.964L0 822.239V834.559C0 839.291 2.50799 843.669 6.59199 846.061L23.188 855.788V843.468C23.188 838.736 20.68 834.357 16.596 831.964Z" fill="#393536"/>
<path d="M27.188 840.653V854.143C27.188 857.04 28.132 859.86 29.8773 862.173L41.7319 877.887V864.397C41.7319 861.5 40.7879 858.68 39.0426 856.367L27.188 840.653Z" fill="#393536"/>
<path d="M16.596 856.56L0 846.833V859.153C0 863.887 2.50799 868.264 6.59199 870.657L23.188 880.383V868.064C23.188 863.331 20.68 858.952 16.596 856.56Z" fill="#393536"/>
<path d="M27.188 865.248V878.739C27.188 881.636 28.132 884.455 29.8773 886.768L41.7319 902.483V888.992C41.7319 886.095 40.7879 883.276 39.0426 880.963L27.188 865.248Z" fill="#393536"/>
<path d="M16.596 881.155L0 871.429V883.748C0 888.481 2.50799 892.86 6.59199 895.252L23.188 904.977V892.659C23.188 887.925 20.68 883.548 16.596 881.155Z" fill="#393536"/>
<path d="M27.188 889.844V903.333C27.188 906.231 28.132 909.049 29.8773 911.363L41.7319 927.077V913.587C41.7319 910.689 40.7879 907.871 39.0426 905.557L27.188 889.844Z" fill="#393536"/>
<path d="M16.596 905.751L0 896.024V908.344C0 913.076 2.50799 917.455 6.59199 919.847L23.188 929.573V917.253C23.188 912.521 20.68 908.143 16.596 905.751Z" fill="#393536"/>
<path d="M27.188 914.439V927.928C27.188 930.825 28.132 933.645 29.8773 935.957L41.7319 951.672V938.183C41.7319 935.284 40.7879 932.465 39.0426 930.152L27.188 914.439Z" fill="#393536"/>
<path d="M16.596 930.345L0 920.62V932.939C0 937.672 2.50799 942.049 6.59199 944.443L23.188 954.168V941.849C23.188 937.116 20.68 932.739 16.596 930.345Z" fill="#393536"/>
<path d="M27.188 939.033V952.524C27.188 955.421 28.132 958.24 29.8773 960.553L41.7319 976.268V962.777C41.7319 959.88 40.7879 957.061 39.0426 954.748L27.188 939.033Z" fill="#393536"/>
<path d="M16.596 954.94L0 945.215V957.533C0 962.267 2.50799 966.644 6.59199 969.037L23.188 978.763V966.444C23.188 961.711 20.68 957.333 16.596 954.94Z" fill="#393536"/>
<path d="M27.188 963.629V977.119C27.188 980.016 28.132 982.835 29.8773 985.148L41.7319 1000.86V987.373C41.7319 984.475 40.7879 981.656 39.0426 979.343L27.188 963.629Z" fill="#393536"/>
<path d="M16.596 979.536L0 969.809V982.129C0 986.861 2.50799 991.24 6.59199 993.633L23.188 1003.36V991.039C23.188 986.307 20.68 981.928 16.596 979.536Z" fill="#393536"/>
<path d="M27.188 988.224V1001.71C27.188 1004.61 28.132 1007.43 29.8773 1009.74L41.7319 1025.46V1011.97C41.7319 1009.07 40.7879 1006.25 39.0426 1003.94L27.188 988.224Z" fill="#393536"/>
<path d="M16.596 1004.13L0 994.405V1006.72C0 1011.46 2.50799 1015.83 6.59199 1018.23L23.188 1027.95V1015.63C23.188 1010.9 20.68 1006.52 16.596 1004.13Z" fill="#393536"/>
<path d="M27.188 1012.82V1026.31C27.188 1029.21 28.132 1032.03 29.8773 1034.34L41.7319 1050.05V1036.56C41.7319 1033.67 40.7879 1030.85 39.0426 1028.53L27.188 1012.82Z" fill="#393536"/>
<path d="M16.596 1028.73L0 1019V1031.32C0 1036.05 2.50799 1040.43 6.59199 1042.82L23.188 1052.55V1040.23C23.188 1035.5 20.68 1031.12 16.596 1028.73Z" fill="#393536"/>
<path d="M27.188 1037.41V1050.9C27.188 1053.8 28.132 1056.62 29.8773 1058.93L41.7319 1074.65V1061.16C41.7319 1058.26 40.7879 1055.44 39.0426 1053.13L27.188 1037.41Z" fill="#393536"/>
<path d="M16.596 1053.32L0 1043.59V1055.91C0 1060.65 2.50799 1065.03 6.59199 1067.42L23.188 1077.14V1064.82C23.188 1060.09 20.68 1055.71 16.596 1053.32Z" fill="#393536"/>
<path d="M27.188 1062.01V1075.5C27.188 1078.4 28.132 1081.22 29.8773 1083.53L37.344 1093.43H41.7319V1085.75C41.7319 1082.86 40.7879 1080.04 39.0426 1077.72L27.188 1062.01Z" fill="#393536"/>
<path d="M16.596 1077.92L0 1068.19V1080.51C0 1085.24 2.50799 1089.62 6.59199 1092.01L9.00397 1093.43H23.188V1089.42C23.188 1084.69 20.68 1080.31 16.596 1077.92Z" fill="#393536"/>
<path d="M27.188 1093.43H32.3346L27.188 1086.61V1093.43Z" fill="#393536"/>
<path d="M0 1093.43H1.09466L0 1092.79V1093.43Z" fill="#393536"/>
<path d="M103.151 0.0160561H82.228C80.8587 2.13605 80.0733 4.62404 80.0733 7.23337V19.5521L96.6693 9.82673C100.261 7.72273 102.631 4.08139 103.151 0.0160561Z" fill="#393536"/>
<path d="M61.5294 28.1626V41.6521L73.384 25.9374C75.1293 23.6241 76.0733 20.8054 76.0733 17.9081V4.41877L64.2187 20.1334C62.4733 22.4454 61.5294 25.264 61.5294 28.1626Z" fill="#393536"/>
<path d="M74.2533 0.0160561H62.0214C61.7027 1.16672 61.5294 2.35871 61.5294 3.56671V17.056L73.384 1.34275C73.704 0.918749 73.988 0.470722 74.2533 0.0160561Z" fill="#393536"/>
<path d="M86.6653 20.3254C82.5813 22.7188 80.0733 27.096 80.0733 31.8293V44.1481L96.6693 34.4227C100.753 32.0293 103.261 27.6521 103.261 22.9188V10.6L86.6653 20.3254Z" fill="#393536"/>
<path d="M61.5294 52.7573V66.248L73.384 50.5333C75.1293 48.22 76.0733 45.4014 76.0733 42.504V29.0134L64.2187 44.728C62.4733 47.0413 61.5294 49.86 61.5294 52.7573Z" fill="#393536"/>
<path d="M80.0733 56.4239V68.7427L96.6693 59.0173C100.753 56.624 103.261 52.2467 103.261 47.5134V35.1946L86.6653 44.92C82.5813 47.3134 80.0733 51.6906 80.0733 56.4239Z" fill="#393536"/>
<path d="M61.5294 77.3533V90.8427L73.384 75.1279C75.1293 72.8146 76.0733 69.996 76.0733 67.0986V53.6093L64.2187 69.3226C62.4733 71.6359 61.5294 74.4547 61.5294 77.3533Z" fill="#393536"/>
<path d="M80.0733 81.0187V93.3386L96.6693 83.6119C100.753 81.2199 103.261 76.8413 103.261 72.1093V59.7893L86.6653 69.516C82.5813 71.908 80.0733 76.2867 80.0733 81.0187Z" fill="#393536"/>
<path d="M61.5294 101.948V115.437L73.384 99.7238C75.1293 97.4105 76.0733 94.5906 76.0733 91.6932V78.2039L64.2187 93.9186C62.4733 96.2306 61.5294 99.0506 61.5294 101.948Z" fill="#393536"/>
<path d="M80.0733 105.615V117.933L96.6693 108.208C100.753 105.815 103.261 101.437 103.261 96.7041V84.3854L86.6653 94.1107C82.5813 96.504 80.0733 100.881 80.0733 105.615Z" fill="#393536"/>
<path d="M61.5294 126.543V140.033L73.384 124.319C75.1293 122.005 76.0733 119.187 76.0733 116.289V102.799L64.2187 118.513C62.4733 120.827 61.5294 123.645 61.5294 126.543Z" fill="#393536"/>
<path d="M80.0733 130.209V142.528L96.6693 132.803C100.753 130.411 103.261 126.032 103.261 121.299V108.98L86.6653 118.705C82.5813 121.099 80.0733 125.477 80.0733 130.209Z" fill="#393536"/>
<path d="M61.5294 151.139V164.628L73.384 148.913C75.1293 146.6 76.0733 143.781 76.0733 140.884V127.395L64.2187 143.108C62.4733 145.421 61.5294 148.24 61.5294 151.139Z" fill="#393536"/>
<path d="M80.0733 154.804V167.124L96.6693 157.397C100.753 155.005 103.261 150.627 103.261 145.895V133.575L86.6653 143.301C82.5813 145.693 80.0733 150.072 80.0733 154.804Z" fill="#393536"/>
<path d="M61.5294 175.733V189.223L73.384 173.508C75.1293 171.196 76.0733 168.377 76.0733 165.479V151.989L64.2187 167.704C62.4733 170.017 61.5294 172.836 61.5294 175.733Z" fill="#393536"/>
<path d="M80.0733 179.4V191.719L96.6693 181.993C100.753 179.6 103.261 175.223 103.261 170.489V158.171L86.6653 167.896C82.5813 170.289 80.0733 174.667 80.0733 179.4Z" fill="#393536"/>
<path d="M61.5294 200.328V213.819L73.384 198.104C75.1293 195.791 76.0733 192.972 76.0733 190.075V176.585L64.2187 192.299C62.4733 194.612 61.5294 197.431 61.5294 200.328Z" fill="#393536"/>
<path d="M80.0733 203.995V216.313L96.6693 206.588C100.753 204.195 103.261 199.817 103.261 195.084V182.765L86.6653 192.491C82.5813 194.884 80.0733 199.263 80.0733 203.995Z" fill="#393536"/>
<path d="M61.5294 224.924V238.413L73.384 222.699C75.1293 220.385 76.0733 217.567 76.0733 214.669V201.18L64.2187 216.893C62.4733 219.207 61.5294 222.025 61.5294 224.924Z" fill="#393536"/>
<path d="M80.0733 228.589V240.909L96.6693 231.184C100.753 228.791 103.261 224.412 103.261 219.68V207.36L86.6653 217.087C82.5813 219.479 80.0733 223.857 80.0733 228.589Z" fill="#393536"/>
<path d="M61.5294 249.519V263.008L73.384 247.295C75.1293 244.981 76.0733 242.163 76.0733 239.264V225.775L64.2187 241.489C62.4733 243.803 61.5294 246.621 61.5294 249.519Z" fill="#393536"/>
<path d="M80.0733 253.185V265.504L96.6693 255.779C100.753 253.385 103.261 249.008 103.261 244.275V231.956L86.6653 241.681C82.5813 244.075 80.0733 248.452 80.0733 253.185Z" fill="#393536"/>
<path d="M61.5294 274.113V287.604L73.384 271.889C75.1293 269.576 76.0733 266.757 76.0733 263.86V250.371L64.2187 266.084C62.4733 268.397 61.5294 271.216 61.5294 274.113Z" fill="#393536"/>
<path d="M80.0733 277.78V290.099L96.6693 280.373C100.753 277.981 103.261 273.603 103.261 268.869V256.551L86.6653 266.276C82.5813 268.669 80.0733 273.048 80.0733 277.78Z" fill="#393536"/>
<path d="M61.5294 298.709V312.199L73.384 296.484C75.1293 294.171 76.0733 291.352 76.0733 288.455V274.965L64.2187 290.679C62.4733 292.992 61.5294 295.812 61.5294 298.709Z" fill="#393536"/>
<path d="M80.0733 302.375V314.695L96.6693 304.969C100.753 302.576 103.261 298.197 103.261 293.465V281.145L86.6653 290.872C82.5813 293.264 80.0733 297.643 80.0733 302.375Z" fill="#393536"/>
<path d="M61.5294 323.304V336.793L73.384 321.08C75.1293 318.767 76.0733 315.948 76.0733 313.049V299.56L64.2187 315.275C62.4733 317.588 61.5294 320.407 61.5294 323.304Z" fill="#393536"/>
<path d="M80.0733 326.971V339.289L96.6693 329.564C100.753 327.171 103.261 322.793 103.261 318.06V305.741L86.6653 315.467C82.5813 317.86 80.0733 322.237 80.0733 326.971Z" fill="#393536"/>
<path d="M61.5294 347.899V361.389L73.384 345.675C75.1293 343.361 76.0733 340.543 76.0733 337.645V324.156L64.2187 339.869C62.4733 342.183 61.5294 345.001 61.5294 347.899Z" fill="#393536"/>
<path d="M80.0733 351.565V363.884L96.6693 354.159C100.753 351.767 103.261 347.388 103.261 342.655V330.336L86.6653 340.061C82.5813 342.455 80.0733 346.833 80.0733 351.565Z" fill="#393536"/>
<path d="M61.5294 372.495V385.984L73.384 370.269C75.1293 367.956 76.0733 365.137 76.0733 362.24V348.751L64.2187 364.464C62.4733 366.777 61.5294 369.596 61.5294 372.495Z" fill="#393536"/>
<path d="M80.0733 376.161V388.48L96.6693 378.755C100.753 376.361 103.261 371.983 103.261 367.251V354.931L86.6653 364.657C82.5813 367.049 80.0733 371.428 80.0733 376.161Z" fill="#393536"/>
<path d="M61.5294 397.089V410.58L73.384 394.865C75.1293 392.552 76.0733 389.733 76.0733 386.836V373.345L64.2187 389.06C62.4733 391.373 61.5294 394.192 61.5294 397.089Z" fill="#393536"/>
<path d="M80.0733 400.756V413.075L96.6693 403.349C100.753 400.956 103.261 396.579 103.261 391.845V379.527L86.6653 389.252C82.5813 391.645 80.0733 396.023 80.0733 400.756Z" fill="#393536"/>
<path d="M61.5294 421.684V435.175L73.384 419.46C75.1293 417.147 76.0733 414.328 76.0733 411.431V397.941L64.2187 413.655C62.4733 415.968 61.5294 418.787 61.5294 421.684Z" fill="#393536"/>
<path d="M80.0733 425.351V437.671L96.6693 427.944C100.753 425.552 103.261 421.173 103.261 416.441V404.121L86.6653 413.847C82.5813 416.24 80.0733 420.619 80.0733 425.351Z" fill="#393536"/>
<path d="M61.5294 446.28V459.769L73.384 444.055C75.1293 441.743 76.0733 438.923 76.0733 436.025V422.536L64.2187 438.249C62.4733 440.563 61.5294 443.383 61.5294 446.28Z" fill="#393536"/>
<path d="M80.0733 449.947V462.265L96.6693 452.54C100.753 450.147 103.261 445.769 103.261 441.036V428.716L86.6653 438.443C82.5813 440.835 80.0733 445.213 80.0733 449.947Z" fill="#393536"/>
<path d="M61.5294 470.875V484.365L73.384 468.651C75.1293 466.337 76.0733 463.519 76.0733 460.621V447.131L64.2187 462.845C62.4733 465.159 61.5294 467.977 61.5294 470.875Z" fill="#393536"/>
<path d="M80.0733 474.541V486.86L96.6693 477.135C100.753 474.743 103.261 470.364 103.261 465.631V453.312L86.6653 463.037C82.5813 465.431 80.0733 469.808 80.0733 474.541Z" fill="#393536"/>
<path d="M61.5294 495.469V508.96L73.384 493.245C75.1293 490.932 76.0733 488.113 76.0733 485.216V471.727L64.2187 487.44C62.4733 489.753 61.5294 492.572 61.5294 495.469Z" fill="#393536"/>
<path d="M80.0733 499.136V511.456L96.6693 501.729C100.753 499.337 103.261 494.959 103.261 490.227V477.907L86.6653 487.633C82.5813 490.025 80.0733 494.404 80.0733 499.136Z" fill="#393536"/>
<path d="M61.5294 520.065V533.555L73.384 517.84C75.1293 515.527 76.0733 512.708 76.0733 509.811V496.321L64.2187 512.035C62.4733 514.348 61.5294 517.167 61.5294 520.065Z" fill="#393536"/>
<path d="M80.0733 523.732V536.051L96.6693 526.325C100.753 523.932 103.261 519.555 103.261 514.821V502.503L86.6653 512.228C82.5813 514.621 80.0733 518.999 80.0733 523.732Z" fill="#393536"/>
<path d="M61.5294 544.66V558.151L73.384 542.436C75.1293 540.123 76.0733 537.304 76.0733 534.407V520.916L64.2187 536.631C62.4733 538.944 61.5294 541.763 61.5294 544.66Z" fill="#393536"/>
<path d="M80.0733 548.327V560.645L96.6693 550.92C100.753 548.527 103.261 544.149 103.261 539.416V527.097L86.6653 536.823C82.5813 539.216 80.0733 543.593 80.0733 548.327Z" fill="#393536"/>
<path d="M61.5294 569.256V582.745L73.384 567.031C75.1293 564.717 76.0733 561.899 76.0733 559.001V545.512L64.2187 561.225C62.4733 563.539 61.5294 566.357 61.5294 569.256Z" fill="#393536"/>
<path d="M80.0733 572.921V585.241L96.6693 575.515C100.753 573.123 103.261 568.744 103.261 564.012V551.692L86.6653 561.419C82.5813 563.811 80.0733 568.189 80.0733 572.921Z" fill="#393536"/>
<path d="M61.5294 593.851V607.34L73.384 591.627C75.1293 589.313 76.0733 586.493 76.0733 583.596V570.107L64.2187 585.821C62.4733 588.133 61.5294 590.953 61.5294 593.851Z" fill="#393536"/>
<path d="M80.0733 597.517V609.836L96.6693 600.111C100.753 597.717 103.261 593.34 103.261 588.607V576.288L86.6653 586.013C82.5813 588.407 80.0733 592.784 80.0733 597.517Z" fill="#393536"/>
<path d="M61.5294 618.445V631.936L73.384 616.221C75.1293 613.908 76.0733 611.089 76.0733 608.192V594.701L64.2187 610.416C62.4733 612.729 61.5294 615.548 61.5294 618.445Z" fill="#393536"/>
<path d="M80.0733 622.112V634.431L96.6693 624.705C100.753 622.313 103.261 617.935 103.261 613.201V600.883L86.6653 610.608C82.5813 613.001 80.0733 617.38 80.0733 622.112Z" fill="#393536"/>
<path d="M61.5294 643.041V656.531L73.384 640.816C75.1293 638.503 76.0733 635.684 76.0733 632.787V619.297L64.2187 635.011C62.4733 637.324 61.5294 640.143 61.5294 643.041Z" fill="#393536"/>
<path d="M80.0733 646.707V659.027L96.6693 649.3C100.753 646.908 103.261 642.529 103.261 637.797V625.477L86.6653 635.204C82.5813 637.596 80.0733 641.975 80.0733 646.707Z" fill="#393536"/>
<path d="M61.5294 667.636V681.125L73.384 665.411C75.1293 663.099 76.0733 660.28 76.0733 657.381V643.892L64.2187 659.607C62.4733 661.92 61.5294 664.739 61.5294 667.636Z" fill="#393536"/>
<path d="M80.0733 671.303V683.621L96.6693 673.896C100.753 671.503 103.261 667.125 103.261 662.392V650.073L86.6653 659.799C82.5813 662.192 80.0733 666.569 80.0733 671.303Z" fill="#393536"/>
<path d="M61.5294 692.231V705.721L73.384 690.007C75.1293 687.693 76.0733 684.875 76.0733 681.977V668.488L64.2187 684.201C62.4733 686.515 61.5294 689.333 61.5294 692.231Z" fill="#393536"/>
<path d="M80.0733 695.897V708.216L96.6693 698.491C100.753 696.097 103.261 691.72 103.261 686.987V674.668L86.6653 684.393C82.5813 686.787 80.0733 691.165 80.0733 695.897Z" fill="#393536"/>
<path d="M61.5294 716.827V730.316L73.384 714.601C75.1293 712.288 76.0733 709.469 76.0733 706.572V693.083L64.2187 708.796C62.4733 711.109 61.5294 713.928 61.5294 716.827Z" fill="#393536"/>
<path d="M80.0733 720.492V732.812L96.6693 723.087C100.753 720.693 103.261 716.315 103.261 711.583V699.263L86.6653 708.989C82.5813 711.381 80.0733 715.76 80.0733 720.492Z" fill="#393536"/>
<path d="M61.5294 741.421V754.911L73.384 739.197C75.1293 736.884 76.0733 734.065 76.0733 731.167V717.677L64.2187 733.392C62.4733 735.705 61.5294 738.524 61.5294 741.421Z" fill="#393536"/>
<path d="M80.0733 745.088V757.407L96.6693 747.681C100.753 745.288 103.261 740.911 103.261 736.177V723.859L86.6653 733.584C82.5813 735.977 80.0733 740.355 80.0733 745.088Z" fill="#393536"/>
<path d="M61.5294 766.016V779.507L73.384 763.792C75.1293 761.479 76.0733 758.66 76.0733 755.763V742.273L64.2187 757.987C62.4733 760.3 61.5294 763.119 61.5294 766.016Z" fill="#393536"/>
<path d="M80.0733 769.683V782.001L96.6693 772.276C100.753 769.884 103.261 765.505 103.261 760.772V748.453L86.6653 758.179C82.5813 760.572 80.0733 764.951 80.0733 769.683Z" fill="#393536"/>
<path d="M61.5294 790.612V804.101L73.384 788.387C75.1293 786.073 76.0733 783.255 76.0733 780.357V766.868L64.2187 782.581C62.4733 784.895 61.5294 787.715 61.5294 790.612Z" fill="#393536"/>
<path d="M80.0733 794.279V806.597L96.6693 796.872C100.753 794.479 103.261 790.1 103.261 785.368V773.048L86.6653 782.775C82.5813 785.167 80.0733 789.545 80.0733 794.279Z" fill="#393536"/>
<path d="M61.5294 815.207V828.697L73.384 812.983C75.1293 810.669 76.0733 807.851 76.0733 804.953V791.463L64.2187 807.177C62.4733 809.491 61.5294 812.309 61.5294 815.207Z" fill="#393536"/>
<path d="M80.0733 818.873V831.192L96.6693 821.467C100.753 819.073 103.261 814.696 103.261 809.963V797.644L86.6653 807.369C82.5813 809.763 80.0733 814.14 80.0733 818.873Z" fill="#393536"/>
<path d="M61.5294 839.801V853.292L73.384 837.577C75.1293 835.264 76.0733 832.445 76.0733 829.548V816.059L64.2187 831.772C62.4733 834.085 61.5294 836.904 61.5294 839.801Z" fill="#393536"/>
<path d="M80.0733 843.468V855.788L96.6693 846.061C100.753 843.669 103.261 839.291 103.261 834.559V822.239L86.6653 831.964C82.5813 834.357 80.0733 838.736 80.0733 843.468Z" fill="#393536"/>
<path d="M61.5294 864.397V877.887L73.384 862.173C75.1293 859.86 76.0733 857.04 76.0733 854.143V840.653L64.2187 856.367C62.4733 858.68 61.5294 861.5 61.5294 864.397Z" fill="#393536"/>
<path d="M80.0733 868.064V880.383L96.6693 870.657C100.753 868.264 103.261 863.887 103.261 859.153V846.833L86.6653 856.56C82.5813 858.952 80.0733 863.331 80.0733 868.064Z" fill="#393536"/>
<path d="M61.5294 888.992V902.483L73.384 886.768C75.1293 884.455 76.0733 881.636 76.0733 878.739V865.248L64.2187 880.963C62.4733 883.276 61.5294 886.095 61.5294 888.992Z" fill="#393536"/>
<path d="M80.0733 892.659V904.977L96.6693 895.252C100.753 892.86 103.261 888.481 103.261 883.748V871.429L86.6653 881.155C82.5813 883.548 80.0733 887.925 80.0733 892.659Z" fill="#393536"/>
<path d="M61.5294 913.587V927.077L73.384 911.363C75.1293 909.049 76.0733 906.231 76.0733 903.333V889.844L64.2187 905.557C62.4733 907.871 61.5294 910.689 61.5294 913.587Z" fill="#393536"/>
<path d="M80.0733 917.253V929.573L96.6693 919.847C100.753 917.455 103.261 913.076 103.261 908.344V896.024L86.6653 905.751C82.5813 908.143 80.0733 912.521 80.0733 917.253Z" fill="#393536"/>
<path d="M61.5294 938.183V951.672L73.384 935.957C75.1293 933.645 76.0733 930.825 76.0733 927.928V914.439L64.2187 930.152C62.4733 932.465 61.5294 935.284 61.5294 938.183Z" fill="#393536"/>
<path d="M80.0733 941.849V954.168L96.6693 944.443C100.753 942.049 103.261 937.672 103.261 932.939V920.62L86.6653 930.345C82.5813 932.739 80.0733 937.116 80.0733 941.849Z" fill="#393536"/>
<path d="M61.5294 962.777V976.268L73.384 960.553C75.1293 958.24 76.0733 955.421 76.0733 952.524V939.033L64.2187 954.748C62.4733 957.061 61.5294 959.88 61.5294 962.777Z" fill="#393536"/>
<path d="M80.0733 966.444V978.763L96.6693 969.037C100.753 966.644 103.261 962.267 103.261 957.533V945.215L86.6653 954.94C82.5813 957.333 80.0733 961.711 80.0733 966.444Z" fill="#393536"/>
<path d="M61.5294 987.373V1000.86L73.384 985.148C75.1293 982.835 76.0733 980.016 76.0733 977.119V963.629L64.2187 979.343C62.4733 981.656 61.5294 984.475 61.5294 987.373Z" fill="#393536"/>
<path d="M80.0733 991.039V1003.36L96.6693 993.633C100.753 991.24 103.261 986.861 103.261 982.129V969.809L86.6653 979.536C82.5813 981.928 80.0733 986.307 80.0733 991.039Z" fill="#393536"/>
<path d="M61.5294 1011.97V1025.46L73.384 1009.74C75.1293 1007.43 76.0733 1004.61 76.0733 1001.71V988.224L64.2187 1003.94C62.4733 1006.25 61.5294 1009.07 61.5294 1011.97Z" fill="#393536"/>
<path d="M80.0733 1015.63V1027.95L96.6693 1018.23C100.753 1015.83 103.261 1011.46 103.261 1006.72V994.405L86.6653 1004.13C82.5813 1006.52 80.0733 1010.9 80.0733 1015.63Z" fill="#393536"/>
<path d="M61.5294 1036.56V1050.05L73.384 1034.34C75.1293 1032.03 76.0733 1029.21 76.0733 1026.31V1012.82L64.2187 1028.53C62.4733 1030.85 61.5294 1033.67 61.5294 1036.56Z" fill="#393536"/>
<path d="M80.0733 1040.23V1052.55L96.6693 1042.82C100.753 1040.43 103.261 1036.05 103.261 1031.32V1019L86.6653 1028.73C82.5813 1031.12 80.0733 1035.5 80.0733 1040.23Z" fill="#393536"/>
<path d="M61.5294 1061.16V1074.65L73.384 1058.93C75.1293 1056.62 76.0733 1053.8 76.0733 1050.9V1037.41L64.2187 1053.13C62.4733 1055.44 61.5294 1058.26 61.5294 1061.16Z" fill="#393536"/>
<path d="M80.0733 1064.82V1077.14L96.6693 1067.42C100.753 1065.03 103.261 1060.65 103.261 1055.91V1043.59L86.6653 1053.32C82.5813 1055.71 80.0733 1060.09 80.0733 1064.82Z" fill="#393536"/>
<path d="M61.5294 1085.75V1093.43H65.9173L73.384 1083.53C75.1293 1081.22 76.0733 1078.4 76.0733 1075.5V1062.01L64.2187 1077.72C62.4733 1080.04 61.5294 1082.86 61.5294 1085.75Z" fill="#393536"/>
<path d="M80.0733 1089.42V1093.43H94.2574L96.6693 1092.01C100.753 1089.62 103.261 1085.24 103.261 1080.51V1068.19L86.6653 1077.92C82.5813 1080.31 80.0733 1084.69 80.0733 1089.42Z" fill="#393536"/>
<path d="M76.0733 1093.43V1086.61L70.9267 1093.43H76.0733Z" fill="#393536"/>
<path d="M103.261 1093.43V1092.79L102.167 1093.43H103.261Z" fill="#393536"/>
</svg>
