<svg width="104" height="1106" viewBox="0 0 104 1106" fill="none" xmlns="http://www.w3.org/2000/svg">
<path d="M9.70664 1101.83C5.42531 1099.88 2.23467 1100.38 0 1101.25V1105.19H16.2013C15.324 1104.75 14.4667 1104.29 13.6387 1103.84C12.2707 1103.1 10.9813 1102.41 9.70664 1101.83Z" fill="#393536"/>
<path d="M34.0854 4.53247L32.6173 5.01648C30.8533 5.59912 29.0666 5.89514 27.3093 5.89514C22.0653 5.8938 17.588 3.47522 13.6387 1.3418C12.9373 0.961792 12.256 0.596436 11.5867 0.248535H0V11.3844C3.17467 11.9684 7.32132 13.1912 12.5507 15.5645C14.0307 16.2378 15.4893 17.0244 16.908 17.7898C21.7427 20.4017 25.9173 22.655 30.776 20.8898L33.616 19.863C33.844 19.7804 34.0854 19.9498 34.0854 20.1925V27.0325L32.6173 27.5165C30.8533 28.0991 29.0666 28.3951 27.3093 28.3951C22.0653 28.3938 17.588 25.9752 13.6387 23.8418C12.2707 23.1031 10.9813 22.4058 9.70664 21.8271C5.42531 19.8832 2.23467 20.3831 0 21.2511V33.8844C3.17467 34.4684 7.32132 35.6912 12.5507 38.0645C14.0307 38.7378 15.4893 39.5259 16.908 40.2911C21.7427 42.9019 25.9173 45.155 30.776 43.3898L33.616 42.363C33.844 42.2804 34.0854 42.4498 34.0854 42.6925V49.5311L32.6173 50.0165C30.8533 50.5991 29.0666 50.8951 27.3093 50.8951C22.0653 50.8938 17.588 48.4752 13.6387 46.3418C12.2707 45.6031 10.9813 44.9058 9.70664 44.3271C5.42531 42.3832 2.23467 42.8831 0 43.7511V56.3844C3.17467 56.9684 7.32132 58.1912 12.5507 60.5645C14.0307 61.2378 15.4893 62.0259 16.908 62.7911C21.7427 65.4019 25.9173 67.6552 30.776 65.8898L33.616 64.863C33.844 64.7804 34.0854 64.9498 34.0854 65.1925V72.0311L32.6173 72.5165C30.8533 73.0991 29.0666 73.3951 27.3093 73.3951C22.0653 73.3938 17.588 70.9752 13.6387 68.8418C12.2707 68.1031 10.9813 67.4058 9.70664 66.8271C5.42531 64.8832 2.23467 65.3831 0 66.2511V78.8844C3.17467 79.4684 7.32132 80.6912 12.5507 83.0645C14.0307 83.7379 15.4893 84.5259 16.908 85.2912C21.7427 87.9019 25.9173 90.1551 30.776 88.3898L33.616 87.363C33.844 87.2804 34.0854 87.4498 34.0854 87.6925V94.5312L32.6173 95.0165C30.8533 95.5991 29.0666 95.8951 27.3093 95.8951C22.0653 95.8937 17.588 93.4752 13.6387 91.3419C12.2707 90.6031 10.9813 89.9058 9.70664 89.3271C5.42531 87.3831 2.23467 87.8831 0 88.7511V101.384C3.17467 101.968 7.32132 103.191 12.5507 105.565C14.0307 106.238 15.4893 107.026 16.908 107.791C21.7427 110.402 25.9173 112.655 30.776 110.89L33.616 109.863C33.844 109.78 34.0854 109.95 34.0854 110.193V117.031L32.6173 117.516C30.8533 118.099 29.0666 118.395 27.3093 118.395C22.0653 118.394 17.588 115.975 13.6387 113.842C12.2707 113.103 10.9813 112.406 9.70664 111.827C5.42531 109.883 2.23467 110.383 0 111.251V123.884C3.17467 124.469 7.32132 125.691 12.5507 128.064C14.0307 128.738 15.4893 129.526 16.908 130.291C21.7427 132.902 25.9173 135.155 30.776 133.39L33.616 132.363C33.844 132.28 34.0854 132.45 34.0854 132.693V139.531L32.6173 140.016C30.8533 140.599 29.0666 140.895 27.3093 140.895C22.0653 140.894 17.588 138.475 13.6387 136.342C12.2707 135.603 10.9813 134.906 9.70664 134.327C5.42531 132.383 2.23467 132.883 0 133.751V146.384C3.17467 146.969 7.32132 148.191 12.5507 150.564C14.0307 151.238 15.4893 152.026 16.908 152.791C21.7427 155.402 25.9173 157.655 30.776 155.89L33.616 154.863C33.844 154.78 34.0854 154.95 34.0854 155.193V162.031L32.6173 162.516C30.8533 163.099 29.0666 163.395 27.3093 163.395C22.0653 163.394 17.588 160.975 13.6387 158.842C12.2707 158.103 10.9813 157.406 9.70664 156.827C5.42531 154.883 2.23467 155.383 0 156.251V168.884C3.17467 169.469 7.32132 170.691 12.5507 173.064C14.0307 173.738 15.4893 174.526 16.908 175.291C21.7427 177.902 25.9173 180.155 30.776 178.39L33.616 177.363C33.844 177.28 34.0854 177.45 34.0854 177.693V184.531L32.6173 185.016C30.8533 185.599 29.0666 185.895 27.3093 185.895C22.0653 185.894 17.588 183.475 13.6387 181.342C12.2707 180.603 10.9813 179.906 9.70664 179.327C5.42531 177.383 2.23467 177.883 0 178.751V191.384C3.17467 191.969 7.32132 193.191 12.5507 195.564C14.0307 196.238 15.4893 197.026 16.908 197.791C21.7427 200.402 25.9173 202.655 30.776 200.89L33.616 199.863C33.844 199.78 34.0854 199.95 34.0854 200.193V207.031L32.6173 207.516C30.8533 208.099 29.0666 208.395 27.3093 208.395C22.0653 208.394 17.588 205.975 13.6387 203.842C12.2707 203.103 10.9813 202.406 9.70664 201.827C5.42531 199.883 2.23467 200.383 0 201.251V213.885C3.17467 214.469 7.32132 215.691 12.5507 218.064C14.0307 218.738 15.4893 219.526 16.908 220.291C21.7427 222.902 25.9173 225.155 30.776 223.39L33.616 222.363C33.844 222.28 34.0854 222.45 34.0854 222.693V229.531L32.6173 230.016C30.8533 230.599 29.0666 230.895 27.3093 230.895C22.0653 230.894 17.588 228.475 13.6387 226.342C12.2707 225.603 10.9813 224.906 9.70664 224.327C5.42531 222.383 2.23467 222.883 0 223.751V236.385C3.17467 236.969 7.32132 238.191 12.5507 240.564C14.0307 241.238 15.4893 242.026 16.908 242.791C21.7427 245.402 25.9173 247.655 30.776 245.89L33.616 244.863C33.844 244.78 34.0854 244.95 34.0854 245.193V252.031L32.6173 252.516C30.8533 253.099 29.0666 253.395 27.3093 253.395C22.0653 253.394 17.588 250.975 13.6387 248.842C12.2707 248.103 10.9813 247.406 9.70664 246.827C5.42531 244.883 2.23467 245.383 0 246.251V258.885C3.17467 259.469 7.32132 260.691 12.5507 263.064C14.0307 263.738 15.4893 264.526 16.908 265.291C21.7427 267.902 25.9173 270.155 30.776 268.39L33.616 267.363C33.844 267.28 34.0854 267.45 34.0854 267.693V274.531L32.6173 275.016C30.8533 275.599 29.0666 275.895 27.3093 275.895C22.0653 275.894 17.588 273.475 13.6387 271.342C12.2707 270.603 10.9813 269.906 9.70664 269.327C5.42531 267.383 2.23467 267.883 0 268.751V281.385C3.17467 281.969 7.32132 283.191 12.5507 285.564C14.0307 286.238 15.4893 287.026 16.908 287.791C21.7427 290.402 25.9173 292.655 30.776 290.89L33.616 289.863C33.844 289.78 34.0854 289.95 34.0854 290.193V297.031L32.6173 297.516C30.8533 298.099 29.0666 298.395 27.3093 298.395C22.0653 298.394 17.588 295.975 13.6387 293.842C12.2707 293.103 10.9813 292.406 9.70664 291.827C5.42531 289.883 2.23467 290.383 0 291.251V303.885C3.17467 304.469 7.32132 305.691 12.5507 308.064C14.0307 308.738 15.4893 309.526 16.908 310.291C21.7427 312.902 25.9173 315.155 30.776 313.39L33.616 312.363C33.844 312.28 34.0854 312.45 34.0854 312.693V319.531L32.6173 320.016C30.8533 320.599 29.0666 320.895 27.3093 320.895C22.0653 320.894 17.588 318.475 13.6387 316.342C12.2707 315.603 10.9813 314.906 9.70664 314.327C5.42531 312.383 2.23467 312.883 0 313.751V326.385C3.17467 326.969 7.32132 328.191 12.5507 330.564C14.0307 331.238 15.4893 332.026 16.908 332.791C21.7427 335.402 25.9173 337.655 30.776 335.89L33.616 334.863C33.844 334.78 34.0854 334.95 34.0854 335.193V342.031L32.6173 342.516C30.8533 343.099 29.0666 343.395 27.3093 343.395C22.0653 343.394 17.588 340.975 13.6387 338.842C12.2707 338.103 10.9813 337.406 9.70664 336.827C5.42531 334.883 2.23467 335.383 0 336.251V348.885C3.17467 349.469 7.32132 350.691 12.5507 353.064C14.0307 353.738 15.4893 354.526 16.908 355.291C21.7427 357.902 25.9173 360.155 30.776 358.39L33.616 357.363C33.844 357.28 34.0854 357.45 34.0854 357.693V364.531L32.6173 365.016C30.8533 365.599 29.0666 365.895 27.3093 365.895C22.0653 365.894 17.588 363.475 13.6387 361.342C12.2707 360.603 10.9813 359.906 9.70664 359.327C5.42531 357.383 2.23467 357.883 0 358.751V371.385C3.17467 371.969 7.32132 373.191 12.5507 375.564C14.0307 376.238 15.4893 377.026 16.908 377.791C21.7427 380.402 25.9173 382.655 30.776 380.89L33.616 379.863C33.844 379.78 34.0854 379.95 34.0854 380.193V387.031L32.6173 387.516C30.8533 388.099 29.0666 388.395 27.3093 388.395C22.0653 388.394 17.588 385.975 13.6387 383.842C12.2707 383.103 10.9813 382.406 9.70664 381.827C5.42531 379.883 2.23467 380.383 0 381.251V393.885C3.17467 394.469 7.32132 395.691 12.5507 398.064C14.0307 398.738 15.4893 399.526 16.908 400.291C21.7427 402.902 25.9173 405.155 30.776 403.39L33.616 402.363C33.844 402.28 34.0854 402.45 34.0854 402.693V409.531L32.6173 410.016C30.8533 410.599 29.0666 410.895 27.3093 410.895C22.0653 410.894 17.588 408.475 13.6387 406.342C12.2707 405.603 10.9813 404.906 9.70664 404.327C5.42531 402.383 2.23467 402.883 0 403.751V416.385C3.17467 416.969 7.32132 418.191 12.5507 420.564C14.0307 421.238 15.4893 422.026 16.908 422.791C21.7427 425.402 25.9173 427.655 30.776 425.89L33.616 424.863C33.844 424.78 34.0854 424.95 34.0854 425.193V432.031L32.6173 432.516C30.8533 433.099 29.0666 433.395 27.3093 433.395C22.0653 433.394 17.588 430.975 13.6387 428.842C12.2707 428.103 10.9813 427.406 9.70664 426.827C5.42531 424.883 2.23467 425.383 0 426.251V438.885C3.17467 439.469 7.32132 440.691 12.5507 443.064C14.0307 443.738 15.4893 444.526 16.908 445.291C21.7427 447.902 25.9173 450.155 30.776 448.39L33.616 447.363C33.844 447.28 34.0854 447.45 34.0854 447.693V454.531L32.6173 455.016C30.8533 455.599 29.0666 455.895 27.3093 455.895C22.0653 455.894 17.588 453.475 13.6387 451.342C12.2707 450.603 10.9813 449.906 9.70664 449.327C5.42531 447.383 2.23467 447.883 0 448.751V461.385C3.17467 461.969 7.32132 463.191 12.5507 465.564C14.0307 466.238 15.4893 467.026 16.908 467.791C21.7427 470.402 25.9173 472.655 30.776 470.89L33.616 469.863C33.844 469.78 34.0854 469.95 34.0854 470.193V477.031L32.6173 477.516C30.8533 478.099 29.0666 478.395 27.3093 478.395C22.0653 478.394 17.588 475.975 13.6387 473.842C12.2707 473.103 10.9813 472.406 9.70664 471.827C5.42531 469.883 2.23467 470.383 0 471.251V483.885C3.17467 484.469 7.32132 485.691 12.5507 488.064C14.0307 488.738 15.4893 489.526 16.908 490.291C21.7427 492.902 25.9173 495.155 30.776 493.39L33.616 492.363C33.844 492.28 34.0854 492.45 34.0854 492.693V499.531L32.6173 500.016C30.8533 500.599 29.0666 500.895 27.3093 500.895C22.0653 500.894 17.588 498.475 13.6387 496.342C12.2707 495.603 10.9813 494.906 9.70664 494.327C5.42531 492.383 2.23467 492.883 0 493.751V506.385C3.17467 506.969 7.32132 508.191 12.5507 510.564C14.0307 511.238 15.4893 512.026 16.908 512.791C21.7427 515.402 25.9173 517.655 30.776 515.89L33.616 514.863C33.844 514.78 34.0854 514.95 34.0854 515.193V522.031L32.6173 522.516C30.8533 523.099 29.0666 523.395 27.3093 523.395C22.0653 523.394 17.588 520.975 13.6387 518.842C12.2707 518.103 10.9813 517.406 9.70664 516.827C5.42531 514.883 2.23467 515.383 0 516.251V528.885C3.17467 529.469 7.32132 530.691 12.5507 533.064C14.0307 533.738 15.4893 534.526 16.908 535.291C21.7427 537.902 25.9173 540.155 30.776 538.39L33.616 537.363C33.844 537.281 34.0854 537.45 34.0854 537.693V544.531L32.6173 545.016C30.8533 545.599 29.0666 545.895 27.3093 545.895C22.0653 545.894 17.588 543.475 13.6387 541.342C12.2707 540.603 10.9813 539.906 9.70664 539.327C5.42531 537.383 2.23467 537.883 0 538.751V551.385C3.17467 551.969 7.32132 553.191 12.5507 555.564C14.0307 556.238 15.4893 557.026 16.908 557.791C21.7427 560.402 25.9173 562.655 30.776 560.89L33.616 559.863C33.844 559.781 34.0854 559.95 34.0854 560.193V567.031L32.6173 567.516C30.8533 568.099 29.0666 568.395 27.3093 568.395C22.0653 568.394 17.588 565.975 13.6387 563.842C12.2707 563.103 10.9813 562.406 9.70664 561.827C5.42531 559.883 2.23467 560.383 0 561.251V573.885C3.17467 574.469 7.32132 575.691 12.5507 578.064C14.0307 578.738 15.4893 579.526 16.908 580.291C21.7427 582.902 25.9173 585.155 30.776 583.39L33.616 582.363C33.844 582.281 34.0854 582.45 34.0854 582.693V589.531L32.6173 590.016C30.8533 590.599 29.0666 590.895 27.3093 590.895C22.0653 590.894 17.588 588.475 13.6387 586.342C12.2707 585.603 10.9813 584.906 9.70664 584.327C5.42531 582.383 2.23467 582.883 0 583.751V596.385C3.17467 596.969 7.32132 598.191 12.5507 600.564C14.0307 601.238 15.4893 602.026 16.908 602.791C21.7427 605.402 25.9173 607.655 30.776 605.89L33.616 604.863C33.844 604.78 34.0854 604.95 34.0854 605.193V612.031L32.6173 612.516C30.8533 613.099 29.0666 613.395 27.3093 613.395C22.0653 613.394 17.588 610.975 13.6387 608.842C12.2707 608.103 10.9813 607.406 9.70664 606.827C5.42531 604.883 2.23467 605.383 0 606.251V618.885C3.17467 619.469 7.32132 620.691 12.5507 623.064C14.0307 623.738 15.4893 624.526 16.908 625.291C21.7427 627.902 25.9173 630.155 30.776 628.39L33.616 627.363C33.844 627.28 34.0854 627.45 34.0854 627.693V634.531L32.6173 635.016C30.8533 635.599 29.0666 635.895 27.3093 635.895C22.0653 635.894 17.588 633.475 13.6387 631.342C12.2707 630.603 10.9813 629.906 9.70664 629.327C5.42531 627.383 2.23467 627.883 0 628.751V641.385C3.17467 641.969 7.32132 643.191 12.5507 645.564C14.0307 646.238 15.4893 647.026 16.908 647.791C21.7427 650.402 25.9173 652.655 30.776 650.89L33.616 649.863C33.844 649.78 34.0854 649.95 34.0854 650.193V657.031L32.6173 657.516C30.8533 658.099 29.0666 658.395 27.3093 658.395C22.0653 658.394 17.588 655.975 13.6387 653.842C12.2707 653.103 10.9813 652.406 9.70664 651.827C5.42531 649.883 2.23467 650.383 0 651.251V663.884C3.17467 664.468 7.32132 665.691 12.5507 668.064C14.0307 668.738 15.4893 669.526 16.908 670.291C21.7427 672.902 25.9173 675.155 30.776 673.39L33.616 672.363C33.844 672.28 34.0854 672.45 34.0854 672.693V679.531L32.6173 680.016C30.8533 680.599 29.0666 680.895 27.3093 680.895C22.0653 680.894 17.588 678.475 13.6387 676.342C12.2707 675.603 10.9813 674.906 9.70664 674.327C5.42531 672.383 2.23467 672.883 0 673.751V686.384C3.17467 686.968 7.32132 688.191 12.5507 690.564C14.0307 691.238 15.4893 692.026 16.908 692.791C21.7427 695.402 25.9173 697.655 30.776 695.89L33.616 694.863C33.844 694.78 34.0854 694.95 34.0854 695.193V702.031L32.6173 702.516C30.8533 703.099 29.0666 703.395 27.3093 703.395C22.0653 703.394 17.588 700.975 13.6387 698.842C12.2707 698.103 10.9813 697.406 9.70664 696.827C5.42531 694.883 2.23467 695.383 0 696.251V708.884C3.17467 709.468 7.32132 710.691 12.5507 713.064C14.0307 713.738 15.4893 714.526 16.908 715.291C21.7427 717.902 25.9173 720.155 30.776 718.39L33.616 717.363C33.844 717.28 34.0854 717.45 34.0854 717.693V724.531L32.6173 725.016C30.8533 725.599 29.0666 725.895 27.3093 725.895C22.0653 725.894 17.588 723.475 13.6387 721.342C12.2707 720.603 10.9813 719.906 9.70664 719.327C5.42531 717.383 2.23467 717.883 0 718.751V731.384C3.17467 731.968 7.32132 733.191 12.5507 735.565C14.0307 736.238 15.4893 737.026 16.908 737.791C21.7427 740.402 25.9173 742.655 30.776 740.89L33.616 739.863C33.844 739.78 34.0854 739.95 34.0854 740.193V747.031L32.6173 747.516C30.8533 748.099 29.0666 748.395 27.3093 748.395C22.0653 748.394 17.588 745.975 13.6387 743.842C12.2707 743.103 10.9813 742.406 9.70664 741.827C5.42531 739.883 2.23467 740.383 0 741.251V753.884C3.17467 754.468 7.32132 755.691 12.5507 758.065C14.0307 758.738 15.4893 759.526 16.908 760.291C21.7427 762.902 25.9173 765.155 30.776 763.39L33.616 762.363C33.844 762.28 34.0854 762.45 34.0854 762.693V769.531L32.6173 770.016C30.8533 770.599 29.0666 770.895 27.3093 770.895C22.0653 770.894 17.588 768.475 13.6387 766.342C12.2707 765.603 10.9813 764.906 9.70664 764.327C5.42531 762.383 2.23467 762.883 0 763.751V776.384C3.17467 776.968 7.32132 778.191 12.5507 780.565C14.0307 781.238 15.4893 782.026 16.908 782.791C21.7427 785.402 25.9173 787.655 30.776 785.89L33.616 784.863C33.844 784.78 34.0854 784.95 34.0854 785.193V792.031L32.6173 792.516C30.8533 793.099 29.0666 793.395 27.3093 793.395C22.0653 793.394 17.588 790.975 13.6387 788.842C12.2707 788.103 10.9813 787.406 9.70664 786.827C5.42531 784.883 2.23467 785.383 0 786.251V798.884C3.17467 799.468 7.32132 800.691 12.5507 803.065C14.0307 803.738 15.4893 804.526 16.908 805.291C21.7427 807.902 25.9173 810.155 30.776 808.39L33.616 807.363C33.844 807.28 34.0854 807.45 34.0854 807.693V814.531L32.6173 815.016C30.8533 815.599 29.0666 815.895 27.3093 815.895C22.0653 815.894 17.588 813.475 13.6387 811.342C12.2707 810.603 10.9813 809.906 9.70664 809.327C5.42531 807.383 2.23467 807.883 0 808.751V821.384C3.17467 821.968 7.32132 823.191 12.5507 825.565C14.0307 826.238 15.4893 827.026 16.908 827.791C21.7427 830.402 25.9173 832.655 30.776 830.89L33.616 829.863C33.844 829.781 34.0854 829.95 34.0854 830.193V837.031L32.6173 837.516C30.8533 838.099 29.0666 838.395 27.3093 838.395C22.0653 838.394 17.588 835.975 13.6387 833.842C12.2707 833.103 10.9813 832.406 9.70664 831.827C5.42531 829.883 2.23467 830.383 0 831.251V843.884C3.17467 844.469 7.32132 845.691 12.5507 848.065C14.0307 848.738 15.4893 849.526 16.908 850.291C21.7427 852.902 25.9173 855.155 30.776 853.39L33.616 852.363C33.844 852.281 34.0854 852.45 34.0854 852.693V859.531L32.6173 860.016C30.8533 860.599 29.0666 860.895 27.3093 860.895C22.0653 860.894 17.588 858.475 13.6387 856.342C12.2707 855.603 10.9813 854.906 9.70664 854.327C5.42531 852.383 2.23467 852.883 0 853.751V866.384C3.17467 866.968 7.32132 868.191 12.5507 870.564C14.0307 871.238 15.4893 872.026 16.908 872.791C21.7427 875.402 25.9173 877.655 30.776 875.89L33.616 874.863C33.844 874.781 34.0854 874.95 34.0854 875.193V882.031L32.6173 882.516C30.8533 883.099 29.0666 883.395 27.3093 883.395C22.0653 883.394 17.588 880.975 13.6387 878.842C12.2707 878.103 10.9813 877.406 9.70664 876.827C5.42531 874.883 2.23467 875.383 0 876.251V888.884C3.17467 889.468 7.32132 890.691 12.5507 893.065C14.0307 893.738 15.4893 894.526 16.908 895.291C21.7427 897.902 25.9173 900.155 30.776 898.39L33.616 897.363C33.844 897.281 34.0854 897.45 34.0854 897.693V904.531L32.6173 905.016C30.8533 905.599 29.0666 905.895 27.3093 905.895C22.0653 905.894 17.588 903.475 13.6387 901.342C12.2707 900.603 10.9813 899.906 9.70664 899.327C5.42531 897.383 2.23467 897.883 0 898.751V911.384C3.17467 911.968 7.32132 913.191 12.5507 915.565C14.0307 916.238 15.4893 917.026 16.908 917.791C21.7427 920.402 25.9173 922.655 30.776 920.89L33.616 919.863C33.844 919.781 34.0854 919.95 34.0854 920.193V927.031L32.6173 927.516C30.8533 928.099 29.0666 928.395 27.3093 928.395C22.0653 928.394 17.588 925.975 13.6387 923.842C12.2707 923.103 10.9813 922.406 9.70664 921.827C5.42531 919.883 2.23467 920.383 0 921.251V933.885C3.17467 934.469 7.32132 935.691 12.5507 938.065C14.0307 938.738 15.4893 939.526 16.908 940.291C21.7427 942.902 25.9173 945.155 30.776 943.39L33.616 942.363C33.844 942.281 34.0854 942.45 34.0854 942.693V949.531L32.6173 950.017C30.8533 950.599 29.0666 950.895 27.3093 950.895C22.0653 950.894 17.588 948.475 13.6387 946.342C12.2707 945.603 10.9813 944.906 9.70664 944.327C5.42531 942.383 2.23467 942.883 0 943.751V956.385C3.17467 956.969 7.32132 958.191 12.5507 960.565C14.0307 961.238 15.4893 962.026 16.908 962.791C21.7427 965.402 25.9173 967.655 30.776 965.89L33.616 964.863C33.844 964.781 34.0854 964.95 34.0854 965.193V972.031L32.6173 972.517C30.8533 973.099 29.0666 973.395 27.3093 973.395C22.0653 973.394 17.588 970.975 13.6387 968.842C12.2707 968.103 10.9813 967.406 9.70664 966.827C5.42531 964.883 2.23467 965.383 0 966.251V978.885C3.17467 979.469 7.32132 980.691 12.5507 983.065C14.0307 983.738 15.4893 984.526 16.908 985.291C21.7427 987.902 25.9173 990.155 30.776 988.39L33.616 987.363C33.844 987.281 34.0854 987.45 34.0854 987.693V994.531L32.6173 995.017C30.8533 995.599 29.0666 995.895 27.3093 995.895C22.0653 995.894 17.588 993.475 13.6387 991.342C12.2707 990.603 10.9813 989.906 9.70664 989.327C5.42531 987.383 2.23467 987.883 0 988.751V1001.38C3.17467 1001.97 7.32132 1003.19 12.5507 1005.56C14.0307 1006.24 15.4893 1007.03 16.908 1007.79C21.7427 1010.4 25.9173 1012.66 30.776 1010.89L33.616 1009.86C33.844 1009.78 34.0854 1009.95 34.0854 1010.19V1017.03L32.6173 1017.52C30.8533 1018.1 29.0666 1018.4 27.3093 1018.4C22.0653 1018.39 17.588 1015.98 13.6387 1013.84C12.2707 1013.1 10.9813 1012.41 9.70664 1011.83C5.42531 1009.88 2.23467 1010.38 0 1011.25V1023.88C3.17467 1024.47 7.32132 1025.69 12.5507 1028.06C14.0307 1028.74 15.4893 1029.53 16.908 1030.29C21.7427 1032.9 25.9173 1035.16 30.776 1033.39L33.616 1032.36C33.844 1032.28 34.0854 1032.45 34.0854 1032.69V1039.53L32.6173 1040.02C30.8533 1040.6 29.0666 1040.9 27.3093 1040.9C22.0653 1040.89 17.588 1038.48 13.6387 1036.34C12.2707 1035.6 10.9813 1034.91 9.70664 1034.33C5.42531 1032.38 2.23467 1032.88 0 1033.75V1046.38C3.17467 1046.97 7.32132 1048.19 12.5507 1050.56C14.0307 1051.24 15.4893 1052.03 16.908 1052.79C21.7427 1055.4 25.9173 1057.66 30.776 1055.89L33.616 1054.86C33.844 1054.78 34.0854 1054.95 34.0854 1055.19V1062.03L32.6173 1062.52C30.8533 1063.1 29.0666 1063.4 27.3093 1063.4C22.0653 1063.39 17.588 1060.98 13.6387 1058.84C12.2707 1058.1 10.9813 1057.41 9.70664 1056.83C5.42531 1054.88 2.23467 1055.38 0 1056.25V1068.88C3.17467 1069.47 7.32132 1070.69 12.5507 1073.06C14.0307 1073.74 15.4893 1074.53 16.908 1075.29C21.7427 1077.9 25.9173 1080.16 30.776 1078.39L33.616 1077.36C33.844 1077.28 34.0854 1077.45 34.0854 1077.69V1084.53L32.6173 1085.02C30.8533 1085.6 29.0666 1085.89 27.3093 1085.89C22.0653 1085.89 17.588 1083.48 13.6387 1081.34C12.2707 1080.6 10.9813 1079.91 9.70664 1079.33C5.42531 1077.38 2.23467 1077.88 0 1078.75V1091.38C3.17467 1091.97 7.32132 1093.19 12.5507 1095.56C14.0307 1096.24 15.4893 1097.03 16.908 1097.79C21.7427 1100.4 25.9173 1102.66 30.776 1100.89L33.616 1099.86C33.844 1099.78 34.0854 1099.95 34.0854 1100.19V1105.19H42.6667V0.248535H34.0854V4.53247Z" fill="#393536"/>
<path d="M46.6667 1105.19H57.3334V0.248535H46.6667V1105.19Z" fill="#393536"/>
<path d="M70.3839 14.8431L73.2239 15.8699C78.0826 17.6365 82.2572 15.3818 87.0919 12.7711C88.5106 12.0059 89.9693 11.2191 91.4493 10.5458C96.6786 8.17102 100.825 6.94983 104 6.36584V0.248535H61.3333V1105.19H104V1096.23C101.765 1095.36 98.5746 1094.86 94.2933 1096.81C93.0186 1097.39 91.7292 1098.08 90.3612 1098.82C86.4119 1100.96 81.9346 1103.38 76.6906 1103.38C74.9333 1103.38 73.1466 1103.08 71.3826 1102.5L69.9146 1102.01V1095.17C69.9146 1094.93 70.1559 1094.76 70.3839 1094.84L73.2239 1095.87C78.0826 1097.64 82.2572 1095.38 87.0919 1092.77C88.5106 1092.01 89.9693 1091.22 91.4493 1090.55C96.6786 1088.17 100.825 1086.95 104 1086.37V1073.73C101.765 1072.86 98.5746 1072.36 94.2933 1074.31C93.0186 1074.89 91.7292 1075.58 90.3612 1076.32C86.4119 1078.46 81.9346 1080.88 76.6906 1080.88C74.9333 1080.88 73.1466 1080.58 71.3826 1080L69.9146 1079.51V1072.67C69.9146 1072.43 70.1559 1072.26 70.3839 1072.34L73.2239 1073.37C78.0826 1075.14 82.2572 1072.88 87.0919 1070.27C88.5106 1069.51 89.9693 1068.72 91.4493 1068.05C96.6786 1065.67 100.825 1064.45 104 1063.87V1051.23C101.765 1050.36 98.5746 1049.86 94.2933 1051.81C93.0186 1052.39 91.7292 1053.08 90.3612 1053.82C86.4119 1055.96 81.9346 1058.38 76.6906 1058.38C74.9333 1058.38 73.1466 1058.08 71.3826 1057.5L69.9146 1057.01V1050.17C69.9146 1049.93 70.1559 1049.76 70.3839 1049.84L73.2239 1050.87C78.0826 1052.64 82.2572 1050.38 87.0919 1047.77C88.5106 1047.01 89.9693 1046.22 91.4493 1045.55C96.6786 1043.17 100.825 1041.95 104 1041.37V1028.73C101.765 1027.86 98.5746 1027.36 94.2933 1029.31C93.0186 1029.89 91.7292 1030.58 90.3612 1031.32C86.4119 1033.46 81.9346 1035.88 76.6906 1035.88C74.9333 1035.88 73.1466 1035.58 71.3826 1035L69.9146 1034.51V1027.67C69.9146 1027.43 70.1559 1027.26 70.3839 1027.34L73.2239 1028.37C78.0826 1030.14 82.2572 1027.88 87.0919 1025.27C88.5106 1024.51 89.9693 1023.72 91.4493 1023.05C96.6786 1020.67 100.825 1019.45 104 1018.87V1006.23C101.765 1005.36 98.5746 1004.86 94.2933 1006.81C93.0186 1007.39 91.7292 1008.08 90.3612 1008.82C86.4119 1010.96 81.9346 1013.38 76.6906 1013.38C74.9333 1013.38 73.1466 1013.08 71.3826 1012.5L69.9146 1012.01V1005.17C69.9146 1004.93 70.1559 1004.76 70.3839 1004.84L73.2239 1005.87C78.0826 1007.64 82.2572 1005.38 87.0919 1002.77C88.5106 1002.01 89.9693 1001.22 91.4493 1000.55C96.6786 998.171 100.825 996.95 104 996.366V983.731C101.765 982.865 98.5746 982.365 94.2933 984.309C93.0186 984.887 91.7292 985.583 90.3612 986.322C86.4119 988.457 81.9346 990.875 76.6906 990.875C74.9333 990.875 73.1466 990.581 71.3826 989.998L69.9146 989.513V982.674C69.9146 982.431 70.1559 982.262 70.3839 982.345L73.2239 983.371C78.0826 985.137 82.2572 982.882 87.0919 980.271C88.5106 979.506 89.9693 978.719 91.4493 978.046C96.6786 975.671 100.825 974.45 104 973.866V961.231C101.765 960.365 98.5746 959.865 94.2933 961.809C93.0186 962.387 91.7292 963.083 90.3612 963.822C86.4119 965.956 81.9346 968.375 76.6906 968.375C74.9333 968.375 73.1466 968.081 71.3826 967.498L69.9146 967.013V960.174C69.9146 959.931 70.1559 959.762 70.3839 959.845L73.2239 960.871C78.0826 962.637 82.2572 960.382 87.0919 957.771C88.5106 957.006 89.9693 956.219 91.4493 955.546C96.6786 953.171 100.825 951.95 104 951.366V938.731C101.765 937.865 98.5746 937.365 94.2933 939.309C93.0186 939.887 91.7292 940.583 90.3612 941.322C86.4119 943.456 81.9346 945.875 76.6906 945.875C74.9333 945.875 73.1466 945.581 71.3826 944.998L69.9146 944.513V937.674C69.9146 937.431 70.1559 937.262 70.3839 937.345L73.2239 938.371C78.0826 940.137 82.2572 937.882 87.0919 935.271C88.5106 934.506 89.9693 933.719 91.4493 933.046C96.6786 930.671 100.825 929.45 104 928.866V916.231C101.765 915.365 98.5746 914.865 94.2933 916.809C93.0186 917.387 91.7292 918.083 90.3612 918.822C86.4119 920.956 81.9346 923.375 76.6906 923.375C74.9333 923.375 73.1466 923.081 71.3826 922.498L69.9146 922.012V915.174C69.9146 914.931 70.1559 914.762 70.3839 914.844L73.2239 915.871C78.0826 917.637 82.2572 915.382 87.0919 912.771C88.5106 912.006 89.9693 911.219 91.4493 910.546C96.6786 908.171 100.825 906.95 104 906.366V893.731C101.765 892.865 98.5746 892.365 94.2933 894.309C93.0186 894.887 91.7292 895.583 90.3612 896.322C86.4119 898.456 81.9346 900.875 76.6906 900.875C74.9333 900.875 73.1466 900.581 71.3826 899.998L69.9146 899.512V892.674C69.9146 892.431 70.1559 892.262 70.3839 892.344L73.2239 893.371C78.0826 895.137 82.2572 892.882 87.0919 890.271C88.5106 889.506 89.9693 888.719 91.4493 888.046C96.6786 885.671 100.825 884.45 104 883.866V871.231C101.765 870.365 98.5746 869.865 94.2933 871.809C93.0186 872.387 91.7292 873.083 90.3612 873.822C86.4119 875.956 81.9346 878.375 76.6906 878.375C74.9333 878.375 73.1466 878.081 71.3826 877.498L69.9146 877.012V870.174C69.9146 869.931 70.1559 869.762 70.3839 869.844L73.2239 870.871C78.0826 872.637 82.2572 870.382 87.0919 867.771C88.5106 867.006 89.9693 866.219 91.4493 865.546C96.6786 863.171 100.825 861.95 104 861.366V848.731C101.765 847.865 98.5746 847.365 94.2933 849.309C93.0186 849.887 91.7292 850.583 90.3612 851.322C86.4119 853.456 81.9346 855.875 76.6906 855.875C74.9333 855.875 73.1466 855.581 71.3826 854.998L69.9146 854.512V847.674C69.9146 847.431 70.1559 847.262 70.3839 847.344L73.2239 848.371C78.0826 850.137 82.2572 847.882 87.0919 845.271C88.5106 844.506 89.9693 843.719 91.4493 843.046C96.6786 840.671 100.825 839.45 104 838.866V826.231C101.765 825.365 98.5746 824.865 94.2933 826.809C93.0186 827.387 91.7292 828.083 90.3612 828.822C86.4119 830.956 81.9346 833.375 76.6906 833.375C74.9333 833.375 73.1466 833.081 71.3826 832.498L69.9146 832.012V825.174C69.9146 824.931 70.1559 824.762 70.3839 824.844L73.2239 825.871C78.0826 827.637 82.2572 825.382 87.0919 822.771C88.5106 822.006 89.9693 821.219 91.4493 820.546C96.6786 818.171 100.825 816.95 104 816.366V803.731C101.765 802.865 98.5746 802.365 94.2933 804.309C93.0186 804.887 91.7292 805.583 90.3612 806.322C86.4119 808.456 81.9346 810.875 76.6906 810.875C74.9333 810.875 73.1466 810.581 71.3826 809.998L69.9146 809.512V802.674C69.9146 802.431 70.1559 802.262 70.3839 802.344L73.2239 803.371C78.0826 805.137 82.2572 802.882 87.0919 800.271C88.5106 799.506 89.9693 798.719 91.4493 798.046C96.6786 795.671 100.825 794.45 104 793.866V781.231C101.765 780.365 98.5746 779.865 94.2933 781.809C93.0186 782.387 91.7292 783.083 90.3612 783.822C86.4119 785.956 81.9346 788.375 76.6906 788.375C74.9333 788.375 73.1466 788.081 71.3826 787.498L69.9146 787.012V780.174C69.9146 779.931 70.1559 779.762 70.3839 779.844L73.2239 780.871C78.0826 782.637 82.2572 780.382 87.0919 777.771C88.5106 777.006 89.9693 776.219 91.4493 775.546C96.6786 773.171 100.825 771.95 104 771.366V758.731C101.765 757.865 98.5746 757.365 94.2933 759.309C93.0186 759.887 91.7292 760.583 90.3612 761.322C86.4119 763.456 81.9346 765.875 76.6906 765.875C74.9333 765.875 73.1466 765.581 71.3826 764.998L69.9146 764.512V757.674C69.9146 757.431 70.1559 757.262 70.3839 757.344L73.2239 758.371C78.0826 760.137 82.2572 757.882 87.0919 755.271C88.5106 754.506 89.9693 753.719 91.4493 753.046C96.6786 750.671 100.825 749.45 104 748.866V736.231C101.765 735.365 98.5746 734.865 94.2933 736.809C93.0186 737.387 91.7292 738.083 90.3612 738.822C86.4119 740.956 81.9346 743.375 76.6906 743.375C74.9333 743.375 73.1466 743.081 71.3826 742.498L69.9146 742.012V735.174C69.9146 734.931 70.1559 734.762 70.3839 734.844L73.2239 735.871C78.0826 737.637 82.2572 735.382 87.0919 732.771C88.5106 732.006 89.9693 731.219 91.4493 730.546C96.6786 728.171 100.825 726.95 104 726.366V713.731C101.765 712.865 98.5746 712.365 94.2933 714.309C93.0186 714.887 91.7292 715.583 90.3612 716.322C86.4119 718.456 81.9346 720.875 76.6906 720.875C74.9333 720.875 73.1466 720.581 71.3826 719.998L69.9146 719.512V712.674C69.9146 712.431 70.1559 712.262 70.3839 712.344L73.2239 713.371C78.0826 715.137 82.2572 712.882 87.0919 710.271C88.5106 709.506 89.9693 708.719 91.4493 708.046C96.6786 705.671 100.825 704.45 104 703.866V691.231C101.765 690.365 98.5746 689.865 94.2933 691.809C93.0186 692.387 91.7292 693.083 90.3612 693.822C86.4119 695.956 81.9346 698.375 76.6906 698.375C74.9333 698.375 73.1466 698.081 71.3826 697.498L69.9146 697.012V690.174C69.9146 689.931 70.1559 689.762 70.3839 689.844L73.2239 690.871C78.0826 692.637 82.2572 690.382 87.0919 687.771C88.5106 687.006 89.9693 686.219 91.4493 685.546C96.6786 683.171 100.825 681.95 104 681.366V668.731C101.765 667.865 98.5746 667.365 94.2933 669.309C93.0186 669.887 91.7292 670.583 90.3612 671.322C86.4119 673.456 81.9346 675.875 76.6906 675.875C74.9333 675.875 73.1466 675.581 71.3826 674.998L69.9146 674.512V667.674C69.9146 667.431 70.1559 667.262 70.3839 667.344L73.2239 668.371C78.0826 670.137 82.2572 667.882 87.0919 665.271C88.5106 664.506 89.9693 663.719 91.4493 663.046C96.6786 660.671 100.825 659.45 104 658.866V646.231C101.765 645.364 98.5746 644.864 94.2933 646.808C93.0186 647.387 91.7292 648.083 90.3612 648.822C86.4119 650.956 81.9346 653.375 76.6906 653.375C74.9333 653.375 73.1466 653.08 71.3826 652.498L69.9146 652.013V645.174C69.9146 644.931 70.1559 644.762 70.3839 644.844L73.2239 645.871C78.0826 647.637 82.2572 645.382 87.0919 642.771C88.5106 642.006 89.9693 641.219 91.4493 640.546C96.6786 638.171 100.825 636.95 104 636.366V623.731C101.765 622.864 98.5746 622.364 94.2933 624.308C93.0186 624.887 91.7292 625.583 90.3612 626.322C86.4119 628.456 81.9346 630.875 76.6906 630.875C74.9333 630.875 73.1466 630.58 71.3826 629.998L69.9146 629.513V622.674C69.9146 622.431 70.1559 622.262 70.3839 622.344L73.2239 623.371C78.0826 625.137 82.2572 622.882 87.0919 620.271C88.5106 619.506 89.9693 618.719 91.4493 618.046C96.6786 615.671 100.825 614.45 104 613.866V601.231C101.765 600.364 98.5746 599.864 94.2933 601.808C93.0186 602.387 91.7292 603.083 90.3612 603.822C86.4119 605.956 81.9346 608.375 76.6906 608.375C74.9333 608.375 73.1466 608.08 71.3826 607.498L69.9146 607.013V600.174C69.9146 599.931 70.1559 599.762 70.3839 599.844L73.2239 600.871C78.0826 602.637 82.2572 600.382 87.0919 597.771C88.5106 597.006 89.9693 596.219 91.4493 595.546C96.6786 593.171 100.825 591.95 104 591.366V578.731C101.765 577.864 98.5746 577.364 94.2933 579.308C93.0186 579.887 91.7292 580.583 90.3612 581.322C86.4119 583.456 81.9346 585.875 76.6906 585.875C74.9333 585.875 73.1466 585.58 71.3826 584.998L69.9146 584.513V577.674C69.9146 577.431 70.1559 577.262 70.3839 577.344L73.2239 578.371C78.0826 580.136 82.2572 577.882 87.0919 575.271C88.5106 574.506 89.9693 573.719 91.4493 573.046C96.6786 570.671 100.825 569.45 104 568.866V556.231C101.765 555.364 98.5746 554.864 94.2933 556.808C93.0186 557.387 91.7292 558.083 90.3612 558.822C86.4119 560.956 81.9346 563.375 76.6906 563.375C74.9333 563.375 73.1466 563.08 71.3826 562.498L69.9146 562.013V555.174C69.9146 554.931 70.1559 554.762 70.3839 554.844L73.2239 555.871C78.0826 557.636 82.2572 555.382 87.0919 552.771C88.5106 552.006 89.9693 551.219 91.4493 550.546C96.6786 548.171 100.825 546.95 104 546.366V533.731C101.765 532.864 98.5746 532.364 94.2933 534.308C93.0186 534.887 91.7292 535.583 90.3612 536.322C86.4119 538.456 81.9346 540.875 76.6906 540.875C74.9333 540.875 73.1466 540.58 71.3826 539.998L69.9146 539.513V532.674C69.9146 532.431 70.1559 532.262 70.3839 532.344L73.2239 533.371C78.0826 535.136 82.2572 532.882 87.0919 530.271C88.5106 529.506 89.9693 528.719 91.4493 528.046C96.6786 525.671 100.825 524.45 104 523.866V511.231C101.765 510.364 98.5746 509.864 94.2933 511.808C93.0186 512.387 91.7292 513.083 90.3612 513.822C86.4119 515.956 81.9346 518.375 76.6906 518.375C74.9333 518.375 73.1466 518.08 71.3826 517.498L69.9146 517.013V510.174C69.9146 509.931 70.1559 509.762 70.3839 509.844L73.2239 510.871C78.0826 512.636 82.2572 510.382 87.0919 507.771C88.5106 507.006 89.9693 506.219 91.4493 505.546C96.6786 503.171 100.825 501.95 104 501.366V488.731C101.765 487.864 98.5746 487.364 94.2933 489.308C93.0186 489.887 91.7292 490.583 90.3612 491.322C86.4119 493.456 81.9346 495.875 76.6906 495.875C74.9333 495.875 73.1466 495.58 71.3826 494.998L69.9146 494.513V487.674C69.9146 487.431 70.1559 487.262 70.3839 487.344L73.2239 488.371C78.0826 490.136 82.2572 487.882 87.0919 485.271C88.5106 484.506 89.9693 483.719 91.4493 483.046C96.6786 480.671 100.825 479.45 104 478.866V466.231C101.765 465.364 98.5746 464.864 94.2933 466.808C93.0186 467.387 91.7292 468.083 90.3612 468.822C86.4119 470.956 81.9346 473.375 76.6906 473.375C74.9333 473.375 73.1466 473.08 71.3826 472.498L69.9146 472.013V465.174C69.9146 464.931 70.1559 464.762 70.3839 464.844L73.2239 465.871C78.0826 467.636 82.2572 465.382 87.0919 462.771C88.5106 462.006 89.9693 461.219 91.4493 460.546C96.6786 458.171 100.825 456.95 104 456.366V443.731C101.765 442.864 98.5746 442.364 94.2933 444.308C93.0186 444.887 91.7292 445.583 90.3612 446.322C86.4119 448.456 81.9346 450.875 76.6906 450.875C74.9333 450.875 73.1466 450.58 71.3826 449.998L69.9146 449.513V442.674C69.9146 442.431 70.1559 442.262 70.3839 442.344L73.2239 443.371C78.0826 445.136 82.2572 442.882 87.0919 440.271C88.5106 439.506 89.9693 438.719 91.4493 438.046C96.6786 435.671 100.825 434.45 104 433.866V421.231C101.765 420.364 98.5746 419.864 94.2933 421.808C93.0186 422.387 91.7292 423.083 90.3612 423.822C86.4119 425.956 81.9346 428.375 76.6906 428.375C74.9333 428.375 73.1466 428.08 71.3826 427.498L69.9146 427.013V420.174C69.9146 419.931 70.1559 419.762 70.3839 419.844L73.2239 420.871C78.0826 422.636 82.2572 420.382 87.0919 417.771C88.5106 417.006 89.9693 416.219 91.4493 415.546C96.6786 413.171 100.825 411.95 104 411.366V398.731C101.765 397.864 98.5746 397.364 94.2933 399.308C93.0186 399.887 91.7292 400.583 90.3612 401.322C86.4119 403.456 81.9346 405.875 76.6906 405.875C74.9333 405.875 73.1466 405.58 71.3826 404.998L69.9146 404.513V397.674C69.9146 397.431 70.1559 397.262 70.3839 397.344L73.2239 398.371C78.0826 400.136 82.2572 397.882 87.0919 395.271C88.5106 394.506 89.9693 393.719 91.4493 393.046C96.6786 390.671 100.825 389.45 104 388.866V376.231C101.765 375.364 98.5746 374.864 94.2933 376.808C93.0186 377.387 91.7292 378.083 90.3612 378.822C86.4119 380.956 81.9346 383.375 76.6906 383.375C74.9333 383.375 73.1466 383.08 71.3826 382.498L69.9146 382.013V375.174C69.9146 374.931 70.1559 374.762 70.3839 374.844L73.2239 375.871C78.0826 377.636 82.2572 375.382 87.0919 372.771C88.5106 372.006 89.9693 371.219 91.4493 370.546C96.6786 368.171 100.825 366.95 104 366.366V353.731C101.765 352.864 98.5746 352.364 94.2933 354.308C93.0186 354.887 91.7292 355.583 90.3612 356.322C86.4119 358.456 81.9346 360.875 76.6906 360.875C74.9333 360.875 73.1466 360.58 71.3826 359.998L69.9146 359.513V352.674C69.9146 352.431 70.1559 352.262 70.3839 352.344L73.2239 353.371C78.0826 355.136 82.2572 352.882 87.0919 350.271C88.5106 349.506 89.9693 348.719 91.4493 348.046C96.6786 345.671 100.825 344.45 104 343.866V331.231C101.765 330.364 98.5746 329.864 94.2933 331.808C93.0186 332.387 91.7292 333.083 90.3612 333.822C86.4119 335.956 81.9346 338.375 76.6906 338.375C74.9333 338.375 73.1466 338.08 71.3826 337.498L69.9146 337.013V330.174C69.9146 329.931 70.1559 329.762 70.3839 329.844L73.2239 330.871C78.0826 332.636 82.2572 330.382 87.0919 327.771C88.5106 327.006 89.9693 326.219 91.4493 325.546C96.6786 323.171 100.825 321.95 104 321.366V308.731C101.765 307.864 98.5746 307.364 94.2933 309.308C93.0186 309.887 91.7292 310.583 90.3612 311.322C86.4119 313.456 81.9346 315.875 76.6906 315.875C74.9333 315.875 73.1466 315.58 71.3826 314.998L69.9146 314.513V307.674C69.9146 307.431 70.1559 307.262 70.3839 307.344L73.2239 308.371C78.0826 310.136 82.2572 307.882 87.0919 305.271C88.5106 304.506 89.9693 303.719 91.4493 303.046C96.6786 300.671 100.825 299.45 104 298.866V286.231C101.765 285.364 98.5746 284.864 94.2933 286.808C93.0186 287.387 91.7292 288.083 90.3612 288.822C86.4119 290.956 81.9346 293.375 76.6906 293.375C74.9333 293.375 73.1466 293.08 71.3826 292.498L69.9146 292.013V285.174C69.9146 284.931 70.1559 284.762 70.3839 284.844L73.2239 285.871C78.0826 287.636 82.2572 285.382 87.0919 282.771C88.5106 282.006 89.9693 281.219 91.4493 280.546C96.6786 278.171 100.825 276.95 104 276.366V263.731C101.765 262.864 98.5746 262.364 94.2933 264.308C93.0186 264.887 91.7292 265.583 90.3612 266.322C86.4119 268.456 81.9346 270.875 76.6906 270.875C74.9333 270.875 73.1466 270.58 71.3826 269.998L69.9146 269.513V262.674C69.9146 262.431 70.1559 262.262 70.3839 262.344L73.2239 263.371C78.0826 265.136 82.2572 262.882 87.0919 260.271C88.5106 259.506 89.9693 258.719 91.4493 258.046C96.6786 255.671 100.825 254.45 104 253.866V241.231C101.765 240.364 98.5746 239.864 94.2933 241.808C93.0186 242.387 91.7292 243.083 90.3612 243.822C86.4119 245.956 81.9346 248.375 76.6906 248.375C74.9333 248.375 73.1466 248.08 71.3826 247.498L69.9146 247.013V240.174C69.9146 239.931 70.1559 239.762 70.3839 239.844L73.2239 240.871C78.0826 242.636 82.2572 240.382 87.0919 237.771C88.5106 237.006 89.9693 236.219 91.4493 235.546C96.6786 233.171 100.825 231.95 104 231.366V218.731C101.765 217.864 98.5746 217.364 94.2933 219.308C93.0186 219.887 91.7292 220.583 90.3612 221.322C86.4119 223.456 81.9346 225.875 76.6906 225.875C74.9333 225.875 73.1466 225.58 71.3826 224.998L69.9146 224.513V217.674C69.9146 217.431 70.1559 217.262 70.3839 217.344L73.2239 218.371C78.0826 220.136 82.2572 217.882 87.0919 215.271C88.5106 214.506 89.9693 213.719 91.4493 213.046C96.6786 210.671 100.825 209.45 104 208.866V196.231C101.765 195.364 98.5746 194.864 94.2933 196.808C93.0186 197.387 91.7292 198.083 90.3612 198.822C86.4119 200.956 81.9346 203.375 76.6906 203.375C74.9333 203.375 73.1466 203.08 71.3826 202.498L69.9146 202.013V195.174C69.9146 194.931 70.1559 194.762 70.3839 194.844L73.2239 195.871C78.0826 197.636 82.2572 195.382 87.0919 192.771C88.5106 192.006 89.9693 191.219 91.4493 190.546C96.6786 188.171 100.825 186.95 104 186.366V173.731C101.765 172.864 98.5746 172.364 94.2933 174.308C93.0186 174.887 91.7292 175.583 90.3612 176.322C86.4119 178.456 81.9346 180.875 76.6906 180.875C74.9333 180.875 73.1466 180.58 71.3826 179.998L69.9146 179.513V172.674C69.9146 172.431 70.1559 172.262 70.3839 172.344L73.2239 173.371C78.0826 175.136 82.2572 172.882 87.0919 170.271C88.5106 169.506 89.9693 168.719 91.4493 168.046C96.6786 165.671 100.825 164.45 104 163.866V151.231C101.765 150.364 98.5746 149.864 94.2933 151.808C93.0186 152.387 91.7292 153.083 90.3612 153.822C86.4119 155.956 81.9346 158.375 76.6906 158.375C74.9333 158.375 73.1466 158.08 71.3826 157.498L69.9146 157.013V150.174C69.9146 149.931 70.1559 149.762 70.3839 149.844L73.2239 150.871C78.0826 152.636 82.2572 150.382 87.0919 147.771C88.5106 147.006 89.9693 146.219 91.4493 145.546C96.6786 143.171 100.825 141.95 104 141.366V128.731C101.765 127.864 98.5746 127.364 94.2933 129.308C93.0186 129.887 91.7292 130.583 90.3612 131.322C86.4119 133.456 81.9346 135.875 76.6906 135.875C74.9333 135.875 73.1466 135.58 71.3826 134.998L69.9146 134.513V127.674C69.9146 127.431 70.1559 127.262 70.3839 127.344L73.2239 128.371C78.0826 130.136 82.2572 127.882 87.0919 125.271C88.5106 124.506 89.9693 123.719 91.4493 123.046C96.6786 120.671 100.825 119.45 104 118.866V106.231C101.765 105.365 98.5746 104.865 94.2933 106.809C93.0186 107.387 91.7292 108.083 90.3612 108.822C86.4119 110.956 81.9346 113.375 76.6906 113.375C74.9333 113.375 73.1466 113.08 71.3826 112.498L69.9146 112.012V105.174C69.9146 104.931 70.1559 104.762 70.3839 104.844L73.2239 105.871C78.0826 107.636 82.2572 105.382 87.0919 102.771C88.5106 102.006 89.9693 101.219 91.4493 100.546C96.6786 98.1711 100.825 96.9498 104 96.3658V83.7311C101.765 82.8645 98.5746 82.3645 94.2933 84.3085C93.0186 84.8871 91.7292 85.5831 90.3612 86.3218C86.4119 88.4565 81.9346 90.8752 76.6906 90.8752C74.9333 90.8752 73.1466 90.5805 71.3826 89.9978L69.9146 89.5124V82.6738C69.9146 82.4311 70.1559 82.2618 70.3839 82.3444L73.2239 83.3712C78.0826 85.1365 82.2572 82.8818 87.0919 80.2711C88.5106 79.5059 89.9693 78.7191 91.4493 78.0458C96.6786 75.671 100.825 74.4498 104 73.8658V61.2312C101.765 60.3645 98.5746 59.8645 94.2933 61.8085C93.0186 62.3872 91.7292 63.0831 90.3612 63.8218C86.4119 65.9564 81.9346 68.3751 76.6906 68.3751C74.9333 68.3751 73.1466 68.0804 71.3826 67.4978L69.9146 67.0125V60.1737C69.9146 59.931 70.1559 59.7617 70.3839 59.8445L73.2239 60.8711C78.0826 62.6365 82.2572 60.3818 87.0919 57.7711C88.5106 57.0059 89.9693 56.2191 91.4493 55.5458C96.6786 53.171 100.825 51.9498 104 51.3658V38.7312C101.765 37.8645 98.5746 37.3645 94.2933 39.3085C93.0186 39.8872 91.7292 40.5831 90.3612 41.3218C86.4119 43.4564 81.9346 45.8751 76.6906 45.8751C74.9333 45.8751 73.1466 45.5804 71.3826 44.9978L69.9146 44.5125V37.6737C69.9146 37.431 70.1559 37.2617 70.3839 37.3445L73.2239 38.3711C78.0826 40.1365 82.2572 37.8818 87.0919 35.2711C88.5106 34.5059 89.9693 33.7191 91.4493 33.0458C96.6786 30.671 100.825 29.4498 104 28.8658V16.2324C101.765 15.3645 98.5746 14.8645 94.2933 16.8085C93.0186 17.3872 91.7292 18.0845 90.3612 18.8218C86.4119 20.9551 81.9346 23.3751 76.6906 23.3751C74.9333 23.3751 73.1466 23.0804 71.3826 22.4978L69.9146 22.0125V15.1725C69.9146 14.9312 70.1559 14.7618 70.3839 14.8431Z" fill="#393536"/>
</svg>
