<svg width="105" height="1108" viewBox="0 0 105 1108" fill="none" xmlns="http://www.w3.org/2000/svg">
<path d="M39.9759 2.38515L47.4479 12.8986V0.387882H38.9053C39.1933 1.08522 39.5332 1.76248 39.9759 2.38515Z" fill="#393536"/>
<path d="M24.4266 0.387825H15.7253L21.608 8.66517H21.6093L35.4479 28.1357V4.9265C35.4479 3.36783 35.1626 1.83449 34.6319 0.387825H24.4266Z" fill="#393536"/>
<path d="M2.64794 8.66516H18.336L13.1666 1.39172C12.7186 0.761056 11.9946 0.387817 11.2226 0.387817H0.261292V6.27844C0.261292 7.59711 1.32928 8.66516 2.64794 8.66516Z" fill="#393536"/>
<path d="M38.1146 4.47047V28.6758C38.1146 30.7651 38.764 32.8037 39.976 34.5077L47.448 45.0211V20.8158C47.448 18.7251 46.7973 16.6864 45.5866 14.9837L38.1146 4.47047Z" fill="#393536"/>
<path d="M27.7493 22.0105H19.3573L25.4333 30.5599C26.0146 31.3772 25.4293 32.5105 24.4266 32.5105H15.7253L21.608 40.7878H21.6093L35.4479 60.2584V37.0477C35.4479 34.3117 34.596 31.6425 33.0106 29.4118L27.7493 22.0105Z" fill="#393536"/>
<path d="M2.64794 40.7878H18.336L13.1666 33.5144C12.7186 32.8837 11.9946 32.5105 11.2226 32.5105H0.261292V38.4011C0.261292 39.7185 1.32928 40.7878 2.64794 40.7878Z" fill="#393536"/>
<path d="M2.64795 29.8439H21.6533L16.8 23.0144C16.352 22.3838 15.6267 22.0105 14.8547 22.0105H0.261292V27.4572C0.261292 28.7758 1.32928 29.8439 2.64795 29.8439Z" fill="#393536"/>
<path d="M2.64794 19.3439H25.9253L20.9453 12.3358C20.4973 11.7051 19.772 11.3319 19 11.3319H0.261292V16.9572C0.261292 18.2758 1.32928 19.3439 2.64794 19.3439Z" fill="#393536"/>
<path d="M38.1146 36.5931V60.7985C38.1146 62.8878 38.764 64.9264 39.976 66.6304L47.448 77.1438V52.9385C47.448 50.8478 46.7973 48.8091 45.5866 47.1064L38.1146 36.5931Z" fill="#393536"/>
<path d="M27.7493 54.1332H19.3573L25.4333 62.6825C26.0146 63.4999 25.4293 64.6332 24.4266 64.6332H15.7253L21.608 72.9105H21.6093L35.4479 92.3811V69.1706C35.4479 66.4346 34.596 63.7652 33.0106 61.5345L27.7493 54.1332Z" fill="#393536"/>
<path d="M2.64794 72.9105H18.336L13.1666 65.6358C12.7186 65.0064 11.9946 64.6332 11.2226 64.6332H0.261292V70.5238C0.261292 71.8425 1.32928 72.9105 2.64794 72.9105Z" fill="#393536"/>
<path d="M2.64795 61.9664H21.6533L16.8 55.1357C16.352 54.5064 15.6267 54.1331 14.8547 54.1331H0.261292V59.5797C0.261292 60.8984 1.32928 61.9664 2.64795 61.9664Z" fill="#393536"/>
<path d="M2.64794 51.4664H25.9253L20.9453 44.4584C20.4973 43.8277 19.772 43.4545 19 43.4545H0.261292V49.0797C0.261292 50.3984 1.32928 51.4664 2.64794 51.4664Z" fill="#393536"/>
<path d="M38.1146 68.7158V92.9197C38.1146 95.0104 38.764 97.0491 39.976 98.7517L47.448 109.265V85.0598C47.448 82.9705 46.7973 80.9317 45.5866 79.2291L38.1146 68.7158Z" fill="#393536"/>
<path d="M27.7493 86.2544H19.3573L25.4333 94.8037C26.0146 95.6224 25.4293 96.7544 24.4266 96.7544H15.7253L21.608 105.032H21.6093L35.4479 124.504V101.293C35.4479 98.5557 34.596 95.8877 33.0106 93.657L27.7493 86.2544Z" fill="#393536"/>
<path d="M2.64794 105.032H18.336L13.1666 97.7585C12.7186 97.1292 11.9946 96.7546 11.2226 96.7546H0.261292V102.647C0.261292 103.964 1.32928 105.032 2.64794 105.032Z" fill="#393536"/>
<path d="M2.64795 94.0879H21.6533L16.8 87.2585C16.352 86.6291 15.6267 86.2546 14.8547 86.2546H0.261292V91.7025C0.261292 93.0198 1.32928 94.0879 2.64795 94.0879Z" fill="#393536"/>
<path d="M2.64794 83.5879H25.9253L20.9453 76.5798C20.4973 75.9505 19.772 75.5772 19 75.5772H0.261292V81.2025C0.261292 82.5198 1.32928 83.5879 2.64794 83.5879Z" fill="#393536"/>
<path d="M38.1146 100.838V125.042C38.1146 127.133 38.764 129.17 39.976 130.874L47.448 141.388V117.182C47.448 115.093 46.7973 113.054 45.5866 111.35L38.1146 100.838Z" fill="#393536"/>
<path d="M27.7493 118.377H19.3573L25.4333 126.927C26.0146 127.745 25.4293 128.877 24.4266 128.877H15.7253L21.608 137.155H21.6093L35.4479 156.627V133.416C35.4479 130.679 34.596 128.009 33.0106 125.779L27.7493 118.377Z" fill="#393536"/>
<path d="M2.64794 137.155H18.336L13.1666 129.881C12.7186 129.252 11.9946 128.877 11.2226 128.877H0.261292V134.769C0.261292 136.087 1.32928 137.155 2.64794 137.155Z" fill="#393536"/>
<path d="M2.64795 126.21H21.6533L16.8 119.381C16.352 118.752 15.6267 118.377 14.8547 118.377H0.261292V123.825C0.261292 125.142 1.32928 126.21 2.64795 126.21Z" fill="#393536"/>
<path d="M2.64794 115.71H25.9253L20.9453 108.702C20.4973 108.073 19.772 107.698 19 107.698H0.261292V113.325C0.261292 114.642 1.32928 115.71 2.64794 115.71Z" fill="#393536"/>
<path d="M38.1146 132.96V157.165C38.1146 159.256 38.764 161.293 39.976 162.997L47.448 173.511V149.305C47.448 147.216 46.7973 145.177 45.5866 143.473L38.1146 132.96Z" fill="#393536"/>
<path d="M27.7493 150.5H19.3573L25.4333 159.049C26.0146 159.867 25.4293 161 24.4266 161H15.7253L21.608 169.277H21.6093L35.4479 188.748V165.539C35.4479 162.801 34.596 160.132 33.0106 157.901L27.7493 150.5Z" fill="#393536"/>
<path d="M2.64794 169.277H18.336L13.1666 162.004C12.7186 161.373 11.9946 161 11.2226 161H0.261292V166.892C0.261292 168.209 1.32928 169.277 2.64794 169.277Z" fill="#393536"/>
<path d="M2.64795 158.333H21.6533L16.8 151.504C16.352 150.873 15.6267 150.5 14.8547 150.5H0.261292V155.948C0.261292 157.265 1.32928 158.333 2.64795 158.333Z" fill="#393536"/>
<path d="M2.64794 147.833H25.9253L20.9453 140.825C20.4973 140.196 19.772 139.821 19 139.821H0.261292V145.448C0.261292 146.765 1.32928 147.833 2.64794 147.833Z" fill="#393536"/>
<path d="M38.1146 165.082V189.288C38.1146 191.377 38.764 193.416 39.976 195.12L47.448 205.633V181.428C47.448 179.337 46.7973 177.3 45.5866 175.596L38.1146 165.082Z" fill="#393536"/>
<path d="M27.7493 182.623H19.3573L25.4333 191.172C26.0146 191.989 25.4293 193.123 24.4266 193.123H15.7253L21.608 201.4H21.6093L35.4479 220.87V197.661C35.4479 194.924 34.596 192.254 33.0106 190.024L27.7493 182.623Z" fill="#393536"/>
<path d="M2.64794 201.4H18.336L13.1666 194.126C12.7186 193.496 11.9946 193.122 11.2226 193.122H0.261292V199.013C0.261292 200.332 1.32928 201.4 2.64794 201.4Z" fill="#393536"/>
<path d="M2.64795 190.456H21.6533L16.8 183.627C16.352 182.996 15.6267 182.623 14.8547 182.623H0.261292V188.069C0.261292 189.388 1.32928 190.456 2.64795 190.456Z" fill="#393536"/>
<path d="M2.64794 179.956H25.9253L20.9453 172.948C20.4973 172.317 19.772 171.944 19 171.944H0.261292V177.569C0.261292 178.888 1.32928 179.956 2.64794 179.956Z" fill="#393536"/>
<path d="M38.1146 197.205V221.41C38.1146 223.5 38.764 225.538 39.976 227.242L47.448 237.756V213.55C47.448 211.46 46.7973 209.421 45.5866 207.718L38.1146 197.205Z" fill="#393536"/>
<path d="M27.7493 214.745H19.3573L25.4333 223.294C26.0146 224.112 25.4293 225.245 24.4266 225.245H15.7253L21.608 233.522H21.6093L35.4479 252.993V229.782C35.4479 227.046 34.596 224.377 33.0106 222.146L27.7493 214.745Z" fill="#393536"/>
<path d="M2.64794 233.523H18.336L13.1666 226.248C12.7186 225.619 11.9946 225.245 11.2226 225.245H0.261292V231.136C0.261292 232.453 1.32928 233.523 2.64794 233.523Z" fill="#393536"/>
<path d="M2.64795 222.578H21.6533L16.8 215.748C16.352 215.118 15.6267 214.745 14.8547 214.745H0.261292V220.192C0.261292 221.509 1.32928 222.578 2.64795 222.578Z" fill="#393536"/>
<path d="M2.64794 212.078H25.9253L20.9453 205.07C20.4973 204.44 19.772 204.067 19 204.067H0.261292V209.692C0.261292 211.009 1.32928 212.078 2.64794 212.078Z" fill="#393536"/>
<path d="M38.1146 229.328V253.532C38.1146 255.622 38.764 257.661 39.976 259.364L47.448 269.877V245.672C47.448 243.582 46.7973 241.544 45.5866 239.841L38.1146 229.328Z" fill="#393536"/>
<path d="M27.7493 246.867H19.3573L25.4333 255.416C26.0146 256.234 25.4293 257.367 24.4266 257.367H15.7253L21.608 265.644H21.6093L35.4479 285.116V261.905C35.4479 259.168 34.596 256.5 33.0106 254.269L27.7493 246.867Z" fill="#393536"/>
<path d="M2.64794 265.644H18.336L13.1666 258.37C12.7186 257.741 11.9946 257.367 11.2226 257.367H0.261292V263.259C0.261292 264.576 1.32928 265.644 2.64794 265.644Z" fill="#393536"/>
<path d="M2.64795 254.7H21.6533L16.8 247.87C16.352 247.241 15.6267 246.866 14.8547 246.866H0.261292V252.314C0.261292 253.632 1.32928 254.7 2.64795 254.7Z" fill="#393536"/>
<path d="M2.64794 244.2H25.9253L20.9453 237.192C20.4973 236.562 19.772 236.189 19 236.189H0.261292V241.814C0.261292 243.132 1.32928 244.2 2.64794 244.2Z" fill="#393536"/>
<path d="M38.1146 261.451V285.655C38.1146 287.745 38.764 289.783 39.976 291.487L47.448 302V277.795C47.448 275.705 46.7973 273.667 45.5866 271.963L38.1146 261.451Z" fill="#393536"/>
<path d="M27.7493 278.989H19.3573L25.4333 287.538C26.0146 288.356 25.4293 289.489 24.4266 289.489H15.7253L21.608 297.766H21.6093L35.4479 317.238V294.028C35.4479 291.29 34.596 288.621 33.0106 286.39L27.7493 278.989Z" fill="#393536"/>
<path d="M2.64794 297.766H18.336L13.1666 290.493C12.7186 289.864 11.9946 289.489 11.2226 289.489H0.261292V295.381C0.261292 296.698 1.32928 297.766 2.64794 297.766Z" fill="#393536"/>
<path d="M2.64795 286.822H21.6533L16.8 279.993C16.352 279.364 15.6267 278.989 14.8547 278.989H0.261292V284.437C0.261292 285.754 1.32928 286.822 2.64795 286.822Z" fill="#393536"/>
<path d="M2.64794 276.322H25.9253L20.9453 269.314C20.4973 268.685 19.772 268.31 19 268.31H0.261292V273.937C0.261292 275.254 1.32928 276.322 2.64794 276.322Z" fill="#393536"/>
<path d="M38.1146 293.572V317.777C38.1146 319.868 38.764 321.905 39.976 323.609L47.448 334.122V309.917C47.448 307.828 46.7973 305.789 45.5866 304.085L38.1146 293.572Z" fill="#393536"/>
<path d="M27.7493 311.112H19.3573L25.4333 319.661C26.0146 320.479 25.4293 321.612 24.4266 321.612H15.7253L21.608 329.889H21.6093L35.4479 349.36V326.15C35.4479 323.413 34.596 320.744 33.0106 318.513L27.7493 311.112Z" fill="#393536"/>
<path d="M2.64794 329.889H18.336L13.1666 322.616C12.7186 321.985 11.9946 321.612 11.2226 321.612H0.261292V327.504C0.261292 328.821 1.32928 329.889 2.64794 329.889Z" fill="#393536"/>
<path d="M2.64795 318.945H21.6533L16.8 312.116C16.352 311.485 15.6267 311.112 14.8547 311.112H0.261292V316.56C0.261292 317.877 1.32928 318.945 2.64795 318.945Z" fill="#393536"/>
<path d="M2.64794 308.445H25.9253L20.9453 301.437C20.4973 300.808 19.772 300.433 19 300.433H0.261292V306.06C0.261292 307.377 1.32928 308.445 2.64794 308.445Z" fill="#393536"/>
<path d="M38.1146 325.695V349.9C38.1146 351.989 38.764 354.028 39.976 355.732L47.448 366.245V342.04C47.448 339.949 46.7973 337.912 45.5866 336.208L38.1146 325.695Z" fill="#393536"/>
<path d="M27.7493 343.235H19.3573L25.4333 351.784C26.0146 352.601 25.4293 353.735 24.4266 353.735H15.7253L21.608 362.012H21.6093L35.4479 381.482V358.273C35.4479 355.536 34.596 352.867 33.0106 350.636L27.7493 343.235Z" fill="#393536"/>
<path d="M2.64794 362.012H18.336L13.1666 354.739C12.7186 354.108 11.9946 353.734 11.2226 353.734H0.261292V359.625C0.261292 360.944 1.32928 362.012 2.64794 362.012Z" fill="#393536"/>
<path d="M2.64795 351.068H21.6533L16.8 344.239C16.352 343.608 15.6267 343.234 14.8547 343.234H0.261292V348.681C0.261292 350 1.32928 351.068 2.64795 351.068Z" fill="#393536"/>
<path d="M2.64794 340.568H25.9253L20.9453 333.56C20.4973 332.929 19.772 332.556 19 332.556H0.261292V338.181C0.261292 339.5 1.32928 340.568 2.64794 340.568Z" fill="#393536"/>
<path d="M38.1146 357.817V382.022C38.1146 384.112 38.764 386.15 39.976 387.854L47.448 398.368V374.162C47.448 372.072 46.7973 370.033 45.5866 368.33L38.1146 357.817Z" fill="#393536"/>
<path d="M27.7493 375.356H19.3573L25.4333 383.906C26.0146 384.724 25.4293 385.856 24.4266 385.856H15.7253L21.608 394.134H21.6093L35.4479 413.605V390.394C35.4479 387.658 34.596 384.989 33.0106 382.758L27.7493 375.356Z" fill="#393536"/>
<path d="M2.64794 394.134H18.336L13.1666 386.86C12.7186 386.23 11.9946 385.856 11.2226 385.856H0.261292V391.748C0.261292 393.065 1.32928 394.134 2.64794 394.134Z" fill="#393536"/>
<path d="M2.64795 383.189H21.6533L16.8 376.36C16.352 375.73 15.6267 375.356 14.8547 375.356H0.261292V380.804C0.261292 382.121 1.32928 383.189 2.64795 383.189Z" fill="#393536"/>
<path d="M2.64794 372.689H25.9253L20.9453 365.682C20.4973 365.052 19.772 364.678 19 364.678H0.261292V370.304C0.261292 371.621 1.32928 372.689 2.64794 372.689Z" fill="#393536"/>
<path d="M38.1146 389.94V414.144C38.1146 416.234 38.764 418.273 39.976 419.976L47.448 430.489V406.284C47.448 404.194 46.7973 402.156 45.5866 400.453L38.1146 389.94Z" fill="#393536"/>
<path d="M27.7493 407.478H19.3573L25.4333 416.028C26.0146 416.847 25.4293 417.978 24.4266 417.978H15.7253L21.608 426.256H21.6093L35.4479 445.728V422.517C35.4479 419.78 34.596 417.112 33.0106 414.881L27.7493 407.478Z" fill="#393536"/>
<path d="M2.64794 426.256H18.336L13.1666 418.982C12.7186 418.353 11.9946 417.978 11.2226 417.978H0.261292V423.87C0.261292 425.188 1.32928 426.256 2.64794 426.256Z" fill="#393536"/>
<path d="M2.64795 415.312H21.6533L16.8 408.482C16.352 407.853 15.6267 407.478 14.8547 407.478H0.261292V412.926C0.261292 414.244 1.32928 415.312 2.64795 415.312Z" fill="#393536"/>
<path d="M2.64794 404.812H25.9253L20.9453 397.804C20.4973 397.174 19.772 396.801 19 396.801H0.261292V402.426C0.261292 403.744 1.32928 404.812 2.64794 404.812Z" fill="#393536"/>
<path d="M38.1146 422.063V446.267C38.1146 448.357 38.764 450.395 39.976 452.099L47.448 462.612V438.407C47.448 436.317 46.7973 434.279 45.5866 432.575L38.1146 422.063Z" fill="#393536"/>
<path d="M27.7493 439.601H19.3573L25.4333 448.15C26.0146 448.968 25.4293 450.101 24.4266 450.101H15.7253L21.608 458.378H21.6093L35.4479 477.85V454.64C35.4479 451.902 34.596 449.233 33.0106 447.002L27.7493 439.601Z" fill="#393536"/>
<path d="M2.64794 458.378H18.336L13.1666 451.105C12.7186 450.476 11.9946 450.101 11.2226 450.101H0.261292V455.993C0.261292 457.31 1.32928 458.378 2.64794 458.378Z" fill="#393536"/>
<path d="M2.64795 447.434H21.6533L16.8 440.605C16.352 439.976 15.6267 439.601 14.8547 439.601H0.261292V445.049C0.261292 446.366 1.32928 447.434 2.64795 447.434Z" fill="#393536"/>
<path d="M2.64794 436.934H25.9253L20.9453 429.926C20.4973 429.297 19.772 428.922 19 428.922H0.261292V434.549C0.261292 435.866 1.32928 436.934 2.64794 436.934Z" fill="#393536"/>
<path d="M38.1146 454.184V478.389C38.1146 480.48 38.764 482.517 39.976 484.221L47.448 494.734V470.529C47.448 468.44 46.7973 466.401 45.5866 464.697L38.1146 454.184Z" fill="#393536"/>
<path d="M27.7493 985.682H19.3573L25.4333 994.232C26.0146 995.049 25.4293 996.182 24.4266 996.182H15.7253L21.608 1004.46H21.6093L35.4479 1023.93V1000.72C35.4479 997.984 34.596 995.314 33.0106 993.084L27.7493 985.682Z" fill="#393536"/>
<path d="M2.64794 1004.46H18.336L13.1666 997.186C12.7186 996.556 11.9946 996.182 11.2226 996.182H0.261292V1002.07C0.261292 1003.39 1.32928 1004.46 2.64794 1004.46Z" fill="#393536"/>
<path d="M2.64795 993.516H21.6533L16.8 986.686C16.352 986.056 15.6267 985.682 14.8547 985.682H0.261292V991.129C0.261292 992.446 1.32928 993.516 2.64795 993.516Z" fill="#393536"/>
<path d="M2.64794 983.016H25.9253L20.9453 976.008C20.4973 975.377 19.772 975.004 19 975.004H0.261292V980.629C0.261292 981.946 1.32928 983.016 2.64794 983.016Z" fill="#393536"/>
<path d="M38.1146 1000.27V1024.47C38.1146 1026.56 38.764 1028.6 39.976 1030.3L47.448 1040.81V1016.61C47.448 1014.52 46.7973 1012.48 45.5866 1010.78L38.1146 1000.27Z" fill="#393536"/>
<path d="M2.64794 972.337H18.336L13.1666 965.064C12.7186 964.433 11.9946 964.06 11.2226 964.06H0.261292V969.95C0.261292 971.269 1.32928 972.337 2.64794 972.337Z" fill="#393536"/>
<path d="M27.7493 1017.8H19.3573L25.4333 1026.35C26.0146 1027.17 25.4293 1028.3 24.4266 1028.3H15.7253L21.608 1036.58H21.6093L35.4479 1056.05V1032.84C35.4479 1030.11 34.596 1027.44 33.0106 1025.21L27.7493 1017.8Z" fill="#393536"/>
<path d="M2.64794 1036.58H18.336L13.1666 1029.31C12.7186 1028.68 11.9946 1028.3 11.2226 1028.3H0.261292V1034.2C0.261292 1035.51 1.32928 1036.58 2.64794 1036.58Z" fill="#393536"/>
<path d="M2.64795 1025.64H21.6533L16.8 1018.81C16.352 1018.18 15.6267 1017.8 14.8547 1017.8H0.261292V1023.25C0.261292 1024.57 1.32928 1025.64 2.64795 1025.64Z" fill="#393536"/>
<path d="M2.64794 1015.14H25.9253L20.9453 1008.13C20.4973 1007.5 19.772 1007.13 19 1007.13H0.261292V1012.75C0.261292 1014.07 1.32928 1015.14 2.64794 1015.14Z" fill="#393536"/>
<path d="M38.1146 1032.39V1056.59C38.1146 1058.68 38.764 1060.72 39.976 1062.42L47.448 1072.94V1048.73C47.448 1046.64 46.7973 1044.6 45.5866 1042.9L38.1146 1032.39Z" fill="#393536"/>
<path d="M27.7493 1049.93H19.3573L25.4333 1058.48C26.0146 1059.29 25.4293 1060.43 24.4266 1060.43H15.7253L21.608 1068.7H21.6093L35.4479 1088.18V1064.97C35.4479 1062.23 34.596 1059.56 33.0106 1057.33L27.7493 1049.93Z" fill="#393536"/>
<path d="M2.64794 1068.7H18.336L13.1666 1061.43C12.7186 1060.8 11.9946 1060.43 11.2226 1060.43H0.261292V1066.32C0.261292 1067.64 1.32928 1068.7 2.64794 1068.7Z" fill="#393536"/>
<path d="M2.64795 1057.76H21.6533L16.8 1050.93C16.352 1050.3 15.6267 1049.93 14.8547 1049.93H0.261292V1055.37C0.261292 1056.69 1.32928 1057.76 2.64795 1057.76Z" fill="#393536"/>
<path d="M2.64794 1047.26H25.9253L20.9453 1040.25C20.4973 1039.62 19.772 1039.25 19 1039.25H0.261292V1044.87C0.261292 1046.19 1.32928 1047.26 2.64794 1047.26Z" fill="#393536"/>
<path d="M38.1146 1064.51V1088.71C38.1146 1090.8 38.764 1092.84 39.976 1094.55L47.448 1105.06V1080.85C47.448 1078.77 46.7973 1076.73 45.5866 1075.02L38.1146 1064.51Z" fill="#393536"/>
<path d="M27.7493 1082.05H19.3573L25.4333 1090.6C26.0146 1091.42 25.4293 1092.55 24.4266 1092.55H15.7253L21.608 1100.83H21.6093L26.0346 1107.05H35.4479V1097.09C35.4479 1094.35 34.596 1091.68 33.0106 1089.45L27.7493 1082.05Z" fill="#393536"/>
<path d="M2.64794 1100.83H18.336L13.1666 1093.55C12.7186 1092.92 11.9946 1092.55 11.2226 1092.55H0.261292V1098.44C0.261292 1099.76 1.32928 1100.83 2.64794 1100.83Z" fill="#393536"/>
<path d="M2.64795 1089.88H21.6533L16.8 1083.05C16.352 1082.42 15.6267 1082.05 14.8547 1082.05H0.261292V1087.5C0.261292 1088.81 1.32928 1089.88 2.64795 1089.88Z" fill="#393536"/>
<path d="M2.64794 1079.38H25.9253L20.9453 1072.37C20.4973 1071.75 19.772 1071.37 19 1071.37H0.261292V1077C0.261292 1078.31 1.32928 1079.38 2.64794 1079.38Z" fill="#393536"/>
<path d="M38.1146 1107.05H45.5213L38.1146 1096.63V1107.05Z" fill="#393536"/>
<path d="M19 1103.49H0.261292V1107.05H22.7626L20.9453 1104.5C20.4973 1103.87 19.772 1103.49 19 1103.49Z" fill="#393536"/>
<path d="M27.7493 471.724H19.3573L25.4333 480.273C26.0146 481.09 25.4293 482.224 24.4266 482.224H15.7253L21.608 490.501H21.6093L35.4479 509.972V486.762C35.4479 484.025 34.596 481.356 33.0106 479.125L27.7493 471.724Z" fill="#393536"/>
<path d="M2.64794 490.501H18.336L13.1666 483.228C12.7186 482.597 11.9946 482.224 11.2226 482.224H0.261292V488.116C0.261292 489.433 1.32928 490.501 2.64794 490.501Z" fill="#393536"/>
<path d="M2.64795 479.557H21.6533L16.8 472.728C16.352 472.097 15.6267 471.724 14.8547 471.724H0.261292V477.172C0.261292 478.489 1.32928 479.557 2.64795 479.557Z" fill="#393536"/>
<path d="M2.64794 469.057H25.9253L20.9453 462.049C20.4973 461.42 19.772 461.045 19 461.045H0.261292V466.672C0.261292 467.989 1.32928 469.057 2.64794 469.057Z" fill="#393536"/>
<path d="M38.1146 486.306V510.512C38.1146 512.601 38.764 514.64 39.976 516.344L47.448 526.857V502.652C47.448 500.561 46.7973 498.522 45.5866 496.82L38.1146 486.306Z" fill="#393536"/>
<path d="M27.7493 503.846H19.3573L25.4333 512.396C26.0146 513.213 25.4293 514.346 24.4266 514.346H15.7253L21.608 522.624H21.6093L35.4479 542.094V518.884C35.4479 516.148 34.596 513.478 33.0106 511.248L27.7493 503.846Z" fill="#393536"/>
<path d="M2.64794 522.624H18.336L13.1666 515.35C12.7186 514.72 11.9946 514.346 11.2226 514.346H0.261292V520.237C0.261292 521.556 1.32928 522.624 2.64794 522.624Z" fill="#393536"/>
<path d="M2.64795 511.68H21.6533L16.8 504.851C16.352 504.22 15.6267 503.846 14.8547 503.846H0.261292V509.293C0.261292 510.612 1.32928 511.68 2.64795 511.68Z" fill="#393536"/>
<path d="M2.64794 501.18H25.9253L20.9453 494.172C20.4973 493.541 19.772 493.168 19 493.168H0.261292V498.793C0.261292 500.112 1.32928 501.18 2.64794 501.18Z" fill="#393536"/>
<path d="M38.1146 518.429V542.634C38.1146 544.724 38.764 546.762 39.976 548.466L47.448 558.98V534.773C47.448 532.684 46.7973 530.645 45.5866 528.942L38.1146 518.429Z" fill="#393536"/>
<path d="M27.7493 535.968H19.3573L25.4333 544.518C26.0146 545.336 25.4293 546.468 24.4266 546.468H15.7253L21.608 554.745H21.6093L35.4479 574.217V551.006C35.4479 548.27 34.596 545.601 33.0106 543.37L27.7493 535.968Z" fill="#393536"/>
<path d="M2.64794 554.745H18.336L13.1666 547.472C12.7186 546.842 11.9946 546.468 11.2226 546.468H0.261292V552.36C0.261292 553.677 1.32928 554.745 2.64794 554.745Z" fill="#393536"/>
<path d="M2.64795 543.801H21.6533L16.8 536.972C16.352 536.343 15.6267 535.968 14.8547 535.968H0.261292V541.416C0.261292 542.733 1.32928 543.801 2.64795 543.801Z" fill="#393536"/>
<path d="M2.64794 533.301H25.9253L20.9453 526.295C20.4973 525.664 19.772 525.29 19 525.29H0.261292V530.916C0.261292 532.233 1.32928 533.301 2.64794 533.301Z" fill="#393536"/>
<path d="M38.1146 550.552V574.756C38.1146 576.846 38.764 578.884 39.976 580.588L47.448 591.101V566.896C47.448 564.806 46.7973 562.768 45.5866 561.065L38.1146 550.552Z" fill="#393536"/>
<path d="M27.7493 568.09H19.3573L25.4333 576.64C26.0146 577.458 25.4293 578.59 24.4266 578.59H15.7253L21.608 586.868H21.6093L35.4479 606.34V583.129C35.4479 580.392 34.596 577.724 33.0106 575.493L27.7493 568.09Z" fill="#393536"/>
<path d="M2.64794 586.868H18.336L13.1666 579.594C12.7186 578.965 11.9946 578.59 11.2226 578.59H0.261292V584.482C0.261292 585.8 1.32928 586.868 2.64794 586.868Z" fill="#393536"/>
<path d="M2.64795 575.924H21.6533L16.8 569.094C16.352 568.465 15.6267 568.09 14.8547 568.09H0.261292V573.538C0.261292 574.856 1.32928 575.924 2.64795 575.924Z" fill="#393536"/>
<path d="M2.64794 565.424H25.9253L20.9453 558.416C20.4973 557.786 19.772 557.412 19 557.412H0.261292V563.038C0.261292 564.356 1.32928 565.424 2.64794 565.424Z" fill="#393536"/>
<path d="M38.1146 582.674V606.878C38.1146 608.969 38.764 611.006 39.976 612.71L47.448 623.224V599.018C47.448 596.929 46.7973 594.89 45.5866 593.186L38.1146 582.674Z" fill="#393536"/>
<path d="M27.7493 600.213H19.3573L25.4333 608.762C26.0146 609.58 25.4293 610.713 24.4266 610.713H15.7253L21.608 618.99H21.6093L35.4479 638.462V615.252C35.4479 612.514 34.596 609.845 33.0106 607.614L27.7493 600.213Z" fill="#393536"/>
<path d="M2.64794 618.99H18.336L13.1666 611.717C12.7186 611.088 11.9946 610.713 11.2226 610.713H0.261292V616.605C0.261292 617.923 1.32928 618.99 2.64794 618.99Z" fill="#393536"/>
<path d="M2.64795 608.046H21.6533L16.8 601.217C16.352 600.588 15.6267 600.213 14.8547 600.213H0.261292V605.661C0.261292 606.978 1.32928 608.046 2.64795 608.046Z" fill="#393536"/>
<path d="M2.64794 597.546H25.9253L20.9453 590.538C20.4973 589.909 19.772 589.534 19 589.534H0.261292V595.161C0.261292 596.478 1.32928 597.546 2.64794 597.546Z" fill="#393536"/>
<path d="M38.1146 614.796V639.001C38.1146 641.092 38.764 643.129 39.976 644.833L47.448 655.346V631.141C47.448 629.05 46.7973 627.013 45.5866 625.309L38.1146 614.796Z" fill="#393536"/>
<path d="M27.7493 632.336H19.3573L25.4333 640.885C26.0146 641.702 25.4293 642.836 24.4266 642.836H15.7253L21.608 651.113H21.6093L35.4479 670.584V647.374C35.4479 644.637 34.596 641.968 33.0106 639.737L27.7493 632.336Z" fill="#393536"/>
<path d="M2.64794 651.113H18.336L13.1666 643.84C12.7186 643.209 11.9946 642.836 11.2226 642.836H0.261292V648.728C0.261292 650.045 1.32928 651.113 2.64794 651.113Z" fill="#393536"/>
<path d="M2.64795 640.169H21.6533L16.8 633.34C16.352 632.709 15.6267 632.336 14.8547 632.336H0.261292V637.784C0.261292 639.101 1.32928 640.169 2.64795 640.169Z" fill="#393536"/>
<path d="M2.64794 629.669H25.9253L20.9453 622.661C20.4973 622.032 19.772 621.657 19 621.657H0.261292V627.284C0.261292 628.601 1.32928 629.669 2.64794 629.669Z" fill="#393536"/>
<path d="M38.1146 646.918V671.124C38.1146 673.213 38.764 675.252 39.976 676.956L47.448 687.469V663.264C47.448 661.173 46.7973 659.134 45.5866 657.432L38.1146 646.918Z" fill="#393536"/>
<path d="M27.7493 664.458H19.3573L25.4333 673.008C26.0146 673.825 25.4293 674.958 24.4266 674.958H15.7253L21.608 683.236H21.6093L35.4479 702.706V679.496C35.4479 676.76 34.596 674.09 33.0106 671.86L27.7493 664.458Z" fill="#393536"/>
<path d="M2.64794 683.236H18.336L13.1666 675.962C12.7186 675.332 11.9946 674.958 11.2226 674.958H0.261292V680.849C0.261292 682.168 1.32928 683.236 2.64794 683.236Z" fill="#393536"/>
<path d="M2.64795 672.292H21.6533L16.8 665.462C16.352 664.832 15.6267 664.458 14.8547 664.458H0.261292V669.905C0.261292 671.224 1.32928 672.292 2.64795 672.292Z" fill="#393536"/>
<path d="M2.64794 661.792H25.9253L20.9453 654.784C20.4973 654.153 19.772 653.78 19 653.78H0.261292V659.405C0.261292 660.724 1.32928 661.792 2.64794 661.792Z" fill="#393536"/>
<path d="M38.1146 679.041V703.245C38.1146 705.336 38.764 707.374 39.976 709.078L47.448 719.592V695.385C47.448 693.296 46.7973 691.257 45.5866 689.554L38.1146 679.041Z" fill="#393536"/>
<path d="M27.7493 696.58H19.3573L25.4333 705.13C26.0146 705.948 25.4293 707.08 24.4266 707.08H15.7253L21.608 715.357H21.6093L35.4479 734.829V711.618C35.4479 708.882 34.596 706.213 33.0106 703.982L27.7493 696.58Z" fill="#393536"/>
<path d="M2.64794 715.357H18.336L13.1666 708.084C12.7186 707.454 11.9946 707.08 11.2226 707.08H0.261292V712.972C0.261292 714.289 1.32928 715.357 2.64794 715.357Z" fill="#393536"/>
<path d="M2.64795 704.413H21.6533L16.8 697.584C16.352 696.954 15.6267 696.58 14.8547 696.58H0.261292V702.028C0.261292 703.345 1.32928 704.413 2.64795 704.413Z" fill="#393536"/>
<path d="M2.64794 693.913H25.9253L20.9453 686.906C20.4973 686.276 19.772 685.902 19 685.902H0.261292V691.528C0.261292 692.845 1.32928 693.913 2.64794 693.913Z" fill="#393536"/>
<path d="M38.1146 711.164V735.368C38.1146 737.458 38.764 739.496 39.976 741.2L47.448 751.713V727.508C47.448 725.418 46.7973 723.38 45.5866 721.676L38.1146 711.164Z" fill="#393536"/>
<path d="M27.7493 728.702H19.3573L25.4333 737.252C26.0146 738.07 25.4293 739.202 24.4266 739.202H15.7253L21.608 747.48H21.6093L35.4479 766.952V743.741C35.4479 741.004 34.596 738.336 33.0106 736.105L27.7493 728.702Z" fill="#393536"/>
<path d="M2.64794 747.48H18.336L13.1666 740.206C12.7186 739.577 11.9946 739.202 11.2226 739.202H0.261292V745.094C0.261292 746.412 1.32928 747.48 2.64794 747.48Z" fill="#393536"/>
<path d="M2.64795 736.536H21.6533L16.8 729.706C16.352 729.077 15.6267 728.702 14.8547 728.702H0.261292V734.15C0.261292 735.468 1.32928 736.536 2.64795 736.536Z" fill="#393536"/>
<path d="M2.64794 726.036H25.9253L20.9453 719.028C20.4973 718.398 19.772 718.024 19 718.024H0.261292V723.65C0.261292 724.968 1.32928 726.036 2.64794 726.036Z" fill="#393536"/>
<path d="M38.1146 743.286V767.49C38.1146 769.581 38.764 771.618 39.976 773.322L47.448 783.836V759.63C47.448 757.541 46.7973 755.502 45.5866 753.798L38.1146 743.286Z" fill="#393536"/>
<path d="M27.7493 760.825H19.3573L25.4333 769.374C26.0146 770.192 25.4293 771.325 24.4266 771.325H15.7253L21.608 779.602H21.6093L35.4479 799.074V775.864C35.4479 773.126 34.596 770.457 33.0106 768.226L27.7493 760.825Z" fill="#393536"/>
<path d="M2.64794 779.602H18.336L13.1666 772.329C12.7186 771.7 11.9946 771.325 11.2226 771.325H0.261292V777.217C0.261292 778.534 1.32928 779.602 2.64794 779.602Z" fill="#393536"/>
<path d="M2.64795 768.658H21.6533L16.8 761.829C16.352 761.2 15.6267 760.825 14.8547 760.825H0.261292V766.273C0.261292 767.59 1.32928 768.658 2.64795 768.658Z" fill="#393536"/>
<path d="M2.64794 758.158H25.9253L20.9453 751.15C20.4973 750.521 19.772 750.146 19 750.146H0.261292V755.773C0.261292 757.09 1.32928 758.158 2.64794 758.158Z" fill="#393536"/>
<path d="M38.1146 775.408V799.613C38.1146 801.704 38.764 803.741 39.976 805.445L47.448 815.958V791.753C47.448 789.662 46.7973 787.625 45.5866 785.921L38.1146 775.408Z" fill="#393536"/>
<path d="M27.7493 792.948H19.3573L25.4333 801.497C26.0146 802.314 25.4293 803.448 24.4266 803.448H15.7253L21.608 811.725H21.6093L35.4479 831.196V807.986C35.4479 805.249 34.596 802.58 33.0106 800.349L27.7493 792.948Z" fill="#393536"/>
<path d="M2.64794 811.725H18.336L13.1666 804.452C12.7186 803.821 11.9946 803.448 11.2226 803.448H0.261292V809.34C0.261292 810.657 1.32928 811.725 2.64794 811.725Z" fill="#393536"/>
<path d="M2.64795 800.781H21.6533L16.8 793.952C16.352 793.321 15.6267 792.948 14.8547 792.948H0.261292V798.396C0.261292 799.713 1.32928 800.781 2.64795 800.781Z" fill="#393536"/>
<path d="M2.64794 790.281H25.9253L20.9453 783.273C20.4973 782.644 19.772 782.269 19 782.269H0.261292V787.896C0.261292 789.213 1.32928 790.281 2.64794 790.281Z" fill="#393536"/>
<path d="M38.1146 807.53V831.736C38.1146 833.825 38.764 835.864 39.976 837.568L47.448 848.081V823.876C47.448 821.785 46.7973 819.746 45.5866 818.044L38.1146 807.53Z" fill="#393536"/>
<path d="M27.7493 825.07H19.3573L25.4333 833.62C26.0146 834.437 25.4293 835.57 24.4266 835.57H15.7253L21.608 843.848H21.6093L35.4479 863.318V840.108C35.4479 837.372 34.596 834.702 33.0106 832.472L27.7493 825.07Z" fill="#393536"/>
<path d="M2.64794 843.848H18.336L13.1666 836.574C12.7186 835.944 11.9946 835.57 11.2226 835.57H0.261292V841.461C0.261292 842.78 1.32928 843.848 2.64794 843.848Z" fill="#393536"/>
<path d="M2.64795 832.904H21.6533L16.8 826.074C16.352 825.444 15.6267 825.07 14.8547 825.07H0.261292V830.517C0.261292 831.836 1.32928 832.904 2.64795 832.904Z" fill="#393536"/>
<path d="M2.64794 822.404H25.9253L20.9453 815.396C20.4973 814.765 19.772 814.392 19 814.392H0.261292V820.017C0.261292 821.336 1.32928 822.404 2.64794 822.404Z" fill="#393536"/>
<path d="M38.1146 839.653V863.857C38.1146 865.948 38.764 867.986 39.976 869.689L47.448 880.204V855.997C47.448 853.908 46.7973 851.869 45.5866 850.166L38.1146 839.653Z" fill="#393536"/>
<path d="M27.7493 857.192H19.3573L25.4333 865.742C26.0146 866.56 25.4293 867.692 24.4266 867.692H15.7253L21.608 875.969H21.6093L35.4479 895.441V872.23C35.4479 869.494 34.596 866.825 33.0106 864.594L27.7493 857.192Z" fill="#393536"/>
<path d="M2.64794 875.969H18.336L13.1666 868.696C12.7186 868.066 11.9946 867.692 11.2226 867.692H0.261292V873.584C0.261292 874.901 1.32928 875.969 2.64794 875.969Z" fill="#393536"/>
<path d="M2.64795 865.025H21.6533L16.8 858.196C16.352 857.566 15.6267 857.192 14.8547 857.192H0.261292V862.64C0.261292 863.957 1.32928 865.025 2.64795 865.025Z" fill="#393536"/>
<path d="M2.64794 854.525H25.9253L20.9453 847.518C20.4973 846.888 19.772 846.514 19 846.514H0.261292V852.14C0.261292 853.457 1.32928 854.525 2.64794 854.525Z" fill="#393536"/>
<path d="M38.1146 871.776V895.98C38.1146 898.07 38.764 900.108 39.976 901.812L47.448 912.325V888.12C47.448 886.03 46.7973 883.992 45.5866 882.288L38.1146 871.776Z" fill="#393536"/>
<path d="M27.7493 889.314H19.3573L25.4333 897.864C26.0146 898.682 25.4293 899.814 24.4266 899.814H15.7253L21.608 908.092H21.6093L35.4479 927.564V904.353C35.4479 901.616 34.596 898.948 33.0106 896.717L27.7493 889.314Z" fill="#393536"/>
<path d="M2.64794 908.092H18.336L13.1666 900.818C12.7186 900.189 11.9946 899.814 11.2226 899.814H0.261292V905.706C0.261292 907.024 1.32928 908.092 2.64794 908.092Z" fill="#393536"/>
<path d="M2.64795 897.148H21.6533L16.8 890.318C16.352 889.689 15.6267 889.314 14.8547 889.314H0.261292V894.762C0.261292 896.08 1.32928 897.148 2.64795 897.148Z" fill="#393536"/>
<path d="M2.64794 886.648H25.9253L20.9453 879.64C20.4973 879.01 19.772 878.636 19 878.636H0.261292V884.262C0.261292 885.58 1.32928 886.648 2.64794 886.648Z" fill="#393536"/>
<path d="M38.1146 903.898V928.102C38.1146 930.193 38.764 932.23 39.976 933.934L47.448 944.448V920.242C47.448 918.153 46.7973 916.114 45.5866 914.41L38.1146 903.898Z" fill="#393536"/>
<path d="M27.7493 921.437H19.3573L25.4333 929.986C26.0146 930.804 25.4293 931.937 24.4266 931.937H15.7253L21.608 940.214H21.6093L35.4479 959.686V936.476C35.4479 933.738 34.596 931.069 33.0106 928.838L27.7493 921.437Z" fill="#393536"/>
<path d="M2.64794 940.214H18.336L13.1666 932.941C12.7186 932.312 11.9946 931.937 11.2226 931.937H0.261292V937.829C0.261292 939.146 1.32928 940.214 2.64794 940.214Z" fill="#393536"/>
<path d="M2.64795 929.27H21.6533L16.8 922.441C16.352 921.812 15.6267 921.437 14.8547 921.437H0.261292V926.885C0.261292 928.202 1.32928 929.27 2.64795 929.27Z" fill="#393536"/>
<path d="M2.64794 918.77H25.9253L20.9453 911.762C20.4973 911.133 19.772 910.758 19 910.758H0.261292V916.385C0.261292 917.702 1.32928 918.77 2.64794 918.77Z" fill="#393536"/>
<path d="M38.1146 936.02V960.225C38.1146 962.314 38.764 964.353 39.976 966.057L47.448 976.57V952.365C47.448 950.274 46.7973 948.237 45.5866 946.533L38.1146 936.02Z" fill="#393536"/>
<path d="M27.7493 953.56H19.3573L25.4333 962.109C26.0146 962.926 25.4293 964.06 24.4266 964.06H15.7253L21.608 972.337H21.6093L35.4479 991.808V968.598C35.4479 965.861 34.596 963.192 33.0106 960.961L27.7493 953.56Z" fill="#393536"/>
<path d="M2.64795 961.393H21.6533L16.8 954.564C16.352 953.933 15.6267 953.56 14.8547 953.56H0.261292V959.006C0.261292 960.325 1.32928 961.393 2.64795 961.393Z" fill="#393536"/>
<path d="M2.64794 950.893H25.9253L20.9453 943.885C20.4973 943.256 19.772 942.881 19 942.881H0.261292V948.506C0.261292 949.825 1.32928 950.893 2.64794 950.893Z" fill="#393536"/>
<path d="M38.1146 968.142V992.348C38.1146 994.437 38.764 996.476 39.976 998.18L47.448 1008.69V984.488C47.448 982.397 46.7973 980.358 45.5866 978.656L38.1146 968.142Z" fill="#393536"/>
<path d="M65.6173 0.387882H57.0746V12.8986L64.5467 2.38515C64.9893 1.76248 65.3293 1.08522 65.6173 0.387882Z" fill="#393536"/>
<path d="M82.9146 8.66517L88.7973 0.387825H69.8907C69.36 1.83449 69.0746 3.36783 69.0746 4.9265V28.1357L82.9133 8.66517H82.9146Z" fill="#393536"/>
<path d="M93.2999 0.387817C92.5279 0.387817 91.8039 0.761056 91.3559 1.39172L86.1866 8.66516H101.875C103.193 8.66516 104.261 7.59711 104.261 6.27844V0.387817H93.2999Z" fill="#393536"/>
<path d="M57.0746 20.8158V45.0211L64.5467 34.5077C65.7587 32.8037 66.408 30.7651 66.408 28.6758V4.47047L58.936 14.9837C57.7253 16.6864 57.0746 18.7251 57.0746 20.8158Z" fill="#393536"/>
<path d="M82.9146 40.7878L88.7973 32.5105H80.0959C79.0933 32.5105 78.508 31.3772 79.0893 30.5599L85.1653 22.0105H76.7733L71.512 29.4118C69.9266 31.6425 69.0746 34.3117 69.0746 37.0477V60.2584L82.9133 40.7878H82.9146Z" fill="#393536"/>
<path d="M91.3559 33.5144L86.1866 40.7878H101.875C103.193 40.7878 104.261 39.7185 104.261 38.4011V32.5105H93.2999C92.5279 32.5105 91.8039 32.8837 91.3559 33.5144Z" fill="#393536"/>
<path d="M87.7226 23.0144L82.8693 29.8439H101.875C103.193 29.8439 104.261 28.7758 104.261 27.4572V22.0105H89.6679C88.8959 22.0105 88.1706 22.3838 87.7226 23.0144Z" fill="#393536"/>
<path d="M83.5773 12.3358L78.5973 19.3439H101.875C103.193 19.3439 104.261 18.2758 104.261 16.9572V11.3319H85.5226C84.7506 11.3319 84.0253 11.7051 83.5773 12.3358Z" fill="#393536"/>
<path d="M57.0746 52.9385V77.1438L64.5467 66.6304C65.7587 64.9264 66.408 62.8878 66.408 60.7985V36.5931L58.936 47.1064C57.7253 48.8091 57.0746 50.8478 57.0746 52.9385Z" fill="#393536"/>
<path d="M82.9146 72.9105L88.7973 64.6332H80.0959C79.0933 64.6332 78.508 63.4999 79.0893 62.6825L85.1653 54.1332H76.7733L71.512 61.5345C69.9266 63.7652 69.0746 66.4346 69.0746 69.1706V92.3811L82.9133 72.9105H82.9146Z" fill="#393536"/>
<path d="M91.3559 65.6358L86.1866 72.9105H101.875C103.193 72.9105 104.261 71.8425 104.261 70.5238V64.6332H93.2999C92.5279 64.6332 91.8039 65.0064 91.3559 65.6358Z" fill="#393536"/>
<path d="M87.7226 55.1357L82.8693 61.9664H101.875C103.193 61.9664 104.261 60.8984 104.261 59.5797V54.1331H89.6679C88.8959 54.1331 88.1706 54.5064 87.7226 55.1357Z" fill="#393536"/>
<path d="M83.5773 44.4584L78.5973 51.4664H101.875C103.193 51.4664 104.261 50.3984 104.261 49.0797V43.4545H85.5226C84.7506 43.4545 84.0253 43.8277 83.5773 44.4584Z" fill="#393536"/>
<path d="M57.0746 85.0598V109.265L64.5467 98.7517C65.7587 97.0491 66.408 95.0104 66.408 92.9197V68.7158L58.936 79.2291C57.7253 80.9317 57.0746 82.9705 57.0746 85.0598Z" fill="#393536"/>
<path d="M82.9146 105.032L88.7973 96.7544H80.0959C79.0933 96.7544 78.508 95.6224 79.0893 94.8037L85.1653 86.2544H76.7733L71.512 93.657C69.9266 95.8877 69.0746 98.5557 69.0746 101.293V124.504L82.9133 105.032H82.9146Z" fill="#393536"/>
<path d="M91.3559 97.7585L86.1866 105.032H101.875C103.193 105.032 104.261 103.964 104.261 102.647V96.7546H93.2999C92.5279 96.7546 91.8039 97.1292 91.3559 97.7585Z" fill="#393536"/>
<path d="M87.7226 87.2585L82.8693 94.0879H101.875C103.193 94.0879 104.261 93.0198 104.261 91.7025V86.2546H89.6679C88.8959 86.2546 88.1706 86.6291 87.7226 87.2585Z" fill="#393536"/>
<path d="M83.5773 76.5798L78.5973 83.5879H101.875C103.193 83.5879 104.261 82.5198 104.261 81.2025V75.5772H85.5226C84.7506 75.5772 84.0253 75.9505 83.5773 76.5798Z" fill="#393536"/>
<path d="M57.0746 117.182V141.388L64.5467 130.874C65.7587 129.17 66.408 127.133 66.408 125.042V100.838L58.936 111.35C57.7253 113.054 57.0746 115.093 57.0746 117.182Z" fill="#393536"/>
<path d="M82.9146 137.155L88.7973 128.877H80.0959C79.0933 128.877 78.508 127.745 79.0893 126.927L85.1653 118.377H76.7733L71.512 125.779C69.9266 128.009 69.0746 130.679 69.0746 133.416V156.627L82.9133 137.155H82.9146Z" fill="#393536"/>
<path d="M91.3559 129.881L86.1866 137.155H101.875C103.193 137.155 104.261 136.087 104.261 134.769V128.877H93.2999C92.5279 128.877 91.8039 129.252 91.3559 129.881Z" fill="#393536"/>
<path d="M87.7226 119.381L82.8693 126.21H101.875C103.193 126.21 104.261 125.142 104.261 123.825V118.377H89.6679C88.8959 118.377 88.1706 118.752 87.7226 119.381Z" fill="#393536"/>
<path d="M83.5773 108.702L78.5973 115.71H101.875C103.193 115.71 104.261 114.642 104.261 113.325V107.698H85.5226C84.7506 107.698 84.0253 108.073 83.5773 108.702Z" fill="#393536"/>
<path d="M57.0746 149.305V173.511L64.5467 162.997C65.7587 161.293 66.408 159.256 66.408 157.165V132.96L58.936 143.473C57.7253 145.177 57.0746 147.216 57.0746 149.305Z" fill="#393536"/>
<path d="M82.9146 169.277L88.7973 161H80.0959C79.0933 161 78.508 159.867 79.0893 159.049L85.1653 150.5H76.7733L71.512 157.901C69.9266 160.132 69.0746 162.801 69.0746 165.539V188.748L82.9133 169.277H82.9146Z" fill="#393536"/>
<path d="M91.3559 162.004L86.1866 169.277H101.875C103.193 169.277 104.261 168.209 104.261 166.892V161H93.2999C92.5279 161 91.8039 161.373 91.3559 162.004Z" fill="#393536"/>
<path d="M87.7226 151.504L82.8693 158.333H101.875C103.193 158.333 104.261 157.265 104.261 155.948V150.5H89.6679C88.8959 150.5 88.1706 150.873 87.7226 151.504Z" fill="#393536"/>
<path d="M83.5773 140.825L78.5973 147.833H101.875C103.193 147.833 104.261 146.765 104.261 145.448V139.821H85.5226C84.7506 139.821 84.0253 140.196 83.5773 140.825Z" fill="#393536"/>
<path d="M57.0746 181.428V205.633L64.5467 195.12C65.7587 193.416 66.408 191.377 66.408 189.288V165.082L58.936 175.596C57.7253 177.3 57.0746 179.337 57.0746 181.428Z" fill="#393536"/>
<path d="M82.9146 201.4L88.7973 193.123H80.0959C79.0933 193.123 78.508 191.989 79.0893 191.172L85.1653 182.623H76.7733L71.512 190.024C69.9266 192.254 69.0746 194.924 69.0746 197.661V220.87L82.9133 201.4H82.9146Z" fill="#393536"/>
<path d="M91.3559 194.126L86.1866 201.4H101.875C103.193 201.4 104.261 200.332 104.261 199.013V193.122H93.2999C92.5279 193.122 91.8039 193.496 91.3559 194.126Z" fill="#393536"/>
<path d="M87.7226 183.627L82.8693 190.456H101.875C103.193 190.456 104.261 189.388 104.261 188.069V182.623H89.6679C88.8959 182.623 88.1706 182.996 87.7226 183.627Z" fill="#393536"/>
<path d="M83.5773 172.948L78.5973 179.956H101.875C103.193 179.956 104.261 178.888 104.261 177.569V171.944H85.5226C84.7506 171.944 84.0253 172.317 83.5773 172.948Z" fill="#393536"/>
<path d="M57.0746 213.55V237.756L64.5467 227.242C65.7587 225.538 66.408 223.5 66.408 221.41V197.205L58.936 207.718C57.7253 209.421 57.0746 211.46 57.0746 213.55Z" fill="#393536"/>
<path d="M82.9146 233.522L88.7973 225.245H80.0959C79.0933 225.245 78.508 224.112 79.0893 223.294L85.1653 214.745H76.7733L71.512 222.146C69.9266 224.377 69.0746 227.046 69.0746 229.782V252.993L82.9133 233.522H82.9146Z" fill="#393536"/>
<path d="M91.3559 226.248L86.1866 233.523H101.875C103.193 233.523 104.261 232.453 104.261 231.136V225.245H93.2999C92.5279 225.245 91.8039 225.619 91.3559 226.248Z" fill="#393536"/>
<path d="M87.7226 215.748L82.8693 222.578H101.875C103.193 222.578 104.261 221.509 104.261 220.192V214.745H89.6679C88.8959 214.745 88.1706 215.118 87.7226 215.748Z" fill="#393536"/>
<path d="M83.5773 205.07L78.5973 212.078H101.875C103.193 212.078 104.261 211.009 104.261 209.692V204.067H85.5226C84.7506 204.067 84.0253 204.44 83.5773 205.07Z" fill="#393536"/>
<path d="M57.0746 245.672V269.877L64.5467 259.364C65.7587 257.661 66.408 255.622 66.408 253.532V229.328L58.936 239.841C57.7253 241.544 57.0746 243.582 57.0746 245.672Z" fill="#393536"/>
<path d="M82.9146 265.644L88.7973 257.367H80.0959C79.0933 257.367 78.508 256.234 79.0893 255.416L85.1653 246.867H76.7733L71.512 254.269C69.9266 256.5 69.0746 259.168 69.0746 261.905V285.116L82.9133 265.644H82.9146Z" fill="#393536"/>
<path d="M91.3559 258.37L86.1866 265.644H101.875C103.193 265.644 104.261 264.576 104.261 263.259V257.367H93.2999C92.5279 257.367 91.8039 257.741 91.3559 258.37Z" fill="#393536"/>
<path d="M87.7226 247.87L82.8693 254.7H101.875C103.193 254.7 104.261 253.632 104.261 252.314V246.866H89.6679C88.8959 246.866 88.1706 247.241 87.7226 247.87Z" fill="#393536"/>
<path d="M83.5773 237.192L78.5973 244.2H101.875C103.193 244.2 104.261 243.132 104.261 241.814V236.189H85.5226C84.7506 236.189 84.0253 236.562 83.5773 237.192Z" fill="#393536"/>
<path d="M57.0746 277.795V302L64.5467 291.487C65.7587 289.783 66.408 287.745 66.408 285.655V261.451L58.936 271.963C57.7253 273.667 57.0746 275.705 57.0746 277.795Z" fill="#393536"/>
<path d="M82.9146 297.766L88.7973 289.489H80.0959C79.0933 289.489 78.508 288.356 79.0893 287.538L85.1653 278.989H76.7733L71.512 286.39C69.9266 288.621 69.0746 291.29 69.0746 294.028V317.238L82.9133 297.766H82.9146Z" fill="#393536"/>
<path d="M91.3559 290.493L86.1866 297.766H101.875C103.193 297.766 104.261 296.698 104.261 295.381V289.489H93.2999C92.5279 289.489 91.8039 289.864 91.3559 290.493Z" fill="#393536"/>
<path d="M87.7226 279.993L82.8693 286.822H101.875C103.193 286.822 104.261 285.754 104.261 284.437V278.989H89.6679C88.8959 278.989 88.1706 279.364 87.7226 279.993Z" fill="#393536"/>
<path d="M83.5773 269.314L78.5973 276.322H101.875C103.193 276.322 104.261 275.254 104.261 273.937V268.31H85.5226C84.7506 268.31 84.0253 268.685 83.5773 269.314Z" fill="#393536"/>
<path d="M57.0746 309.917V334.122L64.5467 323.609C65.7587 321.905 66.408 319.868 66.408 317.777V293.572L58.936 304.085C57.7253 305.789 57.0746 307.828 57.0746 309.917Z" fill="#393536"/>
<path d="M82.9146 329.889L88.7973 321.612H80.0959C79.0933 321.612 78.508 320.479 79.0893 319.661L85.1653 311.112H76.7733L71.512 318.513C69.9266 320.744 69.0746 323.413 69.0746 326.15V349.36L82.9133 329.889H82.9146Z" fill="#393536"/>
<path d="M91.3559 322.616L86.1866 329.889H101.875C103.193 329.889 104.261 328.821 104.261 327.504V321.612H93.2999C92.5279 321.612 91.8039 321.985 91.3559 322.616Z" fill="#393536"/>
<path d="M87.7226 312.116L82.8693 318.945H101.875C103.193 318.945 104.261 317.877 104.261 316.56V311.112H89.6679C88.8959 311.112 88.1706 311.485 87.7226 312.116Z" fill="#393536"/>
<path d="M83.5773 301.437L78.5973 308.445H101.875C103.193 308.445 104.261 307.377 104.261 306.06V300.433H85.5226C84.7506 300.433 84.0253 300.808 83.5773 301.437Z" fill="#393536"/>
<path d="M57.0746 342.04V366.245L64.5467 355.732C65.7587 354.028 66.408 351.989 66.408 349.9V325.695L58.936 336.208C57.7253 337.912 57.0746 339.949 57.0746 342.04Z" fill="#393536"/>
<path d="M82.9146 362.012L88.7973 353.735H80.0959C79.0933 353.735 78.508 352.601 79.0893 351.784L85.1653 343.235H76.7733L71.512 350.636C69.9266 352.867 69.0746 355.536 69.0746 358.273V381.482L82.9133 362.012H82.9146Z" fill="#393536"/>
<path d="M91.3559 354.739L86.1866 362.012H101.875C103.193 362.012 104.261 360.944 104.261 359.625V353.734H93.2999C92.5279 353.734 91.8039 354.108 91.3559 354.739Z" fill="#393536"/>
<path d="M87.7226 344.239L82.8693 351.068H101.875C103.193 351.068 104.261 350 104.261 348.681V343.234H89.6679C88.8959 343.234 88.1706 343.608 87.7226 344.239Z" fill="#393536"/>
<path d="M83.5773 333.56L78.5973 340.568H101.875C103.193 340.568 104.261 339.5 104.261 338.181V332.556H85.5226C84.7506 332.556 84.0253 332.929 83.5773 333.56Z" fill="#393536"/>
<path d="M57.0746 374.162V398.368L64.5467 387.854C65.7587 386.15 66.408 384.112 66.408 382.022V357.817L58.936 368.33C57.7253 370.033 57.0746 372.072 57.0746 374.162Z" fill="#393536"/>
<path d="M82.9146 394.134L88.7973 385.856H80.0959C79.0933 385.856 78.508 384.724 79.0893 383.906L85.1653 375.356H76.7733L71.512 382.758C69.9266 384.989 69.0746 387.658 69.0746 390.394V413.605L82.9133 394.134H82.9146Z" fill="#393536"/>
<path d="M91.3559 386.86L86.1866 394.134H101.875C103.193 394.134 104.261 393.065 104.261 391.748V385.856H93.2999C92.5279 385.856 91.8039 386.23 91.3559 386.86Z" fill="#393536"/>
<path d="M87.7226 376.36L82.8693 383.189H101.875C103.193 383.189 104.261 382.121 104.261 380.804V375.356H89.6679C88.8959 375.356 88.1706 375.73 87.7226 376.36Z" fill="#393536"/>
<path d="M83.5773 365.682L78.5973 372.689H101.875C103.193 372.689 104.261 371.621 104.261 370.304V364.678H85.5226C84.7506 364.678 84.0253 365.052 83.5773 365.682Z" fill="#393536"/>
<path d="M57.0746 406.284V430.489L64.5467 419.976C65.7587 418.273 66.408 416.234 66.408 414.144V389.94L58.936 400.453C57.7253 402.156 57.0746 404.194 57.0746 406.284Z" fill="#393536"/>
<path d="M82.9146 426.256L88.7973 417.978H80.0959C79.0933 417.978 78.508 416.847 79.0893 416.028L85.1653 407.478H76.7733L71.512 414.881C69.9266 417.112 69.0746 419.78 69.0746 422.517V445.728L82.9133 426.256H82.9146Z" fill="#393536"/>
<path d="M91.3559 418.982L86.1866 426.256H101.875C103.193 426.256 104.261 425.188 104.261 423.87V417.978H93.2999C92.5279 417.978 91.8039 418.353 91.3559 418.982Z" fill="#393536"/>
<path d="M87.7226 408.482L82.8693 415.312H101.875C103.193 415.312 104.261 414.244 104.261 412.926V407.478H89.6679C88.8959 407.478 88.1706 407.853 87.7226 408.482Z" fill="#393536"/>
<path d="M83.5773 397.804L78.5973 404.812H101.875C103.193 404.812 104.261 403.744 104.261 402.426V396.801H85.5226C84.7506 396.801 84.0253 397.174 83.5773 397.804Z" fill="#393536"/>
<path d="M57.0746 438.407V462.612L64.5467 452.099C65.7587 450.395 66.408 448.357 66.408 446.267V422.063L58.936 432.575C57.7253 434.279 57.0746 436.317 57.0746 438.407Z" fill="#393536"/>
<path d="M82.9146 458.378L88.7973 450.101H80.0959C79.0933 450.101 78.508 448.968 79.0893 448.15L85.1653 439.601H76.7733L71.512 447.002C69.9266 449.233 69.0746 451.902 69.0746 454.64V477.85L82.9133 458.378H82.9146Z" fill="#393536"/>
<path d="M91.3559 451.105L86.1866 458.378H101.875C103.193 458.378 104.261 457.31 104.261 455.993V450.101H93.2999C92.5279 450.101 91.8039 450.476 91.3559 451.105Z" fill="#393536"/>
<path d="M87.7226 440.605L82.8693 447.434H101.875C103.193 447.434 104.261 446.366 104.261 445.049V439.601H89.6679C88.8959 439.601 88.1706 439.976 87.7226 440.605Z" fill="#393536"/>
<path d="M83.5773 429.926L78.5973 436.934H101.875C103.193 436.934 104.261 435.866 104.261 434.549V428.922H85.5226C84.7506 428.922 84.0253 429.297 83.5773 429.926Z" fill="#393536"/>
<path d="M57.0746 470.529V494.734L64.5467 484.221C65.7587 482.517 66.408 480.48 66.408 478.389V454.184L58.936 464.697C57.7253 466.401 57.0746 468.44 57.0746 470.529Z" fill="#393536"/>
<path d="M82.9146 1004.46L88.7973 996.182H80.0959C79.0933 996.182 78.508 995.049 79.0893 994.232L85.1653 985.682H76.7733L71.512 993.084C69.9266 995.314 69.0746 997.984 69.0746 1000.72V1023.93L82.9133 1004.46H82.9146Z" fill="#393536"/>
<path d="M91.3559 997.186L86.1866 1004.46H101.875C103.193 1004.46 104.261 1003.39 104.261 1002.07V996.182H93.2999C92.5279 996.182 91.8039 996.556 91.3559 997.186Z" fill="#393536"/>
<path d="M87.7226 986.686L82.8693 993.516H101.875C103.193 993.516 104.261 992.446 104.261 991.129V985.682H89.6679C88.8959 985.682 88.1706 986.056 87.7226 986.686Z" fill="#393536"/>
<path d="M83.5773 976.008L78.5973 983.016H101.875C103.193 983.016 104.261 981.946 104.261 980.629V975.004H85.5226C84.7506 975.004 84.0253 975.377 83.5773 976.008Z" fill="#393536"/>
<path d="M57.0746 1016.61V1040.81L64.5467 1030.3C65.7587 1028.6 66.408 1026.56 66.408 1024.47V1000.27L58.936 1010.78C57.7253 1012.48 57.0746 1014.52 57.0746 1016.61Z" fill="#393536"/>
<path d="M91.3559 965.064L86.1866 972.337H101.875C103.193 972.337 104.261 971.269 104.261 969.95V964.06H93.2999C92.5279 964.06 91.8039 964.433 91.3559 965.064Z" fill="#393536"/>
<path d="M82.9146 1036.58L88.7973 1028.3H80.0959C79.0933 1028.3 78.508 1027.17 79.0893 1026.35L85.1653 1017.8H76.7733L71.512 1025.21C69.9266 1027.44 69.0746 1030.11 69.0746 1032.84V1056.05L82.9133 1036.58H82.9146Z" fill="#393536"/>
<path d="M91.3559 1029.31L86.1866 1036.58H101.875C103.193 1036.58 104.261 1035.51 104.261 1034.2V1028.3H93.2999C92.5279 1028.3 91.8039 1028.68 91.3559 1029.31Z" fill="#393536"/>
<path d="M87.7226 1018.81L82.8693 1025.64H101.875C103.193 1025.64 104.261 1024.57 104.261 1023.25V1017.8H89.6679C88.8959 1017.8 88.1706 1018.18 87.7226 1018.81Z" fill="#393536"/>
<path d="M83.5773 1008.13L78.5973 1015.14H101.875C103.193 1015.14 104.261 1014.07 104.261 1012.75V1007.13H85.5226C84.7506 1007.13 84.0253 1007.5 83.5773 1008.13Z" fill="#393536"/>
<path d="M57.0746 1048.73V1072.94L64.5467 1062.42C65.7587 1060.72 66.408 1058.68 66.408 1056.59V1032.39L58.936 1042.9C57.7253 1044.6 57.0746 1046.64 57.0746 1048.73Z" fill="#393536"/>
<path d="M82.9146 1068.7L88.7973 1060.43H80.0959C79.0933 1060.43 78.508 1059.29 79.0893 1058.48L85.1653 1049.93H76.7733L71.512 1057.33C69.9266 1059.56 69.0746 1062.23 69.0746 1064.97V1088.18L82.9133 1068.7H82.9146Z" fill="#393536"/>
<path d="M91.3559 1061.43L86.1866 1068.7H101.875C103.193 1068.7 104.261 1067.64 104.261 1066.32V1060.43H93.2999C92.5279 1060.43 91.8039 1060.8 91.3559 1061.43Z" fill="#393536"/>
<path d="M87.7226 1050.93L82.8693 1057.76H101.875C103.193 1057.76 104.261 1056.69 104.261 1055.37V1049.93H89.6679C88.8959 1049.93 88.1706 1050.3 87.7226 1050.93Z" fill="#393536"/>
<path d="M83.5773 1040.25L78.5973 1047.26H101.875C103.193 1047.26 104.261 1046.19 104.261 1044.87V1039.25H85.5226C84.7506 1039.25 84.0253 1039.62 83.5773 1040.25Z" fill="#393536"/>
<path d="M57.0746 1080.85V1105.06L64.5467 1094.55C65.7587 1092.84 66.408 1090.8 66.408 1088.71V1064.51L58.936 1075.02C57.7253 1076.73 57.0746 1078.77 57.0746 1080.85Z" fill="#393536"/>
<path d="M82.9146 1100.83L88.7973 1092.55H80.0959C79.0933 1092.55 78.508 1091.42 79.0893 1090.6L85.1653 1082.05H76.7733L71.512 1089.45C69.9266 1091.68 69.0746 1094.35 69.0746 1097.09V1107.05H78.488L82.9133 1100.83H82.9146Z" fill="#393536"/>
<path d="M91.3559 1093.55L86.1866 1100.83H101.875C103.193 1100.83 104.261 1099.76 104.261 1098.44V1092.55H93.2999C92.5279 1092.55 91.8039 1092.92 91.3559 1093.55Z" fill="#393536"/>
<path d="M87.7226 1083.05L82.8693 1089.88H101.875C103.193 1089.88 104.261 1088.81 104.261 1087.5V1082.05H89.6679C88.8959 1082.05 88.1706 1082.42 87.7226 1083.05Z" fill="#393536"/>
<path d="M83.5773 1072.37L78.5973 1079.38H101.875C103.193 1079.38 104.261 1078.31 104.261 1077V1071.37H85.5226C84.7506 1071.37 84.0253 1071.75 83.5773 1072.37Z" fill="#393536"/>
<path d="M66.408 1107.05V1096.63L59.0013 1107.05H66.408Z" fill="#393536"/>
<path d="M83.5773 1104.5L81.76 1107.05H104.261V1103.49H85.5226C84.7506 1103.49 84.0253 1103.87 83.5773 1104.5Z" fill="#393536"/>
<path d="M82.9146 490.501L88.7973 482.224H80.0959C79.0933 482.224 78.508 481.09 79.0893 480.273L85.1653 471.724H76.7733L71.512 479.125C69.9266 481.356 69.0746 484.025 69.0746 486.762V509.972L82.9133 490.501H82.9146Z" fill="#393536"/>
<path d="M91.3559 483.228L86.1866 490.501H101.875C103.193 490.501 104.261 489.433 104.261 488.116V482.224H93.2999C92.5279 482.224 91.8039 482.597 91.3559 483.228Z" fill="#393536"/>
<path d="M87.7226 472.728L82.8693 479.557H101.875C103.193 479.557 104.261 478.489 104.261 477.172V471.724H89.6679C88.8959 471.724 88.1706 472.097 87.7226 472.728Z" fill="#393536"/>
<path d="M83.5773 462.049L78.5973 469.057H101.875C103.193 469.057 104.261 467.989 104.261 466.672V461.045H85.5226C84.7506 461.045 84.0253 461.42 83.5773 462.049Z" fill="#393536"/>
<path d="M57.0746 502.652V526.857L64.5467 516.344C65.7587 514.64 66.408 512.601 66.408 510.512V486.306L58.936 496.82C57.7253 498.522 57.0746 500.561 57.0746 502.652Z" fill="#393536"/>
<path d="M82.9146 522.624L88.7973 514.346H80.0959C79.0933 514.346 78.508 513.213 79.0893 512.396L85.1653 503.846H76.7733L71.512 511.248C69.9266 513.478 69.0746 516.148 69.0746 518.884V542.094L82.9133 522.624H82.9146Z" fill="#393536"/>
<path d="M91.3559 515.35L86.1866 522.624H101.875C103.193 522.624 104.261 521.556 104.261 520.237V514.346H93.2999C92.5279 514.346 91.8039 514.72 91.3559 515.35Z" fill="#393536"/>
<path d="M87.7226 504.851L82.8693 511.68H101.875C103.193 511.68 104.261 510.612 104.261 509.293V503.846H89.6679C88.8959 503.846 88.1706 504.22 87.7226 504.851Z" fill="#393536"/>
<path d="M83.5773 494.172L78.5973 501.18H101.875C103.193 501.18 104.261 500.112 104.261 498.793V493.168H85.5226C84.7506 493.168 84.0253 493.541 83.5773 494.172Z" fill="#393536"/>
<path d="M57.0746 534.773V558.98L64.5467 548.466C65.7587 546.762 66.408 544.724 66.408 542.634V518.429L58.936 528.942C57.7253 530.645 57.0746 532.684 57.0746 534.773Z" fill="#393536"/>
<path d="M82.9146 554.745L88.7973 546.468H80.0959C79.0933 546.468 78.508 545.336 79.0893 544.518L85.1653 535.968H76.7733L71.512 543.37C69.9266 545.601 69.0746 548.27 69.0746 551.006V574.217L82.9133 554.745H82.9146Z" fill="#393536"/>
<path d="M91.3559 547.472L86.1866 554.745H101.875C103.193 554.745 104.261 553.677 104.261 552.36V546.468H93.2999C92.5279 546.468 91.8039 546.842 91.3559 547.472Z" fill="#393536"/>
<path d="M87.7226 536.972L82.8693 543.801H101.875C103.193 543.801 104.261 542.733 104.261 541.416V535.968H89.6679C88.8959 535.968 88.1706 536.343 87.7226 536.972Z" fill="#393536"/>
<path d="M83.5773 526.295L78.5973 533.301H101.875C103.193 533.301 104.261 532.233 104.261 530.916V525.29H85.5226C84.7506 525.29 84.0253 525.664 83.5773 526.295Z" fill="#393536"/>
<path d="M57.0746 566.896V591.101L64.5467 580.588C65.7587 578.884 66.408 576.846 66.408 574.756V550.552L58.936 561.065C57.7253 562.768 57.0746 564.806 57.0746 566.896Z" fill="#393536"/>
<path d="M82.9146 586.868L88.7973 578.59H80.0959C79.0933 578.59 78.508 577.458 79.0893 576.64L85.1653 568.09H76.7733L71.512 575.493C69.9266 577.724 69.0746 580.392 69.0746 583.129V606.34L82.9133 586.868H82.9146Z" fill="#393536"/>
<path d="M91.3559 579.594L86.1866 586.868H101.875C103.193 586.868 104.261 585.8 104.261 584.482V578.59H93.2999C92.5279 578.59 91.8039 578.965 91.3559 579.594Z" fill="#393536"/>
<path d="M87.7226 569.094L82.8693 575.924H101.875C103.193 575.924 104.261 574.856 104.261 573.538V568.09H89.6679C88.8959 568.09 88.1706 568.465 87.7226 569.094Z" fill="#393536"/>
<path d="M83.5773 558.416L78.5973 565.424H101.875C103.193 565.424 104.261 564.356 104.261 563.038V557.412H85.5226C84.7506 557.412 84.0253 557.786 83.5773 558.416Z" fill="#393536"/>
<path d="M57.0746 599.018V623.224L64.5467 612.71C65.7587 611.006 66.408 608.969 66.408 606.878V582.674L58.936 593.186C57.7253 594.89 57.0746 596.929 57.0746 599.018Z" fill="#393536"/>
<path d="M82.9146 618.99L88.7973 610.713H80.0959C79.0933 610.713 78.508 609.58 79.0893 608.762L85.1653 600.213H76.7733L71.512 607.614C69.9266 609.845 69.0746 612.514 69.0746 615.252V638.462L82.9133 618.99H82.9146Z" fill="#393536"/>
<path d="M91.3559 611.717L86.1866 618.99H101.875C103.193 618.99 104.261 617.923 104.261 616.605V610.713H93.2999C92.5279 610.713 91.8039 611.088 91.3559 611.717Z" fill="#393536"/>
<path d="M87.7226 601.217L82.8693 608.046H101.875C103.193 608.046 104.261 606.978 104.261 605.661V600.213H89.6679C88.8959 600.213 88.1706 600.588 87.7226 601.217Z" fill="#393536"/>
<path d="M83.5773 590.538L78.5973 597.546H101.875C103.193 597.546 104.261 596.478 104.261 595.161V589.534H85.5226C84.7506 589.534 84.0253 589.909 83.5773 590.538Z" fill="#393536"/>
<path d="M57.0746 631.141V655.346L64.5467 644.833C65.7587 643.129 66.408 641.092 66.408 639.001V614.796L58.936 625.309C57.7253 627.013 57.0746 629.05 57.0746 631.141Z" fill="#393536"/>
<path d="M82.9146 651.113L88.7973 642.836H80.0959C79.0933 642.836 78.508 641.702 79.0893 640.885L85.1653 632.336H76.7733L71.512 639.737C69.9266 641.968 69.0746 644.637 69.0746 647.374V670.584L82.9133 651.113H82.9146Z" fill="#393536"/>
<path d="M91.3559 643.84L86.1866 651.113H101.875C103.193 651.113 104.261 650.045 104.261 648.728V642.836H93.2999C92.5279 642.836 91.8039 643.209 91.3559 643.84Z" fill="#393536"/>
<path d="M87.7226 633.34L82.8693 640.169H101.875C103.193 640.169 104.261 639.101 104.261 637.784V632.336H89.6679C88.8959 632.336 88.1706 632.709 87.7226 633.34Z" fill="#393536"/>
<path d="M83.5773 622.661L78.5973 629.669H101.875C103.193 629.669 104.261 628.601 104.261 627.284V621.657H85.5226C84.7506 621.657 84.0253 622.032 83.5773 622.661Z" fill="#393536"/>
<path d="M57.0746 663.264V687.469L64.5467 676.956C65.7587 675.252 66.408 673.213 66.408 671.124V646.918L58.936 657.432C57.7253 659.134 57.0746 661.173 57.0746 663.264Z" fill="#393536"/>
<path d="M82.9146 683.236L88.7973 674.958H80.0959C79.0933 674.958 78.508 673.825 79.0893 673.008L85.1653 664.458H76.7733L71.512 671.86C69.9266 674.09 69.0746 676.76 69.0746 679.496V702.706L82.9133 683.236H82.9146Z" fill="#393536"/>
<path d="M91.3559 675.962L86.1866 683.236H101.875C103.193 683.236 104.261 682.168 104.261 680.849V674.958H93.2999C92.5279 674.958 91.8039 675.332 91.3559 675.962Z" fill="#393536"/>
<path d="M87.7226 665.462L82.8693 672.292H101.875C103.193 672.292 104.261 671.224 104.261 669.905V664.458H89.6679C88.8959 664.458 88.1706 664.832 87.7226 665.462Z" fill="#393536"/>
<path d="M83.5773 654.784L78.5973 661.792H101.875C103.193 661.792 104.261 660.724 104.261 659.405V653.78H85.5226C84.7506 653.78 84.0253 654.153 83.5773 654.784Z" fill="#393536"/>
<path d="M57.0746 695.385V719.592L64.5467 709.078C65.7587 707.374 66.408 705.336 66.408 703.245V679.041L58.936 689.554C57.7253 691.257 57.0746 693.296 57.0746 695.385Z" fill="#393536"/>
<path d="M82.9146 715.357L88.7973 707.08H80.0959C79.0933 707.08 78.508 705.948 79.0893 705.13L85.1653 696.58H76.7733L71.512 703.982C69.9266 706.213 69.0746 708.882 69.0746 711.618V734.829L82.9133 715.357H82.9146Z" fill="#393536"/>
<path d="M91.3559 708.084L86.1866 715.357H101.875C103.193 715.357 104.261 714.289 104.261 712.972V707.08H93.2999C92.5279 707.08 91.8039 707.454 91.3559 708.084Z" fill="#393536"/>
<path d="M87.7226 697.584L82.8693 704.413H101.875C103.193 704.413 104.261 703.345 104.261 702.028V696.58H89.6679C88.8959 696.58 88.1706 696.954 87.7226 697.584Z" fill="#393536"/>
<path d="M83.5773 686.906L78.5973 693.913H101.875C103.193 693.913 104.261 692.845 104.261 691.528V685.902H85.5226C84.7506 685.902 84.0253 686.276 83.5773 686.906Z" fill="#393536"/>
<path d="M57.0746 727.508V751.713L64.5467 741.2C65.7587 739.496 66.408 737.458 66.408 735.368V711.164L58.936 721.676C57.7253 723.38 57.0746 725.418 57.0746 727.508Z" fill="#393536"/>
<path d="M82.9146 747.48L88.7973 739.202H80.0959C79.0933 739.202 78.508 738.07 79.0893 737.252L85.1653 728.702H76.7733L71.512 736.105C69.9266 738.336 69.0746 741.004 69.0746 743.741V766.952L82.9133 747.48H82.9146Z" fill="#393536"/>
<path d="M91.3559 740.206L86.1866 747.48H101.875C103.193 747.48 104.261 746.412 104.261 745.094V739.202H93.2999C92.5279 739.202 91.8039 739.577 91.3559 740.206Z" fill="#393536"/>
<path d="M87.7226 729.706L82.8693 736.536H101.875C103.193 736.536 104.261 735.468 104.261 734.15V728.702H89.6679C88.8959 728.702 88.1706 729.077 87.7226 729.706Z" fill="#393536"/>
<path d="M83.5773 719.028L78.5973 726.036H101.875C103.193 726.036 104.261 724.968 104.261 723.65V718.024H85.5226C84.7506 718.024 84.0253 718.398 83.5773 719.028Z" fill="#393536"/>
<path d="M57.0746 759.63V783.836L64.5467 773.322C65.7587 771.618 66.408 769.581 66.408 767.49V743.286L58.936 753.798C57.7253 755.502 57.0746 757.541 57.0746 759.63Z" fill="#393536"/>
<path d="M82.9146 779.602L88.7973 771.325H80.0959C79.0933 771.325 78.508 770.192 79.0893 769.374L85.1653 760.825H76.7733L71.512 768.226C69.9266 770.457 69.0746 773.126 69.0746 775.864V799.074L82.9133 779.602H82.9146Z" fill="#393536"/>
<path d="M91.3559 772.329L86.1866 779.602H101.875C103.193 779.602 104.261 778.534 104.261 777.217V771.325H93.2999C92.5279 771.325 91.8039 771.7 91.3559 772.329Z" fill="#393536"/>
<path d="M87.7226 761.829L82.8693 768.658H101.875C103.193 768.658 104.261 767.59 104.261 766.273V760.825H89.6679C88.8959 760.825 88.1706 761.2 87.7226 761.829Z" fill="#393536"/>
<path d="M83.5773 751.15L78.5973 758.158H101.875C103.193 758.158 104.261 757.09 104.261 755.773V750.146H85.5226C84.7506 750.146 84.0253 750.521 83.5773 751.15Z" fill="#393536"/>
<path d="M57.0746 791.753V815.958L64.5467 805.445C65.7587 803.741 66.408 801.704 66.408 799.613V775.408L58.936 785.921C57.7253 787.625 57.0746 789.662 57.0746 791.753Z" fill="#393536"/>
<path d="M82.9146 811.725L88.7973 803.448H80.0959C79.0933 803.448 78.508 802.314 79.0893 801.497L85.1653 792.948H76.7733L71.512 800.349C69.9266 802.58 69.0746 805.249 69.0746 807.986V831.196L82.9133 811.725H82.9146Z" fill="#393536"/>
<path d="M91.3559 804.452L86.1866 811.725H101.875C103.193 811.725 104.261 810.657 104.261 809.34V803.448H93.2999C92.5279 803.448 91.8039 803.821 91.3559 804.452Z" fill="#393536"/>
<path d="M87.7226 793.952L82.8693 800.781H101.875C103.193 800.781 104.261 799.713 104.261 798.396V792.948H89.6679C88.8959 792.948 88.1706 793.321 87.7226 793.952Z" fill="#393536"/>
<path d="M83.5773 783.273L78.5973 790.281H101.875C103.193 790.281 104.261 789.213 104.261 787.896V782.269H85.5226C84.7506 782.269 84.0253 782.644 83.5773 783.273Z" fill="#393536"/>
<path d="M57.0746 823.876V848.081L64.5467 837.568C65.7587 835.864 66.408 833.825 66.408 831.736V807.53L58.936 818.044C57.7253 819.746 57.0746 821.785 57.0746 823.876Z" fill="#393536"/>
<path d="M82.9146 843.848L88.7973 835.57H80.0959C79.0933 835.57 78.508 834.437 79.0893 833.62L85.1653 825.07H76.7733L71.512 832.472C69.9266 834.702 69.0746 837.372 69.0746 840.108V863.318L82.9133 843.848H82.9146Z" fill="#393536"/>
<path d="M91.3559 836.574L86.1866 843.848H101.875C103.193 843.848 104.261 842.78 104.261 841.461V835.57H93.2999C92.5279 835.57 91.8039 835.944 91.3559 836.574Z" fill="#393536"/>
<path d="M87.7226 826.074L82.8693 832.904H101.875C103.193 832.904 104.261 831.836 104.261 830.517V825.07H89.6679C88.8959 825.07 88.1706 825.444 87.7226 826.074Z" fill="#393536"/>
<path d="M83.5773 815.396L78.5973 822.404H101.875C103.193 822.404 104.261 821.336 104.261 820.017V814.392H85.5226C84.7506 814.392 84.0253 814.765 83.5773 815.396Z" fill="#393536"/>
<path d="M57.0746 855.997V880.204L64.5467 869.689C65.7587 867.986 66.408 865.948 66.408 863.857V839.653L58.936 850.166C57.7253 851.869 57.0746 853.908 57.0746 855.997Z" fill="#393536"/>
<path d="M82.9146 875.969L88.7973 867.692H80.0959C79.0933 867.692 78.508 866.56 79.0893 865.742L85.1653 857.192H76.7733L71.512 864.594C69.9266 866.825 69.0746 869.494 69.0746 872.23V895.441L82.9133 875.969H82.9146Z" fill="#393536"/>
<path d="M91.3559 868.696L86.1866 875.969H101.875C103.193 875.969 104.261 874.901 104.261 873.584V867.692H93.2999C92.5279 867.692 91.8039 868.066 91.3559 868.696Z" fill="#393536"/>
<path d="M87.7226 858.196L82.8693 865.025H101.875C103.193 865.025 104.261 863.957 104.261 862.64V857.192H89.6679C88.8959 857.192 88.1706 857.566 87.7226 858.196Z" fill="#393536"/>
<path d="M83.5773 847.518L78.5973 854.525H101.875C103.193 854.525 104.261 853.457 104.261 852.14V846.514H85.5226C84.7506 846.514 84.0253 846.888 83.5773 847.518Z" fill="#393536"/>
<path d="M57.0746 888.12V912.325L64.5467 901.812C65.7587 900.108 66.408 898.07 66.408 895.98V871.776L58.936 882.288C57.7253 883.992 57.0746 886.03 57.0746 888.12Z" fill="#393536"/>
<path d="M82.9146 908.092L88.7973 899.814H80.0959C79.0933 899.814 78.508 898.682 79.0893 897.864L85.1653 889.314H76.7733L71.512 896.717C69.9266 898.948 69.0746 901.616 69.0746 904.353V927.564L82.9133 908.092H82.9146Z" fill="#393536"/>
<path d="M91.3559 900.818L86.1866 908.092H101.875C103.193 908.092 104.261 907.024 104.261 905.706V899.814H93.2999C92.5279 899.814 91.8039 900.189 91.3559 900.818Z" fill="#393536"/>
<path d="M87.7226 890.318L82.8693 897.148H101.875C103.193 897.148 104.261 896.08 104.261 894.762V889.314H89.6679C88.8959 889.314 88.1706 889.689 87.7226 890.318Z" fill="#393536"/>
<path d="M83.5773 879.64L78.5973 886.648H101.875C103.193 886.648 104.261 885.58 104.261 884.262V878.636H85.5226C84.7506 878.636 84.0253 879.01 83.5773 879.64Z" fill="#393536"/>
<path d="M57.0746 920.242V944.448L64.5467 933.934C65.7587 932.23 66.408 930.193 66.408 928.102V903.898L58.936 914.41C57.7253 916.114 57.0746 918.153 57.0746 920.242Z" fill="#393536"/>
<path d="M82.9146 940.214L88.7973 931.937H80.0959C79.0933 931.937 78.508 930.804 79.0893 929.986L85.1653 921.437H76.7733L71.512 928.838C69.9266 931.069 69.0746 933.738 69.0746 936.476V959.686L82.9133 940.214H82.9146Z" fill="#393536"/>
<path d="M91.3559 932.941L86.1866 940.214H101.875C103.193 940.214 104.261 939.146 104.261 937.829V931.937H93.2999C92.5279 931.937 91.8039 932.312 91.3559 932.941Z" fill="#393536"/>
<path d="M87.7226 922.441L82.8693 929.27H101.875C103.193 929.27 104.261 928.202 104.261 926.885V921.437H89.6679C88.8959 921.437 88.1706 921.812 87.7226 922.441Z" fill="#393536"/>
<path d="M83.5773 911.762L78.5973 918.77H101.875C103.193 918.77 104.261 917.702 104.261 916.385V910.758H85.5226C84.7506 910.758 84.0253 911.133 83.5773 911.762Z" fill="#393536"/>
<path d="M57.0746 952.365V976.57L64.5467 966.057C65.7587 964.353 66.408 962.314 66.408 960.225V936.02L58.936 946.533C57.7253 948.237 57.0746 950.274 57.0746 952.365Z" fill="#393536"/>
<path d="M82.9146 972.337L88.7973 964.06H80.0959C79.0933 964.06 78.508 962.926 79.0893 962.109L85.1653 953.56H76.7733L71.512 960.961C69.9266 963.192 69.0746 965.861 69.0746 968.598V991.808L82.9133 972.337H82.9146Z" fill="#393536"/>
<path d="M87.7226 954.564L82.8693 961.393H101.875C103.193 961.393 104.261 960.325 104.261 959.006V953.56H89.6679C88.8959 953.56 88.1706 953.933 87.7226 954.564Z" fill="#393536"/>
<path d="M83.5773 943.885L78.5973 950.893H101.875C103.193 950.893 104.261 949.825 104.261 948.506V942.881H85.5226C84.7506 942.881 84.0253 943.256 83.5773 943.885Z" fill="#393536"/>
<path d="M57.0746 984.488V1008.69L64.5467 998.18C65.7587 996.476 66.408 994.437 66.408 992.348V968.142L58.936 978.656C57.7253 980.358 57.0746 982.397 57.0746 984.488Z" fill="#393536"/>
</svg>
