<svg viewBox="0 0 105 1108" fill="none" xmlns="http://www.w3.org/2000/svg">
<path d="M43.708 1095.35C42.4213 1095.35 41.3746 1094.3 41.3746 1093.01C41.3746 1091.73 42.4213 1090.68 43.708 1090.68H47.9133L54.8786 1078.62L47.9146 1066.55H43.708C42.4213 1066.55 41.3746 1065.51 41.3746 1064.22C41.3746 1062.93 42.4213 1061.89 43.708 1061.89H47.9133L54.8786 1049.82L47.9133 1037.76H43.708C42.4213 1037.76 41.3746 1036.71 41.3746 1035.42C41.3746 1034.14 42.4213 1033.09 43.708 1033.09H47.9133L54.8786 1021.03L47.9133 1008.96H43.708C42.4213 1008.96 41.3746 1007.92 41.3746 1006.63C41.3746 1005.34 42.4213 1004.3 43.708 1004.3H47.9133L54.8786 992.232L47.9133 980.168H43.708C42.4213 980.168 41.3746 979.121 41.3746 977.834C41.3746 976.548 42.4213 975.501 43.708 975.501H47.9133L54.8786 963.437L47.9133 951.373H43.708C42.4213 951.373 41.3746 950.326 41.3746 949.04C41.3746 947.752 42.4213 946.705 43.708 946.705H47.9133L54.8786 934.641L47.9133 922.578H43.708C42.4213 922.578 41.3746 921.53 41.3746 920.245C41.3746 918.958 42.4213 917.912 43.708 917.912H47.9133L54.8786 905.848L47.9133 893.784H43.708C42.4213 893.784 41.3746 892.737 41.3746 891.45C41.3746 890.162 42.4213 889.116 43.708 889.116H47.9133L54.8786 877.052L47.9133 864.989H43.708C42.4213 864.989 41.3746 863.942 41.3746 862.654C41.3746 861.368 42.4213 860.321 43.708 860.321H47.9133L54.8786 848.257L47.9133 836.193H43.708C42.4213 836.193 41.3746 835.146 41.3746 833.86C41.3746 832.573 42.4213 831.526 43.708 831.526H47.9146L54.8786 819.464L47.9133 807.4H43.708C42.4213 807.4 41.3746 806.353 41.3746 805.065C41.3746 803.778 42.4213 802.732 43.708 802.732H47.9133L54.8786 790.668L47.9133 778.604H43.708C42.4213 778.604 41.3746 777.557 41.3746 776.27C41.3746 774.984 42.4213 773.937 43.708 773.937H47.9133L54.8786 761.873L47.9133 749.809H43.708C42.4213 749.809 41.3746 748.762 41.3746 747.474C41.3746 746.189 42.4213 745.141 43.708 745.141H47.9133L54.8786 733.078L47.9133 721.014H43.708C42.4213 721.014 41.3746 719.968 41.3746 718.681C41.3746 717.394 42.4213 716.348 43.708 716.348H47.9133L54.8786 704.284L47.9133 692.22H43.708C42.4213 692.22 41.3746 691.173 41.3746 689.886C41.3746 688.598 42.4213 687.552 43.708 687.552H47.9133L54.8786 675.488L47.9146 663.425H43.708C42.4213 663.425 41.3746 662.378 41.3746 661.09C41.3746 659.805 42.4213 658.757 43.708 658.757H47.9133L54.8786 646.693L47.9133 634.63H43.708C42.4213 634.63 41.3746 633.582 41.3746 632.297C41.3746 631.009 42.4213 629.962 43.708 629.962H47.9133L54.8786 617.898L47.9146 605.836H43.708C42.4213 605.836 41.3746 604.789 41.3746 603.501C41.3746 602.214 42.4213 601.168 43.708 601.168H47.9133L54.8786 589.104L47.9133 577.04H43.708C42.4213 577.04 41.3746 575.993 41.3746 574.706C41.3746 573.419 42.4213 572.372 43.708 572.372H47.9133L54.8786 560.309L47.9133 548.246H43.708C42.4213 548.246 41.3746 547.198 41.3746 545.912C41.3746 544.625 42.4213 543.578 43.708 543.578H47.9133L54.8786 531.515L47.9133 519.451H43.708C42.4213 519.451 41.3746 518.404 41.3746 517.117C41.3746 515.831 42.4213 514.782 43.708 514.782H47.9133L54.8786 502.72L47.9133 490.656H43.708C42.4213 490.656 41.3746 489.609 41.3746 488.322C41.3746 487.034 42.4213 485.988 43.708 485.988H47.9133L54.8786 473.925L47.9133 461.861H43.708C42.4213 461.861 41.3746 460.815 41.3746 459.526C41.3746 458.24 42.4213 457.193 43.708 457.193H47.9133L54.8786 445.13L47.9133 433.066H43.708C42.4213 433.066 41.3746 432.02 41.3746 430.732C41.3746 429.445 42.4213 428.398 43.708 428.398H47.9133L54.8786 416.334L47.9133 404.272H43.708C42.4213 404.272 41.3746 403.224 41.3746 401.937C41.3746 400.651 42.4213 399.604 43.708 399.604H47.9133L54.8786 387.54L47.9133 375.476H43.708C42.4213 375.476 41.3746 374.429 41.3746 373.143C41.3746 371.856 42.4213 370.809 43.708 370.809H47.9133L54.8786 358.745L47.9133 346.681H43.708C42.4213 346.681 41.3746 345.635 41.3746 344.348C41.3746 343.061 42.4213 342.015 43.708 342.015H47.9133L54.8786 329.951L47.9133 317.887H43.708C42.4213 317.887 41.3746 316.84 41.3746 315.553C41.3746 314.267 42.4213 313.22 43.708 313.22H47.9133L54.8786 301.156L47.9133 289.092H43.708C42.4213 289.092 41.3746 288.045 41.3746 286.758C41.3746 285.472 42.4213 284.424 43.708 284.424H47.9133L54.8786 272.36L47.9133 260.297H43.708C42.4213 260.297 41.3746 259.25 41.3746 257.964C41.3746 256.676 42.4213 255.629 43.708 255.629H47.9133L54.8786 243.566L47.9133 231.503H43.708C42.4213 231.503 41.3746 230.456 41.3746 229.168C41.3746 227.881 42.4213 226.835 43.708 226.835H47.9133L54.8786 214.772L47.9133 202.708H43.708C42.4213 202.708 41.3746 201.661 41.3746 200.373C41.3746 199.086 42.4213 198.04 43.708 198.04H47.9133L54.8786 185.976L47.9133 173.913H43.708C42.4213 173.913 41.3746 172.865 41.3746 171.579C41.3746 170.292 42.4213 169.245 43.708 169.245H47.9133L54.8786 157.181L47.9133 145.117H43.708C42.4213 145.117 41.3746 144.071 41.3746 142.784C41.3746 141.497 42.4213 140.451 43.708 140.451H47.9133L54.8786 128.387L47.9133 116.322H43.708C42.4213 116.322 41.3746 115.276 41.3746 113.989C41.3746 112.702 42.4213 111.656 43.708 111.656H47.9133L54.8786 99.5919L47.9133 87.5278H43.708C42.4213 87.5278 41.3746 86.4811 41.3746 85.1945C41.3746 83.9078 42.4213 82.8599 43.708 82.8599H47.9133L54.8786 70.7972L47.9133 58.7332H43.708C42.4213 58.7332 41.3746 57.6865 41.3746 56.3998C41.3746 55.1118 42.4213 54.0652 43.708 54.0652H47.9133L54.8786 42.0011L47.9133 29.9385H43.708C42.4213 29.9385 41.3746 28.8918 41.3746 27.6039C41.3746 26.3171 42.4213 25.2705 43.708 25.2705H47.9133L54.8786 13.2064L47.4759 0.387817H25.6186L31.672 10.8732H35.8773C37.1653 10.8732 38.2119 11.9198 38.2119 13.2064C38.2119 14.4945 37.1653 15.5398 35.8773 15.5398H31.672L24.7066 27.6039L31.672 39.6678H35.8773C37.1653 39.6678 38.2119 40.7158 38.2119 42.0011C38.2119 43.2891 37.1653 44.3359 35.8773 44.3359H31.672L24.7066 56.3998L31.672 68.4639H35.8773C37.1653 68.4639 38.2119 69.5105 38.2119 70.7972C38.2119 72.0839 37.1653 73.1305 35.8773 73.1305H31.672L24.7066 85.1945L31.672 97.2585H35.8773C37.1653 97.2585 38.2119 98.3052 38.2119 99.5919C38.2119 100.879 37.1653 101.925 35.8773 101.925H31.672L24.7066 113.989L31.672 126.053H35.8773C37.1653 126.053 38.2119 127.1 38.2119 128.387C38.2119 129.673 37.1653 130.721 35.8773 130.721H31.672L24.7066 142.784L31.672 154.848H35.8773C37.1653 154.848 38.2119 155.895 38.2119 157.181C38.2119 158.469 37.1653 159.516 35.8773 159.516H31.672L24.7066 171.579L31.672 183.643H35.8773C37.1653 183.643 38.2119 184.689 38.2119 185.976C38.2119 187.264 37.1653 188.31 35.8773 188.31H31.672L24.7066 200.373L31.672 212.437H35.8773C37.1653 212.437 38.2119 213.484 38.2119 214.772C38.2119 216.057 37.1653 217.105 35.8773 217.105H31.672L24.7066 229.168L31.672 241.232H35.8773C37.1653 241.232 38.2119 242.279 38.2119 243.566C38.2119 244.853 37.1653 245.9 35.8773 245.9H31.672L24.7066 257.964L31.672 270.026H35.8773C37.1653 270.026 38.2119 271.075 38.2119 272.36C38.2119 273.648 37.1653 274.694 35.8773 274.694H31.672L24.7066 286.758L31.672 298.822H35.8773C37.1653 298.822 38.2119 299.869 38.2119 301.156C38.2119 302.442 37.1653 303.489 35.8773 303.489H31.672L24.7066 315.553L31.672 327.617H35.8773C37.1653 327.617 38.2119 328.664 38.2119 329.951C38.2119 331.237 37.1653 332.284 35.8773 332.284H31.672L24.7066 344.348L31.672 356.412H35.8773C37.1653 356.412 38.2119 357.458 38.2119 358.745C38.2119 360.032 37.1653 361.08 35.8773 361.08H31.672L24.7066 373.143L31.672 385.206H35.8773C37.1653 385.206 38.2119 386.253 38.2119 387.54C38.2119 388.828 37.1653 389.874 35.8773 389.874H31.672L24.7066 401.937L31.672 414.001H35.8773C37.1653 414.001 38.2119 415.048 38.2119 416.334C38.2119 417.622 37.1653 418.669 35.8773 418.669H31.672L24.7066 430.732L31.672 442.796H35.8773C37.1653 442.796 38.2119 443.842 38.2119 445.13C38.2119 446.416 37.1653 447.464 35.8773 447.464H31.672L24.7066 459.526L31.672 471.59H35.8773C37.1653 471.59 38.2119 472.638 38.2119 473.925C38.2119 475.212 37.1653 476.258 35.8773 476.258H31.672L24.7066 488.322L31.672 500.387H35.8773C37.1653 500.387 38.2119 501.433 38.2119 502.72C38.2119 504.007 37.1653 505.053 35.8773 505.053H31.672L24.7066 517.117L31.672 529.181H35.8773C37.1653 529.181 38.2119 530.228 38.2119 531.515C38.2119 532.801 37.1653 533.848 35.8773 533.848H31.672L24.7066 545.912L31.6706 557.974H35.8773C37.1653 557.974 38.2119 559.023 38.2119 560.309C38.2119 561.596 37.1653 562.643 35.8773 562.643H31.672L24.708 574.706L31.672 586.771H35.8773C37.1653 586.771 38.2119 587.817 38.2119 589.104C38.2119 590.391 37.1653 591.437 35.8773 591.437H31.672L24.7066 603.501L31.672 615.565H35.8773C37.1653 615.565 38.2119 616.612 38.2119 617.898C38.2119 619.186 37.1653 620.233 35.8773 620.233H31.672L24.7066 632.297L31.672 644.36H35.8773C37.1653 644.36 38.2119 645.408 38.2119 646.693C38.2119 647.98 37.1653 649.026 35.8773 649.026H31.672L24.7066 661.09L31.672 673.154H35.8773C37.1653 673.154 38.2119 674.201 38.2119 675.488C38.2119 676.776 37.1653 677.822 35.8773 677.822H31.672L24.7066 689.886L31.672 701.949H35.8773C37.1653 701.949 38.2119 702.996 38.2119 704.284C38.2119 705.57 37.1653 706.617 35.8773 706.617H31.672L24.7066 718.681L31.672 730.745H35.8773C37.1653 730.745 38.2119 731.792 38.2119 733.078C38.2119 734.365 37.1653 735.413 35.8773 735.413H31.672L24.7066 747.474L31.672 759.538H35.8773C37.1653 759.538 38.2119 760.585 38.2119 761.873C38.2119 763.16 37.1653 764.206 35.8773 764.206H31.672L24.7066 776.27L31.672 788.334H35.8773C37.1653 788.334 38.2119 789.381 38.2119 790.668C38.2119 791.954 37.1653 793.001 35.8773 793.001H31.672L24.7066 805.065L31.672 817.129H35.8773C37.1653 817.129 38.2119 818.176 38.2119 819.464C38.2119 820.749 37.1653 821.797 35.8773 821.797H31.672L24.7066 833.86L31.672 845.924H35.8773C37.1653 845.924 38.2119 846.972 38.2119 848.257C38.2119 849.544 37.1653 850.59 35.8773 850.59H31.672L24.708 862.654L31.672 874.718H35.8773C37.1653 874.718 38.2119 875.765 38.2119 877.052C38.2119 878.34 37.1653 879.386 35.8773 879.386H31.672L24.7066 891.45L31.672 903.514H35.8773C37.1653 903.514 38.2119 904.561 38.2119 905.848C38.2119 907.134 37.1653 908.181 35.8773 908.181H31.672L24.708 920.245L31.672 932.308H35.8773C37.1653 932.308 38.2119 933.356 38.2119 934.641C38.2119 935.929 37.1653 936.976 35.8773 936.976H31.672L24.7066 949.04L31.6706 961.102H35.8773C37.1653 961.102 38.2119 962.149 38.2119 963.437C38.2119 964.724 37.1653 965.77 35.8773 965.77H31.672L24.708 977.834L31.672 989.898H35.8773C37.1653 989.898 38.2119 990.945 38.2119 992.232C38.2119 993.52 37.1653 994.566 35.8773 994.566H31.6706L24.7066 1006.63L31.672 1018.69H35.8773C37.1653 1018.69 38.2119 1019.74 38.2119 1021.03C38.2119 1022.31 37.1653 1023.36 35.8773 1023.36H31.672L24.708 1035.42L31.672 1047.49H35.8773C37.1653 1047.49 38.2119 1048.53 38.2119 1049.82C38.2119 1051.11 37.1653 1052.15 35.8773 1052.15H31.672L24.7066 1064.22L31.672 1076.28H35.8773C37.1653 1076.28 38.2119 1077.33 38.2119 1078.62C38.2119 1079.9 37.1653 1080.95 35.8773 1080.95H31.672L24.7066 1093.01L31.672 1105.08H35.8773C37.0426 1105.08 38.0026 1105.94 38.1759 1107.05H54.672L47.9133 1095.35H43.708Z" fill="currentColor"/>
<path d="M68.6453 25.2705H72.8506L79.816 13.2064L72.4146 0.387817H50.556L56.6093 10.8732H60.8146C62.1013 10.8732 63.148 11.9198 63.148 13.2064C63.148 14.4945 62.1013 15.5398 60.8146 15.5398H56.6093L49.644 27.6039L56.6093 39.6678H60.8146C62.1013 39.6678 63.148 40.7158 63.148 42.0011C63.148 43.2891 62.1013 44.3359 60.8146 44.3359H56.6093L49.6453 56.3998L56.6093 68.4639H60.8146C62.1013 68.4639 63.148 69.5105 63.148 70.7972C63.148 72.0839 62.1013 73.1305 60.8146 73.1305H56.6093L49.644 85.1945L56.6093 97.2585H60.8146C62.1013 97.2585 63.148 98.3052 63.148 99.5919C63.148 100.879 62.1013 101.925 60.8146 101.925H56.6093L49.6453 113.989L56.6093 126.053H60.8146C62.1013 126.053 63.148 127.1 63.148 128.387C63.148 129.673 62.1013 130.721 60.8146 130.721H56.6093L49.644 142.784L56.6093 154.848H60.8146C62.1013 154.848 63.148 155.895 63.148 157.181C63.148 158.469 62.1013 159.516 60.8146 159.516H56.6093L49.6453 171.579L56.6093 183.643H60.8146C62.1013 183.643 63.148 184.689 63.148 185.976C63.148 187.264 62.1013 188.31 60.8146 188.31H56.6093L49.644 200.373L56.6093 212.437H60.8146C62.1013 212.437 63.148 213.484 63.148 214.772C63.148 216.057 62.1013 217.105 60.8146 217.105H56.6093L49.6453 229.168L56.6093 241.232H60.8146C62.1013 241.232 63.148 242.279 63.148 243.566C63.148 244.853 62.1013 245.9 60.8146 245.9H56.6093L49.644 257.964L56.6093 270.026H60.8146C62.1013 270.026 63.148 271.075 63.148 272.36C63.148 273.648 62.1013 274.694 60.8146 274.694H56.6093L49.6453 286.758L56.6093 298.822H60.8146C62.1013 298.822 63.148 299.869 63.148 301.156C63.148 302.442 62.1013 303.489 60.8146 303.489H56.6093L49.644 315.553L56.6093 327.617H60.8146C62.1013 327.617 63.148 328.664 63.148 329.951C63.148 331.237 62.1013 332.284 60.8146 332.284H56.6093L49.6453 344.348L56.6093 356.412H60.8146C62.1013 356.412 63.148 357.458 63.148 358.745C63.148 360.032 62.1013 361.08 60.8146 361.08H56.6093L49.644 373.143L56.6093 385.206H60.8146C62.1013 385.206 63.148 386.253 63.148 387.54C63.148 388.828 62.1013 389.874 60.8146 389.874H56.6093L49.6453 401.937L56.6093 414.001H60.8146C62.1013 414.001 63.148 415.048 63.148 416.334C63.148 417.622 62.1013 418.669 60.8146 418.669H56.6093L49.644 430.732L56.6093 442.796H60.8146C62.1013 442.796 63.148 443.842 63.148 445.13C63.148 446.416 62.1013 447.464 60.8146 447.464H56.6093L49.6453 459.526L56.6093 471.59H60.8146C62.1013 471.59 63.148 472.638 63.148 473.925C63.148 475.212 62.1013 476.258 60.8146 476.258H56.6093L49.644 488.322L56.6093 500.387H60.8146C62.1013 500.387 63.148 501.433 63.148 502.72C63.148 504.007 62.1013 505.053 60.8146 505.053H56.6093L49.6453 517.117L56.6093 529.181H60.8146C62.1013 529.181 63.148 530.228 63.148 531.515C63.148 532.801 62.1013 533.848 60.8146 533.848H56.6093L49.644 545.912L56.608 557.974H60.8146C62.1013 557.974 63.148 559.023 63.148 560.309C63.148 561.596 62.1013 562.643 60.8146 562.643H56.6093L49.6453 574.706L56.6093 586.771H60.8146C62.1013 586.771 63.148 587.817 63.148 589.104C63.148 590.391 62.1013 591.437 60.8146 591.437H56.6093L49.644 603.501L56.6093 615.565H60.8146C62.1013 615.565 63.148 616.612 63.148 617.898C63.148 619.186 62.1013 620.233 60.8146 620.233H56.6093L49.6453 632.297L56.6093 644.36H60.8146C62.1013 644.36 63.148 645.408 63.148 646.693C63.148 647.98 62.1013 649.026 60.8146 649.026H56.6093L49.644 661.09L56.6093 673.154H60.8146C62.1013 673.154 63.148 674.201 63.148 675.488C63.148 676.776 62.1013 677.822 60.8146 677.822H56.6093L49.6453 689.886L56.6093 701.949H60.8146C62.1013 701.949 63.148 702.996 63.148 704.284C63.148 705.57 62.1013 706.617 60.8146 706.617H56.6093L49.644 718.681L56.6093 730.745H60.8146C62.1013 730.745 63.148 731.792 63.148 733.078C63.148 734.365 62.1013 735.413 60.8146 735.413H56.6093L49.6453 747.474L56.6093 759.538H60.8146C62.1013 759.538 63.148 760.585 63.148 761.873C63.148 763.16 62.1013 764.206 60.8146 764.206H56.6093L49.644 776.27L56.6093 788.334H60.8146C62.1013 788.334 63.148 789.381 63.148 790.668C63.148 791.954 62.1013 793.001 60.8146 793.001H56.6093L49.6453 805.065L56.6093 817.129H60.8146C62.1013 817.129 63.148 818.176 63.148 819.464C63.148 820.749 62.1013 821.797 60.8146 821.797H56.6093L49.644 833.86L56.6093 845.924H60.8146C62.1013 845.924 63.148 846.972 63.148 848.257C63.148 849.544 62.1013 850.59 60.8146 850.59H56.6093L49.6453 862.654L56.6093 874.718H60.8146C62.1013 874.718 63.148 875.765 63.148 877.052C63.148 878.34 62.1013 879.386 60.8146 879.386H56.6093L49.644 891.45L56.6093 903.514H60.8146C62.1013 903.514 63.148 904.561 63.148 905.848C63.148 907.134 62.1013 908.181 60.8146 908.181H56.6093L49.6453 920.245L56.6093 932.308H60.8146C62.1013 932.308 63.148 933.356 63.148 934.641C63.148 935.929 62.1013 936.976 60.8146 936.976H56.6093L49.644 949.04L56.608 961.102H60.8146C62.1013 961.102 63.148 962.149 63.148 963.437C63.148 964.724 62.1013 965.77 60.8146 965.77H56.6093L49.6453 977.834L56.6093 989.898H60.8146C62.1013 989.898 63.148 990.945 63.148 992.232C63.148 993.52 62.1013 994.566 60.8146 994.566H56.608L49.644 1006.63L56.6093 1018.69H60.8146C62.1013 1018.69 63.148 1019.74 63.148 1021.03C63.148 1022.31 62.1013 1023.36 60.8146 1023.36H56.6093L49.6453 1035.42L56.6093 1047.49H60.8146C62.1013 1047.49 63.148 1048.53 63.148 1049.82C63.148 1051.11 62.1013 1052.15 60.8146 1052.15H56.6093L49.644 1064.22L56.6093 1076.28H60.8146C62.1013 1076.28 63.148 1077.33 63.148 1078.62C63.148 1079.9 62.1013 1080.95 60.8146 1080.95H56.6093L49.6453 1093.01L56.6093 1105.08H60.8146C61.9786 1105.08 62.9386 1105.94 63.1119 1107.05H79.6093L72.8506 1095.35H68.6453C67.3573 1095.35 66.3106 1094.3 66.3106 1093.01C66.3106 1091.73 67.3573 1090.68 68.6453 1090.68H72.8506L79.816 1078.62L72.852 1066.55H68.6453C67.3573 1066.55 66.3106 1065.51 66.3106 1064.22C66.3106 1062.93 67.3573 1061.89 68.6453 1061.89H72.8506L79.816 1049.82L72.8506 1037.76H68.6453C67.3573 1037.76 66.3106 1036.71 66.3106 1035.42C66.3106 1034.14 67.3573 1033.09 68.6453 1033.09H72.8506L79.816 1021.03L72.8506 1008.96H68.6453C67.3573 1008.96 66.3106 1007.92 66.3106 1006.63C66.3106 1005.34 67.3573 1004.3 68.6453 1004.3H72.8506L79.816 992.232L72.8506 980.168H68.6453C67.3573 980.168 66.3106 979.121 66.3106 977.834C66.3106 976.548 67.3573 975.501 68.6453 975.501H72.8506L79.816 963.437L72.8506 951.373H68.6453C67.3573 951.373 66.3106 950.326 66.3106 949.04C66.3106 947.752 67.3573 946.705 68.6453 946.705H72.8506L79.816 934.641L72.8506 922.578H68.6453C67.3573 922.578 66.3106 921.53 66.3106 920.245C66.3106 918.958 67.3573 917.912 68.6453 917.912H72.8506L79.816 905.848L72.8506 893.784H68.6453C67.3573 893.784 66.3106 892.737 66.3106 891.45C66.3106 890.162 67.3573 889.116 68.6453 889.116H72.8506L79.816 877.052L72.8506 864.989H68.6453C67.3573 864.989 66.3106 863.942 66.3106 862.654C66.3106 861.368 67.3573 860.321 68.6453 860.321H72.8506L79.816 848.257L72.8506 836.193H68.6453C67.3573 836.193 66.3106 835.146 66.3106 833.86C66.3106 832.573 67.3573 831.526 68.6453 831.526H72.852L79.816 819.464L72.8506 807.4H68.6453C67.3573 807.4 66.3106 806.353 66.3106 805.065C66.3106 803.778 67.3573 802.732 68.6453 802.732H72.8506L79.816 790.668L72.8506 778.604H68.6453C67.3573 778.604 66.3106 777.557 66.3106 776.27C66.3106 774.984 67.3573 773.937 68.6453 773.937H72.8506L79.816 761.873L72.8506 749.809H68.6453C67.3573 749.809 66.3106 748.762 66.3106 747.474C66.3106 746.189 67.3573 745.141 68.6453 745.141H72.8506L79.816 733.078L72.8506 721.014H68.6453C67.3573 721.014 66.3106 719.968 66.3106 718.681C66.3106 717.394 67.3573 716.348 68.6453 716.348H72.8506L79.816 704.284L72.8506 692.22H68.6453C67.3573 692.22 66.3106 691.173 66.3106 689.886C66.3106 688.598 67.3573 687.552 68.6453 687.552H72.8506L79.816 675.488L72.852 663.425H68.6453C67.3573 663.425 66.3106 662.378 66.3106 661.09C66.3106 659.805 67.3573 658.757 68.6453 658.757H72.8506L79.816 646.693L72.8506 634.63H68.6453C67.3573 634.63 66.3106 633.582 66.3106 632.297C66.3106 631.009 67.3573 629.962 68.6453 629.962H72.8506L79.816 617.898L72.852 605.836H68.6453C67.3573 605.836 66.3106 604.789 66.3106 603.501C66.3106 602.214 67.3573 601.168 68.6453 601.168H72.8506L79.816 589.104L72.8506 577.04H68.6453C67.3573 577.04 66.3106 575.993 66.3106 574.706C66.3106 573.419 67.3573 572.372 68.6453 572.372H72.8506L79.816 560.309L72.8506 548.246H68.6453C67.3573 548.246 66.3106 547.198 66.3106 545.912C66.3106 544.625 67.3573 543.578 68.6453 543.578H72.8506L79.816 531.515L72.8506 519.451H68.6453C67.3573 519.451 66.3106 518.404 66.3106 517.117C66.3106 515.831 67.3573 514.782 68.6453 514.782H72.8506L79.816 502.72L72.8506 490.656H68.6453C67.3573 490.656 66.3106 489.609 66.3106 488.322C66.3106 487.034 67.3573 485.988 68.6453 485.988H72.8506L79.816 473.925L72.8506 461.861H68.6453C67.3573 461.861 66.3106 460.815 66.3106 459.526C66.3106 458.24 67.3573 457.193 68.6453 457.193H72.8506L79.816 445.13L72.8506 433.066H68.6453C67.3573 433.066 66.3106 432.02 66.3106 430.732C66.3106 429.445 67.3573 428.398 68.6453 428.398H72.8506L79.816 416.334L72.8506 404.272H68.6453C67.3573 404.272 66.3106 403.224 66.3106 401.937C66.3106 400.651 67.3573 399.604 68.6453 399.604H72.8506L79.816 387.54L72.8506 375.476H68.6453C67.3573 375.476 66.3106 374.429 66.3106 373.143C66.3106 371.856 67.3573 370.809 68.6453 370.809H72.8506L79.816 358.745L72.8506 346.681H68.6453C67.3573 346.681 66.3106 345.635 66.3106 344.348C66.3106 343.061 67.3573 342.015 68.6453 342.015H72.8506L79.816 329.951L72.8506 317.887H68.6453C67.3573 317.887 66.3106 316.84 66.3106 315.553C66.3106 314.267 67.3573 313.22 68.6453 313.22H72.8506L79.816 301.156L72.8506 289.092H68.6453C67.3573 289.092 66.3106 288.045 66.3106 286.758C66.3106 285.472 67.3573 284.424 68.6453 284.424H72.8506L79.816 272.36L72.8506 260.297H68.6453C67.3573 260.297 66.3106 259.25 66.3106 257.964C66.3106 256.676 67.3573 255.629 68.6453 255.629H72.8506L79.816 243.566L72.8506 231.503H68.6453C67.3573 231.503 66.3106 230.456 66.3106 229.168C66.3106 227.881 67.3573 226.835 68.6453 226.835H72.8506L79.816 214.772L72.8506 202.708H68.6453C67.3573 202.708 66.3106 201.661 66.3106 200.373C66.3106 199.086 67.3573 198.04 68.6453 198.04H72.8506L79.816 185.976L72.8506 173.913H68.6453C67.3573 173.913 66.3106 172.865 66.3106 171.579C66.3106 170.292 67.3573 169.245 68.6453 169.245H72.8506L79.816 157.181L72.8506 145.117H68.6453C67.3573 145.117 66.3106 144.071 66.3106 142.784C66.3106 141.497 67.3573 140.451 68.6453 140.451H72.8506L79.816 128.387L72.8506 116.322H68.6453C67.3573 116.322 66.3106 115.276 66.3106 113.989C66.3106 112.702 67.3573 111.656 68.6453 111.656H72.8506L79.816 99.5919L72.8506 87.5278H68.6453C67.3573 87.5278 66.3106 86.4811 66.3106 85.1945C66.3106 83.9078 67.3573 82.8599 68.6453 82.8599H72.8506L79.816 70.7972L72.8506 58.7332H68.6453C67.3573 58.7332 66.3106 57.6865 66.3106 56.3998C66.3106 55.1118 67.3573 54.0652 68.6453 54.0652H72.8506L79.816 42.0011L72.8506 29.9385H68.6453C67.3573 29.9385 66.3106 28.8918 66.3106 27.6039C66.3106 26.3171 67.3573 25.2705 68.6453 25.2705Z" fill="currentColor"/>
<path d="M95.8173 1094.39V1088.3L104.261 1087.3V1066.59L95.8173 1065.59V1059.51L104.261 1058.51V1037.8L95.8173 1036.8V1030.72L104.261 1029.72V1009L95.8173 1008V1001.92L104.261 1000.92V980.209L95.8173 979.209V973.125L104.261 972.125V951.414L95.8173 950.414V944.33L104.261 943.33V924.286L95.8173 923.286V917.202L104.261 916.202V895.492L95.8173 894.492V888.408L104.261 887.408V866.697L95.8173 865.697V859.613L104.261 858.613V837.901L95.8173 836.901V830.818L104.261 829.818V809.106L95.8173 808.106V802.024L104.261 801.024V780.312L95.8173 779.312V773.229L104.261 772.229V751.517L95.8173 750.517V744.434L104.261 743.434V722.722L95.8173 721.722V715.64L104.261 714.64V693.928L95.8173 692.928V686.844L104.261 685.844V665.133L95.8173 664.133V658.049L104.261 657.049V636.338L95.8173 635.338V629.254L104.261 628.254V607.542L95.8173 606.542V600.46L104.261 599.46V578.748L95.8173 577.748V571.665L104.261 570.665V549.953L95.8173 548.953V542.87L104.261 541.87V521.158L95.8173 520.158V514.076L104.261 513.076V492.364L95.8173 491.364V485.28L104.261 484.28V463.569L95.8173 462.569V456.485L104.261 455.485V434.774L95.8173 433.774V427.69L104.261 426.69V405.98L95.8173 404.98V398.896L104.261 397.896V377.184L95.8173 376.184V370.101L104.261 369.101V348.389L95.8173 347.389V341.307L104.261 340.307V319.594L95.8173 318.594V312.512L104.261 311.512V290.8L95.8173 289.8V283.717L104.261 282.717V262.005L95.8173 261.005V254.921L104.261 253.921V233.211L95.8173 232.211V226.127L104.261 225.127V204.416L95.8173 203.416V197.332L104.261 196.332V175.62L95.8173 174.62V168.537L104.261 167.537V146.825L95.8173 145.825V139.742L104.261 138.742V118.03L95.8173 117.03V110.948L104.261 109.948V89.2359L95.8173 88.2359V82.1532L104.261 81.1532V60.4413L95.8173 59.4413V53.3585L104.261 52.3585V31.6466L95.8173 30.6466V24.5625L104.261 23.5625V0.387817H75.4933L81.5467 10.8732H85.752C87.0387 10.8732 88.0853 11.9198 88.0853 13.2064C88.0853 14.4945 87.0387 15.5398 85.752 15.5398H81.5467L74.5813 27.6039L82.8946 42.0011L74.5827 56.3998L81.5467 68.4639H85.752C87.0387 68.4639 88.0853 69.5105 88.0853 70.7972C88.0853 72.0839 87.0387 73.1305 85.752 73.1305H81.5467L74.5813 85.1945L82.8946 99.5919L74.5827 113.989L81.5467 126.053H85.752C87.0387 126.053 88.0853 127.1 88.0853 128.387C88.0853 129.673 87.0387 130.721 85.752 130.721H81.5467L74.5813 142.784L82.8946 157.181L74.5827 171.579L81.5467 183.643H85.752C87.0387 183.643 88.0853 184.689 88.0853 185.976C88.0853 187.264 87.0387 188.31 85.752 188.31H81.5467L74.5813 200.373L82.8946 214.772L74.5827 229.168L81.5467 241.232H85.752C87.0387 241.232 88.0853 242.279 88.0853 243.566C88.0853 244.853 87.0387 245.9 85.752 245.9H81.5467L74.5813 257.964L82.8946 272.36L74.5827 286.758L81.5467 298.822H85.752C87.0387 298.822 88.0853 299.869 88.0853 301.156C88.0853 302.442 87.0387 303.489 85.752 303.489H81.5467L74.5813 315.553L82.8946 329.951L74.5827 344.348L81.5467 356.412H85.752C87.0387 356.412 88.0853 357.458 88.0853 358.745C88.0853 360.032 87.0387 361.08 85.752 361.08H81.5467L74.5813 373.143L82.8946 387.54L74.5827 401.937L81.5467 414.001H85.752C87.0387 414.001 88.0853 415.048 88.0853 416.334C88.0853 417.622 87.0387 418.669 85.752 418.669H81.5467L74.5813 430.732L82.8946 445.13L74.5827 459.526L81.5467 471.59H85.752C87.0387 471.59 88.0853 472.638 88.0853 473.925C88.0853 475.212 87.0387 476.258 85.752 476.258H81.5467L74.5813 488.322L82.8946 502.72L74.5827 517.117L81.5467 529.181H85.752C87.0387 529.181 88.0853 530.228 88.0853 531.515C88.0853 532.801 87.0387 533.848 85.752 533.848H81.5467L74.5813 545.912L82.8946 560.309L74.5827 574.706L81.5467 586.771H85.752C87.0387 586.771 88.0853 587.817 88.0853 589.104C88.0853 590.391 87.0387 591.437 85.752 591.437H81.5467L74.5813 603.501L82.8946 617.898L74.5827 632.297L81.5467 644.36H85.752C87.0387 644.36 88.0853 645.408 88.0853 646.693C88.0853 647.98 87.0387 649.026 85.752 649.026H81.5467L74.5813 661.09L82.8946 675.488L74.5827 689.886L81.5467 701.949H85.752C87.0387 701.949 88.0853 702.996 88.0853 704.284C88.0853 705.57 87.0387 706.617 85.752 706.617H81.5467L74.5813 718.681L82.8946 733.078L74.5827 747.474L81.5467 759.538H85.752C87.0387 759.538 88.0853 760.585 88.0853 761.873C88.0853 763.16 87.0387 764.206 85.752 764.206H81.5467L74.5813 776.27L82.8946 790.668L74.5827 805.065L81.5467 817.129H85.752C87.0387 817.129 88.0853 818.176 88.0853 819.464C88.0853 820.749 87.0387 821.797 85.752 821.797H81.5467L74.5813 833.86L82.8946 848.257L74.5827 862.654L81.5467 874.718H85.752C87.0387 874.718 88.0853 875.765 88.0853 877.052C88.0853 878.34 87.0387 879.386 85.752 879.386H81.5467L74.5813 891.45L82.8946 905.848L74.5827 920.245L81.5467 932.308H85.752C87.0387 932.308 88.0853 933.356 88.0853 934.641C88.0853 935.929 87.0387 936.976 85.752 936.976H81.5467L74.5813 949.04L82.8946 963.437L74.5827 977.834L81.5467 989.898H85.752C87.0387 989.898 88.0853 990.945 88.0853 992.232C88.0853 993.52 87.0387 994.566 85.752 994.566H81.5467L74.5813 1006.63L82.8946 1021.03L74.5827 1035.42L81.5467 1047.49H85.752C87.0387 1047.49 88.0853 1048.53 88.0853 1049.82C88.0853 1051.11 87.0387 1052.15 85.752 1052.15H81.5467L74.5813 1064.22L82.8946 1078.62L74.5827 1093.01L81.5467 1105.08H85.752C86.916 1105.08 87.876 1105.94 88.0493 1107.05H104.261V1095.39L95.8173 1094.39Z" fill="currentColor"/>
<path d="M22.9746 1095.35H18.7706C17.4839 1095.35 16.4373 1094.3 16.4373 1093.01C16.4373 1091.73 17.4839 1090.68 18.7706 1090.68H22.9759L29.9413 1078.62L22.9759 1066.55H18.7706C17.4839 1066.55 16.4373 1065.51 16.4373 1064.22C16.4373 1062.93 17.4839 1061.89 18.7706 1061.89H22.9759L29.9413 1049.82L22.9746 1037.76H18.7706C17.4839 1037.76 16.4373 1036.71 16.4373 1035.42C16.4373 1034.14 17.4839 1033.09 18.7706 1033.09H22.9759L29.9413 1021.03L22.9759 1008.96H18.7706C17.4839 1008.96 16.4373 1007.92 16.4373 1006.63C16.4373 1005.34 17.4839 1004.3 18.7706 1004.3H22.9759L29.9413 992.232L22.9746 980.168H18.7706C17.4839 980.168 16.4373 979.121 16.4373 977.834C16.4373 976.548 17.4839 975.501 18.7706 975.501H22.9746L29.9413 963.437L22.9759 951.373H18.7706C17.4839 951.373 16.4373 950.326 16.4373 949.04C16.4373 947.752 17.4839 946.705 18.7706 946.705H22.9759L29.9413 934.641L22.9746 922.578H18.7706C17.4839 922.578 16.4373 921.53 16.4373 920.245C16.4373 918.958 17.4839 917.912 18.7706 917.912H22.9746L29.9413 905.848L22.9759 893.784H18.7706C17.4839 893.784 16.4373 892.737 16.4373 891.45C16.4373 890.162 17.4839 889.116 18.7706 889.116H22.9759L29.9413 877.052L22.9759 864.989H18.7706C17.4839 864.989 16.4373 863.942 16.4373 862.654C16.4373 861.368 17.4839 860.321 18.7706 860.321H22.9746L29.9413 848.257L22.9759 836.193H18.7706C17.4839 836.193 16.4373 835.146 16.4373 833.86C16.4373 832.573 17.4839 831.526 18.7706 831.526H22.9759L29.9413 819.464L22.9759 807.4H18.7706C17.4839 807.4 16.4373 806.353 16.4373 805.065C16.4373 803.778 17.4839 802.732 18.7706 802.732H22.9746L29.9413 790.668L22.9759 778.604H18.7706C17.4839 778.604 16.4373 777.557 16.4373 776.27C16.4373 774.984 17.4839 773.937 18.7706 773.937H22.9759L29.9413 761.873L22.9759 749.809H18.7706C17.4839 749.809 16.4373 748.762 16.4373 747.474C16.4373 746.189 17.4839 745.141 18.7706 745.141H22.9746L29.9413 733.078L22.9759 721.014H18.7706C17.4839 721.014 16.4373 719.968 16.4373 718.681C16.4373 717.394 17.4839 716.348 18.7706 716.348H22.9759L29.9413 704.284L22.9746 692.22H18.7706C17.4839 692.22 16.4373 691.173 16.4373 689.886C16.4373 688.598 17.4839 687.552 18.7706 687.552H22.9759L29.9413 675.488L22.9759 663.425H18.7706C17.4839 663.425 16.4373 662.378 16.4373 661.09C16.4373 659.805 17.4839 658.757 18.7706 658.757H22.9759L29.9413 646.693L22.9746 634.63H18.7706C17.4839 634.63 16.4373 633.582 16.4373 632.297C16.4373 631.009 17.4839 629.962 18.7706 629.962H22.9759L29.9413 617.898L22.9759 605.836H18.7706C17.4839 605.836 16.4373 604.789 16.4373 603.501C16.4373 602.214 17.4839 601.168 18.7706 601.168H22.9759L29.9413 589.104L22.9746 577.04H18.7706C17.4839 577.04 16.4373 575.993 16.4373 574.706C16.4373 573.419 17.4839 572.372 18.7706 572.372H22.9759L29.9413 560.309L22.9759 548.246H18.7706C17.4839 548.246 16.4373 547.198 16.4373 545.912C16.4373 544.625 17.4839 543.578 18.7706 543.578H22.9759L29.9413 531.515L22.9759 519.451H18.7706C17.4839 519.451 16.4373 518.404 16.4373 517.117C16.4373 515.831 17.4839 514.782 18.7706 514.782H22.9759L29.9413 502.72L22.9759 490.656H18.7706C17.4839 490.656 16.4373 489.609 16.4373 488.322C16.4373 487.034 17.4839 485.988 18.7706 485.988H22.9759L29.9413 473.925L22.9759 461.861H18.7706C17.4839 461.861 16.4373 460.815 16.4373 459.526C16.4373 458.24 17.4839 457.193 18.7706 457.193H22.9759L29.9413 445.13L22.9759 433.066H18.7706C17.4839 433.066 16.4373 432.02 16.4373 430.732C16.4373 429.445 17.4839 428.398 18.7706 428.398H22.9759L29.9413 416.334L22.9759 404.272H18.7706C17.4839 404.272 16.4373 403.224 16.4373 401.937C16.4373 400.651 17.4839 399.604 18.7706 399.604H22.9746L29.9413 387.54L22.9759 375.476H18.7706C17.4839 375.476 16.4373 374.429 16.4373 373.143C16.4373 371.856 17.4839 370.809 18.7706 370.809H22.9759L29.9413 358.745L22.9746 346.681H18.7706C17.4839 346.681 16.4373 345.635 16.4373 344.348C16.4373 343.061 17.4839 342.015 18.7706 342.015H22.9759L29.9413 329.951L22.9759 317.887H18.7706C17.4839 317.887 16.4373 316.84 16.4373 315.553C16.4373 314.267 17.4839 313.22 18.7706 313.22H22.9759L29.9413 301.156L22.9759 289.092H18.7706C17.4839 289.092 16.4373 288.045 16.4373 286.758C16.4373 285.472 17.4839 284.424 18.7706 284.424H22.9759L29.9413 272.36L22.9759 260.297H18.7706C17.4839 260.297 16.4373 259.25 16.4373 257.964C16.4373 256.676 17.4839 255.629 18.7706 255.629H22.9759L29.9413 243.566L22.9759 231.503H18.7706C17.4839 231.503 16.4373 230.456 16.4373 229.168C16.4373 227.881 17.4839 226.835 18.7706 226.835H22.9759L29.9413 214.772L22.9759 202.708H18.7706C17.4839 202.708 16.4373 201.661 16.4373 200.373C16.4373 199.086 17.4839 198.04 18.7706 198.04H22.9759L29.9413 185.976L22.9759 173.913H18.7706C17.4839 173.913 16.4373 172.865 16.4373 171.579C16.4373 170.292 17.4839 169.245 18.7706 169.245H22.9746L29.9413 157.181L22.9759 145.117H18.7706C17.4839 145.117 16.4373 144.071 16.4373 142.784C16.4373 141.497 17.4839 140.451 18.7706 140.451H22.9759L29.9413 128.387L22.9746 116.322H18.7706C17.4839 116.322 16.4373 115.276 16.4373 113.989C16.4373 112.702 17.4839 111.656 18.7706 111.656H22.9759L29.9413 99.5919L22.9759 87.5278H18.7706C17.4839 87.5278 16.4373 86.4811 16.4373 85.1945C16.4373 83.9078 17.4839 82.8599 18.7706 82.8599H22.9759L29.9413 70.7972L22.9759 58.7332H18.7706C17.4839 58.7332 16.4373 57.6865 16.4373 56.3998C16.4373 55.1118 17.4839 54.0652 18.7706 54.0652H22.9759L29.9413 42.0011L22.9759 29.9385H18.7706C17.4839 29.9385 16.4373 28.8918 16.4373 27.6039C16.4373 26.3171 17.4839 25.2705 18.7706 25.2705H22.9759L29.9413 13.2064L22.5386 0.387817H0.261292V9.99988L8.7053 10.9999V17.0825L0.261292 18.0825V38.7944L8.7053 39.7944V45.8772L0.261292 46.8772V67.5891L8.7053 68.5891V74.6719L0.261292 75.6719V96.3838L8.7053 97.3838V103.466L0.261292 104.466V125.179L8.7053 126.179V132.261L0.261292 133.261V153.973L8.7053 154.973V161.057L0.261292 162.057V182.768L8.7053 183.768V189.852L0.261292 190.852V211.562L8.7053 212.562V218.646L0.261292 219.646V240.358L8.7053 241.358V247.441L0.261292 248.441V269.153L8.7053 270.153V276.236L0.261292 277.236V297.948L8.7053 298.948V305.03L0.261292 306.03V326.742L8.7053 327.742V333.825L0.261292 334.825V355.537L8.7053 356.537V362.62L0.261292 363.62V384.332L8.7053 385.332V391.416L0.261292 392.416V413.126L8.7053 414.126V420.21L0.261292 421.21V441.921L8.7053 442.921V449.005L0.261292 450.005V470.717L8.7053 471.717V477.8L0.261292 478.8V499.512L8.7053 500.512V506.594L0.261292 507.594V528.307L8.7053 529.307V535.389L0.261292 536.389V557.101L8.7053 558.101V564.184L0.261292 565.184V585.896L8.7053 586.896V592.98L0.261292 593.98V614.69L8.7053 615.69V621.774L0.261292 622.774V643.485L8.7053 644.485V650.569L0.261292 651.569V672.28L8.7053 673.28V679.364L0.261292 680.364V701.076L8.7053 702.076V708.158L0.261292 709.158V729.87L8.7053 730.87V736.953L0.261292 737.953V758.665L8.7053 759.665V765.748L0.261292 766.748V787.46L8.7053 788.46V794.542L0.261292 795.542V816.254L8.7053 817.254V823.338L0.261292 824.338V845.049L8.7053 846.049V852.133L0.261292 853.133V873.844L8.7053 874.844V880.928L0.261292 881.928V902.64L8.7053 903.64V909.722L0.261292 910.722V929.766L8.7053 930.766V936.85L0.261292 937.85V958.561L8.7053 959.561V965.645L0.261292 966.645V987.357L8.7053 988.357V994.44L0.261292 995.44V1016.15L8.7053 1017.15V1023.23L0.261292 1024.23V1044.95L8.7053 1045.95V1052.03L0.261292 1053.03V1073.74L8.7053 1074.74V1080.82L0.261292 1081.82V1107.05H29.7346L22.9746 1095.35Z" fill="currentColor"/>
</svg>
