<svg viewBox="0 0 1095 105" fill="none" xmlns="http://www.w3.org/2000/svg">
<path d="M0.789431 46.5583L0.789431 58.3557L1094.2 58.3558L1094.2 46.5584L0.789431 46.5583Z" fill="currentColor"/>
<path d="M1094.2 0.937135C1090.13 1.45713 1086.49 3.82645 1084.39 7.41845L1074.66 24.0145L1086.98 24.0145C1089.59 24.0145 1092.08 23.2291 1094.2 21.8598L1094.2 0.937135" fill="currentColor"/>
<path d="M1089.8 28.0145L1076.31 28.0145C1073.41 28.0145 1070.59 28.9585 1068.28 30.7038L1052.56 42.5584L1066.05 42.5584C1068.95 42.5584 1071.77 41.6144 1074.08 39.8691L1089.8 28.0145Z" fill="currentColor"/>
<path d="M1094.2 29.8345C1093.75 30.0998 1093.3 30.3838 1092.87 30.7038L1077.16 42.5584L1090.65 42.5584C1091.86 42.5584 1093.05 42.3851 1094.2 42.0664L1094.2 29.8345" fill="currentColor"/>
<path d="M1073.89 17.4224L1083.62 0.826417L1071.3 0.826417C1066.56 0.826417 1062.19 3.33441 1059.79 7.41841L1050.07 24.0144L1062.39 24.0144C1067.12 24.0144 1071.5 21.5064 1073.89 17.4224Z" fill="currentColor"/>
<path d="M1065.2 28.0145L1051.71 28.0145C1048.81 28.0145 1046 28.9585 1043.68 30.7038L1027.97 42.5584L1041.46 42.5584C1044.36 42.5584 1047.17 41.6144 1049.49 39.8691L1065.2 28.0145Z" fill="currentColor"/>
<path d="M1049.3 17.4224L1059.02 0.826417L1046.7 0.826417C1041.97 0.826417 1037.59 3.33441 1035.2 7.41841L1025.47 24.0144L1037.79 24.0144C1042.53 24.0144 1046.9 21.5064 1049.3 17.4224Z" fill="currentColor"/>
<path d="M1040.61 28.0145L1027.12 28.0145C1024.22 28.0145 1021.4 28.9585 1019.09 30.7038L1003.37 42.5584L1016.86 42.5584C1019.76 42.5584 1022.58 41.6144 1024.89 39.8691L1040.61 28.0145Z" fill="currentColor"/>
<path d="M1024.7 17.4224L1034.43 0.826417L1022.11 0.826417C1017.37 0.826417 1013 3.33441 1010.6 7.41841L1000.88 24.0144L1013.2 24.0144C1017.93 24.0144 1022.31 21.5064 1024.7 17.4224Z" fill="currentColor"/>
<path d="M1016.01 28.0145L1002.52 28.0145C999.625 28.0145 996.805 28.9585 994.492 30.7038L978.779 42.5584L992.268 42.5584C995.165 42.5584 997.985 41.6144 1000.3 39.8691L1016.01 28.0145Z" fill="currentColor"/>
<path d="M1000.11 17.4224L1009.83 0.826417L997.512 0.826417C992.779 0.826417 988.401 3.33441 986.008 7.41841L976.283 24.0144L988.601 24.0144C993.335 24.0144 997.712 21.5064 1000.11 17.4224" fill="currentColor"/>
<path d="M991.417 28.0145L977.927 28.0145C975.029 28.0145 972.211 28.9585 969.897 30.7038L954.183 42.5584L967.673 42.5584C970.571 42.5584 973.389 41.6144 975.703 39.8691L991.417 28.0145Z" fill="currentColor"/>
<path d="M975.511 17.4224L985.236 0.826417L972.917 0.826417C968.184 0.826417 963.805 3.33441 961.413 7.41841L951.688 24.0144L964.007 24.0144C968.739 24.0144 973.117 21.5064 975.511 17.4224Z" fill="currentColor"/>
<path d="M966.821 28.0145L953.332 28.0145C950.435 28.0145 947.616 28.9585 945.303 30.7038L929.588 42.5584L943.077 42.5584C945.976 42.5584 948.795 41.6144 951.108 39.8691L966.821 28.0145Z" fill="currentColor"/>
<path d="M950.915 17.4224L960.641 0.826417L948.321 0.826417C943.589 0.826417 939.211 3.33441 936.819 7.41841L927.092 24.0144L939.412 24.0144C944.144 24.0144 948.523 21.5064 950.915 17.4224Z" fill="currentColor"/>
<path d="M942.227 28.0145L928.737 28.0145C925.839 28.0145 923.02 28.9585 920.708 30.7038L904.993 42.5584L918.483 42.5584C921.38 42.5584 924.199 41.6144 926.512 39.8691L942.227 28.0145Z" fill="currentColor"/>
<path d="M926.32 17.4224L936.045 0.826417L923.727 0.826417C918.993 0.826417 914.616 3.33441 912.223 7.41841L902.497 24.0144L914.816 24.0144C919.549 24.0144 923.927 21.5064 926.32 17.4224Z" fill="currentColor"/>
<path d="M917.631 28.0145L904.141 28.0145C901.244 28.0145 898.425 28.9585 896.112 30.7038L880.397 42.5584L893.888 42.5584C896.785 42.5584 899.604 41.6144 901.917 39.8691L917.631 28.0145" fill="currentColor"/>
<path d="M901.725 17.4224L911.451 0.826417L899.132 0.826417C894.399 0.826417 890.021 3.33441 887.628 7.41841L877.903 24.0144L890.221 24.0144C894.953 24.0144 899.332 21.5064 901.725 17.4224Z" fill="currentColor"/>
<path d="M893.036 28.0145L879.547 28.0145C876.649 28.0145 873.831 28.9585 871.517 30.7038L855.803 42.5584L869.292 42.5584C872.191 42.5584 875.009 41.6144 877.323 39.8691L893.036 28.0145Z" fill="currentColor"/>
<path d="M877.129 17.4224L886.856 0.826417L874.536 0.826417C869.804 0.826417 865.425 3.33441 863.032 7.41841L853.307 24.0144L865.627 24.0144C870.359 24.0144 874.737 21.5064 877.129 17.4224" fill="currentColor"/>
<path d="M868.441 28.0145L854.952 28.0145C852.053 28.0145 849.235 28.9585 846.921 30.7038L831.208 42.5584L844.697 42.5584C847.595 42.5584 850.413 41.6144 852.727 39.8691L868.441 28.0145Z" fill="currentColor"/>
<path d="M852.535 17.4224L862.26 0.826417L849.941 0.826417C845.208 0.826417 840.831 3.33441 838.437 7.41841L828.712 24.0144L841.031 24.0144C845.764 24.0144 850.141 21.5064 852.535 17.4224Z" fill="currentColor"/>
<path d="M843.845 28.0145L830.356 28.0145C827.459 28.0145 824.64 28.9585 822.327 30.7038L806.612 42.5584L820.103 42.5584C823 42.5584 825.819 41.6144 828.132 39.8691L843.845 28.0145" fill="currentColor"/>
<path d="M827.94 17.4224L837.665 0.826417L825.347 0.826417C820.613 0.826417 816.235 3.33441 813.843 7.41841L804.117 24.0144L816.436 24.0144C821.168 24.0144 825.547 21.5064 827.94 17.4224Z" fill="currentColor"/>
<path d="M819.251 28.0145L805.761 28.0145C802.864 28.0145 800.045 28.9585 797.732 30.7038L782.017 42.5584L795.507 42.5584C798.404 42.5584 801.224 41.6144 803.537 39.8691L819.251 28.0145Z" fill="currentColor"/>
<path d="M803.344 17.4224L813.071 0.826417L800.751 0.826417C796.019 0.826417 791.64 3.33441 789.247 7.41841L779.521 24.0144L791.841 24.0144C796.573 24.0144 800.952 21.5064 803.344 17.4224" fill="currentColor"/>
<path d="M794.656 28.0145L781.167 28.0145C778.268 28.0145 775.449 28.9585 773.136 30.7038L757.423 42.5584L770.912 42.5584C773.809 42.5584 776.628 41.6144 778.941 39.8691L794.656 28.0145Z" fill="currentColor"/>
<path d="M778.749 17.4224L788.475 0.826417L776.156 0.826417C771.423 0.826417 767.045 3.33441 764.652 7.41841L754.927 24.0144L767.245 24.0144C771.979 24.0144 776.356 21.5064 778.749 17.4224Z" fill="currentColor"/>
<path d="M770.06 28.0145L756.571 28.0145C753.673 28.0145 750.855 28.9585 748.541 30.7038L732.827 42.5584L746.317 42.5584C749.215 42.5584 752.033 41.6144 754.347 39.8691L770.06 28.0145" fill="currentColor"/>
<path d="M754.155 17.4224L763.88 0.826417L751.561 0.826417C746.828 0.826417 742.449 3.33441 740.057 7.41841L730.332 24.0144L742.651 24.0144C747.383 24.0144 751.761 21.5064 754.155 17.4224Z" fill="currentColor"/>
<path d="M745.465 28.0145L731.976 28.0145C729.079 28.0145 726.26 28.9585 723.947 30.7038L708.232 42.5584L721.721 42.5584C724.62 42.5584 727.439 41.6144 729.752 39.8691L745.465 28.0145Z" fill="currentColor"/>
<path d="M729.559 17.4224L739.285 0.826417L726.965 0.826417C722.233 0.826417 717.855 3.33441 715.461 7.41841L705.736 24.0144L718.055 24.0144C722.788 24.0144 727.167 21.5064 729.559 17.4224" fill="currentColor"/>
<path d="M720.871 28.0144L707.38 28.0144C704.483 28.0144 701.664 28.9584 699.351 30.7037L683.636 42.5584L697.127 42.5584C700.024 42.5584 702.843 41.6144 705.156 39.869L720.871 28.0144Z" fill="currentColor"/>
<path d="M704.964 17.4224L714.689 0.826356L702.371 0.826356C697.637 0.826356 693.26 3.33435 690.867 7.41835L681.141 24.0144L693.46 24.0144C698.193 24.0144 702.571 21.5064 704.964 17.4224Z" fill="currentColor"/>
<path d="M696.275 28.0144L682.785 28.0144C679.888 28.0144 677.069 28.9584 674.756 30.7037L659.041 42.5584L672.532 42.5584C675.429 42.5584 678.248 41.6144 680.561 39.869L696.275 28.0144" fill="currentColor"/>
<path d="M680.369 17.4224L690.095 0.826356L677.775 0.826356C673.043 0.826356 668.664 3.33435 666.272 7.41835L656.545 24.0144L668.865 24.0144C673.597 24.0144 677.976 21.5064 680.369 17.4224" fill="currentColor"/>
<path d="M671.68 28.0144L658.191 28.0144C655.293 28.0144 652.473 28.9584 650.161 30.7037L634.447 42.5584L647.936 42.5584C650.833 42.5584 653.653 41.6144 655.967 39.869L671.68 28.0144Z" fill="currentColor"/>
<path d="M655.773 17.4224L665.5 0.826356L653.18 0.826356C648.447 0.826356 644.069 3.33435 641.676 7.41835L631.951 24.0144L644.269 24.0144C649.003 24.0144 653.381 21.5064 655.773 17.4224" fill="currentColor"/>
<path d="M647.085 28.0144L633.595 28.0144C630.697 28.0144 627.879 28.9584 625.565 30.7037L609.851 42.5584L623.341 42.5584C626.239 42.5584 629.057 41.6144 631.371 39.869L647.085 28.0144Z" fill="currentColor"/>
<path d="M631.179 17.4224L640.904 0.826356L628.585 0.826356C623.852 0.826356 619.473 3.33435 617.081 7.41835L607.356 24.0144L619.675 24.0144C624.408 24.0144 628.785 21.5064 631.179 17.4224Z" fill="currentColor"/>
<path d="M622.489 28.0144L609 28.0144C606.103 28.0144 603.284 28.9584 600.971 30.7037L585.256 42.5584L598.747 42.5584C601.644 42.5584 604.463 41.6144 606.776 39.869L622.489 28.0144" fill="currentColor"/>
<path d="M606.583 17.4224L616.309 0.826356L603.989 0.826356C599.257 0.826356 594.879 3.33435 592.487 7.41835L582.76 24.0144L595.08 24.0144C599.812 24.0144 604.191 21.5064 606.583 17.4224Z" fill="currentColor"/>
<path d="M597.895 28.0144L584.405 28.0144C581.508 28.0144 578.689 28.9584 576.376 30.7037L560.661 42.5584L574.151 42.5584C577.049 42.5584 579.868 41.6144 582.181 39.869L597.895 28.0144Z" fill="currentColor"/>
<path d="M581.988 17.4224L591.713 0.826356L579.395 0.826356C574.661 0.826356 570.284 3.33435 567.891 7.41835L558.165 24.0144L570.484 24.0144C575.217 24.0144 579.595 21.5064 581.988 17.4224Z" fill="currentColor"/>
<path d="M573.3 28.0144L559.809 28.0144C556.912 28.0144 554.093 28.9584 551.78 30.7037L536.065 42.5584L549.556 42.5584C552.453 42.5584 555.272 41.6144 557.585 39.869L573.3 28.0144Z" fill="currentColor"/>
<path d="M557.393 17.4224L567.119 0.826356L554.8 0.826356C550.067 0.826356 545.689 3.33435 543.296 7.41835L533.571 24.0144L545.889 24.0144C550.623 24.0144 555 21.5064 557.393 17.4224Z" fill="currentColor"/>
<path d="M548.704 28.0144L535.215 28.0144C532.317 28.0144 529.499 28.9584 527.185 30.7037L511.471 42.5584L524.96 42.5584C527.859 42.5584 530.677 41.6144 532.991 39.869L548.704 28.0144Z" fill="currentColor"/>
<path d="M532.797 17.4224L542.524 0.826356L530.204 0.826356C525.472 0.826356 521.093 3.33435 518.701 7.41835L508.975 24.0144L521.295 24.0144C526.027 24.0144 530.405 21.5064 532.797 17.4224Z" fill="currentColor"/>
<path d="M524.109 28.0144L510.62 28.0144C507.723 28.0144 504.903 28.9584 502.589 30.7037L486.876 42.5584L500.365 42.5584C503.263 42.5584 506.083 41.6144 508.395 39.869L524.109 28.0144Z" fill="currentColor"/>
<path d="M508.203 17.4224L517.928 0.826356L505.609 0.826356C500.876 0.826356 496.499 3.33435 494.105 7.41835L484.38 24.0144L496.699 24.0144C501.432 24.0144 505.809 21.5064 508.203 17.4224Z" fill="currentColor"/>
<path d="M499.515 28.0144L486.024 28.0144C483.127 28.0144 480.308 28.9584 477.995 30.7037L462.28 42.5584L475.771 42.5584C478.668 42.5584 481.487 41.6144 483.8 39.869L499.515 28.0144Z" fill="currentColor"/>
<path d="M483.608 17.4224L493.333 0.826356L481.015 0.826356C476.281 0.826356 471.903 3.33435 469.511 7.41835L459.785 24.0144L472.104 24.0144C476.836 24.0144 481.215 21.5064 483.608 17.4224Z" fill="currentColor"/>
<path d="M474.919 28.0144L461.429 28.0144C458.532 28.0144 455.713 28.9584 453.4 30.7037L437.685 42.5584L451.175 42.5584C454.073 42.5584 456.892 41.6144 459.205 39.869L474.919 28.0144" fill="currentColor"/>
<path d="M459.012 17.4224L468.739 0.826356L456.419 0.826356C451.687 0.826356 447.308 3.33435 444.916 7.41835L435.189 24.0144L447.509 24.0144C452.241 24.0144 456.62 21.5064 459.012 17.4224Z" fill="currentColor"/>
<path d="M450.324 28.0144L436.835 28.0144C433.936 28.0144 431.117 28.9584 428.805 30.7037L413.091 42.5584L426.58 42.5584C429.477 42.5584 432.296 41.6144 434.609 39.869L450.324 28.0144Z" fill="currentColor"/>
<path d="M434.417 17.4224L444.143 0.826356L431.824 0.826356C427.091 0.826356 422.713 3.33435 420.32 7.41835L410.595 24.0144L422.913 24.0144C427.647 24.0144 432.024 21.5064 434.417 17.4224" fill="currentColor"/>
<path d="M425.728 28.0144L412.239 28.0144C409.341 28.0144 406.523 28.9584 404.209 30.7037L388.495 42.5584L401.985 42.5584C404.883 42.5584 407.701 41.6144 410.015 39.869L425.728 28.0144" fill="currentColor"/>
<path d="M409.823 17.4224L419.548 0.826356L407.229 0.826356C402.496 0.826356 398.119 3.33435 395.725 7.41835L386 24.0144L398.319 24.0144C403.051 24.0144 407.429 21.5064 409.823 17.4224Z" fill="currentColor"/>
<path d="M401.133 28.0144L387.644 28.0144C384.747 28.0144 381.928 28.9584 379.615 30.7037L363.9 42.5584L377.389 42.5584C380.288 42.5584 383.107 41.6144 385.42 39.869L401.133 28.0144Z" fill="currentColor"/>
<path d="M385.227 17.4224L394.953 0.826356L382.633 0.826356C377.901 0.826356 373.523 3.33435 371.129 7.41835L361.404 24.0144L373.724 24.0144C378.456 24.0144 382.835 21.5064 385.227 17.4224" fill="currentColor"/>
<path d="M376.539 28.0144L363.049 28.0144C360.151 28.0144 357.332 28.9584 355.019 30.7037L339.305 42.5584L352.795 42.5584C355.692 42.5584 358.511 41.6144 360.824 39.869L376.539 28.0144Z" fill="currentColor"/>
<path d="M360.632 17.4224L370.357 0.826356L358.039 0.826356C353.305 0.826356 348.928 3.33435 346.535 7.41835L336.809 24.0144L349.128 24.0144C353.861 24.0144 358.239 21.5064 360.632 17.4224Z" fill="currentColor"/>
<path d="M351.943 28.0144L338.453 28.0144C335.556 28.0144 332.737 28.9584 330.424 30.7037L314.709 42.5584L328.2 42.5584C331.097 42.5584 333.916 41.6144 336.229 39.869L351.943 28.0144" fill="currentColor"/>
<path d="M336.037 17.4224L345.763 0.826356L333.444 0.826356C328.711 0.826356 324.332 3.33435 321.94 7.41835L312.215 24.0144L324.533 24.0144C329.265 24.0144 333.644 21.5064 336.037 17.4224Z" fill="currentColor"/>
<path d="M327.348 28.0144L313.859 28.0144C310.961 28.0144 308.143 28.9584 305.829 30.7037L290.115 42.5584L303.604 42.5584C306.501 42.5584 309.321 41.6144 311.635 39.869L327.348 28.0144Z" fill="currentColor"/>
<path d="M311.441 17.4224L321.168 0.826356L308.848 0.826356C304.116 0.826356 299.737 3.33435 297.344 7.41835L287.619 24.0144L299.937 24.0144C304.671 24.0144 309.049 21.5064 311.441 17.4224" fill="currentColor"/>
<path d="M302.753 28.0144L289.263 28.0144C286.365 28.0144 283.547 28.9584 281.233 30.7037L265.519 42.5584L279.009 42.5584C281.907 42.5584 284.725 41.6144 287.039 39.869L302.753 28.0144Z" fill="currentColor"/>
<path d="M286.847 17.4224L296.572 0.826356L284.253 0.826356C279.52 0.826356 275.143 3.33435 272.749 7.41835L263.024 24.0144L275.343 24.0144C280.076 24.0144 284.453 21.5064 286.847 17.4224Z" fill="currentColor"/>
<path d="M278.157 28.0144L264.668 28.0144C261.771 28.0144 258.952 28.9584 256.639 30.7037L240.924 42.5584L254.415 42.5584C257.312 42.5584 260.131 41.6144 262.444 39.869L278.157 28.0144Z" fill="currentColor"/>
<path d="M262.252 17.4224L271.977 0.826356L259.657 0.826356C254.925 0.826356 250.547 3.33435 248.155 7.41835L238.428 24.0144L250.748 24.0144C255.48 24.0144 259.859 21.5064 262.252 17.4224" fill="currentColor"/>
<path d="M253.563 28.0144L240.073 28.0144C237.176 28.0144 234.356 28.9584 232.043 30.7037L216.329 42.5584L229.819 42.5584C232.716 42.5584 235.536 41.6144 237.849 39.869L253.563 28.0144Z" fill="currentColor"/>
<path d="M237.656 17.4224L247.383 0.826356L235.063 0.826356C230.329 0.826356 225.952 3.33435 223.559 7.41835L213.833 24.0144L226.152 24.0144C230.885 24.0144 235.264 21.5064 237.656 17.4224" fill="currentColor"/>
<path d="M228.968 28.0144L215.477 28.0144C212.58 28.0144 209.761 28.9584 207.448 30.7037L191.733 42.5584L205.224 42.5584C208.121 42.5584 210.94 41.6144 213.253 39.869L228.968 28.0144Z" fill="currentColor"/>
<path d="M213.061 17.4224L222.787 0.826356L210.468 0.826356C205.735 0.826356 201.356 3.33435 198.964 7.41835L189.239 24.0144L201.557 24.0144C206.291 24.0144 210.668 21.5064 213.061 17.4224Z" fill="currentColor"/>
<path d="M204.372 28.0144L190.883 28.0144C187.985 28.0144 185.167 28.9584 182.853 30.7037L167.139 42.5584L180.629 42.5584C183.527 42.5584 186.345 41.6144 188.659 39.869L204.372 28.0144Z" fill="currentColor"/>
<path d="M188.465 17.4224L198.192 0.826356L185.872 0.826356C181.14 0.826356 176.761 3.33435 174.369 7.41835L164.643 24.0144L176.963 24.0144C181.695 24.0144 186.073 21.5064 188.465 17.4224" fill="currentColor"/>
<path d="M179.777 28.0144L166.288 28.0144C163.391 28.0144 160.571 28.9584 158.259 30.7037L142.544 42.5584L156.033 42.5584C158.932 42.5584 161.751 41.6144 164.064 39.869L179.777 28.0144Z" fill="currentColor"/>
<path d="M163.871 17.4224L173.596 0.826356L161.277 0.826356C156.544 0.826356 152.167 3.33435 149.773 7.41835L140.048 24.0144L152.367 24.0144C157.1 24.0144 161.477 21.5064 163.871 17.4224" fill="currentColor"/>
<path d="M155.183 28.0144L141.692 28.0144C138.795 28.0144 135.976 28.9584 133.663 30.7037L117.948 42.5584L131.439 42.5584C134.336 42.5584 137.155 41.6144 139.468 39.869L155.183 28.0144Z" fill="currentColor"/>
<path d="M139.276 17.4224L149.001 0.826356L136.683 0.826356C131.949 0.826356 127.572 3.33435 125.179 7.41835L115.453 24.0144L127.772 24.0144C132.505 24.0144 136.883 21.5064 139.276 17.4224Z" fill="currentColor"/>
<path d="M130.587 28.0144L117.097 28.0144C114.2 28.0144 111.381 28.9584 109.068 30.7037L93.3533 42.5584L106.843 42.5584C109.741 42.5584 112.56 41.6144 114.873 39.869L130.587 28.0144Z" fill="currentColor"/>
<path d="M114.68 17.4224L124.407 0.826356L112.087 0.826356C107.355 0.826356 102.976 3.33435 100.583 7.41835L90.8573 24.0144L103.177 24.0144C107.909 24.0144 112.288 21.5064 114.68 17.4224Z" fill="currentColor"/>
<path d="M105.992 28.0144L92.5026 28.0144C89.6053 28.0144 86.7853 28.9584 84.472 30.7037L68.7586 42.5584L82.248 42.5584C85.1453 42.5584 87.9653 41.6144 90.2773 39.869L105.992 28.0144Z" fill="currentColor"/>
<path d="M90.0853 17.4224L99.8106 0.826356L87.492 0.826356C82.7586 0.826356 78.3813 3.33435 75.988 7.41835L66.2626 24.0144L78.5813 24.0144C83.3146 24.0144 87.692 21.5064 90.0853 17.4224Z" fill="currentColor"/>
<path d="M81.3973 28.0144L67.9066 28.0144C65.0093 28.0144 62.1906 28.9584 59.8773 30.7037L44.1626 42.5584L57.6533 42.5584C60.5506 42.5584 63.3693 41.6144 65.6826 39.869L81.3973 28.0144Z" fill="currentColor"/>
<path d="M65.4906 17.4224L75.216 0.826356L62.8973 0.826356C58.164 0.826356 53.7853 3.33435 51.3933 7.41835L41.668 24.0144L53.9866 24.0144C58.7186 24.0144 63.0973 21.5064 65.4906 17.4224Z" fill="currentColor"/>
<path d="M56.8013 28.0144L43.312 28.0144C40.4146 28.0144 37.596 28.9584 35.2826 30.7037L19.5681 42.5584L33.0573 42.5584C35.956 42.5584 38.7746 41.6144 41.088 39.869L56.8013 28.0144" fill="currentColor"/>
<path d="M40.8946 17.4224L50.6213 0.826356L38.3013 0.826356C33.5693 0.826356 29.1906 3.33435 26.7988 7.41835L17.0722 24.0144L29.392 24.0144C34.124 24.0144 38.5026 21.5064 40.8946 17.4224Z" fill="currentColor"/>
<path d="M32.2066 28.0144L18.7176 28.0144C15.8186 28.0144 12.9998 28.9584 10.6878 30.7037L0.789432 38.1704L0.789431 42.5584L8.4629 42.5584C11.3602 42.5584 14.1785 41.6144 16.4936 39.869L32.2066 28.0144" fill="currentColor"/>
<path d="M16.2998 17.4224L26.0253 0.826356L13.7066 0.826356C8.9733 0.826355 4.59623 3.33435 2.20303 7.41835L0.789433 9.83033L0.789432 24.0144L4.79624 24.0144C9.52957 24.0144 13.9066 21.5064 16.2998 17.4224" fill="currentColor"/>
<path d="M0.789432 28.0144L0.789432 33.161L7.61076 28.0144L0.789432 28.0144Z" fill="currentColor"/>
<path d="M0.789433 0.826355L0.789433 1.92102L1.43064 0.826355L0.789433 0.826355Z" fill="currentColor"/>
<path d="M1094.2 103.977L1094.2 83.0544C1092.08 81.6851 1089.59 80.8997 1086.98 80.8997L1074.66 80.8997L1084.39 97.4957C1086.49 101.088 1090.13 103.457 1094.2 103.977" fill="currentColor"/>
<path d="M1066.05 62.3558L1052.56 62.3558L1068.28 74.2104C1070.59 75.9557 1073.41 76.8997 1076.31 76.8997L1089.8 76.8997L1074.08 65.0451C1071.77 63.2998 1068.95 62.3558 1066.05 62.3558Z" fill="currentColor"/>
<path d="M1094.2 75.0797L1094.2 62.8478C1093.05 62.5291 1091.86 62.3558 1090.65 62.3558L1077.16 62.3558L1092.87 74.2104C1093.3 74.5304 1093.75 74.8144 1094.2 75.0797" fill="currentColor"/>
<path d="M1073.89 87.4917C1071.5 83.4077 1067.12 80.8997 1062.39 80.8997L1050.07 80.8997L1059.79 97.4957C1062.19 101.58 1066.56 104.088 1071.3 104.088L1083.62 104.088L1073.89 87.4917Z" fill="currentColor"/>
<path d="M1041.46 62.3558L1027.97 62.3558L1043.68 74.2104C1046 75.9557 1048.81 76.8997 1051.71 76.8997L1065.2 76.8997L1049.49 65.0451C1047.17 63.2998 1044.36 62.3558 1041.46 62.3558Z" fill="currentColor"/>
<path d="M1037.79 80.8997L1025.47 80.8997L1035.2 97.4957C1037.59 101.58 1041.97 104.088 1046.7 104.088L1059.02 104.088L1049.3 87.4917C1046.9 83.4077 1042.53 80.8997 1037.79 80.8997Z" fill="currentColor"/>
<path d="M1016.86 62.3558L1003.37 62.3558L1019.09 74.2104C1021.4 75.9557 1024.22 76.8997 1027.12 76.8997L1040.61 76.8997L1024.89 65.0451C1022.58 63.2998 1019.76 62.3558 1016.86 62.3558Z" fill="currentColor"/>
<path d="M1013.2 80.8997L1000.88 80.8997L1010.6 97.4957C1013 101.58 1017.37 104.088 1022.11 104.088L1034.43 104.088L1024.7 87.4917C1022.31 83.4077 1017.93 80.8997 1013.2 80.8997Z" fill="currentColor"/>
<path d="M992.268 62.3558L978.779 62.3558L994.492 74.2104C996.805 75.9557 999.625 76.8997 1002.52 76.8997L1016.01 76.8997L1000.3 65.0451C997.985 63.2998 995.165 62.3558 992.268 62.3558Z" fill="currentColor"/>
<path d="M988.601 80.8997L976.283 80.8997L986.008 97.4957C988.401 101.58 992.779 104.088 997.512 104.088L1009.83 104.088L1000.11 87.4917C997.712 83.4077 993.335 80.8997 988.601 80.8997" fill="currentColor"/>
<path d="M967.673 62.3558L954.183 62.3558L969.897 74.2104C972.211 75.9557 975.029 76.8997 977.927 76.8997L991.417 76.8997L975.703 65.0451C973.389 63.2998 970.571 62.3558 967.673 62.3558Z" fill="currentColor"/>
<path d="M964.007 80.8997L951.688 80.8997L961.413 97.4957C963.805 101.58 968.184 104.088 972.917 104.088L985.236 104.088L975.511 87.4917C973.117 83.4077 968.739 80.8997 964.007 80.8997Z" fill="currentColor"/>
<path d="M943.077 62.3558L929.588 62.3558L945.303 74.2104C947.616 75.9557 950.435 76.8997 953.332 76.8997L966.821 76.8997L951.108 65.0451C948.795 63.2998 945.976 62.3558 943.077 62.3558Z" fill="currentColor"/>
<path d="M939.412 80.8997L927.092 80.8997L936.819 97.4957C939.211 101.58 943.589 104.088 948.321 104.088L960.641 104.088L950.915 87.4917C948.523 83.4077 944.144 80.8997 939.412 80.8997Z" fill="currentColor"/>
<path d="M918.483 62.3558L904.993 62.3558L920.708 74.2104C923.02 75.9557 925.839 76.8997 928.737 76.8997L942.227 76.8997L926.512 65.0451C924.199 63.2998 921.38 62.3558 918.483 62.3558Z" fill="currentColor"/>
<path d="M914.816 80.8997L902.497 80.8997L912.223 97.4957C914.616 101.58 918.993 104.088 923.727 104.088L936.045 104.088L926.32 87.4917C923.927 83.4077 919.549 80.8997 914.816 80.8997Z" fill="currentColor"/>
<path d="M893.888 62.3558L880.397 62.3558L896.112 74.2104C898.425 75.9557 901.244 76.8997 904.141 76.8997L917.631 76.8997L901.917 65.0451C899.604 63.2998 896.785 62.3558 893.888 62.3558" fill="currentColor"/>
<path d="M890.221 80.8997L877.903 80.8997L887.628 97.4957C890.021 101.58 894.399 104.088 899.132 104.088L911.451 104.088L901.725 87.4917C899.332 83.4077 894.953 80.8997 890.221 80.8997Z" fill="currentColor"/>
<path d="M869.292 62.3558L855.803 62.3558L871.517 74.2104C873.831 75.9557 876.649 76.8997 879.547 76.8997L893.036 76.8997L877.323 65.0451C875.009 63.2998 872.191 62.3558 869.292 62.3558Z" fill="currentColor"/>
<path d="M865.627 80.8997L853.307 80.8997L863.032 97.4957C865.425 101.58 869.804 104.088 874.536 104.088L886.856 104.088L877.129 87.4917C874.737 83.4077 870.359 80.8997 865.627 80.8997" fill="currentColor"/>
<path d="M844.697 62.3558L831.208 62.3558L846.921 74.2104C849.235 75.9557 852.053 76.8997 854.952 76.8997L868.441 76.8997L852.727 65.0451C850.413 63.2998 847.595 62.3558 844.697 62.3558Z" fill="currentColor"/>
<path d="M841.031 80.8997L828.712 80.8997L838.437 97.4957C840.831 101.58 845.208 104.088 849.941 104.088L862.26 104.088L852.535 87.4917C850.141 83.4077 845.764 80.8997 841.031 80.8997Z" fill="currentColor"/>
<path d="M820.103 62.3558L806.612 62.3558L822.327 74.2104C824.64 75.9557 827.459 76.8997 830.356 76.8997L843.845 76.8997L828.132 65.0451C825.819 63.2998 823 62.3558 820.103 62.3558" fill="currentColor"/>
<path d="M816.436 80.8997L804.117 80.8997L813.843 97.4957C816.235 101.58 820.613 104.088 825.347 104.088L837.665 104.088L827.94 87.4917C825.547 83.4077 821.168 80.8997 816.436 80.8997Z" fill="currentColor"/>
<path d="M795.507 62.3558L782.017 62.3558L797.732 74.2104C800.045 75.9557 802.864 76.8997 805.761 76.8997L819.251 76.8997L803.537 65.0451C801.224 63.2998 798.404 62.3558 795.507 62.3558Z" fill="currentColor"/>
<path d="M791.841 80.8997L779.521 80.8997L789.247 97.4957C791.64 101.58 796.019 104.088 800.751 104.088L813.071 104.088L803.344 87.4917C800.952 83.4077 796.573 80.8997 791.841 80.8997" fill="currentColor"/>
<path d="M770.912 62.3558L757.423 62.3558L773.136 74.2104C775.449 75.9557 778.268 76.8997 781.167 76.8997L794.656 76.8997L778.941 65.0451C776.628 63.2998 773.809 62.3558 770.912 62.3558Z" fill="currentColor"/>
<path d="M767.245 80.8997L754.927 80.8997L764.652 97.4957C767.045 101.58 771.423 104.088 776.156 104.088L788.475 104.088L778.749 87.4917C776.356 83.4077 771.979 80.8997 767.245 80.8997Z" fill="currentColor"/>
<path d="M746.317 62.3558L732.827 62.3558L748.541 74.2104C750.855 75.9557 753.673 76.8997 756.571 76.8997L770.06 76.8997L754.347 65.0451C752.033 63.2998 749.215 62.3558 746.317 62.3558" fill="currentColor"/>
<path d="M742.651 80.8997L730.332 80.8997L740.057 97.4957C742.449 101.58 746.828 104.088 751.561 104.088L763.88 104.088L754.155 87.4917C751.761 83.4077 747.383 80.8997 742.651 80.8997Z" fill="currentColor"/>
<path d="M721.721 62.3558L708.232 62.3558L723.947 74.2104C726.26 75.9557 729.079 76.8997 731.976 76.8997L745.465 76.8997L729.752 65.0451C727.439 63.2998 724.62 62.3558 721.721 62.3558Z" fill="currentColor"/>
<path d="M718.055 80.8997L705.736 80.8997L715.461 97.4957C717.855 101.58 722.233 104.088 726.965 104.088L739.285 104.088L729.559 87.4917C727.167 83.4077 722.788 80.8997 718.055 80.8997" fill="currentColor"/>
<path d="M697.127 62.3557L683.636 62.3557L699.351 74.2103C701.664 75.9557 704.483 76.8997 707.38 76.8997L720.871 76.8997L705.156 65.045C702.843 63.2997 700.024 62.3557 697.127 62.3557Z" fill="currentColor"/>
<path d="M693.46 80.8997L681.141 80.8997L690.867 97.4957C693.26 101.58 697.637 104.088 702.371 104.088L714.689 104.088L704.964 87.4917C702.571 83.4077 698.193 80.8997 693.46 80.8997Z" fill="currentColor"/>
<path d="M672.532 62.3557L659.041 62.3557L674.756 74.2103C677.069 75.9557 679.888 76.8997 682.785 76.8997L696.275 76.8997L680.561 65.045C678.248 63.2997 675.429 62.3557 672.532 62.3557Z" fill="currentColor"/>
<path d="M668.865 80.8997L656.545 80.8997L666.272 97.4957C668.664 101.58 673.043 104.088 677.775 104.088L690.095 104.088L680.369 87.4917C677.976 83.4077 673.597 80.8997 668.865 80.8997" fill="currentColor"/>
<path d="M647.936 62.3557L634.447 62.3557L650.161 74.2103C652.473 75.9557 655.293 76.8997 658.191 76.8997L671.68 76.8997L655.967 65.045C653.653 63.2997 650.833 62.3557 647.936 62.3557Z" fill="currentColor"/>
<path d="M644.269 80.8997L631.951 80.8997L641.676 97.4957C644.069 101.58 648.447 104.088 653.18 104.088L665.5 104.088L655.773 87.4917C653.381 83.4077 649.003 80.8997 644.269 80.8997" fill="currentColor"/>
<path d="M623.341 62.3557L609.851 62.3557L625.565 74.2103C627.879 75.9557 630.697 76.8997 633.595 76.8997L647.085 76.8997L631.371 65.045C629.057 63.2997 626.239 62.3557 623.341 62.3557Z" fill="currentColor"/>
<path d="M619.675 80.8997L607.356 80.8997L617.081 97.4957C619.473 101.58 623.852 104.088 628.585 104.088L640.904 104.088L631.179 87.4917C628.785 83.4077 624.408 80.8997 619.675 80.8997Z" fill="currentColor"/>
<path d="M598.747 62.3557L585.256 62.3557L600.971 74.2103C603.284 75.9557 606.103 76.8997 609 76.8997L622.489 76.8997L606.776 65.045C604.463 63.2997 601.644 62.3557 598.747 62.3557" fill="currentColor"/>
<path d="M595.08 80.8997L582.76 80.8997L592.487 97.4957C594.879 101.58 599.257 104.088 603.989 104.088L616.309 104.088L606.583 87.4917C604.191 83.4077 599.812 80.8997 595.08 80.8997Z" fill="currentColor"/>
<path d="M574.151 62.3557L560.661 62.3557L576.376 74.2103C578.689 75.9557 581.508 76.8997 584.405 76.8997L597.895 76.8997L582.181 65.045C579.868 63.2997 577.049 62.3557 574.151 62.3557Z" fill="currentColor"/>
<path d="M570.484 80.8997L558.165 80.8997L567.891 97.4957C570.284 101.58 574.661 104.088 579.395 104.088L591.713 104.088L581.988 87.4917C579.595 83.4077 575.217 80.8997 570.484 80.8997Z" fill="currentColor"/>
<path d="M549.556 62.3557L536.065 62.3557L551.78 74.2103C554.093 75.9557 556.912 76.8997 559.809 76.8997L573.3 76.8997L557.585 65.045C555.272 63.2997 552.453 62.3557 549.556 62.3557Z" fill="currentColor"/>
<path d="M545.889 80.8997L533.571 80.8997L543.296 97.4957C545.689 101.58 550.067 104.088 554.8 104.088L567.119 104.088L557.393 87.4917C555 83.4077 550.623 80.8997 545.889 80.8997Z" fill="currentColor"/>
<path d="M524.96 62.3557L511.471 62.3557L527.185 74.2103C529.499 75.9557 532.317 76.8997 535.215 76.8997L548.704 76.8997L532.991 65.045C530.677 63.2997 527.859 62.3557 524.96 62.3557Z" fill="currentColor"/>
<path d="M521.295 80.8997L508.975 80.8997L518.701 97.4957C521.093 101.58 525.472 104.088 530.204 104.088L542.524 104.088L532.797 87.4917C530.405 83.4077 526.027 80.8997 521.295 80.8997Z" fill="currentColor"/>
<path d="M500.365 62.3557L486.876 62.3557L502.589 74.2103C504.903 75.9557 507.723 76.8997 510.62 76.8997L524.109 76.8997L508.395 65.045C506.083 63.2997 503.263 62.3557 500.365 62.3557Z" fill="currentColor"/>
<path d="M496.699 80.8997L484.38 80.8997L494.105 97.4957C496.499 101.58 500.876 104.088 505.609 104.088L517.928 104.088L508.203 87.4917C505.809 83.4077 501.432 80.8997 496.699 80.8997Z" fill="currentColor"/>
<path d="M475.771 62.3557L462.28 62.3557L477.995 74.2103C480.308 75.9557 483.127 76.8997 486.024 76.8997L499.515 76.8997L483.8 65.045C481.487 63.2997 478.668 62.3557 475.771 62.3557Z" fill="currentColor"/>
<path d="M472.104 80.8997L459.785 80.8997L469.511 97.4957C471.903 101.58 476.281 104.088 481.015 104.088L493.333 104.088L483.608 87.4917C481.215 83.4077 476.836 80.8997 472.104 80.8997Z" fill="currentColor"/>
<path d="M451.175 62.3557L437.685 62.3557L453.4 74.2103C455.713 75.9557 458.532 76.8997 461.429 76.8997L474.919 76.8997L459.205 65.045C456.892 63.2997 454.073 62.3557 451.175 62.3557Z" fill="currentColor"/>
<path d="M447.509 80.8997L435.189 80.8997L444.916 97.4957C447.308 101.58 451.687 104.088 456.419 104.088L468.739 104.088L459.012 87.4917C456.62 83.4077 452.241 80.8997 447.509 80.8997Z" fill="currentColor"/>
<path d="M426.58 62.3557L413.091 62.3557L428.805 74.2103C431.117 75.9557 433.936 76.8997 436.835 76.8997L450.324 76.8997L434.609 65.045C432.296 63.2997 429.477 62.3557 426.58 62.3557" fill="currentColor"/>
<path d="M422.913 80.8997L410.595 80.8997L420.32 97.4957C422.713 101.58 427.091 104.088 431.824 104.088L444.143 104.088L434.417 87.4917C432.024 83.4077 427.647 80.8997 422.913 80.8997" fill="currentColor"/>
<path d="M401.985 62.3557L388.495 62.3557L404.209 74.2103C406.523 75.9557 409.341 76.8997 412.239 76.8997L425.728 76.8997L410.015 65.045C407.701 63.2997 404.883 62.3557 401.985 62.3557" fill="currentColor"/>
<path d="M398.319 80.8997L386 80.8997L395.725 97.4957C398.119 101.58 402.496 104.088 407.229 104.088L419.548 104.088L409.823 87.4917C407.429 83.4077 403.051 80.8997 398.319 80.8997Z" fill="currentColor"/>
<path d="M377.389 62.3557L363.9 62.3557L379.615 74.2103C381.928 75.9557 384.747 76.8997 387.644 76.8997L401.133 76.8997L385.42 65.045C383.107 63.2997 380.288 62.3557 377.389 62.3557Z" fill="currentColor"/>
<path d="M373.724 80.8997L361.404 80.8997L371.129 97.4957C373.523 101.58 377.901 104.088 382.633 104.088L394.953 104.088L385.227 87.4917C382.835 83.4077 378.456 80.8997 373.724 80.8997" fill="currentColor"/>
<path d="M352.795 62.3557L339.305 62.3557L355.019 74.2103C357.332 75.9557 360.151 76.8997 363.049 76.8997L376.539 76.8997L360.824 65.045C358.511 63.2997 355.692 62.3557 352.795 62.3557Z" fill="currentColor"/>
<path d="M349.128 80.8997L336.809 80.8997L346.535 97.4957C348.928 101.58 353.305 104.088 358.039 104.088L370.357 104.088L360.632 87.4917C358.239 83.4077 353.861 80.8997 349.128 80.8997Z" fill="currentColor"/>
<path d="M328.2 62.3557L314.709 62.3557L330.424 74.2103C332.737 75.9557 335.556 76.8997 338.453 76.8997L351.943 76.8997L336.229 65.045C333.916 63.2997 331.097 62.3557 328.2 62.3557" fill="currentColor"/>
<path d="M324.533 80.8997L312.215 80.8997L321.94 97.4957C324.332 101.58 328.711 104.088 333.444 104.088L345.763 104.088L336.037 87.4917C333.644 83.4077 329.265 80.8997 324.533 80.8997Z" fill="currentColor"/>
<path d="M303.604 62.3557L290.115 62.3557L305.829 74.2103C308.143 75.9557 310.961 76.8997 313.859 76.8997L327.348 76.8997L311.635 65.045C309.321 63.2997 306.501 62.3557 303.604 62.3557Z" fill="currentColor"/>
<path d="M299.937 80.8997L287.619 80.8997L297.344 97.4957C299.737 101.58 304.116 104.088 308.848 104.088L321.168 104.088L311.441 87.4917C309.049 83.4077 304.671 80.8997 299.937 80.8997" fill="currentColor"/>
<path d="M279.009 62.3557L265.519 62.3557L281.233 74.2103C283.547 75.9557 286.365 76.8997 289.263 76.8997L302.753 76.8997L287.039 65.045C284.725 63.2997 281.907 62.3557 279.009 62.3557Z" fill="currentColor"/>
<path d="M275.343 80.8997L263.024 80.8997L272.749 97.4957C275.143 101.58 279.52 104.088 284.253 104.088L296.572 104.088L286.847 87.4917C284.453 83.4077 280.076 80.8997 275.343 80.8997Z" fill="currentColor"/>
<path d="M254.415 62.3557L240.924 62.3557L256.639 74.2103C258.952 75.9557 261.771 76.8997 264.668 76.8997L278.157 76.8997L262.444 65.045C260.131 63.2997 257.312 62.3557 254.415 62.3557" fill="currentColor"/>
<path d="M250.748 80.8997L238.428 80.8997L248.155 97.4957C250.547 101.58 254.925 104.088 259.657 104.088L271.977 104.088L262.252 87.4917C259.859 83.4077 255.48 80.8997 250.748 80.8997" fill="currentColor"/>
<path d="M229.819 62.3557L216.329 62.3557L232.043 74.2103C234.356 75.9557 237.176 76.8997 240.073 76.8997L253.563 76.8997L237.849 65.045C235.536 63.2997 232.716 62.3557 229.819 62.3557Z" fill="currentColor"/>
<path d="M226.152 80.8997L213.833 80.8997L223.559 97.4957C225.952 101.58 230.329 104.088 235.063 104.088L247.383 104.088L237.656 87.4917C235.264 83.4077 230.885 80.8997 226.152 80.8997" fill="currentColor"/>
<path d="M205.224 62.3557L191.733 62.3557L207.448 74.2103C209.761 75.9557 212.58 76.8997 215.477 76.8997L228.968 76.8997L213.253 65.045C210.94 63.2997 208.121 62.3557 205.224 62.3557Z" fill="currentColor"/>
<path d="M201.557 80.8997L189.239 80.8997L198.964 97.4957C201.356 101.58 205.735 104.088 210.468 104.088L222.787 104.088L213.061 87.4917C210.668 83.4077 206.291 80.8997 201.557 80.8997Z" fill="currentColor"/>
<path d="M180.629 62.3557L167.139 62.3557L182.853 74.2103C185.167 75.9557 187.985 76.8997 190.883 76.8997L204.372 76.8997L188.659 65.045C186.345 63.2997 183.527 62.3557 180.629 62.3557Z" fill="currentColor"/>
<path d="M176.963 80.8997L164.643 80.8997L174.369 97.4957C176.761 101.58 181.14 104.088 185.872 104.088L198.192 104.088L188.465 87.4917C186.073 83.4077 181.695 80.8997 176.963 80.8997Z" fill="currentColor"/>
<path d="M156.033 62.3557L142.544 62.3557L158.259 74.2103C160.571 75.9557 163.391 76.8997 166.288 76.8997L179.777 76.8997L164.064 65.045C161.751 63.2997 158.932 62.3557 156.033 62.3557Z" fill="currentColor"/>
<path d="M152.367 80.8997L140.048 80.8997L149.773 97.4957C152.167 101.58 156.544 104.088 161.277 104.088L173.596 104.088L163.871 87.4917C161.477 83.4077 157.1 80.8997 152.367 80.8997" fill="currentColor"/>
<path d="M131.439 62.3557L117.948 62.3557L133.663 74.2103C135.976 75.9557 138.795 76.8997 141.692 76.8997L155.183 76.8997L139.468 65.045C137.155 63.2997 134.336 62.3557 131.439 62.3557" fill="currentColor"/>
<path d="M127.772 80.8997L115.453 80.8997L125.179 97.4957C127.572 101.58 131.949 104.088 136.683 104.088L149.001 104.088L139.276 87.4917C136.883 83.4077 132.505 80.8997 127.772 80.8997Z" fill="currentColor"/>
<path d="M106.843 62.3557L93.3533 62.3557L109.068 74.2103C111.381 75.9557 114.2 76.8997 117.097 76.8997L130.587 76.8997L114.873 65.045C112.56 63.2997 109.741 62.3557 106.843 62.3557Z" fill="currentColor"/>
<path d="M103.177 80.8997L90.8573 80.8997L100.583 97.4957C102.976 101.58 107.355 104.088 112.087 104.088L124.407 104.088L114.68 87.4917C112.288 83.4077 107.909 80.8997 103.177 80.8997Z" fill="currentColor"/>
<path d="M82.248 62.3557L68.7586 62.3557L84.472 74.2103C86.7853 75.9557 89.6053 76.8997 92.5026 76.8997L105.992 76.8997L90.2773 65.045C87.9653 63.2997 85.1453 62.3557 82.248 62.3557Z" fill="currentColor"/>
<path d="M78.5813 80.8997L66.2626 80.8997L75.988 97.4957C78.3813 101.58 82.7586 104.088 87.492 104.088L99.8106 104.088L90.0853 87.4917C87.692 83.4077 83.3146 80.8997 78.5813 80.8997Z" fill="currentColor"/>
<path d="M57.6533 62.3557L44.1626 62.3557L59.8773 74.2103C62.1906 75.9557 65.0093 76.8997 67.9066 76.8997L81.3973 76.8997L65.6826 65.045C63.3693 63.2997 60.5506 62.3557 57.6533 62.3557Z" fill="currentColor"/>
<path d="M53.9866 80.8997L41.668 80.8997L51.3933 97.4957C53.7853 101.58 58.164 104.088 62.8973 104.088L75.216 104.088L65.4906 87.4917C63.0973 83.4077 58.7186 80.8997 53.9866 80.8997Z" fill="currentColor"/>
<path d="M33.0573 62.3557L19.5681 62.3557L35.2826 74.2103C37.596 75.9557 40.4146 76.8997 43.312 76.8997L56.8013 76.8997L41.0879 65.045C38.7746 63.2997 35.956 62.3557 33.0573 62.3557" fill="currentColor"/>
<path d="M29.392 80.8997L17.0722 80.8997L26.7988 97.4957C29.1906 101.58 33.5693 104.088 38.3013 104.088L50.6213 104.088L40.8946 87.4917C38.5026 83.4077 34.124 80.8997 29.392 80.8997Z" fill="currentColor"/>
<path d="M8.4629 62.3557L0.789431 62.3557L0.78943 66.7437L10.6878 74.2103C12.9998 75.9557 15.8186 76.8997 18.7176 76.8997L32.2066 76.8997L16.4936 65.045C14.1785 63.2997 11.3602 62.3557 8.4629 62.3557" fill="currentColor"/>
<path d="M4.79623 80.8997L0.78943 80.8997L0.789429 95.0837L2.20303 97.4957C4.59623 101.58 8.9733 104.088 13.7066 104.088L26.0253 104.088L16.2998 87.4917C13.9066 83.4077 9.52957 80.8997 4.79623 80.8997" fill="currentColor"/>
<path d="M0.78943 76.8997L7.61076 76.8997L0.78943 71.7531L0.78943 76.8997Z" fill="currentColor"/>
<path d="M0.789429 104.088L1.43063 104.088L0.789429 102.993L0.789429 104.088Z" fill="currentColor"/>
</svg>
