<?xml version="1.0" encoding="UTF-8" standalone="no"?>
<!-- Created with Inkscape (http://www.inkscape.org/) -->

<svg
   xmlns:dc="http://purl.org/dc/elements/1.1/"
   xmlns:cc="http://creativecommons.org/ns#"
   xmlns:rdf="http://www.w3.org/1999/02/22-rdf-syntax-ns#"
   xmlns:svg="http://www.w3.org/2000/svg"
   xmlns="http://www.w3.org/2000/svg"
   xmlns:sodipodi="http://sodipodi.sourceforge.net/DTD/sodipodi-0.dtd"
   xmlns:inkscape="http://www.inkscape.org/namespaces/inkscape"
   width="32"
   height="32"
   viewBox="0 0 8.4666665 8.4666669"
   version="1.1"
   id="svg8"
   inkscape:version="0.91 r13725"
   sodipodi:docname="abs-brake-lgiht-engage-enable-car-indicator.svg">
  <defs
     id="defs2">
    <inkscape:path-effect
       effect="fillet-chamfer"
       id="path-effect6194-9"
       is_visible="true"
       fillet_chamfer_values="-2.083553,1 | -1.5194253,1 | 0,1"
       method="auto"
       radius="2"
       chamfer_steps="1"
       helper_size="0"
       flexible="false"
       use_knot_distance="false"
       ignore_radius_0="false"
       only_selected="true"
       hide_knots="false" />
    <inkscape:path-effect
       effect="fillet-chamfer"
       id="path-effect6200-3"
       is_visible="true"
       fillet_chamfer_values="0,0 | -2.1346047,1 | -1.3969861,1 | -0.057274208,1 | -0.16666667,1"
       method="auto"
       radius="0.5"
       chamfer_steps="1"
       helper_size="0"
       flexible="false"
       use_knot_distance="false"
       ignore_radius_0="false"
       only_selected="true"
       hide_knots="false" />
    <pattern
       y="0"
       x="0"
       height="6"
       width="6"
       patternUnits="userSpaceOnUse"
       id="EMFhbasepattern" />
    <pattern
       y="0"
       x="0"
       height="6"
       width="6"
       patternUnits="userSpaceOnUse"
       id="EMFhbasepattern-6" />
    <inkscape:path-effect
       effect="fillet-chamfer"
       id="path-effect6795-9"
       is_visible="true"
       fillet_chamfer_values="0,0 | -2,1 | -2,1 | -2,1"
       method="auto"
       radius="2"
       chamfer_steps="1"
       helper_size="0"
       flexible="false"
       use_knot_distance="false"
       ignore_radius_0="false"
       only_selected="true"
       hide_knots="false" />
    <pattern
       y="0"
       x="0"
       height="6"
       width="6"
       patternUnits="userSpaceOnUse"
       id="EMFhbasepattern-4" />
    <pattern
       y="0"
       x="0"
       height="6"
       width="6"
       patternUnits="userSpaceOnUse"
       id="EMFhbasepattern-3" />
    <pattern
       y="0"
       x="0"
       height="6"
       width="6"
       patternUnits="userSpaceOnUse"
       id="EMFhbasepattern-0" />
    <inkscape:path-effect
       effect="fillet-chamfer"
       id="path-effect5842-1-6-2-7"
       is_visible="true"
       fillet_chamfer_values="0,0 | -0.49999733,1 | -0.50000267,1"
       method="auto"
       radius="0.5"
       chamfer_steps="1"
       helper_size="0"
       flexible="false"
       use_knot_distance="false"
       ignore_radius_0="false"
       only_selected="true"
       hide_knots="false" />
    <inkscape:path-effect
       effect="fillet-chamfer"
       id="path-effect9698-1"
       is_visible="true"
       fillet_chamfer_values="0,0 | -0.71730365,1"
       method="auto"
       radius="1"
       chamfer_steps="1"
       helper_size="0"
       flexible="false"
       use_knot_distance="false"
       ignore_radius_0="false"
       only_selected="true"
       hide_knots="false" />
  </defs>
  <sodipodi:namedview
     id="base"
     pagecolor="#ffffff"
     bordercolor="#666666"
     borderopacity="1.0"
     inkscape:pageopacity="0.0"
     inkscape:pageshadow="2"
     inkscape:zoom="11.313708"
     inkscape:cx="-13.435824"
     inkscape:cy="19.616211"
     inkscape:document-units="mm"
     inkscape:current-layer="layer1"
     showgrid="true"
     units="px"
     inkscape:window-width="1366"
     inkscape:window-height="716"
     inkscape:window-x="-8"
     inkscape:window-y="-8"
     inkscape:window-maximized="1">
    <inkscape:grid
       type="xygrid"
       id="grid4726" />
  </sodipodi:namedview>
  <metadata
     id="metadata5">
    <rdf:RDF>
      <cc:Work
         rdf:about="">
        <dc:format>image/svg+xml</dc:format>
        <dc:type
           rdf:resource="http://purl.org/dc/dcmitype/StillImage" />
        <dc:title />
      </cc:Work>
    </rdf:RDF>
  </metadata>
  <g
     inkscape:label="Layer 1"
     inkscape:groupmode="layer"
     id="layer1"
     transform="translate(0,-288.53332)">
    <path
       inkscape:connector-curvature="0"
       id="path34891-1"
       d="m 4.2333343,290.12014 a 2.6458334,2.6458336 0 0 0 -2.6458334,2.64584 2.6458334,2.6458336 0 0 0 2.6458334,2.64583 2.6458334,2.6458336 0 0 0 2.6458334,-2.64583 2.6458334,2.6458336 0 0 0 -2.6458334,-2.64584 z m -1.7197917,1.587 0.79375,0 a 0.1323049,0.13230491 0 0 1 0.1322917,0.13229 l 0,1.85052 a 0.1323049,0.13230491 0 1 1 -0.2645834,0 l 0,-0.79219 -0.5291666,0 0,0.79219 a 0.1323049,0.13230491 0 1 1 -0.2645834,0 l 0,-1.85052 a 0.1323049,0.13230491 0 0 1 0.1322917,-0.13229 z m 1.3229167,0 0.79375,0 a 0.1323049,0.13230491 0 0 1 0.1322917,0.13229 l 0,0.79322 a 0.1323049,0.13230491 0 0 1 -0.1085056,0.13229 0.1323049,0.13230491 0 0 1 0.1085056,0.13179 l 0,0.79479 a 0.1323049,0.13230491 0 0 1 -0.1322917,0.13229 l -0.79375,0 a 0.1323049,0.13230491 0 0 1 -0.1322917,-0.13229 l 0,-1.85209 a 0.1323049,0.13230491 0 0 1 0.1322917,-0.13229 z m 1.3249804,0 0.7896226,0 a 0.13230489,0.1323049 0 1 1 0,0.26458 l -0.6573309,0 0,0.66146 0.6573309,0 a 0.13230489,0.1323049 0 0 1 0.1322916,0.13229 l 0,0.92605 a 0.13230489,0.1323049 0 0 1 -0.1322916,0.13229 l -0.7896226,0 a 0.13230489,0.1323049 0 1 1 0,-0.26459 l 0.6573309,0 0,-0.66146 -0.6573309,0 a 0.13230489,0.1323049 0 0 1 -0.1322916,-0.13229 l 0,-0.92604 a 0.13230489,0.1323049 0 0 1 0.1322916,-0.13229 z m -2.5156054,0.26458 0,0.66146 0.5291666,0 0,-0.66146 z m 1.3229167,0 0,0.66093 a 0.13230489,0.1323049 0 0 1 0.00265,0 l 0.5271029,0 0,-0.66093 z m 0,0.92552 0,0.66198 0.5291666,0 0,-0.66198 -0.5271029,0 a 0.13230489,0.1323049 0 0 1 -0.00265,0 z"
       style="opacity:1;fill:#3b3c3d;fill-opacity:1;stroke:none;stroke-width:1;stroke-linecap:round;stroke-linejoin:round;stroke-miterlimit:4;stroke-dasharray:none;stroke-opacity:1" />
    <path
       inkscape:connector-curvature="0"
       id="path34893-0"
       d="m 2.0773913,290.12038 a 0.13230489,0.1323049 0 0 0 -0.080613,0.0326 c -0.7626827,0.65309 -1.20208153,1.60732 -1.20302874,2.61173 -0.001058,1.00441 0.43693024,1.95927 1.19837734,2.61379 a 0.13230489,0.1323049 0 1 0 0.1720823,-0.2005 c -0.7030005,-0.60429 -1.1067521,-1.48538 -1.1058763,-2.41277 7.938e-4,-0.9274 0.4063841,-1.80827 1.1105277,-2.41123 a 0.13230489,0.1323049 0 0 0 -0.091469,-0.23357 z"
       style="color:#000000;font-style:normal;font-variant:normal;font-weight:normal;font-stretch:normal;font-size:medium;line-height:normal;font-family:sans-serif;text-indent:0;text-align:start;text-decoration:none;text-decoration-line:none;text-decoration-style:solid;text-decoration-color:#000000;letter-spacing:normal;word-spacing:normal;text-transform:none;direction:ltr;writing-mode:lr-tb;baseline-shift:baseline;text-anchor:start;white-space:normal;clip-rule:nonzero;display:inline;overflow:visible;visibility:visible;opacity:1;isolation:auto;mix-blend-mode:normal;color-interpolation:sRGB;color-interpolation-filters:linearRGB;solid-color:#000000;solid-opacity:1;fill:#3b3c3d;fill-opacity:1;fill-rule:nonzero;stroke:none;stroke-width:0.99999994;stroke-linecap:round;stroke-linejoin:round;stroke-miterlimit:4;stroke-dasharray:none;stroke-dashoffset:0;stroke-opacity:1;color-rendering:auto;image-rendering:auto;shape-rendering:auto;text-rendering:auto;enable-background:accumulate" />
    <path
       inkscape:connector-curvature="0"
       id="path34901-7"
       d="m 6.3892743,290.11831 a 0.13230489,0.1323049 0 0 1 0.080613,0.0326 c 0.7626827,0.65308 1.2020789,1.60731 1.2030287,2.61172 0.00106,1.00441 -0.4369303,1.95927 -1.1983773,2.6138 a 0.13230489,0.1323049 0 1 1 -0.1720824,-0.20051 c 0.7030006,-0.60429 1.1067548,-1.48538 1.1058764,-2.41277 -7.938e-4,-0.9274 -0.4063842,-1.80827 -1.1105278,-2.41122 a 0.13230489,0.1323049 0 0 1 0.091469,-0.23358 z"
       style="color:#000000;font-style:normal;font-variant:normal;font-weight:normal;font-stretch:normal;font-size:medium;line-height:normal;font-family:sans-serif;text-indent:0;text-align:start;text-decoration:none;text-decoration-line:none;text-decoration-style:solid;text-decoration-color:#000000;letter-spacing:normal;word-spacing:normal;text-transform:none;direction:ltr;writing-mode:lr-tb;baseline-shift:baseline;text-anchor:start;white-space:normal;clip-rule:nonzero;display:inline;overflow:visible;visibility:visible;opacity:1;isolation:auto;mix-blend-mode:normal;color-interpolation:sRGB;color-interpolation-filters:linearRGB;solid-color:#000000;solid-opacity:1;fill:#3b3c3d;fill-opacity:1;fill-rule:nonzero;stroke:none;stroke-width:0.99999994;stroke-linecap:round;stroke-linejoin:round;stroke-miterlimit:4;stroke-dasharray:none;stroke-dashoffset:0;stroke-opacity:1;color-rendering:auto;image-rendering:auto;shape-rendering:auto;text-rendering:auto;enable-background:accumulate" />
  </g>
</svg>
