<?xml version="1.0" encoding="UTF-8" standalone="no"?>
<!-- Created with Inkscape (http://www.inkscape.org/) -->

<svg
   xmlns:dc="http://purl.org/dc/elements/1.1/"
   xmlns:cc="http://creativecommons.org/ns#"
   xmlns:rdf="http://www.w3.org/1999/02/22-rdf-syntax-ns#"
   xmlns:svg="http://www.w3.org/2000/svg"
   xmlns="http://www.w3.org/2000/svg"
   xmlns:sodipodi="http://sodipodi.sourceforge.net/DTD/sodipodi-0.dtd"
   xmlns:inkscape="http://www.inkscape.org/namespaces/inkscape"
   width="32"
   height="32"
   viewBox="0 0 8.4666665 8.4666669"
   version="1.1"
   id="svg8"
   inkscape:version="0.91 r13725"
   sodipodi:docname="air-circulation-ac-conditioning-car-recycle-part.svg">
  <defs
     id="defs2">
    <inkscape:path-effect
       effect="fillet-chamfer"
       id="path-effect6194-9"
       is_visible="true"
       fillet_chamfer_values="-2.083553,1 | -1.5194253,1 | 0,1"
       method="auto"
       radius="2"
       chamfer_steps="1"
       helper_size="0"
       flexible="false"
       use_knot_distance="false"
       ignore_radius_0="false"
       only_selected="true"
       hide_knots="false" />
    <inkscape:path-effect
       effect="fillet-chamfer"
       id="path-effect6200-3"
       is_visible="true"
       fillet_chamfer_values="0,0 | -2.1346047,1 | -1.3969861,1 | -0.057274208,1 | -0.16666667,1"
       method="auto"
       radius="0.5"
       chamfer_steps="1"
       helper_size="0"
       flexible="false"
       use_knot_distance="false"
       ignore_radius_0="false"
       only_selected="true"
       hide_knots="false" />
    <pattern
       y="0"
       x="0"
       height="6"
       width="6"
       patternUnits="userSpaceOnUse"
       id="EMFhbasepattern" />
    <pattern
       y="0"
       x="0"
       height="6"
       width="6"
       patternUnits="userSpaceOnUse"
       id="EMFhbasepattern-6" />
    <inkscape:path-effect
       effect="fillet-chamfer"
       id="path-effect6795-9"
       is_visible="true"
       fillet_chamfer_values="0,0 | -2,1 | -2,1 | -2,1"
       method="auto"
       radius="2"
       chamfer_steps="1"
       helper_size="0"
       flexible="false"
       use_knot_distance="false"
       ignore_radius_0="false"
       only_selected="true"
       hide_knots="false" />
    <pattern
       y="0"
       x="0"
       height="6"
       width="6"
       patternUnits="userSpaceOnUse"
       id="EMFhbasepattern-4" />
    <pattern
       y="0"
       x="0"
       height="6"
       width="6"
       patternUnits="userSpaceOnUse"
       id="EMFhbasepattern-3" />
    <pattern
       y="0"
       x="0"
       height="6"
       width="6"
       patternUnits="userSpaceOnUse"
       id="EMFhbasepattern-0" />
    <inkscape:path-effect
       effect="fillet-chamfer"
       id="path-effect5842-1-6-2-7"
       is_visible="true"
       fillet_chamfer_values="0,0 | -0.49999733,1 | -0.50000267,1"
       method="auto"
       radius="0.5"
       chamfer_steps="1"
       helper_size="0"
       flexible="false"
       use_knot_distance="false"
       ignore_radius_0="false"
       only_selected="true"
       hide_knots="false" />
    <inkscape:path-effect
       effect="fillet-chamfer"
       id="path-effect9698-1"
       is_visible="true"
       fillet_chamfer_values="0,0 | -0.71730365,1"
       method="auto"
       radius="1"
       chamfer_steps="1"
       helper_size="0"
       flexible="false"
       use_knot_distance="false"
       ignore_radius_0="false"
       only_selected="true"
       hide_knots="false" />
  </defs>
  <sodipodi:namedview
     id="base"
     pagecolor="#ffffff"
     bordercolor="#666666"
     borderopacity="1.0"
     inkscape:pageopacity="0.0"
     inkscape:pageshadow="2"
     inkscape:zoom="7.9999996"
     inkscape:cx="-27.975498"
     inkscape:cy="20.089676"
     inkscape:document-units="mm"
     inkscape:current-layer="layer1"
     showgrid="true"
     units="px"
     inkscape:window-width="1366"
     inkscape:window-height="716"
     inkscape:window-x="-8"
     inkscape:window-y="-8"
     inkscape:window-maximized="1">
    <inkscape:grid
       type="xygrid"
       id="grid4726" />
  </sodipodi:namedview>
  <metadata
     id="metadata5">
    <rdf:RDF>
      <cc:Work
         rdf:about="">
        <dc:format>image/svg+xml</dc:format>
        <dc:type
           rdf:resource="http://purl.org/dc/dcmitype/StillImage" />
        <dc:title />
      </cc:Work>
    </rdf:RDF>
  </metadata>
  <g
     inkscape:label="Layer 1"
     inkscape:groupmode="layer"
     id="layer1"
     transform="translate(0,-288.53332)">
    <path
       inkscape:connector-curvature="0"
       id="path33583-36-8-4"
       d="m 3.8799048,291.18019 a 1.0582738,1.0582052 0 0 0 -0.5679016,0.16536 l -0.7793038,0.49559 0.1245658,0.0972 c 0.3310996,0.25863 0.7388225,0.39893 1.1590867,0.39893 l 1.1730567,0 c -0.00661,-0.0608 -0.057362,-0.11691 -0.035666,-0.17055 0.050535,-0.12459 0.1827212,-0.22735 0.3353858,-0.22735 0.098266,0 0.192749,0.0393 0.2614877,0.10954 l 0.3937794,0.39377 c 0.1400969,0.14013 0.1400969,0.37458 0,0.5147 l -0.3917156,0.39171 c -0.071464,0.0747 -0.1805517,0.11923 -0.2790561,0.1142 -0.098504,-0.005 -0.1809485,-0.0481 -0.2413264,-0.10851 -0.060378,-0.0604 -0.1034786,-0.14282 -0.1085057,-0.24132 0,-0.0172 0.016933,-0.0311 0.019579,-0.0486 l -1.1270721,0 c -0.582295,0 -1.1481065,-0.19434 -1.6071321,-0.55295 l -0.4160044,-0.32504 -0.86299149,0.216 a 0.52913691,0.52910261 0 0 0 -0.40100251,0.51366 l 0,0.51263 a 0.52913691,0.52910261 0 0 0 0.5291667,0.52867 l 0.396875,0 a 0.66142115,0.66137826 0 0 0 0.6614583,0.66146 0.66142115,0.66137826 0 0 0 0.6614584,-0.66146 l 2.9104167,0 a 0.66142115,0.66137826 0 0 0 0.6614584,0.66146 0.66142115,0.66137826 0 0 0 0.6614583,-0.66146 l 0.1322917,0 a 0.79370538,0.79365393 0 0 0 0.79375,-0.79325 l 0,-0.79375 a 0.26456846,0.26455131 0 0 0 -0.2645833,-0.26458 l -0.1534848,0 a 0.52913691,0.52910261 0 0 1 -0.4020344,-0.185 l -0.4764617,-0.55605 a 0.52913691,0.52910261 0 0 0 -0.4020344,-0.18499 z"
       style="fill:#3b3c3d;fill-rule:evenodd;stroke:none;stroke-width:1.00157475;stroke-linecap:butt;stroke-linejoin:round;stroke-miterlimit:4;stroke-dasharray:none;stroke-opacity:1" />
    <path
       inkscape:connector-curvature="0"
       id="path33587-2-5-7"
       d="m 0.92143976,290.91407 a 0.13230489,0.1323049 0 0 0 -0.0769938,0.2377 l 1.50741069,1.17771 c 0.4182798,0.32679 0.9336881,0.50385 1.4644952,0.50385 l 1.5502996,0 -0.1684602,0.16846 a 0.13230489,0.1323049 0 1 0 0.1870604,0.18706 l 0.395314,-0.39531 a 0.13230489,0.1323049 0 0 0 0,-0.18709 l -0.395314,-0.39584 a 0.13230489,0.1323049 0 0 0 -0.095091,-0.0398 0.13230489,0.1323049 0 0 0 -0.091969,0.22685 l 0.170524,0.17106 -1.5523634,0 c -0.471805,0 -0.9299046,-0.15759 -1.3017236,-0.44805 l -1.5068815,-1.17718 a 0.13230489,0.1323049 0 0 0 -0.086307,-0.0294 z"
       style="color:#000000;font-style:normal;font-variant:normal;font-weight:normal;font-stretch:normal;font-size:medium;line-height:normal;font-family:sans-serif;text-indent:0;text-align:start;text-decoration:none;text-decoration-line:none;text-decoration-style:solid;text-decoration-color:#000000;letter-spacing:normal;word-spacing:normal;text-transform:none;direction:ltr;writing-mode:lr-tb;baseline-shift:baseline;text-anchor:start;white-space:normal;clip-rule:nonzero;display:inline;overflow:visible;visibility:visible;opacity:1;isolation:auto;mix-blend-mode:normal;color-interpolation:sRGB;color-interpolation-filters:linearRGB;solid-color:#000000;solid-opacity:1;fill:#3b3c3d;fill-opacity:1;fill-rule:evenodd;stroke:none;stroke-width:0.99999994px;stroke-linecap:round;stroke-linejoin:round;stroke-miterlimit:4;stroke-dasharray:none;stroke-dashoffset:0;stroke-opacity:1;color-rendering:auto;image-rendering:auto;shape-rendering:auto;text-rendering:auto;enable-background:accumulate" />
  </g>
</svg>
