<?xml version="1.0" encoding="UTF-8" standalone="no"?>
<!-- Created with Inkscape (http://www.inkscape.org/) -->

<svg
   xmlns:dc="http://purl.org/dc/elements/1.1/"
   xmlns:cc="http://creativecommons.org/ns#"
   xmlns:rdf="http://www.w3.org/1999/02/22-rdf-syntax-ns#"
   xmlns:svg="http://www.w3.org/2000/svg"
   xmlns="http://www.w3.org/2000/svg"
   xmlns:sodipodi="http://sodipodi.sourceforge.net/DTD/sodipodi-0.dtd"
   xmlns:inkscape="http://www.inkscape.org/namespaces/inkscape"
   width="32"
   height="32"
   viewBox="0 0 8.4666665 8.4666669"
   version="1.1"
   id="svg8"
   inkscape:version="0.91 r13725"
   sodipodi:docname="air-windshield-car-heat-circulation-circulate.svg">
  <defs
     id="defs2">
    <inkscape:path-effect
       effect="fillet-chamfer"
       id="path-effect6194-9"
       is_visible="true"
       fillet_chamfer_values="-2.083553,1 | -1.5194253,1 | 0,1"
       method="auto"
       radius="2"
       chamfer_steps="1"
       helper_size="0"
       flexible="false"
       use_knot_distance="false"
       ignore_radius_0="false"
       only_selected="true"
       hide_knots="false" />
    <inkscape:path-effect
       effect="fillet-chamfer"
       id="path-effect6200-3"
       is_visible="true"
       fillet_chamfer_values="0,0 | -2.1346047,1 | -1.3969861,1 | -0.057274208,1 | -0.16666667,1"
       method="auto"
       radius="0.5"
       chamfer_steps="1"
       helper_size="0"
       flexible="false"
       use_knot_distance="false"
       ignore_radius_0="false"
       only_selected="true"
       hide_knots="false" />
    <pattern
       y="0"
       x="0"
       height="6"
       width="6"
       patternUnits="userSpaceOnUse"
       id="EMFhbasepattern" />
    <pattern
       y="0"
       x="0"
       height="6"
       width="6"
       patternUnits="userSpaceOnUse"
       id="EMFhbasepattern-6" />
    <inkscape:path-effect
       effect="fillet-chamfer"
       id="path-effect6795-9"
       is_visible="true"
       fillet_chamfer_values="0,0 | -2,1 | -2,1 | -2,1"
       method="auto"
       radius="2"
       chamfer_steps="1"
       helper_size="0"
       flexible="false"
       use_knot_distance="false"
       ignore_radius_0="false"
       only_selected="true"
       hide_knots="false" />
    <pattern
       y="0"
       x="0"
       height="6"
       width="6"
       patternUnits="userSpaceOnUse"
       id="EMFhbasepattern-4" />
    <pattern
       y="0"
       x="0"
       height="6"
       width="6"
       patternUnits="userSpaceOnUse"
       id="EMFhbasepattern-3" />
    <pattern
       y="0"
       x="0"
       height="6"
       width="6"
       patternUnits="userSpaceOnUse"
       id="EMFhbasepattern-0" />
    <inkscape:path-effect
       effect="fillet-chamfer"
       id="path-effect5842-1-6-2-7"
       is_visible="true"
       fillet_chamfer_values="0,0 | -0.49999733,1 | -0.50000267,1"
       method="auto"
       radius="0.5"
       chamfer_steps="1"
       helper_size="0"
       flexible="false"
       use_knot_distance="false"
       ignore_radius_0="false"
       only_selected="true"
       hide_knots="false" />
    <inkscape:path-effect
       effect="fillet-chamfer"
       id="path-effect9698-1"
       is_visible="true"
       fillet_chamfer_values="0,0 | -0.71730365,1"
       method="auto"
       radius="1"
       chamfer_steps="1"
       helper_size="0"
       flexible="false"
       use_knot_distance="false"
       ignore_radius_0="false"
       only_selected="true"
       hide_knots="false" />
  </defs>
  <sodipodi:namedview
     id="base"
     pagecolor="#ffffff"
     bordercolor="#666666"
     borderopacity="1.0"
     inkscape:pageopacity="0.0"
     inkscape:pageshadow="2"
     inkscape:zoom="11.313708"
     inkscape:cx="-13.435824"
     inkscape:cy="19.616211"
     inkscape:document-units="mm"
     inkscape:current-layer="layer1"
     showgrid="true"
     units="px"
     inkscape:window-width="1366"
     inkscape:window-height="716"
     inkscape:window-x="-8"
     inkscape:window-y="-8"
     inkscape:window-maximized="1">
    <inkscape:grid
       type="xygrid"
       id="grid4726" />
  </sodipodi:namedview>
  <metadata
     id="metadata5">
    <rdf:RDF>
      <cc:Work
         rdf:about="">
        <dc:format>image/svg+xml</dc:format>
        <dc:type
           rdf:resource="http://purl.org/dc/dcmitype/StillImage" />
        <dc:title />
      </cc:Work>
    </rdf:RDF>
  </metadata>
  <g
     inkscape:label="Layer 1"
     inkscape:groupmode="layer"
     id="layer1"
     transform="translate(0,-288.53332)">
    <path
       id="path32379-8"
       d="m 4.2333484,290.58254 c -1.146519,0 -2.2930645,0.30883 -3.43958346,0.92657 l 1.45520836,3.44165 c 0.1419754,-0.0566 0.284189,-0.10377 0.4263231,-0.14832 0.00741,-0.0116 0.012965,-0.0241 0.020637,-0.0356 l 0.2098146,-0.30957 c 0.241009,-0.35528 0.2696369,-0.8084 0.075459,-1.19009 l -0.1369483,-0.26924 0,0.23151 a 0.1323049,0.13230491 0 1 1 -0.2645834,0 l 0,-0.52761 a 0.1323049,0.13230491 0 0 1 0.1322917,-0.13229 l 0.5271029,0 a 0.1323049,0.13230491 0 1 1 0,0.26459 l -0.1813983,0 0.159676,0.31316 c 0.2375165,0.4668 0.20193,1.02478 -0.092498,1.4588 l -0.062521,0.0925 c 0.3656541,-0.0864 0.7319698,-0.13536 1.0986558,-0.14108 l 0.06768,-0.10028 c 0.241009,-0.35528 0.2696369,-0.8084 0.075459,-1.19009 l -0.1369483,-0.26924 0,0.23151 a 0.1323049,0.13230491 0 1 1 -0.2645834,0 l 0,-0.52761 a 0.1323049,0.13230491 0 0 1 0.1322917,-0.13229 l 0.5271029,0 a 0.1323049,0.13230491 0 1 1 0,0.26459 l -0.1813983,0 0.159676,0.31316 c 0.2303992,0.45275 0.2017448,0.99049 -0.068712,1.41851 0.3062553,0.0143 0.6128544,0.0565 0.919824,0.12816 l 0.1602052,-0.2367 c 0.241009,-0.35528 0.2696369,-0.8084 0.075459,-1.19009 l -0.1369483,-0.26924 0,0.23151 a 0.1323049,0.13230491 0 1 1 -0.2645834,0 l 0,-0.52761 a 0.1323049,0.13230491 0 0 1 0.1322917,-0.13229 l 0.5271029,0 a 0.1323049,0.13230491 0 1 1 0,0.26459 l -0.1813983,0 0.159676,0.31316 c 0.2375165,0.4668 0.20193,1.02478 -0.092498,1.4588 l -0.1059392,0.15608 c 0.1842559,0.0533 0.3684323,0.11443 0.5529528,0.18862 l 1.4552083,-3.44165 c -1.146519,-0.61774 -2.2930644,-0.92657 -3.4395834,-0.92657 z"
       style="fill:#3b3c3d;fill-rule:evenodd;stroke:none;stroke-width:1px;stroke-linecap:round;stroke-linejoin:round;stroke-opacity:1"
       inkscape:connector-curvature="0" />
  </g>
</svg>
