<?xml version="1.0" encoding="UTF-8" standalone="no"?>
<!-- Created with Inkscape (http://www.inkscape.org/) -->

<svg
   xmlns:dc="http://purl.org/dc/elements/1.1/"
   xmlns:cc="http://creativecommons.org/ns#"
   xmlns:rdf="http://www.w3.org/1999/02/22-rdf-syntax-ns#"
   xmlns:svg="http://www.w3.org/2000/svg"
   xmlns="http://www.w3.org/2000/svg"
   xmlns:sodipodi="http://sodipodi.sourceforge.net/DTD/sodipodi-0.dtd"
   xmlns:inkscape="http://www.inkscape.org/namespaces/inkscape"
   width="32"
   height="32"
   viewBox="0 0 8.4666665 8.4666669"
   version="1.1"
   id="svg8"
   inkscape:version="0.91 r13725"
   sodipodi:docname="alternator-part-car-equipment-auto-automobile-vehicle.svg">
  <defs
     id="defs2">
    <inkscape:path-effect
       effect="fillet-chamfer"
       id="path-effect6194-9"
       is_visible="true"
       fillet_chamfer_values="-2.083553,1 | -1.5194253,1 | 0,1"
       method="auto"
       radius="2"
       chamfer_steps="1"
       helper_size="0"
       flexible="false"
       use_knot_distance="false"
       ignore_radius_0="false"
       only_selected="true"
       hide_knots="false" />
    <inkscape:path-effect
       effect="fillet-chamfer"
       id="path-effect6200-3"
       is_visible="true"
       fillet_chamfer_values="0,0 | -2.1346047,1 | -1.3969861,1 | -0.057274208,1 | -0.16666667,1"
       method="auto"
       radius="0.5"
       chamfer_steps="1"
       helper_size="0"
       flexible="false"
       use_knot_distance="false"
       ignore_radius_0="false"
       only_selected="true"
       hide_knots="false" />
    <pattern
       y="0"
       x="0"
       height="6"
       width="6"
       patternUnits="userSpaceOnUse"
       id="EMFhbasepattern" />
    <pattern
       y="0"
       x="0"
       height="6"
       width="6"
       patternUnits="userSpaceOnUse"
       id="EMFhbasepattern-6" />
    <inkscape:path-effect
       effect="fillet-chamfer"
       id="path-effect6795-9"
       is_visible="true"
       fillet_chamfer_values="0,0 | -2,1 | -2,1 | -2,1"
       method="auto"
       radius="2"
       chamfer_steps="1"
       helper_size="0"
       flexible="false"
       use_knot_distance="false"
       ignore_radius_0="false"
       only_selected="true"
       hide_knots="false" />
    <pattern
       y="0"
       x="0"
       height="6"
       width="6"
       patternUnits="userSpaceOnUse"
       id="EMFhbasepattern-4" />
    <pattern
       y="0"
       x="0"
       height="6"
       width="6"
       patternUnits="userSpaceOnUse"
       id="EMFhbasepattern-3" />
    <pattern
       y="0"
       x="0"
       height="6"
       width="6"
       patternUnits="userSpaceOnUse"
       id="EMFhbasepattern-0" />
    <inkscape:path-effect
       effect="fillet-chamfer"
       id="path-effect5842-1-6-2-7"
       is_visible="true"
       fillet_chamfer_values="0,0 | -0.49999733,1 | -0.50000267,1"
       method="auto"
       radius="0.5"
       chamfer_steps="1"
       helper_size="0"
       flexible="false"
       use_knot_distance="false"
       ignore_radius_0="false"
       only_selected="true"
       hide_knots="false" />
    <inkscape:path-effect
       effect="fillet-chamfer"
       id="path-effect9698-1"
       is_visible="true"
       fillet_chamfer_values="0,0 | -0.71730365,1"
       method="auto"
       radius="1"
       chamfer_steps="1"
       helper_size="0"
       flexible="false"
       use_knot_distance="false"
       ignore_radius_0="false"
       only_selected="true"
       hide_knots="false" />
  </defs>
  <sodipodi:namedview
     id="base"
     pagecolor="#ffffff"
     bordercolor="#666666"
     borderopacity="1.0"
     inkscape:pageopacity="0.0"
     inkscape:pageshadow="2"
     inkscape:zoom="11.313708"
     inkscape:cx="-13.435824"
     inkscape:cy="19.616211"
     inkscape:document-units="mm"
     inkscape:current-layer="layer1"
     showgrid="true"
     units="px"
     inkscape:window-width="1366"
     inkscape:window-height="716"
     inkscape:window-x="-8"
     inkscape:window-y="-8"
     inkscape:window-maximized="1">
    <inkscape:grid
       type="xygrid"
       id="grid4726" />
  </sodipodi:namedview>
  <metadata
     id="metadata5">
    <rdf:RDF>
      <cc:Work
         rdf:about="">
        <dc:format>image/svg+xml</dc:format>
        <dc:type
           rdf:resource="http://purl.org/dc/dcmitype/StillImage" />
        <dc:title />
      </cc:Work>
    </rdf:RDF>
  </metadata>
  <g
     inkscape:label="Layer 1"
     inkscape:groupmode="layer"
     id="layer1"
     transform="translate(0,-288.53332)">
    <path
       style="color:#000000;font-style:normal;font-variant:normal;font-weight:normal;font-stretch:normal;font-size:medium;line-height:normal;font-family:sans-serif;text-indent:0;text-align:start;text-decoration:none;text-decoration-line:none;text-decoration-style:solid;text-decoration-color:#000000;letter-spacing:normal;word-spacing:normal;text-transform:none;direction:ltr;writing-mode:lr-tb;baseline-shift:baseline;text-anchor:start;white-space:normal;clip-rule:nonzero;display:inline;overflow:visible;visibility:visible;opacity:1;isolation:auto;mix-blend-mode:normal;color-interpolation:sRGB;color-interpolation-filters:linearRGB;solid-color:#000000;solid-opacity:1;fill:#3b3c3d;fill-opacity:1;fill-rule:evenodd;stroke:none;stroke-width:1px;stroke-linecap:round;stroke-linejoin:round;stroke-miterlimit:4;stroke-dasharray:none;stroke-dashoffset:0;stroke-opacity:1;color-rendering:auto;image-rendering:auto;shape-rendering:auto;text-rendering:auto;enable-background:accumulate"
       d="M 0.13022129,291.50988 A 0.1323049,0.13230491 0 0 0 -6.6283341e-6,291.64424 l 0,2.24536 a 0.1323049,0.13230491 0 1 0 0.2645833383341,0 l 0,-2.24536 a 0.1323049,0.13230491 0 0 0 -0.13435542,-0.13436 z"
       id="path17290"
       inkscape:connector-curvature="0" />
    <path
       style="color:#000000;font-style:normal;font-variant:normal;font-weight:normal;font-stretch:normal;font-size:medium;line-height:normal;font-family:sans-serif;text-indent:0;text-align:start;text-decoration:none;text-decoration-line:none;text-decoration-style:solid;text-decoration-color:#000000;letter-spacing:normal;word-spacing:normal;text-transform:none;direction:ltr;writing-mode:lr-tb;baseline-shift:baseline;text-anchor:start;white-space:normal;clip-rule:nonzero;display:inline;overflow:visible;visibility:visible;opacity:1;isolation:auto;mix-blend-mode:normal;color-interpolation:sRGB;color-interpolation-filters:linearRGB;solid-color:#000000;solid-opacity:1;fill:#3b3c3d;fill-opacity:1;fill-rule:evenodd;stroke:none;stroke-width:1px;stroke-linecap:round;stroke-linejoin:round;stroke-miterlimit:4;stroke-dasharray:none;stroke-dashoffset:0;stroke-opacity:1;color-rendering:auto;image-rendering:auto;shape-rendering:auto;text-rendering:auto;enable-background:accumulate"
       d="m 0.65938797,291.50988 a 0.1323049,0.13230491 0 0 0 -0.13022792,0.13436 l 0,2.24536 a 0.1323049,0.13230491 0 1 0 0.26458334,0 l 0,-2.24536 a 0.1323049,0.13230491 0 0 0 -0.13435542,-0.13436 z"
       id="path17288"
       inkscape:connector-curvature="0" />
    <path
       style="color:#000000;font-style:normal;font-variant:normal;font-weight:normal;font-stretch:normal;font-size:medium;line-height:normal;font-family:sans-serif;text-indent:0;text-align:start;text-decoration:none;text-decoration-line:none;text-decoration-style:solid;text-decoration-color:#000000;letter-spacing:normal;word-spacing:normal;text-transform:none;direction:ltr;writing-mode:lr-tb;baseline-shift:baseline;text-anchor:start;white-space:normal;clip-rule:nonzero;display:inline;overflow:visible;visibility:visible;opacity:1;isolation:auto;mix-blend-mode:normal;color-interpolation:sRGB;color-interpolation-filters:linearRGB;solid-color:#000000;solid-opacity:1;fill:#3b3c3d;fill-opacity:1;fill-rule:evenodd;stroke:none;stroke-width:1px;stroke-linecap:round;stroke-linejoin:round;stroke-miterlimit:4;stroke-dasharray:none;stroke-dashoffset:0;stroke-opacity:1;color-rendering:auto;image-rendering:auto;shape-rendering:auto;text-rendering:auto;enable-background:accumulate"
       d="m 1.1885547,291.50988 a 0.1323049,0.13230491 0 0 0 -0.130228,0.13436 l 0,2.24536 a 0.1323049,0.13230491 0 1 0 0.2645834,0 l 0,-2.24536 a 0.1323049,0.13230491 0 0 0 -0.1343554,-0.13436 z"
       id="path34553-3-0"
       inkscape:connector-curvature="0" />
    <path
       style="opacity:1;fill:#3b3c3d;fill-opacity:1;stroke:none;stroke-width:1;stroke-linecap:round;stroke-linejoin:round;stroke-miterlimit:4;stroke-dasharray:none;stroke-opacity:1"
       d="m 3.7041866,289.32707 0,0.79375 -0.396875,0 a 0.52916668,0.52916672 0 0 0 -0.5121011,0.39688 l 0.8428303,0 0,0.26458 -0.8598959,0 0,0.26458 0.8598959,0 0,0.26459 -0.8598959,0 0,0.26458 0.8598959,0 0,0.26458 -0.8598959,0 0,0.26459 0.8598959,0 0,0.26458 -0.8598959,0 0,0.26458 0.8598959,0 0,0.26459 -0.8598959,0 0,0.26458 0.8598959,0 0,0.26458 -0.8598959,0 0,0.26459 0.8598959,0 0,0.26458 -0.8598959,0 0,0.26458 0.8598959,0 0,0.26459 -0.8598959,0 0,0.26458 0.8598959,0 0,0.26458 -0.8423276,0 a 0.52916668,0.52916672 0 0 0 0.5115984,0.39688 l 0.396875,0 0,0.79375 0.6614583,0 0,-6.87917 z"
       id="path34509-0-8"
       inkscape:connector-curvature="0" />
    <path
       style="opacity:1;fill:#3b3c3d;fill-opacity:1;stroke:none;stroke-width:1;stroke-linecap:round;stroke-linejoin:round;stroke-miterlimit:4;stroke-dasharray:none;stroke-opacity:1"
       d="m 6.746895,289.32707 0,6.87917 0.6614583,0 0,-0.79375 0.3968751,0 a 0.52916668,0.52916672 0 0 0 0.5115983,-0.39688 l -0.8423275,0 0,-0.26458 0.8598958,0 0,-0.26458 -0.8598958,0 0,-0.26459 0.8598958,0 0,-0.26458 -0.8598958,0 0,-0.26458 0.8598958,0 0,-0.26459 -0.8598958,0 0,-0.26458 0.8598958,0 0,-0.26458 -0.8598958,0 0,-0.26459 0.8598958,0 0,-0.26458 -0.8598958,0 0,-0.26458 0.8598958,0 0,-0.26459 -0.8598958,0 0,-0.26458 0.8598958,0 0,-0.26458 -0.8598958,0 0,-0.26459 0.8598958,0 0,-0.26458 -0.8598958,0 0,-0.26458 0.8428302,0 a 0.52916668,0.52916672 0 0 0 -0.512101,-0.39688 l -0.3968751,0 0,-0.79375 z"
       id="path34531-5-1"
       inkscape:connector-curvature="0" />
    <path
       inkscape:connector-curvature="0"
       id="path34569-9-2"
       d="m 2.5797074,293.29582 -1.0583334,0 0,-1.05833 1.0583334,0 z"
       style="fill:#3b3c3d;fill-rule:evenodd;stroke:none;stroke-width:1px;stroke-linecap:butt;stroke-linejoin:miter;stroke-opacity:1"
       sodipodi:nodetypes="ccccc" />
    <path
       style="fill:#3b3c3d;fill-rule:evenodd;stroke:none;stroke-width:1px;stroke-linecap:butt;stroke-linejoin:miter;stroke-opacity:1"
       d="m 4.5640824,289.85624 0,5.82083 1.9843751,0 0,-5.82083 z m 0.6614584,0.52917 0.6614583,0 c 0.07329,0 0.1322917,0.059 0.1322917,0.13229 l 0,0.26458 c 0,0.0733 -0.059002,0.13229 -0.1322917,0.13229 l -0.6614583,0 c -0.07329,0 -0.1322917,-0.059 -0.1322917,-0.13229 l 0,-0.26458 c 0,-0.0733 0.059002,-0.13229 0.1322917,-0.13229 z m 0,1.05833 0.6614583,0 c 0.07329,0 0.1322917,0.059 0.1322917,0.13229 l 0,0.26458 c 0,0.0733 -0.059002,0.1323 -0.1322917,0.1323 l -0.6614583,0 c -0.07329,0 -0.1322917,-0.059 -0.1322917,-0.1323 l 0,-0.26458 c 0,-0.0733 0.059002,-0.13229 0.1322917,-0.13229 z m 0,1.05833 0.6614583,0 c 0.07329,0 0.1322917,0.059 0.1322917,0.13229 l 0,0.26459 c 0,0.0733 -0.059002,0.13229 -0.1322917,0.13229 l -0.6614583,0 c -0.07329,0 -0.1322917,-0.059 -0.1322917,-0.13229 l 0,-0.26459 c 0,-0.0733 0.059002,-0.13229 0.1322917,-0.13229 z m 0,1.05834 0.6614583,0 c 0.07329,0 0.1322917,0.059 0.1322917,0.13229 l 0,0.26458 c 0,0.0733 -0.059002,0.13229 -0.1322917,0.13229 l -0.6614583,0 c -0.07329,0 -0.1322917,-0.059 -0.1322917,-0.13229 l 0,-0.26458 c 0,-0.0733 0.059002,-0.13229 0.1322917,-0.13229 z m 0,1.05833 0.6614583,0 c 0.07329,0 0.1322917,0.059 0.1322917,0.13229 l 0,0.26458 c 0,0.0733 -0.059002,0.1323 -0.1322917,0.1323 l -0.6614583,0 c -0.07329,0 -0.1322917,-0.059 -0.1322917,-0.1323 l 0,-0.26458 c 0,-0.0733 0.059002,-0.13229 0.1322917,-0.13229 z"
       id="path34571-6-9"
       inkscape:connector-curvature="0" />
    <path
       style="color:#000000;font-style:normal;font-variant:normal;font-weight:normal;font-stretch:normal;font-size:medium;line-height:normal;font-family:sans-serif;text-indent:0;text-align:start;text-decoration:none;text-decoration-line:none;text-decoration-style:solid;text-decoration-color:#000000;letter-spacing:normal;word-spacing:normal;text-transform:none;direction:ltr;writing-mode:lr-tb;baseline-shift:baseline;text-anchor:start;white-space:normal;clip-rule:nonzero;display:inline;overflow:visible;visibility:visible;opacity:1;isolation:auto;mix-blend-mode:normal;color-interpolation:sRGB;color-interpolation-filters:linearRGB;solid-color:#000000;solid-opacity:1;fill:#3b3c3d;fill-opacity:1;fill-rule:evenodd;stroke:none;stroke-width:1px;stroke-linecap:butt;stroke-linejoin:miter;stroke-miterlimit:4;stroke-dasharray:none;stroke-dashoffset:0;stroke-opacity:1;color-rendering:auto;image-rendering:auto;shape-rendering:auto;text-rendering:auto;enable-background:accumulate"
       d="m 7.6067909,289.45913 0,0.26458 0.8598958,0 0,-0.26458 z"
       id="path34585-2-9"
       inkscape:connector-curvature="0" />
  </g>
</svg>
