<?xml version="1.0" encoding="UTF-8" standalone="no"?>
<!-- Created with Inkscape (http://www.inkscape.org/) -->

<svg
   xmlns:dc="http://purl.org/dc/elements/1.1/"
   xmlns:cc="http://creativecommons.org/ns#"
   xmlns:rdf="http://www.w3.org/1999/02/22-rdf-syntax-ns#"
   xmlns:svg="http://www.w3.org/2000/svg"
   xmlns="http://www.w3.org/2000/svg"
   xmlns:sodipodi="http://sodipodi.sourceforge.net/DTD/sodipodi-0.dtd"
   xmlns:inkscape="http://www.inkscape.org/namespaces/inkscape"
   width="32"
   height="32"
   viewBox="0 0 8.4666665 8.4666669"
   version="1.1"
   id="svg8"
   inkscape:version="0.91 r13725"
   sodipodi:docname="baby-child-seat-belt-car-protection-safety.svg">
  <defs
     id="defs2">
    <inkscape:path-effect
       effect="fillet-chamfer"
       id="path-effect6194-9"
       is_visible="true"
       fillet_chamfer_values="-2.083553,1 | -1.5194253,1 | 0,1"
       method="auto"
       radius="2"
       chamfer_steps="1"
       helper_size="0"
       flexible="false"
       use_knot_distance="false"
       ignore_radius_0="false"
       only_selected="true"
       hide_knots="false" />
    <inkscape:path-effect
       effect="fillet-chamfer"
       id="path-effect6200-3"
       is_visible="true"
       fillet_chamfer_values="0,0 | -2.1346047,1 | -1.3969861,1 | -0.057274208,1 | -0.16666667,1"
       method="auto"
       radius="0.5"
       chamfer_steps="1"
       helper_size="0"
       flexible="false"
       use_knot_distance="false"
       ignore_radius_0="false"
       only_selected="true"
       hide_knots="false" />
    <pattern
       y="0"
       x="0"
       height="6"
       width="6"
       patternUnits="userSpaceOnUse"
       id="EMFhbasepattern" />
    <pattern
       y="0"
       x="0"
       height="6"
       width="6"
       patternUnits="userSpaceOnUse"
       id="EMFhbasepattern-6" />
    <inkscape:path-effect
       effect="fillet-chamfer"
       id="path-effect6795-9"
       is_visible="true"
       fillet_chamfer_values="0,0 | -2,1 | -2,1 | -2,1"
       method="auto"
       radius="2"
       chamfer_steps="1"
       helper_size="0"
       flexible="false"
       use_knot_distance="false"
       ignore_radius_0="false"
       only_selected="true"
       hide_knots="false" />
    <pattern
       y="0"
       x="0"
       height="6"
       width="6"
       patternUnits="userSpaceOnUse"
       id="EMFhbasepattern-4" />
    <pattern
       y="0"
       x="0"
       height="6"
       width="6"
       patternUnits="userSpaceOnUse"
       id="EMFhbasepattern-3" />
    <pattern
       y="0"
       x="0"
       height="6"
       width="6"
       patternUnits="userSpaceOnUse"
       id="EMFhbasepattern-0" />
    <inkscape:path-effect
       effect="fillet-chamfer"
       id="path-effect5842-1-6-2-7"
       is_visible="true"
       fillet_chamfer_values="0,0 | -0.49999733,1 | -0.50000267,1"
       method="auto"
       radius="0.5"
       chamfer_steps="1"
       helper_size="0"
       flexible="false"
       use_knot_distance="false"
       ignore_radius_0="false"
       only_selected="true"
       hide_knots="false" />
    <inkscape:path-effect
       effect="fillet-chamfer"
       id="path-effect9698-1"
       is_visible="true"
       fillet_chamfer_values="0,0 | -0.71730365,1"
       method="auto"
       radius="1"
       chamfer_steps="1"
       helper_size="0"
       flexible="false"
       use_knot_distance="false"
       ignore_radius_0="false"
       only_selected="true"
       hide_knots="false" />
  </defs>
  <sodipodi:namedview
     id="base"
     pagecolor="#ffffff"
     bordercolor="#666666"
     borderopacity="1.0"
     inkscape:pageopacity="0.0"
     inkscape:pageshadow="2"
     inkscape:zoom="11.313708"
     inkscape:cx="-13.435824"
     inkscape:cy="19.616211"
     inkscape:document-units="mm"
     inkscape:current-layer="layer1"
     showgrid="true"
     units="px"
     inkscape:window-width="1366"
     inkscape:window-height="716"
     inkscape:window-x="-8"
     inkscape:window-y="-8"
     inkscape:window-maximized="1">
    <inkscape:grid
       type="xygrid"
       id="grid4726" />
  </sodipodi:namedview>
  <metadata
     id="metadata5">
    <rdf:RDF>
      <cc:Work
         rdf:about="">
        <dc:format>image/svg+xml</dc:format>
        <dc:type
           rdf:resource="http://purl.org/dc/dcmitype/StillImage" />
        <dc:title />
      </cc:Work>
    </rdf:RDF>
  </metadata>
  <g
     inkscape:label="Layer 1"
     inkscape:groupmode="layer"
     id="layer1"
     transform="translate(0,-288.53332)">
    <path
       inkscape:connector-curvature="0"
       id="path32937-4"
       d="m 6.1513672,292.67867 0,1.05783 0.3302264,0 0,-1.05783 z m 0.5948098,0 0,1.05783 0.4630208,0 0,-1.05783 z"
       style="opacity:1;fill:#3b3c3d;fill-opacity:1;stroke:none;stroke-width:1.00157475;stroke-linecap:round;stroke-linejoin:round;stroke-miterlimit:4;stroke-dasharray:none;stroke-opacity:1" />
    <path
       sodipodi:nodetypes="ccccc"
       style="fill:#3b3c3d;fill-rule:evenodd;stroke:none;stroke-width:1px;stroke-linecap:butt;stroke-linejoin:miter;stroke-opacity:1"
       d="m 8.4599626,293.47205 -1.0583333,0 0,-0.52917 1.0583333,0 z"
       id="path32943-3"
       inkscape:connector-curvature="0" />
    <path
       inkscape:connector-curvature="0"
       style="opacity:1;fill:#3b3c3d;fill-opacity:1;stroke:none;stroke-width:1.00157475;stroke-linecap:round;stroke-linejoin:round;stroke-miterlimit:4;stroke-dasharray:none;stroke-opacity:1"
       d="m 1.1187804,292.5464 0.661035,0 0,1.32252 -0.661035,0 z"
       id="path32945-8" />
    <path
       sodipodi:nodetypes="ccccc"
       inkscape:connector-curvature="0"
       id="path32947-7"
       d="m 1.972485,292.81059 0.79375,0.13229 0,0.52917 -0.79375,0.13229 z"
       style="fill:#3b3c3d;fill-rule:evenodd;stroke:none;stroke-width:1px;stroke-linecap:butt;stroke-linejoin:miter;stroke-opacity:1" />
    <path
       inkscape:connector-curvature="0"
       id="path32949-2"
       d="m 0.93275182,292.81059 -0.92604169,0 0,0.79375 0.92604169,0 z"
       style="fill:#3b3c3d;fill-rule:evenodd;stroke:none;stroke-width:1px;stroke-linecap:butt;stroke-linejoin:miter;stroke-opacity:1"
       sodipodi:nodetypes="ccccc" />
    <path
       inkscape:connector-curvature="0"
       id="path32953-1"
       d="m 4.4703369,291.36972 a 5.6089345,5.6089349 0 0 0 -0.560705,0.005 l -1.638644,0.0966 A 0.29717641,0.29717643 0 0 0 1.9909,291.768 l 0,0.0501 a 0.35785868,0.3578587 0 0 0 0.3296973,0.35708 l 0.7296679,0.0574 a 0.28628693,0.28628695 0 0 1 0.2635515,0.28525 l 0,0.28887 a 0.83765559,0.83765565 0 0 1 -0.1271323,0.44389 l -0.277495,0.44392 a 0.82027889,0.82027895 0 0 0 -0.021696,0.83302 l 0.1679311,0.30178 0.1648619,-0.22013 a 0.13230488,0.13230489 0 0 1 0.1012825,-0.0543 0.13230488,0.13230489 0 0 1 0.1379802,0.13076 0.13230488,0.13230489 0 0 1 -0.027914,0.0821 l -0.2356379,0.31419 0.016404,0.03 a 0.5289312,0.52893124 0 0 1 0.050641,0.3855 l -0.03773,0.15195 a 0.05866002,0.05866003 0 0 0 0.094059,0.0594 l 0.4821238,-0.40153 a 0.28533533,0.28533535 0 0 0 0.072866,-0.34676 l -0.2118518,-0.42373 a 0.67669205,0.6766921 0 0 1 -0.084243,-0.29972 0.52916668,0.52916672 0 0 1 0.5291667,-0.52917 l 0.2645833,0 a 0.50222577,0.50222581 0 0 1 0.5291667,0.47387 0.79344239,0.79344245 0 0 1 -0.083714,0.35502 l -0.2191015,0.4382 a 0.26447206,0.26447208 0 0 0 0.067178,0.32144 l 0.4769644,0.39738 a 0.06616043,0.06616043 0 0 0 0.1064419,-0.0666 l -0.032544,-0.12972 a 0.5289312,0.52893124 0 0 1 0.05117,-0.3855 l 0.020108,-0.0367 -0.3100388,-0.23254 a 0.13230488,0.13230489 0 0 1 0.076465,-0.23926 0.13230488,0.13230489 0 0 1 0.08218,0.0279 l 0.2811198,0.21085 0.1958446,-0.35192 a 0.74738489,0.74738494 0 0 0 -0.019579,-0.75965 L 5.274829,293.22115 a 0.71689507,0.71689512 0 0 1 -0.1090348,-0.37981 l 0,-0.32351 a 0.28628693,0.28628695 0 0 1 0.2640542,-0.28525 l 0.7291652,-0.0574 a 0.35785868,0.3578587 0 0 0 0.3296973,-0.35708 l 0,-0.0501 a 0.29717641,0.29717643 0 0 0 -0.2795587,-0.29662 l -1.6391997,-0.0966 a 5.6089345,5.6089349 0 0 0 -0.099721,-0.005 z"
       style="fill:#3b3c3d;fill-rule:evenodd;stroke:none;stroke-width:1px;stroke-linecap:butt;stroke-linejoin:round;stroke-opacity:1" />
    <path
       inkscape:connector-curvature="0"
       style="opacity:1;fill:#3b3c3d;fill-opacity:1;stroke:none;stroke-width:1.00157475;stroke-linecap:round;stroke-linejoin:round;stroke-miterlimit:4;stroke-dasharray:none;stroke-opacity:1"
       d="m 4.9012903,290.47247 a 0.66125004,0.66125009 0 0 1 -0.6612467,0.66125 0.66125004,0.66125009 0 0 1 -0.6612467,-0.66125 0.66125004,0.66125009 0 0 1 0.6612467,-0.66125 0.66125004,0.66125009 0 0 1 0.6612467,0.66125 z"
       id="path32961-7" />
  </g>
</svg>
