<?xml version="1.0" encoding="UTF-8" standalone="no"?>
<!-- Created with Inkscape (http://www.inkscape.org/) -->

<svg
   xmlns:dc="http://purl.org/dc/elements/1.1/"
   xmlns:cc="http://creativecommons.org/ns#"
   xmlns:rdf="http://www.w3.org/1999/02/22-rdf-syntax-ns#"
   xmlns:svg="http://www.w3.org/2000/svg"
   xmlns="http://www.w3.org/2000/svg"
   xmlns:sodipodi="http://sodipodi.sourceforge.net/DTD/sodipodi-0.dtd"
   xmlns:inkscape="http://www.inkscape.org/namespaces/inkscape"
   width="32"
   height="32"
   viewBox="0 0 8.4666665 8.4666669"
   version="1.1"
   id="svg8"
   inkscape:version="0.91 r13725"
   sodipodi:docname="baby-on-board-car-safety-child-sticker.svg">
  <defs
     id="defs2">
    <inkscape:path-effect
       effect="fillet-chamfer"
       id="path-effect6194-9"
       is_visible="true"
       fillet_chamfer_values="-2.083553,1 | -1.5194253,1 | 0,1"
       method="auto"
       radius="2"
       chamfer_steps="1"
       helper_size="0"
       flexible="false"
       use_knot_distance="false"
       ignore_radius_0="false"
       only_selected="true"
       hide_knots="false" />
    <inkscape:path-effect
       effect="fillet-chamfer"
       id="path-effect6200-3"
       is_visible="true"
       fillet_chamfer_values="0,0 | -2.1346047,1 | -1.3969861,1 | -0.057274208,1 | -0.16666667,1"
       method="auto"
       radius="0.5"
       chamfer_steps="1"
       helper_size="0"
       flexible="false"
       use_knot_distance="false"
       ignore_radius_0="false"
       only_selected="true"
       hide_knots="false" />
    <pattern
       y="0"
       x="0"
       height="6"
       width="6"
       patternUnits="userSpaceOnUse"
       id="EMFhbasepattern" />
    <pattern
       y="0"
       x="0"
       height="6"
       width="6"
       patternUnits="userSpaceOnUse"
       id="EMFhbasepattern-6" />
    <inkscape:path-effect
       effect="fillet-chamfer"
       id="path-effect6795-9"
       is_visible="true"
       fillet_chamfer_values="0,0 | -2,1 | -2,1 | -2,1"
       method="auto"
       radius="2"
       chamfer_steps="1"
       helper_size="0"
       flexible="false"
       use_knot_distance="false"
       ignore_radius_0="false"
       only_selected="true"
       hide_knots="false" />
    <pattern
       y="0"
       x="0"
       height="6"
       width="6"
       patternUnits="userSpaceOnUse"
       id="EMFhbasepattern-4" />
    <pattern
       y="0"
       x="0"
       height="6"
       width="6"
       patternUnits="userSpaceOnUse"
       id="EMFhbasepattern-3" />
    <pattern
       y="0"
       x="0"
       height="6"
       width="6"
       patternUnits="userSpaceOnUse"
       id="EMFhbasepattern-0" />
    <inkscape:path-effect
       effect="fillet-chamfer"
       id="path-effect5842-1-6-2-7"
       is_visible="true"
       fillet_chamfer_values="0,0 | -0.49999733,1 | -0.50000267,1"
       method="auto"
       radius="0.5"
       chamfer_steps="1"
       helper_size="0"
       flexible="false"
       use_knot_distance="false"
       ignore_radius_0="false"
       only_selected="true"
       hide_knots="false" />
    <inkscape:path-effect
       effect="fillet-chamfer"
       id="path-effect9698-1"
       is_visible="true"
       fillet_chamfer_values="0,0 | -0.71730365,1"
       method="auto"
       radius="1"
       chamfer_steps="1"
       helper_size="0"
       flexible="false"
       use_knot_distance="false"
       ignore_radius_0="false"
       only_selected="true"
       hide_knots="false" />
  </defs>
  <sodipodi:namedview
     id="base"
     pagecolor="#ffffff"
     bordercolor="#666666"
     borderopacity="1.0"
     inkscape:pageopacity="0.0"
     inkscape:pageshadow="2"
     inkscape:zoom="11.313708"
     inkscape:cx="-13.435824"
     inkscape:cy="19.616211"
     inkscape:document-units="mm"
     inkscape:current-layer="layer1"
     showgrid="true"
     units="px"
     inkscape:window-width="1366"
     inkscape:window-height="716"
     inkscape:window-x="-8"
     inkscape:window-y="-8"
     inkscape:window-maximized="1">
    <inkscape:grid
       type="xygrid"
       id="grid4726" />
  </sodipodi:namedview>
  <metadata
     id="metadata5">
    <rdf:RDF>
      <cc:Work
         rdf:about="">
        <dc:format>image/svg+xml</dc:format>
        <dc:type
           rdf:resource="http://purl.org/dc/dcmitype/StillImage" />
        <dc:title />
      </cc:Work>
    </rdf:RDF>
  </metadata>
  <g
     inkscape:label="Layer 1"
     inkscape:groupmode="layer"
     id="layer1"
     transform="translate(0,-288.53332)">
    <path
       inkscape:connector-curvature="0"
       id="path32913-9"
       d="m 4.8932282,293.16325 a 0.13251325,0.13251326 0 0 0 -0.1286746,0.1075 c -0.00714,0.0341 -0.017941,0.0668 -0.031523,0.0982 -0.02716,0.0628 -0.066269,0.12004 -0.1152384,0.16793 -0.097964,0.0959 -0.2332146,0.15555 -0.3844727,0.15555 -0.1512581,0 -0.2864887,-0.0597 -0.3844727,-0.15555 -0.048969,-0.0479 -0.088078,-0.10512 -0.1152384,-0.16793 -0.013568,-0.0314 -0.024387,-0.0641 -0.031522,-0.0982 a 0.13251542,0.13251543 0 0 0 -0.2594158,0.0543 c 0.010837,0.0518 0.02698,0.10181 0.047542,0.14933 0.04111,0.0951 0.1005303,0.18018 0.1736328,0.25167 0.1461604,0.14301 0.3481806,0.23098 0.5694744,0.23098 0.2212938,0 0.4233204,-0.088 0.5694744,-0.23098 0.073103,-0.0715 0.1325229,-0.15658 0.1736328,-0.25167 0.020556,-0.0476 0.036707,-0.0976 0.047542,-0.14933 a 0.13251325,0.13251326 0 0 0 -0.1307412,-0.16177 z"
       style="color:#000000;font-style:normal;font-variant:normal;font-weight:normal;font-stretch:normal;font-size:medium;line-height:normal;font-family:sans-serif;text-indent:0;text-align:start;text-decoration:none;text-decoration-line:none;text-decoration-style:solid;text-decoration-color:#000000;letter-spacing:normal;word-spacing:normal;text-transform:none;direction:ltr;writing-mode:lr-tb;baseline-shift:baseline;text-anchor:start;white-space:normal;clip-rule:nonzero;display:inline;overflow:visible;visibility:visible;opacity:1;isolation:auto;mix-blend-mode:normal;color-interpolation:sRGB;color-interpolation-filters:linearRGB;solid-color:#000000;solid-opacity:1;fill:#3b3c3d;fill-opacity:1;fill-rule:nonzero;stroke:none;stroke-width:1.00157475;stroke-linecap:round;stroke-linejoin:round;stroke-miterlimit:4;stroke-dasharray:none;stroke-dashoffset:0;stroke-opacity:1;color-rendering:auto;image-rendering:auto;shape-rendering:auto;text-rendering:auto;enable-background:accumulate" />
    <path
       id="path32915-4"
       d="m 4.2390128,288.92947 a 0.39687636,0.39687639 0 0 0 -0.2862791,0.11628 l -3.44061533,3.44009 a 0.39687366,0.39687369 0 0 0 0,0.56121 l 3.44061533,3.44061 a 0.39687636,0.39687639 0 0 0 0.5612077,0 l 3.4406153,-3.44061 a 0.39687366,0.39687369 0 0 0 0,-0.56121 l -3.4406153,-3.44009 a 0.39687636,0.39687639 0 0 0 -0.2749286,-0.11628 z m -0.00556,0.3974 a 0.13229167,0.13229168 0 0 1 0.1322917,0.1323 0.13229167,0.13229168 0 0 1 -0.1322917,0.13229 0.13229167,0.13229168 0 0 1 -0.1322917,-0.13229 0.13229167,0.13229168 0 0 1 0.1322917,-0.1323 z m 0,1.18907 a 0.1323049,0.13230491 0 0 1 0.1328208,0.12197 c 0,0 0.030612,0.27779 0.059928,0.36793 0.0037,0.0114 0.018256,0.0377 0.027411,0.0568 a 1.7197917,1.7197918 0 0 1 1.4531181,1.31054 0.33072457,0.3307246 0 0 1 0.047546,-0.004 0.33072457,0.3307246 0 0 1 0.3307291,0.33073 0.33072457,0.3307246 0 0 1 -0.3307291,0.33073 0.33072457,0.3307246 0 0 1 -0.022754,0 1.7197917,1.7197918 0 0 1 -1.697064,1.45624 1.7197917,1.7197918 0 0 1 -1.6985986,-1.45624 0.33072457,0.3307246 0 0 1 -0.021167,0 0.33072457,0.3307246 0 0 1 -0.3307292,-0.33073 0.33072457,0.3307246 0 0 1 0.3307292,-0.33073 0.33072457,0.3307246 0 0 1 0.047546,0.004 1.7197917,1.7197918 0 0 1 1.0273242,-1.19788 c -0.050139,-0.0838 -0.080857,-0.18253 -0.10541,-0.26924 -0.025135,-0.089 -0.040322,-0.16224 -0.040322,-0.16224 a 0.1323049,0.13230491 0 0 1 0.1255977,-0.16177 0.1323049,0.13230491 0 0 1 0.1327944,0.10647 c 0,0 0.014023,0.066 0.036698,0.14573 0.02249,0.0798 0.058393,0.17585 0.079057,0.20929 0.00529,0.009 0.029501,0.0311 0.042386,0.046 a 1.7197917,1.7197918 0 0 1 0.3048794,-0.0413 c -0.045058,-0.16412 -0.062521,-0.386 -0.062521,-0.386 a 0.1323049,0.13230491 0 0 1 0.1307306,-0.14626 z m -3.30625989,2.11823 a 0.13229167,0.13229168 0 0 1 0.13229169,0.13229 0.13229167,0.13229168 0 0 1 -0.13229169,0.13229 0.13229167,0.13229168 0 0 1 -0.13229167,-0.13229 0.13229167,0.13229168 0 0 1 0.13229167,-0.13229 z m 6.61458349,0 a 0.13229167,0.13229168 0 0 1 0.1322917,0.13229 0.13229167,0.13229168 0 0 1 -0.1322917,0.13229 0.13229167,0.13229168 0 0 1 -0.1322917,-0.13229 0.13229167,0.13229168 0 0 1 0.1322917,-0.13229 z m -3.3072917,3.30729 a 0.13229167,0.13229168 0 0 1 0.1322916,0.13229 0.13229167,0.13229168 0 0 1 -0.1322916,0.13229 0.13229167,0.13229168 0 0 1 -0.1322917,-0.13229 0.13229167,0.13229168 0 0 1 0.1322917,-0.13229 z"
       style="fill:#3b3c3d;fill-rule:evenodd;stroke:none;stroke-width:0.99999988px;stroke-linecap:butt;stroke-linejoin:miter;stroke-opacity:1"
       inkscape:connector-curvature="0" />
    <path
       inkscape:connector-curvature="0"
       style="display:inline;opacity:1;fill:#3b3c3d;fill-opacity:1;stroke:none;stroke-width:1;stroke-linecap:round;stroke-linejoin:round;stroke-miterlimit:4;stroke-dasharray:none;stroke-opacity:1"
       d="m 3.836445,292.36974 a 0.13229167,0.13229168 0 0 1 -0.1322917,0.13229 0.13229167,0.13229168 0 0 1 -0.1322916,-0.13229 0.13229167,0.13229168 0 0 1 0.1322916,-0.13229 0.13229167,0.13229168 0 0 1 0.1322917,0.13229 z"
       id="path32931-0" />
    <path
       inkscape:connector-curvature="0"
       style="display:inline;opacity:1;fill:#3b3c3d;fill-opacity:1;stroke:none;stroke-width:1;stroke-linecap:round;stroke-linejoin:round;stroke-miterlimit:4;stroke-dasharray:none;stroke-opacity:1"
       d="m 4.8947784,292.36974 a 0.13229167,0.13229168 0 0 1 -0.1322917,0.13229 0.13229167,0.13229168 0 0 1 -0.1322917,-0.13229 0.13229167,0.13229168 0 0 1 0.1322917,-0.13229 0.13229167,0.13229168 0 0 1 0.1322917,0.13229 z"
       id="path32933-3" />
  </g>
</svg>
