<?xml version="1.0" encoding="UTF-8" standalone="no"?>
<!-- Created with Inkscape (http://www.inkscape.org/) -->

<svg
   xmlns:dc="http://purl.org/dc/elements/1.1/"
   xmlns:cc="http://creativecommons.org/ns#"
   xmlns:rdf="http://www.w3.org/1999/02/22-rdf-syntax-ns#"
   xmlns:svg="http://www.w3.org/2000/svg"
   xmlns="http://www.w3.org/2000/svg"
   xmlns:sodipodi="http://sodipodi.sourceforge.net/DTD/sodipodi-0.dtd"
   xmlns:inkscape="http://www.inkscape.org/namespaces/inkscape"
   width="32"
   height="32"
   viewBox="0 0 8.4666665 8.4666669"
   version="1.1"
   id="svg8"
   inkscape:version="0.91 r13725"
   sodipodi:docname="car-automobile-vehicle-transportation-travel-transport.svg">
  <defs
     id="defs2">
    <inkscape:path-effect
       effect="fillet-chamfer"
       id="path-effect6194-9"
       is_visible="true"
       fillet_chamfer_values="-2.083553,1 | -1.5194253,1 | 0,1"
       method="auto"
       radius="2"
       chamfer_steps="1"
       helper_size="0"
       flexible="false"
       use_knot_distance="false"
       ignore_radius_0="false"
       only_selected="true"
       hide_knots="false" />
    <inkscape:path-effect
       effect="fillet-chamfer"
       id="path-effect6200-3"
       is_visible="true"
       fillet_chamfer_values="0,0 | -2.1346047,1 | -1.3969861,1 | -0.057274208,1 | -0.16666667,1"
       method="auto"
       radius="0.5"
       chamfer_steps="1"
       helper_size="0"
       flexible="false"
       use_knot_distance="false"
       ignore_radius_0="false"
       only_selected="true"
       hide_knots="false" />
    <pattern
       y="0"
       x="0"
       height="6"
       width="6"
       patternUnits="userSpaceOnUse"
       id="EMFhbasepattern" />
    <pattern
       y="0"
       x="0"
       height="6"
       width="6"
       patternUnits="userSpaceOnUse"
       id="EMFhbasepattern-6" />
    <inkscape:path-effect
       effect="fillet-chamfer"
       id="path-effect6795-9"
       is_visible="true"
       fillet_chamfer_values="0,0 | -2,1 | -2,1 | -2,1"
       method="auto"
       radius="2"
       chamfer_steps="1"
       helper_size="0"
       flexible="false"
       use_knot_distance="false"
       ignore_radius_0="false"
       only_selected="true"
       hide_knots="false" />
    <pattern
       y="0"
       x="0"
       height="6"
       width="6"
       patternUnits="userSpaceOnUse"
       id="EMFhbasepattern-4" />
    <pattern
       y="0"
       x="0"
       height="6"
       width="6"
       patternUnits="userSpaceOnUse"
       id="EMFhbasepattern-3" />
    <pattern
       y="0"
       x="0"
       height="6"
       width="6"
       patternUnits="userSpaceOnUse"
       id="EMFhbasepattern-0" />
    <inkscape:path-effect
       effect="fillet-chamfer"
       id="path-effect5842-1-6-2-7"
       is_visible="true"
       fillet_chamfer_values="0,0 | -0.49999733,1 | -0.50000267,1"
       method="auto"
       radius="0.5"
       chamfer_steps="1"
       helper_size="0"
       flexible="false"
       use_knot_distance="false"
       ignore_radius_0="false"
       only_selected="true"
       hide_knots="false" />
    <inkscape:path-effect
       effect="fillet-chamfer"
       id="path-effect9698-1"
       is_visible="true"
       fillet_chamfer_values="0,0 | -0.71730365,1"
       method="auto"
       radius="1"
       chamfer_steps="1"
       helper_size="0"
       flexible="false"
       use_knot_distance="false"
       ignore_radius_0="false"
       only_selected="true"
       hide_knots="false" />
  </defs>
  <sodipodi:namedview
     id="base"
     pagecolor="#ffffff"
     bordercolor="#666666"
     borderopacity="1.0"
     inkscape:pageopacity="0.0"
     inkscape:pageshadow="2"
     inkscape:zoom="11.313708"
     inkscape:cx="-13.435824"
     inkscape:cy="19.616211"
     inkscape:document-units="mm"
     inkscape:current-layer="layer1"
     showgrid="true"
     units="px"
     inkscape:window-width="1366"
     inkscape:window-height="716"
     inkscape:window-x="-8"
     inkscape:window-y="-8"
     inkscape:window-maximized="1">
    <inkscape:grid
       type="xygrid"
       id="grid4726" />
  </sodipodi:namedview>
  <metadata
     id="metadata5">
    <rdf:RDF>
      <cc:Work
         rdf:about="">
        <dc:format>image/svg+xml</dc:format>
        <dc:type
           rdf:resource="http://purl.org/dc/dcmitype/StillImage" />
        <dc:title />
      </cc:Work>
    </rdf:RDF>
  </metadata>
  <g
     inkscape:label="Layer 1"
     inkscape:groupmode="layer"
     id="layer1"
     transform="translate(0,-288.53332)">
    <path
       inkscape:connector-curvature="0"
       style="display:inline;fill:#3b3c3d;fill-rule:evenodd;stroke:none;stroke-width:1px;stroke-linecap:butt;stroke-linejoin:miter;stroke-opacity:1"
       d="m 3.1750034,290.45155 a 1.3229167,1.3229168 0 0 0 -1.0583333,0.52916 l -0.5953125,0.79375 0.2754312,0.10128 c 0.1104371,0.0404 0.2256632,0.0604 0.3416036,0.0605 l 4.2302113,0 c 0.1159405,-2e-5 0.2311665,-0.0201 0.3416036,-0.0605 l 0.2444221,-0.0894 -0.6046259,-0.80563 a 1.3229167,1.3229168 0 0 0 -1.0583333,-0.52916 z m -1.8195131,1.54408 -0.3235061,0.43151 a 0.52916668,0.52916672 0 0 0 -0.10593915,0.31728 l 0,0.1664 0.56120775,-0.0119 c 0.1397,0 0.2688696,0.0739 0.3400425,0.19432 l 0.3911865,0.54776 c 0.048101,0.0813 -0.010054,0.18397 -0.1043782,0.18397 l -0.9606756,0.0119 a 1.3229167,1.3229168 0 0 0 1.0955338,0.58344 l 3.9687501,0 a 1.3229167,1.3229168 0 0 0 1.0965921,-0.58344 l -0.9612049,-0.0119 c -0.09435,0 -0.1524793,-0.10264 -0.1043781,-0.18397 l 0.3911865,-0.54776 c 0.071173,-0.12042 0.2003425,-0.19432 0.3400425,-0.19432 l 0.5606786,0.0119 0,-0.1664 a 0.52916668,0.52916672 0 0 0 -0.1054101,-0.31728 l -0.3152245,-0.41961 -0.3188494,0.11626 c -0.1391709,0.0508 -0.2853796,0.077 -0.4325409,0.077 l -4.2302113,0 c -0.1471613,-3e-5 -0.29337,-0.0259 -0.4325409,-0.077 z m 1.640205,0.90331 2.4055388,0 c 0.094536,0 0.1530615,0.10314 0.1049073,0.1845 0,0 -0.2684198,0.3647 -0.4025635,0.54723 -0.082894,0.11277 -0.2011363,0.19431 -0.3410744,0.19431 l -1.1286067,0 c -0.1399381,0 -0.2582069,-0.0816 -0.3410744,-0.19431 -0.1341437,-0.18253 -0.4025371,-0.54723 -0.4025371,-0.54723 -0.048181,-0.0814 0.010848,-0.1845 0.10541,-0.1845 z"
       id="path34045-7" />
    <path
       inkscape:connector-curvature="0"
       style="display:inline;fill:#3b3c3d;fill-rule:evenodd;stroke:none;stroke-width:1px;stroke-linecap:butt;stroke-linejoin:miter;stroke-opacity:1"
       d="m 0.92604505,291.2453 a 0.26458334,0.26458336 0 0 0 -0.26458334,0.26458 l 0,0.13229 a 0.26458334,0.26458336 0 0 0 0.26458334,0.26458 l 0.20671895,0 0.4252913,-0.56689 a 0.19843751,0.19843752 0 0 0 -0.1689894,-0.0946 z"
       id="path34049-6" />
    <path
       inkscape:connector-curvature="0"
       style="display:inline;fill:#3b3c3d;fill-rule:evenodd;stroke:none;stroke-width:1px;stroke-linecap:butt;stroke-linejoin:miter;stroke-opacity:1"
       d="m 7.0776077,291.2453 a 0.19843751,0.19843752 0 0 0 -0.1684602,0.0951 l 0.4247885,0.56636 0.2066926,0 a 0.26458334,0.26458336 0 0 0 0.2645833,-0.26458 l 0,-0.13229 A 0.26458334,0.26458336 0 0 0 7.5406286,291.2453 Z"
       id="path34051-1" />
    <path
       inkscape:connector-curvature="0"
       style="display:inline;fill:#3b3c3d;fill-rule:evenodd;stroke:none;stroke-width:1px;stroke-linecap:butt;stroke-linejoin:miter;stroke-opacity:1"
       d="m 7.2098994,294.29007 c -0.2756694,0.22944 -0.6246813,0.36166 -0.9921875,0.36174 l -0.066146,0 0,0.16536 c 0,0.14613 0.118454,0.26458 0.2645834,0.26458 l 0.5291666,0 c 0.1461294,0 0.2645834,-0.11845 0.2645834,-0.26458 z"
       id="path34053-8" />
    <path
       inkscape:connector-curvature="0"
       style="display:inline;fill:#3b3c3d;fill-rule:evenodd;stroke:none;stroke-width:1px;stroke-linecap:butt;stroke-linejoin:miter;stroke-opacity:1"
       d="m 1.2567742,294.28957 0,0.5276 c 0,0.14613 0.118454,0.26458 0.2645834,0.26458 l 0.5291666,0 c 0.1461294,0 0.2645834,-0.11845 0.2645834,-0.26458 l 0,-0.16536 -0.066146,0 c -0.367374,0 -0.7166505,-0.13269 -0.9921876,-0.36224 z"
       id="path34055-3" />
  </g>
</svg>
