<?xml version="1.0" encoding="UTF-8" standalone="no"?>
<!-- Created with Inkscape (http://www.inkscape.org/) -->

<svg
   xmlns:dc="http://purl.org/dc/elements/1.1/"
   xmlns:cc="http://creativecommons.org/ns#"
   xmlns:rdf="http://www.w3.org/1999/02/22-rdf-syntax-ns#"
   xmlns:svg="http://www.w3.org/2000/svg"
   xmlns="http://www.w3.org/2000/svg"
   xmlns:sodipodi="http://sodipodi.sourceforge.net/DTD/sodipodi-0.dtd"
   xmlns:inkscape="http://www.inkscape.org/namespaces/inkscape"
   width="32"
   height="32"
   viewBox="0 0 8.4666665 8.4666669"
   version="1.1"
   id="svg8"
   inkscape:version="0.91 r13725"
   sodipodi:docname="car-drive-clutch-brake-accelerator-controls-pedal.svg">
  <defs
     id="defs2">
    <inkscape:path-effect
       effect="fillet-chamfer"
       id="path-effect6194-9"
       is_visible="true"
       fillet_chamfer_values="-2.083553,1 | -1.5194253,1 | 0,1"
       method="auto"
       radius="2"
       chamfer_steps="1"
       helper_size="0"
       flexible="false"
       use_knot_distance="false"
       ignore_radius_0="false"
       only_selected="true"
       hide_knots="false" />
    <inkscape:path-effect
       effect="fillet-chamfer"
       id="path-effect6200-3"
       is_visible="true"
       fillet_chamfer_values="0,0 | -2.1346047,1 | -1.3969861,1 | -0.057274208,1 | -0.16666667,1"
       method="auto"
       radius="0.5"
       chamfer_steps="1"
       helper_size="0"
       flexible="false"
       use_knot_distance="false"
       ignore_radius_0="false"
       only_selected="true"
       hide_knots="false" />
    <pattern
       y="0"
       x="0"
       height="6"
       width="6"
       patternUnits="userSpaceOnUse"
       id="EMFhbasepattern" />
    <pattern
       y="0"
       x="0"
       height="6"
       width="6"
       patternUnits="userSpaceOnUse"
       id="EMFhbasepattern-6" />
    <inkscape:path-effect
       effect="fillet-chamfer"
       id="path-effect6795-9"
       is_visible="true"
       fillet_chamfer_values="0,0 | -2,1 | -2,1 | -2,1"
       method="auto"
       radius="2"
       chamfer_steps="1"
       helper_size="0"
       flexible="false"
       use_knot_distance="false"
       ignore_radius_0="false"
       only_selected="true"
       hide_knots="false" />
    <pattern
       y="0"
       x="0"
       height="6"
       width="6"
       patternUnits="userSpaceOnUse"
       id="EMFhbasepattern-4" />
    <pattern
       y="0"
       x="0"
       height="6"
       width="6"
       patternUnits="userSpaceOnUse"
       id="EMFhbasepattern-3" />
    <pattern
       y="0"
       x="0"
       height="6"
       width="6"
       patternUnits="userSpaceOnUse"
       id="EMFhbasepattern-0" />
    <inkscape:path-effect
       effect="fillet-chamfer"
       id="path-effect5842-1-6-2-7"
       is_visible="true"
       fillet_chamfer_values="0,0 | -0.49999733,1 | -0.50000267,1"
       method="auto"
       radius="0.5"
       chamfer_steps="1"
       helper_size="0"
       flexible="false"
       use_knot_distance="false"
       ignore_radius_0="false"
       only_selected="true"
       hide_knots="false" />
    <inkscape:path-effect
       effect="fillet-chamfer"
       id="path-effect9698-1"
       is_visible="true"
       fillet_chamfer_values="0,0 | -0.71730365,1"
       method="auto"
       radius="1"
       chamfer_steps="1"
       helper_size="0"
       flexible="false"
       use_knot_distance="false"
       ignore_radius_0="false"
       only_selected="true"
       hide_knots="false" />
  </defs>
  <sodipodi:namedview
     id="base"
     pagecolor="#ffffff"
     bordercolor="#666666"
     borderopacity="1.0"
     inkscape:pageopacity="0.0"
     inkscape:pageshadow="2"
     inkscape:zoom="11.313708"
     inkscape:cx="10.009575"
     inkscape:cy="14.258324"
     inkscape:document-units="mm"
     inkscape:current-layer="layer1"
     showgrid="true"
     units="px"
     inkscape:window-width="1366"
     inkscape:window-height="716"
     inkscape:window-x="-8"
     inkscape:window-y="-8"
     inkscape:window-maximized="1">
    <inkscape:grid
       type="xygrid"
       id="grid4726" />
  </sodipodi:namedview>
  <metadata
     id="metadata5">
    <rdf:RDF>
      <cc:Work
         rdf:about="">
        <dc:format>image/svg+xml</dc:format>
        <dc:type
           rdf:resource="http://purl.org/dc/dcmitype/StillImage" />
        <dc:title />
      </cc:Work>
    </rdf:RDF>
  </metadata>
  <g
     inkscape:label="Layer 1"
     inkscape:groupmode="layer"
     id="layer1"
     transform="translate(0,-288.53332)">
    <path
       inkscape:connector-curvature="0"
       style="opacity:1;fill:#3b3c3d;fill-opacity:1;stroke:none;stroke-width:1;stroke-linecap:round;stroke-linejoin:round;stroke-miterlimit:4;stroke-dasharray:none;stroke-opacity:1"
       d="m 6.6145884,292.76677 c -0.3664479,0 -0.6614583,0.29501 -0.6614583,0.66146 l 0,1.5875 c 0,0.36645 0.2950104,0.66146 0.6614583,0.66146 l 0.5291667,0 c 0.3664479,0 0.6614583,-0.29501 0.6614583,-0.66146 l 0,-1.5875 c 0,-0.36645 -0.2950104,-0.66146 -0.6614583,-0.66146 z m -0.1322916,0.52917 0.2645833,0 0,0.26458 -0.2645833,0 z m 0.5291666,0 0.2645834,0 0,0.26458 -0.2645834,0 z m -0.5291666,0.52917 0.2645833,0 0,0.26458 -0.2645833,0 z m 0.5291666,0 0.2645834,0 0,0.26458 -0.2645834,0 z m -0.5291666,0.52916 0.2645833,0 0,0.26459 -0.2645833,0 z m 0.5291666,0 0.2645834,0 0,0.26459 -0.2645834,0 z m -0.5291666,0.52917 0.2645833,0 0,0.26458 -0.2645833,0 z m 0.5291666,0 0.2645834,0 0,0.26458 -0.2645834,0 z"
       id="path33405-8" />
    <path
       inkscape:connector-curvature="0"
       style="opacity:1;fill:#3b3c3d;fill-opacity:1;stroke:none;stroke-width:1;stroke-linecap:round;stroke-linejoin:round;stroke-miterlimit:4;stroke-dasharray:none;stroke-opacity:1"
       d="m 3.8364634,293.29594 c -0.2931584,0 -0.5291667,0.23601 -0.5291667,0.52917 l 0,1.32291 c 0,0.29316 0.2360083,0.52917 0.5291667,0.52917 l 0.79375,0 c 0.2931583,0 0.5291666,-0.23601 0.5291666,-0.52917 l 0,-1.32291 c 0,-0.29316 -0.2360083,-0.52917 -0.5291666,-0.52917 z m 0,0.52917 0.2645833,0 0,0.26458 -0.2645833,0 z m 0.5291666,0 0.2645834,0 0,0.26458 -0.2645834,0 z m -0.5291666,0.52916 0.2645833,0 0,0.26459 -0.2645833,0 z m 0.5291666,0 0.2645834,0 0,0.26459 -0.2645834,0 z m -0.5291666,0.52917 0.2645833,0 0,0.26458 -0.2645833,0 z m 0.5291666,0 0.2645834,0 0,0.26458 -0.2645834,0 z"
       id="path33425-8" />
    <path
       inkscape:connector-curvature="0"
       style="opacity:1;fill:#3b3c3d;fill-opacity:1;stroke:none;stroke-width:1;stroke-linecap:round;stroke-linejoin:round;stroke-miterlimit:4;stroke-dasharray:none;stroke-opacity:1"
       d="m 1.19063,293.29594 c -0.29315839,0 -0.52916673,0.23601 -0.52916673,0.52917 l 0,1.32291 c 0,0.29316 0.23600834,0.52917 0.52916673,0.52917 l 0.79375,0 c 0.2931583,0 0.5291666,-0.23601 0.5291666,-0.52917 l 0,-1.32291 c 0,-0.29316 -0.2360083,-0.52917 -0.5291666,-0.52917 z m 0,0.52917 0.2645833,0 0,0.26458 -0.2645833,0 z m 0.5291666,0 0.2645834,0 0,0.26458 -0.2645834,0 z m -0.5291666,0.52916 0.2645833,0 0,0.26459 -0.2645833,0 z m 0.5291666,0 0.2645834,0 0,0.26459 -0.2645834,0 z m -0.5291666,0.52917 0.2645833,0 0,0.26458 -0.2645833,0 z m 0.5291666,0 0.2645834,0 0,0.26458 -0.2645834,0 z"
       id="path33441-7" />
    <path
       inkscape:connector-curvature="0"
       id="path33457-6"
       d="m 2.3812498,289.98841 0,0.46302 c -5e-7,0.0961 -0.03486,0.1886 -0.098185,0.26099 l -0.664042,0.75911 c -0.1054827,0.12055 -0.1638138,0.27546 -0.1638144,0.43564 l 0,1.19009 0.2645834,0 0,-1.19009 c 5e-7,-0.0962 0.03486,-0.18913 0.098185,-0.26149 l 0.664042,-0.75861 c 0.1054827,-0.12055 0.1638138,-0.27546 0.1638144,-0.43564 l 0,-0.46302 z"
       style="color:#000000;font-style:normal;font-variant:normal;font-weight:normal;font-stretch:normal;font-size:medium;line-height:normal;font-family:sans-serif;text-indent:0;text-align:start;text-decoration:none;text-decoration-line:none;text-decoration-style:solid;text-decoration-color:#000000;letter-spacing:normal;word-spacing:normal;text-transform:none;direction:ltr;writing-mode:lr-tb;baseline-shift:baseline;text-anchor:start;white-space:normal;clip-rule:nonzero;display:inline;overflow:visible;visibility:visible;opacity:1;isolation:auto;mix-blend-mode:normal;color-interpolation:sRGB;color-interpolation-filters:linearRGB;solid-color:#000000;solid-opacity:1;fill:#3b3c3d;fill-opacity:1;fill-rule:evenodd;stroke:none;stroke-width:1px;stroke-linecap:butt;stroke-linejoin:miter;stroke-miterlimit:4;stroke-dasharray:none;stroke-dashoffset:0;stroke-opacity:1;color-rendering:auto;image-rendering:auto;shape-rendering:auto;text-rendering:auto;enable-background:accumulate" />
    <path
       inkscape:connector-curvature="0"
       id="path33459-9"
       d="m 4.7624999,289.98841 0,0.62426 c -3.2e-6,0.0827 -0.02581,0.16367 -0.073897,0.231 l -0.4645711,0.65009 c -0.080115,0.11215 -0.1229847,0.24664 -0.12299,0.38446 l 0,1.21904 0.2645834,0 0,-1.21904 c 3.2e-6,-0.0827 0.02581,-0.16367 0.073897,-0.23098 l 0.4645711,-0.65011 c 0.080115,-0.11215 0.1229846,-0.24661 0.1229899,-0.38446 l 0,-0.62426 z"
       style="color:#000000;font-style:normal;font-variant:normal;font-weight:normal;font-stretch:normal;font-size:medium;line-height:normal;font-family:sans-serif;text-indent:0;text-align:start;text-decoration:none;text-decoration-line:none;text-decoration-style:solid;text-decoration-color:#000000;letter-spacing:normal;word-spacing:normal;text-transform:none;direction:ltr;writing-mode:lr-tb;baseline-shift:baseline;text-anchor:start;white-space:normal;clip-rule:nonzero;display:inline;overflow:visible;visibility:visible;opacity:1;isolation:auto;mix-blend-mode:normal;color-interpolation:sRGB;color-interpolation-filters:linearRGB;solid-color:#000000;solid-opacity:1;fill:#3b3c3d;fill-opacity:1;fill-rule:evenodd;stroke:none;stroke-width:1px;stroke-linecap:butt;stroke-linejoin:miter;stroke-miterlimit:4;stroke-dasharray:none;stroke-dashoffset:0;stroke-opacity:1;color-rendering:auto;image-rendering:auto;shape-rendering:auto;text-rendering:auto;enable-background:accumulate" />
    <path
       inkscape:connector-curvature="0"
       id="path33461-6"
       d="m 6.7468749,289.98841 0,2.57969 0.2645834,0 0,-2.57969 z"
       style="color:#000000;font-style:normal;font-variant:normal;font-weight:normal;font-stretch:normal;font-size:medium;line-height:normal;font-family:sans-serif;text-indent:0;text-align:start;text-decoration:none;text-decoration-line:none;text-decoration-style:solid;text-decoration-color:#000000;letter-spacing:normal;word-spacing:normal;text-transform:none;direction:ltr;writing-mode:lr-tb;baseline-shift:baseline;text-anchor:start;white-space:normal;clip-rule:nonzero;display:inline;overflow:visible;visibility:visible;opacity:1;isolation:auto;mix-blend-mode:normal;color-interpolation:sRGB;color-interpolation-filters:linearRGB;solid-color:#000000;solid-opacity:1;fill:#3b3c3d;fill-opacity:1;fill-rule:evenodd;stroke:none;stroke-width:1px;stroke-linecap:butt;stroke-linejoin:miter;stroke-miterlimit:4;stroke-dasharray:none;stroke-dashoffset:0;stroke-opacity:1;color-rendering:auto;image-rendering:auto;shape-rendering:auto;text-rendering:auto;enable-background:accumulate" />
    <path
       inkscape:connector-curvature="0"
       id="path33463-8"
       d="m 0.52916645,289.85612 0,0.26458 7.40833355,0 0,-0.26458 z"
       style="color:#000000;font-style:normal;font-variant:normal;font-weight:normal;font-stretch:normal;font-size:medium;line-height:normal;font-family:sans-serif;text-indent:0;text-align:start;text-decoration:none;text-decoration-line:none;text-decoration-style:solid;text-decoration-color:#000000;letter-spacing:normal;word-spacing:normal;text-transform:none;direction:ltr;writing-mode:lr-tb;baseline-shift:baseline;text-anchor:start;white-space:normal;clip-rule:nonzero;display:inline;overflow:visible;visibility:visible;opacity:1;isolation:auto;mix-blend-mode:normal;color-interpolation:sRGB;color-interpolation-filters:linearRGB;solid-color:#000000;solid-opacity:1;fill:#3b3c3d;fill-opacity:1;fill-rule:evenodd;stroke:none;stroke-width:1px;stroke-linecap:butt;stroke-linejoin:miter;stroke-miterlimit:4;stroke-dasharray:none;stroke-dashoffset:0;stroke-opacity:1;color-rendering:auto;image-rendering:auto;shape-rendering:auto;text-rendering:auto;enable-background:accumulate" />
  </g>
</svg>
