<?xml version="1.0" encoding="UTF-8" standalone="no"?>
<!-- Created with Inkscape (http://www.inkscape.org/) -->

<svg
   xmlns:dc="http://purl.org/dc/elements/1.1/"
   xmlns:cc="http://creativecommons.org/ns#"
   xmlns:rdf="http://www.w3.org/1999/02/22-rdf-syntax-ns#"
   xmlns:svg="http://www.w3.org/2000/svg"
   xmlns="http://www.w3.org/2000/svg"
   xmlns:sodipodi="http://sodipodi.sourceforge.net/DTD/sodipodi-0.dtd"
   xmlns:inkscape="http://www.inkscape.org/namespaces/inkscape"
   width="32"
   height="32"
   viewBox="0 0 8.4666665 8.4666669"
   version="1.1"
   id="svg8"
   inkscape:version="0.91 r13725"
   sodipodi:docname="catalytic-car-part-vehicle-auto-service.svg">
  <defs
     id="defs2">
    <inkscape:path-effect
       effect="fillet-chamfer"
       id="path-effect6194-9"
       is_visible="true"
       fillet_chamfer_values="-2.083553,1 | -1.5194253,1 | 0,1"
       method="auto"
       radius="2"
       chamfer_steps="1"
       helper_size="0"
       flexible="false"
       use_knot_distance="false"
       ignore_radius_0="false"
       only_selected="true"
       hide_knots="false" />
    <inkscape:path-effect
       effect="fillet-chamfer"
       id="path-effect6200-3"
       is_visible="true"
       fillet_chamfer_values="0,0 | -2.1346047,1 | -1.3969861,1 | -0.057274208,1 | -0.16666667,1"
       method="auto"
       radius="0.5"
       chamfer_steps="1"
       helper_size="0"
       flexible="false"
       use_knot_distance="false"
       ignore_radius_0="false"
       only_selected="true"
       hide_knots="false" />
    <pattern
       y="0"
       x="0"
       height="6"
       width="6"
       patternUnits="userSpaceOnUse"
       id="EMFhbasepattern" />
    <pattern
       y="0"
       x="0"
       height="6"
       width="6"
       patternUnits="userSpaceOnUse"
       id="EMFhbasepattern-6" />
    <inkscape:path-effect
       effect="fillet-chamfer"
       id="path-effect6795-9"
       is_visible="true"
       fillet_chamfer_values="0,0 | -2,1 | -2,1 | -2,1"
       method="auto"
       radius="2"
       chamfer_steps="1"
       helper_size="0"
       flexible="false"
       use_knot_distance="false"
       ignore_radius_0="false"
       only_selected="true"
       hide_knots="false" />
    <pattern
       y="0"
       x="0"
       height="6"
       width="6"
       patternUnits="userSpaceOnUse"
       id="EMFhbasepattern-4" />
    <pattern
       y="0"
       x="0"
       height="6"
       width="6"
       patternUnits="userSpaceOnUse"
       id="EMFhbasepattern-3" />
    <pattern
       y="0"
       x="0"
       height="6"
       width="6"
       patternUnits="userSpaceOnUse"
       id="EMFhbasepattern-0" />
    <inkscape:path-effect
       effect="fillet-chamfer"
       id="path-effect5842-1-6-2-7"
       is_visible="true"
       fillet_chamfer_values="0,0 | -0.49999733,1 | -0.50000267,1"
       method="auto"
       radius="0.5"
       chamfer_steps="1"
       helper_size="0"
       flexible="false"
       use_knot_distance="false"
       ignore_radius_0="false"
       only_selected="true"
       hide_knots="false" />
    <inkscape:path-effect
       effect="fillet-chamfer"
       id="path-effect9698-1"
       is_visible="true"
       fillet_chamfer_values="0,0 | -0.71730365,1"
       method="auto"
       radius="1"
       chamfer_steps="1"
       helper_size="0"
       flexible="false"
       use_knot_distance="false"
       ignore_radius_0="false"
       only_selected="true"
       hide_knots="false" />
  </defs>
  <sodipodi:namedview
     id="base"
     pagecolor="#ffffff"
     bordercolor="#666666"
     borderopacity="1.0"
     inkscape:pageopacity="0.0"
     inkscape:pageshadow="2"
     inkscape:zoom="11.313708"
     inkscape:cx="-13.435824"
     inkscape:cy="19.616211"
     inkscape:document-units="mm"
     inkscape:current-layer="layer1"
     showgrid="true"
     units="px"
     inkscape:window-width="1366"
     inkscape:window-height="716"
     inkscape:window-x="-8"
     inkscape:window-y="-8"
     inkscape:window-maximized="1">
    <inkscape:grid
       type="xygrid"
       id="grid4726" />
  </sodipodi:namedview>
  <metadata
     id="metadata5">
    <rdf:RDF>
      <cc:Work
         rdf:about="">
        <dc:format>image/svg+xml</dc:format>
        <dc:type
           rdf:resource="http://purl.org/dc/dcmitype/StillImage" />
        <dc:title />
      </cc:Work>
    </rdf:RDF>
  </metadata>
  <g
     inkscape:label="Layer 1"
     inkscape:groupmode="layer"
     id="layer1"
     transform="translate(0,-288.53332)">
    <path
       style="fill:#3b3c3d;fill-rule:evenodd;stroke:none;stroke-width:1px;stroke-linecap:butt;stroke-linejoin:round;stroke-opacity:1"
       d="m 2.3352423,291.17913 a 1.0539589,1.053959 0 0 0 -0.2185723,0.0243 l 0,3.12745 a 1.0539589,1.053959 0 0 0 0.2185723,0.0233 l 0.7074694,0 0,-0.6594 0.2645833,0 0,0.6594 1.8520834,0 0,-0.6594 0.2645833,0 0,0.6594 0.7069138,0 a 1.0539589,1.053959 0 0 0 0.2191279,-0.0243 l 0,-3.12696 a 1.0539589,1.053959 0 0 0 -0.2191279,-0.0238 l -0.7069138,0 0,0.6599 -0.2645833,0 0,-0.6599 -1.8520834,0 0,0.6599 -0.2645833,0 0,-0.6599 z m -0.4831557,0.11885 a 1.0539589,1.053959 0 0 0 -0.1488281,0.092 l -0.6449219,0.48369 0,1.78594 0.6449219,0.48368 a 1.0539589,1.053959 0 0 0 0.1488281,0.0925 z m 4.7625002,0 0,2.9373 a 1.0539589,1.053959 0 0 0 0.1488281,-0.092 l 0.6449219,-0.48368 0,-1.78594 -0.6449219,-0.48369 a 1.0539589,1.053959 0 0 0 -0.1488281,-0.092 z m -6.48229188,0.6749 0,1.5875 0.66145835,0 0,-1.5875 z m 7.54062518,0 0,1.5875 0.6614584,0 0,-1.5875 z m -4.8286459,0.13229 a 0.13229167,0.13229168 0 0 1 0.1322916,0.13229 0.13229167,0.13229168 0 0 1 -0.1322916,0.13229 0.13229167,0.13229168 0 0 1 -0.1322917,-0.13229 0.13229167,0.13229168 0 0 1 0.1322917,-0.13229 z m 2.778125,0 a 0.13229167,0.13229168 0 0 1 0.1322917,0.13229 0.13229167,0.13229168 0 0 1 -0.1322917,0.13229 0.13229167,0.13229168 0 0 1 -0.1322916,-0.13229 0.13229167,0.13229168 0 0 1 0.1322916,-0.13229 z m -3.1088542,0.26458 a 0.13229167,0.13229168 0 0 1 0.1322917,0.13229 0.13229167,0.13229168 0 0 1 -0.1322917,0.1323 0.13229167,0.13229168 0 0 1 -0.1322917,-0.1323 0.13229167,0.13229168 0 0 1 0.1322917,-0.13229 z m 0.6614583,0 a 0.13229167,0.13229168 0 0 1 0.1322917,0.13229 0.13229167,0.13229168 0 0 1 -0.1322917,0.1323 0.13229167,0.13229168 0 0 1 -0.1322916,-0.1323 0.13229167,0.13229168 0 0 1 0.1322916,-0.13229 z m 2.1166668,0 a 0.13229167,0.13229168 0 0 1 0.1322916,0.13229 0.13229167,0.13229168 0 0 1 -0.1322916,0.1323 0.13229167,0.13229168 0 0 1 -0.1322917,-0.1323 0.13229167,0.13229168 0 0 1 0.1322917,-0.13229 z m 0.6614583,0 a 0.13229167,0.13229168 0 0 1 0.1322917,0.13229 0.13229167,0.13229168 0 0 1 -0.1322917,0.1323 0.13229167,0.13229168 0 0 1 -0.1322917,-0.1323 0.13229167,0.13229168 0 0 1 0.1322917,-0.13229 z m -3.1088542,0.26459 a 0.13229167,0.13229168 0 0 1 0.1322916,0.13229 0.13229167,0.13229168 0 0 1 -0.1322916,0.13229 0.13229167,0.13229168 0 0 1 -0.1322917,-0.13229 0.13229167,0.13229168 0 0 1 0.1322917,-0.13229 z m 2.778125,0 a 0.13229167,0.13229168 0 0 1 0.1322917,0.13229 0.13229167,0.13229168 0 0 1 -0.1322917,0.13229 0.13229167,0.13229168 0 0 1 -0.1322916,-0.13229 0.13229167,0.13229168 0 0 1 0.1322916,-0.13229 z m -3.1088542,0.26458 a 0.13229167,0.13229168 0 0 1 0.1322917,0.13229 0.13229167,0.13229168 0 0 1 -0.1322917,0.13229 0.13229167,0.13229168 0 0 1 -0.1322917,-0.13229 0.13229167,0.13229168 0 0 1 0.1322917,-0.13229 z m 0.6614583,0 a 0.13229167,0.13229168 0 0 1 0.1322917,0.13229 0.13229167,0.13229168 0 0 1 -0.1322917,0.13229 0.13229167,0.13229168 0 0 1 -0.1322916,-0.13229 0.13229167,0.13229168 0 0 1 0.1322916,-0.13229 z m 2.1166668,0 a 0.13229167,0.13229168 0 0 1 0.1322916,0.13229 0.13229167,0.13229168 0 0 1 -0.1322916,0.13229 0.13229167,0.13229168 0 0 1 -0.1322917,-0.13229 0.13229167,0.13229168 0 0 1 0.1322917,-0.13229 z m 0.6614583,0 a 0.13229167,0.13229168 0 0 1 0.1322917,0.13229 0.13229167,0.13229168 0 0 1 -0.1322917,0.13229 0.13229167,0.13229168 0 0 1 -0.1322917,-0.13229 0.13229167,0.13229168 0 0 1 0.1322917,-0.13229 z m -4.4979168,0.26458 a 0.13229167,0.13229168 0 0 1 0.1322917,0.13229 0.13229167,0.13229168 0 0 1 -0.1322917,0.1323 0.13229167,0.13229168 0 0 1 -0.1322916,-0.1323 0.13229167,0.13229168 0 0 1 0.1322916,-0.13229 z m 1.3890626,0 a 0.13229167,0.13229168 0 0 1 0.1322916,0.13229 0.13229167,0.13229168 0 0 1 -0.1322916,0.1323 0.13229167,0.13229168 0 0 1 -0.1322917,-0.1323 0.13229167,0.13229168 0 0 1 0.1322917,-0.13229 z m 2.778125,0 a 0.13229167,0.13229168 0 0 1 0.1322917,0.13229 0.13229167,0.13229168 0 0 1 -0.1322917,0.1323 0.13229167,0.13229168 0 0 1 -0.1322916,-0.1323 0.13229167,0.13229168 0 0 1 0.1322916,-0.13229 z m 1.3890626,0 a 0.13229167,0.13229168 0 0 1 0.1322916,0.13229 0.13229167,0.13229168 0 0 1 -0.1322916,0.1323 0.13229167,0.13229168 0 0 1 -0.1322917,-0.1323 0.13229167,0.13229168 0 0 1 0.1322917,-0.13229 z"
       id="path32863-8"
       inkscape:connector-curvature="0" />
  </g>
</svg>
