<?xml version="1.0" encoding="UTF-8" standalone="no"?>
<!-- Created with Inkscape (http://www.inkscape.org/) -->

<svg
   xmlns:dc="http://purl.org/dc/elements/1.1/"
   xmlns:cc="http://creativecommons.org/ns#"
   xmlns:rdf="http://www.w3.org/1999/02/22-rdf-syntax-ns#"
   xmlns:svg="http://www.w3.org/2000/svg"
   xmlns="http://www.w3.org/2000/svg"
   xmlns:sodipodi="http://sodipodi.sourceforge.net/DTD/sodipodi-0.dtd"
   xmlns:inkscape="http://www.inkscape.org/namespaces/inkscape"
   width="32"
   height="32"
   viewBox="0 0 8.4666665 8.4666669"
   version="1.1"
   id="svg8"
   inkscape:version="0.91 r13725"
   sodipodi:docname="chassis-automobile-car-vehicle-frame-wheels-service.svg">
  <defs
     id="defs2">
    <inkscape:path-effect
       effect="fillet-chamfer"
       id="path-effect6194-9"
       is_visible="true"
       fillet_chamfer_values="-2.083553,1 | -1.5194253,1 | 0,1"
       method="auto"
       radius="2"
       chamfer_steps="1"
       helper_size="0"
       flexible="false"
       use_knot_distance="false"
       ignore_radius_0="false"
       only_selected="true"
       hide_knots="false" />
    <inkscape:path-effect
       effect="fillet-chamfer"
       id="path-effect6200-3"
       is_visible="true"
       fillet_chamfer_values="0,0 | -2.1346047,1 | -1.3969861,1 | -0.057274208,1 | -0.16666667,1"
       method="auto"
       radius="0.5"
       chamfer_steps="1"
       helper_size="0"
       flexible="false"
       use_knot_distance="false"
       ignore_radius_0="false"
       only_selected="true"
       hide_knots="false" />
    <pattern
       y="0"
       x="0"
       height="6"
       width="6"
       patternUnits="userSpaceOnUse"
       id="EMFhbasepattern" />
    <pattern
       y="0"
       x="0"
       height="6"
       width="6"
       patternUnits="userSpaceOnUse"
       id="EMFhbasepattern-6" />
    <inkscape:path-effect
       effect="fillet-chamfer"
       id="path-effect6795-9"
       is_visible="true"
       fillet_chamfer_values="0,0 | -2,1 | -2,1 | -2,1"
       method="auto"
       radius="2"
       chamfer_steps="1"
       helper_size="0"
       flexible="false"
       use_knot_distance="false"
       ignore_radius_0="false"
       only_selected="true"
       hide_knots="false" />
    <pattern
       y="0"
       x="0"
       height="6"
       width="6"
       patternUnits="userSpaceOnUse"
       id="EMFhbasepattern-4" />
    <pattern
       y="0"
       x="0"
       height="6"
       width="6"
       patternUnits="userSpaceOnUse"
       id="EMFhbasepattern-3" />
    <pattern
       y="0"
       x="0"
       height="6"
       width="6"
       patternUnits="userSpaceOnUse"
       id="EMFhbasepattern-0" />
    <inkscape:path-effect
       effect="fillet-chamfer"
       id="path-effect5842-1-6-2-7"
       is_visible="true"
       fillet_chamfer_values="0,0 | -0.49999733,1 | -0.50000267,1"
       method="auto"
       radius="0.5"
       chamfer_steps="1"
       helper_size="0"
       flexible="false"
       use_knot_distance="false"
       ignore_radius_0="false"
       only_selected="true"
       hide_knots="false" />
    <inkscape:path-effect
       effect="fillet-chamfer"
       id="path-effect9698-1"
       is_visible="true"
       fillet_chamfer_values="0,0 | -0.71730365,1"
       method="auto"
       radius="1"
       chamfer_steps="1"
       helper_size="0"
       flexible="false"
       use_knot_distance="false"
       ignore_radius_0="false"
       only_selected="true"
       hide_knots="false" />
  </defs>
  <sodipodi:namedview
     id="base"
     pagecolor="#ffffff"
     bordercolor="#666666"
     borderopacity="1.0"
     inkscape:pageopacity="0.0"
     inkscape:pageshadow="2"
     inkscape:zoom="11.313708"
     inkscape:cx="-13.435824"
     inkscape:cy="19.616211"
     inkscape:document-units="mm"
     inkscape:current-layer="layer1"
     showgrid="true"
     units="px"
     inkscape:window-width="1366"
     inkscape:window-height="716"
     inkscape:window-x="-8"
     inkscape:window-y="-8"
     inkscape:window-maximized="1">
    <inkscape:grid
       type="xygrid"
       id="grid4726" />
  </sodipodi:namedview>
  <metadata
     id="metadata5">
    <rdf:RDF>
      <cc:Work
         rdf:about="">
        <dc:format>image/svg+xml</dc:format>
        <dc:type
           rdf:resource="http://purl.org/dc/dcmitype/StillImage" />
        <dc:title />
      </cc:Work>
    </rdf:RDF>
  </metadata>
  <g
     inkscape:label="Layer 1"
     inkscape:groupmode="layer"
     id="layer1"
     transform="translate(0,-288.53332)">
    <path
       inkscape:connector-curvature="0"
       id="path16489"
       d="m 2.2459863,289.52541 a 0.1323049,0.13230491 0 0 0 -0.1302279,0.13435 l 0,0.39275 a 0.1323049,0.13230491 0 1 0 0.2645834,0 l 0,-0.0641 1.222666,0 0,-0.26459 -1.222666,0 0,-0.0641 a 0.1323049,0.13230491 0 0 0 -0.1343555,-0.13435 z"
       style="color:#000000;font-style:normal;font-variant:normal;font-weight:normal;font-stretch:normal;font-size:medium;line-height:normal;font-family:sans-serif;text-indent:0;text-align:start;text-decoration:none;text-decoration-line:none;text-decoration-style:solid;text-decoration-color:#000000;letter-spacing:normal;word-spacing:normal;text-transform:none;direction:ltr;writing-mode:lr-tb;baseline-shift:baseline;text-anchor:start;white-space:normal;clip-rule:nonzero;display:inline;overflow:visible;visibility:visible;opacity:1;isolation:auto;mix-blend-mode:normal;color-interpolation:sRGB;color-interpolation-filters:linearRGB;solid-color:#000000;solid-opacity:1;fill:#3b3c3d;fill-opacity:1;fill-rule:evenodd;stroke:none;stroke-width:1px;stroke-linecap:butt;stroke-linejoin:miter;stroke-miterlimit:4;stroke-dasharray:none;stroke-dashoffset:0;stroke-opacity:1;color-rendering:auto;image-rendering:auto;shape-rendering:auto;text-rendering:auto;enable-background:accumulate" />
    <path
       inkscape:connector-curvature="0"
       id="path16487"
       d="m 6.2147364,289.52541 a 0.1323049,0.13230491 0 0 0 -0.1302279,0.13435 l 0,0.0641 -1.2081934,0 0,0.26459 1.2081934,0 0,0.0641 a 0.1323049,0.13230491 0 1 0 0.2645834,0 l 0,-0.39275 a 0.1323049,0.13230491 0 0 0 -0.1343555,-0.13435 z"
       style="color:#000000;font-style:normal;font-variant:normal;font-weight:normal;font-stretch:normal;font-size:medium;line-height:normal;font-family:sans-serif;text-indent:0;text-align:start;text-decoration:none;text-decoration-line:none;text-decoration-style:solid;text-decoration-color:#000000;letter-spacing:normal;word-spacing:normal;text-transform:none;direction:ltr;writing-mode:lr-tb;baseline-shift:baseline;text-anchor:start;white-space:normal;clip-rule:nonzero;display:inline;overflow:visible;visibility:visible;opacity:1;isolation:auto;mix-blend-mode:normal;color-interpolation:sRGB;color-interpolation-filters:linearRGB;solid-color:#000000;solid-opacity:1;fill:#3b3c3d;fill-opacity:1;fill-rule:evenodd;stroke:none;stroke-width:1px;stroke-linecap:butt;stroke-linejoin:miter;stroke-miterlimit:4;stroke-dasharray:none;stroke-dashoffset:0;stroke-opacity:1;color-rendering:auto;image-rendering:auto;shape-rendering:auto;text-rendering:auto;enable-background:accumulate" />
    <path
       inkscape:connector-curvature="0"
       id="path16485"
       d="m 4.1001335,290.48452 0,3.10886 0.2645833,0 0,-3.10886 z"
       style="color:#000000;font-style:normal;font-variant:normal;font-weight:normal;font-stretch:normal;font-size:medium;line-height:normal;font-family:sans-serif;text-indent:0;text-align:start;text-decoration:none;text-decoration-line:none;text-decoration-style:solid;text-decoration-color:#000000;letter-spacing:normal;word-spacing:normal;text-transform:none;direction:ltr;writing-mode:lr-tb;baseline-shift:baseline;text-anchor:start;white-space:normal;clip-rule:nonzero;display:inline;overflow:visible;visibility:visible;opacity:1;isolation:auto;mix-blend-mode:normal;color-interpolation:sRGB;color-interpolation-filters:linearRGB;solid-color:#000000;solid-opacity:1;fill:#3b3c3d;fill-opacity:1;fill-rule:evenodd;stroke:none;stroke-width:1px;stroke-linecap:butt;stroke-linejoin:miter;stroke-miterlimit:4;stroke-dasharray:none;stroke-dashoffset:0;stroke-opacity:1;color-rendering:auto;image-rendering:auto;shape-rendering:auto;text-rendering:auto;enable-background:accumulate" />
    <path
       inkscape:connector-curvature="0"
       id="path16483"
       d="m 2.2501138,295.34624 a 0.1323049,0.13230491 0 0 0 -0.1343554,0.13436 l 0,0.39325 a 0.1323049,0.13230491 0 0 0 0.1302279,0.13435 0.1323049,0.13230491 0 0 0 0.1343555,-0.13435 l 0,-0.0641 0.8268229,0 0,-0.26458 -0.8268229,0 0,-0.0646 a 0.1323049,0.13230491 0 0 0 -0.130228,-0.13436 z"
       style="color:#000000;font-style:normal;font-variant:normal;font-weight:normal;font-stretch:normal;font-size:medium;line-height:normal;font-family:sans-serif;text-indent:0;text-align:start;text-decoration:none;text-decoration-line:none;text-decoration-style:solid;text-decoration-color:#000000;letter-spacing:normal;word-spacing:normal;text-transform:none;direction:ltr;writing-mode:lr-tb;baseline-shift:baseline;text-anchor:start;white-space:normal;clip-rule:nonzero;display:inline;overflow:visible;visibility:visible;opacity:1;isolation:auto;mix-blend-mode:normal;color-interpolation:sRGB;color-interpolation-filters:linearRGB;solid-color:#000000;solid-opacity:1;fill:#3b3c3d;fill-opacity:1;fill-rule:evenodd;stroke:none;stroke-width:1px;stroke-linecap:butt;stroke-linejoin:miter;stroke-miterlimit:4;stroke-dasharray:none;stroke-dashoffset:0;stroke-opacity:1;color-rendering:auto;image-rendering:auto;shape-rendering:auto;text-rendering:auto;enable-background:accumulate" />
    <path
       inkscape:connector-curvature="0"
       id="path33745-4"
       d="m 6.2147364,295.34624 a 0.1323049,0.13230491 0 0 0 -0.1302279,0.13436 l 0,0.0641 -0.8268229,0 0,0.26458 0.8268229,0 0,0.0646 a 0.1323049,0.13230491 0 1 0 0.2645834,0 l 0,-0.39325 a 0.1323049,0.13230491 0 0 0 -0.1343555,-0.13436 z"
       style="color:#000000;font-style:normal;font-variant:normal;font-weight:normal;font-stretch:normal;font-size:medium;line-height:normal;font-family:sans-serif;text-indent:0;text-align:start;text-decoration:none;text-decoration-line:none;text-decoration-style:solid;text-decoration-color:#000000;letter-spacing:normal;word-spacing:normal;text-transform:none;direction:ltr;writing-mode:lr-tb;baseline-shift:baseline;text-anchor:start;white-space:normal;clip-rule:nonzero;display:inline;overflow:visible;visibility:visible;opacity:1;isolation:auto;mix-blend-mode:normal;color-interpolation:sRGB;color-interpolation-filters:linearRGB;solid-color:#000000;solid-opacity:1;fill:#3b3c3d;fill-opacity:1;fill-rule:evenodd;stroke:none;stroke-width:1px;stroke-linecap:butt;stroke-linejoin:miter;stroke-miterlimit:4;stroke-dasharray:none;stroke-dashoffset:0;stroke-opacity:1;color-rendering:auto;image-rendering:auto;shape-rendering:auto;text-rendering:auto;enable-background:accumulate" />
    <path
       inkscape:connector-curvature="0"
       style="fill:#3b3c3d;fill-rule:evenodd;stroke:none;stroke-width:1px;stroke-linecap:butt;stroke-linejoin:miter;stroke-opacity:1"
       d="m 3.9677095,290.2532 0.5291667,0 a 0.13229167,0.13229168 0 0 0 0.1322917,-0.1323 l 0,-0.34208 a 0.23212383,0.23212385 0 0 0 -0.024606,-0.10379 l -0.083291,-0.16658 a 0.08866341,0.08866342 0 0 0 -0.079296,-0.049 l -0.4195762,0 a 0.08866341,0.08866342 0 0 0 -0.079296,0.049 l -0.083291,0.16658 a 0.23212383,0.23212385 0 0 0 -0.024606,0.10379 l 0,0.34208 a 0.13229167,0.13229168 0 0 0 0.1322916,0.1323 z"
       id="path33747-2" />
    <path
       style="opacity:1;fill:#3b3c3d;fill-opacity:1;stroke:none;stroke-width:1;stroke-linecap:round;stroke-linejoin:round;stroke-miterlimit:4;stroke-dasharray:none;stroke-opacity:1"
       d="m 6.8782585,288.93009 c -0.1102783,0 -0.2040731,0.0673 -0.2439193,0.16278 l 0.2532327,0.12712 a 0.13231723,0.13231724 0 0 1 -0.1183482,0.23668 l -0.1555485,-0.078 0,0.23306 a 0.1323049,0.13230491 0 0 1 0.012965,0.006 l 0.260985,0.13074 a 0.13231723,0.13231724 0 0 1 -0.1183481,0.23668 l -0.1555486,-0.078 0,0.23306 a 0.1323049,0.13230491 0 0 1 0.012965,0.006 l 0.260985,0.13074 a 0.13231723,0.13231724 0 0 1 -0.1183481,0.23668 l -0.1555486,-0.078 0,0.0816 c 0,0.14658 0.1180042,0.26458 0.2645834,0.26458 l 0.5291666,0 c 0.1465792,0 0.2645834,-0.118 0.2645834,-0.26458 l 0,-0.0816 -0.1565804,0.0786 a 0.13231723,0.13231724 0 1 1 -0.1183482,-0.23668 l 0.260985,-0.13074 a 0.1323049,0.13230491 0 0 1 0.014023,-0.006 l 0,-0.23358 -0.1565805,0.0786 a 0.13231723,0.13231724 0 1 1 -0.1183481,-0.23668 l 0.260985,-0.13074 a 0.1323049,0.13230491 0 0 1 0.014023,-0.006 l 0,-0.23358 -0.1565804,0.0786 a 0.13231723,0.13231724 0 1 1 -0.1183481,-0.23668 l 0.2542646,-0.12764 c -0.039846,-0.0955 -0.1336411,-0.16278 -0.2439194,-0.16278 z"
       id="path33749-8"
       inkscape:connector-curvature="0" />
    <path
       inkscape:connector-curvature="0"
       style="fill:#3b3c3d;fill-rule:evenodd;stroke:none;stroke-width:1px;stroke-linecap:butt;stroke-linejoin:miter;stroke-opacity:1"
       d="m 5.0260429,296.33861 0,-1.15056 a 0.13229158,0.13229159 0 0 0 -0.022225,-0.0734 l -0.2201334,-0.3302 a 0.1322918,0.13229181 0 0 1 -0.022225,-0.0734 l 0,-0.6214 a 0.2645835,0.26458352 0 0 0 -0.2645833,-0.26458 l -0.5291667,0 a 0.26458319,0.26458321 0 0 0 -0.2645833,0.26458 l 0,0.6214 a 0.13229153,0.13229154 0 0 1 -0.022225,0.0734 l -0.2201334,0.3302 a 0.13229176,0.13229177 0 0 0 -0.022225,0.0734 l 0,1.15056 a 0.26458324,0.26458326 0 0 0 0.2645834,0.26459 l 1.0583333,0 a 0.26458345,0.26458347 0 0 0 0.2645834,-0.26459 z"
       id="path33801-6" />
    <path
       id="path16685"
       d="m 1.0589861,288.93028 c -0.11027834,0 -0.20407313,0.0673 -0.24391939,0.16277 l 0.25323269,0.12713 a 0.13231723,0.13231724 0 0 1 -0.1183481,0.23667 l -0.15554854,-0.078 0,0.23304 a 0.1323049,0.13230491 0 0 1 0.0129646,0.006 l 0.26098496,0.13071 a 0.13232906,0.13232907 0 0 1 -0.11834808,0.23672 l -0.15554855,-0.0781 0,0.2331 a 0.1323049,0.13230491 0 0 1 0.0129646,0.006 l 0.26098504,0.13076 a 0.13231723,0.13231724 0 0 1 -0.11834817,0.23667 l -0.15554854,-0.078 0,0.0817 c 0,0.14657 0.11800417,0.26458 0.26458331,0.26458 l 0.5291667,0 c 0.1465792,0 0.2645833,-0.11801 0.2645833,-0.26458 l 0,-0.0817 -0.1565804,0.0786 a 0.13231723,0.13231724 0 0 1 -0.1183481,-0.2367 l 0.260985,-0.13073 a 0.1323049,0.13230491 0 0 1 0.014023,-0.006 l 0,-0.23357 -0.1565804,0.0786 a 0.13231723,0.13231724 0 1 1 -0.1183481,-0.23667 l 0.260985,-0.13075 a 0.1323049,0.13230491 0 0 1 0.014023,-0.006 l 0,-0.23357 -0.1565804,0.0786 a 0.13231723,0.13231724 0 0 1 -0.1183481,-0.23669 l 0.2542645,-0.12767 c -0.039846,-0.0955 -0.133641,-0.16277 -0.2439193,-0.16277 z"
       style="opacity:1;fill:#3b3c3d;fill-opacity:1;stroke:none;stroke-width:1;stroke-linecap:round;stroke-linejoin:round;stroke-miterlimit:4;stroke-dasharray:none;stroke-opacity:1"
       inkscape:connector-curvature="0" />
    <path
       id="path16687"
       d="m 6.8782585,294.75111 c -0.1102783,0 -0.2040731,0.0673 -0.2439193,0.16277 l 0.2532327,0.12714 a 0.13231723,0.13231724 0 0 1 -0.1183482,0.23667 l -0.1555485,-0.078 0,0.23307 a 0.1323049,0.13230491 0 0 1 0.012965,0.006 l 0.260985,0.13075 a 0.13231723,0.13231724 0 0 1 -0.1183481,0.23667 l -0.1555486,-0.078 0,0.23304 a 0.1323049,0.13230491 0 0 1 0.012965,0.006 l 0.260985,0.13073 a 0.13231723,0.13231724 0 0 1 -0.1183481,0.23667 l -0.1555486,-0.078 0,0.0817 c 0,0.14658 0.1180042,0.26458 0.2645834,0.26458 l 0.5291666,0 c 0.1465792,0 0.2645834,-0.118 0.2645834,-0.26458 l 0,-0.0817 -0.1565804,0.0786 a 0.13231723,0.13231724 0 1 1 -0.1183482,-0.23667 l 0.260985,-0.13075 a 0.1323049,0.13230491 0 0 1 0.014023,-0.006 l 0,-0.23357 -0.1565805,0.0785 a 0.13231723,0.13231724 0 1 1 -0.1183481,-0.23667 l 0.260985,-0.13073 a 0.1323049,0.13230491 0 0 1 0.014023,-0.006 l 0,-0.23358 -0.1565804,0.0786 a 0.13231723,0.13231724 0 1 1 -0.1183481,-0.23667 l 0.2542646,-0.12767 c -0.039846,-0.0955 -0.1336411,-0.16277 -0.2439194,-0.16277 z"
       style="opacity:1;fill:#3b3c3d;fill-opacity:1;stroke:none;stroke-width:1;stroke-linecap:round;stroke-linejoin:round;stroke-miterlimit:4;stroke-dasharray:none;stroke-opacity:1"
       inkscape:connector-curvature="0" />
    <path
       inkscape:connector-curvature="0"
       style="opacity:1;fill:#3b3c3d;fill-opacity:1;stroke:none;stroke-width:1;stroke-linecap:round;stroke-linejoin:round;stroke-miterlimit:4;stroke-dasharray:none;stroke-opacity:1"
       d="m 1.0589861,294.75111 c -0.11027834,0 -0.20407313,0.0673 -0.24391939,0.16277 l 0.25323269,0.12714 a 0.13231723,0.13231724 0 0 1 -0.1183481,0.23667 l -0.15554854,-0.078 0,0.23305 a 0.1323049,0.13230491 0 0 1 0.0129646,0.006 l 0.26098496,0.1307 a 0.13232906,0.13232907 0 0 1 -0.11834808,0.23672 l -0.15554855,-0.0781 0,0.2331 a 0.1323049,0.13230491 0 0 1 0.0129646,0.006 l 0.26098504,0.13075 a 0.13231723,0.13231724 0 0 1 -0.11834817,0.23667 l -0.15554854,-0.078 0,0.0817 c 0,0.14658 0.11800417,0.26458 0.26458331,0.26458 l 0.5291667,0 c 0.1465792,0 0.2645833,-0.118 0.2645833,-0.26458 l 0,-0.0817 -0.1565804,0.0786 a 0.13231723,0.13231724 0 0 1 -0.1183481,-0.23669 l 0.260985,-0.13073 a 0.1323049,0.13230491 0 0 1 0.014023,-0.006 l 0,-0.23358 -0.1565804,0.0786 a 0.13231723,0.13231724 0 1 1 -0.1183481,-0.23667 l 0.260985,-0.13076 a 0.1323049,0.13230491 0 0 1 0.014023,-0.006 l 0,-0.23358 -0.1565804,0.0786 a 0.13231723,0.13231724 0 0 1 -0.1183481,-0.2367 l 0.2542645,-0.12766 c -0.039846,-0.0955 -0.133641,-0.16277 -0.2439193,-0.16277 z"
       id="path16689" />
  </g>
</svg>
