<?xml version="1.0" encoding="UTF-8" standalone="no"?>
<!-- Created with Inkscape (http://www.inkscape.org/) -->

<svg
   xmlns:dc="http://purl.org/dc/elements/1.1/"
   xmlns:cc="http://creativecommons.org/ns#"
   xmlns:rdf="http://www.w3.org/1999/02/22-rdf-syntax-ns#"
   xmlns:svg="http://www.w3.org/2000/svg"
   xmlns="http://www.w3.org/2000/svg"
   xmlns:sodipodi="http://sodipodi.sourceforge.net/DTD/sodipodi-0.dtd"
   xmlns:inkscape="http://www.inkscape.org/namespaces/inkscape"
   width="32"
   height="32"
   viewBox="0 0 8.4666665 8.4666669"
   version="1.1"
   id="svg8"
   inkscape:version="0.91 r13725"
   sodipodi:docname="convertible-car-wagon-auto-vehicle-luxury.svg">
  <defs
     id="defs2">
    <inkscape:path-effect
       effect="fillet-chamfer"
       id="path-effect6194-9"
       is_visible="true"
       fillet_chamfer_values="-2.083553,1 | -1.5194253,1 | 0,1"
       method="auto"
       radius="2"
       chamfer_steps="1"
       helper_size="0"
       flexible="false"
       use_knot_distance="false"
       ignore_radius_0="false"
       only_selected="true"
       hide_knots="false" />
    <inkscape:path-effect
       effect="fillet-chamfer"
       id="path-effect6200-3"
       is_visible="true"
       fillet_chamfer_values="0,0 | -2.1346047,1 | -1.3969861,1 | -0.057274208,1 | -0.16666667,1"
       method="auto"
       radius="0.5"
       chamfer_steps="1"
       helper_size="0"
       flexible="false"
       use_knot_distance="false"
       ignore_radius_0="false"
       only_selected="true"
       hide_knots="false" />
    <pattern
       y="0"
       x="0"
       height="6"
       width="6"
       patternUnits="userSpaceOnUse"
       id="EMFhbasepattern" />
    <pattern
       y="0"
       x="0"
       height="6"
       width="6"
       patternUnits="userSpaceOnUse"
       id="EMFhbasepattern-6" />
    <inkscape:path-effect
       effect="fillet-chamfer"
       id="path-effect6795-9"
       is_visible="true"
       fillet_chamfer_values="0,0 | -2,1 | -2,1 | -2,1"
       method="auto"
       radius="2"
       chamfer_steps="1"
       helper_size="0"
       flexible="false"
       use_knot_distance="false"
       ignore_radius_0="false"
       only_selected="true"
       hide_knots="false" />
    <pattern
       y="0"
       x="0"
       height="6"
       width="6"
       patternUnits="userSpaceOnUse"
       id="EMFhbasepattern-4" />
    <pattern
       y="0"
       x="0"
       height="6"
       width="6"
       patternUnits="userSpaceOnUse"
       id="EMFhbasepattern-3" />
    <pattern
       y="0"
       x="0"
       height="6"
       width="6"
       patternUnits="userSpaceOnUse"
       id="EMFhbasepattern-0" />
    <inkscape:path-effect
       effect="fillet-chamfer"
       id="path-effect5842-1-6-2-7"
       is_visible="true"
       fillet_chamfer_values="0,0 | -0.49999733,1 | -0.50000267,1"
       method="auto"
       radius="0.5"
       chamfer_steps="1"
       helper_size="0"
       flexible="false"
       use_knot_distance="false"
       ignore_radius_0="false"
       only_selected="true"
       hide_knots="false" />
    <inkscape:path-effect
       effect="fillet-chamfer"
       id="path-effect9698-1"
       is_visible="true"
       fillet_chamfer_values="0,0 | -0.71730365,1"
       method="auto"
       radius="1"
       chamfer_steps="1"
       helper_size="0"
       flexible="false"
       use_knot_distance="false"
       ignore_radius_0="false"
       only_selected="true"
       hide_knots="false" />
  </defs>
  <sodipodi:namedview
     id="base"
     pagecolor="#ffffff"
     bordercolor="#666666"
     borderopacity="1.0"
     inkscape:pageopacity="0.0"
     inkscape:pageshadow="2"
     inkscape:zoom="15.999999"
     inkscape:cx="7.6807993"
     inkscape:cy="15.351949"
     inkscape:document-units="mm"
     inkscape:current-layer="layer1"
     showgrid="true"
     units="px"
     inkscape:window-width="1366"
     inkscape:window-height="716"
     inkscape:window-x="-8"
     inkscape:window-y="-8"
     inkscape:window-maximized="1">
    <inkscape:grid
       type="xygrid"
       id="grid4726" />
  </sodipodi:namedview>
  <metadata
     id="metadata5">
    <rdf:RDF>
      <cc:Work
         rdf:about="">
        <dc:format>image/svg+xml</dc:format>
        <dc:type
           rdf:resource="http://purl.org/dc/dcmitype/StillImage" />
        <dc:title />
      </cc:Work>
    </rdf:RDF>
  </metadata>
  <g
     inkscape:label="Layer 1"
     inkscape:groupmode="layer"
     id="layer1"
     transform="translate(0,-288.53332)">
    <path
       inkscape:connector-curvature="0"
       style="opacity:1;fill:#3b3c3d;fill-opacity:1;stroke:none;stroke-width:0.99999994;stroke-linecap:round;stroke-linejoin:round;stroke-miterlimit:4;stroke-dasharray:none;stroke-opacity:1"
       d="m 2.171436,292.89894 a 0.59531252,0.59531256 0 0 0 -0.5953125,0.59532 0.59531252,0.59531256 0 0 0 0.5953125,0.59531 0.59531252,0.59531256 0 0 0 0.5953125,-0.59531 0.59531252,0.59531256 0 0 0 -0.5953125,-0.59532 z m 0,0.39688 a 0.19843751,0.19843752 0 0 1 0.1984375,0.19844 0.19843751,0.19843752 0 0 1 -0.1984375,0.19843 0.19843751,0.19843752 0 0 1 -0.1984375,-0.19843 0.19843751,0.19843752 0 0 1 0.1984375,-0.19844 z"
       id="path31329" />
    <path
       inkscape:connector-curvature="0"
       style="opacity:1;fill:#3b3c3d;fill-opacity:1;stroke:none;stroke-width:0.99999994;stroke-linecap:round;stroke-linejoin:round;stroke-miterlimit:4;stroke-dasharray:none;stroke-opacity:1"
       d="m 6.1401861,292.89894 a 0.59531252,0.59531256 0 0 0 -0.5953125,0.59532 0.59531252,0.59531256 0 0 0 0.5953125,0.59531 0.59531252,0.59531256 0 0 0 0.5953125,-0.59531 0.59531252,0.59531256 0 0 0 -0.5953125,-0.59532 z m 0,0.39688 a 0.19843751,0.19843752 0 0 1 0.1984375,0.19844 0.19843751,0.19843752 0 0 1 -0.1984375,0.19843 0.19843751,0.19843752 0 0 1 -0.1984375,-0.19843 0.19843751,0.19843752 0 0 1 0.1984375,-0.19844 z"
       id="path31288" />
    <path
       inkscape:connector-curvature="0"
       style="fill:#3b3c3d;fill-rule:evenodd;stroke:none;stroke-width:1px;stroke-linecap:butt;stroke-linejoin:round;stroke-opacity:1"
       d="m 3.8912277,291.44374 1.0583334,0.79375 -3.3072917,0 c -0.2996936,0 -0.5500688,0.22862 -0.5772151,0.5271 l -0.060457,0.66508 c -0.0129645,0.1415 0.098716,0.26302 0.2407973,0.26302 l 0.1607344,0 c -0.016669,-0.0639 -0.028443,-0.12954 -0.028443,-0.19843 0,-0.43604 0.3577431,-0.79375 0.79375,-0.79375 0.4360334,0 0.7937501,0.35771 0.7937501,0.79375 0,0.0689 -0.011642,0.13454 -0.028416,0.19843 l 2.438109,0 c -0.016669,-0.0639 -0.028443,-0.12954 -0.028443,-0.19843 0,-0.43604 0.3577431,-0.79375 0.79375,-0.79375 0.4360334,0 0.7937501,0.35771 0.7937501,0.79375 0,0.0689 -0.011642,0.13454 -0.028416,0.19843 l 0.2929996,0 c 0.1461294,0 0.2645833,-0.11845 0.2645833,-0.26458 l 0,-0.2372 c 0,-0.39502 -0.2905654,-0.73014 -0.6815931,-0.786 l -0.9022821,-0.12866 c -0.1761067,-0.0251 -0.3429529,-0.0943 -0.4852459,-0.20103 l -0.8412956,-0.63148 z m -2.38125,1.01491 a 0.13229167,0.13229168 0 0 1 0.1322917,0.13229 0.13229167,0.13229168 0 0 1 -0.1322917,0.13229 0.13229167,0.13229168 0 0 1 -0.1322917,-0.13229 0.13229167,0.13229168 0 0 1 0.1322917,-0.13229 z"
       id="path23892-7-7" />
    <path
       sodipodi:nodetypes="cccc"
       style="fill:#3b3c3d;fill-rule:evenodd;stroke:none;stroke-width:1px;stroke-linecap:butt;stroke-linejoin:round;stroke-opacity:1"
       d="m 2.8116219,292.07548 -0.814414,-0.401 -0.376211,0.401 z"
       id="path24024-7-5"
       inkscape:connector-curvature="0" />
  </g>
</svg>
