<?xml version="1.0" encoding="UTF-8" standalone="no"?>
<!-- Created with Inkscape (http://www.inkscape.org/) -->

<svg
   xmlns:dc="http://purl.org/dc/elements/1.1/"
   xmlns:cc="http://creativecommons.org/ns#"
   xmlns:rdf="http://www.w3.org/1999/02/22-rdf-syntax-ns#"
   xmlns:svg="http://www.w3.org/2000/svg"
   xmlns="http://www.w3.org/2000/svg"
   xmlns:sodipodi="http://sodipodi.sourceforge.net/DTD/sodipodi-0.dtd"
   xmlns:inkscape="http://www.inkscape.org/namespaces/inkscape"
   width="32"
   height="32"
   viewBox="0 0 8.4666665 8.4666669"
   version="1.1"
   id="svg8"
   inkscape:version="0.91 r13725"
   sodipodi:docname="disc-brake-car-part-vehicle-service-drum.svg">
  <defs
     id="defs2">
    <inkscape:path-effect
       effect="fillet-chamfer"
       id="path-effect6194-9"
       is_visible="true"
       fillet_chamfer_values="-2.083553,1 | -1.5194253,1 | 0,1"
       method="auto"
       radius="2"
       chamfer_steps="1"
       helper_size="0"
       flexible="false"
       use_knot_distance="false"
       ignore_radius_0="false"
       only_selected="true"
       hide_knots="false" />
    <inkscape:path-effect
       effect="fillet-chamfer"
       id="path-effect6200-3"
       is_visible="true"
       fillet_chamfer_values="0,0 | -2.1346047,1 | -1.3969861,1 | -0.057274208,1 | -0.16666667,1"
       method="auto"
       radius="0.5"
       chamfer_steps="1"
       helper_size="0"
       flexible="false"
       use_knot_distance="false"
       ignore_radius_0="false"
       only_selected="true"
       hide_knots="false" />
    <pattern
       y="0"
       x="0"
       height="6"
       width="6"
       patternUnits="userSpaceOnUse"
       id="EMFhbasepattern" />
    <pattern
       y="0"
       x="0"
       height="6"
       width="6"
       patternUnits="userSpaceOnUse"
       id="EMFhbasepattern-6" />
    <inkscape:path-effect
       effect="fillet-chamfer"
       id="path-effect6795-9"
       is_visible="true"
       fillet_chamfer_values="0,0 | -2,1 | -2,1 | -2,1"
       method="auto"
       radius="2"
       chamfer_steps="1"
       helper_size="0"
       flexible="false"
       use_knot_distance="false"
       ignore_radius_0="false"
       only_selected="true"
       hide_knots="false" />
    <pattern
       y="0"
       x="0"
       height="6"
       width="6"
       patternUnits="userSpaceOnUse"
       id="EMFhbasepattern-4" />
    <pattern
       y="0"
       x="0"
       height="6"
       width="6"
       patternUnits="userSpaceOnUse"
       id="EMFhbasepattern-3" />
    <pattern
       y="0"
       x="0"
       height="6"
       width="6"
       patternUnits="userSpaceOnUse"
       id="EMFhbasepattern-0" />
    <inkscape:path-effect
       effect="fillet-chamfer"
       id="path-effect5842-1-6-2-7"
       is_visible="true"
       fillet_chamfer_values="0,0 | -0.49999733,1 | -0.50000267,1"
       method="auto"
       radius="0.5"
       chamfer_steps="1"
       helper_size="0"
       flexible="false"
       use_knot_distance="false"
       ignore_radius_0="false"
       only_selected="true"
       hide_knots="false" />
    <inkscape:path-effect
       effect="fillet-chamfer"
       id="path-effect9698-1"
       is_visible="true"
       fillet_chamfer_values="0,0 | -0.71730365,1"
       method="auto"
       radius="1"
       chamfer_steps="1"
       helper_size="0"
       flexible="false"
       use_knot_distance="false"
       ignore_radius_0="false"
       only_selected="true"
       hide_knots="false" />
  </defs>
  <sodipodi:namedview
     id="base"
     pagecolor="#ffffff"
     bordercolor="#666666"
     borderopacity="1.0"
     inkscape:pageopacity="0.0"
     inkscape:pageshadow="2"
     inkscape:zoom="11.313708"
     inkscape:cx="-13.435824"
     inkscape:cy="19.616211"
     inkscape:document-units="mm"
     inkscape:current-layer="layer1"
     showgrid="true"
     units="px"
     inkscape:window-width="1366"
     inkscape:window-height="716"
     inkscape:window-x="-8"
     inkscape:window-y="-8"
     inkscape:window-maximized="1">
    <inkscape:grid
       type="xygrid"
       id="grid4726" />
  </sodipodi:namedview>
  <metadata
     id="metadata5">
    <rdf:RDF>
      <cc:Work
         rdf:about="">
        <dc:format>image/svg+xml</dc:format>
        <dc:type
           rdf:resource="http://purl.org/dc/dcmitype/StillImage" />
        <dc:title></dc:title>
      </cc:Work>
    </rdf:RDF>
  </metadata>
  <g
     inkscape:label="Layer 1"
     inkscape:groupmode="layer"
     id="layer1"
     transform="translate(0,-288.53332)">
    <path
       inkscape:connector-curvature="0"
       id="path57178"
       d="m 2.6624715,289.2209 c -0.4355041,0.20156 -0.8351837,0.4693 -1.1704637,0.8046 -0.3354388,0.33544 -0.60298546,0.73472 -0.80459797,1.17047 l 0.76324357,0.32247 c 0.1599671,-0.33745 0.3566848,-0.6559 0.6175375,-0.91675 0.2608792,-0.26088 0.5793052,-0.45808 0.9167548,-0.61804 z m -0.1844939,0.47644 a 0.1323049,0.13230491 0 0 1 0.012965,0 0.1323049,0.13230491 0 0 1 0.063553,0.24548 c -0.4655344,0.28731 -0.8572765,0.67958 -1.1446405,1.14514 a 0.13236439,0.1323644 0 0 1 -0.2252927,-0.13901 c 0.308954,-0.50062 0.7303294,-0.92197 1.2309211,-1.23092 a 0.1323049,0.13230491 0 0 1 0.062521,-0.0206 z"
       style="color:#000000;font-style:normal;font-variant:normal;font-weight:normal;font-stretch:normal;font-size:medium;line-height:normal;font-family:sans-serif;text-indent:0;text-align:start;text-decoration:none;text-decoration-line:none;text-decoration-style:solid;text-decoration-color:#000000;letter-spacing:normal;word-spacing:normal;text-transform:none;direction:ltr;writing-mode:lr-tb;baseline-shift:baseline;text-anchor:start;white-space:normal;clip-rule:nonzero;display:inline;overflow:visible;visibility:visible;opacity:1;isolation:auto;mix-blend-mode:normal;color-interpolation:sRGB;color-interpolation-filters:linearRGB;solid-color:#000000;solid-opacity:1;fill:#3b3c3d;fill-opacity:1;fill-rule:nonzero;stroke:none;stroke-width:1;stroke-linecap:butt;stroke-linejoin:round;stroke-miterlimit:4;stroke-dasharray:none;stroke-dashoffset:0;stroke-opacity:1;color-rendering:auto;image-rendering:auto;shape-rendering:auto;text-rendering:auto;enable-background:accumulate" />
    <path
       inkscape:connector-curvature="0"
       id="path33379-2"
       d="m 4.4737297,289.43432 c -0.4470929,-0.0175 -0.902044,0.0557 -1.340485,0.22013 l 0.1369483,0.32404 a 0.13230489,0.1323049 0 0 1 -0.070273,0.17362 c -0.3553354,0.15033 -0.6757723,0.36774 -0.9446684,0.63664 -0.2688696,0.26889 -0.4863571,0.5888 -0.6366404,0.94414 a 0.13230489,0.1323049 0 0 1 -0.1731169,0.0703 l -0.3245379,-0.13692 c -0.55991127,1.49304 -0.023019,3.18058 1.3125979,4.0695 1.3667847,0.90964 3.1835726,0.72742 4.3423683,-0.43564 1.1587956,-1.16308 1.3342938,-2.98047 0.4196027,-4.3439 -0.6288352,-0.93737 -1.6514234,-1.47973 -2.7217953,-1.52188 z m -0.1348846,1.14773 a 2.2898586,2.2898588 0 0 1 2.2897836,2.28979 2.2898586,2.2898588 0 0 1 -2.2897836,2.28978 2.2898586,2.2898588 0 0 1 -2.2897571,-2.28978 2.2898586,2.2898588 0 0 1 2.2897571,-2.28979 z"
       style="color:#000000;font-style:normal;font-variant:normal;font-weight:normal;font-stretch:normal;font-size:medium;line-height:normal;font-family:sans-serif;text-indent:0;text-align:start;text-decoration:none;text-decoration-line:none;text-decoration-style:solid;text-decoration-color:#000000;letter-spacing:normal;word-spacing:normal;text-transform:none;direction:ltr;writing-mode:lr-tb;baseline-shift:baseline;text-anchor:start;white-space:normal;clip-rule:nonzero;display:inline;overflow:visible;visibility:visible;opacity:1;isolation:auto;mix-blend-mode:normal;color-interpolation:sRGB;color-interpolation-filters:linearRGB;solid-color:#000000;solid-opacity:1;fill:#3b3c3d;fill-opacity:1;fill-rule:nonzero;stroke:none;stroke-width:1;stroke-linecap:butt;stroke-linejoin:round;stroke-miterlimit:4;stroke-dasharray:none;stroke-dashoffset:0;stroke-opacity:1;color-rendering:auto;image-rendering:auto;shape-rendering:auto;text-rendering:auto;enable-background:accumulate" />
    <path
       inkscape:connector-curvature="0"
       id="path33383-8"
       d="m 4.3388451,290.88746 a 1.9843704,1.9843705 0 0 0 -1.984375,1.98438 1.9843704,1.9843705 0 0 0 1.984375,1.98437 1.9843704,1.9843705 0 0 0 1.9843751,-1.98437 1.9843704,1.9843705 0 0 0 -1.9843751,-1.98438 z m -0.8009731,0.66093 a 0.26531536,0.26531538 0 0 1 0.2222235,0.10906 0.26531536,0.26531538 0 0 1 -0.058923,0.37103 0.26531536,0.26531538 0 0 1 -0.3705225,-0.0589 0.26531536,0.26531538 0 0 1 0.058394,-0.37049 0.26531536,0.26531538 0 0 1 0.1488281,-0.0507 z m 1.5833725,0 a 0.26531536,0.26531538 0 0 1 0.1674284,0.0507 0.26531536,0.26531538 0 0 1 0.058923,0.37049 0.26531536,0.26531538 0 0 1 -0.3710517,0.0589 0.26531536,0.26531538 0 0 1 -0.058394,-0.37103 0.26531536,0.26531538 0 0 1 0.2030941,-0.10906 z m -0.7823994,0.79428 a 0.52916668,0.52916672 0 0 1 0.5291667,0.52917 0.52916668,0.52916672 0 0 1 -0.5291667,0.52916 0.52916668,0.52916672 0 0 1 -0.5291666,-0.52916 0.52916668,0.52916672 0 0 1 0.5291666,-0.52917 z m -1.2603692,0.66146 a 0.26479593,0.26479595 0 0 1 0.2557992,0.18293 0.26479593,0.26479595 0 0 1 -0.1700212,0.33383 0.26479593,0.26479595 0 0 1 -0.3338248,-0.17002 0.26479593,0.26479595 0 0 1 0.1700212,-0.33383 0.26479593,0.26479595 0 0 1 0.078026,-0.013 z m 2.5021647,0 a 0.26479593,0.26479595 0 0 1 0.026458,0 0.26479593,0.26479595 0 0 1 0.070802,0.013 0.26479593,0.26479595 0 0 1 0.1700213,0.33383 0.26479593,0.26479595 0 0 1 -0.3338248,0.17002 0.26479593,0.26479595 0 0 1 -0.1700213,-0.33383 0.26479593,0.26479595 0 0 1 0.2366698,-0.18293 z m -1.2417955,0.92604 a 0.26457874,0.26457876 0 0 1 0.2645834,0.26458 0.26457874,0.26457876 0 0 1 -0.2645834,0.26459 0.26457874,0.26457876 0 0 1 -0.2645833,-0.26459 0.26457874,0.26457876 0 0 1 0.2645833,-0.26458 z"
       style="opacity:1;fill:#3b3c3d;fill-opacity:1;stroke:none;stroke-width:0.99999994;stroke-linecap:butt;stroke-linejoin:round;stroke-miterlimit:4;stroke-dasharray:none;stroke-opacity:1" />
  </g>
</svg>
