<?xml version="1.0" encoding="UTF-8" standalone="no"?>
<!-- Created with Inkscape (http://www.inkscape.org/) -->

<svg
   xmlns:dc="http://purl.org/dc/elements/1.1/"
   xmlns:cc="http://creativecommons.org/ns#"
   xmlns:rdf="http://www.w3.org/1999/02/22-rdf-syntax-ns#"
   xmlns:svg="http://www.w3.org/2000/svg"
   xmlns="http://www.w3.org/2000/svg"
   xmlns:sodipodi="http://sodipodi.sourceforge.net/DTD/sodipodi-0.dtd"
   xmlns:inkscape="http://www.inkscape.org/namespaces/inkscape"
   width="32"
   height="32"
   viewBox="0 0 8.4666665 8.4666669"
   version="1.1"
   id="svg8"
   inkscape:version="0.91 r13725"
   sodipodi:docname="drivetrain-trouble-car-indicator-warning-auto-service.svg">
  <defs
     id="defs2">
    <inkscape:path-effect
       effect="fillet-chamfer"
       id="path-effect6194-9"
       is_visible="true"
       fillet_chamfer_values="-2.083553,1 | -1.5194253,1 | 0,1"
       method="auto"
       radius="2"
       chamfer_steps="1"
       helper_size="0"
       flexible="false"
       use_knot_distance="false"
       ignore_radius_0="false"
       only_selected="true"
       hide_knots="false" />
    <inkscape:path-effect
       effect="fillet-chamfer"
       id="path-effect6200-3"
       is_visible="true"
       fillet_chamfer_values="0,0 | -2.1346047,1 | -1.3969861,1 | -0.057274208,1 | -0.16666667,1"
       method="auto"
       radius="0.5"
       chamfer_steps="1"
       helper_size="0"
       flexible="false"
       use_knot_distance="false"
       ignore_radius_0="false"
       only_selected="true"
       hide_knots="false" />
    <pattern
       y="0"
       x="0"
       height="6"
       width="6"
       patternUnits="userSpaceOnUse"
       id="EMFhbasepattern" />
    <pattern
       y="0"
       x="0"
       height="6"
       width="6"
       patternUnits="userSpaceOnUse"
       id="EMFhbasepattern-6" />
    <inkscape:path-effect
       effect="fillet-chamfer"
       id="path-effect6795-9"
       is_visible="true"
       fillet_chamfer_values="0,0 | -2,1 | -2,1 | -2,1"
       method="auto"
       radius="2"
       chamfer_steps="1"
       helper_size="0"
       flexible="false"
       use_knot_distance="false"
       ignore_radius_0="false"
       only_selected="true"
       hide_knots="false" />
    <pattern
       y="0"
       x="0"
       height="6"
       width="6"
       patternUnits="userSpaceOnUse"
       id="EMFhbasepattern-4" />
    <pattern
       y="0"
       x="0"
       height="6"
       width="6"
       patternUnits="userSpaceOnUse"
       id="EMFhbasepattern-3" />
    <pattern
       y="0"
       x="0"
       height="6"
       width="6"
       patternUnits="userSpaceOnUse"
       id="EMFhbasepattern-0" />
    <inkscape:path-effect
       effect="fillet-chamfer"
       id="path-effect5842-1-6-2-7"
       is_visible="true"
       fillet_chamfer_values="0,0 | -0.49999733,1 | -0.50000267,1"
       method="auto"
       radius="0.5"
       chamfer_steps="1"
       helper_size="0"
       flexible="false"
       use_knot_distance="false"
       ignore_radius_0="false"
       only_selected="true"
       hide_knots="false" />
    <inkscape:path-effect
       effect="fillet-chamfer"
       id="path-effect9698-1"
       is_visible="true"
       fillet_chamfer_values="0,0 | -0.71730365,1"
       method="auto"
       radius="1"
       chamfer_steps="1"
       helper_size="0"
       flexible="false"
       use_knot_distance="false"
       ignore_radius_0="false"
       only_selected="true"
       hide_knots="false" />
  </defs>
  <sodipodi:namedview
     id="base"
     pagecolor="#ffffff"
     bordercolor="#666666"
     borderopacity="1.0"
     inkscape:pageopacity="0.0"
     inkscape:pageshadow="2"
     inkscape:zoom="11.313708"
     inkscape:cx="-13.435824"
     inkscape:cy="19.616211"
     inkscape:document-units="mm"
     inkscape:current-layer="layer1"
     showgrid="true"
     units="px"
     inkscape:window-width="1366"
     inkscape:window-height="716"
     inkscape:window-x="-8"
     inkscape:window-y="-8"
     inkscape:window-maximized="1">
    <inkscape:grid
       type="xygrid"
       id="grid4726" />
  </sodipodi:namedview>
  <metadata
     id="metadata5">
    <rdf:RDF>
      <cc:Work
         rdf:about="">
        <dc:format>image/svg+xml</dc:format>
        <dc:type
           rdf:resource="http://purl.org/dc/dcmitype/StillImage" />
        <dc:title />
      </cc:Work>
    </rdf:RDF>
  </metadata>
  <g
     inkscape:label="Layer 1"
     inkscape:groupmode="layer"
     id="layer1"
     transform="translate(0,-288.53332)">
    <path
       style="fill:#3b3c3d;fill-rule:evenodd;stroke:none;stroke-width:0.99999994px;stroke-linecap:round;stroke-linejoin:round;stroke-opacity:1"
       d="m 3.8964047,289.19477 -0.3369469,0.66662 c 0,0 -0.3217862,0.10221 -0.4774935,0.16692 -0.1490663,0.062 -0.43561,0.21135 -0.43561,0.21135 l -0.699188,-0.24339 -0.4795573,0.47906 0.2335742,0.7095 c 0,0 -0.1522413,0.307 -0.216535,0.46562 -0.059637,0.14713 -0.1565804,0.45008 -0.1565804,0.45008 l -0.66661776,0.32194 0,0.678 0.66661776,0.33642 c 0,0 0.1064948,0.30694 0.1684866,0.45683 0.063976,0.15486 0.2097882,0.4568 0.2097882,0.4568 l -0.243893,0.69919 0.4795309,0.47905 0.7095331,-0.23307 c 0,0 0.2973917,0.14695 0.4506119,0.21032 0.14986,0.062 0.4573323,0.16536 0.4573323,0.16536 l 0.3369469,0.66715 0.6779948,0 0.321945,-0.66715 c 0,0 0.3133725,-0.11297 0.4671484,-0.17671 0.1507331,-0.0625 0.4459552,-0.20156 0.4459552,-0.20156 l 0.7095331,0.23357 0.4795573,-0.47903 -0.2439193,-0.69969 c 0,0 0.1449387,-0.29861 0.2092854,-0.45167 0.063447,-0.15086 0.1741487,-0.45939 0.1741487,-0.45939 l 0.6671469,-0.33642 0,-0.678 -0.6671469,-0.32194 c 0,0 -0.112395,-0.3088 -0.1751806,-0.46043 -0.063315,-0.15293 -0.2030942,-0.4532 -0.2030942,-0.4532 l 0.2335742,-0.70951 -0.4795573,-0.47905 -0.6991615,0.24391 c 0,0 -0.2989527,-0.14425 -0.4521729,-0.20775 -0.1531144,-0.0634 -0.4661165,-0.17311 -0.4661165,-0.17311 l -0.321945,-0.66662 z m -0.059955,1.5875 0.79375,0 0,1.45521 -0.1322916,1.19062 -0.5291667,0 -0.1322917,-1.19062 z m 0.396875,3.30729 c 0.183224,0 0.3307292,0.14751 0.3307292,0.33073 0,0.18322 -0.1475052,0.33073 -0.3307292,0.33073 -0.1832239,0 -0.3307291,-0.14751 -0.3307291,-0.33073 0,-0.18322 0.1475052,-0.33073 0.3307291,-0.33073 z"
       id="path34943-0"
       inkscape:connector-curvature="0" />
  </g>
</svg>
