<?xml version="1.0" encoding="UTF-8" standalone="no"?>
<!-- Created with Inkscape (http://www.inkscape.org/) -->

<svg
   xmlns:dc="http://purl.org/dc/elements/1.1/"
   xmlns:cc="http://creativecommons.org/ns#"
   xmlns:rdf="http://www.w3.org/1999/02/22-rdf-syntax-ns#"
   xmlns:svg="http://www.w3.org/2000/svg"
   xmlns="http://www.w3.org/2000/svg"
   xmlns:sodipodi="http://sodipodi.sourceforge.net/DTD/sodipodi-0.dtd"
   xmlns:inkscape="http://www.inkscape.org/namespaces/inkscape"
   width="32"
   height="32"
   viewBox="0 0 8.4666665 8.4666669"
   version="1.1"
   id="svg8"
   inkscape:version="0.91 r13725"
   sodipodi:docname="filter-car-air-part-service-automobile-vehicle.svg">
  <defs
     id="defs2">
    <inkscape:path-effect
       effect="fillet-chamfer"
       id="path-effect6194-9"
       is_visible="true"
       fillet_chamfer_values="-2.083553,1 | -1.5194253,1 | 0,1"
       method="auto"
       radius="2"
       chamfer_steps="1"
       helper_size="0"
       flexible="false"
       use_knot_distance="false"
       ignore_radius_0="false"
       only_selected="true"
       hide_knots="false" />
    <inkscape:path-effect
       effect="fillet-chamfer"
       id="path-effect6200-3"
       is_visible="true"
       fillet_chamfer_values="0,0 | -2.1346047,1 | -1.3969861,1 | -0.057274208,1 | -0.16666667,1"
       method="auto"
       radius="0.5"
       chamfer_steps="1"
       helper_size="0"
       flexible="false"
       use_knot_distance="false"
       ignore_radius_0="false"
       only_selected="true"
       hide_knots="false" />
    <pattern
       y="0"
       x="0"
       height="6"
       width="6"
       patternUnits="userSpaceOnUse"
       id="EMFhbasepattern" />
    <pattern
       y="0"
       x="0"
       height="6"
       width="6"
       patternUnits="userSpaceOnUse"
       id="EMFhbasepattern-6" />
    <inkscape:path-effect
       effect="fillet-chamfer"
       id="path-effect6795-9"
       is_visible="true"
       fillet_chamfer_values="0,0 | -2,1 | -2,1 | -2,1"
       method="auto"
       radius="2"
       chamfer_steps="1"
       helper_size="0"
       flexible="false"
       use_knot_distance="false"
       ignore_radius_0="false"
       only_selected="true"
       hide_knots="false" />
    <pattern
       y="0"
       x="0"
       height="6"
       width="6"
       patternUnits="userSpaceOnUse"
       id="EMFhbasepattern-4" />
    <pattern
       y="0"
       x="0"
       height="6"
       width="6"
       patternUnits="userSpaceOnUse"
       id="EMFhbasepattern-3" />
    <pattern
       y="0"
       x="0"
       height="6"
       width="6"
       patternUnits="userSpaceOnUse"
       id="EMFhbasepattern-0" />
    <inkscape:path-effect
       effect="fillet-chamfer"
       id="path-effect5842-1-6-2-7"
       is_visible="true"
       fillet_chamfer_values="0,0 | -0.49999733,1 | -0.50000267,1"
       method="auto"
       radius="0.5"
       chamfer_steps="1"
       helper_size="0"
       flexible="false"
       use_knot_distance="false"
       ignore_radius_0="false"
       only_selected="true"
       hide_knots="false" />
    <inkscape:path-effect
       effect="fillet-chamfer"
       id="path-effect9698-1"
       is_visible="true"
       fillet_chamfer_values="0,0 | -0.71730365,1"
       method="auto"
       radius="1"
       chamfer_steps="1"
       helper_size="0"
       flexible="false"
       use_knot_distance="false"
       ignore_radius_0="false"
       only_selected="true"
       hide_knots="false" />
  </defs>
  <sodipodi:namedview
     id="base"
     pagecolor="#ffffff"
     bordercolor="#666666"
     borderopacity="1.0"
     inkscape:pageopacity="0.0"
     inkscape:pageshadow="2"
     inkscape:zoom="11.313708"
     inkscape:cx="-13.435824"
     inkscape:cy="19.616211"
     inkscape:document-units="mm"
     inkscape:current-layer="layer1"
     showgrid="true"
     units="px"
     inkscape:window-width="1366"
     inkscape:window-height="716"
     inkscape:window-x="-8"
     inkscape:window-y="-8"
     inkscape:window-maximized="1">
    <inkscape:grid
       type="xygrid"
       id="grid4726" />
  </sodipodi:namedview>
  <metadata
     id="metadata5">
    <rdf:RDF>
      <cc:Work
         rdf:about="">
        <dc:format>image/svg+xml</dc:format>
        <dc:type
           rdf:resource="http://purl.org/dc/dcmitype/StillImage" />
        <dc:title />
      </cc:Work>
    </rdf:RDF>
  </metadata>
  <g
     inkscape:label="Layer 1"
     inkscape:groupmode="layer"
     id="layer1"
     transform="translate(0,-288.53332)">
    <path
       style="opacity:1;fill:#3b3c3d;fill-opacity:1;stroke:none;stroke-width:1.00157475;stroke-linecap:round;stroke-linejoin:round;stroke-miterlimit:4;stroke-dasharray:none;stroke-opacity:1"
       d="m 0.92629016,289.06273 c -0.14657917,0 -0.26458334,0.11801 -0.26458334,0.26459 l 0,6.87866 c 0,0.14658 0.11800417,0.26458 0.26458334,0.26458 l 6.61408074,0 c 0.1465792,0 0.2645834,-0.118 0.2645834,-0.26458 l 0,-6.87866 c 0,-0.14658 -0.1180042,-0.26459 -0.2645834,-0.26459 z m 0.39687504,0.52917 2.513039,0 c 0.07329,0 0.1322917,0.059 0.1322917,0.13229 l 0,0.26458 -2.7776224,0 0,-0.26458 c 0,-0.0733 0.059002,-0.13229 0.1322917,-0.13229 z m 3.3072917,0 2.513039,0 c 0.07329,0 0.1322917,0.059 0.1322917,0.13229 l 0,0.26458 -2.7776224,0 0,-0.26458 c 0,-0.0733 0.059002,-0.13229 0.1322917,-0.13229 z m -3.4395834,0.66146 2.7776224,0 0,0.26458 -2.7776224,0 z m 3.3072917,0 2.7776224,0 0,0.26458 -2.7776224,0 z m -3.3072917,0.52916 2.7776224,0 0,0.26459 -2.7776224,0 z m 3.3072917,0 2.7776224,0 0,0.26459 -2.7776224,0 z m -3.3072917,0.52917 2.7776224,0 0,0.26458 -2.7776224,0 z m 3.3072917,0 2.7776224,0 0,0.26458 -2.7776224,0 z m -3.3072917,0.52917 2.7776224,0 0,0.26458 -2.7776224,0 z m 3.3072917,0 2.7776224,0 0,0.26458 -2.7776224,0 z m -3.3072917,0.52916 2.7776224,0 0,0.26459 -2.7776224,0 z m 3.3072917,0 2.7776224,0 0,0.26459 -2.7776224,0 z m -3.3072917,0.52917 2.7776224,0 0,0.26458 -2.7776224,0 z m 3.3072917,0 2.7776224,0 0,0.26458 -2.7776224,0 z m -3.3072917,0.52917 2.7776224,0 0,0.26458 -2.7776224,0 z m 3.3072917,0 2.7776224,0 0,0.26458 -2.7776224,0 z m -3.3072917,0.52917 2.7776224,0 0,0.26458 -2.7776224,0 z m 3.3072917,0 2.7776224,0 0,0.26458 -2.7776224,0 z m -3.3072917,0.52916 2.7776224,0 0,0.26459 -2.7776224,0 z m 3.3072917,0 2.7776224,0 0,0.26459 -2.7776224,0 z m -3.3072917,0.52917 2.7776224,0 0,0.26458 -2.7776224,0 z m 3.3072917,0 2.7776224,0 0,0.26458 -2.7776224,0 z m -3.3072917,0.52917 2.7776224,0 0,0.26408 c 0,0.0733 -0.059002,0.13229 -0.1322917,0.13229 l -2.513039,0 c -0.07329,0 -0.1322917,-0.059 -0.1322917,-0.13229 z m 3.3072917,0 2.7776224,0 0,0.26408 c 0,0.0733 -0.059002,0.13229 -0.1322917,0.13229 l -2.513039,0 c -0.07329,0 -0.1322917,-0.059 -0.1322917,-0.13229 z"
       id="path33023-1"
       inkscape:connector-curvature="0" />
  </g>
</svg>
