<?xml version="1.0" encoding="UTF-8" standalone="no"?>
<!-- Created with Inkscape (http://www.inkscape.org/) -->

<svg
   xmlns:dc="http://purl.org/dc/elements/1.1/"
   xmlns:cc="http://creativecommons.org/ns#"
   xmlns:rdf="http://www.w3.org/1999/02/22-rdf-syntax-ns#"
   xmlns:svg="http://www.w3.org/2000/svg"
   xmlns="http://www.w3.org/2000/svg"
   xmlns:sodipodi="http://sodipodi.sourceforge.net/DTD/sodipodi-0.dtd"
   xmlns:inkscape="http://www.inkscape.org/namespaces/inkscape"
   width="32"
   height="32"
   viewBox="0 0 8.4666665 8.4666669"
   version="1.1"
   id="svg8"
   inkscape:version="0.91 r13725"
   sodipodi:docname="hand-brake-parking-car-part-vehicle.svg">
  <defs
     id="defs2">
    <inkscape:path-effect
       effect="fillet-chamfer"
       id="path-effect6194-9"
       is_visible="true"
       fillet_chamfer_values="-2.083553,1 | -1.5194253,1 | 0,1"
       method="auto"
       radius="2"
       chamfer_steps="1"
       helper_size="0"
       flexible="false"
       use_knot_distance="false"
       ignore_radius_0="false"
       only_selected="true"
       hide_knots="false" />
    <inkscape:path-effect
       effect="fillet-chamfer"
       id="path-effect6200-3"
       is_visible="true"
       fillet_chamfer_values="0,0 | -2.1346047,1 | -1.3969861,1 | -0.057274208,1 | -0.16666667,1"
       method="auto"
       radius="0.5"
       chamfer_steps="1"
       helper_size="0"
       flexible="false"
       use_knot_distance="false"
       ignore_radius_0="false"
       only_selected="true"
       hide_knots="false" />
    <pattern
       y="0"
       x="0"
       height="6"
       width="6"
       patternUnits="userSpaceOnUse"
       id="EMFhbasepattern" />
    <pattern
       y="0"
       x="0"
       height="6"
       width="6"
       patternUnits="userSpaceOnUse"
       id="EMFhbasepattern-6" />
    <inkscape:path-effect
       effect="fillet-chamfer"
       id="path-effect6795-9"
       is_visible="true"
       fillet_chamfer_values="0,0 | -2,1 | -2,1 | -2,1"
       method="auto"
       radius="2"
       chamfer_steps="1"
       helper_size="0"
       flexible="false"
       use_knot_distance="false"
       ignore_radius_0="false"
       only_selected="true"
       hide_knots="false" />
    <pattern
       y="0"
       x="0"
       height="6"
       width="6"
       patternUnits="userSpaceOnUse"
       id="EMFhbasepattern-4" />
    <pattern
       y="0"
       x="0"
       height="6"
       width="6"
       patternUnits="userSpaceOnUse"
       id="EMFhbasepattern-3" />
    <pattern
       y="0"
       x="0"
       height="6"
       width="6"
       patternUnits="userSpaceOnUse"
       id="EMFhbasepattern-0" />
    <inkscape:path-effect
       effect="fillet-chamfer"
       id="path-effect5842-1-6-2-7"
       is_visible="true"
       fillet_chamfer_values="0,0 | -0.49999733,1 | -0.50000267,1"
       method="auto"
       radius="0.5"
       chamfer_steps="1"
       helper_size="0"
       flexible="false"
       use_knot_distance="false"
       ignore_radius_0="false"
       only_selected="true"
       hide_knots="false" />
    <inkscape:path-effect
       effect="fillet-chamfer"
       id="path-effect9698-1"
       is_visible="true"
       fillet_chamfer_values="0,0 | -0.71730365,1"
       method="auto"
       radius="1"
       chamfer_steps="1"
       helper_size="0"
       flexible="false"
       use_knot_distance="false"
       ignore_radius_0="false"
       only_selected="true"
       hide_knots="false" />
  </defs>
  <sodipodi:namedview
     id="base"
     pagecolor="#ffffff"
     bordercolor="#666666"
     borderopacity="1.0"
     inkscape:pageopacity="0.0"
     inkscape:pageshadow="2"
     inkscape:zoom="11.313708"
     inkscape:cx="-13.435824"
     inkscape:cy="19.616211"
     inkscape:document-units="mm"
     inkscape:current-layer="layer1"
     showgrid="true"
     units="px"
     inkscape:window-width="1366"
     inkscape:window-height="716"
     inkscape:window-x="-8"
     inkscape:window-y="-8"
     inkscape:window-maximized="1">
    <inkscape:grid
       type="xygrid"
       id="grid4726" />
  </sodipodi:namedview>
  <metadata
     id="metadata5">
    <rdf:RDF>
      <cc:Work
         rdf:about="">
        <dc:format>image/svg+xml</dc:format>
        <dc:type
           rdf:resource="http://purl.org/dc/dcmitype/StillImage" />
        <dc:title />
      </cc:Work>
    </rdf:RDF>
  </metadata>
  <g
     inkscape:label="Layer 1"
     inkscape:groupmode="layer"
     id="layer1"
     transform="translate(0,-288.53332)">
    <path
       style="fill:#3b3c3d;fill-rule:evenodd;stroke:none;stroke-width:1px;stroke-linecap:butt;stroke-linejoin:round;stroke-opacity:1"
       d="m 7.0670226,290.16292 -0.378804,0.11988 a 0.1323049,0.13230491 0 0 1 0.00265,0.004 l 0.1984375,0.62682 a 0.1323049,0.13230491 0 1 1 -0.2521744,0.0801 l -0.1984375,-0.62736 a 0.1323049,0.13230491 0 0 1 0,-0.004 l -0.2527036,0.0801 a 0.1323049,0.13230491 0 0 1 0.00265,0.004 l 0.1984375,0.62736 a 0.1323049,0.13230491 0 1 1 -0.2521744,0.0796 L 5.936458,290.52627 a 0.1323049,0.13230491 0 0 1 0,-0.004 l -0.2527036,0.0801 a 0.1323049,0.13230491 0 0 1 0.00265,0.004 l 0.1984375,0.62736 a 0.1323049,0.13230491 0 1 1 -0.2521744,0.0796 l -0.1984375,-0.62685 a 0.1323049,0.13230491 0 0 1 0,-0.004 l -0.2532063,0.0801 a 0.1323049,0.13230491 0 0 1 0.00265,0.004 l 0.1989402,0.62735 a 0.1323049,0.13230491 0 1 1 -0.2521744,0.0796 l -0.1989402,-0.62683 a 0.1323049,0.13230491 0 0 1 0,-0.004 l -0.2526771,0.0796 a 0.1323049,0.13230491 0 0 1 0.00265,0.004 l 0.1984375,0.62735 a 0.1323049,0.13230491 0 1 1 -0.2521743,0.0796 l -0.1984375,-0.62682 a 0.1323049,0.13230491 0 0 1 0,-0.004 l -0.2527036,0.0796 a 0.1323049,0.13230491 0 0 1 0.00265,0.004 l 0.1984375,0.62733 a 0.1323049,0.13230491 0 1 1 -0.2521743,0.0796 L 3.9270534,291.165 a 0.1323049,0.13230491 0 0 1 0,-0.004 l -0.2526771,0.0796 a 0.1323049,0.13230491 0 0 1 0.00265,0.004 l 0.1984375,0.62735 a 0.1323049,0.13230491 0 1 1 -0.2521744,0.0796 l -0.1984375,-0.62682 a 0.1323049,0.13230491 0 0 1 0,-0.004 l -0.2527035,0.0796 a 0.1323049,0.13230491 0 0 1 0.00265,0.004 l 0.1984375,0.62736 a 0.1323049,0.13230491 0 1 1 -0.2521744,0.0801 l -0.1989666,-0.62736 a 0.1323049,0.13230491 0 0 1 0,-0.004 l -0.182933,0.0579 c -0.023283,0.007 -0.045614,0.0169 -0.068739,0.0249 l 0.1984375,0.62683 a 0.1323049,0.13230491 0 1 1 -0.2521744,0.0801 l -0.1938073,-0.61185 c -0.088186,0.0387 -0.1734608,0.0816 -0.256831,0.12766 a 0.1323049,0.13230491 0 0 1 0.00979,0.0212 l 0.2242873,0.60257 a 0.13236616,0.13236617 0 0 1 -0.2480468,0.0925 l -0.214974,-0.57725 c -0.080539,0.0539 -0.1583002,0.11142 -0.2330715,0.17209 a 0.13230489,0.1323049 0 0 1 0.014552,0.0269 l 0.1746779,0.43151 a 0.13238674,0.13238675 0 1 1 -0.2454804,0.0992 l -0.1513946,-0.37415 c -0.60274728,0.58431 -0.96453854,1.3992 -0.96067562,2.27894 l 0.003704,0.81079 2.64583335,0 -0.017992,-1.13067 c -0.010848,-0.69255 0.4341812,-1.31022 1.0945019,-1.5193 l 3.3011005,-1.04489 z m -5.2213935,4.01783 a 0.26457874,0.26457876 0 0 1 0.2645834,0.26458 0.26457874,0.26457876 0 0 1 -0.2645834,0.26459 0.26457874,0.26457876 0 0 1 -0.2645833,-0.26459 0.26457874,0.26457876 0 0 1 0.2645833,-0.26458 z"
       id="path34361-5"
       inkscape:connector-curvature="0" />
    <path
       sodipodi:nodetypes="ccccc"
       style="fill:#3b3c3d;fill-rule:evenodd;stroke:none;stroke-width:1px;stroke-linecap:butt;stroke-linejoin:round;stroke-opacity:1"
       d="m 7.1869318,290.54122 0.504481,-0.15973 0.2395802,0.75674 -0.504481,0.15973 z"
       id="path34363-7"
       inkscape:connector-curvature="0" />
  </g>
</svg>
