<?xml version="1.0" encoding="UTF-8" standalone="no"?>
<!-- Created with Inkscape (http://www.inkscape.org/) -->

<svg
   xmlns:dc="http://purl.org/dc/elements/1.1/"
   xmlns:cc="http://creativecommons.org/ns#"
   xmlns:rdf="http://www.w3.org/1999/02/22-rdf-syntax-ns#"
   xmlns:svg="http://www.w3.org/2000/svg"
   xmlns="http://www.w3.org/2000/svg"
   xmlns:sodipodi="http://sodipodi.sourceforge.net/DTD/sodipodi-0.dtd"
   xmlns:inkscape="http://www.inkscape.org/namespaces/inkscape"
   width="32"
   height="32"
   viewBox="0 0 8.4666665 8.4666669"
   version="1.1"
   id="svg8"
   inkscape:version="0.91 r13725"
   sodipodi:docname="hatchback-car-auto-travel-transport-vehicle.svg">
  <defs
     id="defs2">
    <inkscape:path-effect
       effect="fillet-chamfer"
       id="path-effect6194-9"
       is_visible="true"
       fillet_chamfer_values="-2.083553,1 | -1.5194253,1 | 0,1"
       method="auto"
       radius="2"
       chamfer_steps="1"
       helper_size="0"
       flexible="false"
       use_knot_distance="false"
       ignore_radius_0="false"
       only_selected="true"
       hide_knots="false" />
    <inkscape:path-effect
       effect="fillet-chamfer"
       id="path-effect6200-3"
       is_visible="true"
       fillet_chamfer_values="0,0 | -2.1346047,1 | -1.3969861,1 | -0.057274208,1 | -0.16666667,1"
       method="auto"
       radius="0.5"
       chamfer_steps="1"
       helper_size="0"
       flexible="false"
       use_knot_distance="false"
       ignore_radius_0="false"
       only_selected="true"
       hide_knots="false" />
    <pattern
       y="0"
       x="0"
       height="6"
       width="6"
       patternUnits="userSpaceOnUse"
       id="EMFhbasepattern" />
    <pattern
       y="0"
       x="0"
       height="6"
       width="6"
       patternUnits="userSpaceOnUse"
       id="EMFhbasepattern-6" />
    <inkscape:path-effect
       effect="fillet-chamfer"
       id="path-effect6795-9"
       is_visible="true"
       fillet_chamfer_values="0,0 | -2,1 | -2,1 | -2,1"
       method="auto"
       radius="2"
       chamfer_steps="1"
       helper_size="0"
       flexible="false"
       use_knot_distance="false"
       ignore_radius_0="false"
       only_selected="true"
       hide_knots="false" />
    <pattern
       y="0"
       x="0"
       height="6"
       width="6"
       patternUnits="userSpaceOnUse"
       id="EMFhbasepattern-4" />
    <pattern
       y="0"
       x="0"
       height="6"
       width="6"
       patternUnits="userSpaceOnUse"
       id="EMFhbasepattern-3" />
    <pattern
       y="0"
       x="0"
       height="6"
       width="6"
       patternUnits="userSpaceOnUse"
       id="EMFhbasepattern-0" />
    <inkscape:path-effect
       effect="fillet-chamfer"
       id="path-effect5842-1-6-2-7"
       is_visible="true"
       fillet_chamfer_values="0,0 | -0.49999733,1 | -0.50000267,1"
       method="auto"
       radius="0.5"
       chamfer_steps="1"
       helper_size="0"
       flexible="false"
       use_knot_distance="false"
       ignore_radius_0="false"
       only_selected="true"
       hide_knots="false" />
    <inkscape:path-effect
       effect="fillet-chamfer"
       id="path-effect9698-1"
       is_visible="true"
       fillet_chamfer_values="0,0 | -0.71730365,1"
       method="auto"
       radius="1"
       chamfer_steps="1"
       helper_size="0"
       flexible="false"
       use_knot_distance="false"
       ignore_radius_0="false"
       only_selected="true"
       hide_knots="false" />
  </defs>
  <sodipodi:namedview
     id="base"
     pagecolor="#ffffff"
     bordercolor="#666666"
     borderopacity="1.0"
     inkscape:pageopacity="0.0"
     inkscape:pageshadow="2"
     inkscape:zoom="15.999999"
     inkscape:cx="7.6807993"
     inkscape:cy="15.351949"
     inkscape:document-units="mm"
     inkscape:current-layer="layer1"
     showgrid="true"
     units="px"
     inkscape:window-width="1366"
     inkscape:window-height="716"
     inkscape:window-x="-8"
     inkscape:window-y="-8"
     inkscape:window-maximized="1">
    <inkscape:grid
       type="xygrid"
       id="grid4726" />
  </sodipodi:namedview>
  <metadata
     id="metadata5">
    <rdf:RDF>
      <cc:Work
         rdf:about="">
        <dc:format>image/svg+xml</dc:format>
        <dc:type
           rdf:resource="http://purl.org/dc/dcmitype/StillImage" />
        <dc:title />
      </cc:Work>
    </rdf:RDF>
  </metadata>
  <g
     inkscape:label="Layer 1"
     inkscape:groupmode="layer"
     id="layer1"
     transform="translate(0,-288.53332)">
    <path
       inkscape:connector-curvature="0"
       id="path23169-2-4-1-3-4"
       d="m 2.2293274,291.50988 c -0.3841486,0 -0.747104,0.17645 -0.9844352,0.47853 l -0.2310078,0.29403 c -0.0783431,0.0997 -0.12091454,0.22251 -0.12091454,0.34933 l 0,0.7302 c 0,0.14613 0.11845394,0.26458 0.26458334,0.26458 l 0.094562,0 c -0.016669,-0.0639 -0.028416,-0.12954 -0.028416,-0.19844 0,-0.43603 0.3577432,-0.79375 0.7937501,-0.79375 0.4360333,0 0.79375,0.35772 0.79375,0.79375 0,0.0689 -0.011642,0.13454 -0.028416,0.19844 l 2.6365201,0 c -0.016669,-0.0639 -0.028416,-0.12954 -0.028416,-0.19844 0,-0.43603 0.3577432,-0.79375 0.7937501,-0.79375 0.4360333,0 0.79375,0.35772 0.79375,0.79375 0,0.0689 -0.011642,0.13454 -0.028416,0.19844 l 0.3591455,0 c 0.1461293,0 0.2645833,-0.11845 0.2645833,-0.26458 l 0,-0.11266 c 0,-0.39177 -0.2855913,-0.72488 -0.6728354,-0.78444 l -0.5234782,-0.0806 -0.5234781,-0.0806 -1.0226675,-0.58446 c -0.2398713,-0.13706 -0.5112809,-0.20929 -0.7875588,-0.20929 z m 1.3037873,1.05834 0.2645834,0 0,0.26458 -0.2645834,0 z m 1.5833726,0 a 0.13230488,0.13230489 0 0 1 0.00926,0 l 0.1286668,0 a 0.13230488,0.13230489 0 1 1 0,0.26458 l -0.1286668,0 a 0.1323736,0.13237361 0 0 1 -0.00926,-0.26458 z"
       style="fill:#3b3c3d;fill-rule:evenodd;stroke:none;stroke-width:1px;stroke-linecap:butt;stroke-linejoin:round;stroke-opacity:1" />
    <path
       style="opacity:1;fill:#3b3c3d;fill-opacity:1;stroke:none;stroke-width:1;stroke-linecap:round;stroke-linejoin:round;stroke-miterlimit:4;stroke-dasharray:none;stroke-opacity:1"
       d="m 2.0174491,292.8328 c -0.3287713,0 -0.5953126,0.26651 -0.5953126,0.59531 0,0.3288 0.2665413,0.59531 0.5953126,0.59531 0.3287977,0 0.5953125,-0.26651 0.5953125,-0.59531 0,-0.3288 -0.2665148,-0.59531 -0.5953125,-0.59531 z m 0,0.39687 a 0.19843751,0.19843752 0 0 1 0.1984375,0.19844 0.19843751,0.19843752 0 0 1 -0.1984375,0.19844 0.19843751,0.19843752 0 0 1 -0.1984376,-0.19844 0.19843751,0.19843752 0 0 1 0.1984376,-0.19844 z"
       id="path31127"
       inkscape:connector-curvature="0" />
    <path
       style="opacity:1;fill:#3b3c3d;fill-opacity:1;stroke:none;stroke-width:1;stroke-linecap:round;stroke-linejoin:round;stroke-miterlimit:4;stroke-dasharray:none;stroke-opacity:1"
       d="m 6.1846367,292.8328 c -0.3287713,0 -0.5953126,0.26651 -0.5953126,0.59531 0,0.3288 0.2665413,0.59531 0.5953126,0.59531 0.3287977,0 0.5953125,-0.26651 0.5953125,-0.59531 0,-0.3288 -0.2665148,-0.59531 -0.5953125,-0.59531 z m 0,0.39687 a 0.19843751,0.19843752 0 0 1 0.1984375,0.19844 0.19843751,0.19843752 0 0 1 -0.1984375,0.19844 0.19843751,0.19843752 0 0 1 -0.1984375,-0.19844 0.19843751,0.19843752 0 0 1 0.1984375,-0.19844 z"
       id="path23489-7-1-2-1"
       inkscape:connector-curvature="0" />
  </g>
</svg>
