<?xml version="1.0" encoding="UTF-8" standalone="no"?>
<!-- Created with Inkscape (http://www.inkscape.org/) -->

<svg
   xmlns:dc="http://purl.org/dc/elements/1.1/"
   xmlns:cc="http://creativecommons.org/ns#"
   xmlns:rdf="http://www.w3.org/1999/02/22-rdf-syntax-ns#"
   xmlns:svg="http://www.w3.org/2000/svg"
   xmlns="http://www.w3.org/2000/svg"
   xmlns:sodipodi="http://sodipodi.sourceforge.net/DTD/sodipodi-0.dtd"
   xmlns:inkscape="http://www.inkscape.org/namespaces/inkscape"
   width="32"
   height="32"
   viewBox="0 0 8.4666665 8.4666669"
   version="1.1"
   id="svg8"
   inkscape:version="0.91 r13725"
   sodipodi:docname="ignition-key-car-start-on-off-lock.svg">
  <defs
     id="defs2">
    <inkscape:path-effect
       effect="fillet-chamfer"
       id="path-effect6194-9"
       is_visible="true"
       fillet_chamfer_values="-2.083553,1 | -1.5194253,1 | 0,1"
       method="auto"
       radius="2"
       chamfer_steps="1"
       helper_size="0"
       flexible="false"
       use_knot_distance="false"
       ignore_radius_0="false"
       only_selected="true"
       hide_knots="false" />
    <inkscape:path-effect
       effect="fillet-chamfer"
       id="path-effect6200-3"
       is_visible="true"
       fillet_chamfer_values="0,0 | -2.1346047,1 | -1.3969861,1 | -0.057274208,1 | -0.16666667,1"
       method="auto"
       radius="0.5"
       chamfer_steps="1"
       helper_size="0"
       flexible="false"
       use_knot_distance="false"
       ignore_radius_0="false"
       only_selected="true"
       hide_knots="false" />
    <pattern
       y="0"
       x="0"
       height="6"
       width="6"
       patternUnits="userSpaceOnUse"
       id="EMFhbasepattern" />
    <pattern
       y="0"
       x="0"
       height="6"
       width="6"
       patternUnits="userSpaceOnUse"
       id="EMFhbasepattern-6" />
    <inkscape:path-effect
       effect="fillet-chamfer"
       id="path-effect6795-9"
       is_visible="true"
       fillet_chamfer_values="0,0 | -2,1 | -2,1 | -2,1"
       method="auto"
       radius="2"
       chamfer_steps="1"
       helper_size="0"
       flexible="false"
       use_knot_distance="false"
       ignore_radius_0="false"
       only_selected="true"
       hide_knots="false" />
    <pattern
       y="0"
       x="0"
       height="6"
       width="6"
       patternUnits="userSpaceOnUse"
       id="EMFhbasepattern-4" />
    <pattern
       y="0"
       x="0"
       height="6"
       width="6"
       patternUnits="userSpaceOnUse"
       id="EMFhbasepattern-3" />
    <pattern
       y="0"
       x="0"
       height="6"
       width="6"
       patternUnits="userSpaceOnUse"
       id="EMFhbasepattern-0" />
    <inkscape:path-effect
       effect="fillet-chamfer"
       id="path-effect5842-1-6-2-7"
       is_visible="true"
       fillet_chamfer_values="0,0 | -0.49999733,1 | -0.50000267,1"
       method="auto"
       radius="0.5"
       chamfer_steps="1"
       helper_size="0"
       flexible="false"
       use_knot_distance="false"
       ignore_radius_0="false"
       only_selected="true"
       hide_knots="false" />
    <inkscape:path-effect
       effect="fillet-chamfer"
       id="path-effect9698-1"
       is_visible="true"
       fillet_chamfer_values="0,0 | -0.71730365,1"
       method="auto"
       radius="1"
       chamfer_steps="1"
       helper_size="0"
       flexible="false"
       use_knot_distance="false"
       ignore_radius_0="false"
       only_selected="true"
       hide_knots="false" />
  </defs>
  <sodipodi:namedview
     id="base"
     pagecolor="#ffffff"
     bordercolor="#666666"
     borderopacity="1.0"
     inkscape:pageopacity="0.0"
     inkscape:pageshadow="2"
     inkscape:zoom="11.313708"
     inkscape:cx="-1.5917845"
     inkscape:cy="19.616211"
     inkscape:document-units="mm"
     inkscape:current-layer="layer1"
     showgrid="true"
     units="px"
     inkscape:window-width="1366"
     inkscape:window-height="716"
     inkscape:window-x="-8"
     inkscape:window-y="-8"
     inkscape:window-maximized="1">
    <inkscape:grid
       type="xygrid"
       id="grid4726" />
  </sodipodi:namedview>
  <metadata
     id="metadata5">
    <rdf:RDF>
      <cc:Work
         rdf:about="">
        <dc:format>image/svg+xml</dc:format>
        <dc:type
           rdf:resource="http://purl.org/dc/dcmitype/StillImage" />
        <dc:title />
      </cc:Work>
    </rdf:RDF>
  </metadata>
  <g
     inkscape:label="Layer 1"
     inkscape:groupmode="layer"
     id="layer1"
     transform="translate(0,-288.53332)">
    <path
       inkscape:connector-curvature="0"
       id="path32235-1"
       d="m 4.2857825,289.19451 a 3.5727072,3.5727075 0 0 0 -2.5786557,1.04593 3.5727072,3.5727075 0 0 0 0,5.0524 3.5727072,3.5727075 0 0 0 5.0524041,0 3.5727072,3.5727075 0 0 0 0,-5.0524 3.5727072,3.5727075 0 0 0 -2.4737484,-1.04593 z m -0.052176,0.66146 a 0.26458334,0.26458336 0 0 1 0.2645833,0.26459 0.26458334,0.26458336 0 0 1 -0.2645833,0.26458 0.26458334,0.26458336 0 0 1 -0.2645833,-0.26458 0.26458334,0.26458336 0 0 1 0.2645833,-0.26459 z m -1.8484851,0.79322 a 0.26541445,0.26541447 0 0 1 0.1839648,0.0775 0.26541445,0.26541447 0 0 1 0,0.37568 0.26541445,0.26541447 0 0 1 -0.3756818,0 0.26541445,0.26541447 0 0 1 0,-0.37568 0.26541445,0.26541447 0 0 1 0.191717,-0.0775 z m 1.8732766,0.39688 a 1.7206232,1.7206234 0 0 1 1.1916569,0.50384 1.7206232,1.7206234 0 0 1 0,2.43346 1.7206232,1.7206234 0 0 1 -2.4334259,0 1.7206232,1.7206234 0 0 1 0,-2.43346 1.7206232,1.7206234 0 0 1 1.241769,-0.50384 z m -2.6726887,1.52188 c 0.074454,0 0.1352021,0.0593 0.1343555,0.13383 -2.65e-5,0.71263 0.2883693,1.35601 0.7549885,1.82263 0.083264,0.0833 0.024342,0.22577 -0.09353,0.22582 l -0.5746485,0 c -0.1789113,0.003 -0.1789113,-0.26722 0,-0.26458 l 0.2764631,0 c -0.3936736,-0.49138 -0.6278827,-1.09725 -0.6278563,-1.78334 0,-0.0729 0.057362,-0.13386 0.1302279,-0.13386 z m 1.4588067,2.4474 a 0.13229167,0.13229168 0 0 1 0.091996,0.0388 0.13229167,0.13229168 0 0 1 0,0.18706 0.13229167,0.13229168 0 0 1 -0.1870604,0 0.13229167,0.13229168 0 0 1 0,-0.18706 0.13229167,0.13229168 0 0 1 0.095065,-0.0388 z"
       style="opacity:1;fill:#3b3c3d;fill-opacity:1;stroke:none;stroke-width:1;stroke-linecap:round;stroke-linejoin:round;stroke-miterlimit:4;stroke-dasharray:none;stroke-opacity:1" />
    <path
       sodipodi:nodetypes="ccccc"
       inkscape:connector-curvature="0"
       id="path32241-1"
       d="m 3.1750605,292.1684 0.4601477,-0.46016 1.6565301,1.65653 -0.4601477,0.46016 z"
       style="display:inline;opacity:1;fill:#3b3c3d;fill-opacity:1;stroke:none;stroke-width:0.99999982;stroke-linecap:round;stroke-linejoin:round;stroke-miterlimit:4;stroke-dasharray:none;stroke-opacity:1" />
  </g>
</svg>
