<?xml version="1.0" encoding="UTF-8" standalone="no"?>
<!-- Created with Inkscape (http://www.inkscape.org/) -->

<svg
   xmlns:dc="http://purl.org/dc/elements/1.1/"
   xmlns:cc="http://creativecommons.org/ns#"
   xmlns:rdf="http://www.w3.org/1999/02/22-rdf-syntax-ns#"
   xmlns:svg="http://www.w3.org/2000/svg"
   xmlns="http://www.w3.org/2000/svg"
   xmlns:sodipodi="http://sodipodi.sourceforge.net/DTD/sodipodi-0.dtd"
   xmlns:inkscape="http://www.inkscape.org/namespaces/inkscape"
   width="32"
   height="32"
   viewBox="0 0 8.4666665 8.4666669"
   version="1.1"
   id="svg8"
   inkscape:version="0.91 r13725"
   sodipodi:docname="limo-limousine-car-luxury-saloon-sedan-travel.svg">
  <defs
     id="defs2">
    <inkscape:path-effect
       effect="fillet-chamfer"
       id="path-effect6194-9"
       is_visible="true"
       fillet_chamfer_values="-2.083553,1 | -1.5194253,1 | 0,1"
       method="auto"
       radius="2"
       chamfer_steps="1"
       helper_size="0"
       flexible="false"
       use_knot_distance="false"
       ignore_radius_0="false"
       only_selected="true"
       hide_knots="false" />
    <inkscape:path-effect
       effect="fillet-chamfer"
       id="path-effect6200-3"
       is_visible="true"
       fillet_chamfer_values="0,0 | -2.1346047,1 | -1.3969861,1 | -0.057274208,1 | -0.16666667,1"
       method="auto"
       radius="0.5"
       chamfer_steps="1"
       helper_size="0"
       flexible="false"
       use_knot_distance="false"
       ignore_radius_0="false"
       only_selected="true"
       hide_knots="false" />
    <pattern
       y="0"
       x="0"
       height="6"
       width="6"
       patternUnits="userSpaceOnUse"
       id="EMFhbasepattern" />
    <pattern
       y="0"
       x="0"
       height="6"
       width="6"
       patternUnits="userSpaceOnUse"
       id="EMFhbasepattern-6" />
    <inkscape:path-effect
       effect="fillet-chamfer"
       id="path-effect6795-9"
       is_visible="true"
       fillet_chamfer_values="0,0 | -2,1 | -2,1 | -2,1"
       method="auto"
       radius="2"
       chamfer_steps="1"
       helper_size="0"
       flexible="false"
       use_knot_distance="false"
       ignore_radius_0="false"
       only_selected="true"
       hide_knots="false" />
    <pattern
       y="0"
       x="0"
       height="6"
       width="6"
       patternUnits="userSpaceOnUse"
       id="EMFhbasepattern-4" />
    <pattern
       y="0"
       x="0"
       height="6"
       width="6"
       patternUnits="userSpaceOnUse"
       id="EMFhbasepattern-3" />
    <pattern
       y="0"
       x="0"
       height="6"
       width="6"
       patternUnits="userSpaceOnUse"
       id="EMFhbasepattern-0" />
    <inkscape:path-effect
       effect="fillet-chamfer"
       id="path-effect5842-1-6-2-7"
       is_visible="true"
       fillet_chamfer_values="0,0 | -0.49999733,1 | -0.50000267,1"
       method="auto"
       radius="0.5"
       chamfer_steps="1"
       helper_size="0"
       flexible="false"
       use_knot_distance="false"
       ignore_radius_0="false"
       only_selected="true"
       hide_knots="false" />
    <inkscape:path-effect
       effect="fillet-chamfer"
       id="path-effect9698-1"
       is_visible="true"
       fillet_chamfer_values="0,0 | -0.71730365,1"
       method="auto"
       radius="1"
       chamfer_steps="1"
       helper_size="0"
       flexible="false"
       use_knot_distance="false"
       ignore_radius_0="false"
       only_selected="true"
       hide_knots="false" />
  </defs>
  <sodipodi:namedview
     id="base"
     pagecolor="#ffffff"
     bordercolor="#666666"
     borderopacity="1.0"
     inkscape:pageopacity="0.0"
     inkscape:pageshadow="2"
     inkscape:zoom="15.999999"
     inkscape:cx="7.6807993"
     inkscape:cy="15.351949"
     inkscape:document-units="mm"
     inkscape:current-layer="layer1"
     showgrid="true"
     units="px"
     inkscape:window-width="1366"
     inkscape:window-height="716"
     inkscape:window-x="-8"
     inkscape:window-y="-8"
     inkscape:window-maximized="1">
    <inkscape:grid
       type="xygrid"
       id="grid4726" />
  </sodipodi:namedview>
  <metadata
     id="metadata5">
    <rdf:RDF>
      <cc:Work
         rdf:about="">
        <dc:format>image/svg+xml</dc:format>
        <dc:type
           rdf:resource="http://purl.org/dc/dcmitype/StillImage" />
        <dc:title />
      </cc:Work>
    </rdf:RDF>
  </metadata>
  <g
     inkscape:label="Layer 1"
     inkscape:groupmode="layer"
     id="layer1"
     transform="translate(0,-288.53332)">
    <path
       style="fill:#3b3c3d;fill-rule:evenodd;stroke:none;stroke-width:1px;stroke-linecap:butt;stroke-linejoin:miter;stroke-opacity:1"
       d="m 2.3311375,291.64217 a 1.3229167,1.3229168 0 0 0 -0.8469842,0.30695 l -0.352425,0.29353 a 0.26458334,0.26458336 0 0 1 -0.16951854,0.061 l -0.43304356,0 a 0.21566179,0.21566181 0 0 0 -0.21497396,0.19791 l -0.0496094,0.59584 c -0.0730515,0 -0.13229167,0.0592 -0.13229167,0.13229 l 0,0.0661 c 0,0.14613 0.11845397,0.26458 0.26458334,0.26458 l 0.75914257,0 c -0.018521,-0.0636 -0.031538,-0.12919 -0.031538,-0.19843 0,-0.3995 0.3281098,-0.72761 0.7276042,-0.72761 0.3994944,0 0.7276042,0.32811 0.7276042,0.72761 0,0.0692 -0.013229,0.1348 -0.031512,0.19843 l 3.6349253,0 c -0.018521,-0.0636 -0.031538,-0.12919 -0.031538,-0.19843 0,-0.3995 0.3281098,-0.72761 0.7276042,-0.72761 0.3994943,0 0.7276041,0.32811 0.7276041,0.72761 0,0.0692 -0.013229,0.1348 -0.031512,0.19843 l 0.4945327,0 c 0.1461294,0 0.2645833,-0.11845 0.2645833,-0.26458 l 0,-0.0661 c 0,-0.0731 -0.059214,-0.13229 -0.1322916,-0.13229 l -0.010319,0 -0.041857,-0.27027 a 0.61680264,0.61680268 0 0 0 -0.6092825,-0.52348 l -0.8123502,0 a 0.52916668,0.52916672 0 0 1 -0.3224477,-0.10956 l -0.5746486,-0.44183 a 0.52916668,0.52916672 0 0 0 -0.3229769,-0.11007 z"
       id="path24387-8-97"
       inkscape:connector-curvature="0" />
    <path
       inkscape:connector-curvature="0"
       style="opacity:1;fill:#3b3c3d;fill-opacity:1;stroke:none;stroke-width:1;stroke-linecap:round;stroke-linejoin:round;stroke-miterlimit:4;stroke-dasharray:none;stroke-opacity:1"
       d="m 1.8520829,292.8328 a 0.52916668,0.52916672 0 0 0 -0.5291667,0.52917 0.52916668,0.52916672 0 0 0 0.5291667,0.52916 0.52916668,0.52916672 0 0 0 0.5291667,-0.52916 0.52916668,0.52916672 0 0 0 -0.5291667,-0.52917 z m 0,0.33073 a 0.19843751,0.19843752 0 0 1 0.1984375,0.19844 0.19843751,0.19843752 0 0 1 -0.1984375,0.19843 0.19843751,0.19843752 0 0 1 -0.1984375,-0.19843 0.19843751,0.19843752 0 0 1 0.1984375,-0.19844 z"
       id="path31147" />
    <path
       inkscape:connector-curvature="0"
       style="opacity:1;fill:#3b3c3d;fill-opacity:1;stroke:none;stroke-width:1;stroke-linecap:round;stroke-linejoin:round;stroke-miterlimit:4;stroke-dasharray:none;stroke-opacity:1"
       d="m 6.8791664,292.8328 a 0.52916668,0.52916672 0 0 0 -0.5291667,0.52917 0.52916668,0.52916672 0 0 0 0.5291667,0.52916 0.52916668,0.52916672 0 0 0 0.5291666,-0.52916 0.52916668,0.52916672 0 0 0 -0.5291666,-0.52917 z m 0,0.33073 a 0.19843751,0.19843752 0 0 1 0.1984375,0.19844 0.19843751,0.19843752 0 0 1 -0.1984375,0.19843 0.19843751,0.19843752 0 0 1 -0.1984375,-0.19843 0.19843751,0.19843752 0 0 1 0.1984375,-0.19844 z"
       id="path24389-8-2" />
  </g>
</svg>
