<?xml version="1.0" encoding="UTF-8" standalone="no"?>
<!-- Created with Inkscape (http://www.inkscape.org/) -->

<svg
   xmlns:dc="http://purl.org/dc/elements/1.1/"
   xmlns:cc="http://creativecommons.org/ns#"
   xmlns:rdf="http://www.w3.org/1999/02/22-rdf-syntax-ns#"
   xmlns:svg="http://www.w3.org/2000/svg"
   xmlns="http://www.w3.org/2000/svg"
   xmlns:sodipodi="http://sodipodi.sourceforge.net/DTD/sodipodi-0.dtd"
   xmlns:inkscape="http://www.inkscape.org/namespaces/inkscape"
   width="32"
   height="32"
   viewBox="0 0 8.4666665 8.4666669"
   version="1.1"
   id="svg8"
   inkscape:version="0.91 r13725"
   sodipodi:docname="music-system-player-car-set-multimedia-entertainment.svg">
  <defs
     id="defs2">
    <inkscape:path-effect
       effect="fillet-chamfer"
       id="path-effect6194-9"
       is_visible="true"
       fillet_chamfer_values="-2.083553,1 | -1.5194253,1 | 0,1"
       method="auto"
       radius="2"
       chamfer_steps="1"
       helper_size="0"
       flexible="false"
       use_knot_distance="false"
       ignore_radius_0="false"
       only_selected="true"
       hide_knots="false" />
    <inkscape:path-effect
       effect="fillet-chamfer"
       id="path-effect6200-3"
       is_visible="true"
       fillet_chamfer_values="0,0 | -2.1346047,1 | -1.3969861,1 | -0.057274208,1 | -0.16666667,1"
       method="auto"
       radius="0.5"
       chamfer_steps="1"
       helper_size="0"
       flexible="false"
       use_knot_distance="false"
       ignore_radius_0="false"
       only_selected="true"
       hide_knots="false" />
    <pattern
       y="0"
       x="0"
       height="6"
       width="6"
       patternUnits="userSpaceOnUse"
       id="EMFhbasepattern" />
    <pattern
       y="0"
       x="0"
       height="6"
       width="6"
       patternUnits="userSpaceOnUse"
       id="EMFhbasepattern-6" />
    <inkscape:path-effect
       effect="fillet-chamfer"
       id="path-effect6795-9"
       is_visible="true"
       fillet_chamfer_values="0,0 | -2,1 | -2,1 | -2,1"
       method="auto"
       radius="2"
       chamfer_steps="1"
       helper_size="0"
       flexible="false"
       use_knot_distance="false"
       ignore_radius_0="false"
       only_selected="true"
       hide_knots="false" />
    <pattern
       y="0"
       x="0"
       height="6"
       width="6"
       patternUnits="userSpaceOnUse"
       id="EMFhbasepattern-4" />
    <pattern
       y="0"
       x="0"
       height="6"
       width="6"
       patternUnits="userSpaceOnUse"
       id="EMFhbasepattern-3" />
    <pattern
       y="0"
       x="0"
       height="6"
       width="6"
       patternUnits="userSpaceOnUse"
       id="EMFhbasepattern-0" />
    <inkscape:path-effect
       effect="fillet-chamfer"
       id="path-effect5842-1-6-2-7"
       is_visible="true"
       fillet_chamfer_values="0,0 | -0.49999733,1 | -0.50000267,1"
       method="auto"
       radius="0.5"
       chamfer_steps="1"
       helper_size="0"
       flexible="false"
       use_knot_distance="false"
       ignore_radius_0="false"
       only_selected="true"
       hide_knots="false" />
    <inkscape:path-effect
       effect="fillet-chamfer"
       id="path-effect9698-1"
       is_visible="true"
       fillet_chamfer_values="0,0 | -0.71730365,1"
       method="auto"
       radius="1"
       chamfer_steps="1"
       helper_size="0"
       flexible="false"
       use_knot_distance="false"
       ignore_radius_0="false"
       only_selected="true"
       hide_knots="false" />
  </defs>
  <sodipodi:namedview
     id="base"
     pagecolor="#ffffff"
     bordercolor="#666666"
     borderopacity="1.0"
     inkscape:pageopacity="0.0"
     inkscape:pageshadow="2"
     inkscape:zoom="11.313708"
     inkscape:cx="-13.435824"
     inkscape:cy="19.616211"
     inkscape:document-units="mm"
     inkscape:current-layer="layer1"
     showgrid="true"
     units="px"
     inkscape:window-width="1366"
     inkscape:window-height="716"
     inkscape:window-x="-8"
     inkscape:window-y="-8"
     inkscape:window-maximized="1">
    <inkscape:grid
       type="xygrid"
       id="grid4726" />
  </sodipodi:namedview>
  <metadata
     id="metadata5">
    <rdf:RDF>
      <cc:Work
         rdf:about="">
        <dc:format>image/svg+xml</dc:format>
        <dc:type
           rdf:resource="http://purl.org/dc/dcmitype/StillImage" />
        <dc:title />
      </cc:Work>
    </rdf:RDF>
  </metadata>
  <g
     inkscape:label="Layer 1"
     inkscape:groupmode="layer"
     id="layer1"
     transform="translate(0,-288.53332)">
    <path
       inkscape:connector-curvature="0"
       id="path32433-6"
       d="m 0.13229503,290.25311 0,5.02708 8.20208357,0 0,-5.02708 -0.79375,0 -0.191188,0.38293 a 0.26458334,0.26458336 0 0 1 -0.2366962,0.14624 l -5.758286,0 a 0.26458334,0.26458336 0 0 1 -0.2366963,-0.14624 l -0.19171705,-0.38293 z m 0.6635221,0.92554 0.26098497,0 a 0.13230489,0.1323049 0 1 1 0,0.26458 l -0.26098497,0 a 0.13230489,0.1323049 0 1 1 0,-0.26458 z m 6.60529667,0 a 0.13230489,0.1323049 0 0 1 0.00926,0 l 0.260985,0 a 0.13230489,0.1323049 0 1 1 0,0.26458 l -0.260985,0 a 0.13237314,0.13237315 0 0 1 -0.00926,-0.26458 z m -5.6813187,0.13279 5.0270834,0 0,1.05834 -5.0270834,0 z m -0.93326484,0.39638 a 0.13230489,0.1323049 0 0 1 0.00926,0 l 0.26098503,0 a 0.13230489,0.1323049 0 1 1 0,0.26458 l -0.26098503,0 a 0.13237314,0.13237315 0 0 1 -0.00926,-0.26458 z m 0.00926,0.52916 0.26098503,0 a 0.13230489,0.1323049 0 1 1 0,0.26459 l -0.26098503,0 a 0.13230489,0.1323049 0 1 1 0,-0.26459 z m 6.60529663,0 a 0.13230489,0.1323049 0 0 1 0.00926,0 l 0.260985,0 a 0.13230489,0.1323049 0 1 1 0,0.26459 l -0.260985,0 a 0.13237314,0.13237315 0 0 1 -0.00926,-0.26459 z m -3.3000686,0.52917 0.2645833,0 0,0.26458 0,0.013 a 0.79375002,0.79375008 0 0 1 0.6501077,0.64854 l 0.011377,0 0.2645834,0 0,0.26459 -0.2645834,0 -0.011906,0 a 0.79375002,0.79375008 0 0 1 -0.6495786,0.64955 l 0,0.0119 0,0.26458 -0.2645833,0 0,-0.26458 0,-0.0119 a 0.79375002,0.79375008 0 0 1 -0.6506105,-0.64955 l -0.010848,0 -0.2645833,0 0,-0.26459 0.2645833,0 0.012435,0 a 0.79375002,0.79375008 0 0 1 0.6490494,-0.64907 l 0,-0.0124 z m -2.5135418,0.26508 1.3890626,0 A 0.89352691,0.89352698 0 0 0 2.778102,293.5604 l -1.5875001,0 z m 3.9031335,0 1.3885333,0 0.3968751,0.52917 -1.5875001,0 a 0.89352691,0.89352698 0 0 0 -0.1979083,-0.52917 z m -4.3000085,1.05834 1.5875001,0 a 0.89352691,0.89352698 0 0 0 0.1984375,0.52916 l -1.3890626,0 z m 4.4979168,0 1.5875001,0 -0.3968751,0.52916 -1.3885333,0 a 0.89352691,0.89352698 0 0 0 0.1979083,-0.52916 z"
       style="opacity:1;fill:#3b3c3d;fill-opacity:1;stroke:none;stroke-width:1;stroke-linecap:butt;stroke-linejoin:miter;stroke-miterlimit:4;stroke-dasharray:none;stroke-opacity:1" />
    <path
       inkscape:connector-curvature="0"
       style="opacity:1;fill:#3b3c3d;fill-opacity:1;stroke:none;stroke-width:1;stroke-linecap:round;stroke-linejoin:round;stroke-miterlimit:4;stroke-dasharray:none;stroke-opacity:1"
       d="m 4.4981847,293.82485 a 0.26457874,0.26457876 0 0 1 -0.2645833,0.26459 0.26457874,0.26457876 0 0 1 -0.2645834,-0.26459 0.26457874,0.26457876 0 0 1 0.2645834,-0.26458 0.26457874,0.26457876 0 0 1 0.2645833,0.26458 z"
       id="path32437-4" />
  </g>
</svg>
