<?xml version="1.0" encoding="UTF-8" standalone="no"?>
<!-- Created with Inkscape (http://www.inkscape.org/) -->

<svg
   xmlns:dc="http://purl.org/dc/elements/1.1/"
   xmlns:cc="http://creativecommons.org/ns#"
   xmlns:rdf="http://www.w3.org/1999/02/22-rdf-syntax-ns#"
   xmlns:svg="http://www.w3.org/2000/svg"
   xmlns="http://www.w3.org/2000/svg"
   xmlns:sodipodi="http://sodipodi.sourceforge.net/DTD/sodipodi-0.dtd"
   xmlns:inkscape="http://www.inkscape.org/namespaces/inkscape"
   width="32"
   height="32"
   viewBox="0 0 8.4666665 8.4666669"
   version="1.1"
   id="svg8"
   inkscape:version="0.91 r13725"
   sodipodi:docname="open-doors-car-automobile-top-view-door.svg">
  <defs
     id="defs2">
    <inkscape:path-effect
       effect="fillet-chamfer"
       id="path-effect6194-9"
       is_visible="true"
       fillet_chamfer_values="-2.083553,1 | -1.5194253,1 | 0,1"
       method="auto"
       radius="2"
       chamfer_steps="1"
       helper_size="0"
       flexible="false"
       use_knot_distance="false"
       ignore_radius_0="false"
       only_selected="true"
       hide_knots="false" />
    <inkscape:path-effect
       effect="fillet-chamfer"
       id="path-effect6200-3"
       is_visible="true"
       fillet_chamfer_values="0,0 | -2.1346047,1 | -1.3969861,1 | -0.057274208,1 | -0.16666667,1"
       method="auto"
       radius="0.5"
       chamfer_steps="1"
       helper_size="0"
       flexible="false"
       use_knot_distance="false"
       ignore_radius_0="false"
       only_selected="true"
       hide_knots="false" />
    <pattern
       y="0"
       x="0"
       height="6"
       width="6"
       patternUnits="userSpaceOnUse"
       id="EMFhbasepattern" />
    <pattern
       y="0"
       x="0"
       height="6"
       width="6"
       patternUnits="userSpaceOnUse"
       id="EMFhbasepattern-6" />
    <inkscape:path-effect
       effect="fillet-chamfer"
       id="path-effect6795-9"
       is_visible="true"
       fillet_chamfer_values="0,0 | -2,1 | -2,1 | -2,1"
       method="auto"
       radius="2"
       chamfer_steps="1"
       helper_size="0"
       flexible="false"
       use_knot_distance="false"
       ignore_radius_0="false"
       only_selected="true"
       hide_knots="false" />
    <pattern
       y="0"
       x="0"
       height="6"
       width="6"
       patternUnits="userSpaceOnUse"
       id="EMFhbasepattern-4" />
    <pattern
       y="0"
       x="0"
       height="6"
       width="6"
       patternUnits="userSpaceOnUse"
       id="EMFhbasepattern-3" />
    <pattern
       y="0"
       x="0"
       height="6"
       width="6"
       patternUnits="userSpaceOnUse"
       id="EMFhbasepattern-0" />
    <inkscape:path-effect
       effect="fillet-chamfer"
       id="path-effect5842-1-6-2-7"
       is_visible="true"
       fillet_chamfer_values="0,0 | -0.49999733,1 | -0.50000267,1"
       method="auto"
       radius="0.5"
       chamfer_steps="1"
       helper_size="0"
       flexible="false"
       use_knot_distance="false"
       ignore_radius_0="false"
       only_selected="true"
       hide_knots="false" />
    <inkscape:path-effect
       effect="fillet-chamfer"
       id="path-effect9698-1"
       is_visible="true"
       fillet_chamfer_values="0,0 | -0.71730365,1"
       method="auto"
       radius="1"
       chamfer_steps="1"
       helper_size="0"
       flexible="false"
       use_knot_distance="false"
       ignore_radius_0="false"
       only_selected="true"
       hide_knots="false" />
  </defs>
  <sodipodi:namedview
     id="base"
     pagecolor="#ffffff"
     bordercolor="#666666"
     borderopacity="1.0"
     inkscape:pageopacity="0.0"
     inkscape:pageshadow="2"
     inkscape:zoom="11.313708"
     inkscape:cx="-13.435824"
     inkscape:cy="19.616211"
     inkscape:document-units="mm"
     inkscape:current-layer="layer1"
     showgrid="true"
     units="px"
     inkscape:window-width="1366"
     inkscape:window-height="716"
     inkscape:window-x="-8"
     inkscape:window-y="-8"
     inkscape:window-maximized="1">
    <inkscape:grid
       type="xygrid"
       id="grid4726" />
  </sodipodi:namedview>
  <metadata
     id="metadata5">
    <rdf:RDF>
      <cc:Work
         rdf:about="">
        <dc:format>image/svg+xml</dc:format>
        <dc:type
           rdf:resource="http://purl.org/dc/dcmitype/StillImage" />
        <dc:title />
      </cc:Work>
    </rdf:RDF>
  </metadata>
  <g
     inkscape:label="Layer 1"
     inkscape:groupmode="layer"
     id="layer1"
     transform="translate(0,-288.53332)">
    <path
       sodipodi:nodetypes="cccccccccccccccccsscccccccccccccccccsccccccsccccccccccccccccccccccccccccccc"
       inkscape:connector-curvature="0"
       id="path34201-8"
       d="m 4.0390222,289.19931 c -0.2909623,0.013 -0.5798873,0.055 -0.8624888,0.12557 l -0.5291666,0.1323 -0.090937,0.4563 c -0.027411,0.13662 -0.041249,0.27562 -0.041354,0.41496 l 0,1.40818 c 0,0 -0.6243638,0.62368 -0.9358577,0.93535 -0.1292225,0.1247 0.062389,0.3163 0.1870868,0.18707 l 0.7498028,-0.75035 0,0.94982 c -0.0045,0.003 -0.009,0.007 -0.012965,0.0114 l -0.9244807,0.92501 c -0.1247246,0.12506 0.062865,0.31213 0.1875896,0.18707 l 0.7498028,-0.75086 0,0.89194 0,0.001 0,1.61748 c 5.29e-5,0.2192 0.1777206,0.39687 0.396875,0.39687 l 2.6458334,0 c 0.2191543,0 0.3968221,-0.17767 0.396875,-0.39687 l 0,-1.58595 0,-5.3e-4 0,-0.91778 0.7446433,0.7457 c 0.1247246,0.12506 0.3123142,-0.062 0.1875896,-0.18707 l -0.9244806,-0.92501 c -0.00265,-0.002 -0.00503,-0.005 -0.00767,-0.007 l 0,-0.9493 0.7446434,0.74518 c 0.1246981,0.12923 0.3163094,-0.0624 0.1870869,-0.18707 -0.3100917,-0.31026 -0.9312275,-0.93121 -0.9312275,-0.93121 l 0,-1.41335 c 7.93e-5,-0.13933 -0.013494,-0.27833 -0.040825,-0.41497 l -0.091466,-0.4563 -0.5286375,-0.13229 c -0.4099455,-0.10238 -0.8325909,-0.14467 -1.2547071,-0.12557 z m 0.2015331,1.45056 c 0.3619501,5.3e-4 0.7224978,0.0333 1.0810876,0.0966 0.065326,0.0116 0.1110456,0.0752 0.1028171,0.14108 l -0.1188509,0.9524 c -0.7212012,-0.16158 -1.434809,-0.15598 -2.1414582,0 l -0.1188773,-0.95085 c -0.0082,-0.0665 0.038471,-0.1308 0.1044046,-0.14263 0.365469,-0.0655 0.7289271,-0.0972 1.0908771,-0.0966 z m 1.4490172,1.52394 0,0.85834 -0.2640807,0 0,-0.34313 c 5.29e-5,-0.12025 0.041063,-0.2369 0.1162844,-0.33073 z m -2.9088822,0.0176 0.1405731,0.16588 c 0.079534,0.0937 0.122899,0.21018 0.1229784,0.33021 l 0,0.34365 -0.2635515,0 z m 0,1.10432 0.2635515,0 0,0.31006 c 0,0.14032 -0.059108,0.2749 -0.1643327,0.37414 l -0.099219,0.0935 z m 2.6448015,0.001 0.2640807,0 0,0.79375 -0.1090348,-0.10904 c -0.099378,-0.0993 -0.1551517,-0.23414 -0.1550459,-0.37465 z m -2.2489584,1.0573 2.1166668,0 0.1317889,0.80718 c 0.00741,0.0659 -0.039688,0.13122 -0.1054364,0.14418 -0.7233444,0.14018 -1.4305228,0.14565 -2.1678107,0 -0.066305,-0.0131 -0.114009,-0.0792 -0.1064684,-0.14573 z"
       style="fill:#3b3c3d;fill-rule:evenodd;stroke:none;stroke-width:1px;stroke-linecap:butt;stroke-linejoin:round;stroke-opacity:1" />
  </g>
</svg>
