<?xml version="1.0" encoding="UTF-8" standalone="no"?>
<!-- Created with Inkscape (http://www.inkscape.org/) -->

<svg
   xmlns:dc="http://purl.org/dc/elements/1.1/"
   xmlns:cc="http://creativecommons.org/ns#"
   xmlns:rdf="http://www.w3.org/1999/02/22-rdf-syntax-ns#"
   xmlns:svg="http://www.w3.org/2000/svg"
   xmlns="http://www.w3.org/2000/svg"
   xmlns:sodipodi="http://sodipodi.sourceforge.net/DTD/sodipodi-0.dtd"
   xmlns:inkscape="http://www.inkscape.org/namespaces/inkscape"
   width="32"
   height="32"
   viewBox="0 0 8.4666665 8.4666669"
   version="1.1"
   id="svg8"
   inkscape:version="0.91 r13725"
   sodipodi:docname="pickup-truck-car-van-travel-transport-auto.svg">
  <defs
     id="defs2">
    <inkscape:path-effect
       effect="fillet-chamfer"
       id="path-effect6194-9"
       is_visible="true"
       fillet_chamfer_values="-2.083553,1 | -1.5194253,1 | 0,1"
       method="auto"
       radius="2"
       chamfer_steps="1"
       helper_size="0"
       flexible="false"
       use_knot_distance="false"
       ignore_radius_0="false"
       only_selected="true"
       hide_knots="false" />
    <inkscape:path-effect
       effect="fillet-chamfer"
       id="path-effect6200-3"
       is_visible="true"
       fillet_chamfer_values="0,0 | -2.1346047,1 | -1.3969861,1 | -0.057274208,1 | -0.16666667,1"
       method="auto"
       radius="0.5"
       chamfer_steps="1"
       helper_size="0"
       flexible="false"
       use_knot_distance="false"
       ignore_radius_0="false"
       only_selected="true"
       hide_knots="false" />
    <pattern
       y="0"
       x="0"
       height="6"
       width="6"
       patternUnits="userSpaceOnUse"
       id="EMFhbasepattern" />
    <pattern
       y="0"
       x="0"
       height="6"
       width="6"
       patternUnits="userSpaceOnUse"
       id="EMFhbasepattern-6" />
    <inkscape:path-effect
       effect="fillet-chamfer"
       id="path-effect6795-9"
       is_visible="true"
       fillet_chamfer_values="0,0 | -2,1 | -2,1 | -2,1"
       method="auto"
       radius="2"
       chamfer_steps="1"
       helper_size="0"
       flexible="false"
       use_knot_distance="false"
       ignore_radius_0="false"
       only_selected="true"
       hide_knots="false" />
    <pattern
       y="0"
       x="0"
       height="6"
       width="6"
       patternUnits="userSpaceOnUse"
       id="EMFhbasepattern-4" />
    <pattern
       y="0"
       x="0"
       height="6"
       width="6"
       patternUnits="userSpaceOnUse"
       id="EMFhbasepattern-3" />
    <pattern
       y="0"
       x="0"
       height="6"
       width="6"
       patternUnits="userSpaceOnUse"
       id="EMFhbasepattern-0" />
    <inkscape:path-effect
       effect="fillet-chamfer"
       id="path-effect5842-1-6-2-7"
       is_visible="true"
       fillet_chamfer_values="0,0 | -0.49999733,1 | -0.50000267,1"
       method="auto"
       radius="0.5"
       chamfer_steps="1"
       helper_size="0"
       flexible="false"
       use_knot_distance="false"
       ignore_radius_0="false"
       only_selected="true"
       hide_knots="false" />
    <inkscape:path-effect
       effect="fillet-chamfer"
       id="path-effect9698-1"
       is_visible="true"
       fillet_chamfer_values="0,0 | -0.71730365,1"
       method="auto"
       radius="1"
       chamfer_steps="1"
       helper_size="0"
       flexible="false"
       use_knot_distance="false"
       ignore_radius_0="false"
       only_selected="true"
       hide_knots="false" />
  </defs>
  <sodipodi:namedview
     id="base"
     pagecolor="#ffffff"
     bordercolor="#666666"
     borderopacity="1.0"
     inkscape:pageopacity="0.0"
     inkscape:pageshadow="2"
     inkscape:zoom="15.999999"
     inkscape:cx="7.6807993"
     inkscape:cy="15.351949"
     inkscape:document-units="mm"
     inkscape:current-layer="layer1"
     showgrid="true"
     units="px"
     inkscape:window-width="1366"
     inkscape:window-height="716"
     inkscape:window-x="-8"
     inkscape:window-y="-8"
     inkscape:window-maximized="1">
    <inkscape:grid
       type="xygrid"
       id="grid4726" />
  </sodipodi:namedview>
  <metadata
     id="metadata5">
    <rdf:RDF>
      <cc:Work
         rdf:about="">
        <dc:format>image/svg+xml</dc:format>
        <dc:type
           rdf:resource="http://purl.org/dc/dcmitype/StillImage" />
        <dc:title />
      </cc:Work>
    </rdf:RDF>
  </metadata>
  <g
     inkscape:label="Layer 1"
     inkscape:groupmode="layer"
     id="layer1"
     transform="translate(0,-288.53332)">
    <path
       inkscape:connector-curvature="0"
       style="fill:#3b3c3d;fill-rule:evenodd;stroke:none;stroke-width:1px;stroke-linecap:butt;stroke-linejoin:round;stroke-opacity:1"
       d="m 2.8437909,291.37759 0,0.92604 -2.38125001,0 0,0.8599 c -0.0730515,0 -0.13229167,0.0592 -0.13229167,0.13229 l 0,0.0661 c 0,0.14612 0.11845396,0.26458 0.26458334,0.26458 l 0.73432464,0 c -0.00265,-0.0222 -0.00661,-0.0435 -0.00661,-0.0661 0,-0.436 0.3577167,-0.79375 0.79375,-0.79375 0.4360333,0 0.79375,0.35775 0.79375,0.79375 0,0.0228 -0.00476,0.0439 -0.00661,0.0661 l 3.0561493,0 c -0.00265,-0.0222 -0.00609,-0.0435 -0.00609,-0.0661 0,-0.436 0.3577166,-0.79375 0.79375,-0.79375 0.4360333,0 0.79375,0.35775 0.79375,0.79375 0,0.0228 -0.00476,0.0439 -0.00661,0.0661 l 0.3374496,0 c 0.1461294,0 0.2645833,-0.11846 0.2645833,-0.26458 l 0,-0.18656 c 0,-0.41643 -0.3220508,-0.76203 -0.7374202,-0.79169 l -0.9544844,-0.0682 c -0.1045104,-0.007 -0.2046287,-0.0457 -0.287311,-0.11006 l -0.7766844,-0.60463 c -0.185764,-0.14449 -0.4147609,-0.22323 -0.6501077,-0.22323 z m 3.0742468,1.03198 a 0.1323049,0.13230491 0 0 1 0.013494,0 l 0.1286934,0 a 0.1323049,0.13230491 0 1 1 0,0.26458 l -0.1286934,0 a 0.1324636,0.13246361 0 0 1 -0.013494,-0.26458 z"
       id="path24143-9-8" />
    <path
       inkscape:connector-curvature="0"
       style="opacity:1;fill:#3b3c3d;fill-opacity:1;stroke:none;stroke-width:1;stroke-linecap:round;stroke-linejoin:round;stroke-miterlimit:4;stroke-dasharray:none;stroke-opacity:1"
       d="m 6.7463952,292.96509 a 0.59531252,0.59531256 0 0 0 -0.5953125,0.59531 0.59531252,0.59531256 0 0 0 0.5953125,0.59532 0.59531252,0.59531256 0 0 0 0.5953125,-0.59532 0.59531252,0.59531256 0 0 0 -0.5953125,-0.59531 z m 0,0.39688 a 0.19843751,0.19843752 0 0 1 0.1984375,0.19843 0.19843751,0.19843752 0 0 1 -0.1984375,0.19844 0.19843751,0.19843752 0 0 1 -0.1984375,-0.19844 0.19843751,0.19843752 0 0 1 0.1984375,-0.19843 z"
       id="circle24133-0-2" />
    <path
       inkscape:connector-curvature="0"
       style="opacity:1;fill:#3b3c3d;fill-opacity:1;stroke:none;stroke-width:1;stroke-linecap:round;stroke-linejoin:round;stroke-miterlimit:4;stroke-dasharray:none;stroke-opacity:1"
       d="m 2.1161868,292.96509 a 0.59531252,0.59531256 0 0 0 -0.5953126,0.59531 0.59531252,0.59531256 0 0 0 0.5953126,0.59532 0.59531252,0.59531256 0 0 0 0.5953125,-0.59532 0.59531252,0.59531256 0 0 0 -0.5953125,-0.59531 z m 0,0.39688 a 0.19843751,0.19843752 0 0 1 0.1984375,0.19843 0.19843751,0.19843752 0 0 1 -0.1984375,0.19844 0.19843751,0.19843752 0 0 1 -0.1984375,-0.19844 0.19843751,0.19843752 0 0 1 0.1984375,-0.19843 z"
       id="circle24135-2-7" />
  </g>
</svg>
