<?xml version="1.0" encoding="UTF-8" standalone="no"?>
<!-- Created with Inkscape (http://www.inkscape.org/) -->

<svg
   xmlns:dc="http://purl.org/dc/elements/1.1/"
   xmlns:cc="http://creativecommons.org/ns#"
   xmlns:rdf="http://www.w3.org/1999/02/22-rdf-syntax-ns#"
   xmlns:svg="http://www.w3.org/2000/svg"
   xmlns="http://www.w3.org/2000/svg"
   xmlns:sodipodi="http://sodipodi.sourceforge.net/DTD/sodipodi-0.dtd"
   xmlns:inkscape="http://www.inkscape.org/namespaces/inkscape"
   width="32"
   height="32"
   viewBox="0 0 8.4666665 8.4666669"
   version="1.1"
   id="svg8"
   inkscape:version="0.91 r13725"
   sodipodi:docname="rpm-speed-speedometer-odometer-car-dashboard-indicator-2.svg">
  <defs
     id="defs2">
    <inkscape:path-effect
       effect="fillet-chamfer"
       id="path-effect6194-9"
       is_visible="true"
       fillet_chamfer_values="-2.083553,1 | -1.5194253,1 | 0,1"
       method="auto"
       radius="2"
       chamfer_steps="1"
       helper_size="0"
       flexible="false"
       use_knot_distance="false"
       ignore_radius_0="false"
       only_selected="true"
       hide_knots="false" />
    <inkscape:path-effect
       effect="fillet-chamfer"
       id="path-effect6200-3"
       is_visible="true"
       fillet_chamfer_values="0,0 | -2.1346047,1 | -1.3969861,1 | -0.057274208,1 | -0.16666667,1"
       method="auto"
       radius="0.5"
       chamfer_steps="1"
       helper_size="0"
       flexible="false"
       use_knot_distance="false"
       ignore_radius_0="false"
       only_selected="true"
       hide_knots="false" />
    <pattern
       y="0"
       x="0"
       height="6"
       width="6"
       patternUnits="userSpaceOnUse"
       id="EMFhbasepattern" />
    <pattern
       y="0"
       x="0"
       height="6"
       width="6"
       patternUnits="userSpaceOnUse"
       id="EMFhbasepattern-6" />
    <inkscape:path-effect
       effect="fillet-chamfer"
       id="path-effect6795-9"
       is_visible="true"
       fillet_chamfer_values="0,0 | -2,1 | -2,1 | -2,1"
       method="auto"
       radius="2"
       chamfer_steps="1"
       helper_size="0"
       flexible="false"
       use_knot_distance="false"
       ignore_radius_0="false"
       only_selected="true"
       hide_knots="false" />
    <pattern
       y="0"
       x="0"
       height="6"
       width="6"
       patternUnits="userSpaceOnUse"
       id="EMFhbasepattern-4" />
    <pattern
       y="0"
       x="0"
       height="6"
       width="6"
       patternUnits="userSpaceOnUse"
       id="EMFhbasepattern-3" />
    <pattern
       y="0"
       x="0"
       height="6"
       width="6"
       patternUnits="userSpaceOnUse"
       id="EMFhbasepattern-0" />
    <inkscape:path-effect
       effect="fillet-chamfer"
       id="path-effect5842-1-6-2-7"
       is_visible="true"
       fillet_chamfer_values="0,0 | -0.49999733,1 | -0.50000267,1"
       method="auto"
       radius="0.5"
       chamfer_steps="1"
       helper_size="0"
       flexible="false"
       use_knot_distance="false"
       ignore_radius_0="false"
       only_selected="true"
       hide_knots="false" />
    <inkscape:path-effect
       effect="fillet-chamfer"
       id="path-effect9698-1"
       is_visible="true"
       fillet_chamfer_values="0,0 | -0.71730365,1"
       method="auto"
       radius="1"
       chamfer_steps="1"
       helper_size="0"
       flexible="false"
       use_knot_distance="false"
       ignore_radius_0="false"
       only_selected="true"
       hide_knots="false" />
  </defs>
  <sodipodi:namedview
     id="base"
     pagecolor="#ffffff"
     bordercolor="#666666"
     borderopacity="1.0"
     inkscape:pageopacity="0.0"
     inkscape:pageshadow="2"
     inkscape:zoom="11.313708"
     inkscape:cx="-13.435824"
     inkscape:cy="19.616211"
     inkscape:document-units="mm"
     inkscape:current-layer="layer1"
     showgrid="true"
     units="px"
     inkscape:window-width="1366"
     inkscape:window-height="716"
     inkscape:window-x="-8"
     inkscape:window-y="-8"
     inkscape:window-maximized="1">
    <inkscape:grid
       type="xygrid"
       id="grid4726" />
  </sodipodi:namedview>
  <metadata
     id="metadata5">
    <rdf:RDF>
      <cc:Work
         rdf:about="">
        <dc:format>image/svg+xml</dc:format>
        <dc:type
           rdf:resource="http://purl.org/dc/dcmitype/StillImage" />
        <dc:title />
      </cc:Work>
    </rdf:RDF>
  </metadata>
  <g
     inkscape:label="Layer 1"
     inkscape:groupmode="layer"
     id="layer1"
     transform="translate(0,-288.53332)">
    <path
       inkscape:connector-curvature="0"
       style="display:inline;opacity:1;fill:#3b3c3d;fill-opacity:1;stroke:none;stroke-width:1;stroke-linecap:butt;stroke-linejoin:round;stroke-miterlimit:4;stroke-dasharray:none;stroke-opacity:1"
       d="m 4.233337,288.9302 a 3.8364584,3.8364587 0 0 0 -3.83645846,3.83646 3.8364584,3.8364587 0 0 0 3.83645846,3.83645 3.8364584,3.8364587 0 0 0 3.8364584,-3.83645 3.8364584,3.8364587 0 0 0 -3.8364584,-3.83646 z m 0.1322916,0.63148 c 0.1900238,0.008 0.3801269,0.0346 0.5689601,0.077 l -0.057891,0.21704 a 0.13230486,0.13230487 0 1 0 0.25527,0.0682 l 0.05842,-0.21651 c 0.041645,0.013 0.083661,0.0243 0.1250421,0.0393 0.1409436,0.0505 0.2759604,0.11121 0.4056592,0.17934 l -0.3017838,0.52245 c -0.097076,-0.0513 -0.1976173,-0.0981 -0.3028156,-0.13695 -0.2456392,-0.0908 -0.4986073,-0.14097 -0.7508611,-0.15399 z m -0.2645833,0.004 0,0.59272 c -0.368009,0.0193 -0.7280011,0.11777 -1.0542059,0.2894 l -0.2992173,-0.51885 c 0.1702594,-0.089 0.3456782,-0.16721 0.5281348,-0.22426 l 0.058923,0.21961 a 0.13236858,0.13236859 0 1 0 0.2557991,-0.0682 l -0.057891,-0.21601 c 0.1865842,-0.0418 0.3763698,-0.0664 0.5684573,-0.0744 z m 1.8489613,0.493 c 0.1626923,0.10366 0.3132667,0.22225 0.4527021,0.3519 l -0.1565804,0.15711 a 0.13230486,0.13230487 0 1 0 0.1870604,0.18706 l 0.1555485,-0.15555 c 0.128614,0.14136 0.2454275,0.29284 0.346763,0.45476 l -0.5327915,0.30748 a 0.13230487,0.13230488 0 0 0 -0.00979,0.006 c -0.1879071,-0.30967 -0.441034,-0.57751 -0.7462044,-0.78291 z m -3.4323338,0.003 0.3023129,0.52294 c -0.2052902,0.13698 -0.3933825,0.30409 -0.5555192,0.50179 -0.073078,0.0891 -0.1378744,0.18248 -0.1969029,0.27855 a 0.13230487,0.13230488 0 0 0 -0.0037,-0.003 l -0.5389827,-0.3116 c 0.07411,-0.11723 0.155231,-0.23132 0.2459831,-0.34001 0.033364,-0.04 0.070988,-0.0747 0.1059392,-0.11266 l 0.1565804,0.15708 a 0.13245891,0.13245892 0 0 0 0.1875896,-0.18706 l -0.1591733,-0.15917 c 0.14224,-0.13105 0.2952221,-0.24601 0.4557977,-0.34777 z m 1.7156642,0.8542 0.392721,2.29238 a 0.52916668,0.52916672 0 0 1 0.1364456,0.35346 0.52916668,0.52916672 0 0 1 -0.5291666,0.52916 0.52916668,0.52916672 0 0 1 -0.5291667,-0.52916 0.52916668,0.52916672 0 0 1 0.1364192,-0.35346 z m -2.8406726,0.36484 0.5389827,0.31109 a 0.13230487,0.13230488 0 0 0 0.00873,0.005 c -0.1572419,0.32938 -0.23876,0.68601 -0.2444486,1.04542 a 0.13230487,0.13230488 0 0 0 -0.043921,-0.007 l -0.6149446,0 c 0.00661,-0.191 0.031062,-0.38102 0.071834,-0.56793 l 0.2129102,0.0574 a 0.13243356,0.13243357 0 0 0 0.068712,-0.2558 l -0.214974,-0.0574 c 0.055933,-0.18206 0.1279261,-0.36 0.2170377,-0.53123 z m 5.6740956,0.004 c 0.087154,0.1688 0.1578768,0.34631 0.2144448,0.5297 l -0.205158,0.0548 a 0.132437,0.13243701 0 1 0 0.068739,0.25579 l 0.204126,-0.0548 c 0.041381,0.18727 0.068792,0.37904 0.076465,0.57515 l -0.6598973,0.008 c -0.00741,-0.37195 -0.095488,-0.72938 -0.248576,-1.05265 a 0.13230487,0.13230488 0 0 0 0.017992,-0.009 z m -5.3619666,1.60507 c 0.029422,0.36163 0.1346993,0.72014 0.3188493,1.04955 l -0.6046258,0.33951 c -0.096494,-0.18002 -0.1728788,-0.36684 -0.233045,-0.55705 l 0.2046287,-0.0548 a 0.13230486,0.13230487 0 0 0 -0.033073,-0.26096 0.13230486,0.13230487 0 0 0 -0.035137,0.005 l -0.2056607,0.0553 c -0.042783,-0.18714 -0.070115,-0.37647 -0.079084,-0.56636 l 0.6144419,0 a 0.13230487,0.13230488 0 0 0 0.052705,-0.0103 z m 1.6025019,2.52389 0.2645833,0 0,0.26458 -0.2645833,0 z m 0.5291667,0 0.2645833,0 0,0.26458 -0.2645833,0 z m 0.5291666,0 0.2645834,0 0,0.26458 -0.2645834,0 z m 0.5291667,0 0.2645834,0 0,0.26458 -0.2645834,0 z"
       id="circle15710-1-6-8" />
    <path
       inkscape:connector-curvature="0"
       style="display:inline;opacity:1;fill:#3b3c3d;fill-opacity:1;stroke:none;stroke-width:1;stroke-linecap:round;stroke-linejoin:round;stroke-miterlimit:4;stroke-dasharray:none;stroke-opacity:1"
       d="m 4.3656286,293.56038 a 0.13229167,0.13229168 0 0 1 -0.1322916,0.13229 0.13229167,0.13229168 0 0 1 -0.1322917,-0.13229 0.13229167,0.13229168 0 0 1 0.1322917,-0.13229 0.13229167,0.13229168 0 0 1 0.1322916,0.13229 z"
       id="circle15706-7-7-3" />
  </g>
</svg>
