<?xml version="1.0" encoding="UTF-8" standalone="no"?>
<!-- Created with Inkscape (http://www.inkscape.org/) -->

<svg
   xmlns:dc="http://purl.org/dc/elements/1.1/"
   xmlns:cc="http://creativecommons.org/ns#"
   xmlns:rdf="http://www.w3.org/1999/02/22-rdf-syntax-ns#"
   xmlns:svg="http://www.w3.org/2000/svg"
   xmlns="http://www.w3.org/2000/svg"
   xmlns:sodipodi="http://sodipodi.sourceforge.net/DTD/sodipodi-0.dtd"
   xmlns:inkscape="http://www.inkscape.org/namespaces/inkscape"
   width="32"
   height="32"
   viewBox="0 0 8.4666665 8.4666669"
   version="1.1"
   id="svg8"
   inkscape:version="0.91 r13725"
   sodipodi:docname="sedan-car-vehicle-automobile-trave-transport.svg">
  <defs
     id="defs2">
    <inkscape:path-effect
       effect="fillet-chamfer"
       id="path-effect6194-9"
       is_visible="true"
       fillet_chamfer_values="-2.083553,1 | -1.5194253,1 | 0,1"
       method="auto"
       radius="2"
       chamfer_steps="1"
       helper_size="0"
       flexible="false"
       use_knot_distance="false"
       ignore_radius_0="false"
       only_selected="true"
       hide_knots="false" />
    <inkscape:path-effect
       effect="fillet-chamfer"
       id="path-effect6200-3"
       is_visible="true"
       fillet_chamfer_values="0,0 | -2.1346047,1 | -1.3969861,1 | -0.057274208,1 | -0.16666667,1"
       method="auto"
       radius="0.5"
       chamfer_steps="1"
       helper_size="0"
       flexible="false"
       use_knot_distance="false"
       ignore_radius_0="false"
       only_selected="true"
       hide_knots="false" />
    <pattern
       y="0"
       x="0"
       height="6"
       width="6"
       patternUnits="userSpaceOnUse"
       id="EMFhbasepattern" />
    <pattern
       y="0"
       x="0"
       height="6"
       width="6"
       patternUnits="userSpaceOnUse"
       id="EMFhbasepattern-6" />
    <inkscape:path-effect
       effect="fillet-chamfer"
       id="path-effect6795-9"
       is_visible="true"
       fillet_chamfer_values="0,0 | -2,1 | -2,1 | -2,1"
       method="auto"
       radius="2"
       chamfer_steps="1"
       helper_size="0"
       flexible="false"
       use_knot_distance="false"
       ignore_radius_0="false"
       only_selected="true"
       hide_knots="false" />
    <pattern
       y="0"
       x="0"
       height="6"
       width="6"
       patternUnits="userSpaceOnUse"
       id="EMFhbasepattern-4" />
    <pattern
       y="0"
       x="0"
       height="6"
       width="6"
       patternUnits="userSpaceOnUse"
       id="EMFhbasepattern-3" />
    <pattern
       y="0"
       x="0"
       height="6"
       width="6"
       patternUnits="userSpaceOnUse"
       id="EMFhbasepattern-0" />
    <inkscape:path-effect
       effect="fillet-chamfer"
       id="path-effect5842-1-6-2-7"
       is_visible="true"
       fillet_chamfer_values="0,0 | -0.49999733,1 | -0.50000267,1"
       method="auto"
       radius="0.5"
       chamfer_steps="1"
       helper_size="0"
       flexible="false"
       use_knot_distance="false"
       ignore_radius_0="false"
       only_selected="true"
       hide_knots="false" />
    <inkscape:path-effect
       effect="fillet-chamfer"
       id="path-effect9698-1"
       is_visible="true"
       fillet_chamfer_values="0,0 | -0.71730365,1"
       method="auto"
       radius="1"
       chamfer_steps="1"
       helper_size="0"
       flexible="false"
       use_knot_distance="false"
       ignore_radius_0="false"
       only_selected="true"
       hide_knots="false" />
  </defs>
  <sodipodi:namedview
     id="base"
     pagecolor="#ffffff"
     bordercolor="#666666"
     borderopacity="1.0"
     inkscape:pageopacity="0.0"
     inkscape:pageshadow="2"
     inkscape:zoom="7.9999996"
     inkscape:cx="-11.225497"
     inkscape:cy="20.089676"
     inkscape:document-units="mm"
     inkscape:current-layer="layer1"
     showgrid="true"
     units="px"
     inkscape:window-width="1366"
     inkscape:window-height="716"
     inkscape:window-x="-8"
     inkscape:window-y="-8"
     inkscape:window-maximized="1">
    <inkscape:grid
       type="xygrid"
       id="grid4726" />
  </sodipodi:namedview>
  <metadata
     id="metadata5">
    <rdf:RDF>
      <cc:Work
         rdf:about="">
        <dc:format>image/svg+xml</dc:format>
        <dc:type
           rdf:resource="http://purl.org/dc/dcmitype/StillImage" />
        <dc:title />
      </cc:Work>
    </rdf:RDF>
  </metadata>
  <g
     inkscape:label="Layer 1"
     inkscape:groupmode="layer"
     id="layer1"
     transform="translate(0,-288.53332)">
    <path
       sodipodi:nodetypes="sccccsccssscsssccssscsssccccss"
       inkscape:connector-curvature="0"
       id="path25518-9-3"
       d="m 2.5839198,291.50988 c -0.046037,0 -0.091281,0.0122 -0.1312598,0.0351 l -0.815975,0.46612 c -0.032226,0.0185 -0.067945,0.0299 -0.1049073,0.0336 l -0.3674004,0.0367 c -0.135255,0.0135 -0.23823087,0.12763 -0.23823087,0.26355 l 0,0.75242 c 0,0 0.0129646,0.0721 -0.0108479,0.0822 -0.0238125,0.0101 -0.0451115,0.0243 -0.0630502,0.0424 -0.035904,0.0359 -0.0583935,0.0857 -0.0583935,0.14055 0,0.14613 0.11845396,0.26458 0.26458334,0.26458 l 0.4764617,0 c -0.0082,-0.0433 -0.013494,-0.0873 -0.013494,-0.13279 0,-0.3995 0.3281098,-0.72761 0.7276042,-0.72761 0.3994944,0 0.7276042,0.32811 0.7276042,0.72761 0,0.0455 -0.00529,0.0895 -0.013494,0.13279 0.9129449,0 1.8258897,0 2.7388609,0 -0.00794,-0.0431 -0.013494,-0.087 -0.013494,-0.13229 0,-0.39949 0.3281098,-0.7276 0.7276042,-0.7276 0.3994944,0 0.7276042,0.32811 0.7276042,0.7276 0,0.0453 -0.00529,0.0892 -0.013494,0.13229 l 0.2780242,0 c 0.1461294,0 0.2645833,-0.11845 0.2645833,-0.26458 l 0,-0.0661 c 0,-0.35277 -0.2328862,-0.66294 -0.5715529,-0.76171 l -0.9973469,-0.29093 c -0.012435,-0.004 -0.024342,-0.008 -0.036169,-0.0135 l -1.3074122,-0.59944 c -0.1729581,-0.0793 -0.3611562,-0.12041 -0.5513916,-0.12041 z"
       style="fill:#3b3c3d;fill-rule:evenodd;stroke:none;stroke-width:1px;stroke-linecap:butt;stroke-linejoin:miter;stroke-opacity:1" />
    <path
       inkscape:connector-curvature="0"
       id="path31178"
       d="m 2.2490631,292.96509 a 0.52916668,0.52916672 0 0 0 -0.5291667,0.52917 0.52916668,0.52916672 0 0 0 0.5291667,0.52916 0.52916668,0.52916672 0 0 0 0.5291667,-0.52916 0.52916668,0.52916672 0 0 0 -0.5291667,-0.52917 z m 0,0.33073 a 0.19843751,0.19843752 0 0 1 0.1984375,0.19844 0.19843751,0.19843752 0 0 1 -0.1984375,0.19844 0.19843751,0.19843752 0 0 1 -0.1984375,-0.19844 0.19843751,0.19843752 0 0 1 0.1984375,-0.19844 z"
       style="opacity:1;fill:#3b3c3d;fill-opacity:1;stroke:none;stroke-width:1;stroke-linecap:round;stroke-linejoin:round;stroke-miterlimit:4;stroke-dasharray:none;stroke-opacity:1" />
    <path
       inkscape:connector-curvature="0"
       id="path25512-6-1"
       d="m 6.4162507,292.96509 a 0.52916668,0.52916672 0 0 0 -0.5291666,0.52917 0.52916668,0.52916672 0 0 0 0.5291666,0.52916 0.52916668,0.52916672 0 0 0 0.5291667,-0.52916 0.52916668,0.52916672 0 0 0 -0.5291667,-0.52917 z m 0,0.33073 a 0.19843751,0.19843752 0 0 1 0.1984375,0.19844 0.19843751,0.19843752 0 0 1 -0.1984375,0.19844 0.19843751,0.19843752 0 0 1 -0.1984375,-0.19844 0.19843751,0.19843752 0 0 1 0.1984375,-0.19844 z"
       style="opacity:1;fill:#3b3c3d;fill-opacity:1;stroke:none;stroke-width:1;stroke-linecap:round;stroke-linejoin:round;stroke-miterlimit:4;stroke-dasharray:none;stroke-opacity:1" />
  </g>
</svg>
