<?xml version="1.0" encoding="UTF-8" standalone="no"?>
<!-- Created with Inkscape (http://www.inkscape.org/) -->

<svg
   xmlns:dc="http://purl.org/dc/elements/1.1/"
   xmlns:cc="http://creativecommons.org/ns#"
   xmlns:rdf="http://www.w3.org/1999/02/22-rdf-syntax-ns#"
   xmlns:svg="http://www.w3.org/2000/svg"
   xmlns="http://www.w3.org/2000/svg"
   xmlns:sodipodi="http://sodipodi.sourceforge.net/DTD/sodipodi-0.dtd"
   xmlns:inkscape="http://www.inkscape.org/namespaces/inkscape"
   width="32"
   height="32"
   viewBox="0 0 8.4666665 8.4666669"
   version="1.1"
   id="svg8"
   inkscape:version="0.91 r13725"
   sodipodi:docname="sports-luxury-car-vehicle-automobile-premium.svg">
  <defs
     id="defs2">
    <inkscape:path-effect
       effect="fillet-chamfer"
       id="path-effect6194-9"
       is_visible="true"
       fillet_chamfer_values="-2.083553,1 | -1.5194253,1 | 0,1"
       method="auto"
       radius="2"
       chamfer_steps="1"
       helper_size="0"
       flexible="false"
       use_knot_distance="false"
       ignore_radius_0="false"
       only_selected="true"
       hide_knots="false" />
    <inkscape:path-effect
       effect="fillet-chamfer"
       id="path-effect6200-3"
       is_visible="true"
       fillet_chamfer_values="0,0 | -2.1346047,1 | -1.3969861,1 | -0.057274208,1 | -0.16666667,1"
       method="auto"
       radius="0.5"
       chamfer_steps="1"
       helper_size="0"
       flexible="false"
       use_knot_distance="false"
       ignore_radius_0="false"
       only_selected="true"
       hide_knots="false" />
    <pattern
       y="0"
       x="0"
       height="6"
       width="6"
       patternUnits="userSpaceOnUse"
       id="EMFhbasepattern" />
    <pattern
       y="0"
       x="0"
       height="6"
       width="6"
       patternUnits="userSpaceOnUse"
       id="EMFhbasepattern-6" />
    <inkscape:path-effect
       effect="fillet-chamfer"
       id="path-effect6795-9"
       is_visible="true"
       fillet_chamfer_values="0,0 | -2,1 | -2,1 | -2,1"
       method="auto"
       radius="2"
       chamfer_steps="1"
       helper_size="0"
       flexible="false"
       use_knot_distance="false"
       ignore_radius_0="false"
       only_selected="true"
       hide_knots="false" />
    <pattern
       y="0"
       x="0"
       height="6"
       width="6"
       patternUnits="userSpaceOnUse"
       id="EMFhbasepattern-4" />
    <pattern
       y="0"
       x="0"
       height="6"
       width="6"
       patternUnits="userSpaceOnUse"
       id="EMFhbasepattern-3" />
    <pattern
       y="0"
       x="0"
       height="6"
       width="6"
       patternUnits="userSpaceOnUse"
       id="EMFhbasepattern-0" />
    <inkscape:path-effect
       effect="fillet-chamfer"
       id="path-effect5842-1-6-2-7"
       is_visible="true"
       fillet_chamfer_values="0,0 | -0.49999733,1 | -0.50000267,1"
       method="auto"
       radius="0.5"
       chamfer_steps="1"
       helper_size="0"
       flexible="false"
       use_knot_distance="false"
       ignore_radius_0="false"
       only_selected="true"
       hide_knots="false" />
    <inkscape:path-effect
       effect="fillet-chamfer"
       id="path-effect9698-1"
       is_visible="true"
       fillet_chamfer_values="0,0 | -0.71730365,1"
       method="auto"
       radius="1"
       chamfer_steps="1"
       helper_size="0"
       flexible="false"
       use_knot_distance="false"
       ignore_radius_0="false"
       only_selected="true"
       hide_knots="false" />
  </defs>
  <sodipodi:namedview
     id="base"
     pagecolor="#ffffff"
     bordercolor="#666666"
     borderopacity="1.0"
     inkscape:pageopacity="0.0"
     inkscape:pageshadow="2"
     inkscape:zoom="15.999999"
     inkscape:cx="11.5983"
     inkscape:cy="12.754585"
     inkscape:document-units="mm"
     inkscape:current-layer="layer1"
     showgrid="true"
     units="px"
     inkscape:window-width="1366"
     inkscape:window-height="716"
     inkscape:window-x="-8"
     inkscape:window-y="-8"
     inkscape:window-maximized="1">
    <inkscape:grid
       type="xygrid"
       id="grid4726" />
  </sodipodi:namedview>
  <metadata
     id="metadata5">
    <rdf:RDF>
      <cc:Work
         rdf:about="">
        <dc:format>image/svg+xml</dc:format>
        <dc:type
           rdf:resource="http://purl.org/dc/dcmitype/StillImage" />
        <dc:title />
      </cc:Work>
    </rdf:RDF>
  </metadata>
  <g
     inkscape:label="Layer 1"
     inkscape:groupmode="layer"
     id="layer1"
     transform="translate(0,-288.53332)">
    <path
       sodipodi:nodetypes="ccccccccsssccsssccccccccc"
       inkscape:connector-curvature="0"
       id="path24794-2-7"
       d="m 3.785592,291.65402 c -0.1019969,0.004 -0.2033058,0.018 -0.3023129,0.0429 l -2.1192596,0.5297 -0.66145839,0 0.0454819,0.13591 c 0.0137583,0.0415 0.0206375,0.15111 0.0206375,0.19481 l 0,0.46303 c 1.8521e-4,0.323 0.25794231,0.58695 0.58086631,0.59478 -0.032491,-0.0822 -0.0517,-0.17082 -0.0517,-0.26406 0,-0.39952 0.3281362,-0.7276 0.7276042,-0.7276 0.3994943,0 0.7276041,0.32811 0.7276041,0.7276 0,0.0934 -0.01905,0.18225 -0.051673,0.26459 l 2.9476436,0 c -0.032623,-0.0823 -0.0517,-0.17116 -0.0517,-0.26459 0,-0.39952 0.3281363,-0.7276 0.7276042,-0.7276 0.3994944,0 0.7276042,0.32811 0.7276042,0.7276 0,0.0934 -0.01905,0.18225 -0.051673,0.26459 l 0.514694,0 c 0.1433777,-3e-5 0.2569898,-0.121 0.2480468,-0.26408 l -0.00714,-0.11885 c -0.024077,-0.38839 -0.3285861,-0.7669 -0.7162271,-0.80098 l -1.5751176,-0.13901 -0.9699625,-0.48474 c -0.2198687,-0.10996 -0.463841,-0.16291 -0.7095067,-0.15399 z"
       style="fill:#3b3c3d;fill-rule:evenodd;stroke:none;stroke-width:1px;stroke-linecap:butt;stroke-linejoin:miter;stroke-opacity:1" />
    <path
       inkscape:connector-curvature="0"
       style="opacity:1;fill:#3b3c3d;fill-opacity:1;stroke:none;stroke-width:0.99999994;stroke-linecap:round;stroke-linejoin:round;stroke-miterlimit:4;stroke-dasharray:none;stroke-opacity:1"
       d="m 2.0254778,292.82192 c -0.2922323,0 -0.5291667,0.23691 -0.5291667,0.52916 0,0.29224 0.2369344,0.52917 0.5291667,0.52917 0.2922588,0 0.5291667,-0.23693 0.5291667,-0.52917 0,-0.29225 -0.2369079,-0.52916 -0.5291667,-0.52916 z m 0,0.33073 c 0.1095904,0 0.1984375,0.0888 0.1984375,0.19843 0,0.1096 -0.088847,0.19844 -0.1984375,0.19844 -0.1095904,0 -0.1984375,-0.0888 -0.1984375,-0.19844 0,-0.10959 0.088847,-0.19843 0.1984375,-0.19843 z"
       id="path31075" />
    <path
       inkscape:connector-curvature="0"
       style="opacity:1;fill:#3b3c3d;fill-opacity:1;stroke:none;stroke-width:0.99999994;stroke-linecap:round;stroke-linejoin:round;stroke-miterlimit:4;stroke-dasharray:none;stroke-opacity:1"
       d="m 6.3249571,292.82192 c -0.2922323,0 -0.5291667,0.23691 -0.5291667,0.52916 0,0.29224 0.2369344,0.52917 0.5291667,0.52917 0.2922587,0 0.5291667,-0.23693 0.5291667,-0.52917 0,-0.29225 -0.236908,-0.52916 -0.5291667,-0.52916 z m 0,0.33073 c 0.1095904,0 0.1984375,0.0888 0.1984375,0.19843 0,0.1096 -0.088847,0.19844 -0.1984375,0.19844 -0.1095904,0 -0.1984375,-0.0888 -0.1984375,-0.19844 0,-0.10959 0.088847,-0.19843 0.1984375,-0.19843 z"
       id="path24818-9-9" />
  </g>
</svg>
