<?xml version="1.0" encoding="UTF-8" standalone="no"?>
<!-- Created with Inkscape (http://www.inkscape.org/) -->

<svg
   xmlns:dc="http://purl.org/dc/elements/1.1/"
   xmlns:cc="http://creativecommons.org/ns#"
   xmlns:rdf="http://www.w3.org/1999/02/22-rdf-syntax-ns#"
   xmlns:svg="http://www.w3.org/2000/svg"
   xmlns="http://www.w3.org/2000/svg"
   xmlns:sodipodi="http://sodipodi.sourceforge.net/DTD/sodipodi-0.dtd"
   xmlns:inkscape="http://www.inkscape.org/namespaces/inkscape"
   width="32"
   height="32"
   viewBox="0 0 8.4666665 8.4666669"
   version="1.1"
   id="svg8"
   inkscape:version="0.91 r13725"
   sodipodi:docname="start-push-button-automatic-keyless-car-ignition.svg">
  <defs
     id="defs2">
    <inkscape:path-effect
       effect="fillet-chamfer"
       id="path-effect6194-9"
       is_visible="true"
       fillet_chamfer_values="-2.083553,1 | -1.5194253,1 | 0,1"
       method="auto"
       radius="2"
       chamfer_steps="1"
       helper_size="0"
       flexible="false"
       use_knot_distance="false"
       ignore_radius_0="false"
       only_selected="true"
       hide_knots="false" />
    <inkscape:path-effect
       effect="fillet-chamfer"
       id="path-effect6200-3"
       is_visible="true"
       fillet_chamfer_values="0,0 | -2.1346047,1 | -1.3969861,1 | -0.057274208,1 | -0.16666667,1"
       method="auto"
       radius="0.5"
       chamfer_steps="1"
       helper_size="0"
       flexible="false"
       use_knot_distance="false"
       ignore_radius_0="false"
       only_selected="true"
       hide_knots="false" />
    <pattern
       y="0"
       x="0"
       height="6"
       width="6"
       patternUnits="userSpaceOnUse"
       id="EMFhbasepattern" />
    <pattern
       y="0"
       x="0"
       height="6"
       width="6"
       patternUnits="userSpaceOnUse"
       id="EMFhbasepattern-6" />
    <inkscape:path-effect
       effect="fillet-chamfer"
       id="path-effect6795-9"
       is_visible="true"
       fillet_chamfer_values="0,0 | -2,1 | -2,1 | -2,1"
       method="auto"
       radius="2"
       chamfer_steps="1"
       helper_size="0"
       flexible="false"
       use_knot_distance="false"
       ignore_radius_0="false"
       only_selected="true"
       hide_knots="false" />
    <pattern
       y="0"
       x="0"
       height="6"
       width="6"
       patternUnits="userSpaceOnUse"
       id="EMFhbasepattern-4" />
    <pattern
       y="0"
       x="0"
       height="6"
       width="6"
       patternUnits="userSpaceOnUse"
       id="EMFhbasepattern-3" />
    <pattern
       y="0"
       x="0"
       height="6"
       width="6"
       patternUnits="userSpaceOnUse"
       id="EMFhbasepattern-0" />
    <inkscape:path-effect
       effect="fillet-chamfer"
       id="path-effect5842-1-6-2-7"
       is_visible="true"
       fillet_chamfer_values="0,0 | -0.49999733,1 | -0.50000267,1"
       method="auto"
       radius="0.5"
       chamfer_steps="1"
       helper_size="0"
       flexible="false"
       use_knot_distance="false"
       ignore_radius_0="false"
       only_selected="true"
       hide_knots="false" />
    <inkscape:path-effect
       effect="fillet-chamfer"
       id="path-effect9698-1"
       is_visible="true"
       fillet_chamfer_values="0,0 | -0.71730365,1"
       method="auto"
       radius="1"
       chamfer_steps="1"
       helper_size="0"
       flexible="false"
       use_knot_distance="false"
       ignore_radius_0="false"
       only_selected="true"
       hide_knots="false" />
  </defs>
  <sodipodi:namedview
     id="base"
     pagecolor="#ffffff"
     bordercolor="#666666"
     borderopacity="1.0"
     inkscape:pageopacity="0.0"
     inkscape:pageshadow="2"
     inkscape:zoom="5.656854"
     inkscape:cx="-23.874989"
     inkscape:cy="19.19484"
     inkscape:document-units="mm"
     inkscape:current-layer="layer1"
     showgrid="true"
     units="px"
     inkscape:window-width="1366"
     inkscape:window-height="716"
     inkscape:window-x="-8"
     inkscape:window-y="-8"
     inkscape:window-maximized="1">
    <inkscape:grid
       type="xygrid"
       id="grid4726" />
  </sodipodi:namedview>
  <metadata
     id="metadata5">
    <rdf:RDF>
      <cc:Work
         rdf:about="">
        <dc:format>image/svg+xml</dc:format>
        <dc:type
           rdf:resource="http://purl.org/dc/dcmitype/StillImage" />
        <dc:title />
      </cc:Work>
    </rdf:RDF>
  </metadata>
  <g
     inkscape:label="Layer 1"
     inkscape:groupmode="layer"
     id="layer1"
     transform="translate(0,-288.53332)">
    <path
       style="opacity:1;fill:#3b3c3d;fill-opacity:1;stroke:none;stroke-width:0.75;stroke-linecap:round;stroke-linejoin:round;stroke-miterlimit:4;stroke-dasharray:none;stroke-opacity:1"
       d="m 4.2333343,288.98574 a 3.7041668,3.704167 0 0 0 -3.70416679,3.70417 3.7041668,3.704167 0 0 0 1.95130209,3.26184 l 0,-0.62788 c 2.117e-4,-0.1487 0.021961,-0.29438 0.059955,-0.43511 a 2.7781251,2.7781253 0 0 1 -1.085215,-2.19885 2.7781251,2.7781253 0 0 1 2.7781251,-2.77812 2.7781251,2.7781253 0 0 1 2.778125,2.77812 2.7781251,2.7781253 0 0 1 -1.0846858,2.20041 c 0.037518,0.1402 0.059425,0.28546 0.059425,0.43355 l 0,0.62529 a 3.7041668,3.704167 0 0 0 1.9513021,-3.25925 3.7041668,3.704167 0 0 0 -3.7041667,-3.70417 z"
       id="path17591"
       inkscape:connector-curvature="0" />
    <path
       style="opacity:1;fill:#3b3c3d;fill-opacity:1;stroke:none;stroke-width:0.74999994;stroke-linecap:round;stroke-linejoin:round;stroke-miterlimit:4;stroke-dasharray:none;stroke-opacity:1"
       d="m 4.2333343,290.70556 a 1.9843751,1.9843752 0 0 0 -1.9843751,1.98438 1.9843751,1.9843752 0 0 0 0.6795559,1.49291 c 0.04445,-0.0481 0.091308,-0.0943 0.141605,-0.13745 0.1501246,-0.46532 0.582586,-0.80513 1.0970683,-0.80513 l 0.1322917,0 c 0.5137944,0 0.9452769,0.33888 1.0960629,0.80306 0.050721,0.0434 0.097869,0.09 0.1426369,0.13849 a 1.9843751,1.9843752 0 0 0 0.6795294,-1.49188 1.9843751,1.9843752 0 0 0 -1.984375,-1.98438 z m -0.2645834,0.5369 0.5291667,0 c 0.1466056,0 0.2645833,0.118 0.2645833,0.26458 0,0.1466 -0.1179777,0.26458 -0.2645833,0.26458 l -0.5291667,0 c -0.1465791,0 -0.2645833,-0.11798 -0.2645833,-0.26458 0,-0.14658 0.1180042,-0.26458 0.2645833,-0.26458 z"
       id="circle17595"
       inkscape:connector-curvature="0" />
    <path
       style="color:#000000;font-style:normal;font-variant:normal;font-weight:normal;font-stretch:normal;font-size:medium;line-height:normal;font-family:sans-serif;text-indent:0;text-align:start;text-decoration:none;text-decoration-line:none;text-decoration-style:solid;text-decoration-color:#000000;letter-spacing:normal;word-spacing:normal;text-transform:none;direction:ltr;writing-mode:lr-tb;baseline-shift:baseline;text-anchor:start;white-space:normal;clip-rule:nonzero;display:inline;overflow:visible;visibility:visible;opacity:1;isolation:auto;mix-blend-mode:normal;color-interpolation:sRGB;color-interpolation-filters:linearRGB;solid-color:#000000;solid-opacity:1;fill:#3b3c3d;fill-opacity:1;fill-rule:nonzero;stroke:none;stroke-width:0.75;stroke-linecap:butt;stroke-linejoin:round;stroke-miterlimit:4;stroke-dasharray:none;stroke-dashoffset:0;stroke-opacity:1;color-rendering:auto;image-rendering:auto;shape-rendering:auto;text-rendering:auto;enable-background:accumulate"
       d="m 4.1671884,293.43871 c -0.53086,0 -0.9591146,0.42823 -0.9591146,0.95911 l 0,1.32292 c 0,0.0925 0.072866,0.16537 0.1653646,0.16537 l 1.7197917,0 c 0.092551,0 0.1653646,-0.0729 0.1653646,-0.16537 l 0,-1.32292 c 0,-0.53088 -0.4282281,-0.95911 -0.9591146,-0.95911 z m -0.1984375,0.416 0.5291667,0 0,0.26459 -0.5291667,0 z"
       id="path17609"
       inkscape:connector-curvature="0" />
    <path
       style="color:#000000;font-style:normal;font-variant:normal;font-weight:normal;font-stretch:normal;font-size:medium;line-height:normal;font-family:sans-serif;text-indent:0;text-align:start;text-decoration:none;text-decoration-line:none;text-decoration-style:solid;text-decoration-color:#000000;letter-spacing:normal;word-spacing:normal;text-transform:none;direction:ltr;writing-mode:lr-tb;baseline-shift:baseline;text-anchor:start;white-space:normal;clip-rule:nonzero;display:inline;overflow:visible;visibility:visible;opacity:1;isolation:auto;mix-blend-mode:normal;color-interpolation:sRGB;color-interpolation-filters:linearRGB;solid-color:#000000;solid-opacity:1;fill:#3b3c3d;fill-opacity:1;fill-rule:nonzero;stroke:none;stroke-width:0.75;stroke-linecap:butt;stroke-linejoin:round;stroke-miterlimit:4;stroke-dasharray:none;stroke-dashoffset:0;stroke-opacity:1;color-rendering:auto;image-rendering:auto;shape-rendering:auto;text-rendering:auto;enable-background:accumulate"
       d="m 5.4560003,294.38957 c 0.2120371,0.26249 0.3317082,0.5911 0.3317611,0.9343 l 0,1.22369 -3.1088543,0 0,-1.22369 c 0,-0.34235 0.1198298,-0.67027 0.3312584,-0.93224 0,0.003 0,0.004 0,0.006 l 0,1.32291 c 0,0.19974 0.1640946,0.36381 0.3638021,0.36381 l 1.7197917,0 c 0.1997869,0 0.3638021,-0.16407 0.3638021,-0.36381 l 0,-1.32291 c 0,-0.003 0,-0.005 0,-0.008 z"
       id="path32343-9-5"
       inkscape:connector-curvature="0" />
  </g>
</svg>
