<?xml version="1.0" encoding="UTF-8" standalone="no"?>
<!-- Created with Inkscape (http://www.inkscape.org/) -->

<svg
   xmlns:dc="http://purl.org/dc/elements/1.1/"
   xmlns:cc="http://creativecommons.org/ns#"
   xmlns:rdf="http://www.w3.org/1999/02/22-rdf-syntax-ns#"
   xmlns:svg="http://www.w3.org/2000/svg"
   xmlns="http://www.w3.org/2000/svg"
   xmlns:sodipodi="http://sodipodi.sourceforge.net/DTD/sodipodi-0.dtd"
   xmlns:inkscape="http://www.inkscape.org/namespaces/inkscape"
   width="32"
   height="32"
   viewBox="0 0 8.4666665 8.4666669"
   version="1.1"
   id="svg8"
   inkscape:version="0.91 r13725"
   sodipodi:docname="station-wagon-car-vehicle-van-transport-muv.svg">
  <defs
     id="defs2">
    <inkscape:path-effect
       effect="fillet-chamfer"
       id="path-effect6194-9"
       is_visible="true"
       fillet_chamfer_values="-2.083553,1 | -1.5194253,1 | 0,1"
       method="auto"
       radius="2"
       chamfer_steps="1"
       helper_size="0"
       flexible="false"
       use_knot_distance="false"
       ignore_radius_0="false"
       only_selected="true"
       hide_knots="false" />
    <inkscape:path-effect
       effect="fillet-chamfer"
       id="path-effect6200-3"
       is_visible="true"
       fillet_chamfer_values="0,0 | -2.1346047,1 | -1.3969861,1 | -0.057274208,1 | -0.16666667,1"
       method="auto"
       radius="0.5"
       chamfer_steps="1"
       helper_size="0"
       flexible="false"
       use_knot_distance="false"
       ignore_radius_0="false"
       only_selected="true"
       hide_knots="false" />
    <pattern
       y="0"
       x="0"
       height="6"
       width="6"
       patternUnits="userSpaceOnUse"
       id="EMFhbasepattern" />
    <pattern
       y="0"
       x="0"
       height="6"
       width="6"
       patternUnits="userSpaceOnUse"
       id="EMFhbasepattern-6" />
    <inkscape:path-effect
       effect="fillet-chamfer"
       id="path-effect6795-9"
       is_visible="true"
       fillet_chamfer_values="0,0 | -2,1 | -2,1 | -2,1"
       method="auto"
       radius="2"
       chamfer_steps="1"
       helper_size="0"
       flexible="false"
       use_knot_distance="false"
       ignore_radius_0="false"
       only_selected="true"
       hide_knots="false" />
    <pattern
       y="0"
       x="0"
       height="6"
       width="6"
       patternUnits="userSpaceOnUse"
       id="EMFhbasepattern-4" />
    <pattern
       y="0"
       x="0"
       height="6"
       width="6"
       patternUnits="userSpaceOnUse"
       id="EMFhbasepattern-3" />
    <pattern
       y="0"
       x="0"
       height="6"
       width="6"
       patternUnits="userSpaceOnUse"
       id="EMFhbasepattern-0" />
    <inkscape:path-effect
       effect="fillet-chamfer"
       id="path-effect5842-1-6-2-7"
       is_visible="true"
       fillet_chamfer_values="0,0 | -0.49999733,1 | -0.50000267,1"
       method="auto"
       radius="0.5"
       chamfer_steps="1"
       helper_size="0"
       flexible="false"
       use_knot_distance="false"
       ignore_radius_0="false"
       only_selected="true"
       hide_knots="false" />
    <inkscape:path-effect
       effect="fillet-chamfer"
       id="path-effect9698-1"
       is_visible="true"
       fillet_chamfer_values="0,0 | -0.71730365,1"
       method="auto"
       radius="1"
       chamfer_steps="1"
       helper_size="0"
       flexible="false"
       use_knot_distance="false"
       ignore_radius_0="false"
       only_selected="true"
       hide_knots="false" />
  </defs>
  <sodipodi:namedview
     id="base"
     pagecolor="#ffffff"
     bordercolor="#666666"
     borderopacity="1.0"
     inkscape:pageopacity="0.0"
     inkscape:pageshadow="2"
     inkscape:zoom="15.999999"
     inkscape:cx="7.6807993"
     inkscape:cy="15.351949"
     inkscape:document-units="mm"
     inkscape:current-layer="layer1"
     showgrid="true"
     units="px"
     inkscape:window-width="1366"
     inkscape:window-height="716"
     inkscape:window-x="-8"
     inkscape:window-y="-8"
     inkscape:window-maximized="1">
    <inkscape:grid
       type="xygrid"
       id="grid4726" />
  </sodipodi:namedview>
  <metadata
     id="metadata5">
    <rdf:RDF>
      <cc:Work
         rdf:about="">
        <dc:format>image/svg+xml</dc:format>
        <dc:type
           rdf:resource="http://purl.org/dc/dcmitype/StillImage" />
        <dc:title />
      </cc:Work>
    </rdf:RDF>
  </metadata>
  <g
     inkscape:label="Layer 1"
     inkscape:groupmode="layer"
     id="layer1"
     transform="translate(0,-288.53332)">
    <path
       inkscape:connector-curvature="0"
       id="path31440"
       d="m 6.5484534,292.89469 a 0.52916668,0.52916672 0 0 0 -0.5291666,0.52916 0.52916668,0.52916672 0 0 0 0.5291666,0.52917 0.52916668,0.52916672 0 0 0 0.5291667,-0.52917 0.52916668,0.52916672 0 0 0 -0.5291667,-0.52916 z m 0,0.33073 a 0.19843751,0.19843752 0 0 1 0.1984375,0.19843 0.19843751,0.19843752 0 0 1 -0.1984375,0.19844 0.19843751,0.19843752 0 0 1 -0.1984375,-0.19844 0.19843751,0.19843752 0 0 1 0.1984375,-0.19843 z"
       style="opacity:1;fill:#3b3c3d;fill-opacity:1;stroke:none;stroke-width:1;stroke-linecap:round;stroke-linejoin:round;stroke-miterlimit:4;stroke-dasharray:none;stroke-opacity:1" />
    <path
       inkscape:connector-curvature="0"
       id="path25073-1-18"
       d="M 1.7859533,292.96083 A 0.52916668,0.52916672 0 0 0 1.2567866,293.49 0.52916668,0.52916672 0 0 0 1.7859533,294.01917 0.52916668,0.52916672 0 0 0 2.31512,293.49 0.52916668,0.52916672 0 0 0 1.7859533,292.96083 Z m 0,0.33073 A 0.19843751,0.19843752 0 0 1 1.9843908,293.49 0.19843751,0.19843752 0 0 1 1.7859533,293.68844 0.19843751,0.19843752 0 0 1 1.5875158,293.49 0.19843751,0.19843752 0 0 1 1.7859533,293.29156 Z"
       style="opacity:1;fill:#3b3c3d;fill-opacity:1;stroke:none;stroke-width:1;stroke-linecap:round;stroke-linejoin:round;stroke-miterlimit:4;stroke-dasharray:none;stroke-opacity:1" />
    <path
       inkscape:connector-curvature="0"
       id="path25050-3-0"
       d="m 4.0514482,291.51441 -2.7398928,0.0558 c -0.076597,0.003 -0.1488546,0.0363 -0.1979083,0.0951 l -0.52297547,0.62735 c -0.0396346,0.0476 -0.0614892,0.10758 -0.0614892,0.1695 l 0,0.74517 c 0,0.12613 0.0892175,0.23482 0.21291021,0.25942 l 0.32038393,0.0641 c 0,-0.0138 -0.00423,-0.0269 -0.00423,-0.0408 0,-0.39949 0.3281098,-0.7276 0.7276042,-0.7276 0.3994944,0 0.7276042,0.32811 0.7276042,0.7276 0,0.0278 -0.00529,0.0541 -0.0082,0.0811 l 3.3424284,0.0372 c -0.015875,-0.0594 -0.026855,-0.12036 -0.026855,-0.18447 0,-0.39949 0.3281098,-0.7276 0.7276042,-0.7276 0.3994944,0 0.7276042,0.32811 0.7276042,0.7276 0,0.0693 -0.013229,0.13481 -0.031538,0.19844 l 0.4284134,0 c 0.1461294,0 0.2645833,-0.11845 0.2645833,-0.26458 l 0,-0.21913 c 0,-0.25575 -0.1824567,-0.47514 -0.4340754,-0.52089 l -1.7011915,-0.30903 c -0.03138,-0.006 -0.061542,-0.0172 -0.0889,-0.0336 l -0.954458,-0.57259 c -0.2134129,-0.128 -0.4586287,-0.19312 -0.7074429,-0.18809 z m -3.29747574,0.9839 0.26458334,0 0,0.26459 -0.26458334,0 z m 1.98953444,0 0.2645833,0 0,0.26459 -0.2645833,0 z m 1.3559896,0 0.2645833,0 0,0.26459 -0.2645833,0 z"
       style="fill:#3b3c3d;fill-rule:evenodd;stroke:none;stroke-width:0.99999994px;stroke-linecap:butt;stroke-linejoin:miter;stroke-opacity:1" />
  </g>
</svg>
