<?xml version="1.0" encoding="UTF-8" standalone="no"?>
<!-- Created with Inkscape (http://www.inkscape.org/) -->

<svg
   xmlns:dc="http://purl.org/dc/elements/1.1/"
   xmlns:cc="http://creativecommons.org/ns#"
   xmlns:rdf="http://www.w3.org/1999/02/22-rdf-syntax-ns#"
   xmlns:svg="http://www.w3.org/2000/svg"
   xmlns="http://www.w3.org/2000/svg"
   xmlns:sodipodi="http://sodipodi.sourceforge.net/DTD/sodipodi-0.dtd"
   xmlns:inkscape="http://www.inkscape.org/namespaces/inkscape"
   width="32"
   height="32"
   viewBox="0 0 8.4666665 8.4666669"
   version="1.1"
   id="svg8"
   inkscape:version="0.91 r13725"
   sodipodi:docname="steering-power-car-wheel-drive-vehicle.svg">
  <defs
     id="defs2">
    <inkscape:path-effect
       effect="fillet-chamfer"
       id="path-effect6194-9"
       is_visible="true"
       fillet_chamfer_values="-2.083553,1 | -1.5194253,1 | 0,1"
       method="auto"
       radius="2"
       chamfer_steps="1"
       helper_size="0"
       flexible="false"
       use_knot_distance="false"
       ignore_radius_0="false"
       only_selected="true"
       hide_knots="false" />
    <inkscape:path-effect
       effect="fillet-chamfer"
       id="path-effect6200-3"
       is_visible="true"
       fillet_chamfer_values="0,0 | -2.1346047,1 | -1.3969861,1 | -0.057274208,1 | -0.16666667,1"
       method="auto"
       radius="0.5"
       chamfer_steps="1"
       helper_size="0"
       flexible="false"
       use_knot_distance="false"
       ignore_radius_0="false"
       only_selected="true"
       hide_knots="false" />
    <pattern
       y="0"
       x="0"
       height="6"
       width="6"
       patternUnits="userSpaceOnUse"
       id="EMFhbasepattern" />
    <pattern
       y="0"
       x="0"
       height="6"
       width="6"
       patternUnits="userSpaceOnUse"
       id="EMFhbasepattern-6" />
    <inkscape:path-effect
       effect="fillet-chamfer"
       id="path-effect6795-9"
       is_visible="true"
       fillet_chamfer_values="0,0 | -2,1 | -2,1 | -2,1"
       method="auto"
       radius="2"
       chamfer_steps="1"
       helper_size="0"
       flexible="false"
       use_knot_distance="false"
       ignore_radius_0="false"
       only_selected="true"
       hide_knots="false" />
    <pattern
       y="0"
       x="0"
       height="6"
       width="6"
       patternUnits="userSpaceOnUse"
       id="EMFhbasepattern-4" />
    <pattern
       y="0"
       x="0"
       height="6"
       width="6"
       patternUnits="userSpaceOnUse"
       id="EMFhbasepattern-3" />
    <pattern
       y="0"
       x="0"
       height="6"
       width="6"
       patternUnits="userSpaceOnUse"
       id="EMFhbasepattern-0" />
    <inkscape:path-effect
       effect="fillet-chamfer"
       id="path-effect5842-1-6-2-7"
       is_visible="true"
       fillet_chamfer_values="0,0 | -0.49999733,1 | -0.50000267,1"
       method="auto"
       radius="0.5"
       chamfer_steps="1"
       helper_size="0"
       flexible="false"
       use_knot_distance="false"
       ignore_radius_0="false"
       only_selected="true"
       hide_knots="false" />
    <inkscape:path-effect
       effect="fillet-chamfer"
       id="path-effect9698-1"
       is_visible="true"
       fillet_chamfer_values="0,0 | -0.71730365,1"
       method="auto"
       radius="1"
       chamfer_steps="1"
       helper_size="0"
       flexible="false"
       use_knot_distance="false"
       ignore_radius_0="false"
       only_selected="true"
       hide_knots="false" />
  </defs>
  <sodipodi:namedview
     id="base"
     pagecolor="#ffffff"
     bordercolor="#666666"
     borderopacity="1.0"
     inkscape:pageopacity="0.0"
     inkscape:pageshadow="2"
     inkscape:zoom="11.313708"
     inkscape:cx="-13.435824"
     inkscape:cy="19.616211"
     inkscape:document-units="mm"
     inkscape:current-layer="layer1"
     showgrid="true"
     units="px"
     inkscape:window-width="1366"
     inkscape:window-height="716"
     inkscape:window-x="-8"
     inkscape:window-y="-8"
     inkscape:window-maximized="1">
    <inkscape:grid
       type="xygrid"
       id="grid4726" />
  </sodipodi:namedview>
  <metadata
     id="metadata5">
    <rdf:RDF>
      <cc:Work
         rdf:about="">
        <dc:format>image/svg+xml</dc:format>
        <dc:type
           rdf:resource="http://purl.org/dc/dcmitype/StillImage" />
        <dc:title />
      </cc:Work>
    </rdf:RDF>
  </metadata>
  <g
     inkscape:label="Layer 1"
     inkscape:groupmode="layer"
     id="layer1"
     transform="translate(0,-288.53332)">
    <path
       id="path33355-1"
       d="m 4.2333284,289.06249 c -2.0457584,0 -3.7041668,1.6584 -3.7041668,3.70416 0,2.04576 1.6584084,3.70417 3.7041668,3.70417 2.0457583,0 3.7041667,-1.65841 3.7041667,-3.70417 0,-2.04576 -1.6584084,-3.70416 -3.7041667,-3.70416 z m -0.1322917,0.39737 0.2645833,0 0,0.26459 -0.2645833,0 z m -0.9260417,0.1323 0.2645833,0 0,0.26458 -0.2645833,0 z m 1.8520834,0 0.2645833,0 0,0.26458 -0.2645833,0 z m -0.79375,0.52866 c 0.8595254,0.003 1.6648377,0.42005 2.1595556,1.12292 -0.075962,-0.0154 -0.1541462,-0.0312 -0.2211652,-0.0429 -0.641985,-0.11144 -1.2905317,-0.16976 -1.9394223,-0.17105 -0.6488907,0 -1.2978078,0.0542 -1.9399251,0.17105 l -0.2185987,0.0398 c 0.4954058,-0.70167 1.3006123,-1.11921 2.1595557,-1.11982 z m 0,1.71979 a 0.66145835,0.6614584 0 0 1 0.6614583,0.66146 0.66145835,0.6614584 0 0 1 -0.6614583,0.66146 0.66145835,0.6614584 0 0 1 -0.6614584,-0.66146 0.66145835,0.6614584 0 0 1 0.6614584,-0.66146 z m -1.3229167,0.52917 0.2645833,0 0,0.26458 -0.2645833,0 z m 2.38125,0 0.2645834,0 0,0.26458 -0.2645834,0 z m 1.5673388,0.0971 c 0.012435,0.0995 0.01905,0.19953 0.020108,0.29972 0,0.40175 -0.093715,0.79796 -0.2707745,1.15859 -0.2462478,-0.12322 -0.4107128,-0.39249 -0.4108451,-0.69506 0,-0.41196 0.2951163,-0.73959 0.6614584,-0.76325 z m -5.2539372,0.009 c 0.3646752,0.0199 0.6590242,0.34539 0.6593946,0.75552 0,0.3011 -0.1642269,0.5687 -0.4097867,0.68935 -0.1751277,-0.35952 -0.2664619,-0.75404 -0.2671762,-1.15393 0,-0.0972 0.00635,-0.19436 0.017462,-0.29094 z m 2.6292969,1.39888 c 0.6126957,0 1.163664,0.45591 1.3730553,1.1498 -0.4138348,0.25284 -0.8891588,0.38709 -1.3740871,0.38809 -0.4847696,0 -0.9599084,-0.13533 -1.373558,-0.38809 0.2095765,-0.69437 0.7613121,-1.14974 1.3745898,-1.1498 z m -1.0593652,1.80248 0.2645833,0 0,0.26458 -0.2645833,0 z m 1.8520834,0 0.2645833,0 0,0.26458 -0.2645833,0 z m -0.9260417,0.13229 0.2645833,0 0,0.26458 -0.2645833,0 z"
       style="opacity:1;fill:#3b3c3d;fill-opacity:1;stroke:none;stroke-width:1;stroke-linecap:round;stroke-linejoin:round;stroke-miterlimit:4;stroke-dasharray:none;stroke-opacity:1"
       inkscape:connector-curvature="0" />
  </g>
</svg>
