<?xml version="1.0" encoding="UTF-8" standalone="no"?>
<!-- Created with Inkscape (http://www.inkscape.org/) -->

<svg
   xmlns:dc="http://purl.org/dc/elements/1.1/"
   xmlns:cc="http://creativecommons.org/ns#"
   xmlns:rdf="http://www.w3.org/1999/02/22-rdf-syntax-ns#"
   xmlns:svg="http://www.w3.org/2000/svg"
   xmlns="http://www.w3.org/2000/svg"
   xmlns:sodipodi="http://sodipodi.sourceforge.net/DTD/sodipodi-0.dtd"
   xmlns:inkscape="http://www.inkscape.org/namespaces/inkscape"
   width="32"
   height="32"
   viewBox="0 0 8.4666665 8.4666669"
   version="1.1"
   id="svg8"
   inkscape:version="0.91 r13725"
   sodipodi:docname="sub-urban-vehicle-car-suv-muv-transport.svg">
  <defs
     id="defs2">
    <inkscape:path-effect
       effect="fillet-chamfer"
       id="path-effect6194-9"
       is_visible="true"
       fillet_chamfer_values="-2.083553,1 | -1.5194253,1 | 0,1"
       method="auto"
       radius="2"
       chamfer_steps="1"
       helper_size="0"
       flexible="false"
       use_knot_distance="false"
       ignore_radius_0="false"
       only_selected="true"
       hide_knots="false" />
    <inkscape:path-effect
       effect="fillet-chamfer"
       id="path-effect6200-3"
       is_visible="true"
       fillet_chamfer_values="0,0 | -2.1346047,1 | -1.3969861,1 | -0.057274208,1 | -0.16666667,1"
       method="auto"
       radius="0.5"
       chamfer_steps="1"
       helper_size="0"
       flexible="false"
       use_knot_distance="false"
       ignore_radius_0="false"
       only_selected="true"
       hide_knots="false" />
    <pattern
       y="0"
       x="0"
       height="6"
       width="6"
       patternUnits="userSpaceOnUse"
       id="EMFhbasepattern" />
    <pattern
       y="0"
       x="0"
       height="6"
       width="6"
       patternUnits="userSpaceOnUse"
       id="EMFhbasepattern-6" />
    <inkscape:path-effect
       effect="fillet-chamfer"
       id="path-effect6795-9"
       is_visible="true"
       fillet_chamfer_values="0,0 | -2,1 | -2,1 | -2,1"
       method="auto"
       radius="2"
       chamfer_steps="1"
       helper_size="0"
       flexible="false"
       use_knot_distance="false"
       ignore_radius_0="false"
       only_selected="true"
       hide_knots="false" />
    <pattern
       y="0"
       x="0"
       height="6"
       width="6"
       patternUnits="userSpaceOnUse"
       id="EMFhbasepattern-4" />
    <pattern
       y="0"
       x="0"
       height="6"
       width="6"
       patternUnits="userSpaceOnUse"
       id="EMFhbasepattern-3" />
    <pattern
       y="0"
       x="0"
       height="6"
       width="6"
       patternUnits="userSpaceOnUse"
       id="EMFhbasepattern-0" />
    <inkscape:path-effect
       effect="fillet-chamfer"
       id="path-effect5842-1-6-2-7"
       is_visible="true"
       fillet_chamfer_values="0,0 | -0.49999733,1 | -0.50000267,1"
       method="auto"
       radius="0.5"
       chamfer_steps="1"
       helper_size="0"
       flexible="false"
       use_knot_distance="false"
       ignore_radius_0="false"
       only_selected="true"
       hide_knots="false" />
    <inkscape:path-effect
       effect="fillet-chamfer"
       id="path-effect9698-1"
       is_visible="true"
       fillet_chamfer_values="0,0 | -0.71730365,1"
       method="auto"
       radius="1"
       chamfer_steps="1"
       helper_size="0"
       flexible="false"
       use_knot_distance="false"
       ignore_radius_0="false"
       only_selected="true"
       hide_knots="false" />
  </defs>
  <sodipodi:namedview
     id="base"
     pagecolor="#ffffff"
     bordercolor="#666666"
     borderopacity="1.0"
     inkscape:pageopacity="0.0"
     inkscape:pageshadow="2"
     inkscape:zoom="11.313708"
     inkscape:cx="4.4196087"
     inkscape:cy="21.503698"
     inkscape:document-units="mm"
     inkscape:current-layer="layer1"
     showgrid="true"
     units="px"
     inkscape:window-width="1366"
     inkscape:window-height="716"
     inkscape:window-x="-8"
     inkscape:window-y="-8"
     inkscape:window-maximized="1">
    <inkscape:grid
       type="xygrid"
       id="grid4726" />
  </sodipodi:namedview>
  <metadata
     id="metadata5">
    <rdf:RDF>
      <cc:Work
         rdf:about="">
        <dc:format>image/svg+xml</dc:format>
        <dc:type
           rdf:resource="http://purl.org/dc/dcmitype/StillImage" />
        <dc:title />
      </cc:Work>
    </rdf:RDF>
  </metadata>
  <g
     inkscape:label="Layer 1"
     inkscape:groupmode="layer"
     id="layer1"
     transform="translate(0,-288.53332)">
    <path
       style="fill:#3b3c3d;fill-rule:evenodd;stroke:none;stroke-width:1px;stroke-linecap:butt;stroke-linejoin:miter;stroke-opacity:1"
       d="m 2.8011672,291.24555 -1.5745884,0.0605 c -0.084799,0.003 -0.1632479,0.0472 -0.2103173,0.11781 l -0.4098131,0.61442 c -0.0289719,0.0435 -0.0444235,0.0945 -0.0444235,0.14676 l 0,1.06456 c -0.0387615,0.023 -0.0661458,0.0638 -0.0661458,0.11213 l 0,0.13229 c 0,0.14613 0.11845396,0.26458 0.26458334,0.26458 l 0.27130374,0 c -0.00265,-0.0222 -0.00661,-0.0435 -0.00661,-0.0662 2.65e-5,-0.43603 0.3577432,-0.79375 0.7937501,-0.79375 0.4360068,0 0.7937235,0.35772 0.79375,0.79375 0,0.0228 -0.00476,0.0439 -0.00661,0.0662 l 3.1884409,0 c -0.00265,-0.0222 -0.00661,-0.0435 -0.00661,-0.0662 2.65e-5,-0.43603 0.3577432,-0.79375 0.79375,-0.79375 0.4360069,0 0.7937236,0.35772 0.7937501,0.79375 0,0.0228 -0.00476,0.0439 -0.00661,0.0662 l 0.3374496,0 c 0.1461293,0 0.2645833,-0.11845 0.2645833,-0.26458 l 0,-0.13229 c 0,-0.0731 -0.05924,-0.1323 -0.1322917,-0.1323 l 0,-0.26199 c 0,-0.26606 -0.1975908,-0.49098 -0.4614862,-0.52504 l -1.5208251,-0.19637 c -0.044556,-0.006 -0.08681,-0.0225 -0.1230048,-0.0491 L 4.9895625,291.64915 C 4.6908479,291.42901 4.3330254,291.30379 3.9622383,291.2895 l -1.140513,-0.0439 c -0.00688,0 -0.013229,0 -0.020108,0 z m 2.5714061,1.18184 0.2645834,0 0,0.26459 -0.2645834,0 z m -4.3247999,0.0486 a 0.13229167,0.13229168 0 0 1 0.1322917,0.13229 0.13229167,0.13229168 0 0 1 -0.1322917,0.13229 0.13229167,0.13229168 0 0 1 -0.13229166,-0.13229 0.13229167,0.13229168 0 0 1 0.13229166,-0.13229 z"
       id="path25204-9-16"
       inkscape:connector-curvature="0" />
    <path
       style="opacity:1;fill:#3b3c3d;fill-opacity:1;stroke:none;stroke-width:1;stroke-linecap:round;stroke-linejoin:round;stroke-miterlimit:4;stroke-dasharray:none;stroke-opacity:1"
       d="m 1.8187957,293.09713 a 0.59531252,0.59535174 0 0 0 -0.5953125,0.59531 0.59531252,0.59535174 0 0 0 0.5953125,0.59532 0.59531252,0.59535174 0 0 0 0.5953125,-0.59532 0.59531252,0.59535174 0 0 0 -0.5953125,-0.59531 z m 0,0.39688 a 0.19843751,0.19843752 0 0 1 0.1984375,0.19843 0.19843751,0.19843752 0 0 1 -0.1984375,0.19844 0.19843751,0.19843752 0 0 1 -0.1984375,-0.19844 0.19843751,0.19843752 0 0 1 0.1984375,-0.19843 z"
       id="path31249"
       inkscape:connector-curvature="0" />
    <path
       style="opacity:1;fill:#3b3c3d;fill-opacity:1;stroke:none;stroke-width:1;stroke-linecap:round;stroke-linejoin:round;stroke-miterlimit:4;stroke-dasharray:none;stroke-opacity:1"
       d="m 6.5812958,293.09713 a 0.59531252,0.59535174 0 0 0 -0.5953125,0.59531 0.59531252,0.59535174 0 0 0 0.5953125,0.59532 0.59531252,0.59535174 0 0 0 0.5953126,-0.59532 0.59531252,0.59535174 0 0 0 -0.5953126,-0.59531 z m 0,0.39688 a 0.19843751,0.19843752 0 0 1 0.1984375,0.19843 0.19843751,0.19843752 0 0 1 -0.1984375,0.19844 0.19843751,0.19843752 0 0 1 -0.1984375,-0.19844 0.19843751,0.19843752 0 0 1 0.1984375,-0.19843 z"
       id="path25210-7-7"
       inkscape:connector-curvature="0" />
  </g>
</svg>
