<?xml version="1.0" encoding="UTF-8" standalone="no"?>
<!-- Created with Inkscape (http://www.inkscape.org/) -->

<svg
   xmlns:dc="http://purl.org/dc/elements/1.1/"
   xmlns:cc="http://creativecommons.org/ns#"
   xmlns:rdf="http://www.w3.org/1999/02/22-rdf-syntax-ns#"
   xmlns:svg="http://www.w3.org/2000/svg"
   xmlns="http://www.w3.org/2000/svg"
   xmlns:sodipodi="http://sodipodi.sourceforge.net/DTD/sodipodi-0.dtd"
   xmlns:inkscape="http://www.inkscape.org/namespaces/inkscape"
   width="32"
   height="32"
   viewBox="0 0 8.4666665 8.4666669"
   version="1.1"
   id="svg8"
   inkscape:version="0.91 r13725"
   sodipodi:docname="traction-control-indicator-car-dashboard-signal-stability.svg">
  <defs
     id="defs2">
    <inkscape:path-effect
       effect="fillet-chamfer"
       id="path-effect6194-9"
       is_visible="true"
       fillet_chamfer_values="-2.083553,1 | -1.5194253,1 | 0,1"
       method="auto"
       radius="2"
       chamfer_steps="1"
       helper_size="0"
       flexible="false"
       use_knot_distance="false"
       ignore_radius_0="false"
       only_selected="true"
       hide_knots="false" />
    <inkscape:path-effect
       effect="fillet-chamfer"
       id="path-effect6200-3"
       is_visible="true"
       fillet_chamfer_values="0,0 | -2.1346047,1 | -1.3969861,1 | -0.057274208,1 | -0.16666667,1"
       method="auto"
       radius="0.5"
       chamfer_steps="1"
       helper_size="0"
       flexible="false"
       use_knot_distance="false"
       ignore_radius_0="false"
       only_selected="true"
       hide_knots="false" />
    <pattern
       y="0"
       x="0"
       height="6"
       width="6"
       patternUnits="userSpaceOnUse"
       id="EMFhbasepattern" />
    <pattern
       y="0"
       x="0"
       height="6"
       width="6"
       patternUnits="userSpaceOnUse"
       id="EMFhbasepattern-6" />
    <inkscape:path-effect
       effect="fillet-chamfer"
       id="path-effect6795-9"
       is_visible="true"
       fillet_chamfer_values="0,0 | -2,1 | -2,1 | -2,1"
       method="auto"
       radius="2"
       chamfer_steps="1"
       helper_size="0"
       flexible="false"
       use_knot_distance="false"
       ignore_radius_0="false"
       only_selected="true"
       hide_knots="false" />
    <pattern
       y="0"
       x="0"
       height="6"
       width="6"
       patternUnits="userSpaceOnUse"
       id="EMFhbasepattern-4" />
    <pattern
       y="0"
       x="0"
       height="6"
       width="6"
       patternUnits="userSpaceOnUse"
       id="EMFhbasepattern-3" />
    <pattern
       y="0"
       x="0"
       height="6"
       width="6"
       patternUnits="userSpaceOnUse"
       id="EMFhbasepattern-0" />
    <inkscape:path-effect
       effect="fillet-chamfer"
       id="path-effect5842-1-6-2-7"
       is_visible="true"
       fillet_chamfer_values="0,0 | -0.49999733,1 | -0.50000267,1"
       method="auto"
       radius="0.5"
       chamfer_steps="1"
       helper_size="0"
       flexible="false"
       use_knot_distance="false"
       ignore_radius_0="false"
       only_selected="true"
       hide_knots="false" />
    <inkscape:path-effect
       effect="fillet-chamfer"
       id="path-effect9698-1"
       is_visible="true"
       fillet_chamfer_values="0,0 | -0.71730365,1"
       method="auto"
       radius="1"
       chamfer_steps="1"
       helper_size="0"
       flexible="false"
       use_knot_distance="false"
       ignore_radius_0="false"
       only_selected="true"
       hide_knots="false" />
  </defs>
  <sodipodi:namedview
     id="base"
     pagecolor="#ffffff"
     bordercolor="#666666"
     borderopacity="1.0"
     inkscape:pageopacity="0.0"
     inkscape:pageshadow="2"
     inkscape:zoom="11.313708"
     inkscape:cx="-13.435824"
     inkscape:cy="19.616211"
     inkscape:document-units="mm"
     inkscape:current-layer="layer1"
     showgrid="true"
     units="px"
     inkscape:window-width="1366"
     inkscape:window-height="716"
     inkscape:window-x="-8"
     inkscape:window-y="-8"
     inkscape:window-maximized="1">
    <inkscape:grid
       type="xygrid"
       id="grid4726" />
  </sodipodi:namedview>
  <metadata
     id="metadata5">
    <rdf:RDF>
      <cc:Work
         rdf:about="">
        <dc:format>image/svg+xml</dc:format>
        <dc:type
           rdf:resource="http://purl.org/dc/dcmitype/StillImage" />
        <dc:title />
      </cc:Work>
    </rdf:RDF>
  </metadata>
  <g
     inkscape:label="Layer 1"
     inkscape:groupmode="layer"
     id="layer1"
     transform="translate(0,-288.53332)">
    <path
       inkscape:connector-curvature="0"
       style="fill:#3b3c3d;fill-rule:evenodd;stroke:none;stroke-width:1px;stroke-linecap:butt;stroke-linejoin:miter;stroke-opacity:1"
       d="m 3.218994,288.73124 c -0.6491024,0 -1.1747765,0.52472 -1.1818409,1.17461 l 0.16383,0.0532 c 0.09017,0.0293 0.1849173,0.0444 0.2800879,0.0444 l 3.5046709,0 c 0.095171,0 0.189918,-0.0151 0.280088,-0.0444 l 0.16383,-0.0532 c -0.00714,-0.64984 -0.532818,-1.17461 -1.1818409,-1.17461 z m -1.4293586,1.37252 -0.00767,0.006 c -0.2658798,0.20015 -0.4221957,0.51443 -0.4221957,0.84801 l 0,0.67437 c 0.080751,0.20857 0.2913857,0.36021 0.5472377,0.36021 l 4.6534654,0 c 0.255905,0 0.4661164,-0.15161 0.546735,-0.36021 l 0,-0.67437 c 0,-0.33358 -0.1563423,-0.64786 -0.4221956,-0.84801 l -0.00767,-0.006 -0.3296973,0.10697 c -0.1166283,0.0378 -0.2388923,0.0574 -0.3617383,0.0574 l -3.5046709,0 c -0.1228725,0 -0.2450836,-0.0196 -0.3617384,-0.0574 z M 2.3741,290.85203 A 0.33807872,0.33935586 0 0 1 2.7120523,291.19154 0.33807872,0.33935586 0 0 1 2.3741,291.53106 0.33807872,0.33935586 0 0 1 2.0361212,291.19154 0.33807872,0.33935586 0 0 1 2.3741,290.85203 Z m 1.0138833,0 1.6908463,0 -0.1694921,0.67903 -1.3518621,0 z m 2.7047297,0 a 0.33807872,0.33935586 0 0 1 0.3379787,0.33951 0.33807872,0.33935586 0 0 1 -0.3379787,0.33952 0.33807872,0.33935586 0 0 1 -0.3379523,-0.33952 0.33807872,0.33935586 0 0 1 0.3379523,-0.33951 z m -4.7211458,1.21698 c 0.054266,0.32028 0.3300413,0.56483 0.664554,0.56483 l 4.3945705,0 c 0.334354,0 0.6101028,-0.24429 0.664554,-0.5643 -0.1470025,0.11541 -0.3321314,0.18759 -0.5348552,0.18759 l -4.6534653,0 c -0.2029354,0 -0.3881702,-0.0725 -0.535358,-0.18812 z"
       id="path33181-8-3-9" />
    <path
       style="fill:#3b3c3d;fill-rule:evenodd;stroke:none;stroke-width:1px;stroke-linecap:butt;stroke-linejoin:miter;stroke-opacity:1"
       d="m 2.0505939,292.56769 0,0.75645 c 0,0.0937 0.075671,0.16962 0.1690423,0.16962 l 0.3380846,0 c 0.093372,0 0.1690688,-0.0759 0.1690688,-0.16962 l 0,-0.75645"
       id="path33187-0-8-6"
       inkscape:connector-curvature="0"
       sodipodi:nodetypes="cccccc" />
    <path
       style="fill:#3b3c3d;fill-rule:evenodd;stroke:none;stroke-width:1px;stroke-linecap:butt;stroke-linejoin:miter;stroke-opacity:1"
       d="m 5.7547607,292.56769 0,0.75645 c 0,0.0937 0.075697,0.16962 0.1690687,0.16962 l 0.3380846,0 c 0.093371,0 0.1690423,-0.076 0.1690423,-0.16962 l 0,-0.75645"
       id="path33189-9-4-5"
       inkscape:connector-curvature="0"
       sodipodi:nodetypes="cccccc" />
    <path
       inkscape:connector-curvature="0"
       style="fill:#3b3c3d;fill-rule:evenodd;stroke:none;stroke-width:1px;stroke-linecap:butt;stroke-linejoin:miter;stroke-opacity:1"
       d="m 1.5286504,289.57975 c -0.1867165,0 -0.3379523,0.15158 -0.3379523,0.33902 l 0,0.17002 c 0,0.0854 0.063897,0.15301 0.1457325,0.16483 0.081121,-0.12512 0.1843881,-0.23677 0.3064404,-0.32866 l 0.1891242,-0.14261 c 0.00688,-0.0696 0.022754,-0.13618 0.039291,-0.2026 z"
       id="path33197-7-4-9" />
    <path
       inkscape:connector-curvature="0"
       style="fill:#3b3c3d;fill-rule:evenodd;stroke:none;stroke-width:1px;stroke-linecap:butt;stroke-linejoin:miter;stroke-opacity:1"
       d="m 6.5955272,289.57975 c 0.016404,0.0664 0.032279,0.13301 0.039291,0.2026 l 0.1891242,0.14261 c 0.1220258,0.0919 0.2253191,0.20354 0.3064404,0.32866 0.081836,-0.0119 0.1457325,-0.0794 0.1457325,-0.16483 l 0,-0.17002 c 0,-0.18744 -0.1512358,-0.33902 -0.3379523,-0.33902 z"
       id="path33199-8-2-4" />
    <path
       inkscape:connector-curvature="0"
       id="path33203-9"
       d="m 2.5027669,293.89037 a 0.1323049,0.13230491 0 0 0 -0.078026,0.23773 l 0.2640542,0.20773 c 0.1494631,0.11752 0.1207294,0.33834 -0.053737,0.41394 l -1.1100065,0.48109 c -0.3883818,0.16827 -0.4535487,0.70649 -0.1162843,0.96224 l 0.7648046,0.5798 a 0.1323049,0.13230491 0 1 0 0.1597025,-0.21084 l -0.7643019,-0.57981 c -0.1858434,-0.14094 -0.153035,-0.41577 0.060986,-0.5085 l 1.1105092,-0.48112 c 0.347398,-0.1505 0.4097602,-0.63103 0.1121304,-0.86506 l -0.2640541,-0.20772 a 0.1323049,0.13230491 0 0 0 -0.085778,-0.0295 z"
       style="color:#000000;font-style:normal;font-variant:normal;font-weight:normal;font-stretch:normal;font-size:medium;line-height:normal;font-family:sans-serif;text-indent:0;text-align:start;text-decoration:none;text-decoration-line:none;text-decoration-style:solid;text-decoration-color:#000000;letter-spacing:normal;word-spacing:normal;text-transform:none;direction:ltr;writing-mode:lr-tb;baseline-shift:baseline;text-anchor:start;white-space:normal;clip-rule:nonzero;display:inline;overflow:visible;visibility:visible;opacity:1;isolation:auto;mix-blend-mode:normal;color-interpolation:sRGB;color-interpolation-filters:linearRGB;solid-color:#000000;solid-opacity:1;fill:#3b3c3d;fill-opacity:1;fill-rule:evenodd;stroke:none;stroke-width:1px;stroke-linecap:round;stroke-linejoin:round;stroke-miterlimit:4;stroke-dasharray:none;stroke-dashoffset:0;stroke-opacity:1;color-rendering:auto;image-rendering:auto;shape-rendering:auto;text-rendering:auto;enable-background:accumulate" />
    <path
       inkscape:connector-curvature="0"
       id="path33205-8"
       d="m 5.8100586,293.89037 a 0.1323049,0.13230491 0 0 0 -0.078026,0.23773 l 0.2640542,0.20773 c 0.1494631,0.11752 0.1207293,0.33834 -0.053737,0.41394 l -1.1100065,0.48109 c -0.3883819,0.16827 -0.4535488,0.70649 -0.1162844,0.96224 l 0.7648046,0.5798 a 0.1323049,0.13230491 0 1 0 0.1597025,-0.21084 l -0.7643019,-0.57981 c -0.1858433,-0.14094 -0.153035,-0.41577 0.060987,-0.5085 l 1.1105092,-0.48112 c 0.3473979,-0.1505 0.4097602,-0.63103 0.1121304,-0.86506 l -0.2640542,-0.20772 a 0.1323049,0.13230491 0 0 0 -0.085778,-0.0295 z"
       style="color:#000000;font-style:normal;font-variant:normal;font-weight:normal;font-stretch:normal;font-size:medium;line-height:normal;font-family:sans-serif;text-indent:0;text-align:start;text-decoration:none;text-decoration-line:none;text-decoration-style:solid;text-decoration-color:#000000;letter-spacing:normal;word-spacing:normal;text-transform:none;direction:ltr;writing-mode:lr-tb;baseline-shift:baseline;text-anchor:start;white-space:normal;clip-rule:nonzero;display:inline;overflow:visible;visibility:visible;opacity:1;isolation:auto;mix-blend-mode:normal;color-interpolation:sRGB;color-interpolation-filters:linearRGB;solid-color:#000000;solid-opacity:1;fill:#3b3c3d;fill-opacity:1;fill-rule:evenodd;stroke:none;stroke-width:1px;stroke-linecap:round;stroke-linejoin:round;stroke-miterlimit:4;stroke-dasharray:none;stroke-dashoffset:0;stroke-opacity:1;color-rendering:auto;image-rendering:auto;shape-rendering:auto;text-rendering:auto;enable-background:accumulate" />
  </g>
</svg>
