<svg width="364" height="47" viewBox="0 0 364 47" fill="none" xmlns="http://www.w3.org/2000/svg">
<path fill-rule="evenodd" clip-rule="evenodd" d="M143.779 37.3036L162.017 25.3277L134.411 4.7639V9.79828H93.5773C88.2494 9.79828 83.866 13.5877 83.0716 18.5217L130.411 18.4717V27.4458L94.2176 27.4958C88.4998 27.4958 83.816 31.8398 83.5654 37.3036H143.779ZM317.192 9.64797H359.053V0.824219H316.956C301.212 0.824219 288.348 12.8539 287.704 27.9395L338.45 27.8861C341.745 27.8861 344.407 30.058 344.407 32.6736C344.407 35.3358 341.742 37.4577 338.45 37.4577L282.58 37.4539V0.824219H266.009V37.2142H232.733C227.848 36.4198 226.317 32.8739 226.317 25.968L226.32 0.824219H199.599L175.575 16.3998L154.671 0.824219H90.3713C76.1194 0.824219 64.2397 10.632 61.6241 23.6958H74.5413C69.6679 27.002 65.9179 31.6895 63.846 37.218L22.9619 37.2142C18.1422 36.4198 16.5607 32.8739 16.5607 25.968L16.5641 0.824219H0.0400457V24.2898C-0.654018 39.8298 7.77598 45.3977 17.3941 46.2814L145.847 46.2777L169.517 30.9917L190.181 46.4817H215.464L183.275 22.2717L209.746 5.11453L209.796 24.2898C209.117 39.8298 218.377 45.3977 227.999 46.2814L348.207 46.2777C356.491 46.2777 363.203 40.2198 363.203 32.6736C363.203 25.1736 356.487 19.1158 348.207 19.1158H306.69C307.08 13.838 311.624 9.64797 317.192 9.64797Z" fill="currentColor"/>
</svg>
