<svg width="501" height="89" viewBox="0 0 501 89" fill="none" xmlns="http://www.w3.org/2000/svg">
<path fill-rule="evenodd" clip-rule="evenodd" d="M197.528 86.8931H216.436V55.2103L248.961 3.45545H227.192L206.982 38.5261L186.775 3.45545H164.999L197.528 55.2103V86.8931ZM75.6366 44.6531C75.6366 20.2157 95.4508 0.404297 119.891 0.404297C144.33 0.404297 164.142 20.215 164.142 44.6531C164.142 69.0933 144.33 88.9019 119.891 88.9019C95.4508 88.9019 75.6366 69.0933 75.6366 44.6531V44.6531ZM119.891 72.6762C133.533 72.6762 144.597 60.1286 144.597 44.6531C144.597 29.1783 133.534 16.6292 119.891 16.6292C106.247 16.6292 95.1824 29.1783 95.1824 44.6531C95.1824 60.1279 106.247 72.6762 119.891 72.6762V72.6762ZM44.8595 86.8931H26.2152V18.8408H0.203613V3.45545H70.8683V18.8408H44.8595V86.8931ZM437.095 68.1199L429.925 86.8932H408.153L442.575 3.45479H465.777L500.204 86.8932H478.427L471.257 68.1199L437.095 68.1199ZM454.26 23.5023H454.097L442.445 54.0394H465.907L454.26 23.5023ZM388.533 86.8931H369.89V18.8408H343.878V3.45545H414.54V18.8408H388.533V86.8931ZM249.823 44.6531C249.823 20.2157 269.638 0.404297 294.07 0.404297C318.514 0.404297 338.326 20.215 338.326 44.6531C338.326 69.0933 318.514 88.9019 294.07 88.9019C269.638 88.9019 249.823 69.0933 249.823 44.6531ZM294.07 72.6762C307.719 72.6762 318.782 60.1286 318.782 44.6531C318.782 29.1783 307.719 16.6292 294.07 16.6292C280.43 16.6292 269.369 29.1783 269.369 44.6531C269.369 60.1279 280.43 72.6762 294.07 72.6762Z" fill="currentColor"/>
</svg>
