<svg viewBox="0 0 100 100" fill="none" xmlns="http://www.w3.org/2000/svg">
<path d="M38.2364 73.4375C23.5917 73.4375 11.7198 62.9441 11.7198 50C11.7198 37.0559 23.5917 26.5625 38.2364 26.5625C52.881 26.5625 52.881 73.4375 38.2364 73.4375Z" fill="currentColor"/>
<path fill-rule="evenodd" clip-rule="evenodd" d="M57.0568 42.1847C56.8497 42.1816 56.6439 42.2197 56.4516 42.2968C56.2594 42.374 56.0843 42.4888 55.9367 42.6342C55.7891 42.7796 55.6719 42.9528 55.5919 43.1439C55.5119 43.335 55.4707 43.5401 55.4707 43.7473C55.4707 43.9545 55.5119 44.1595 55.5919 44.3507C55.6719 44.5418 55.7891 44.7153 55.9367 44.8607C56.0843 45.0061 56.2594 45.1206 56.4516 45.1977C56.6439 45.2748 56.8497 45.3129 57.0568 45.3098H86.6955C86.9026 45.3129 87.1084 45.2748 87.3007 45.1977C87.4929 45.1206 87.668 45.0061 87.8156 44.8607C87.9632 44.7153 88.0804 44.5418 88.1604 44.3507C88.2404 44.1595 88.2816 43.9545 88.2816 43.7473C88.2816 43.5401 88.2404 43.335 88.1604 43.1439C88.0804 42.9528 87.9632 42.7796 87.8156 42.6342C87.668 42.4888 87.4929 42.374 87.3007 42.2968C87.1084 42.2197 86.9026 42.1816 86.6955 42.1847H57.0568Z" fill="currentColor"/>
<path fill-rule="evenodd" clip-rule="evenodd" d="M57.0567 29.6852C56.8499 29.6826 56.6447 29.721 56.4529 29.7984C56.2611 29.8757 56.0866 29.9904 55.9394 30.1357C55.7923 30.2811 55.6755 30.4542 55.5958 30.645C55.516 30.8359 55.475 31.0409 55.475 31.2477C55.475 31.4545 55.516 31.6592 55.5958 31.85C55.6755 32.0408 55.7923 32.214 55.9394 32.3593C56.0866 32.5047 56.2611 32.6193 56.4529 32.6967C56.6447 32.7741 56.8499 32.8128 57.0567 32.8102H86.6954C86.9022 32.8128 87.1075 32.7741 87.2993 32.6967C87.4911 32.6193 87.6656 32.5047 87.8127 32.3593C87.9599 32.214 88.0767 32.0408 88.1564 31.85C88.2361 31.6592 88.2772 31.4545 88.2772 31.2477C88.2772 31.0409 88.2361 30.8359 88.1564 30.645C88.0767 30.4542 87.9599 30.2811 87.8127 30.1357C87.6656 29.9904 87.4911 29.8757 87.2993 29.7984C87.1075 29.721 86.9022 29.6826 86.6954 29.6852H57.0567Z" fill="currentColor"/>
<path fill-rule="evenodd" clip-rule="evenodd" d="M57.0567 67.1847C56.8499 67.1822 56.6447 67.2208 56.4529 67.2982C56.2611 67.3756 56.0866 67.4903 55.9394 67.6356C55.7923 67.7809 55.6755 67.9541 55.5958 68.1449C55.516 68.3357 55.475 68.5404 55.475 68.7472C55.475 68.954 55.516 69.1587 55.5958 69.3495C55.6755 69.5403 55.7923 69.7135 55.9394 69.8588C56.0866 70.0042 56.2611 70.1188 56.4529 70.1962C56.6447 70.2736 56.8499 70.3123 57.0567 70.3097H86.6954C86.9022 70.3123 87.1075 70.2736 87.2993 70.1962C87.4911 70.1188 87.6656 70.0042 87.8127 69.8588C87.9599 69.7135 88.0767 69.5403 88.1564 69.3495C88.2361 69.1587 88.2772 68.954 88.2772 68.7472C88.2772 68.5404 88.2361 68.3357 88.1564 68.1449C88.0767 67.9541 87.9599 67.7809 87.8127 67.6356C87.6656 67.4903 87.4911 67.3756 87.2993 67.2982C87.1075 67.2208 86.9022 67.1822 86.6954 67.1847H57.0567Z" fill="currentColor"/>
<path fill-rule="evenodd" clip-rule="evenodd" d="M57.0568 54.6852C56.8497 54.6821 56.6439 54.7202 56.4516 54.7973C56.2594 54.8745 56.0843 54.9889 55.9367 55.1343C55.7891 55.2797 55.6719 55.4529 55.5919 55.644C55.5119 55.8351 55.4707 56.0406 55.4707 56.2478C55.4707 56.4549 55.5119 56.66 55.5919 56.8511C55.6719 57.0423 55.7891 57.2154 55.9367 57.3608C56.0843 57.5062 56.2594 57.6207 56.4516 57.6978C56.6439 57.775 56.8497 57.813 57.0568 57.8099H86.6955C86.9026 57.813 87.1084 57.775 87.3007 57.6978C87.4929 57.6207 87.668 57.5062 87.8156 57.3608C87.9632 57.2154 88.0804 57.0423 88.1604 56.8511C88.2404 56.66 88.2816 56.4549 88.2816 56.2478C88.2816 56.0406 88.2404 55.8351 88.1604 55.644C88.0804 55.4529 87.9632 55.2797 87.8156 55.1343C87.668 54.9889 87.4929 54.8745 87.3007 54.7973C87.1084 54.7202 86.9026 54.6821 86.6955 54.6852H57.0568Z" fill="currentColor"/>
</svg>
