<svg viewBox="0 0 100 100" fill="none" xmlns="http://www.w3.org/2000/svg">
<path fill-rule="evenodd" clip-rule="evenodd" d="M33.5881 33.5936V44.5309H5.46313V54.6875C4.60032 54.6875 3.90063 55.3864 3.90063 56.2497V57.0304C3.90063 58.7562 5.2997 60.1554 7.02563 60.1554H15.6988C15.6675 59.8932 15.6207 59.6417 15.6207 59.3747C15.6207 54.2251 19.8457 49.9999 24.9957 49.9999C30.1457 49.9999 34.3707 54.2251 34.3707 59.3747C34.3707 59.644 34.3145 59.8932 34.2926 60.1554H70.3889C70.3576 59.8932 70.3169 59.6417 70.3169 59.3747C70.3169 54.2251 74.5419 49.9999 79.6919 49.9999C84.8419 49.9999 89.0669 54.2251 89.0669 59.3747C89.0669 59.644 89.0107 59.8932 88.9889 60.1554H92.9745C94.7004 60.1554 96.0995 58.7562 96.0995 57.0304V54.827C96.0995 49.9085 92.2957 45.8267 87.3898 45.4764L76.1164 44.6708C74.882 44.5881 73.6995 44.1312 72.7229 43.371L63.5495 36.2295C61.3554 34.523 58.6507 33.5933 55.8711 33.5933L33.5881 33.5936ZM69.8981 45.7824C69.9512 45.7797 70.0044 45.7797 70.0575 45.7824H71.5775C71.7847 45.7793 71.9904 45.8174 72.1827 45.8945C72.375 45.9716 72.55 46.0861 72.6976 46.2315C72.8452 46.3769 72.9624 46.5504 73.0424 46.7415C73.1224 46.9326 73.1636 47.1377 73.1636 47.3449C73.1636 47.5521 73.1224 47.7572 73.0424 47.9483C72.9624 48.1394 72.8452 48.3126 72.6976 48.458C72.55 48.6034 72.375 48.7179 72.1827 48.795C71.9904 48.8721 71.7847 48.9105 71.5775 48.9074H70.0575C69.6444 48.9264 69.2405 48.781 68.9342 48.503C68.628 48.2251 68.4442 47.8373 68.4232 47.4242C68.4021 47.0112 68.5454 46.6066 68.8218 46.2989C69.0982 45.9913 69.4852 45.8055 69.8981 45.7824V45.7824Z" fill="currentColor"/>
<path d="M79.6819 52.3438C77.8171 52.3438 76.0287 53.0847 74.7101 54.4033C73.3914 55.7219 72.6506 57.5101 72.6506 59.3749C72.6506 60.2983 72.8325 61.2126 73.1858 62.0656C73.5392 62.9187 74.0571 63.694 74.71 64.3469C75.3629 64.9998 76.138 65.5178 76.9911 65.8712C77.8442 66.2246 78.7585 66.4065 79.6819 66.4065C80.6053 66.4065 81.5196 66.2246 82.3726 65.8712C83.2257 65.5178 84.0009 64.9998 84.6538 64.3469C85.3067 63.694 85.8246 62.9187 86.1779 62.0656C86.5313 61.2126 86.7131 60.2983 86.7131 59.3749C86.7131 57.5101 85.9723 55.7219 84.6537 54.4033C83.3351 53.0847 81.5467 52.3438 79.6819 52.3438V52.3438ZM79.6819 57.0313C80.3035 57.0313 80.8996 57.2781 81.3391 57.7176C81.7787 58.1571 82.0256 58.7533 82.0256 59.3749C82.0256 59.6827 81.965 59.9877 81.8472 60.2721C81.7295 60.5564 81.5568 60.8146 81.3392 61.0322C81.1215 61.2499 80.8632 61.4227 80.5788 61.5405C80.2944 61.6583 79.9897 61.7189 79.6819 61.7189C79.3741 61.7189 79.0693 61.6583 78.785 61.5405C78.5006 61.4227 78.2422 61.2499 78.0246 61.0322C77.807 60.8146 77.6343 60.5564 77.5165 60.2721C77.3988 59.9877 77.3381 59.6827 77.3381 59.3749C77.3382 58.7533 77.5851 58.1571 78.0246 57.7176C78.4642 57.2781 79.0603 57.0313 79.6819 57.0313V57.0313Z" fill="currentColor"/>
<path d="M24.9944 52.3438C23.1296 52.3437 21.3412 53.0847 20.0226 54.4033C18.7039 55.7219 17.9631 57.5101 17.9631 59.3749C17.9631 60.2983 18.145 61.2126 18.4983 62.0656C18.8517 62.9187 19.3696 63.694 20.0225 64.3469C20.6754 64.9998 21.4505 65.5178 22.3036 65.8712C23.1567 66.2246 24.071 66.4065 24.9944 66.4065C25.9178 66.4065 26.8321 66.2246 27.6852 65.8712C28.5382 65.5178 29.3133 64.9998 29.9663 64.3469C30.6192 63.694 31.1371 62.9187 31.4904 62.0656C31.8438 61.2126 32.0256 60.2983 32.0256 59.3749C32.0256 57.5101 31.2848 55.7219 29.9662 54.4033C28.6476 53.0847 26.8592 52.3438 24.9944 52.3438V52.3438ZM24.9944 57.0313C25.616 57.0313 26.2121 57.2781 26.6516 57.7176C27.0912 58.1571 27.3381 58.7533 27.3381 59.3749C27.3381 59.6827 27.2775 59.9877 27.1597 60.2721C27.042 60.5564 26.8693 60.8146 26.6517 61.0322C26.434 61.2499 26.1757 61.4227 25.8913 61.5405C25.6069 61.6583 25.3022 61.7189 24.9944 61.7189C24.6866 61.7189 24.3818 61.6583 24.0975 61.5405C23.8131 61.4227 23.5547 61.2499 23.3371 61.0322C23.1195 60.8146 22.9468 60.5564 22.829 60.2721C22.7113 59.9877 22.6506 59.6827 22.6506 59.3749C22.6507 58.7533 22.8976 58.1571 23.3371 57.7176C23.7767 57.2781 24.3728 57.0313 24.9944 57.0313V57.0313Z" fill="currentColor"/>
</svg>
