<svg viewBox="0 0 100 100" fill="none" xmlns="http://www.w3.org/2000/svg">
<path fill-rule="evenodd" clip-rule="evenodd" d="M27.0265 14.2393L29.8403 17.0532L11.3709 35.5224L8.55713 32.7088L27.0265 14.2393Z" fill="currentColor"/>
<path fill-rule="evenodd" clip-rule="evenodd" d="M72.9799 14.2393L91.443 32.7088L88.6352 35.5224L70.1661 17.0532L72.9799 14.2393Z" fill="currentColor"/>
<path fill-rule="evenodd" clip-rule="evenodd" d="M31.4943 18.7065L44.3728 31.5852L41.8215 34.1364C41.0487 34.9089 39.8353 34.9089 39.0625 34.1364L39.0188 34.0892C37.9606 33.0309 36.2069 33.0309 35.1491 34.0892L28.4169 40.8212C27.3588 41.8795 27.3588 43.6329 28.4169 44.6909L28.4606 44.7382C29.2331 45.5106 29.2331 46.73 28.4606 47.5028L25.9031 50.054L13.0247 37.176L31.4943 18.7065Z" fill="currentColor"/>
<path fill-rule="evenodd" clip-rule="evenodd" d="M68.5059 18.7065L86.9753 37.176L74.0968 50.0543L71.5456 47.5028C70.7731 46.7303 70.7731 45.5106 71.5456 44.7382L71.5893 44.6909C72.6471 43.6327 72.6471 41.8797 71.5893 40.8216L64.8508 34.0892C63.793 33.0309 62.0455 33.0309 60.9874 34.0892L60.9437 34.1364C60.1712 34.9089 58.9515 34.9089 58.1787 34.1364L55.6274 31.5852L68.5059 18.7065Z" fill="currentColor"/>
<path fill-rule="evenodd" clip-rule="evenodd" d="M34.845 37.7134L48.34 51.208L45.5262 54.022L32.0312 40.527L34.845 37.7134Z" fill="currentColor"/>
<path fill-rule="evenodd" clip-rule="evenodd" d="M65.1552 37.7134L67.9687 40.527L40.5518 67.9442L37.738 65.1305L65.1552 37.7134Z" fill="currentColor"/>
<path fill-rule="evenodd" clip-rule="evenodd" d="M54.474 57.3418L62.2622 65.1303L59.4484 67.9439L51.6603 60.1558L54.474 57.3418Z" fill="currentColor"/>
<path fill-rule="evenodd" clip-rule="evenodd" d="M27.0631 64.624L19.9219 71.7651V78.6193L27.0631 85.7604H33.9175L41.0584 78.6193V71.7651L33.9175 64.624H27.0631ZM30.4078 69.6594C31.1485 69.6477 31.884 69.7849 32.5707 70.0628C33.2575 70.3406 33.8814 70.7533 34.4056 71.2767C34.9202 71.7907 35.3283 72.401 35.6068 73.0728C35.8853 73.7447 36.0287 74.465 36.0287 75.1922C36.0287 75.9195 35.8853 76.6395 35.6068 77.3113C35.3283 77.9831 34.9202 78.5938 34.4056 79.1077C33.8916 79.6222 33.2813 80.0303 32.6095 80.3087C31.9377 80.5872 31.2176 80.7305 30.4903 80.7305C29.7631 80.7305 29.043 80.5872 28.3711 80.3087C27.6993 80.0303 27.089 79.6222 26.575 79.1077C26.0605 78.5938 25.6523 77.9831 25.3738 77.3113C25.0953 76.6395 24.9519 75.9195 24.9519 75.1922C24.9519 74.465 25.0953 73.7447 25.3738 73.0728C25.6523 72.401 26.0605 71.7907 26.575 71.2767C27.5936 70.2597 28.9685 69.6796 30.4078 69.6594V69.6594Z" fill="currentColor"/>
<path fill-rule="evenodd" clip-rule="evenodd" d="M66.0827 64.624L58.9418 71.7651V78.6193L66.0827 85.7604H72.9371L80.078 78.6193V71.7651L72.9371 64.624H66.0827ZM69.5924 69.6594C71.0317 69.6796 72.4066 70.2597 73.4252 71.2767C73.9397 71.7907 74.3479 72.401 74.6264 73.0728C74.9049 73.7447 75.0483 74.465 75.0483 75.1922C75.0483 75.9195 74.9049 76.6395 74.6264 77.3113C74.3479 77.9831 73.9397 78.5938 73.4252 79.1077C72.9112 79.6222 72.3009 80.0303 71.6291 80.3087C70.9573 80.5872 70.2371 80.7305 69.5099 80.7305C68.7826 80.7305 68.0625 80.5872 67.3907 80.3087C66.7189 80.0303 66.1086 79.6222 65.5946 79.1077C65.0801 78.5938 64.6719 77.9831 64.3934 77.3113C64.1149 76.6395 63.9715 75.9195 63.9715 75.1922C63.9715 74.465 64.1149 73.7447 64.3934 73.0728C64.6719 72.401 65.0801 71.7907 65.5946 71.2767C66.1188 70.7533 66.7427 70.3406 67.4295 70.0628C68.1162 69.7849 68.8517 69.6477 69.5924 69.6594V69.6594Z" fill="currentColor"/>
</svg>
