<svg viewBox="0 0 100 100" fill="none" xmlns="http://www.w3.org/2000/svg">
<path d="M50 6.24951C44.2547 6.2495 38.5656 7.38137 33.2576 9.58001C27.9496 11.7787 23.1266 15.0011 19.0641 19.0636C15.0015 23.1262 11.7789 27.9492 9.58025 33.2572C7.38161 38.5652 6.24999 44.2545 6.25 49.9998C6.24999 55.7452 7.38161 61.4341 9.58025 66.7421C11.7789 72.0501 15.0015 76.8731 19.0641 80.9356C23.1266 84.9982 27.9496 88.2206 33.2576 90.4193C38.5656 92.6179 44.2547 93.7498 50 93.7498C55.7453 93.7498 61.4344 92.6179 66.7424 90.4193C72.0504 88.2206 76.8734 84.9982 80.9359 80.9356C84.9985 76.8731 88.2211 72.0501 90.4198 66.7421C92.6184 61.4341 93.75 55.7452 93.75 49.9998C93.75 44.2545 92.6184 38.5652 90.4198 33.2572C88.2211 27.9492 84.9985 23.1262 80.9359 19.0636C76.8734 15.0011 72.0504 11.7787 66.7424 9.58001C61.4344 7.38137 55.7453 6.2495 50 6.24951V6.24951ZM50 12.4996C59.9456 12.4996 69.4839 16.4504 76.5165 23.4831C83.5491 30.5157 87.5 40.0542 87.5 49.9998C87.5 59.9454 83.5491 69.4836 76.5165 76.5162C69.4839 83.5488 59.9456 87.4997 50 87.4997C40.0544 87.4997 30.5161 83.5488 23.4835 76.5162C16.4509 69.4836 12.5 59.9454 12.5 49.9998C12.5 40.0542 16.4509 30.5157 23.4835 23.4831C30.5161 16.4504 40.0544 12.4996 50 12.4996V12.4996Z" fill="currentColor"/>
<path fill-rule="evenodd" clip-rule="evenodd" d="M35.9399 71.8721V74.9971H39.0649V71.8721H35.9399Z" fill="currentColor"/>
<path fill-rule="evenodd" clip-rule="evenodd" d="M42.1899 71.8721V74.9971H45.3149V71.8721H42.1899Z" fill="currentColor"/>
<path fill-rule="evenodd" clip-rule="evenodd" d="M48.4399 71.8721V74.9971H51.5649V71.8721H48.4399Z" fill="currentColor"/>
<path fill-rule="evenodd" clip-rule="evenodd" d="M54.6899 71.8721V74.9971H57.8149V71.8721H54.6899Z" fill="currentColor"/>
<path fill-rule="evenodd" clip-rule="evenodd" d="M60.9399 71.8721V74.9971H64.0649V71.8721H60.9399Z" fill="currentColor"/>
<path d="M50.0024 20.3091C33.6249 20.3091 20.3149 33.6193 20.3149 49.9967C20.3149 54.0911 21.1437 58.0037 22.6465 61.5565L25.5274 60.336C24.1837 57.1594 23.4399 53.669 23.4399 49.9967C23.4399 35.308 35.314 23.4341 50.0024 23.4341C64.6909 23.4341 76.5649 35.308 76.5649 49.9967C76.5649 53.669 75.8212 57.1594 74.4774 60.336L77.3584 61.5565C78.8612 58.0037 79.6899 54.0911 79.6899 49.9967C79.6899 33.6193 66.3799 20.3091 50.0024 20.3091V20.3091Z" fill="currentColor"/>
<path d="M53.9087 49.9998C53.9087 50.5127 53.8077 51.0206 53.6113 51.4945C53.415 51.9684 53.1273 52.3991 52.7646 52.7618C52.4019 53.1246 51.9712 53.4122 51.4973 53.6085C51.0234 53.8048 50.5154 53.9059 50.0024 53.9059C49.4895 53.9059 48.9815 53.8048 48.5076 53.6085C48.0337 53.4122 47.603 53.1246 47.2403 52.7618C46.8776 52.3991 46.5898 51.9684 46.3935 51.4945C46.1972 51.0206 46.0962 50.5127 46.0962 49.9998C46.0962 49.4868 46.1972 48.9786 46.3935 48.5046C46.5898 48.0307 46.8776 47.6 47.2403 47.2373C47.603 46.8746 48.0337 46.5869 48.5076 46.3906C48.9815 46.1943 49.4895 46.0933 50.0024 46.0933C50.5154 46.0933 51.0234 46.1943 51.4973 46.3906C51.9712 46.5869 52.4019 46.8746 52.7646 47.2373C53.1273 47.6 53.415 48.0307 53.6113 48.5046C53.8077 48.9786 53.9087 49.4868 53.9087 49.9998V49.9998Z" fill="currentColor"/>
<path fill-rule="evenodd" clip-rule="evenodd" d="M67.5429 34.6685L53.4344 48.777L51.2247 46.5675L65.3332 32.459L67.5429 34.6685Z" fill="currentColor"/>
</svg>
