<svg viewBox="0 0 100 100" fill="none" xmlns="http://www.w3.org/2000/svg">
<path d="M48.4375 12.5C26.8824 12.5 9.375 30.0074 9.375 51.5624C9.375 73.1177 26.8824 90.6251 48.4375 90.6251C69.9926 90.6251 87.5 73.1177 87.5 51.5624C87.5 30.0074 69.9926 12.5 48.4375 12.5ZM48.4375 15.625C68.3037 15.625 84.375 31.6961 84.375 51.5624C84.375 71.4286 68.3037 87.5001 48.4375 87.5001C28.5713 87.5001 12.5 71.4286 12.5 51.5624C12.5 31.6961 28.5713 15.625 48.4375 15.625V15.625Z" fill="currentColor"/>
<path fill-rule="evenodd" clip-rule="evenodd" d="M34.375 73.4375V76.5625H37.5V73.4375H34.375Z" fill="currentColor"/>
<path fill-rule="evenodd" clip-rule="evenodd" d="M40.625 73.4375V76.5625H43.75V73.4375H40.625Z" fill="currentColor"/>
<path fill-rule="evenodd" clip-rule="evenodd" d="M46.875 73.4375V76.5625H50V73.4375H46.875Z" fill="currentColor"/>
<path fill-rule="evenodd" clip-rule="evenodd" d="M53.125 73.4375V76.5625H56.25V73.4375H53.125Z" fill="currentColor"/>
<path fill-rule="evenodd" clip-rule="evenodd" d="M59.375 73.4375V76.5625H62.5V73.4375H59.375Z" fill="currentColor"/>
<path d="M48.4375 21.875C32.0601 21.875 18.75 35.1848 18.75 51.5622C18.75 55.6566 19.5788 59.5696 21.0815 63.1224L23.9624 61.9019C22.6188 58.7255 21.875 55.2345 21.875 51.5622C21.875 36.8736 33.7489 25 48.4375 25C63.1261 25 75 36.8736 75 51.5622C75 55.2345 74.2562 58.7255 72.9126 61.9019L75.7935 63.1224C77.2962 59.5696 78.125 55.6566 78.125 51.5622C78.125 35.1848 64.8149 21.875 48.4375 21.875V21.875Z" fill="currentColor"/>
<path d="M48.4375 46.0933C45.4357 46.0933 42.9688 48.5604 42.9688 51.5619C42.9688 54.5638 45.4357 57.0309 48.4375 57.0309C51.4393 57.0309 53.9063 54.5638 53.9063 51.5619C53.9063 48.5604 51.4393 46.0933 48.4375 46.0933ZM48.4375 49.2183C49.7504 49.2183 50.7812 50.2494 50.7812 51.5619C50.7812 52.8751 49.7504 53.9059 48.4375 53.9059C47.1246 53.9059 46.0938 52.8746 46.0938 51.5619C46.0938 50.2491 47.1246 49.2183 48.4375 49.2183Z" fill="currentColor"/>
<path fill-rule="evenodd" clip-rule="evenodd" d="M65.0025 37.2099L52.8491 49.3633L50.6394 47.1534L62.7928 35L65.0025 37.2099Z" fill="currentColor"/>
<path d="M48.4375 6.25C23.4306 6.25 3.12497 26.5552 3.125 51.5621C3.12497 76.569 23.4306 96.8749 48.4375 96.8749C73.4444 96.8749 93.75 76.569 93.75 51.5621C93.75 26.5552 73.4444 6.25 48.4375 6.25ZM48.4375 9.37469C71.7555 9.37469 90.625 28.2443 90.625 51.5621C90.625 74.8803 71.7555 93.7499 48.4375 93.7499C25.1195 93.7499 6.24997 74.8803 6.25 51.5621C6.24997 28.2443 25.1195 9.37469 48.4375 9.37469V9.37469Z" fill="currentColor"/>
</svg>
