<svg viewBox="0 0 100 100" fill="none" xmlns="http://www.w3.org/2000/svg">
<path d="M49.995 26.5615C36.2065 26.5615 24.9956 37.7731 24.9956 51.5615C24.9956 65.3503 36.2065 76.5616 49.995 76.5616C63.7834 76.5616 74.9947 65.3503 74.9947 51.5615C74.9947 37.7731 63.7834 26.5615 49.995 26.5615V26.5615ZM49.995 29.6866C62.0947 29.6866 71.8697 39.4619 71.8697 51.5615C71.8697 63.6612 62.0947 73.4365 49.995 73.4365C37.8956 73.4365 28.1206 63.6612 28.1206 51.5615C28.1206 39.4619 37.8956 29.6866 49.995 29.6866Z" fill="currentColor"/>
<path fill-rule="evenodd" clip-rule="evenodd" d="M49.9952 62.7979C47.177 62.7979 44.7017 64.9077 43.007 68.2971L40.7852 72.7407L43.5808 74.1381L45.8023 69.6949C47.1945 66.9096 48.7667 65.9229 49.9952 65.9229C51.2236 65.9229 52.7958 66.9101 54.1883 69.6949L56.4098 74.1381L59.2055 72.7407L56.9836 68.2971C55.2889 64.9077 52.8133 62.7979 49.9952 62.7979Z" fill="currentColor"/>
<path fill-rule="evenodd" clip-rule="evenodd" d="M60.6791 55.0359C59.8082 57.7159 61.0498 60.7223 63.7494 63.3813L67.2888 66.8679L69.4816 64.6407L65.9426 61.1548C63.7238 58.9698 63.271 57.17 63.6507 56.0016C64.0304 54.8335 65.4548 53.643 68.5341 53.1793L73.4463 52.439L72.981 49.3481L68.0685 50.0889C64.3213 50.6534 61.5498 52.3556 60.6791 55.0359H60.6791Z" fill="currentColor"/>
<path fill-rule="evenodd" clip-rule="evenodd" d="M56.598 42.4764C58.878 44.1329 62.1211 43.8811 65.4843 42.1351L69.8933 39.8459L68.4533 37.072L64.0443 39.3611C61.2808 40.7961 59.4289 40.6703 58.4349 39.9479C57.4411 39.2263 56.7493 37.5035 57.2599 34.4313L58.0743 29.5311L54.9911 29.0186L54.1768 33.9191C53.5555 37.6572 54.3174 40.8198 56.598 42.4761L56.598 42.4764Z" fill="currentColor"/>
<path fill-rule="evenodd" clip-rule="evenodd" d="M43.3923 42.4761C45.672 40.8196 46.4345 37.6572 45.8135 33.9191L44.9992 29.0186L41.9164 29.5311L42.7304 34.4313C43.2411 37.5032 42.5492 39.2258 41.5554 39.9479C40.5617 40.6696 38.7098 40.7962 35.9461 39.3611L31.537 37.0723L30.0967 39.8459L34.5061 42.1351C37.8692 43.881 41.1126 44.1326 43.3923 42.4764L43.3923 42.4761Z" fill="currentColor"/>
<path fill-rule="evenodd" clip-rule="evenodd" d="M39.3114 55.0361C38.4405 52.356 35.6689 50.6533 31.9217 50.089L27.0095 49.3486L26.5442 52.4387L31.4561 53.1794C34.5354 53.6436 35.9598 54.8332 36.3392 56.0013C36.7189 57.1695 36.2673 58.9701 34.0476 61.1553L30.5083 64.6412L32.7014 66.8676L36.2408 63.3818C38.9404 60.7227 40.1823 57.716 39.3114 55.0361H39.3114Z" fill="currentColor"/>
<path d="M49.995 43.749C45.6991 43.749 42.1829 47.2654 42.1829 51.5616C42.1829 55.8579 45.6991 59.3739 49.995 59.3739C54.2913 59.3739 57.8075 55.8579 57.8075 51.5616C57.8075 47.2654 54.2913 43.749 49.995 43.749ZM49.995 46.8741C52.6022 46.8741 54.6825 48.9545 54.6825 51.5616C54.6825 54.1692 52.6022 56.2489 49.995 56.2489C47.3879 56.2489 45.3079 54.1692 45.3079 51.5616C45.3079 48.9545 47.3879 46.8741 49.995 46.8741Z" fill="currentColor"/>
<path d="M51.2592 40.7638C51.5028 40.4286 51.6032 40.0103 51.5383 39.6011C51.4735 39.1918 51.2488 38.8249 50.9136 38.5814C50.7475 38.4608 50.5594 38.3744 50.3599 38.3265C50.1603 38.2786 49.9533 38.2702 49.7506 38.3024C49.548 38.3345 49.3536 38.4063 49.1787 38.5136C49.0037 38.6208 48.8516 38.7617 48.7311 38.9277C48.6104 39.0937 48.5237 39.2819 48.4758 39.4814C48.4279 39.6809 48.4198 39.8879 48.4518 40.0905C48.4839 40.2932 48.5556 40.4876 48.6629 40.6626C48.7701 40.8375 48.9107 40.9896 49.0767 41.1102C49.2427 41.2308 49.4309 41.3176 49.6304 41.3654C49.8299 41.4133 50.0369 41.4213 50.2396 41.3892C50.4423 41.3571 50.6366 41.2852 50.8116 41.178C50.9865 41.0707 51.1386 40.9302 51.2592 40.7642V40.7638Z" fill="currentColor"/>
<path d="M40.1161 47.0257C39.9955 46.8596 39.8434 46.7188 39.6685 46.6115C39.4935 46.5043 39.2992 46.4328 39.0965 46.4006C38.8938 46.3685 38.6868 46.3766 38.4873 46.4244C38.2877 46.4723 38.0996 46.559 37.9336 46.6796C37.5983 46.9232 37.3736 47.29 37.3088 47.6993C37.244 48.1086 37.3444 48.5269 37.5879 48.8621C37.7085 49.0282 37.8606 49.1687 38.0356 49.2759C38.2105 49.3832 38.4049 49.455 38.6075 49.4871C38.8102 49.5193 39.0172 49.5112 39.2167 49.4633C39.4163 49.4155 39.6044 49.3287 39.7704 49.2081C39.9365 49.0875 40.0771 48.9354 40.1843 48.7605C40.2915 48.5855 40.3632 48.3911 40.3953 48.1884C40.4274 47.9858 40.4192 47.7788 40.3713 47.5793C40.3234 47.3798 40.2367 47.1917 40.1161 47.0257V47.0257Z" fill="currentColor"/>
<path d="M42.6332 59.5534C42.438 59.6167 42.2572 59.7178 42.1011 59.8511C41.945 59.9843 41.8168 60.1473 41.7236 60.3301C41.6304 60.513 41.5741 60.7123 41.558 60.9169C41.5419 61.1215 41.5663 61.3273 41.6297 61.5225C41.6932 61.7176 41.7944 61.8981 41.9277 62.0541C42.061 62.2101 42.2237 62.3384 42.4066 62.4315C42.5894 62.5246 42.7888 62.5809 42.9934 62.5969C43.1979 62.613 43.4036 62.5887 43.5988 62.5252C43.9928 62.3971 44.3199 62.1176 44.508 61.7485C44.6961 61.3793 44.7299 60.9506 44.6019 60.5565C44.5386 60.3613 44.4374 60.1806 44.3042 60.0245C44.171 59.8683 44.0083 59.7399 43.8255 59.6467C43.6427 59.5535 43.4433 59.4971 43.2387 59.4809C43.0341 59.4647 42.8283 59.4893 42.6331 59.5526L42.6332 59.5534Z" fill="currentColor"/>
<path d="M55.3291 61.0396C55.3291 61.2448 55.3695 61.448 55.448 61.6376C55.5265 61.8271 55.6416 61.9996 55.7867 62.1447C55.9318 62.2898 56.1041 62.4046 56.2936 62.4832C56.4832 62.5617 56.6864 62.6021 56.8916 62.6021C57.0968 62.6021 57.3 62.5617 57.4896 62.4832C57.6791 62.4046 57.8514 62.2898 57.9965 62.1447C58.1416 61.9996 58.2567 61.8271 58.3352 61.6376C58.4137 61.448 58.4541 61.2448 58.4541 61.0396C58.4541 60.8344 58.4137 60.6312 58.3352 60.4416C58.2566 60.252 58.1415 60.0799 57.9964 59.9348C57.8514 59.7897 57.6791 59.6745 57.4895 59.596C57.3 59.5175 57.0968 59.477 56.8916 59.4771C56.6864 59.477 56.4832 59.5175 56.2937 59.596C56.1041 59.6745 55.9318 59.7897 55.7868 59.9348C55.6417 60.0799 55.5266 60.252 55.448 60.4416C55.3695 60.6312 55.3291 60.8344 55.3291 61.0396V61.0396Z" fill="currentColor"/>
<path d="M60.6729 49.4173C60.8681 49.4806 61.0739 49.5052 61.2785 49.489C61.4831 49.4728 61.6824 49.4164 61.8653 49.3232C62.0481 49.23 62.2108 49.1016 62.344 48.9454C62.4772 48.7893 62.5784 48.6086 62.6417 48.4134C62.7697 48.0193 62.7359 47.5906 62.5478 47.2214C62.3597 46.8523 62.0326 46.5728 61.6386 46.4447C61.4434 46.3812 61.2377 46.3569 61.0332 46.373C60.8286 46.389 60.6292 46.4453 60.4464 46.5384C60.2635 46.6315 60.1008 46.7598 59.9675 46.9158C59.8342 47.0718 59.733 47.2523 59.6695 47.4474C59.6061 47.6426 59.5817 47.8484 59.5978 48.053C59.6139 48.2576 59.6702 48.4569 59.7634 48.6398C59.8566 48.8226 59.9848 48.9856 60.1409 49.1188C60.297 49.2521 60.4778 49.3532 60.6729 49.4165L60.6729 49.4173Z" fill="currentColor"/>
<path d="M46.0482 6.42326C21.1379 8.60263 2.68291 30.6033 4.86228 55.5139C7.04197 80.4242 29.036 98.8801 53.946 96.7004C78.856 94.5214 97.317 72.5265 95.1379 47.6159C92.9585 22.7056 70.9582 4.24389 46.0482 6.42326V6.42326ZM46.3232 9.53606C69.5507 7.50385 89.9932 24.6567 92.0254 47.8848C94.0576 71.1126 76.9054 91.5555 53.6776 93.5876C30.4501 95.6198 10.0076 78.467 7.9754 55.2393C5.94322 32.0111 23.0954 11.5679 46.3232 9.53606Z" fill="currentColor"/>
<path fill-rule="evenodd" clip-rule="evenodd" d="M48.3489 6.28334C48.0781 6.29857 47.8159 6.384 47.5881 6.53132C47.3603 6.67864 47.1748 6.88276 47.0498 7.12353C46.9248 7.3643 46.8646 7.63354 46.8752 7.90461C46.8858 8.17568 46.9668 8.43919 47.1102 8.66947L49.4292 12.5334C49.5311 12.7164 49.6686 12.8769 49.8338 13.0056C49.9989 13.1343 50.1882 13.2287 50.3905 13.2828C50.5927 13.3369 50.8038 13.3497 51.0111 13.3206C51.2185 13.2916 51.4179 13.2213 51.5975 13.1137C51.7771 13.0062 51.9333 12.8633 52.0567 12.6942C52.1801 12.5251 52.2683 12.3329 52.316 12.129C52.3637 11.9251 52.37 11.7139 52.3344 11.5076C52.2988 11.3013 52.2221 11.1041 52.1089 10.928L49.7895 7.05829C49.6444 6.80865 49.433 6.60393 49.1787 6.46716C48.9244 6.33039 48.6372 6.26677 48.3489 6.28334V6.28334Z" fill="currentColor"/>
<path fill-rule="evenodd" clip-rule="evenodd" d="M33.5725 9.45068C33.2471 9.45107 32.9299 9.55297 32.6653 9.74228C32.4006 9.9316 32.2016 10.199 32.0961 10.5068C31.9906 10.8146 31.9839 11.1476 32.0768 11.4594C32.1697 11.7713 32.3576 12.0464 32.6144 12.2463L36.1116 15.0844C36.2711 15.2139 36.4545 15.3106 36.6514 15.3692C36.8484 15.4277 37.0549 15.447 37.2592 15.4258C37.4635 15.4045 37.6617 15.343 37.8423 15.2452C38.023 15.1473 38.1826 15.0151 38.312 14.8555C38.4415 14.696 38.5383 14.5125 38.5968 14.3156C38.6554 14.1187 38.6746 13.9122 38.6533 13.7079C38.6321 13.5036 38.5708 13.3053 38.4729 13.1247C38.3751 12.944 38.2426 12.7845 38.0831 12.655L34.5797 9.8169C34.2976 9.57994 33.9409 9.45019 33.5725 9.45068H33.5725Z" fill="currentColor"/>
<path fill-rule="evenodd" clip-rule="evenodd" d="M20.6152 17.5135C20.2511 17.533 19.9052 17.6791 19.6375 17.9266C19.3698 18.1742 19.197 18.5077 19.1492 18.8692C19.1014 19.2307 19.1815 19.5975 19.3757 19.9062C19.5698 20.2148 19.8658 20.4455 20.2124 20.5589L24.4727 22.0299C24.6674 22.1002 24.8742 22.1314 25.0811 22.1211C25.2879 22.1108 25.4906 22.0594 25.6774 21.9701C25.8642 21.8807 26.0314 21.7551 26.1693 21.6006C26.3072 21.4461 26.413 21.2658 26.4805 21.07C26.5481 20.8743 26.576 20.6672 26.5628 20.4605C26.5496 20.2539 26.4954 20.0517 26.4034 19.8662C26.3114 19.6806 26.1835 19.5152 26.027 19.3796C25.8706 19.2439 25.6887 19.1408 25.492 19.0761L21.2317 17.6051C21.0346 17.5325 20.825 17.5004 20.6152 17.5107V17.5135Z" fill="currentColor"/>
<path fill-rule="evenodd" clip-rule="evenodd" d="M15.8606 29.4212L11.3503 29.4919C11.1445 29.4946 10.9411 29.538 10.7521 29.6195C10.563 29.701 10.3919 29.8191 10.2486 29.967C10.1053 30.1148 9.9926 30.2894 9.91701 30.4809C9.84142 30.6725 9.80441 30.877 9.80811 31.0829C9.81182 31.2887 9.85617 31.4915 9.9386 31.6801C10.021 31.8688 10.1399 32.0393 10.2885 32.1819C10.437 32.3244 10.6123 32.4363 10.8041 32.511C10.996 32.5856 11.2007 32.6217 11.4066 32.6169L15.9106 32.5459C16.1165 32.5437 16.3199 32.5009 16.5091 32.4198C16.6984 32.3387 16.8697 32.2209 17.0133 32.0734C17.1569 31.9259 17.27 31.7515 17.346 31.5601C17.4219 31.3688 17.4593 31.1644 17.4561 30.9585C17.4528 30.7527 17.4088 30.5494 17.3268 30.3606C17.2447 30.1717 17.1262 30.001 16.9779 29.8581C16.8297 29.7152 16.6546 29.6033 16.4629 29.5283C16.2712 29.4533 16.0665 29.4169 15.8607 29.4212H15.8606Z" fill="currentColor"/>
<path fill-rule="evenodd" clip-rule="evenodd" d="M10.911 42.3181C10.7168 42.3179 10.5243 42.354 10.3432 42.4244L6.13792 44.0413C5.94071 44.1105 5.75937 44.2185 5.60461 44.3589C5.44986 44.4993 5.32484 44.6696 5.23696 44.8592C5.14908 45.0488 5.10011 45.2541 5.09296 45.4629C5.0858 45.6718 5.12061 45.8798 5.19532 46.075C5.27003 46.2701 5.38312 46.4484 5.5279 46.5991C5.67269 46.7497 5.84622 46.8699 6.03824 46.9523C6.23026 47.0347 6.43686 47.0776 6.64582 47.0788C6.85478 47.08 7.06185 47.0394 7.25479 46.9591L11.4601 45.3418C11.8041 45.2141 12.0921 44.9693 12.2737 44.6505C12.4554 44.3317 12.519 43.959 12.4536 43.598C12.3881 43.237 12.1976 42.9107 11.9156 42.676C11.6336 42.4413 11.278 42.3133 10.911 42.3145V42.3181Z" fill="currentColor"/>
<path fill-rule="evenodd" clip-rule="evenodd" d="M10.5628 56.1485C10.2098 56.1693 9.87421 56.3092 9.61097 56.5454L6.21128 59.4996C6.04237 59.6294 5.90178 59.7921 5.79816 59.9783C5.69453 60.1644 5.63006 60.3697 5.6087 60.5816C5.58735 60.7936 5.60955 61.0079 5.67396 61.211C5.73837 61.414 5.84362 61.6019 5.98324 61.7628C6.12286 61.9237 6.29391 62.0543 6.48587 62.1467C6.67784 62.2391 6.88666 62.2912 7.09951 62.2999C7.31237 62.3086 7.52475 62.2735 7.72363 62.1972C7.9225 62.1208 8.10366 62.0048 8.25597 61.8558L11.6616 58.9013C11.9117 58.6895 12.0889 58.4046 12.1682 58.0866C12.2475 57.7687 12.2247 57.4337 12.1032 57.1293C11.9818 56.8249 11.7677 56.5664 11.4912 56.3904C11.2148 56.2144 10.89 56.1299 10.5628 56.1485V56.1485Z" fill="currentColor"/>
<path fill-rule="evenodd" clip-rule="evenodd" d="M15.1161 69.2344C14.8351 69.2362 14.5599 69.3138 14.3193 69.4589C14.0787 69.604 13.8816 69.8111 13.7489 70.0587L11.5642 73.9955C11.4542 74.1751 11.3816 74.375 11.3508 74.5834C11.32 74.7918 11.3316 75.0042 11.3851 75.208C11.4385 75.4118 11.5326 75.6027 11.6616 75.7692C11.7907 75.9357 11.9521 76.0744 12.1361 76.1769C12.3201 76.2794 12.523 76.3436 12.7325 76.3658C12.942 76.3879 13.1538 76.3674 13.3552 76.3056C13.5566 76.2437 13.7434 76.1419 13.9044 76.006C14.0654 75.8702 14.1972 75.7032 14.292 75.5151L16.4833 71.5722C16.6194 71.3338 16.6904 71.0639 16.6889 70.7893C16.6875 70.5148 16.6138 70.2456 16.4752 70.0086C16.3366 69.7716 16.138 69.5753 15.8994 69.4395C15.6608 69.3036 15.3906 69.2329 15.1161 69.2347V69.2344Z" fill="currentColor"/>
<path fill-rule="evenodd" clip-rule="evenodd" d="M23.7158 80.0013C23.3569 80.0229 23.0164 80.1676 22.7519 80.4111C22.4873 80.6546 22.3147 80.9819 22.2633 81.3378L21.5552 85.7933C21.5107 86.0008 21.509 86.2154 21.5501 86.4237C21.5913 86.6319 21.6744 86.8296 21.7945 87.0047C21.9145 87.1798 22.069 87.3285 22.2485 87.4419C22.428 87.5553 22.6286 87.6307 22.8383 87.664C23.048 87.6972 23.2622 87.6874 23.4679 87.6351C23.6737 87.5829 23.8666 87.4894 24.035 87.3601C24.2033 87.2308 24.3436 87.0686 24.4471 86.8832C24.5507 86.6979 24.6155 86.4935 24.6374 86.2824L25.3455 81.8327C25.3864 81.6005 25.3742 81.3617 25.3098 81.1349C25.2454 80.908 25.1306 80.699 24.9738 80.5229C24.817 80.3467 24.6224 80.2083 24.4045 80.1181C24.1867 80.0278 23.9512 79.988 23.7158 80.0017V80.0013Z" fill="currentColor"/>
<path fill-rule="evenodd" clip-rule="evenodd" d="M49.2888 89.8156C49.0045 89.8027 48.722 89.8678 48.4719 90.0037C48.2218 90.1397 48.0136 90.3413 47.8697 90.5869C47.7259 90.8326 47.6518 91.1129 47.6557 91.3976C47.6595 91.6822 47.741 91.9604 47.8913 92.2021L50.2104 96.0657C50.3121 96.2489 50.4496 96.4096 50.6147 96.5386C50.7798 96.6675 50.9692 96.7622 51.1716 96.8165C51.374 96.8708 51.5852 96.8836 51.7927 96.8547C52.0002 96.8257 52.1998 96.7554 52.3796 96.6478C52.5593 96.5401 52.7156 96.3975 52.8391 96.2282C52.9626 96.0589 53.0507 95.8664 53.0984 95.6623C53.146 95.4583 53.1521 95.2467 53.1163 95.0402C53.0805 94.8337 53.0036 94.6367 52.8901 94.4606L50.5707 90.5966C50.4397 90.3694 50.2537 90.1791 50.0296 90.0426C49.8056 89.9062 49.5509 89.828 49.2888 89.8159V89.8156Z" fill="currentColor"/>
<path fill-rule="evenodd" clip-rule="evenodd" d="M62.8754 87.6792C62.55 87.6795 62.2328 87.7815 61.9681 87.9708C61.7034 88.1601 61.5045 88.4275 61.3989 88.7353C61.2934 89.0431 61.2866 89.3761 61.3794 89.688C61.4723 89.9998 61.6602 90.2749 61.917 90.4748L65.4142 93.3129C65.5737 93.4424 65.7571 93.5391 65.954 93.5977C66.1509 93.6562 66.3574 93.6755 66.5617 93.6543C66.7661 93.633 66.9642 93.5715 67.1448 93.4737C67.3254 93.3759 67.485 93.2436 67.6145 93.0841C67.7439 92.9245 67.8406 92.741 67.8992 92.5441C67.9577 92.3472 67.9769 92.1407 67.9556 91.9364C67.9344 91.7321 67.8731 91.5338 67.7752 91.3532C67.6774 91.1726 67.5449 91.013 67.3854 90.8835L63.882 88.0458C63.6001 87.809 63.2436 87.6792 62.8754 87.6796V87.6792Z" fill="currentColor"/>
<path fill-rule="evenodd" clip-rule="evenodd" d="M75.0638 81.0019C74.6862 80.984 74.3149 81.1037 74.0187 81.3386C73.7225 81.5735 73.5215 81.9079 73.4529 82.2797C73.3844 82.6515 73.4529 83.0352 73.6459 83.3603C73.8388 83.6854 74.143 83.9297 74.5022 84.0477L78.7625 85.5186C78.9575 85.5899 79.1648 85.6214 79.3721 85.6116C79.5795 85.6019 79.7829 85.5509 79.9703 85.4617C80.1578 85.3725 80.3256 85.247 80.464 85.0922C80.6023 84.9374 80.7084 84.7565 80.7761 84.5602C80.8438 84.3639 80.8717 84.1564 80.8582 83.9493C80.8447 83.7421 80.79 83.5396 80.6974 83.3538C80.6048 83.168 80.476 83.0023 80.3188 82.8668C80.1615 82.7313 79.9787 82.6285 79.7813 82.5644L75.5213 81.0935C75.3744 81.0392 75.2202 81.0074 75.0638 80.999L75.0638 81.0019Z" fill="currentColor"/>
<path fill-rule="evenodd" clip-rule="evenodd" d="M88.5889 70.5102L84.0845 70.5812C83.8787 70.5838 83.6753 70.6269 83.4863 70.7084C83.2972 70.7899 83.1261 70.9081 82.9828 71.0559C82.8394 71.2037 82.7267 71.3784 82.6511 71.5699C82.5756 71.7614 82.5385 71.966 82.5422 72.1718C82.5459 72.3777 82.5903 72.5808 82.6727 72.7694C82.7552 72.9581 82.8741 73.1286 83.0226 73.2712C83.1712 73.4137 83.3464 73.5256 83.5383 73.6003C83.7302 73.6749 83.9349 73.711 84.1407 73.7062L88.6451 73.6352C88.851 73.6326 89.0543 73.5891 89.2434 73.5076C89.4325 73.4261 89.6036 73.3083 89.7469 73.1605C89.8902 73.0127 90.0029 72.838 90.0785 72.6465C90.1541 72.455 90.1911 72.2504 90.1874 72.0446C90.1837 71.8387 90.1394 71.6356 90.0569 71.447C89.9745 71.2583 89.8556 71.0878 89.707 70.9452C89.5585 70.8027 89.3832 70.6908 89.1914 70.6162C88.9995 70.5415 88.7947 70.5054 88.5889 70.5102Z" fill="currentColor"/>
<path fill-rule="evenodd" clip-rule="evenodd" d="M93.3069 56.057C93.1147 56.0576 92.9244 56.0937 92.7453 56.1633L88.5337 57.7749C88.3363 57.8438 88.1547 57.9517 87.9997 58.0921C87.8447 58.2324 87.7195 58.4027 87.6314 58.5924C87.5433 58.782 87.4942 58.9875 87.487 59.1965C87.4798 59.4055 87.5146 59.6135 87.5894 59.8088C87.6641 60.0042 87.7773 60.1825 87.9223 60.3333C88.0672 60.484 88.241 60.6042 88.4332 60.6865C88.6254 60.7689 88.8322 60.8121 89.0413 60.813C89.2504 60.814 89.4576 60.7728 89.6506 60.6923L93.8622 59.0808C94.2064 58.9527 94.4945 58.7074 94.6759 58.388C94.8573 58.0686 94.9204 57.6957 94.8542 57.3344C94.7879 56.9731 94.5965 56.6466 94.3135 56.4124C94.0306 56.1782 93.6742 56.0513 93.3069 56.0537V56.057Z" fill="currentColor"/>
<path fill-rule="evenodd" clip-rule="evenodd" d="M92.8428 40.8714C92.437 40.8551 92.0408 40.9974 91.7382 41.2682L88.3385 44.2221C88.1765 44.3542 88.0427 44.5177 87.9449 44.7025C87.8472 44.8873 87.7876 45.0897 87.7695 45.298C87.7515 45.5063 87.7754 45.7162 87.8399 45.9151C87.9043 46.1139 88.0081 46.2977 88.1449 46.4557C88.2817 46.6138 88.4489 46.743 88.6364 46.8353C88.824 46.9276 89.0282 46.9812 89.2369 46.9932C89.4456 47.0051 89.6546 46.9751 89.8515 46.9048C90.0484 46.8346 90.2292 46.7254 90.3832 46.5841L93.7891 43.6299C94.031 43.4269 94.2057 43.1555 94.2903 42.8513C94.3748 42.5471 94.3653 42.2247 94.2628 41.926C94.1604 41.6274 93.9699 41.3667 93.7164 41.1785C93.4629 40.9902 93.1584 40.8831 92.8428 40.8714H92.8428Z" fill="currentColor"/>
<path fill-rule="evenodd" clip-rule="evenodd" d="M87.0628 26.791C86.7831 26.7938 86.5092 26.8718 86.2698 27.0166C86.0304 27.1614 85.8343 27.3677 85.7019 27.6142L83.5166 31.551C83.4076 31.7306 83.336 31.9306 83.306 32.1385C83.2761 32.3464 83.2883 32.5583 83.342 32.7614C83.3958 32.9645 83.4899 33.1545 83.6188 33.3204C83.7477 33.4863 83.9088 33.6244 84.0923 33.7266C84.2758 33.8289 84.4781 33.8929 84.687 33.9151C84.8959 33.9374 85.1071 33.9176 85.308 33.8564C85.509 33.7952 85.6955 33.694 85.8565 33.559C86.0175 33.4241 86.1496 33.2582 86.245 33.071L88.4363 29.1281C88.5726 28.8892 88.6436 28.6185 88.6419 28.3434C88.6401 28.0683 88.5659 27.7988 88.4265 27.5616C88.2872 27.3245 88.0877 27.1282 87.8482 26.9928C87.6088 26.8575 87.3379 26.7877 87.0628 26.7906V26.791Z" fill="currentColor"/>
<path fill-rule="evenodd" clip-rule="evenodd" d="M76.8154 15.5115C76.4554 15.5318 76.1135 15.6759 75.8476 15.9195C75.5817 16.1631 75.4083 16.4911 75.3567 16.848L74.6489 21.2973C74.6168 21.5001 74.6249 21.7072 74.6728 21.9068C74.7208 22.1065 74.8076 22.2948 74.9282 22.4609C75.0489 22.6269 75.2011 22.7677 75.3762 22.875C75.5512 22.9823 75.7457 23.0538 75.9485 23.0859C76.1512 23.118 76.3583 23.11 76.558 23.0621C76.7576 23.0141 76.9458 22.9272 77.1119 22.8065C77.278 22.6858 77.4187 22.5335 77.5259 22.3585C77.6332 22.1834 77.7049 21.9892 77.737 21.7865L78.4451 17.3371C78.485 17.1053 78.4721 16.8676 78.4072 16.6415C78.3424 16.4154 78.2273 16.2067 78.0707 16.0313C77.914 15.8558 77.7198 15.7178 77.5024 15.6279C77.2851 15.538 77.0503 15.4984 76.8154 15.5119L76.8154 15.5115Z" fill="currentColor"/>
<path fill-rule="evenodd" clip-rule="evenodd" d="M63.4731 8.38232C63.2413 8.38372 63.0126 8.43696 62.8038 8.53768C62.595 8.63839 62.4111 8.78425 62.2657 8.9648C62.1202 9.14536 62.0168 9.35603 61.9628 9.58152C61.9089 9.80701 61.9058 10.0417 61.9537 10.2685L62.8081 14.6937C62.8447 14.8978 62.9215 15.0927 63.0341 15.2668C63.1466 15.4409 63.2927 15.5908 63.4637 15.708C63.6347 15.8251 63.8274 15.9071 64.0304 15.9491C64.2334 15.9911 64.4427 15.9923 64.6462 15.9527C64.8497 15.9131 65.0433 15.8336 65.2157 15.7184C65.3882 15.6033 65.536 15.4551 65.6506 15.2823C65.7652 15.1095 65.8443 14.9157 65.8833 14.7121C65.9223 14.5085 65.9204 14.299 65.8778 14.0961L65.0234 9.67091C64.9586 9.3078 64.7674 8.97919 64.4836 8.74349C64.1999 8.50779 63.842 8.38021 63.4731 8.38305V8.38232Z" fill="currentColor"/>
<path fill-rule="evenodd" clip-rule="evenodd" d="M35.6358 87.1484C35.4045 87.1499 35.1765 87.2027 34.9681 87.3031C34.7597 87.4034 34.5761 87.5489 34.4307 87.7288C34.2853 87.9086 34.1816 88.1185 34.1272 88.3433C34.0727 88.5681 34.0688 88.802 34.1158 89.0285L34.9765 93.4537C35.0054 93.664 35.0769 93.8662 35.1865 94.0481C35.2962 94.2299 35.4418 94.3872 35.6144 94.5109C35.787 94.6345 35.983 94.7217 36.1904 94.7671C36.3978 94.8125 36.6123 94.8153 36.8208 94.7751C37.0293 94.7348 37.2274 94.6526 37.403 94.5332C37.5786 94.4138 37.728 94.2599 37.8422 94.0809C37.9563 93.9018 38.0328 93.7015 38.0669 93.4919C38.101 93.2823 38.092 93.0678 38.0405 92.8618L37.1861 88.4367C37.1213 88.0735 36.9301 87.7453 36.6464 87.5096C36.3626 87.2739 36.0047 87.146 35.6358 87.1488L35.6358 87.1484Z" fill="currentColor"/>
</svg>
