<svg width="2263" height="863" viewBox="0 0 2263 863" fill="none" xmlns="http://www.w3.org/2000/svg">
<path d="M722.512 18.9786C717.668 30.48 684.971 101.909 649.852 178.787C590.513 308.933 585.064 318.619 566.293 324.672C552.367 329.515 543.89 337.989 536.624 354.939C522.697 386.416 522.697 388.232 540.257 383.995C548.734 382.179 555.394 381.573 555.394 383.389C555.394 385.205 536.624 427.579 513.615 477.821L471.835 569.227H521.486H571.137L603.834 476.611C651.063 342.227 641.375 354.333 711.008 345.253C743.705 341.016 781.246 339.2 793.961 339.805L817.576 342.227L843.612 414.867C876.915 508.088 876.915 509.904 846.034 505.061C818.787 500.824 818.181 500.824 830.291 529.88C838.768 549.251 841.796 551.067 864.199 551.067C880.548 551.067 890.236 554.093 892.052 560.147C895.08 567.411 906.584 569.227 944.125 569.227C988.932 569.227 991.96 568.621 988.327 557.725C985.299 547.435 988.932 545.619 1019.81 541.987C1189.96 523.827 1244.45 514.747 1316.51 492.955C1354.65 481.453 1372.21 472.373 1390.98 454.819C1416.42 430.605 1417.63 420.92 1397.65 397.312C1355.26 347.675 1137.28 297.432 952.602 293.8L867.832 292.589L856.933 268.981C850.878 256.269 821.209 190.893 791.539 124.307C761.264 58.3253 735.228 2.63462 734.017 0.818623C732.2 -0.392043 727.356 7.47729 722.512 18.9786ZM766.714 192.709C780.035 232.056 792.75 272.613 795.172 282.299L798.805 300.459L735.833 306.512C701.925 310.144 671.65 311.355 669.228 309.539C666.806 307.723 678.311 267.771 695.265 221.16C711.613 174.549 726.751 132.781 727.962 128.544C734.017 110.989 743.099 125.517 766.714 192.709ZM1126.99 348.28C1156.66 353.728 1194.2 363.413 1210.55 370.677C1254.75 389.443 1262.62 410.629 1236.58 441.501C1211.76 470.557 1131.22 492.349 1019.21 500.219L963.501 504.456L927.777 423.947C907.795 379.757 890.236 341.016 889.025 337.384C885.997 328.304 1059.17 336.173 1126.99 348.28Z" fill="currentColor"/>
<path d="M1085.81 63.1679C1084 69.8265 1082.18 83.1439 1082.18 92.2239C1082.18 117.648 1071.28 118.253 1067.04 92.8292C1058.56 43.1919 1051.3 42.5865 1030.71 91.0132C1016.18 125.517 1015.57 137.624 1029.5 118.859C1036.77 109.173 1039.79 108.568 1052.51 115.832C1060.38 120.069 1079.15 122.491 1094.29 121.28C1109.43 120.675 1150 119.464 1184.51 118.859C1229.32 118.253 1248.69 115.832 1249.9 110.384C1251.72 105.541 1246.27 103.12 1233.55 103.12C1216.6 103.12 1214.78 101.304 1216.6 86.7759C1217.81 72.8532 1222.05 69.2212 1240.82 66.1945C1272.31 61.3519 1278.36 66.7999 1273.52 96.4612C1271.7 110.384 1272.31 121.28 1275.33 121.28C1278.36 121.28 1282.6 109.173 1284.42 94.0399C1288.05 73.4585 1291.68 66.7999 1299.55 66.7999C1309.24 66.7999 1310.45 71.0372 1308.03 95.2505C1306.21 115.227 1307.43 121.28 1311.06 115.227C1314.69 110.384 1318.32 94.0399 1318.93 78.9065L1321.35 51.6665L1205.1 51.0612C1091.26 49.8505 1089.45 50.4559 1085.81 63.1679ZM1120.93 71.6425C1126.99 81.9332 1116.69 103.12 1105.79 103.12C1097.92 103.12 1094.29 98.8825 1094.29 89.1972C1094.29 81.3279 1096.11 72.8532 1098.53 71.0372C1103.98 64.9839 1117.3 65.5892 1120.93 71.6425ZM1175.43 71.6425C1181.48 81.9332 1171.19 103.12 1160.29 103.12C1151.81 103.12 1148.78 98.8825 1148.78 84.9599C1148.78 71.0372 1151.81 66.7999 1160.29 66.7999C1166.95 66.7999 1173.61 69.2212 1175.43 71.6425ZM1047.06 98.2772C1042.82 102.515 1039.79 103.12 1039.79 99.4879C1039.79 95.8559 1041.61 91.0132 1044.03 89.1972C1045.85 86.7759 1049.48 86.1705 1051.3 87.9865C1052.51 89.8025 1050.69 94.6452 1047.06 98.2772Z" fill="currentColor"/>
<path d="M1333.46 72.8535C1341.94 131.571 1348.6 135.203 1368.58 91.0135C1375.85 74.6695 1383.72 60.7468 1386.14 60.7468C1388.56 60.7468 1388.56 75.8802 1386.75 94.0402L1383.11 127.333H1402.49C1415.2 127.333 1421.26 124.307 1421.26 118.253C1421.26 113.411 1415.81 109.173 1409.15 109.173C1402.49 109.173 1397.04 106.147 1397.04 103.12C1397.04 99.4882 1402.49 97.0668 1409.15 97.0668C1415.81 97.0668 1421.26 94.0402 1421.26 91.0135C1421.26 87.3815 1417.02 84.9602 1412.18 84.9602C1397.65 84.9602 1401.88 74.0642 1417.02 71.6428C1441.24 68.0108 1430.95 57.7202 1401.88 55.9042C1374.03 54.0882 1372.82 54.6935 1363.13 77.0908L1352.84 100.093L1346.18 77.6962C1335.88 44.4028 1328.62 41.9815 1333.46 72.8535Z" fill="currentColor"/>
<path d="M1461.22 83.1444C1453.35 132.176 1454.56 133.992 1486.65 133.387C1502.4 132.782 1527.22 133.992 1542.36 135.808C1557.5 137.624 1579.3 140.651 1590.8 141.862C1602.3 143.072 1623.5 146.099 1638.03 148.52C1662.85 152.758 1663.46 152.758 1663.46 137.019C1663.46 115.832 1672.54 117.043 1681.62 139.44C1688.89 157.6 1702.82 166.075 1696.16 148.52C1694.34 143.678 1695.55 131.571 1699.18 121.28C1708.27 94.0404 1702.21 86.1711 1670.73 81.9337C1654.98 80.1177 1636.21 77.0911 1628.34 75.2751C1616.84 72.8537 1614.41 75.8804 1610.78 91.0137C1608.36 104.331 1605.33 107.963 1601.09 103.726C1597.46 100.094 1589.59 97.0671 1582.93 97.0671C1576.87 97.0671 1573.85 94.0404 1575.66 91.0137C1578.08 87.3817 1584.14 84.9604 1589.59 86.1711C1595.64 86.7764 1600.49 84.9604 1601.7 81.9337C1602.3 78.3017 1579.3 72.8537 1550.23 68.6164C1464.25 57.7204 1466.07 57.1151 1461.22 83.1444ZM1499.97 87.3817C1499.97 104.331 1492.71 115.227 1481.2 115.227C1473.33 115.227 1469.7 110.99 1469.7 101.304C1469.7 93.4351 1471.52 84.9604 1473.94 83.1444C1481.2 75.2751 1499.97 78.9071 1499.97 87.3817ZM1561.74 98.2777C1562.95 107.358 1568.4 112.806 1577.48 114.016C1584.74 115.227 1590.8 118.859 1590.8 122.491C1590.8 126.123 1579.9 126.728 1562.34 124.307C1531.46 120.07 1512.08 109.174 1535.09 109.174C1552.65 109.174 1552.05 98.2777 1535.09 91.0137C1522.38 86.1711 1522.98 85.5657 1540.54 85.5657C1555.68 84.9604 1559.92 87.3817 1561.74 98.2777ZM1651.96 97.0671C1654.98 97.0671 1657.4 105.542 1657.4 115.832C1657.4 132.176 1655.59 133.992 1641.06 132.176C1632.58 130.966 1624.1 127.334 1622.89 123.096C1621.07 118.859 1624.71 117.648 1632.58 119.464C1641.66 121.886 1645.29 120.07 1645.29 112.806C1645.29 107.358 1641.06 103.12 1636.21 103.12C1631.37 103.12 1627.13 100.094 1627.13 96.4617C1627.13 92.8297 1631.37 91.6191 1636.82 93.4351C1642.27 95.2511 1648.93 97.0671 1651.96 97.0671ZM1693.73 109.174C1693.73 112.2 1688.29 115.227 1681.62 115.227C1674.96 115.227 1669.51 112.2 1669.51 109.174C1669.51 105.542 1674.96 103.12 1681.62 103.12C1688.29 103.12 1693.73 105.542 1693.73 109.174Z" fill="currentColor"/>
<path d="M828.475 82.5388C829.686 86.1708 847.245 122.491 866.621 162.443L902.951 235.688L912.639 219.344C934.437 183.629 927.777 184.84 1142.12 185.445C1407.33 186.051 1595.04 203.605 1784.56 244.768C1964.39 283.509 2090.34 347.069 2101.24 403.365C2121.82 513.536 1862.67 603.731 1412.18 643.077C1281.39 653.973 919.905 652.157 786.695 640.051C536.624 616.443 357.396 578.307 242.956 523.827C101.875 457.845 98.8474 380.968 235.085 314.381C284.13 289.563 395.542 254.453 460.331 242.347L501.505 234.477L522.092 254.453L542.073 273.824L570.532 219.949C586.88 190.893 607.467 152.152 617.761 133.992L635.926 101.304L602.018 129.149C543.89 176.365 520.881 186.656 430.661 205.421C259.305 241.136 161.214 272.613 88.5539 314.987C-84.0137 416.077 1.36185 529.88 309.561 608.573C817.576 738.115 1681.62 718.744 2080.65 568.621C2324.67 477.216 2322.85 362.203 2076.41 271.403C1929.88 216.923 1735.51 181.208 1454.56 156.995C1411.57 153.363 1274.73 149.731 1151.21 148.52C933.832 146.704 925.355 146.099 899.924 133.387C885.392 126.123 862.988 109.779 849.667 97.6721C836.952 85.5654 827.264 78.9068 828.475 82.5388Z" fill="currentColor"/>
<path d="M1717.95 96.4613C1717.95 99.488 1720.98 104.331 1724.61 106.752C1728.85 109.173 1730.06 121.28 1728.25 137.019C1727.04 151.547 1727.64 163.653 1730.67 163.653C1733.7 163.653 1736.12 155.784 1736.12 146.099C1736.12 121.885 1741.57 109.173 1752.47 109.173C1757.31 109.173 1760.34 105.541 1759.13 101.304C1756.1 92.224 1717.95 87.3813 1717.95 96.4613Z" fill="currentColor"/>
<path d="M1788.19 133.992C1785.77 151.547 1786.38 167.285 1788.8 169.707C1791.22 172.733 1804.54 175.76 1817.86 177.576C1831.18 179.392 1859.64 184.84 1881.44 189.683C1903.24 194.525 1922.61 197.552 1925.04 195.736C1927.46 194.525 1938.36 197.552 1949.26 202.395C1960.15 207.237 1977.71 212.08 1988.61 213.291C2005.57 215.712 2007.99 213.896 2011.62 197.552L2015.86 178.787L2027.36 204.816C2033.42 219.344 2041.9 230.24 2046.14 229.635C2050.37 229.029 2061.88 231.451 2070.96 235.083C2093.36 244.768 2097.6 244.163 2101.84 232.661C2108.5 215.107 2105.47 206.027 2090.34 198.763C2070.36 189.683 2070.96 180.603 2090.94 185.445C2103.05 188.472 2106.08 187.261 2104.26 181.208C2103.05 176.365 2092.15 172.128 2080.65 170.917C2069.75 169.707 2058.25 165.469 2055.82 161.837C2052.8 157.6 2050.98 160.627 2050.98 169.707C2050.98 178.181 2048.56 188.472 2045.53 193.315C2041.29 199.973 2038.26 195.736 2032.81 177.576C2026.15 155.784 2023.13 152.757 1995.27 146.099C1978.92 141.861 1963.79 140.045 1961.97 141.861C1960.15 143.677 1954.7 142.467 1949.86 138.835C1945.62 135.203 1941.99 133.992 1941.99 136.413C1941.99 138.835 1938.36 137.624 1934.12 133.992C1929.27 130.36 1917.77 126.728 1908.08 125.517C1897.79 124.307 1886.89 121.28 1882.65 118.859C1878.41 116.437 1867.51 115.227 1858.43 115.832C1849.35 116.437 1834.21 114.016 1825.13 109.779C1796.67 98.2772 1792.43 100.699 1788.19 133.992ZM1819.68 126.728C1832.39 134.597 1825.73 154.573 1809.99 156.389C1799.7 158.205 1796.67 155.784 1796.67 143.677C1796.67 122.491 1804.54 116.437 1819.68 126.728ZM1887.49 148.52C1887.49 159.416 1891.73 164.259 1902.63 167.285C1911.11 169.101 1917.77 173.944 1917.77 176.971C1917.77 180.603 1911.11 181.208 1902.03 179.392C1892.94 176.971 1878.41 173.339 1868.72 171.523C1848.74 167.891 1845.11 157.6 1863.27 157.6C1869.93 157.6 1875.38 154.573 1875.38 151.547C1875.38 147.915 1871.15 145.493 1866.3 145.493C1861.46 145.493 1857.22 142.467 1857.22 139.44C1857.22 135.808 1863.88 133.387 1872.36 133.387C1884.47 133.387 1887.49 136.413 1887.49 148.52ZM1927.46 145.493C1932.3 145.493 1935.93 149.125 1935.93 153.968C1935.93 161.232 1932.91 161.232 1917.77 155.784C1908.08 152.152 1899.6 146.704 1899.6 143.677C1899.6 140.651 1903.84 140.045 1909.29 141.861C1914.74 143.677 1922.61 145.493 1927.46 145.493ZM1989.22 161.232C1996.48 163.653 2002.54 167.285 2002.54 169.707C2002.54 172.733 1997.09 173.339 1991.03 171.523C1981.35 169.101 1979.53 170.917 1982.56 181.208C1984.98 190.288 1983.16 193.92 1976.5 193.92C1963.79 193.92 1958.34 184.235 1963.18 169.707C1967.42 156.389 1968.63 155.784 1989.22 161.232ZM2090.94 222.371C2084.89 228.424 2057.03 217.528 2057.03 209.659C2057.03 202.395 2060.06 202.395 2075.8 210.264C2085.49 215.107 2092.76 220.555 2090.94 222.371Z" fill="currentColor"/>
<path d="M1372.82 292.59C1372.82 293.8 1375.85 303.486 1379.48 314.382C1385.53 331.936 1387.96 333.147 1415.2 333.147H1444.27L1470.3 413.051C1484.84 457.24 1497.55 497.192 1498.76 500.824C1499.97 506.272 1493.31 508.694 1478.78 508.694C1459.41 508.694 1456.98 510.51 1458.8 522.011L1460.62 535.934L1602.91 535.328C1828.76 534.723 1955.31 509.299 2018.89 452.398C2038.26 435.448 2042.5 408.208 2028.58 392.47C1981.95 341.016 1780.93 305.302 1471.52 293.8C1417.02 291.984 1372.82 291.379 1372.82 292.59ZM1654.38 339.2C1794.25 351.307 1870.54 371.283 1890.52 401.55C1922.61 450.582 1821.49 495.982 1656.8 506.878L1599.28 510.51L1564.16 429.395C1544.78 384.6 1527.83 344.648 1526.01 340.411C1522.38 331.331 1554.47 330.726 1654.38 339.2Z" fill="currentColor"/>
<path d="M2023.73 620.68C2007.38 625.523 1965 637.024 1929.88 646.709C1857.82 666.685 1862.06 659.421 1882.65 731.456L1895.37 775.646L1914.14 772.014C1984.98 757.486 2078.83 731.456 2090.94 723.587C2098.81 718.744 2105.47 709.664 2105.47 703.611C2105.47 686.056 2081.25 627.339 2070.36 618.864C2058.85 610.389 2061.88 610.389 2023.73 620.68ZM2049.16 680.608C2053.4 693.926 2055.82 705.427 2054.61 706.638C2050.37 710.875 1963.79 732.667 1950.47 732.667C1940.78 732.667 1935.93 726.614 1930.48 707.848C1926.25 693.926 1923.82 682.424 1925.04 681.213C1930.48 675.765 2013.44 655.184 2026.15 655.789C2037.66 657 2042.5 662.448 2049.16 680.608Z" fill="currentColor"/>
<path d="M1717.95 691.504C1690.71 696.952 1689.5 698.768 1653.17 760.512C1613.2 827.704 1613.2 827.099 1658.01 819.835C1677.39 816.203 1682.23 811.966 1702.82 772.619C1715.53 749.011 1727.04 728.43 1727.64 727.219C1731.28 723.587 1760.34 744.774 1760.34 750.827C1760.34 754.459 1756.71 756.88 1751.86 756.88C1741.57 756.88 1724.01 773.224 1724.01 781.699C1724.01 785.331 1737.94 785.936 1760.34 783.515C1784.56 781.094 1799.7 781.699 1805.15 786.542C1811.2 791.384 1821.49 791.384 1844.5 786.542L1875.38 779.883L1816.05 732.062C1783.95 706.032 1754.89 684.846 1751.26 684.846C1748.23 685.451 1733.09 688.478 1717.95 691.504Z" fill="currentColor"/>
<path d="M501.505 698.163C492.422 709.664 476.679 755.669 476.679 772.013C476.679 795.016 496.055 805.307 565.082 818.019C641.981 831.336 690.421 833.152 700.109 821.651C703.742 816.808 709.191 795.621 712.219 774.435C719.485 721.771 714.641 716.928 631.082 702.4C554.183 688.477 511.193 687.267 501.505 698.163ZM600.807 729.64C627.449 734.483 652.88 738.115 657.118 738.72C663.779 738.72 664.384 744.773 661.357 764.144C658.935 778.672 654.696 792.595 652.274 795.621C649.247 798.648 629.265 797.437 605.651 793.805C534.202 781.699 531.174 780.488 531.174 769.592C531.174 755.064 543.284 720.56 548.128 720.56C550.55 720.56 574.165 724.797 600.807 729.64Z" fill="currentColor"/>
<path d="M1466.07 723.587C1387.35 731.456 1369.79 737.51 1363.74 757.486C1357.68 776.856 1366.16 833.758 1376.45 842.232C1393.41 856.155 1526.01 845.259 1570.82 826.494L1592.62 817.414L1588.98 777.462C1584.14 715.112 1576.27 712.086 1466.07 723.587ZM1537.52 772.619C1539.33 785.331 1539.33 798.648 1536.3 801.07C1529.64 808.334 1436.4 819.835 1424.29 814.992C1417.02 812.571 1415.2 804.702 1416.42 785.936L1418.23 759.907L1469.7 753.248C1498.16 749.616 1523.59 747.195 1527.22 747.8C1530.25 748.406 1535.09 759.302 1537.52 772.619Z" fill="currentColor"/>
<path d="M735.228 728.43C726.751 750.827 717.063 830.126 722.512 834.968C725.54 837.995 738.861 841.627 752.182 842.838C769.741 844.048 776.402 842.232 777.613 835.574C778.218 830.731 780.64 810.755 782.457 791.384L786.695 756.275L849.667 760.512L912.639 764.75V749.616C912.639 734.483 912.034 734.483 835.741 727.219C739.466 718.744 738.861 718.744 735.228 728.43Z" fill="currentColor"/>
<path d="M927.777 738.72C927.171 740.536 924.144 768.381 921.722 800.464L917.483 859.787H948.364H978.639L980.455 815.597L982.272 772.013H1042.82H1103.37L1105.19 755.669L1107 739.325L1018.6 737.509C969.556 736.299 928.988 736.904 927.777 738.72Z" fill="currentColor"/>
<path d="M1122.75 742.957C1120.33 744.773 1118.51 772.013 1118.51 802.885V858.576L1141.52 861.603C1153.63 862.813 1165.74 862.813 1168.77 861.603C1171.19 860.392 1173 845.864 1173 828.915C1173 812.571 1174.82 799.253 1177.85 799.253C1180.27 799.253 1203.88 813.176 1230.53 829.52C1271.1 854.944 1283.81 859.787 1307.43 859.787C1323.77 859.787 1336.49 857.365 1336.49 854.944C1336.49 851.917 1325.59 844.653 1312.27 838.6C1288.65 827.704 1278.97 811.36 1296.53 811.36C1321.96 811.36 1334.07 767.171 1313.48 749.011C1303.79 740.536 1287.44 738.72 1214.18 738.72C1166.34 738.72 1124.56 740.536 1122.75 742.957ZM1268.67 782.304C1265.65 790.779 1197.22 796.832 1180.88 790.779C1160.89 782.909 1183.3 775.04 1225.08 775.04C1258.99 775.04 1270.49 776.856 1268.67 782.304Z" fill="currentColor"/>
<path d="M800.016 780.488C798.805 781.699 797.594 787.752 797.594 793.806C797.594 807.123 808.493 810.15 855.117 811.966C890.236 813.782 891.447 813.176 891.447 798.648C891.447 784.726 889.025 784.12 847.245 781.094C822.42 779.278 801.227 779.278 800.016 780.488Z" fill="currentColor"/>
<path d="M993.776 806.518C994.382 819.835 997.409 820.44 1041.61 822.256C1088.23 824.072 1088.23 824.072 1088.23 808.334C1088.23 793.2 1087.63 793.2 1040.4 793.2C994.987 793.2 993.171 793.806 993.776 806.518Z" fill="currentColor"/>
</svg>
