<svg width="760" height="500" viewBox="0 0 760 500" fill="none" xmlns="http://www.w3.org/2000/svg">
<path d="M222.703 0.916206C140.365 10.2945 74.5585 53.0529 31.1642 125.377C21.3091 141.908 9.86448 167.499 8.27494 176.56C7.63913 180.057 6.68541 184.666 6.3675 186.892C5.73169 189.594 6.68541 188.481 9.22866 184.03C12.4077 177.831 15.1099 175.924 33.5485 166.069C94.7456 133.324 158.804 110.912 192.661 110.435L203.629 110.276L180.421 98.9904C155.784 86.751 121.927 73.7169 99.1963 67.5177C91.4076 65.4513 85.2084 63.3849 85.2084 62.908C85.2084 61.3185 93.6329 55.5962 97.4478 54.3245C102.693 52.735 138.458 65.1334 167.864 78.6444C195.84 91.6786 225.405 107.415 252.109 123.946C268.641 133.96 271.184 135.073 279.131 135.232C283.9 135.391 288.669 135.55 289.781 135.709C290.894 135.868 293.119 140.636 294.868 146.2C299.001 159.552 303.292 167.658 308.697 172.586C311.081 174.811 312.671 175.765 312.035 174.97C311.558 174.016 309.333 162.572 306.948 149.538C301.067 115.998 290.576 73.7169 279.131 37.7934C273.727 20.7854 268.958 6.00271 268.482 4.57213C267.846 2.82365 268.8 2.34679 272.932 2.82365C277.86 3.30051 278.814 4.25423 284.377 15.222C293.755 34.1375 306.154 76.8959 318.87 134.914C321.413 146.2 323.638 155.737 324.115 156.055C324.433 156.373 329.202 153.035 334.765 148.584C351.773 134.914 369.576 127.602 391.353 125.059C409.791 122.833 425.845 126.966 436.177 136.503C439.992 140 439.992 140 442.377 136.821C443.648 135.073 446.827 129.509 449.371 124.423C454.298 114.886 455.252 114.091 458.59 117.27C465.107 123.31 450.006 100.421 438.88 87.0689C420.918 65.9281 413.129 58.9342 392.306 44.7873C347.481 14.4273 308.538 1.55202 258.468 0.121439C245.751 -0.196467 229.697 0.121439 222.703 0.916206Z" fill="white"/>
<path d="M459.703 126.649C459.067 130.464 457.001 137.14 455.094 141.59L451.438 149.379L456.683 166.069C459.544 175.288 461.77 183.554 461.293 184.508C460.975 185.303 453.186 188.958 443.808 192.296C434.43 195.634 427.118 198.814 427.436 199.131C427.913 199.449 436.496 197.86 446.669 195.476C457.001 193.25 465.743 191.82 466.22 192.137C467.492 193.568 461.929 211.053 457.478 219.319C452.232 229.015 439.198 240.777 426.482 247.135C415.514 252.54 390.876 260.011 384.041 260.011C381.498 260.011 377.524 260.805 374.981 261.759C372.597 262.554 356.225 277.495 338.74 294.821C287.398 345.369 253.859 374.139 236.215 382.723C230.81 385.266 231.446 385.266 262.124 385.425L293.438 385.584V389.875C293.438 397.346 291.689 398.3 278.973 398.3C257.514 398.459 205.537 395.28 184.555 392.737C162.619 390.034 132.895 383.835 123.676 379.861C120.656 378.59 117.794 377.795 117.477 378.113C116.523 379.226 142.909 410.063 160.394 428.024C170.09 438.038 185.032 452.344 193.615 459.815C202.199 467.286 208.875 473.803 208.398 474.598C208.08 475.233 203.947 475.392 199.338 474.916C192.662 474.439 189.165 472.849 182.171 467.763C163.891 454.252 126.855 414.195 99.8327 379.067C92.8388 369.847 85.8448 361.423 84.5732 360.31C83.3016 359.197 77.4203 357.767 71.698 356.972C54.8489 354.906 40.3842 344.256 38.1588 332.334C35.9335 320.254 32.7544 329.155 32.7544 347.753C32.7544 354.747 32.1186 358.403 31.1649 357.767C23.853 353.316 48.6497 388.445 64.2272 404.817C107.304 450.278 157.692 474.757 220.319 480.956C238.917 482.863 254.812 482.386 282.788 478.73L298.207 476.823V487.314C298.207 493.036 299.001 498.6 299.955 499.553C302.339 501.938 323.639 494.308 333.494 487.791C340.488 483.181 340.329 483.499 343.985 465.06C344.939 460.451 346.687 458.702 355.43 453.616C374.027 442.648 375.935 441.853 378.955 444.079C392.466 453.457 395.804 454.728 408.679 454.728C419.17 454.728 422.985 453.934 430.615 450.437C441.9 445.191 455.57 432.475 462.882 420.236C466.061 415.149 469.081 411.016 469.876 411.016C470.512 411.016 471.943 414.354 473.055 418.487C476.393 431.839 478.301 432.316 500.872 425.481L515.019 421.189L517.88 411.811C519.47 406.566 521.218 398.777 521.695 394.644C522.331 390.352 523.285 387.491 524.079 388.286C524.715 388.922 527.417 395.28 529.802 402.274C534.888 416.58 536.796 417.533 545.379 409.427C551.419 403.704 616.749 375.093 661.415 358.721L694.795 346.322L695.59 328.996L696.385 311.67L704.015 324.705C708.306 332.016 712.28 337.898 712.916 337.898C713.393 337.898 724.202 332.97 736.6 326.771L759.33 315.644L753.608 306.902C750.588 302.133 744.866 291.801 741.051 284.171L734.057 270.184L738.666 256.832C746.932 232.194 743.753 216.616 728.334 206.284C719.115 200.085 714.982 199.926 700.041 205.172C686.53 209.94 687.642 209.781 687.642 206.761C687.642 202.469 683.827 202.469 670.793 206.761C654.898 211.848 646.155 216.775 643.453 222.339C640.751 227.902 638.367 229.015 599.741 244.115C582.097 250.95 562.705 258.58 556.506 261.123L545.379 265.733L544.584 275.429C543.631 286.556 542.041 289.576 540.61 282.9C538.703 274.793 538.385 274.316 533.617 274.316C527.894 274.316 503.574 283.059 499.759 286.556C498.17 287.986 496.104 293.232 495.15 298.477C491.494 317.075 487.202 299.113 488.474 270.343C489.586 244.592 486.725 200.562 482.592 180.216C479.095 163.049 471.784 141.272 465.108 128.238L460.816 119.496L459.703 126.649ZM725.95 215.345L732.944 221.544V234.737C732.944 246.817 732.467 249.202 726.904 260.646L721.023 273.204L728.811 284.489C738.349 298.318 745.342 312.147 744.23 314.849C743.753 316.28 718.638 326.771 715.618 326.771C715.3 326.771 711.962 321.526 708.306 315.167C701.312 303.564 693.047 291.96 690.027 289.894C688.914 289.099 688.119 297.365 687.642 314.373L686.848 340.123L674.926 344.256C665.071 347.753 662.528 348.071 660.938 346.481C659.667 345.21 657.918 328.996 655.852 302.61C652.514 257.467 649.811 229.333 648.54 226.154C648.063 224.882 652.673 222.339 660.938 219.001C675.721 213.278 678.105 212.96 678.105 216.139C678.105 220.431 680.966 220.272 695.113 214.868C713.711 207.556 717.367 207.556 725.95 215.345ZM647.745 251.745C647.904 257.626 645.043 260.964 631.055 270.502C625.015 274.634 619.928 276.86 614.842 277.495L607.371 278.29L606.894 284.966C606.258 292.755 607.212 293.073 615.795 288.781C621.677 285.761 644.884 278.767 645.838 279.721C646.155 279.88 646.791 284.489 647.268 289.735C648.381 300.544 649.017 299.749 632.803 313.101C626.922 318.029 624.061 319.3 619.451 319.141C616.272 318.982 612.616 319.3 611.186 319.618C607.53 320.89 606.417 326.453 608.484 333.447L610.232 339.169L622.312 334.719C628.989 332.334 637.89 328.678 642.182 326.93C646.473 325.023 650.606 324.069 651.242 324.705C651.878 325.34 652.037 331.857 651.56 339.01L650.606 352.045L623.425 363.171C584.164 379.067 582.733 379.702 581.938 378.908C580.826 377.954 576.375 321.526 576.216 306.425L575.898 292.596L573.832 311.67C571.13 336.785 567.156 365.238 564.771 375.888C563.023 383.994 562.228 385.107 553.486 391.147C548.24 394.803 543.472 399.254 542.836 401.161C542.041 403.069 540.769 404.658 539.975 404.658C538.385 404.658 531.55 383.835 525.192 359.674C523.285 352.045 521.218 345.845 520.741 345.845C518.834 345.845 512.794 377.477 512.794 387.332C512.794 400.207 509.138 413.242 504.369 416.58C502.462 418.01 497.534 418.964 492.607 418.964C485.613 418.964 483.864 418.328 482.116 415.308C479.89 411.97 472.26 389.875 467.651 373.662L465.426 365.715L465.267 373.821C465.108 385.743 459.385 405.771 453.504 415.467C446.987 426.435 435.86 436.608 423.462 442.648C413.289 447.735 408.043 448.529 397.87 446.145C386.903 443.602 380.226 434.065 376.094 415.308C374.981 410.38 373.868 406.248 373.868 406.248C373.709 406.248 364.808 414.99 353.84 425.481L334.13 444.714L333.176 462.358L332.382 480.002L319.029 485.248C311.559 488.109 305.042 490.493 304.565 490.493C303.929 490.493 302.975 478.571 302.498 463.789C301.862 449.165 300.75 423.574 299.796 407.042C298.048 377.318 298.048 376.841 301.386 374.139C306.631 370.006 337.468 358.403 351.138 355.542L363.695 352.998L367.828 357.926C370.212 360.628 372.915 364.125 373.868 365.715C375.299 368.258 376.094 367.463 380.862 359.197C395.486 333.129 413.766 321.526 435.86 324.387C443.331 325.34 446.033 326.453 451.756 331.858L458.749 338.375L458.591 333.765C458.591 331.222 457.955 325.499 457.319 321.208C456.524 316.757 456.524 312.147 457.319 310.717C458.749 307.856 471.307 302.928 477.188 302.928C482.434 302.928 483.546 305.312 487.202 324.387C490.699 342.348 493.401 352.998 493.56 349.342C493.719 348.23 495.468 337.898 497.534 326.294C499.6 314.691 501.826 301.974 502.303 298C503.415 290.848 503.733 290.371 511.045 287.192C515.337 285.443 521.059 283.695 523.761 283.536C529.484 283.059 529.007 282.264 540.451 315.644L545.538 330.745L548.24 302.133C549.83 286.397 551.578 273.045 552.214 272.409C553.168 271.455 585.435 258.58 642.341 236.168C645.043 235.214 645.679 235.85 646.632 240.777C647.268 243.956 647.745 248.884 647.745 251.745ZM645.679 318.029C642.182 320.731 638.367 321.208 638.367 318.982C638.367 317.234 641.228 315.962 645.52 315.803C648.699 315.803 648.699 315.803 645.679 318.029Z" fill="white"/>
<path d="M686.37 243.638C680.807 246.5 680.966 245.546 683.827 260.011C684.94 265.733 687.801 266.051 695.113 261.6C701.789 257.626 705.445 251.745 704.809 246.182C704.332 242.208 703.696 241.731 697.974 241.413C694.477 241.254 689.231 242.208 686.37 243.638Z" fill="white"/>
<path d="M417.421 354.906C409.473 357.767 407.089 362.853 404.069 383.199C400.731 405.453 404.228 415.785 415.037 415.785C426.481 415.785 432.521 404.817 434.27 380.656C435.542 365.079 434.588 359.356 430.455 357.29C426.322 355.064 420.123 353.952 417.421 354.906Z" fill="white"/>
<path d="M334.289 387.173C330.474 390.193 329.997 391.624 329.997 400.049C329.997 407.996 330.474 409.427 332.858 409.427C334.448 409.427 338.104 407.042 340.965 404.022C345.416 399.413 346.051 397.823 345.575 391.783C345.257 386.061 344.462 384.63 341.76 384.312C340.011 383.994 336.673 385.425 334.289 387.173Z" fill="white"/>
<path d="M388.015 133.96C362.741 137.298 338.58 152.558 329.043 171.314C320.936 187.051 322.367 210.894 332.381 226.63C337.15 234.101 351.455 246.499 359.562 249.837C382.928 259.851 433.634 242.208 449.371 218.683C453.98 211.689 455.411 204.377 452.232 204.377C451.278 204.377 444.125 205.807 436.336 207.715C426.481 209.94 420.441 212.483 415.831 215.98C400.413 227.743 399.618 228.22 392.147 228.22C380.703 228.22 370.53 220.431 369.417 210.894C368.94 206.602 368.145 206.92 422.031 190.707C438.244 185.938 451.596 181.805 451.914 181.487C453.186 180.216 445.238 161.3 440.31 153.83C429.819 137.934 411.222 130.94 388.015 133.96ZM394.055 158.916C400.254 161.459 408.202 170.361 407.566 174.017C406.93 177.355 395.803 182.6 378.795 187.369C362.582 191.978 360.834 191.184 362.423 179.898C363.854 170.838 369.099 163.049 376.093 159.552C382.769 156.055 387.22 156.055 394.055 158.916Z" fill="white"/>
<path d="M375.934 169.249C371.325 174.017 369.735 180.693 373.391 180.375C376.093 180.216 388.969 175.289 392.783 173.063C395.962 170.997 395.962 170.997 392.148 167.818C386.902 163.367 381.339 163.844 375.934 169.249Z" fill="white"/>
<path d="M263.396 153.512C236.85 160.347 174.064 181.647 170.567 185.143C169.295 186.415 208.557 328.043 211.1 330.745C213.643 333.606 256.879 317.87 256.879 314.055C256.879 313.26 254.017 301.656 250.679 288.304C243.367 259.852 243.685 261.282 244.003 259.057C244.162 256.673 267.687 247.294 284.695 242.526C291.689 240.618 298.206 238.552 299.16 237.916C301.544 236.644 290.577 207.238 288.033 208.192C287.08 208.51 274.204 212.166 259.422 216.457C233.512 223.769 232.559 223.928 230.81 220.908C227.949 215.821 223.498 200.562 224.77 199.449C225.406 198.813 240.665 193.568 258.945 187.687C277.066 181.805 291.848 176.242 291.848 175.288C291.848 171.315 284.536 149.697 283.106 149.379C282.152 149.061 273.41 150.969 263.396 153.512Z" fill="white"/>
<path d="M60.5709 165.116C48.3315 171.474 34.1847 179.421 29.2571 182.601C24.1706 185.78 16.6998 190.23 12.408 192.297C3.18875 196.906 2.87084 197.701 1.12235 221.067C-1.73881 255.878 4.61933 300.862 16.3819 330.427L19.402 337.898L22.1042 321.685C23.5348 312.624 25.2833 294.981 25.9191 282.423C26.7138 262.713 27.3497 258.739 30.5287 253.017C32.5951 249.361 41.8144 231.717 51.0337 213.596C60.253 195.476 70.2671 177.514 73.2872 173.54C82.3475 161.619 86.9572 153.512 84.8908 153.512C83.7781 153.512 72.8103 158.758 60.5709 165.116Z" fill="white"/>
<path d="M382.769 211.848C380.703 212.324 379.431 213.437 379.749 214.391C380.544 217.093 388.492 217.729 391.353 215.345C396.28 211.371 392.942 209.94 382.769 211.848Z" fill="white"/>
<path d="M86.7981 227.743C65.8162 233.306 43.5628 246.817 38.1583 256.99C34.9793 263.348 35.1382 275.906 38.4762 275.906C40.7016 275.906 56.1201 272.409 66.1341 269.707C68.2005 269.23 72.0154 265.733 74.5587 261.918C80.281 253.493 90.613 247.294 99.1964 247.294C104.76 247.294 106.349 248.089 110.482 253.175C113.184 256.513 115.41 259.533 115.41 260.01C115.41 260.487 105.555 266.845 93.792 274.157C49.603 301.656 43.8807 306.902 43.8807 320.413C43.8807 329.473 49.2851 337.897 58.6633 343.143C67.7237 348.388 74.5587 349.342 85.6854 347.276C93.4741 345.686 98.2427 343.143 112.549 332.811C128.921 321.207 136.074 318.187 138.458 322.002C141.001 326.135 171.838 321.366 173.587 316.598C174.063 315.485 171.52 307.378 168.182 298.795C164.685 290.211 159.758 276.065 157.055 267.64C150.697 247.93 144.021 234.578 137.663 229.173C132.895 225.2 131.941 225.041 114.138 225.2C103.17 225.2 91.8846 226.312 86.7981 227.743ZM121.45 284.171C124.152 286.873 123.834 301.974 120.814 308.173C117.635 314.849 103.647 323.592 96.0174 323.592C92.3614 323.592 89.5003 322.32 87.2749 319.936C78.5325 310.399 81.3937 303.723 100.15 291.483C114.456 282.105 118.112 280.833 121.45 284.171Z" fill="white"/>
<path d="M329.52 250.95C328.884 257.467 327.136 270.024 325.228 279.085C323.48 288.145 322.367 295.775 322.685 296.093C323.639 297.205 353.84 263.348 353.84 261.123C353.84 260.01 351.456 257.308 348.753 255.242C345.892 253.175 340.647 248.725 336.991 245.387L330.474 239.346L329.52 250.95Z" fill="white"/>
<path d="M41.0197 290.053C39.9071 293.391 39.1123 297.842 39.1123 299.908C39.1123 303.246 39.4302 303.087 43.0861 298.159C47.3779 292.278 48.4906 283.854 44.9936 283.854C43.722 283.854 41.9735 286.556 41.0197 290.053Z" fill="white"/>
</svg>
