<svg width="760" height="500" viewBox="0 0 760 500" fill="none" xmlns="http://www.w3.org/2000/svg">
<path d="M0.993652 11.9049V23.8097L85.2198 24.1073C164.089 24.4049 167.958 24.4049 150.101 28.274C96.2317 40.1787 57.8389 74.1073 42.6603 123.512C40.577 130.06 38.196 160.119 37.0056 190.476L35.2198 245.536H18.2556H0.993652V258.036V270.833H380.458H759.922V258.929V247.024H712.303H664.684V227.679V208.631L677.482 205.357C721.529 194.643 753.97 156.25 753.97 114.583C753.97 81.5478 731.053 46.7264 699.506 31.5478L684.029 24.1073L722.125 23.8097H759.922V11.9049V0.000165343H380.458H0.993652V11.9049ZM253.375 134.524L252.482 245.536H236.113H219.744L218.851 134.524L218.256 23.8097H236.113H253.97L253.375 134.524ZM458.137 28.5716C436.113 33.3335 418.256 41.3692 411.708 49.1073C408.137 53.274 407.244 53.274 401.589 47.9168C392.66 39.5835 370.637 30.3573 351.887 27.0835C339.982 25.2978 355.16 24.4049 407.244 24.4049C477.482 24.4049 478.375 24.4049 458.137 28.5716ZM602.184 133.929V244.048L595.339 245.833C591.47 246.726 583.137 247.024 576.589 246.429L564.982 245.536L564.089 134.524L563.494 23.8097H582.839H602.184V133.929ZM346.232 83.6311C375.696 99.1073 375.994 100 375.994 179.464V247.322L347.125 246.429L317.958 245.536L317.065 163.691C316.767 118.75 317.065 80.0597 317.958 77.9764C319.744 73.5121 331.053 75.5954 346.232 83.6311ZM499.506 161.012V245.536H469.744H439.982L439.089 178.869L438.494 112.203L445.934 102.381C455.756 89.5835 486.708 73.2145 496.529 75.5954C498.315 76.1906 499.506 107.143 499.506 161.012ZM689.982 93.1549C690.279 93.4525 692.66 97.024 695.339 101.191C701.887 110.417 701.589 120.238 695.339 131.25C690.577 139.286 671.529 149.703 667.065 146.726C664.089 145.238 663.791 88.0954 666.47 85.4168C667.958 83.9287 688.494 90.774 689.982 93.1549ZM153.375 122.024L152.482 157.738H122.422H92.3627L94.1484 146.726C96.827 130.06 111.113 109.822 128.97 97.6192C153.97 79.7621 154.565 80.3573 153.375 122.024ZM155.16 226.786L154.267 245.536L123.91 246.429L93.2556 247.322V227.679V208.333H124.506H156.053L155.16 226.786Z" fill="currentColor"/>
<path d="M35.2195 297.322C34.3267 297.917 33.7314 332.441 33.7314 374.108V449.405H45.6362H57.541V416.667C57.541 386.012 57.8386 383.929 63.4933 383.929C69.1481 383.929 69.4457 386.012 69.4457 413.096C69.4457 445.239 71.2314 449.405 85.8148 449.405H94.7433L93.8505 416.072C93.2553 397.62 91.4695 380.358 90.2791 377.977C88.791 375.298 88.791 371.131 90.5767 368.751C92.0648 366.667 93.2553 352.381 93.2553 337.501C93.2553 300.596 90.8743 297.917 59.6243 296.727C47.1243 296.131 35.8148 296.429 35.2195 297.322ZM69.4457 339.286C69.4457 361.012 68.8505 363.096 63.4933 363.096C58.1362 363.096 57.541 361.012 57.541 339.286C57.541 317.56 58.1362 315.477 63.4933 315.477C68.8505 315.477 69.4457 317.56 69.4457 339.286Z" fill="currentColor"/>
<path d="M143.256 297.322C141.173 297.917 137.006 300.298 134.327 302.976C129.565 307.143 128.97 314.286 128.97 372.619C128.97 452.083 128.077 450 164.089 448.81L187.006 447.917V438.988C187.006 430.06 186.708 430.06 169.744 429.167L152.78 428.274V406.25V384.226L165.577 383.333C177.185 382.441 178.077 381.845 178.97 372.619C179.863 363.095 179.863 363.095 166.47 363.095H152.78V339.286V315.476H170.935H188.792L187.899 305.655L187.006 296.131H167.065C156.054 296.131 145.339 296.726 143.256 297.322Z" fill="currentColor"/>
<path d="M230.755 302.084L221.231 310.12V342.262C221.231 378.87 222.422 380.655 243.553 383.334L256.946 384.822V406.548C256.946 427.977 256.648 428.572 249.505 428.572C242.958 428.572 242.065 427.381 242.065 416.667C242.065 405.06 241.767 404.762 231.648 404.762H221.231V419.643C221.231 440.179 230.16 449.405 249.505 449.405C259.922 449.405 264.981 447.62 270.339 441.965C277.184 435.417 277.779 432.739 277.779 403.572C277.779 374.703 277.184 372.024 271.231 367.858C267.66 365.179 259.624 363.096 253.374 363.096H242.065V338.989C242.065 315.774 242.362 315.179 248.91 316.072C254.267 316.667 255.755 319.048 256.35 327.977C257.243 338.691 257.839 339.286 267.66 339.286C277.779 339.286 277.779 339.286 277.779 326.191C277.779 308.631 268.85 297.917 252.184 295.536C242.362 294.346 238.791 295.239 230.755 302.084Z" fill="currentColor"/>
<path d="M347.72 296.727C334.922 297.322 322.422 299.405 320.339 301.191C317.363 303.572 316.47 320.239 316.47 372.322C316.47 452.679 314.982 449.405 351.291 449.405H373.018V438.989V428.572H355.16H337.303V406.25V383.929H350.696C364.089 383.929 364.089 383.929 364.089 373.512C364.089 363.096 364.089 363.096 350.696 363.096H337.303V339.286V315.477H355.16H373.018V305.06C373.018 299.405 372.72 294.941 372.422 295.239C371.827 295.536 360.815 296.429 347.72 296.727Z" fill="currentColor"/>
<path d="M421.827 297.619C406.649 303.572 405.756 308.929 405.756 381.548V449.405H417.661H429.565V416.667C429.565 386.012 429.863 383.929 435.518 383.929C441.173 383.929 441.47 386.012 441.47 416.965V449.703L452.78 448.81L463.792 447.917L464.089 383.929C464.387 348.81 463.196 316.369 461.708 311.607C456.649 297.917 437.601 291.072 421.827 297.619ZM441.47 339.286C441.47 361.012 440.875 363.095 435.518 363.095C430.161 363.095 429.565 361.012 429.565 339.286C429.565 317.56 430.161 315.476 435.518 315.476C440.875 315.476 441.47 317.56 441.47 339.286Z" fill="currentColor"/>
<path d="M502.184 297.322C501.589 297.917 500.994 332.441 500.994 374.108V449.405H511.41H521.827V416.667V383.929H529.267C536.708 383.929 536.708 383.929 536.708 411.905C536.708 447.62 537.303 449.405 552.184 449.405C562.601 449.405 563.791 448.81 561.708 444.048C558.732 438.393 557.244 398.215 557.541 341.667C557.839 305.655 557.541 303.87 551.291 300.298C545.041 297.024 504.863 294.643 502.184 297.322ZM536.708 339.584C536.708 362.798 536.41 363.393 530.16 362.501C523.91 361.608 523.315 359.822 522.422 342.56C521.232 319.941 522.72 315.477 530.756 315.477C536.113 315.477 536.708 317.262 536.708 339.584Z" fill="currentColor"/>
<path d="M612.303 297.62C597.422 303.572 596.231 309.524 596.231 373.81C596.231 433.334 596.231 433.631 603.672 441.667C609.327 447.917 613.493 449.405 624.505 449.405C643.85 449.405 652.779 440.179 652.779 419.643V404.762H642.362C632.243 404.762 631.946 405.06 631.946 416.667C631.946 427.381 631.35 428.572 624.505 428.572H617.065L617.66 372.62C618.553 317.56 618.553 316.965 625.398 316.072C631.35 315.179 631.946 316.37 631.946 327.084C631.946 338.989 632.243 339.286 642.362 339.286H652.779V324.703C652.779 311.905 651.589 308.929 643.553 302.381C634.327 294.643 623.91 292.858 612.303 297.62Z" fill="currentColor"/>
<path d="M686.708 297.322C686.112 297.917 685.517 332.441 685.517 374.108V449.405H697.422H709.327V416.667C709.327 386.012 709.624 383.929 715.279 383.929C720.934 383.929 721.231 386.012 721.231 416.667V449.405H733.136H745.041L744.446 372.917L743.553 296.429H733.136L722.719 296.131L721.827 329.465C721.231 360.715 720.636 363.096 715.279 363.096C709.624 363.096 709.327 361.012 709.327 329.465V296.131H698.612C692.66 296.131 687.303 296.727 686.708 297.322Z" fill="currentColor"/>
<path d="M0.993652 488.095V500H380.458H759.922V488.095V476.19H380.458H0.993652V488.095Z" fill="currentColor"/>
</svg>
