<svg width="1920" height="500" viewBox="0 0 1920 500" fill="none" xmlns="http://www.w3.org/2000/svg">
<path d="M899.58 0.979114C289.188 1.71345 247.168 1.79504 245.863 3.10052C244.557 4.48758 185.484 127.61 184.424 131.119L183.934 132.996L235.011 133.159L286.169 133.403L143.546 274.15L0.922363 414.897L96.2222 415.142L191.44 415.305L222.69 384.953L253.94 354.519L271.809 355.416C281.6 355.906 289.759 356.395 289.841 356.477C290.086 356.64 221.874 494.205 220.161 496.979L218.366 499.753L221.793 499.998C223.669 500.079 250.35 497.795 281.11 494.939C311.871 492.002 598.423 464.832 918.02 434.479L1499.04 379.404H1669.65C1782.08 379.404 1840.34 379.16 1840.34 378.588C1840.34 377.283 1916.96 222.502 1918.34 220.952C1919.48 219.728 1919.48 219.483 1917.77 218.667C1916.79 218.096 1913.37 215.485 1910.18 212.793C1903.25 206.918 1890.6 200.472 1881.71 198.269C1864.08 193.863 1840.26 193.945 1815.94 198.514C1812.76 199.167 1810.15 199.412 1810.15 199.167C1810.15 198.922 1831.61 155.025 1857.8 101.582C1884.07 48.2211 1905.78 3.50848 1906.02 2.203L1906.59 5.994e-06L1729.29 0.163191C1631.71 0.244783 1258.34 0.571152 899.58 0.979114ZM1888.56 20.5613C1885.46 27.0071 1863.27 72.2092 1839.2 121.083C1815.13 169.957 1795.55 210.1 1795.71 210.182C1795.79 210.345 1798.65 209.692 1801.99 208.876C1826.31 202.675 1857.64 200.717 1874.36 204.307C1887.01 207 1898.6 212.385 1905.7 218.831L1908.71 221.523L1871.83 296.833L1835.04 372.061H1667.77H1500.51L1465.42 375.325C1446.17 377.12 1412.55 380.22 1390.77 382.26C1291.31 391.562 1114.17 408.288 1087.24 410.817C1070.84 412.368 926.588 425.994 766.585 441.007C606.582 456.02 466.162 469.238 454.494 470.38C442.826 471.522 389.791 476.418 336.593 481.395C283.395 486.29 237.785 490.533 235.174 490.778L230.442 491.267L238.927 474.704C247.658 457.733 274.665 404.535 291.799 370.429C297.103 359.904 301.672 350.439 301.917 349.378L302.406 347.583H276.46H250.432L219.345 378.181L188.258 408.778H103.729C57.0579 408.778 19.199 408.451 19.199 408.043C19.199 407.717 83.3306 343.749 161.659 265.909L304.201 124.428L249.534 124.02L194.867 123.612L222.69 66.253L250.432 8.97516H1072.23H1894.11L1888.56 20.5613Z" fill="currentColor"/>
<path d="M268.219 31.1682C266.995 32.7185 232.971 101.011 232.971 101.99C232.971 102.48 255.082 102.888 297.184 102.969L361.397 103.214L217.876 243.961L74.3555 384.708L126.411 384.953L178.386 385.116L213.552 350.847L248.718 316.578H297.184C323.783 316.578 345.568 316.741 345.568 316.905C345.568 317.068 329.087 350.602 308.933 391.317C288.78 432.113 272.38 465.566 272.543 465.729C272.625 465.892 486.152 445.82 747.003 421.261L1221.3 376.549L820.599 376.141L419.817 375.733L505.081 203.573C551.997 108.926 590.345 31.1682 590.345 30.8418C590.345 30.4339 518.055 30.1891 429.69 30.1891C302.161 30.1891 268.872 30.4339 268.219 31.1682ZM409.7 186.52C395.584 215.159 383.427 239.637 382.774 240.861L381.551 243.145H353.32C335.614 243.145 325.17 242.819 325.333 242.329C325.578 241.432 434.83 133.893 435.157 134.219C435.238 134.301 423.815 157.8 409.7 186.52Z" fill="currentColor"/>
<path d="M618.984 46.2629C600.218 83.877 468.773 349.95 468.773 350.358C468.773 350.602 492.19 350.847 520.829 350.847H572.803L608.704 277.251C628.449 236.699 644.686 204.307 644.768 205.205C644.931 206.102 646.073 231.641 647.46 261.912C648.847 292.182 649.99 317.639 650.153 318.537C650.316 319.924 667.206 302.789 750.103 217.036L757.61 209.284L748.308 228.459C743.25 238.984 727.584 270.723 713.632 298.954C699.679 327.185 688.256 350.358 688.256 350.521C688.256 350.684 711.265 350.847 739.496 350.847H790.655L869.391 191.661C912.717 104.112 948.21 31.9843 948.373 31.3315C948.617 30.3524 941.111 30.1893 899.58 30.1893H850.462L848.014 32.8002C846.627 34.2689 817.907 65.3556 784.291 101.827C750.593 138.299 722.851 167.836 722.525 167.509C722.199 167.183 720.975 140.257 719.751 107.702C718.527 75.1466 717.303 44.3863 717.058 39.3276L716.569 30.1893H671.856H627.062L618.984 46.2629Z" fill="currentColor"/>
<path d="M1322.39 31.0051C1308.19 32.9633 1289.92 43.0807 1281.51 53.7693C1280.05 55.6459 1276.62 61.6838 1273.93 67.1505C1252.71 110.231 1161.74 298.302 1160.43 301.892C1159.04 305.482 1158.72 308.337 1158.72 316.252C1158.64 325.961 1158.64 326.125 1161.74 332.244C1166.8 342.525 1175.2 348.644 1187.85 351.418C1193.07 352.56 1203.27 352.56 1281.84 351.745C1330.31 351.173 1372.24 350.439 1375.1 349.949C1391.09 347.502 1405.37 337.955 1415.57 322.861C1420.3 315.925 1531.1 90.1595 1534.53 80.45C1536 76.3704 1536.33 73.5963 1536.41 65.2738C1536.41 55.7275 1536.25 54.7484 1534.04 50.0161C1531.35 44.1414 1524.82 37.4509 1519.44 35.0847C1508.99 30.4339 1513.89 30.6787 1416.88 30.5155C1367.76 30.4339 1325.17 30.6787 1322.39 31.0051ZM1405.53 115.779C1407.49 117.819 1407.9 118.88 1407.9 122.225C1407.9 124.428 1407.33 127.774 1406.68 129.65C1404.64 135.525 1347.36 253.181 1344.75 256.853C1341.57 261.422 1335.77 265.665 1329.82 267.868C1325.9 269.255 1322.8 269.581 1311.62 269.907C1298.81 270.152 1298 270.071 1294.49 268.276C1289.43 265.665 1287.55 262.156 1287.63 255.384C1287.63 250.244 1287.96 249.428 1298.97 227.643C1327.86 170.12 1351.11 124.999 1352.99 122.552C1355.36 119.451 1360.09 116.187 1364.41 114.556C1366.61 113.821 1372.49 113.495 1385.3 113.413H1403.17L1405.53 115.779Z" fill="currentColor"/>
<path d="M1527.43 189.865C1483.94 277.74 1448.29 349.868 1448.13 350.194C1447.96 350.602 1470.89 350.847 1499.12 350.847H1550.36L1629.26 191.416C1672.67 103.704 1708.16 31.5763 1708.16 31.0868C1708.16 30.434 1693.07 30.1893 1657.33 30.1893H1606.42L1527.43 189.865Z" fill="currentColor"/>
<path d="M1715.99 102.97C1696.09 143.031 1660.1 215.404 1636.03 263.788C1611.96 312.254 1592.3 351.989 1592.3 352.153C1592.3 352.316 1642.89 352.479 1704.73 352.479L1817.09 352.397L1845.81 293.161L1874.53 233.844L1872.32 232.375C1871.1 231.559 1867.59 230.09 1864.41 229.03C1859.27 227.398 1856.99 227.235 1842.79 227.235C1824.92 227.235 1817.01 228.377 1801.42 233.028C1790.32 236.373 1780.04 241.024 1771.72 246.409L1765.6 250.489H1757.28C1752.71 250.489 1748.96 250.162 1748.96 249.754C1748.96 249.428 1772.62 200.146 1801.58 140.339C1830.55 80.5317 1854.21 31.25 1854.21 30.9236C1854.21 30.5156 1831.28 30.1893 1803.22 30.1893H1752.14L1715.99 102.97Z" fill="currentColor"/>
<path d="M1009 31.9027C996.512 33.5345 987.537 38.0221 981.336 45.9366C977.582 50.5873 954.492 96.7686 953.023 102.562C952.37 105.173 951.799 110.639 951.799 114.719C951.799 123.286 954.247 132.996 958.408 141.4C959.877 144.174 971.952 164.409 985.415 186.357C1011.77 229.275 1016.01 236.618 1018.7 244.777C1022.29 255.384 1019.68 265.91 1011.69 273.334C1007.04 277.659 1001.73 279.127 990.963 279.127C957.347 279.127 918.999 257.587 899.009 227.561C896.969 224.461 895.092 221.931 895.011 221.931C894.848 221.931 880.161 250.978 862.456 286.389L830.227 350.847L954.002 350.602C1070.52 350.439 1078.19 350.276 1082.75 348.889C1091.57 346.278 1097.93 342.606 1103.72 336.813C1108.86 331.755 1109.84 330.041 1120.12 309.48C1133.67 282.228 1134.97 278.393 1134.97 266.399C1134.89 248.286 1129.26 236.944 1093.36 182.767C1067.17 143.113 1065.13 139.441 1065.05 130.629C1064.97 122.062 1070.27 113.903 1078.1 110.802C1082.35 109.171 1084.14 109.007 1097.44 108.926C1109.03 108.926 1113.52 109.252 1118.66 110.476C1148.19 117.411 1170.96 133.159 1187.44 158.126C1189.89 161.879 1192.17 164.653 1192.5 164.245C1192.82 163.919 1207.43 133.73 1224.97 97.2582L1256.79 31.0052L1135.46 31.0868C1068.8 31.1684 1011.85 31.4947 1009 31.9027Z" fill="currentColor"/>
</svg>
