<svg width="1144" height="500" viewBox="0 0 1144 500" fill="none" xmlns="http://www.w3.org/2000/svg">
<path d="M129.457 1.20976C96.0663 6.42413 67.799 20.695 44.38 44.114C23.1566 65.3374 9.80054 90.1285 3.031 120.866L0.56104 131.935L0.195119 243.541C0.0121589 317.548 0.286599 358.165 0.83548 364.112C8.33685 433.271 58.468 486.786 126.712 498.313C137.69 500.143 139.062 500.143 575.422 499.868L1013.16 499.685L1022.3 497.581C1089.63 482.121 1136.2 430.069 1142.6 362.922C1143.33 355.695 1143.51 318.28 1143.24 242.626C1142.87 123.153 1143.15 130.38 1137.66 110.163C1126.41 69.1795 1097.96 34.6 1059.63 15.4807C1049.84 10.5407 1033.37 4.86896 1021.11 2.30752L1011.33 0.203475L574.508 0.0205144C204.47 -0.0709657 136.409 0.111995 129.457 1.20976ZM990.742 64.9714C1013.25 70.0943 1030.9 79.4253 1046 94.3366C1055.24 103.302 1061.73 112.45 1067.68 124.525C1072.8 134.862 1075.09 142.089 1077.19 153.799C1079.2 165.6 1079.3 333.466 1077.19 345.999C1070.06 390.275 1035.48 425.861 991.017 434.917C983.332 436.472 963.573 436.564 571.306 436.564C176.203 436.564 159.371 436.472 152.052 434.917C107.318 425.037 74.0196 390.915 66.3353 347.005C64.3227 335.112 64.2312 165.051 66.3353 153.158C74.66 105.406 113.631 68.9966 161.749 63.8737C165.591 63.4163 352.211 63.1418 576.337 63.2333C956.712 63.4163 984.339 63.5077 990.742 64.9714Z" fill="white"/>
<path d="M181.6 97.63L170.622 98.0874L170.348 130.288L170.165 162.581H187.272C196.786 162.581 205.019 162.947 205.751 163.404C207.672 164.593 207.58 165.051 185.808 234.942C161.474 313.157 161.84 312.151 153.79 321.025C148.118 327.245 142.263 329.99 133.115 330.63L126.437 331.179L125.98 351.853C125.614 363.197 125.706 378.474 126.071 385.793L126.712 399.057H137.964C144.093 399.057 172.177 398.966 200.353 398.783L251.582 398.6V364.844V331.179L245.362 330.721C237.86 330.173 231.548 327.52 228.804 323.769C224.87 318.28 224.596 308.492 228.163 303.003L229.627 300.716H248.655C259.084 300.716 272.806 300.99 279.118 301.356L290.736 301.905L291.834 305.656C293.48 311.053 297.322 329.441 296.865 329.807C296.682 329.99 291.376 330.447 285.064 330.63L273.538 331.179L273.72 365.118L273.995 399.057H431.341H588.687L588.961 365.301C589.144 338.863 588.87 331.362 588.046 330.721C587.406 330.356 581.46 329.99 574.873 329.99H562.798L562.34 316.908C561.974 309.772 562.066 298.978 562.432 292.94L563.072 281.963L575.788 281.688C590.882 281.414 595.365 282.511 600.305 287.726C608.263 295.959 609.544 302.637 609.727 335.021C609.91 363.563 610.642 368.869 615.856 378.657C620.888 388.171 631.591 395.489 643.666 397.593C647.6 398.325 696.542 398.691 806.044 398.874C936.769 399.057 963.938 398.874 969.244 397.776C976.38 396.404 989.187 392.105 994.859 389.269C1007.03 383.048 1021.85 369.692 1028.52 358.714C1040.05 339.686 1042.34 313.432 1034.38 292.3C1026.69 271.991 1007.03 255.067 983.241 248.206L975.739 246.102L986.077 240.796C999.799 233.752 1009.59 224.421 1015.35 212.895C1020.2 203.015 1021.75 197.252 1022.39 186.366C1023.03 176.12 1021.2 163.679 1017.73 155.08C1008.67 132.941 987.357 113.913 961.834 105.314C946.283 100.1 949.21 100.283 850.228 99.734L758.565 99.2766L757.925 109.614C757.651 115.377 757.468 129.739 757.651 141.54L757.925 163.038L770.732 163.953L783.539 164.868L783.814 247.383C783.997 328.434 783.997 329.898 782.259 330.904C779.789 332.185 731.213 331.362 724.718 329.99C717.491 328.343 711.728 324.135 708.709 318.006C706.422 313.34 706.056 311.511 705.415 299.252C704.592 283.792 703.037 278.578 697.274 270.985C693.157 265.588 686.388 260.19 681.539 258.635L678.063 257.446L685.015 252.872C688.857 250.402 695.627 244.73 699.927 240.431C706.605 233.661 708.526 231.008 712.551 222.866C719.503 208.687 720.418 204.387 720.418 185.451C720.418 167.155 718.954 159.836 712.642 146.389C699.927 119.311 679.892 105.955 642.294 99.551C631.316 97.7214 628.298 97.63 531.42 97.63H431.798V130.105C431.798 155.445 432.073 162.581 432.987 162.672C433.536 162.672 439.574 162.855 446.252 162.947C452.93 163.13 458.51 163.404 458.785 163.587C459.334 164.228 459.517 327.977 458.876 328.892C458.236 329.99 415.149 331.179 412.496 330.081C410.483 329.349 409.294 325.599 398.499 285.988C385.509 238.418 346.722 98.2703 346.447 97.9959C345.99 97.5385 191.297 97.264 181.6 97.63ZM595.914 164.776C605.611 167.612 610.459 174.016 612.197 186.366C614.027 198.807 610.276 212.346 603.324 218.109C597.011 223.507 593.718 224.33 576.794 224.33H561.243L560.968 195.056C560.877 178.956 560.877 165.417 561.151 164.868C561.334 164.319 567.463 163.862 576.154 163.587C587.68 163.404 591.797 163.587 595.914 164.776ZM916.46 167.887C921.492 170.54 925.151 175.663 927.163 182.798C929.816 192.403 927.163 202.192 920.119 208.961C914.905 213.993 911.154 214.999 897.249 215.456L884.625 215.822V190.482V165.142L898.622 165.508C910.971 165.783 912.984 166.057 916.46 167.887ZM264.298 190.025C267.957 204.296 275.367 237.778 275.367 240.065C275.367 241.803 274.635 241.986 261.828 242.535C254.327 242.9 247.191 242.9 246.002 242.626C243.806 242.077 243.715 241.803 244.264 238.235C244.721 235.308 253.412 204.479 260.364 180.602C260.639 179.688 261.096 179.047 261.279 179.23C261.462 179.413 262.834 184.353 264.298 190.025ZM919.388 278.395C933.658 284.89 938.232 309.132 927.529 322.031C925.974 323.86 922.772 326.513 920.485 327.977C916.277 330.356 915.728 330.447 900.543 330.721L884.9 331.087L884.259 328.16C883.985 326.513 883.71 314.346 883.71 301.173C883.71 282.786 883.985 276.931 884.9 276.565C885.448 276.291 892.584 276.199 900.634 276.291C913.075 276.474 915.911 276.84 919.388 278.395Z" fill="white"/>
</svg>
