<svg width="2296" height="500" viewBox="0 0 2296 500" fill="none" xmlns="http://www.w3.org/2000/svg">
<path d="M147.94 10.2232C138.717 15.9874 126.036 26.3631 119.695 32.7039C109.896 44.2324 0.951172 414.876 0.951172 437.356C0.951172 454.073 24.5847 484.047 44.1833 492.693C61.4761 499.611 206.16 500.763 1101.35 499.611L2138.92 497.881L2154.49 485.776C2163.13 479.436 2175.24 467.907 2181 459.837C2193.11 443.121 2295.13 85.7352 2295.13 58.6431C2295.13 45.9617 2289.37 33.8567 2278.42 21.1753L2261.7 2.15317L1213.18 0.423886C200.395 -0.72897 164.657 -0.152542 147.94 10.2232ZM2254.21 36.1624C2261.7 42.5031 2266.31 54.0317 2266.31 64.4074C2266.31 79.3945 2221.93 244.253 2173.51 410.264C2153.33 479.436 2283.61 471.942 1089.25 471.942C60.3233 471.942 52.8297 471.942 41.3011 460.413C34.9604 454.073 29.7726 443.121 29.7726 435.627C29.7726 414.876 130.647 64.9838 141.023 48.8438C146.787 40.7738 159.469 31.551 169.845 28.6689C180.797 25.2103 587.178 23.481 1214.91 24.0574C2216.16 25.2103 2242.1 25.2103 2254.21 36.1624Z" fill="white"/>
<path d="M166.964 48.8447C149.671 58.0676 153.706 44.8097 86.8407 283.451C55.1371 397.007 46.4907 435.052 51.1021 441.969C56.29 451.192 134.108 451.768 1085.21 453.497C1650.69 454.074 2119.33 453.497 2126.24 451.768C2133.16 450.039 2142.38 443.122 2145.84 436.781C2149.3 429.864 2175.24 342.247 2203.48 241.948L2254.79 59.7969L2242.68 49.9976C2231.15 40.1983 2173.51 39.6219 1206.26 39.6219C316.259 40.1983 180.222 41.3512 166.964 48.8447ZM443.65 94.959C450.567 99.5704 456.331 109.37 456.331 116.863C456.331 139.344 438.462 183.152 425.204 194.105C413.675 202.751 413.099 205.057 420.016 211.974C436.732 227.537 414.828 291.521 385.43 312.849C370.443 323.801 359.491 324.954 251.699 326.683L134.684 328.412L169.846 207.362L204.432 85.7361H317.412C410.793 85.7361 432.697 87.4654 443.65 94.959ZM669.609 87.4654C669.609 89.7711 730.134 297.285 736.475 317.46C739.357 326.683 735.322 327.836 701.889 327.836H663.845L656.928 301.897L650.011 275.957H596.403C567.005 275.957 542.795 274.228 542.795 271.346C542.795 269.04 552.018 257.512 562.97 245.407C580.839 226.961 586.604 224.079 609.084 224.079C623.495 224.079 635.024 222.35 635.024 220.62C635.024 211.974 621.189 162.977 617.731 158.942C615.425 156.06 581.416 192.952 542.219 240.795L470.742 327.259H437.309C410.793 327.836 405.029 326.107 408.487 320.342C410.793 315.731 456.907 261.547 510.515 199.292L607.932 85.7361H638.482C655.775 85.7361 669.609 86.3125 669.609 87.4654ZM957.823 87.4654C957.823 98.994 899.028 289.792 891.534 300.744C878.853 320.342 855.219 327.836 803.917 327.836C757.803 327.836 757.803 327.836 746.851 284.604L743.392 270.193H791.236H839.656L865.595 177.965L891.534 85.7361H924.391C942.836 85.7361 957.823 86.3125 957.823 87.4654ZM1189.55 203.904C1207.99 267.311 1222.98 320.919 1222.98 323.224C1222.98 326.107 1206.26 327.836 1186.09 327.836H1149.2L1142.86 301.897L1136.52 275.957H1081.18H1025.27L1045.44 251.171C1063.31 229.843 1069.65 226.385 1094.44 224.079L1122.68 221.197L1114.04 184.882L1104.81 148.567L1030.45 237.913L955.518 327.836H921.508H888.076L904.216 308.237C912.862 297.862 959.553 243.101 1006.82 187.187L1093.28 85.7361L1124.41 87.4654L1156.11 88.6183L1189.55 203.904ZM1346.91 97.8411C1333.08 140.497 1322.13 183.729 1325.01 183.729C1326.74 183.729 1367.09 161.825 1413.78 134.733C1491.6 90.3475 1501.97 85.7361 1529.64 85.7361H1560.19L1458.16 142.226C1401.67 172.777 1355.56 199.869 1355.56 201.598C1355.56 203.327 1390.14 232.149 1431.65 265.005L1508.31 324.954L1475.46 326.683L1442.02 328.412L1377.46 273.652L1312.33 219.467L1305.41 240.219C1301.37 252.324 1294.46 276.534 1289.27 294.403C1280.05 326.683 1278.89 327.836 1259.87 327.836C1248.92 327.836 1240.27 326.107 1240.27 324.377C1240.27 320.919 1301.37 107.064 1306.56 92.6533C1307.72 89.1947 1318.67 85.7361 1329.62 85.7361C1348.07 85.7361 1350.37 86.889 1346.91 97.8411ZM1635.7 95.5354C1633.97 101.3 1619.56 151.449 1603.42 206.786C1587.28 262.123 1572.87 312.272 1571.14 317.46C1568.84 324.954 1561.92 327.836 1548.09 327.836C1537.13 327.836 1528.49 326.107 1528.49 324.377C1528.49 320.919 1588.44 111.675 1594.78 92.6533C1595.93 89.1947 1606.3 85.7361 1617.83 85.7361C1635.13 85.7361 1638.01 87.4654 1635.7 95.5354ZM1919.88 103.029L1913.54 120.322H1858.2H1802.29L1773.47 222.926L1744.65 324.954L1722.17 326.683C1703.14 328.412 1700.26 327.259 1703.72 318.613C1709.49 303.626 1759.06 130.121 1759.06 124.933C1759.06 122.051 1734.27 120.322 1704.3 120.322C1658.76 120.322 1650.11 119.169 1652.42 111.675C1654.15 107.064 1656.45 98.994 1658.18 94.3825C1660.49 86.889 1680.66 85.7361 1793.07 85.7361H1925.65L1919.88 103.029ZM2164.86 94.959C2174.66 104.182 2176.97 124.357 2169.47 135.885C2167.17 139.344 2157.95 145.685 2148.72 149.143C2132.58 154.907 2132.58 154.907 2135.47 137.615L2139.5 120.322H2053.61H1968.3L1959.66 152.025L1951.01 183.729H2033.44C2078.4 183.729 2122.78 186.611 2131.43 189.493C2146.42 195.257 2146.99 196.987 2143.54 227.537C2139.5 267.311 2118.75 311.119 2099.15 320.342C2084.16 327.836 1918.15 330.718 1892.79 324.377C1877.8 319.766 1870.31 297.862 1877.8 276.534C1881.26 266.735 1888.75 260.97 1902.01 258.088C1920.46 254.053 1920.46 254.63 1917 273.652L1913.54 293.25H2002.31H2091.66L2100.88 258.665C2106.64 239.642 2110.68 222.926 2110.68 221.197C2110.68 220.044 2068.6 217.738 2017.87 217.162C1905.47 214.856 1906.62 216.009 1922.19 156.637C1929.1 128.392 1936.6 112.828 1949.28 101.3L1966.57 85.7361H2061.11C2139.5 85.7361 2157.37 87.4654 2164.86 94.959ZM173.305 361.845C180.222 366.457 180.222 369.339 175.034 375.679C170.999 380.291 169.27 387.784 171.576 392.972C175.611 404.501 157.741 414.3 131.226 414.3H111.051L119.121 390.667C123.732 377.985 128.92 365.304 130.649 361.845C135.261 354.928 162.353 354.928 173.305 361.845ZM234.406 368.186C236.136 374.527 240.171 379.714 242.476 379.714C244.782 379.714 251.699 374.527 257.463 368.186C263.228 361.845 271.874 356.657 277.062 356.657C283.403 357.234 279.368 362.998 265.533 375.679C254.581 386.055 243.629 398.737 241.323 403.924C236.136 417.759 223.454 417.182 226.913 403.924C228.642 397.584 226.336 386.632 222.301 379.138C212.502 361.269 212.502 356.657 222.301 356.657C226.913 356.657 232.677 361.845 234.406 368.186ZM421.169 364.727C426.357 370.492 426.357 373.95 421.745 376.832C418.287 379.138 416.557 384.326 418.287 388.937C423.475 401.619 405.029 414.3 381.395 414.3H359.491L368.714 385.479C377.36 358.963 379.09 356.657 396.383 356.657C406.182 356.657 417.71 360.116 421.169 364.727ZM520.315 365.88C526.655 373.95 526.655 376.256 517.432 382.597C509.362 388.937 508.786 392.396 513.974 402.195C522.62 419.488 507.057 418.335 494.952 401.042L485.729 388.361L474.2 402.772C458.06 423.523 452.872 413.147 464.401 382.597C473.624 358.963 476.506 356.657 493.799 356.657C504.175 356.657 516.28 360.692 520.315 365.88ZM620.613 362.422C618.884 365.304 609.661 368.186 599.862 368.186C590.639 368.186 583.145 370.492 583.145 373.95C583.145 376.832 590.062 379.714 598.132 379.714C606.202 379.714 611.39 382.02 609.084 385.479C607.355 388.361 599.285 391.243 591.215 391.243C583.722 391.243 577.381 393.549 577.381 397.007C577.381 399.889 585.451 402.772 595.25 402.772C605.049 402.772 611.39 405.077 609.084 408.536C603.897 417.182 552.594 416.029 556.629 406.807C557.782 403.348 562.394 390.09 566.429 377.985C573.346 357.81 574.499 356.657 598.709 356.657C614.272 356.657 622.919 358.963 620.613 362.422ZM694.972 374.527L709.959 392.396L716.3 374.527C719.759 364.727 726.099 356.657 730.134 356.657C735.899 356.657 735.899 362.422 728.405 385.479C723.217 401.042 717.453 414.3 715.147 414.3C712.265 414.3 703.619 405.077 694.972 394.125C677.679 371.644 671.915 372.221 666.727 397.007C664.422 406.807 659.234 414.3 654.622 414.3C644.823 414.3 644.823 416.029 655.775 383.749C660.963 368.762 668.457 356.657 672.492 356.657C676.527 356.657 686.902 364.727 694.972 374.527ZM833.891 362.422C832.162 365.304 825.245 368.186 819.481 368.186C811.411 368.186 806.223 375.103 801.611 391.243C797.576 404.501 791.236 414.3 786.048 414.3C780.284 414.3 779.131 410.842 781.436 402.772C783.166 396.431 786.624 386.055 788.354 379.714C791.236 371.644 789.506 368.186 782.589 368.186C777.401 368.186 773.366 365.304 773.366 362.422C773.366 358.963 787.777 356.657 805.646 356.657C825.245 356.657 836.197 358.963 833.891 362.422ZM881.158 368.186C878.853 377.985 881.158 379.714 897.298 379.714C911.133 379.714 916.897 376.832 919.203 368.186C920.932 361.845 925.543 356.657 929.002 356.657C936.496 356.657 934.19 370.492 923.238 399.889C916.321 417.759 903.639 419.488 907.674 401.042C910.556 390.09 908.827 388.361 893.263 388.937C880.006 389.514 873.665 392.972 870.783 401.619C867.901 408.536 863.289 414.3 859.254 414.3C852.914 414.3 854.643 399.889 865.595 371.068C871.936 353.775 885.77 351.469 881.158 368.186ZM1029.88 362.422C1028.15 365.304 1020.08 368.186 1012.58 368.186C1005.09 368.186 997.021 370.492 995.291 373.95C992.986 377.409 998.173 379.714 1006.82 379.714C1015.47 379.714 1020.65 382.02 1018.35 385.479C1016.62 388.361 1008.55 391.243 1000.48 391.243C992.986 391.243 986.645 393.549 986.645 397.007C986.645 399.889 994.715 402.772 1004.51 402.772C1014.31 402.772 1020.65 405.077 1018.35 408.536C1016.62 411.418 1003.36 414.3 989.527 414.3C964.741 414.3 964.164 413.724 969.352 399.889C972.811 391.819 977.422 379.138 980.881 371.068C985.492 358.963 990.103 356.657 1009.7 356.657C1024.11 356.657 1032.18 358.963 1029.88 362.422ZM1088.1 365.88C1086.37 371.068 1082.91 381.444 1081.18 388.937C1077.72 401.619 1079.45 402.772 1096.17 402.772C1106.54 402.772 1112.88 405.077 1110.58 408.536C1108.85 411.418 1095.59 414.3 1081.76 414.3H1056.97L1066.19 385.479C1071.38 368.762 1078.87 356.657 1083.48 356.657C1088.67 356.657 1090.4 360.116 1088.1 365.88ZM1232.2 371.068C1225.29 398.16 1217.22 414.3 1210.88 414.3C1204.53 414.3 1206.26 399.313 1217.22 371.068C1224.13 352.046 1236.81 352.046 1232.2 371.068ZM1315.21 375.103L1329.04 393.549L1336.54 375.103C1343.45 358.387 1355.56 349.74 1355.56 361.845C1355.56 367.033 1338.84 409.689 1335.38 413.724C1334.23 414.877 1325.01 405.654 1314.63 394.125L1295.61 372.797L1289.27 391.819C1285.23 402.772 1278.32 411.994 1273.13 413.147C1265.06 414.877 1264.48 412.571 1269.09 400.466C1271.98 392.396 1277.16 379.138 1280.62 371.068C1288.12 351.469 1298.49 353.199 1315.21 375.103ZM1456.43 364.151C1470.84 375.103 1463.93 401.042 1444.33 408.536C1422.42 417.182 1382.65 416.029 1386.69 406.807C1387.84 403.348 1392.45 390.09 1396.49 377.985C1402.83 358.387 1405.13 356.657 1424.73 356.657C1436.26 356.657 1450.09 360.116 1456.43 364.151ZM1525.03 377.409C1518.11 416.029 1550.39 415.453 1563.07 376.832C1566.53 365.88 1573.45 356.657 1578.06 356.657C1588.44 356.657 1587.86 357.81 1577.48 383.749C1567.11 408.536 1560.19 414.3 1538.86 414.3C1506.01 414.3 1499.09 403.348 1511.19 371.644C1519.84 348.587 1529.64 353.199 1525.03 377.409ZM1672.59 362.422C1672.59 365.88 1666.25 367.033 1658.18 364.727C1640.31 360.116 1639.16 369.339 1655.88 386.055C1665.1 395.278 1666.25 399.313 1660.49 406.23C1652.42 416.029 1617.26 417.182 1611.49 407.959C1608.61 403.348 1611.49 402.195 1621.29 404.501C1628.79 406.23 1639.16 405.654 1643.77 402.772C1650.11 398.737 1649.54 395.854 1638.01 386.632C1618.99 371.068 1625.9 356.657 1652.42 356.657C1663.37 356.657 1672.59 359.539 1672.59 362.422ZM1767.7 362.422C1765.98 365.304 1759.63 368.186 1753.87 368.186C1746.95 368.186 1741.19 375.679 1736 391.243C1731.97 403.924 1724.47 414.3 1719.86 414.3C1714.67 414.3 1712.94 410.842 1715.25 405.077C1725.05 379.138 1725.63 368.186 1716.4 368.186C1711.21 368.186 1707.18 365.304 1707.18 362.422C1707.18 358.963 1721.59 356.657 1739.46 356.657C1759.06 356.657 1770.01 358.963 1767.7 362.422ZM1851.86 365.88C1858.2 373.95 1858.2 376.256 1848.98 382.597C1840.91 388.937 1840.33 392.396 1845.52 402.195C1854.17 419.488 1838.61 418.335 1826.5 401.042L1817.28 388.361L1805.75 402.772C1789.61 423.523 1784.42 413.147 1795.95 382.597C1805.17 358.963 1808.05 356.657 1825.35 356.657C1835.72 356.657 1847.83 360.692 1851.86 365.88ZM1920.46 358.387C1920.46 372.221 1900.28 414.3 1893.37 414.3C1888.75 414.3 1886.45 410.842 1888.18 406.807C1889.33 403.348 1893.94 390.09 1897.98 377.985C1902.01 366.457 1908.35 356.657 1912.96 356.657C1917 356.657 1920.46 357.234 1920.46 358.387ZM2015.57 362.422C2013.84 365.304 2004.62 368.186 1994.82 368.186C1985.59 368.186 1978.1 370.492 1978.1 373.95C1978.1 376.832 1983.29 379.714 1989.63 379.714C1995.97 379.714 2001.16 382.02 2001.16 385.479C2001.16 388.361 1994.82 391.243 1986.75 391.243C1978.68 391.243 1972.34 393.549 1972.34 397.007C1972.34 399.889 1980.41 402.772 1990.21 402.772C2000.01 402.772 2006.35 405.077 2004.04 408.536C2001.16 413.724 1949.28 417.182 1949.28 412.571C1949.28 411.418 1953.31 398.737 1958.5 383.749C1967.73 356.657 1967.73 356.657 1993.66 356.657C2009.23 356.657 2017.87 358.963 2015.57 362.422ZM2099.15 362.422C2099.15 365.88 2093.39 367.033 2085.32 364.727C2066.87 360.116 2061.11 371.068 2076.67 381.444C2096.85 395.854 2088.78 410.842 2059.95 413.147C2044.39 414.3 2035.74 412.571 2035.74 407.959C2035.74 403.924 2040.36 402.772 2047.85 404.501C2054.19 406.23 2063.41 406.23 2068.6 404.501C2074.94 401.619 2074.36 398.737 2063.99 387.784C2047.27 369.915 2053.04 356.657 2078.98 356.657C2089.93 356.657 2099.15 359.539 2099.15 362.422Z" fill="white"/>
<path d="M249.968 156.059L245.356 175.081L308.764 176.81C363.524 177.963 373.9 176.81 379.664 168.164C383.699 162.976 387.158 153.753 387.158 147.989C387.158 138.766 380.817 137.613 320.869 137.613H255.156L249.968 156.059Z" fill="white"/>
<path d="M223.454 247.712C221.724 257.511 219.995 267.887 219.995 270.769C219.995 273.651 246.511 275.957 279.367 275.957C343.927 275.957 354.303 271.922 360.644 245.406L364.102 229.843H295.507H227.489L223.454 247.712Z" fill="white"/>
<path d="M142.178 373.95C140.448 376.832 142.754 379.714 147.366 379.714C151.977 379.714 157.741 376.832 159.471 373.95C161.2 370.492 158.894 368.186 154.283 368.186C149.671 368.186 143.907 370.492 142.178 373.95Z" fill="white"/>
<path d="M137.563 388.936C130.07 396.429 133.528 402.77 145.633 402.77C151.974 402.77 156.585 399.888 155.432 395.853C152.55 387.783 142.751 383.748 137.563 388.936Z" fill="white"/>
<path d="M387.156 373.95C387.156 376.832 390.615 379.714 395.226 379.714C399.838 379.714 405.602 376.832 407.331 373.95C409.061 370.492 405.602 368.186 399.261 368.186C392.344 368.186 387.156 370.492 387.156 373.95Z" fill="white"/>
<path d="M384.852 389.512C377.935 396.429 381.97 402.77 392.922 402.77C399.262 402.77 404.45 400.464 404.45 397.582C404.45 391.241 389.463 384.901 384.852 389.512Z" fill="white"/>
<path d="M483.423 375.679C481.117 381.443 484.575 383.173 494.375 380.867C501.868 379.714 508.209 376.255 508.209 373.373C508.209 365.303 486.881 367.609 483.423 375.679Z" fill="white"/>
<path d="M1410.89 380.866C1405.7 401.041 1406.28 402.77 1420.69 402.77C1436.83 402.77 1447.78 392.971 1447.78 378.56C1447.78 361.844 1415.5 364.149 1410.89 380.866Z" fill="white"/>
<path d="M1814.97 375.679C1812.67 381.443 1816.12 383.173 1825.92 380.867C1833.42 379.714 1839.76 376.255 1839.76 373.373C1839.76 365.303 1818.43 367.609 1814.97 375.679Z" fill="white"/>
</svg>
