<svg width="1226" height="500" viewBox="0 0 1226 500" fill="none" xmlns="http://www.w3.org/2000/svg">
<path d="M281.938 2.20894C255.705 5.77459 219.285 16.9809 197.636 27.9326C177.77 37.8654 148.736 57.9859 128.361 76.0688C118.428 84.7283 102.128 97.208 92.4494 104.085C53.9913 130.827 31.8334 150.438 18.8442 170.049C10.1848 182.784 10.4395 189.915 19.863 200.357L27.5036 209.271L21.3911 223.279C8.91133 251.295 1.52534 277.273 0.251895 297.903C-1.27624 321.08 4.32692 359.793 12.2223 381.441C17.0614 393.921 17.0614 395.704 13.4957 404.109C8.40195 416.588 8.65664 424.484 14.7692 436.454C21.3911 449.189 27.249 453.009 47.6241 457.848C57.3023 460.14 66.4711 464.215 70.5461 468.036C80.7337 477.459 100.854 488.665 120.211 495.033C136.256 500.381 140.586 500.636 179.808 499.362C214.7 498.344 226.671 497.07 247.046 491.467C336.951 467.526 410.047 407.929 459.457 318.278C466.843 304.525 470.663 300.45 478.304 297.394C483.652 295.102 488.746 291.536 489.51 289.498C491.293 284.914 486.963 278.547 481.869 278.547C477.54 278.547 477.285 279.566 483.397 261.737C494.604 229.646 497.405 212.328 497.151 176.671C496.896 147.127 495.877 139.486 490.274 121.913C463.022 38.1201 376.937 -11.2896 281.938 2.20894ZM339.498 32.7717C359.109 37.8654 370.315 46.7796 377.956 63.0797C390.436 89.8221 385.851 104.085 354.27 133.629C335.678 151.457 319.887 161.644 279.137 182.274L247.81 198.32L293.654 200.103C367.514 202.649 406.736 210.545 430.167 227.354C447.486 239.834 453.853 252.059 452.58 270.651L451.561 283.895L468.116 283.131C483.143 282.367 484.671 282.877 484.671 287.461C484.671 291.791 481.36 293.319 464.805 297.394L444.939 302.233L431.186 320.316C406.227 353.171 357.836 390.101 316.576 407.674C248.319 436.454 198.4 449.953 132.436 457.339C96.7791 461.159 50.9351 457.593 33.8709 449.189C15.0239 440.02 9.42071 419.135 20.627 399.524C27.7583 386.79 44.8225 377.876 91.4307 362.34C109.514 356.227 124.286 350.369 124.286 349.35C124.286 348.586 111.042 321.08 94.9963 288.48C75.8946 249.767 65.707 226.081 65.707 220.732C65.707 203.668 92.4494 193.226 106.967 204.687C117.918 213.092 129.889 250.022 140.84 309.364C144.151 327.702 147.462 343.238 147.717 343.747C148.226 344.257 161.216 341.71 176.497 338.144C201.456 332.541 365.222 298.922 367.769 298.922C370.57 298.922 368.278 283.895 363.693 274.981C357.581 262.247 344.337 252.568 323.962 245.947C295.182 236.268 278.882 234.74 223.614 236.523C179.553 238.051 169.875 237.797 161.98 234.486C142.623 226.336 148.99 211.818 177.261 198.829C185.156 195.263 208.333 184.566 228.453 175.398C277.863 152.985 296.201 142.288 310.463 128.025C329.565 109.178 332.367 89.8221 319.123 69.1922C304.606 47.0343 267.676 49.5811 210.371 77.0876C168.092 97.208 129.379 126.497 70.2914 183.548C50.4257 202.649 44.0585 207.234 37.9459 207.234C28.7771 207.234 17.3161 194.754 17.3161 184.821C17.3161 164.701 77.4227 113.508 139.822 80.1439C170.13 64.0984 236.094 37.3561 257.233 32.7717C279.391 27.9326 320.906 27.9326 339.498 32.7717Z" fill="currentColor"/>
<path d="M301.294 330.758C237.622 346.039 169.875 363.867 158.923 368.197C152.046 370.999 151.792 371.508 153.065 384.752C154.593 399.524 152.046 402.326 147.462 391.119C140.331 374.564 139.821 374.31 117.154 382.714C88.6287 393.411 66.4707 404.872 63.1597 410.985C60.8675 415.315 61.6316 417.352 67.7441 423.465C81.2427 436.963 105.948 439.765 154.084 432.379C215.209 423.465 277.099 401.052 323.197 371.508C345.865 356.736 356.307 345.02 365.731 323.627C368.532 317.259 368.277 316.75 362.929 317.005C359.873 317.259 332.112 323.372 301.294 330.758Z" fill="currentColor"/>
<path d="M539.429 247.984V319.297H632.645H725.862L733.247 311.911C740.633 304.525 742.416 294.083 740.633 270.906C740.124 264.029 728.918 250.531 723.569 250.531C718.73 250.531 719.494 248.493 726.88 242.126C734.776 235.249 737.832 222.515 735.54 205.196C733.757 189.915 728.154 182.783 715.419 179.218C710.071 177.69 670.594 176.671 622.967 176.671H539.429V247.984ZM684.092 215.384C688.677 219.968 687.658 229.646 682.31 232.703C679.253 234.231 658.878 235.249 633.919 235.249H590.367V223.788V212.327H635.702C667.538 212.327 682.055 213.346 684.092 215.384ZM691.733 275.236C692.243 281.093 691.478 283.64 687.913 284.404C685.366 285.169 662.699 286.187 637.484 286.697L591.64 287.461L590.876 276.509L590.112 265.812L640.541 266.321L690.969 267.086L691.733 275.236Z" fill="currentColor"/>
<path d="M821.88 198.829C814.494 211.309 794.883 242.891 778.328 269.378C761.773 295.866 748.274 318.533 748.274 319.807C748.274 320.825 761.009 321.844 776.29 321.844H804.306L812.201 309.11L820.097 296.375H867.978H915.86L924.01 309.11L932.16 321.844H962.468C979.023 321.844 992.776 321.335 992.776 320.571C992.776 320.061 974.184 291.027 951.262 256.389C928.34 221.497 907.455 189.406 904.908 184.821L900.069 176.671H867.724H835.633L821.88 198.829ZM880.203 242.126C886.061 251.041 890.9 259.191 890.9 260.719C890.9 262.247 881.222 263.266 866.705 263.266C853.461 263.266 842.509 262.756 842.509 261.992C842.509 258.172 866.45 222.515 867.978 224.298C868.742 225.317 874.346 233.467 880.203 242.126Z" fill="currentColor"/>
<path d="M1008.82 178.199C1006.27 179.218 1005.51 196.282 1005.51 250.786V321.844H1030.98H1056.45V295.102V268.359H1066.13C1074.02 268.359 1081.92 272.689 1113.75 295.102L1151.96 321.844H1190.16C1211.3 321.844 1227.09 320.825 1225.82 319.552C1224.29 318.533 1202.13 302.743 1176.15 284.914C1150.17 266.831 1128.02 251.55 1127 250.531C1125.47 249.003 1165.2 214.875 1206.71 182.529C1209.77 179.982 1203.66 179.473 1176.15 179.218H1141.77L1110.19 204.942C1080.39 228.883 1078.1 230.411 1068.16 229.647L1057.72 228.883L1056.96 203.923C1056.7 190.425 1055.94 179.218 1055.68 179.218C1042.69 177.69 1011.11 177.181 1008.82 178.199Z" fill="currentColor"/>
</svg>
