<svg width="1233" height="500" viewBox="0 0 1233 500" fill="none" xmlns="http://www.w3.org/2000/svg">
<path opacity="0.988" fill-rule="evenodd" clip-rule="evenodd" d="M76.0119 39.8194C169.335 39.6825 262.657 39.8194 355.979 40.2299C369.446 42.8032 382.308 47.182 394.567 53.3662C415.461 65.5316 424.903 83.7307 422.892 107.964C421.605 122.563 418.594 136.794 413.861 150.657C409.052 162.859 401.526 173.122 391.283 181.445C415.397 194.791 424.839 215.18 419.608 242.611C416.836 264.337 409.994 284.59 399.083 303.366C387.905 317.105 373.537 325.726 355.979 329.228C344.822 330.985 333.601 332.08 322.317 332.512C230.09 332.923 137.863 333.06 45.6343 332.923C55.9345 235.468 66.0605 137.767 76.0119 39.8194ZM167.145 117.816C216.133 118.006 265.121 118.416 314.107 119.048C319.12 120.99 321.583 124.685 321.496 130.131C321.488 139.884 316.836 146.042 307.539 148.604C259.373 149.015 211.207 149.152 163.04 149.015C164.106 138.541 165.475 128.141 167.145 117.816ZM157.293 220.443C209.291 220.694 261.289 221.104 313.286 221.675C318.303 223.628 320.766 227.323 320.675 232.759C320.28 241.484 316.174 247.641 308.36 251.232C256.637 251.642 204.913 251.779 153.188 251.642C154.556 241.242 155.924 230.843 157.293 220.443Z" fill="white"/>
<path opacity="0.986" fill-rule="evenodd" clip-rule="evenodd" d="M457.785 39.8193C536.006 39.2784 614.14 39.8258 692.186 41.4614C733.591 39.7143 768.074 54.4927 795.634 85.7964C816.425 114.773 824.362 147.066 819.444 182.676C814.159 232.266 792.128 272.359 753.352 302.956C723.383 323.435 690.132 334.245 653.598 335.386C578.32 335.384 502.924 334.837 427.407 333.744C437.674 235.549 447.801 137.575 457.785 39.8193ZM545.634 123.563C583.949 123.426 622.264 123.563 660.577 123.974C713.281 127.667 731.754 154.624 715.995 204.844C705.66 232.406 685.82 248.143 656.472 252.053C614.874 252.463 573.276 252.6 531.677 252.463C536.51 209.507 541.163 166.54 545.634 123.563Z" fill="white"/>
<path opacity="0.984" fill-rule="evenodd" clip-rule="evenodd" d="M955.322 39.8191C998.959 39.2803 1042.47 39.8276 1085.86 41.4612C1103.43 41.7404 1120.95 43.7929 1138.41 47.6188C1162.86 56.7444 1179.69 73.5753 1188.9 98.1114C1191.63 104.231 1193.41 110.526 1194.24 116.995C1113.5 116.656 1032.77 117.066 952.038 118.226C940.15 122.983 935.774 131.604 938.902 144.088C941.784 147.17 945.339 148.949 949.575 149.425C1002.01 149.431 1054.42 150.115 1106.8 151.478C1157.56 149.139 1184.51 173.359 1187.67 224.138C1187.56 255.385 1177.85 283.162 1158.52 307.471C1146.85 321.065 1132.21 329.413 1114.6 332.512C1084.58 335.08 1054.47 336.449 1024.29 336.617C993.639 337.165 962.982 337.165 932.334 336.617C909.567 336.699 887.399 333.142 865.831 325.944C847.777 319.381 835.872 306.928 830.117 288.588C826.636 278.964 824.033 269.111 822.317 259.031C905.511 258.347 988.713 257.937 1071.91 257.799C1078.7 255.666 1082.93 251.15 1084.63 244.253C1088.02 233.647 1084.33 227.216 1073.55 224.959C1029.21 224.685 984.879 224.411 940.544 224.138C923.697 224.425 907.005 223.056 890.462 220.033C863.311 212.042 846.209 194.39 839.148 167.077C831.02 108.487 854.419 68.6684 909.345 47.6188C924.706 43.8076 940.035 41.2077 955.322 39.8191Z" fill="white"/>
<path opacity="0.96" fill-rule="evenodd" clip-rule="evenodd" d="M977.49 358.375C987.071 358.443 996.644 358.443 1006.23 358.375C1014.99 359.028 1023.74 359.713 1032.5 360.427C1044.18 361.707 1051.16 368.138 1053.43 379.721C1053.89 382.726 1054.3 385.737 1054.67 388.752C1053.25 402.173 1051.74 415.582 1050.15 428.982C1047.77 446.686 1037.79 456.675 1020.18 458.949C997.744 459.497 975.297 459.497 952.859 458.949C943.639 458.648 936.11 454.953 930.281 447.865C926.004 439.324 924.632 430.292 926.176 420.772C927.35 407.246 929.271 393.835 931.923 380.542C934.69 371.755 940.297 365.598 948.754 362.069C958.343 360.073 967.925 358.842 977.49 358.375ZM966.816 390.394C984.403 390.002 1001.92 390.412 1019.36 391.626C1020.01 392.517 1020.56 393.475 1021 394.499C1019.71 404.671 1018.2 414.797 1016.49 424.877C1015.81 425.561 1015.12 426.246 1014.44 426.93C996.644 428.52 978.861 428.52 961.069 426.93C960.421 426.039 959.871 425.081 959.427 424.056C960.872 413.96 962.104 403.834 963.122 393.678C964.271 392.389 965.503 391.294 966.816 390.394Z" fill="white"/>
<path opacity="0.945" fill-rule="evenodd" clip-rule="evenodd" d="M78.475 360.838C94.3502 360.7 110.224 360.838 126.094 361.248C141.338 359.9 152.147 366.058 158.524 379.721C159.41 381.825 159.821 384.014 159.756 386.289C133.219 386.917 106.672 387.328 80.117 387.521C76.9532 389.512 76.1322 392.25 77.654 395.731C97.9167 395.934 118.168 396.481 138.409 397.373C149.733 398.844 156.165 405.276 157.703 416.667C158.684 427.798 155.946 437.925 149.493 447.044C143.526 454.501 135.863 457.785 126.505 456.897C113.812 457.457 101.086 458.278 88.3272 459.36C78.6347 458.527 69.0561 457.569 59.5916 456.486C45.6672 453.956 38.5517 445.608 38.2451 431.445C65.8874 431.582 93.5284 431.445 121.168 431.035C124.326 427.823 124.326 424.812 121.168 422.003C103.183 421.862 85.2574 421.452 67.3913 420.772C52.3416 419.953 44.2683 411.88 43.1712 396.552C42.6878 383.108 48.1613 372.982 59.5916 366.174C65.7336 363.479 72.0281 361.7 78.475 360.838Z" fill="white"/>
<path opacity="0.954" fill-rule="evenodd" clip-rule="evenodd" d="M168.787 360.837C179.734 360.837 190.681 360.837 201.628 360.837C199.285 382.155 197.506 403.502 196.291 424.877C197.44 425.474 198.671 425.884 199.986 426.108C214.216 426.656 228.448 426.656 242.679 426.108C246.35 424.953 248.129 422.353 248.015 418.309C250.473 399.189 252.526 380.032 254.173 360.837C265.394 360.837 276.614 360.837 287.835 360.837C285.708 383.02 283.381 405.187 280.856 427.34C279.399 436.686 275.43 444.759 268.951 451.56C264.188 454.797 259.124 456.303 253.762 456.076C230.561 458.112 207.162 458.248 183.565 456.486C172.1 455.889 165.121 450.005 162.629 438.834C161.796 435.332 161.385 431.775 161.398 428.161C163.504 405.64 165.968 383.199 168.787 360.837Z" fill="white"/>
<path opacity="0.945" fill-rule="evenodd" clip-rule="evenodd" d="M328.885 360.838C341.751 360.7 354.614 360.838 367.473 361.248C385.288 358.855 397.467 365.833 404.008 382.184C404.415 383.804 404.552 385.446 404.419 387.11C378.145 386.973 351.872 387.11 325.601 387.521C321.875 388.927 320.644 391.527 321.907 395.32C322.783 395.888 323.741 396.298 324.78 396.552C343.664 396.825 362.547 397.099 381.43 397.373C393.666 398.114 400.645 404.546 402.366 416.667C404.001 431.482 399.212 443.661 387.999 453.202C383.708 456.012 379.192 457.244 374.452 456.897C361.394 457.604 348.257 458.425 335.043 459.36C322.35 459.798 309.898 458.293 297.687 454.844C287.778 450.349 283.125 442.686 283.729 431.856C310.31 431.177 336.857 431.315 363.368 432.266C368.22 430.403 369.588 427.256 367.473 422.824C366.652 422.551 365.831 422.277 365.01 422.003C346.4 421.73 327.791 421.456 309.181 421.182C293.703 417.999 286.724 408.558 288.245 392.857C289.585 379.654 296.289 370.212 308.36 364.532C315.169 362.452 322.011 361.22 328.885 360.838Z" fill="white"/>
<path opacity="0.957" fill-rule="evenodd" clip-rule="evenodd" d="M412.629 361.658C442.467 361.566 472.297 361.976 502.12 362.89C512.103 363.843 518.261 369.18 520.593 378.9C521.67 388.323 520.711 397.492 517.72 406.404C514.578 415.054 508.83 421.896 500.478 426.929C487.106 428.235 473.696 428.508 460.248 427.75C454.091 421.593 447.933 415.435 441.775 409.277C439.82 425.643 438.041 441.789 436.439 457.717C425.218 457.717 413.998 457.717 402.777 457.717C405.339 425.624 408.624 393.604 412.629 361.658ZM443.828 390.394C457.514 390.257 471.198 390.394 484.879 390.804C489.031 392.469 489.989 395.342 487.752 399.425C486.456 400.69 484.95 401.648 483.237 402.299C469.553 402.846 455.87 402.846 442.186 402.299C442.92 398.388 443.468 394.419 443.828 390.394Z" fill="white"/>
<path opacity="0.957" fill-rule="evenodd" clip-rule="evenodd" d="M529.214 361.658C563.97 361.658 598.727 361.658 633.483 361.658C632.889 370.648 631.795 379.542 630.199 388.341C606.935 388.661 583.673 388.524 560.412 387.931C560.05 390.931 559.775 393.941 559.591 396.962C577.106 396.962 594.622 396.962 612.137 396.962C611.822 404.035 611.001 411.014 609.674 417.898C610.207 419.219 609.797 420.45 608.442 421.593C591.126 420.776 573.747 420.503 556.307 420.772C556.513 423.57 556.239 426.307 555.486 428.982C575.599 429.63 595.714 430.178 615.831 430.624C619.294 430.599 622.715 430.325 626.094 429.803C626.367 430.761 626.642 431.718 626.915 432.676C625.823 440.727 625.002 448.8 624.452 456.896C589.148 456.896 553.844 456.896 518.541 456.896C522.099 425.145 525.656 393.399 529.214 361.658Z" fill="white"/>
<path opacity="0.957" fill-rule="evenodd" clip-rule="evenodd" d="M638.409 361.659C655.394 361.423 672.362 361.834 689.312 362.89C703.407 383.005 717.5 403.12 731.595 423.235C734.192 403.017 736.518 382.766 738.573 362.48C749.247 362.48 759.92 362.48 770.593 362.48C767.515 394.15 764.231 425.759 760.741 457.307C744.047 457.855 727.353 457.855 710.659 457.307C696.19 436.99 681.822 416.602 667.555 396.141C665.298 416.659 662.972 437.184 660.577 457.718C649.903 457.718 639.23 457.718 628.557 457.718C631.679 425.68 634.963 393.66 638.409 361.659Z" fill="white"/>
<path opacity="0.95" fill-rule="evenodd" clip-rule="evenodd" d="M804.255 361.658C822.046 361.521 839.838 361.658 857.621 362.069C874.945 361.942 885.068 370.289 887.999 387.11C863.089 386.973 838.188 387.11 813.286 387.52C807.325 386.98 804.725 389.58 805.486 395.32C805.897 395.731 806.307 396.141 806.718 396.552C827.26 396.656 847.785 397.204 868.294 398.194C878.007 400.246 883.894 406.13 885.946 415.846C887.769 430.654 883.253 443.106 872.399 453.202C865.519 456.977 858.13 458.756 850.232 458.538C831.348 459.633 812.465 459.633 793.582 458.538C786.813 457.424 780.518 455.097 774.698 451.56C770.135 445.956 767.399 439.525 766.488 432.266C793.857 432.403 821.224 432.266 848.59 431.855C850.823 430.822 851.915 429.043 851.874 426.519C851.964 424.98 851.414 423.749 850.232 422.824C833.656 422.663 817.101 422.253 800.56 421.593C791.439 422.655 783.502 419.919 776.751 413.382C770.023 401.436 770.023 389.394 776.751 377.258C783.711 368.101 792.879 362.901 804.255 361.658Z" fill="white"/>
<path opacity="0.946" fill-rule="evenodd" clip-rule="evenodd" d="M895.388 361.658C906.611 361.658 917.826 361.658 929.05 361.658C926.414 393.746 923.13 425.766 919.197 457.717C907.974 457.717 896.759 457.717 885.536 457.717C888.483 425.433 891.767 393.414 895.388 361.658Z" fill="white"/>
<path opacity="0.961" fill-rule="evenodd" clip-rule="evenodd" d="M1061.23 362.48C1078.2 362.343 1095.17 362.48 1112.14 362.89C1126.6 383.207 1140.97 403.595 1155.24 424.056C1157.14 403.512 1159.2 382.987 1161.4 362.48C1172.34 362.48 1183.29 362.48 1194.24 362.48C1190.85 394.2 1187.56 425.946 1184.39 457.718C1167.69 457.855 1151 457.718 1134.3 457.307C1119.35 437.148 1104.71 416.759 1090.38 396.141C1088.11 416.654 1086.05 437.179 1084.22 457.718C1073.55 457.718 1062.88 457.718 1052.2 457.718C1055.22 425.97 1058.22 394.223 1061.23 362.48Z" fill="white"/>
</svg>
