<svg width="2540" height="500" viewBox="0 0 2540 500" fill="none" xmlns="http://www.w3.org/2000/svg">
<path fill-rule="evenodd" clip-rule="evenodd" d="M230.561 5.4724C227.739 8.29426 223.586 10.6047 221.33 10.6047C219.079 10.6047 215.234 12.2346 212.791 14.2286C210.348 16.2227 203.075 22.0724 196.629 27.2305C190.183 32.3886 184.389 40.1404 183.752 44.4523C182.921 50.0813 172.932 57.5793 148.389 71.0005C91.4587 102.133 55.9555 130.572 35.3784 161.524C10.8058 198.488 -7.85818 253.424 4.1577 253.424C6.1812 253.424 7.83678 256.636 7.83678 260.565C7.83678 264.495 9.38199 268.659 11.2694 269.826C13.1567 270.992 16.6555 281.44 19.047 293.037C27.2771 332.977 41.287 376.684 47.3354 381.272C50.6981 383.826 63.7184 385.871 76.6025 385.871H99.8138V368.37C99.8138 358.745 98.1877 345.199 96.1973 338.268C93.6477 329.379 93.736 326.815 96.488 329.566C98.6365 331.715 101.194 340.71 102.172 349.555C105.005 375.187 107.139 382.648 110.958 380.286C112.922 379.072 114.53 381.085 114.53 384.76C114.53 396.187 138.742 415.219 154.205 415.948C171.931 416.783 195.128 415.587 205.587 413.295C216.467 410.915 216.121 404.804 202.872 365.305C191.478 331.329 189.388 314.394 195.422 304.931C197.847 301.131 198.262 303.633 196.765 312.966C195.205 322.672 197.457 334.684 204.697 355.276C218.637 394.929 219.929 396.908 231.841 396.908C245.741 396.908 265.255 389.845 265.862 384.591C266.134 382.258 266.855 372.902 267.466 363.797C269.269 336.936 270.45 330.685 273.735 330.685C275.446 330.685 275.939 329.221 274.831 327.433C273.268 324.898 298.47 315.969 307.185 315.969C308.157 315.969 310.824 321.642 313.109 328.573C318.767 345.714 340.595 373.59 353.648 380.341C379.829 393.88 412.536 379.547 412.536 354.536C412.536 339.386 404.387 330.685 390.2 330.685C380.947 330.685 379.424 332.087 379.424 340.618C379.424 355.85 373.232 346.586 366.739 321.634C359.498 293.824 359.568 287.882 367.165 284.969C371.143 283.442 377.294 286.385 384.641 293.331C390.877 299.225 399.597 305.903 404.015 308.169C416.745 314.696 460.209 313.276 475.08 305.844C486.272 300.255 488.101 297.43 489.064 284.262C490.025 271.135 488.634 267.817 478.664 259.428C466.813 249.454 461.659 248.067 451.266 252.056C446.402 253.921 447.403 255.676 456.486 261.198C463.992 265.764 467.722 270.962 467.722 276.856C467.722 287.206 460.084 290.09 432.491 290.164C417.293 290.204 412.212 288.504 405.178 281.017L396.536 271.82H407.481C413.5 271.82 420.409 273.806 422.837 276.234C426.27 279.667 427.252 278.909 427.252 272.817C427.252 251.007 396.116 246.794 361.842 263.976C350.267 269.781 325.224 280.727 306.192 288.306C268.757 303.21 245.02 304.552 232.919 292.452C227.452 286.985 228.059 284.391 240.553 259.852C248.018 245.187 260.226 222.649 267.687 209.765C280.483 187.657 280.766 186.491 272.753 189.033C265.494 191.336 264.655 190.733 266.969 184.864C268.459 181.09 270.593 172.536 271.715 165.858C273.345 156.153 275.291 153.934 281.399 154.821C285.6 155.428 291.557 160.424 294.632 165.921C299.938 175.402 299.525 177.282 286.594 202.712C279.099 217.45 267.153 238.616 260.049 249.745C252.945 260.874 246.683 274.119 246.135 279.178C245.241 287.423 246.624 288.497 259.504 289.553C285.236 291.657 290.357 288.559 293.422 269.046L296.163 251.585L299.308 266.868L302.458 282.154L342.376 263.601L382.294 245.051L373.538 226.243C367.353 212.962 364.77 200.85 364.745 185.019C364.722 172.598 361.562 153.456 357.655 142.095C353.774 130.822 351.338 120.859 352.239 119.958C353.141 119.057 351.908 113.534 349.498 107.692C347.092 101.846 345.466 95.5952 345.886 93.7998C346.305 92.0044 343.479 87.0377 339.609 82.7626C335.739 78.4875 331.677 69.1941 330.581 62.1119C326.71 37.0205 312.962 6.65339 303.918 3.21345C289.93 -2.10283 236.492 -0.458281 230.561 5.4724ZM563.378 221.898V374.834L663.633 374.812C767.983 374.793 786.952 372.652 801.441 359.271C812.732 348.845 818.144 318.721 816.65 274.619C815.421 238.384 815.171 237.475 804.056 228.532L792.721 219.407L801.654 210.475C810.385 201.744 810.557 200.423 809.108 152.982C806.562 69.4627 810.344 71.7032 669.152 70.136L563.378 68.966V221.898ZM857.705 222.152V374.834H958.736H1059.77L1063.37 361.037C1074.61 317.93 1078.45 301.407 1078.45 296.124C1078.45 290.929 1070.88 290.215 1015.91 290.215H953.361V275.499V260.782H1006.71H1060.05V223.992V187.201H1006.71H953.361V168.805V150.41H1016.3H1079.25L1077.28 142.132C1076.19 137.581 1072.48 119.369 1069.02 101.662L1062.73 69.47H960.215H857.705V222.152ZM1115.24 222.358V375.25L1221.01 374.12C1375.63 372.476 1366.71 380.886 1368.5 235.029C1369.31 169.019 1368.31 127.335 1365.6 115.094C1360.64 92.6262 1346.7 77.6781 1326.28 72.9431C1318.47 71.1293 1267.78 69.6062 1213.66 69.5583L1115.24 69.47V222.358ZM1411.34 73.8224C1410.32 76.4934 1409.91 144.902 1410.44 225.838L1411.41 372.994H1461.07H1510.74L1511.77 326.086C1512.79 279.8 1512.91 279.178 1521.32 279.178C1534 279.178 1539.45 287.89 1555.25 333.444L1569.6 374.834H1622.03C1650.87 374.834 1674.43 373.59 1674.4 372.075C1674.14 361.644 1640.05 276.172 1634.23 271.378C1627.19 265.573 1627.29 265.337 1638.4 262.151C1644.67 260.352 1653.28 254.226 1657.53 248.538C1664.52 239.186 1665.37 232.398 1666.43 177.584C1667.5 122.044 1666.95 115.632 1659.83 100.923C1646.11 72.5752 1641.15 71.4899 1519 70.136C1433.93 69.1941 1412.85 69.9152 1411.34 73.8224ZM1737.27 75.8201C1730.33 79.4109 1721.22 87.0193 1717.03 92.7329C1709.7 102.733 1709.41 107.563 1709.41 221.663C1709.41 384.127 1700.09 372.994 1836.18 372.994C1929.01 372.994 1930.33 372.888 1944.38 364.157C1967.95 349.503 1968.79 344.573 1968.78 221.35C1968.78 100.819 1967.88 95.3377 1945.53 78.929C1935.78 71.7695 1929.55 71.247 1842.52 70.3015C1759.76 69.4001 1748.54 69.9888 1737.27 75.8201ZM2053.41 72.8916C2033.63 76.8466 2023.84 83.6051 2018.14 97.2397C2010.55 115.429 2010.56 328.923 2018.16 347.116C2027.99 370.625 2037.32 372.77 2130.42 372.888L2212.95 372.994L2222.95 333.19C2230.01 305.101 2231.71 292.93 2228.72 291.834C2226.39 290.984 2198.82 289.854 2167.46 289.328L2110.43 288.375L2109.42 224.477C2108.73 180.468 2109.73 158.993 2112.63 155.494C2115.88 151.583 2129.51 150.41 2171.59 150.41C2232.42 150.41 2229.99 151.631 2222.89 124.656C2221.03 117.574 2217.61 102.258 2215.29 90.6248L2211.08 69.47L2138.68 69.8931C2098.87 70.1249 2060.49 71.4751 2053.41 72.8916ZM2266.79 222.152V374.834H2318.3H2369.81V319.405V263.972L2379.66 265.138C2388.84 266.22 2390.78 270.002 2408.17 320.534L2426.83 374.771L2481.1 374.801C2519.73 374.827 2535.37 373.609 2535.37 370.581C2535.37 368.241 2522.06 332.02 2505.8 290.09L2476.23 213.856L2505.8 145.653C2522.06 108.141 2535.37 75.6546 2535.37 73.4618C2535.37 70.7835 2518.55 69.47 2484.32 69.47H2433.27L2410.4 125.9C2383.52 192.252 2383.32 192.616 2375.7 189.691C2370.64 187.749 2369.81 179.136 2369.81 128.449V69.47H2318.3H2266.79V222.152ZM250.958 87.8655C252.816 87.8655 254.335 90.3488 254.335 93.3841C254.335 99.9108 252.562 100.179 243.055 95.0948C234.546 90.5401 233.434 82.4388 241.76 85.6322C244.961 86.8611 249.1 87.8655 250.958 87.8655ZM715.667 152.551C718.54 160.034 718.54 177.576 715.667 185.059C713.89 189.688 707.481 190.88 684.394 190.88H655.355V168.805V146.731H684.394C707.481 146.731 713.89 147.923 715.667 152.551ZM1567.03 151.146C1573.4 157.514 1572.79 199.905 1566.24 205.335C1563.39 207.708 1549.31 210.633 1534.97 211.836L1508.9 214.021V180.376V146.731H1535.76C1551.74 146.731 1564.41 148.519 1567.03 151.146ZM1272.6 221.232L1273.6 290.215H1242.25H1210.9V220.165V150.112L1241.25 151.182L1271.6 152.249L1272.6 221.232ZM1867.31 152.643C1872.32 154.564 1873.13 164.008 1873.13 219.97C1873.13 265.694 1871.82 286.378 1868.72 289.479C1862.86 295.34 1813.5 295.34 1807.64 289.479C1804.55 286.389 1803.23 266.18 1803.23 222.152C1803.23 178.124 1804.55 157.915 1807.64 154.825C1812.23 150.241 1856.81 148.611 1867.31 152.643ZM716.06 281.017V303.092L685.708 304.159L655.355 305.229V281.017V256.805L685.708 257.876L716.06 258.943V281.017ZM1651.03 405.186C1647.06 419.995 1648.39 422.662 1659.74 422.662H1670.78V461.292V499.923H1689.18H1707.57V461.292V422.662H1720.84C1731.43 422.662 1733.66 421.485 1731.88 416.842C1730.65 413.641 1729.65 407.846 1729.65 403.965C1729.65 397.46 1726.65 396.908 1691.45 396.908C1654.94 396.908 1653.15 397.276 1651.03 405.186ZM1744.36 448.416V499.923H1760.92H1777.48V483.061C1777.48 461.98 1784.38 462.687 1792.08 484.555C1797.41 499.695 1797.74 499.923 1815.07 499.923C1834.57 499.923 1834.8 499.54 1827.57 479.055C1823.23 466.759 1823.23 463.584 1827.57 457.654C1830.48 453.666 1832.66 441.797 1832.66 429.888C1832.66 399.686 1828.38 396.908 1781.78 396.908H1744.36V448.416ZM1847.38 444.001C1847.38 475.722 1848.82 492.535 1851.79 495.508C1857.78 501.497 1921.59 501.497 1927.58 495.508C1930.55 492.535 1932 475.722 1932 444.001V396.908H1915.57H1899.14L1898.09 434.619C1897.09 470.556 1896.66 472.385 1888.77 473.507C1880.63 474.662 1880.49 474.018 1880.49 435.796V396.908H1863.93H1847.38V444.001ZM1952.49 402.688C1947.95 407.236 1946.71 417.007 1946.71 448.416C1946.71 498.734 1947.64 499.923 1986.83 499.923H2015.38L2019.28 487.219L2023.18 474.511L2002.42 473.422L1981.66 472.33V448.416V424.502L2000.98 423.39C2020.82 422.246 2022.16 420.815 2017.98 405.186C2015.92 397.497 2013.71 396.908 1987.02 396.908C1965.79 396.908 1956.76 398.421 1952.49 402.688ZM2035.01 448.416V499.923H2053.41H2071.8V481.527C2071.8 471.41 2073.17 463.132 2074.83 463.132C2076.5 463.132 2080.3 470.994 2083.28 480.608L2088.69 498.083L2108.31 499.213C2125.99 500.228 2127.67 499.68 2125.27 493.694C2105.5 444.49 2105.59 446.436 2121.1 410.705L2127.09 396.908H2109.21H2091.33L2081.9 418.063L2072.48 439.218L2072.14 418.063L2071.8 396.908H2053.41H2035.01V448.416ZM2167.46 448.416V499.923H2205.88C2241.41 499.923 2244.73 499.308 2250.03 491.744C2256.08 483.106 2257.89 457.529 2252.68 454.306C2250.99 453.261 2250.35 443.467 2251.25 432.544C2254.02 399.149 2251.18 396.908 2205.96 396.908H2167.46V448.416ZM2266.79 448.416V499.923H2301.53C2320.63 499.923 2336.96 498.679 2337.81 497.163C2338.66 495.648 2340.43 489.934 2341.73 484.471C2344.07 474.655 2343.86 474.526 2323.21 473.433C2295.69 471.98 2291.21 463.132 2318 463.132H2336.7V450.255V437.378H2318.3C2302.36 437.378 2299.91 436.396 2299.91 430.02C2299.91 423.464 2302.36 422.662 2322.41 422.662C2343.95 422.662 2344.82 422.309 2342.69 414.384C2341.48 409.829 2340.45 404.038 2340.43 401.507C2340.39 398.137 2330.54 396.908 2303.58 396.908H2266.79V448.416ZM2355.09 448.416V499.923H2393.46C2443.82 499.923 2443.39 500.364 2443.39 448.416C2443.39 396.467 2443.82 396.908 2393.46 396.908H2355.09V448.416ZM2462.65 401.198C2456.52 407.32 2456.64 449.979 2462.8 455.089C2465.38 457.231 2475.73 459.501 2485.79 460.137C2499.09 460.976 2504.09 462.801 2504.09 466.811C2504.09 470.909 2498.34 472.804 2481.77 474.169L2459.43 476.009L2462.55 487.966L2465.67 499.923H2496.58C2535.01 499.923 2539.05 496.821 2539.05 467.286C2539.05 455.693 2537.06 444.221 2534.63 441.793C2532.2 439.365 2521.44 437.378 2510.72 437.378C2493.67 437.378 2491.22 436.451 2491.22 430.02C2491.22 423.431 2493.67 422.662 2514.67 422.662H2538.11L2535.68 410.705L2533.24 398.748L2500.22 397.703C2477.67 396.986 2465.75 398.097 2462.65 401.198ZM1798.87 432.779C1797.96 440.726 1795.54 443.147 1787.59 444.06C1778.5 445.108 1777.48 444.082 1777.48 433.942C1777.48 423.806 1778.62 422.662 1788.76 422.662C1798.9 422.662 1799.92 423.688 1798.87 432.779ZM2218.97 430.02C2218.97 435.417 2216.51 437.378 2209.77 437.378C2203.02 437.378 2200.57 435.417 2200.57 430.02C2200.57 424.623 2203.02 422.662 2209.77 422.662C2216.51 422.662 2218.97 424.623 2218.97 430.02ZM2409.53 447.496C2408.49 471.241 2408.04 472.33 2399.24 472.33C2390.44 472.33 2389.99 471.241 2388.95 447.496L2387.87 422.662H2399.24H2410.61L2409.53 447.496ZM2220.81 468.651C2220.81 473.941 2217.96 476.336 2210.69 477.171C2201.92 478.183 2200.57 477.046 2200.57 468.651C2200.57 460.255 2201.92 459.118 2210.69 460.13C2217.96 460.965 2220.81 463.36 2220.81 468.651Z" fill="currentColor"/>
</svg>
