<svg width="4066" height="500" viewBox="0 0 4066 500" fill="none" xmlns="http://www.w3.org/2000/svg">
<path fill-rule="evenodd" clip-rule="evenodd" d="M0.0810547 248.323V496.647H234.704H469.326L469.309 406.736L469.292 316.826L436.849 284.287C419.001 266.391 404.368 250.176 404.324 248.255C404.283 246.333 418.891 230.18 436.787 212.359L469.326 179.957V89.9787V0H234.704H0.0810547V248.323ZM500.153 248.323V496.647H736.488H972.823V436.737V376.828L797.284 375.941L621.745 375.054L620.766 341.659L619.786 308.263H794.671H969.556L968.621 247.467L967.685 186.671L793.732 185.783L619.776 184.896L620.762 153.245L621.745 121.593L795.572 120.706L969.398 119.819V59.9093V0H734.775H500.153V248.323ZM1003.65 248.323V496.647H1184.77H1365.9L1375.47 483.802C1380.73 476.74 1392.34 461.71 1401.27 450.407C1410.19 439.104 1430.73 413.049 1446.91 392.505L1476.32 355.15L1476.23 248.649L1476.14 142.144L1450.59 109.605C1436.54 91.7084 1411.74 59.7277 1395.46 38.5329L1365.87 0H1184.76H1003.65V248.323ZM347.734 125.693C347.734 127.946 334.804 142.976 318.997 159.088L290.263 188.383H205.11H119.961V154.087V119.788L233.847 120.692C319.473 121.37 347.734 122.61 347.734 125.693ZM1297.57 121.976C1305.55 123.573 1313.49 131.019 1330.81 153.125L1353.57 182.177L1353.4 248.977L1353.23 315.778L1329.82 345.416L1306.41 375.054H1215.83H1125.24L1124.34 251.766C1123.85 183.954 1124.18 126.542 1125.09 124.179C1126.35 120.901 1145.77 119.88 1206.91 119.88C1251 119.88 1291.8 120.826 1297.57 121.976ZM319.099 337.661C334.848 353.599 347.734 368.532 347.734 370.848C347.734 374.088 321.788 375.054 234.704 375.054H121.674L120.67 346.228C120.119 330.373 120.472 315.302 121.455 312.74C122.897 308.979 139.313 308.14 206.854 308.383L290.469 308.685L319.099 337.661Z" fill="currentColor"/>
<path fill-rule="evenodd" clip-rule="evenodd" d="M1562.45 8.14758C1542.18 15.3815 1533.76 22.3756 1525.98 38.4293C1519.5 51.8319 1518.74 59.3536 1518.74 110.775V168.16L1529.32 183.532C1535.14 191.989 1543.23 200.37 1547.3 202.158C1551.37 203.95 1562.41 210.036 1571.83 215.688C1581.25 221.336 1592.81 227.888 1597.52 230.248C1602.23 232.604 1624.58 245.49 1647.19 258.882C1669.79 272.274 1696.77 287.986 1707.13 293.798C1732 307.749 1779.54 334.914 1799.25 346.449C1807.93 351.526 1822.44 359.695 1831.51 364.606C1856.58 378.17 1851.41 381.715 1806.16 381.996C1784.66 382.129 1711.16 382.513 1642.82 382.852L1518.58 383.465L1519.52 440.836L1520.46 498.208H1732.82C1938.37 498.208 1945.53 497.992 1956.39 491.429C1962.55 487.703 1971.7 478.725 1976.72 471.484C1985.75 458.448 1985.84 457.726 1986.06 396.347C1986.22 349.655 1985.22 334.023 1981.99 332.944C1979.64 332.16 1977.71 328.865 1977.71 325.625C1977.71 314.054 1950.43 294.377 1897.22 267.585C1891.57 264.739 1886.18 261.396 1885.23 260.16C1884.29 258.923 1878.9 255.604 1873.25 252.789C1867.59 249.97 1847.56 238.701 1828.72 227.748C1793.46 207.241 1689.24 147.174 1671.39 137.07C1647.6 123.606 1651.84 123.174 1812.17 122.691C1896.62 122.438 1970.29 122.054 1975.87 121.835L1986.02 121.441L1987.21 67.9541C1988.25 21.9749 1987.63 13.6792 1982.82 8.87029C1977.76 3.81477 1957.75 3.2873 1776.24 3.4243C1617.6 3.54418 1572.56 4.53748 1562.45 8.14758ZM2025.67 4.55118C2025.66 4.79094 2025.3 98.2358 2024.86 212.208C2023.92 453.455 2024.12 459.312 2033.86 471.861C2045.16 486.422 2053.7 492.327 2069.14 496.259C2084.54 500.184 2469.61 501.557 2483.86 497.742C2491.61 495.663 2491.64 495.402 2490.71 438.702L2489.77 381.752L2317.25 381.054C2222.35 380.67 2144.05 379.687 2143.24 378.875C2142.43 378.06 2141.45 293.603 2141.08 191.191L2140.41 4.98617L2083.04 4.55118C2051.48 4.30799 2025.67 4.30799 2025.67 4.55118ZM2533.42 6.10962C2530.02 8.27089 2529.3 60.0454 2529.99 253.525L2530.87 498.208L2582.25 498.184C2610.51 498.17 2636.33 497.064 2639.62 495.721C2645.25 493.433 2645.62 478.506 2645.62 250.357C2645.62 32.0003 2645.07 7.22279 2640.2 5.35266C2632.16 2.2666 2538.42 2.93451 2533.42 6.10962ZM2727.11 6.76725C2713.39 10.7404 2698.42 22.427 2690.39 35.422C2683.43 46.6805 2683.29 50.5715 2683.38 243.438C2683.42 351.536 2684.86 446.025 2686.57 453.417C2690.48 470.258 2699.52 482.544 2714.48 491.357C2725.55 497.882 2733.24 498.255 2875.96 499.201C2978.02 499.876 3025.81 499.057 3025.81 496.632C3025.81 494.673 3028.68 493.07 3032.2 493.07C3035.71 493.07 3042.64 489.884 3047.59 485.987C3058.16 477.674 3124.34 395.559 3129.53 384.321C3131.49 380.081 3134.34 376.615 3135.88 376.615C3137.41 376.615 3141.01 372.066 3143.89 366.511C3148.24 358.095 3149.11 338.815 3149.11 251.316V146.229L3125.37 113.283C3112.32 95.1635 3096.52 74.6194 3090.27 67.6287C3084.02 60.638 3072.73 46.4476 3065.2 36.0968C3053.34 19.8034 3048.7 16.3234 3030.64 10.1787C3010.8 3.42773 3003.1 3.10576 2873.08 3.58186C2797.9 3.85587 2732.21 5.29101 2727.11 6.76725ZM3235.64 5.90754C3229.55 6.57886 3222.61 9.90469 3220.23 13.3024C3215.97 19.3821 3214.13 20.3993 3207.34 20.3993C3205.46 20.3993 3203.92 22.7113 3203.92 25.5371C3203.92 28.3628 3202.56 30.6748 3200.91 30.6748C3193.76 30.6748 3190 51.4209 3190.95 85.6381L3191.93 121.441H3423.13H3654.32V63.2137V4.98617L3450.53 4.83546C3338.44 4.75326 3241.74 5.23621 3235.64 5.90754ZM3690.89 6.15072C3687.22 8.56203 3687.43 10.2027 3691.99 14.765C3695.09 17.8647 3699.15 20.3993 3701.01 20.3993C3702.87 20.3993 3703.62 21.6529 3702.67 23.1874C3701.72 24.7219 3736.31 61.3162 3779.53 104.507C3822.76 147.698 3858.12 184.971 3858.12 187.331C3858.12 190.735 3789.21 191.804 3525.02 192.496L3191.93 193.369L3190.98 249.627C3190.27 292.329 3191.09 306.564 3194.41 308.694C3196.81 310.239 3344.43 311.482 3522.46 311.455C3700.48 311.431 3848.83 311.438 3852.13 311.472C3855.42 311.51 3858.12 313.489 3858.12 315.877C3858.12 318.264 3818.92 359.424 3771.01 407.345C3723.1 455.263 3684.6 495.608 3685.46 496.995C3686.31 498.382 3722.31 499.516 3765.45 499.516H3843.89L3887.83 455.362C4046.57 295.826 4052.97 289.017 4060.25 272.042C4068.55 252.665 4067.53 240.862 4055.91 221.966C4051.68 215.088 4003.01 163.454 3947.76 107.223L3847.3 4.98617L3771.36 4.08193C3729.6 3.58186 3693.38 4.5135 3690.89 6.15072ZM2990.31 128.244C2995.71 131.042 2999.51 134.286 2998.77 135.453C2997.23 137.865 3001.46 144.41 3020.03 168.335L3033.1 185.159L3033.12 251.861L3033.16 318.558L3010.19 348.987C2996.08 367.682 2984.29 379.975 2979.61 380.872C2962.65 384.112 2812.61 383.26 2806.31 379.886C2800.03 376.526 2799.75 371.039 2799.75 252.046C2799.75 183.669 2800.78 126.692 2802.03 125.438C2803.29 124.181 2843.96 123.154 2892.41 123.154C2963.66 123.154 2982.37 124.127 2990.31 128.244ZM3192.52 382.301C3188.91 385.907 3189.86 445.399 3193.74 459.394C3198.03 474.821 3216.38 491.549 3234.31 496.378C3243.11 498.749 3316.97 499.673 3450.99 499.091L3654.32 498.208V439.98V381.752L3424.58 380.872C3298.22 380.389 3193.79 381.03 3192.52 382.301Z" fill="currentColor"/>
</svg>
