<svg width="2291" height="500" viewBox="0 0 2291 500" fill="none" xmlns="http://www.w3.org/2000/svg">
<path fill-rule="evenodd" clip-rule="evenodd" d="M0.40918 250.231V500H111.844C183.574 500 223.28 498.632 223.28 496.157C223.28 494.044 228.467 492.315 234.808 492.315C241.148 492.315 246.335 490.586 246.335 488.472C246.335 486.359 248.987 484.63 252.226 484.63C255.469 484.63 264.115 478.635 271.439 471.307C281.614 461.136 284.761 454.78 284.761 444.409C284.761 436.943 286.49 430.833 288.604 430.833C291.032 430.833 292.446 403.935 292.446 357.824C292.446 311.713 291.032 284.815 288.604 284.815C286.49 284.815 284.761 281.356 284.761 277.129C284.761 272.903 283.032 269.444 280.919 269.444C278.805 269.444 277.076 265.986 277.076 261.759C277.076 257.39 274.513 254.074 271.139 254.074C265.606 254.074 246.335 237.789 246.335 233.113C246.335 231.96 249.413 231.018 253.171 231.018C256.933 231.018 262.501 227.56 265.548 223.333C268.595 219.106 274.163 215.648 277.925 215.648C282.198 215.648 284.761 212.77 284.761 207.963C284.761 203.736 286.49 200.278 288.604 200.278C291.032 200.278 292.446 173.379 292.446 127.268C292.446 81.1571 291.032 54.2589 288.604 54.2589C286.49 54.2589 284.761 50.8006 284.761 46.5737C284.761 42.3468 283.032 38.8885 280.919 38.8885C278.805 38.8885 277.076 35.4302 277.076 31.2033C277.076 26.3962 274.513 23.5181 270.24 23.5181C266.478 23.5181 260.91 20.0598 257.863 15.8329C253.652 9.99219 247.915 8.14774 233.958 8.14774C223.86 8.14774 215.595 6.41857 215.595 4.30514C215.595 1.84588 181.011 0.462548 119.53 0.462548C58.0481 0.462548 23.4648 1.84588 23.4648 4.30514C23.4648 6.41857 20.0064 8.14774 15.7796 8.14774C11.5527 8.14774 8.09437 6.41857 8.09437 4.30514C8.09437 2.19172 6.3652 0.462548 4.25178 0.462548C1.73103 0.462548 0.40918 86.2793 0.40918 250.231ZM384.669 4.30514C384.669 6.41857 381.21 8.14774 376.984 8.14774C369.379 8.14774 369.298 10.7108 369.298 254.074V500H419.252H469.206V255.722C469.206 49.1367 468.36 10.5955 463.715 5.95362C457.179 -0.586477 384.669 -2.09662 384.669 4.30514ZM576.799 4.30514C576.799 6.41857 573.34 8.14774 569.113 8.14774C561.509 8.14774 561.428 10.7108 561.428 254.074V500H669.021H776.613V450.046V400.093H722.817H669.021V205.769C669.021 33.2283 668.337 10.7569 662.907 5.3273C657.701 0.120582 656.233 0.0206399 653.009 4.64328C650.104 8.80481 648.77 8.95084 647.276 5.26579C644.855 -0.694073 576.799 -1.62014 576.799 4.30514ZM868.836 4.30514C868.836 6.41857 864.455 8.14774 859.102 8.14774C848.278 8.14774 822.725 30.9996 822.725 40.683C822.725 43.9223 820.995 46.5737 818.882 46.5737C816.4 46.5737 815.039 90.1218 815.039 169.537V292.5H899.577C953.373 292.5 984.114 291.101 984.114 288.657C984.114 286.544 987.572 284.815 991.799 284.815C999.154 284.815 999.484 287.378 999.484 344.648C999.484 391.381 998.281 405.687 993.993 409.972C990.039 413.93 978.696 415.463 953.373 415.463C928.05 415.463 916.707 413.93 912.753 409.972C908.687 405.91 907.262 393.944 907.262 363.861V323.241H861.151H815.039V384.722C815.039 423.148 816.48 446.204 818.882 446.204C820.995 446.204 822.725 449.662 822.725 453.889C822.725 458.116 824.454 461.574 826.567 461.574C828.681 461.574 830.41 464.245 830.41 467.511C830.41 475.2 847.525 492.315 855.214 492.315C858.48 492.315 861.151 494.044 861.151 496.157C861.151 498.609 893.171 500 949.53 500C1005.89 500 1037.91 498.609 1037.91 496.157C1037.91 494.044 1040.55 492.315 1043.77 492.315C1051.4 492.315 1084.02 459.695 1084.02 452.067C1084.02 448.844 1085.75 446.204 1087.86 446.204C1089.98 446.204 1091.71 439.287 1091.71 430.833C1091.71 422.38 1093.44 415.463 1095.55 415.463C1098.02 415.463 1099.39 377.586 1099.39 309.519C1099.39 222.822 1098.39 202.575 1093.9 198.083C1089.45 193.634 1071.21 192.592 997.836 192.592H907.262V138.796V84.9997H953.373H999.484V119.583V154.166H1049.44H1099.39V104.213C1099.39 73.4719 1097.91 54.2589 1095.55 54.2589C1093.44 54.2589 1091.71 49.8783 1091.71 44.5256C1091.71 31.5453 1068.31 8.14774 1055.33 8.14774C1049.98 8.14774 1045.6 6.41857 1045.6 4.30514C1045.6 1.85357 1013.57 0.462548 957.215 0.462548C900.856 0.462548 868.836 1.85357 868.836 4.30514ZM1130.13 50.4163V100.37H1168.56H1206.98V300.185V500H1260.78H1314.58V300.185V100.37H1356.85H1399.11V54.2589V8.14774H1387.59C1381.25 8.14774 1376.06 6.41857 1376.06 4.30514C1376.06 1.83435 1337.63 0.462548 1268.47 0.462548C1199.3 0.462548 1160.87 1.83435 1160.87 4.30514C1160.87 6.41857 1157.41 8.14774 1153.19 8.14774C1148.96 8.14774 1145.5 6.41857 1145.5 4.30514C1145.5 2.19172 1142.04 0.462548 1137.82 0.462548C1130.53 0.462548 1130.13 3.02556 1130.13 50.4163ZM1457.71 6.21108C1453.98 10.4533 1452.91 65.9712 1452.91 255.834V500H1579.72H1706.52V450.046V400.093H1629.67H1552.82V346.296V292.5H1621.98H1691.15V246.389V200.278H1627.48C1577.41 200.278 1562.62 199.106 1558.31 194.787C1554.18 190.663 1552.82 178.248 1552.82 144.833V100.37H1625.83H1698.84V55.9074C1698.84 22.4922 1697.47 10.0767 1693.35 5.95362C1685.25 -2.14657 1464.86 -1.90448 1457.71 6.21108ZM1795.86 6.21108C1792.13 10.4533 1791.06 65.9712 1791.06 255.834V500H1841.01H1890.97V277.129C1890.97 131.111 1892.29 54.2589 1894.81 54.2589C1900.41 54.2589 1899.52 24.5671 1893.85 21.9157C1890.01 20.1251 1890.01 19.226 1893.85 17.4353C1903.6 12.8857 1898.21 8.14774 1883.28 8.14774C1874.83 8.14774 1867.91 6.41857 1867.91 4.30514C1867.91 -2.03898 1801.58 -0.28675 1795.86 6.21108ZM1987.99 6.21108C1984.26 10.4533 1983.19 65.9712 1983.19 255.834V500H2033.14H2083.1V373.194C2083.1 291.22 2084.46 246.389 2086.94 246.389C2089.05 246.389 2090.78 249.847 2090.78 254.074C2090.78 258.301 2092.51 261.759 2094.62 261.759C2096.74 261.759 2098.47 265.217 2098.47 269.444C2098.47 273.671 2100.2 277.129 2102.31 277.129C2104.42 277.129 2106.15 280.588 2106.15 284.815C2106.15 289.042 2107.88 292.5 2109.99 292.5C2112.11 292.5 2113.84 295.958 2113.84 300.185C2113.84 304.412 2115.57 307.87 2117.68 307.87C2119.79 307.87 2121.52 313.058 2121.52 319.398C2121.52 325.738 2123.25 330.926 2125.36 330.926C2127.48 330.926 2129.21 334.384 2129.21 338.611C2129.21 342.838 2130.94 346.296 2133.05 346.296C2135.16 346.296 2136.89 349.755 2136.89 353.981C2136.89 358.208 2138.62 361.667 2140.73 361.667C2142.85 361.667 2144.58 365.125 2144.58 369.352C2144.58 373.579 2146.31 377.037 2148.42 377.037C2150.53 377.037 2152.26 380.495 2152.26 384.722C2152.26 388.949 2153.99 392.407 2156.11 392.407C2158.22 392.407 2159.95 395.866 2159.95 400.093C2159.95 404.319 2161.68 407.778 2163.79 407.778C2165.9 407.778 2167.63 411.236 2167.63 415.463C2167.63 419.69 2169.36 423.148 2171.48 423.148C2173.59 423.148 2175.32 428.336 2175.32 434.676C2175.32 441.016 2177.05 446.204 2179.16 446.204C2181.27 446.204 2183 449.662 2183 453.889C2183 458.116 2184.73 461.574 2186.85 461.574C2188.96 461.574 2190.69 465.032 2190.69 469.259C2190.69 473.486 2192.42 476.944 2194.53 476.944C2196.64 476.944 2198.37 479.661 2198.37 482.981C2198.37 496.795 2208.09 500 2249.98 500H2290.6V254.074V8.14774H2279.07C2272.73 8.14774 2267.54 6.41857 2267.54 4.30514C2267.54 -1.98519 2210.32 -0.505783 2203.86 5.95362C2199.35 10.4687 2198.37 32.2292 2198.37 128.917C2198.37 204.67 2197.01 246.389 2194.53 246.389C2192.42 246.389 2190.69 242.93 2190.69 238.703C2190.69 234.477 2188.96 231.018 2186.85 231.018C2184.73 231.018 2183 227.56 2183 223.333C2183 219.106 2181.27 215.648 2179.16 215.648C2177.05 215.648 2175.32 212.19 2175.32 207.963C2175.32 203.736 2173.59 200.278 2171.48 200.278C2169.36 200.278 2167.63 196.819 2167.63 192.592C2167.63 188.365 2165.9 184.907 2163.79 184.907C2161.68 184.907 2159.95 181.449 2159.95 177.222C2159.95 172.995 2158.22 169.537 2156.11 169.537C2153.99 169.537 2152.26 164.349 2152.26 158.009C2152.26 151.669 2150.53 146.481 2148.42 146.481C2146.31 146.481 2144.58 143.023 2144.58 138.796C2144.58 134.569 2142.85 131.111 2140.73 131.111C2138.62 131.111 2136.89 127.652 2136.89 123.426C2136.89 119.199 2135.16 115.74 2133.05 115.74C2130.94 115.74 2129.21 112.282 2129.21 108.055C2129.21 103.828 2127.48 100.37 2125.36 100.37C2123.25 100.37 2121.52 95.1825 2121.52 88.8423C2121.52 82.502 2119.79 77.3145 2117.68 77.3145C2115.57 77.3145 2113.84 73.8561 2113.84 69.6293C2113.84 65.4024 2112.11 61.9441 2109.99 61.9441C2107.88 61.9441 2106.15 58.4857 2106.15 54.2589C2106.15 50.032 2104.42 46.5737 2102.31 46.5737C2100.2 46.5737 2098.47 43.1154 2098.47 38.8885C2098.47 34.6617 2096.74 31.2033 2094.62 31.2033C2092.51 31.2033 2090.78 27.745 2090.78 23.5181C2090.78 19.2913 2089.05 15.8329 2086.94 15.8329C2084.83 15.8329 2083.1 12.3746 2083.1 8.14774C2083.1 0.889076 2080.58 0.470212 2037.95 0.608545C2003.91 0.719981 1991.61 2.09566 1987.99 6.21108ZM194.733 98.1759C198.86 102.299 200.224 114.714 200.224 148.13C200.224 190.029 199.782 192.592 192.539 192.592C188.312 192.592 184.854 194.322 184.854 196.435C184.854 198.783 166.92 200.278 138.743 200.278H92.6315V146.481V92.6849H140.937C177.68 92.6849 190.56 93.999 194.733 98.1759ZM194.733 290.306C198.952 294.521 200.224 307.87 200.224 347.945C200.224 397.529 199.848 400.093 192.539 400.093C188.312 400.093 184.854 401.822 184.854 403.935C184.854 406.283 166.92 407.778 138.743 407.778H92.6315V346.296V284.815H140.937C177.68 284.815 190.56 286.129 194.733 290.306Z" fill="white"/>
</svg>
