<svg width="1943" height="447" viewBox="0 0 1943 447" fill="none" xmlns="http://www.w3.org/2000/svg">
<path d="M1463.44 1.80004C1431.86 5.92908 1414.62 20.3807 1408.33 48.1227C1406 58.3163 1406 150.187 1408.33 160.381C1412.17 177.671 1421.73 191.607 1434.54 198.446C1450.39 206.962 1462.39 208.123 1530.43 208.123C1597.31 208.123 1607.45 207.091 1621.55 199.22C1638.44 189.671 1644.97 174.317 1644.97 143.865V128.123H1617H1589.04V131.478C1589.04 143.994 1582.87 152.897 1573.08 154.833C1570.05 155.349 1549.19 155.865 1526.71 155.865C1490.24 155.865 1485.23 155.607 1479.87 153.542C1472.64 150.704 1468.8 146.187 1466.12 137.284C1464.49 131.865 1464.26 126.187 1464.6 102.703C1464.95 78.1873 1465.19 73.9292 1467.17 70.0582C1470.2 63.7357 1473.58 59.8647 1478.94 56.7679C1483.48 54.0582 1485.11 53.9292 1526.71 53.5421C1556.88 53.284 1571.33 53.5421 1574.71 54.7034C1581.82 56.7679 1585.78 62.0582 1586.48 70.0582L1587.06 76.5099H1615.02H1642.99L1642.29 60.6389C1641.47 40.2517 1638.68 30.0582 1631.68 21.413C1622.25 9.80006 1608.38 4.25166 1582.05 1.67101C1566.2 0.122621 1475.67 0.251653 1463.44 1.80004Z" fill="currentColor"/>
<path d="M108.158 3.73556C73.6705 8.63879 50.1348 18.3162 44.0761 30.1872C41.5128 35.2195 41.1633 37.284 41.2798 48.1227C41.3963 54.8324 43.2605 77.5422 45.3578 98.4454C47.455 119.349 49.2027 142.058 49.2027 148.897L49.3192 161.284L42.678 175.994C38.9495 184.123 32.5413 196.768 28.2303 204.252C2.3644 249.155 0.733218 253.026 0.616704 271.994C0.383678 286.317 2.13138 294.446 8.65611 309.801C14.4818 323.736 22.0551 336.639 29.6285 346.059L34.9881 352.64L48.8532 337.93C60.388 325.543 64.4659 322.188 72.8549 317.543C82.409 312.252 83.4576 311.994 92.8951 311.994C108.857 311.994 112.469 314.446 138.452 343.478C150.919 357.414 161.987 368.64 164.667 370.059C175.386 375.994 208.709 370.704 227.701 359.994C259.159 342.317 274.889 293.285 270.112 227.478C268.83 209.542 263.82 169.671 262.538 168.381C261.49 167.22 254.848 172.897 254.149 175.478C253.8 177.155 254.732 190.188 256.13 204.51C261.606 259.478 257.062 295.994 242.615 313.93C235.158 323.091 215.351 339.865 206.379 344.51C197.058 349.543 185.407 352.252 179.231 350.962C172.357 349.414 168.396 345.801 158.609 331.865C147.54 315.865 140.549 308.51 128.548 299.865C114.45 289.672 108.508 287.478 94.1768 287.478C83.3411 287.478 81.0108 287.865 73.787 291.22C62.2522 296.51 53.3972 302.575 45.8238 310.317L39.1826 317.027L36.3863 313.285C31.3762 306.446 24.3854 289.93 22.4047 280.897C19.2588 265.672 21.3561 257.801 33.9395 237.543C54.4458 204.768 65.2815 181.542 69.243 161.284C71.6897 149.155 71.8063 122.833 69.3595 110.704C66.7962 97.6712 61.5531 58.1873 61.5531 51.4776C61.5531 40.6389 68.5439 35.4776 91.264 29.8001C106.061 26.0582 133.675 26.0582 152.899 29.9292C192.863 37.8001 214.418 51.8647 269.762 105.8C279.433 115.22 287.589 122.962 287.938 122.962C289.103 122.962 292.249 112.51 292.249 108.768C292.249 101.155 248.557 54.7034 222.924 34.9614C190.766 10.1872 174.571 4.50975 134.956 3.60652C122.489 3.34846 110.372 3.47749 108.158 3.73556Z" fill="currentColor"/>
<path d="M659.266 104.252V205.671L759.816 205.284C871.087 204.768 865.494 205.284 877.611 196.252C889.03 187.994 894.04 174.187 893.923 151.349C893.923 122.703 887.398 110.962 868.523 105.155L860.717 102.832L866.543 100.51C874.465 97.4131 880.99 90.8324 884.253 82.7034C886.699 76.5098 887.049 74.0582 887.049 57.155C887.049 39.6065 886.816 37.9291 884.02 31.2194C877.844 16.7678 866.426 8.50969 847.551 4.89678C838.929 3.21936 822.967 2.96129 748.282 2.96129H659.266V104.252ZM824.015 53.284C830.54 55.9937 833.569 67.4776 829.957 75.2195C826.346 82.9615 826.462 82.9615 768.205 82.9615H715.192V67.4776V51.9937H768.089C799.664 51.9937 822.268 52.5098 824.015 53.284ZM827.394 126.962C835.084 129.284 839.278 142.316 834.501 149.8C830.307 156.51 830.19 156.51 770.536 156.51H715.192V141.026V125.542H769.138C803.276 125.542 824.598 126.058 827.394 126.962Z" fill="currentColor"/>
<path d="M928.411 104.251V205.542H1019.87H1111.34V179.735V153.929H1047.84H984.337V78.4449V2.96091H956.374H928.411V104.251Z" fill="currentColor"/>
<path d="M1223.07 5.79962C1219.69 12.8964 1129.51 197.542 1127.53 201.284L1125.44 205.542H1157.13H1188.82L1196.97 187.736L1205.13 170.058L1261.87 169.671L1318.5 169.413L1327.12 187.09L1335.63 204.897L1366.85 205.284C1383.98 205.413 1397.96 205.155 1397.96 204.639C1397.96 204.123 1375.59 158.574 1348.21 103.348L1298.34 2.96091H1261.41H1224.47L1223.07 5.79962ZM1279.58 88.2514C1288.9 107.864 1296.59 124.381 1296.59 124.768C1296.59 125.155 1280.86 125.542 1261.52 125.542C1241.25 125.542 1226.69 125.026 1226.92 124.381C1228.9 118.316 1261.17 51.09 1261.76 51.7352C1262.22 52.2513 1270.14 68.6385 1279.58 88.2514Z" fill="currentColor"/>
<path d="M1678.76 104.251V205.542H1707.3H1735.85V166.832V128.122H1748.08H1760.32L1800.51 166.832L1840.59 205.542L1880.32 205.284L1920.05 204.897L1865.06 153.413C1812.16 103.864 1810.18 101.929 1812.28 99.7353C1813.56 98.574 1833.95 78.1869 1857.6 54.5739C1881.37 30.961 1902.58 9.6706 1904.79 7.34801L1908.87 2.96091H1870.42L1831.97 3.08994L1796.43 40.3803L1761.01 77.7998H1748.43H1735.85V40.3803V2.96091H1707.3H1678.76V104.251Z" fill="currentColor"/>
<path d="M1922.5 6.18688C1918.31 10.0579 1917.03 14.703 1918.77 20.3805C1920.4 25.9289 1924.48 28.7676 1930.43 28.7676C1939.28 28.7676 1944.76 18.9611 1940.79 10.3159C1937.18 2.57397 1928.56 0.509452 1922.5 6.18688ZM1934.5 6.31592C1937.42 7.60624 1939.98 14.3159 1939.16 18.574C1937.65 26.316 1928.44 28.8966 1923.43 22.9611C1916.44 14.703 1924.72 2.18688 1934.5 6.31592Z" fill="currentColor"/>
<path d="M1924.6 16.5097C1924.6 20.3806 1925.18 23.6064 1925.76 23.6064C1926.46 23.6064 1926.93 22.4452 1926.93 21.1548C1926.93 17.0258 1928.91 16.8968 1931.36 20.6387C1934.04 24.7677 1936.02 23.9935 1933.92 19.7355C1932.87 17.6709 1932.87 16.5097 1933.92 15.0903C1936.37 11.8645 1934.39 9.41287 1929.26 9.41287H1924.6V16.5097ZM1931.59 13.4129C1931.59 14.058 1930.54 14.5742 1929.26 14.5742C1927.05 14.5742 1926.23 13.1548 1927.63 11.6064C1928.56 10.5742 1931.59 11.9935 1931.59 13.4129Z" fill="currentColor"/>
<path d="M566.055 26.4451C563.958 41.2838 556.967 75.7355 552.656 92.6387C542.17 134.058 534.597 150.316 509.081 186.187C499.643 199.478 474.36 231.736 472.495 232.897C471.33 233.542 459.562 231.349 454.669 229.413C453.737 229.155 454.436 225.542 456.65 218.574C462.242 201.155 463.873 189.026 463.174 171.478C462.475 152.252 462.126 150.961 457.232 151.994C450.474 153.542 432.182 164.252 417.385 175.22C409.229 181.284 402.238 186.187 401.772 186.187C401.306 186.187 399.675 184.123 398.16 181.671C396.645 179.22 393.15 175.349 390.47 173.284C385.111 168.897 364.954 159.865 362.857 160.768C362.041 161.155 360.759 163.865 359.944 166.961C357.147 177.155 349.691 182.316 337.34 182.316C329.883 182.316 325.223 179.865 319.98 173.542C313.688 165.8 311.591 156.639 312.406 140.381C313.105 125.929 316.018 114.445 324.174 93.1549L329.184 80.2516L332.796 86.4452C337.573 94.7033 339.554 100.381 343.632 116.897C347.826 133.8 347.943 140.381 344.331 146.316C342.001 150.187 336.058 155.607 332.796 156.768C331.165 157.413 334.078 170.703 336.058 171.607C338.272 172.51 346.079 167.478 350.739 162.058C361.924 149.155 364.954 131.736 359.245 111.736C354.235 93.671 343.748 72.7677 330.699 54.7032L325.689 47.7354L321.611 56.6387C310.659 80.6387 299.59 112.897 296.327 130.316C293.415 146.187 293.881 155.22 298.541 165.284C307.513 185.026 325.106 204.252 334.194 204.252C336.991 204.252 345.38 201.155 356.914 195.736C373.576 188.123 375.673 187.478 378.586 188.897C382.664 190.703 394.548 204.51 397.694 211.091C398.976 213.671 400.374 215.865 400.84 215.865C401.189 215.865 407.248 210.316 414.239 203.478C427.638 190.445 444.882 176.768 446.28 178.187C446.746 178.703 444.532 192.123 441.27 208.123C438.124 224.123 435.561 237.671 435.561 238.445C435.561 239.865 476.573 253.413 480.651 253.284C482.399 253.284 488.691 245.8 503.371 226.445C514.557 211.736 525.975 196.252 529.004 191.994C544.967 168.768 558.249 140.768 566.289 113.413C570.716 98.1871 571.299 97.0258 572.114 100.51C573.978 107.477 574.561 129.929 573.163 144.252C571.299 162.961 566.988 186.445 562.56 201.671C554.87 227.865 536.927 262.317 522.014 279.349L517.819 284.252L519.217 301.929C520.033 311.736 521.198 326.059 521.897 333.93C523.295 349.801 522.829 354.704 519.334 359.607C511.178 371.091 481.35 367.091 469 352.768C463.174 346.059 462.708 343.349 466.67 338.446C469 335.607 471.097 334.446 473.661 334.317C477.156 334.188 489.273 338.833 492.419 341.413C493.817 342.575 494.4 347.478 493.118 347.478C492.769 347.478 488.574 345.413 483.681 342.962C478.787 340.51 474.709 338.575 474.593 338.704C474.593 338.962 473.544 340.639 472.495 342.575C471.447 344.51 470.515 346.317 470.515 346.704C470.515 347.607 482.982 353.801 490.555 356.639C498.361 359.478 502.206 358.446 505.003 352.51C508.032 345.93 507.1 341.542 501.624 335.349C495.682 328.768 486.827 324.768 476.107 323.478C465.971 322.317 459.912 324.381 455.368 330.446C449.892 337.801 448.843 343.607 451.989 350.317C456.067 359.22 458.863 362.704 466.32 368.123C482.049 379.349 495.915 383.865 515.372 384.123C526.907 384.252 528.655 383.994 532.616 381.284C543.102 373.93 546.714 355.349 544.034 321.155C543.219 311.091 542.287 301.155 541.937 298.833C541.471 295.349 542.17 293.929 547.879 286.962C561.395 270.704 577.241 239.994 585.047 214.962C600.194 166.832 600.077 109.413 584.698 58.1871C580.387 43.9935 570.366 19.2192 568.386 17.7999C567.803 17.4128 566.871 21.4128 566.055 26.4451Z" fill="currentColor"/>
<path d="M1719.88 241.026C1696.23 245.8 1683.53 254.962 1675.73 273.026C1669.78 286.704 1669.2 293.671 1669.67 347.607C1670.02 393.284 1670.25 396.381 1672.7 404.252C1679.34 426.446 1694.14 438.704 1720.7 444.381C1724.31 445.155 1751.46 446.059 1782.1 446.446C1871 447.478 1888.25 444.768 1904.91 426.317C1912.02 418.317 1915.28 411.736 1918.42 399.091C1920.29 391.736 1920.52 384.768 1920.52 342.317C1920.52 299.349 1920.29 293.026 1918.42 285.542C1912.48 262.187 1900.71 249.542 1878.34 242.703C1869.49 239.865 1867.27 239.865 1798.76 239.607C1744.24 239.349 1726.41 239.607 1719.88 241.026ZM1846.53 294.058C1853.53 297.671 1858.89 304.639 1861.22 313.413C1862.73 319.22 1862.96 325.413 1862.61 346.575C1862.15 375.607 1861.1 380.897 1853.76 387.736C1847.47 393.542 1841.41 394.059 1790.96 393.672C1745.63 393.284 1744.47 393.284 1739.69 390.446C1734.22 387.22 1731.07 382.833 1728.74 375.22C1726.53 368.123 1726.41 320.897 1728.74 312.51C1731.54 301.413 1738.76 294.575 1750.18 291.994C1752.86 291.349 1774.53 290.962 1798.18 291.091C1839.19 291.349 1841.52 291.478 1846.53 294.058Z" fill="currentColor"/>
<path d="M659.266 342.188V444.252H687.229H715.192V417.801V391.22L765.176 391.607C813.995 391.994 815.277 392.123 818.539 394.704C825.297 400.252 826.462 404.381 826.928 425.156L827.278 444.252H855.241H883.087L882.738 418.059C882.388 394.059 882.155 391.478 879.709 385.543C875.165 374.704 869.455 369.543 858.503 366.059C853.61 364.639 853.493 364.381 856.173 363.478C864.562 360.639 873.184 354.317 876.796 348.252C882.854 338.446 883.554 333.93 883.554 307.478C883.554 286.317 883.204 282.575 880.874 274.317C876.33 258.058 867.242 248.768 850.813 243.349C844.638 241.413 835.084 241.155 751.661 240.639L659.266 240.252V342.188ZM820.753 294.704C827.627 298.317 829.841 304.897 829.142 318.962C828.559 330.446 826.812 334.575 820.869 338.059C817.491 340.123 812.713 340.381 766.458 340.381H715.775L715.425 316.123L715.192 291.994H765.526C813.879 291.994 815.976 292.123 820.753 294.704Z" fill="currentColor"/>
<path d="M944.373 241.284C943.907 241.671 943.558 287.607 943.558 343.22V444.252H972.103H1000.65V405.543V366.833H1059.49H1118.33V405.543V444.252H1146.87H1175.42L1175.19 342.575L1174.84 241.026H1146.87H1118.91L1118.56 277.413L1118.33 313.93H1059.49H1000.65V277.155V240.381H972.919C957.656 240.381 944.723 240.768 944.373 241.284Z" fill="currentColor"/>
<path d="M1234.49 241.155C1234.03 241.671 1233.68 287.607 1233.68 343.22V444.252H1262.22H1290.77L1290.53 342.575L1290.18 241.026L1262.69 240.639C1247.66 240.51 1234.96 240.768 1234.49 241.155Z" fill="currentColor"/>
<path d="M1351 241.284C1350.54 241.671 1350.19 287.607 1350.19 343.22V444.252H1378.73H1407.28V370.575V296.768L1428.6 326.446C1440.25 342.833 1464.02 375.994 1481.27 400.123L1512.72 444.252H1556.18H1599.53V342.317V240.381H1571.56H1543.6L1543.37 314.059L1543.02 387.865L1490.24 314.059L1437.46 240.381H1394.58C1371.04 240.381 1351.35 240.768 1351 241.284Z" fill="currentColor"/>
<path d="M300.522 281.413C298.308 282.575 295.395 285.284 294.113 287.22C288.87 295.091 290.851 329.801 297.492 345.801C301.337 355.22 308.794 363.607 317.183 367.994C324.523 371.736 328.834 373.156 357.963 380.51C367.517 382.833 378.003 386.188 381.265 387.865C384.644 389.543 398.626 398.446 412.258 407.478C446.046 429.672 454.086 434.317 467.019 439.22C476.107 442.704 479.952 443.478 488.69 443.478C498.477 443.607 499.643 443.349 505.002 439.736C512.459 434.575 517.586 425.156 519.566 413.156C520.382 408.252 520.615 403.865 520.265 403.478C519.799 402.962 514.673 402.188 508.847 401.543C488.341 399.478 469.582 391.349 456.416 378.833L450.124 372.897L449.775 378.446C449.425 382.704 450.124 385.027 452.571 389.027C458.979 399.22 468.417 405.801 484.496 411.478C494.516 414.962 495.565 416.51 491.254 420.898C485.428 427.091 474.243 425.543 457.814 416.51C452.222 413.414 445.347 408.769 442.435 406.446C430.434 396.252 410.976 382.833 400.024 377.027C385.576 369.543 377.886 366.575 355.982 360.381C337.107 354.962 330.698 351.478 322.892 342.575C316.6 335.478 312.639 327.22 310.775 317.026C309.26 308.639 309.843 303.736 312.755 300.51C314.969 297.93 321.028 297.93 324.873 300.381C329.067 302.962 329.3 302.833 330.815 297.155C332.563 290.704 332.097 290.059 321.028 283.607C312.056 278.575 306.58 277.93 300.522 281.413Z" fill="currentColor"/>
<path d="M408.18 294.187C405.034 295.994 402.121 297.671 401.888 297.929C400.956 298.832 409.229 307.607 412.025 308.897C414.705 310.058 421.695 307.736 423.094 305.284C423.909 303.994 416.219 290.703 414.821 290.703C414.355 290.832 411.442 292.381 408.18 294.187Z" fill="currentColor"/>
</svg>
