<svg width="2817" height="500" viewBox="0 0 2817 500" fill="none" xmlns="http://www.w3.org/2000/svg">
<path fill-rule="evenodd" clip-rule="evenodd" d="M90.9715 1.37964C90.2251 3.61639 87.0239 14.9131 87.0239 15.3092C87.0239 15.505 92.0792 15.665 98.2579 15.665C115.288 15.665 121.402 19.7324 120.358 30.3667C120.095 33.051 116.057 48.5896 111.385 64.898C106.714 81.2064 96.6053 116.453 88.9238 143.223C81.2412 169.994 73.1547 198.369 70.9538 206.279C64.0903 230.954 62.8113 232 38.8259 232.556L22.5175 232.935L20.1801 240.127L17.8415 247.319L150.618 247.022L283.396 246.724L290.669 242.943C303.105 236.48 314.499 226.351 321.065 215.92C322.045 214.364 327.987 195.23 334.268 173.401C343.003 143.05 345.556 132.693 345.122 129.381C344.472 124.418 339.512 118.619 333.463 115.749L329.616 113.924L335.329 111.277C343.95 107.282 350.841 102.153 354.002 97.3772C356.665 93.3524 361.923 76.6367 368.601 50.9606C371.883 38.3391 371.75 32.3572 367.966 22.2902C364.939 14.2373 359.034 7.40395 351.805 3.59176L346.056 0.559465L218.75 0.260713C116.797 0.0223805 91.3497 0.245048 90.9715 1.37964ZM409.276 0.531499C409.276 0.82354 405.778 13.2851 401.503 28.225C393.672 55.5885 373.13 127.979 352.358 201.408C346.177 223.255 340.792 242.514 340.39 244.207L339.659 247.284H392.698H445.736L447.212 241.969C448.023 239.046 448.942 235.772 449.253 234.696C449.766 232.922 448.746 232.738 438.443 232.738C430.653 232.738 426.071 232.222 423.905 231.102C420.084 229.127 416.781 221.684 417.782 217.305C418.826 212.743 424.759 191.525 447.883 109.655C456.471 79.2539 465.841 46.0149 472.643 21.8191C475.411 11.9726 477.93 3.03454 478.239 1.95813C478.765 0.123082 476.613 0 444.038 0C424.919 0 409.276 0.239458 409.276 0.531499ZM529.744 0.839198C528.364 3.12182 525.769 13.8423 526.364 14.8046C526.809 15.5252 657.146 15.7803 903.145 15.5397C1255.4 15.1962 1279.47 15.2936 1282.78 17.0749C1287.39 19.5556 1290.99 24.2092 1290.99 27.6958C1290.99 29.2242 1288.15 40.107 1284.67 51.8815C1281.2 63.656 1277.02 77.8216 1275.39 83.3603L1272.42 93.4307L1196.95 93.9902C1128.58 94.497 1121.02 94.7331 1116.6 96.5011C1100.37 102.995 1084.52 117.781 1076.18 134.211C1074.79 136.947 1071.43 146.766 1068.72 156.03C1066.01 165.294 1061.45 180.679 1058.59 190.218C1052.08 211.903 1051.55 221.039 1056.26 230.06C1060.47 238.114 1064.28 242.289 1069.75 244.84C1074.11 246.871 1077.86 247.1 1117.16 247.728C1140.63 248.104 1199.35 248.075 1247.65 247.664L1335.46 246.918L1337.28 241.128C1338.29 237.944 1339.11 234.753 1339.11 234.038C1339.11 233.131 1335.51 232.738 1327.25 232.738H1315.39L1311.58 228.933C1305.58 222.93 1304.68 227.78 1325.28 154.972C1329.28 140.817 1335.77 117.907 1339.69 104.061C1359.93 32.647 1368.2 2.90251 1368.2 1.52511C1368.2 0.240578 1302.11 0 949.226 0C718.79 0 530.024 0.37708 529.744 0.839198ZM1815.26 5.79831C1814.31 8.98614 1813.53 12.259 1813.53 13.0714C1813.53 14.2899 1887.86 14.5461 2240.61 14.5461H2667.69L2672.55 16.8981C2677.35 19.2232 2680.7 23.6508 2680.7 27.6644C2680.7 29.344 2674.8 50.8711 2664.43 86.9969L2662.74 92.8712H2637.64H2612.54L2611.44 97.0672C2610.83 99.3756 2610 102.648 2609.59 104.34L2608.85 107.417H2633.59C2647.19 107.417 2658.33 107.657 2658.33 107.949C2658.33 108.242 2651.06 134.047 2642.19 165.294C2633.31 196.541 2624.73 226.891 2623.11 232.738C2621.5 238.584 2619.91 244.254 2619.59 245.337C2619.04 247.2 2621.86 247.29 2671.84 247.015L2724.67 246.724L2726.59 239.731L2728.5 232.738H2716.6C2707.63 232.738 2704.09 232.308 2702.21 230.991C2699.13 228.835 2696.37 223.676 2696.37 220.077C2696.37 218.591 2700.07 204.341 2704.6 188.411C2709.13 172.481 2716.02 148.118 2719.9 134.272C2723.79 120.425 2727.07 108.947 2727.2 108.766C2727.33 108.583 2746.64 108.468 2770.13 108.509L2812.83 108.584L2814.6 104.364C2815.58 102.043 2816.44 98.7456 2816.51 97.037L2816.66 93.9286L2774.5 93.9846C2751.31 94.0148 2732.12 93.6511 2731.85 93.1756C2731.57 92.7012 2734.25 82.2414 2737.79 69.9332C2751.32 22.8777 2756.79 3.2102 2756.79 1.63363C2756.79 0.203636 2698.08 0 2286.89 0H1816.98L1815.26 5.79831ZM1377.75 6.91724C1376.81 10.1051 1376.03 13.1262 1376.03 13.6308C1376.03 14.1343 1379.93 14.5495 1384.7 14.5528C1389.47 14.5562 1395.37 15.1112 1397.8 15.787C1403.47 17.3602 1409.6 23.3868 1409.6 27.3814C1409.6 29.024 1406.87 39.7747 1403.53 51.2705C1397.74 71.1696 1374.26 152.828 1356.33 215.394C1351.75 231.395 1347.77 245.116 1347.5 245.885C1347.11 246.992 1358.2 247.284 1400.55 247.284H1454.08L1455.74 240.689L1457.4 234.094L1445.25 233.678C1433.27 233.267 1433.06 233.213 1429.46 229.621C1423.85 224.009 1424.36 219.694 1435.03 182.386C1445.18 146.889 1463.31 82.5972 1477.46 31.8895C1479 26.3508 1480.77 20.1833 1481.38 18.1826L1482.5 14.5461H1510.46C1536.57 14.5461 1538.79 14.705 1544 16.9451C1549.81 19.4459 1552.82 23.314 1552.82 28.2798C1552.82 30.3767 1518.49 151.637 1495.29 231.45C1493.09 239.039 1491.28 245.707 1491.28 246.267C1491.28 246.862 1513.29 247.284 1544.39 247.284H1597.49L1598.72 242.528C1599.4 239.913 1600.21 236.891 1600.52 235.815C1601.03 234.051 1600.07 233.857 1590.91 233.857C1570.47 233.857 1565.8 227.446 1571.71 207.52C1573.77 200.573 1606.6 83.7654 1619.5 37.4842C1622.25 27.6376 1624.99 18.4176 1625.59 16.9966L1626.69 14.4107L1656.05 14.7587C1683.16 15.0787 1685.72 15.2801 1689.33 17.3748C1691.49 18.6224 1694.17 21.5047 1695.29 23.7784L1697.32 27.9129L1685.56 69.0638C1679.09 91.6964 1669.26 126.579 1663.71 146.58C1658.17 166.581 1651.85 189.239 1649.67 196.932C1647.5 204.624 1645.71 213.436 1645.7 216.513C1645.68 224.149 1648.74 232.065 1654.04 238.092C1662.02 247.159 1662.41 247.231 1704.08 247.259L1740.64 247.284L1742.4 241.237C1743.37 237.912 1744.16 234.89 1744.16 234.523C1744.16 234.156 1740.01 233.853 1734.93 233.85C1718.55 233.84 1712.83 230.472 1712.83 220.836C1712.83 218.143 1716.62 202.505 1721.27 186.02C1725.91 169.558 1734.95 137.461 1741.35 114.69C1747.76 91.9202 1754.83 66.996 1757.06 59.3033C1760.64 46.994 1761.07 44.1754 1760.69 35.8058C1760 20.4574 1752.91 8.44458 1741.48 3.25162C1737.06 1.24761 1730.07 1.16705 1558.18 1.14355L1379.47 1.11893L1377.75 6.91724ZM296.671 17.208C301.041 19.033 305.216 23.9608 305.212 27.2851C305.21 29.2444 294 69.4621 284.982 99.8646L282.742 107.417H225.605C171.646 107.417 168.508 107.309 169.218 105.459C169.632 104.383 175.029 85.3744 181.212 63.2196C187.394 41.0648 192.924 21.3022 193.5 19.3016L194.546 15.665H243.763C283.057 15.665 293.724 15.9761 296.671 17.208ZM538.607 95.2422C526.261 98.138 509.863 109.702 500.565 122.073C493.036 132.088 491.334 135.864 485.759 154.911C483.047 164.175 478.247 180.567 475.091 191.337C471.755 202.723 469.378 213.025 469.413 215.954C469.549 227.457 478.36 241.661 487.863 245.696C492.356 247.604 498.225 247.713 587.834 247.554C694.868 247.367 687.628 247.929 701.556 238.71C709.668 233.342 720.442 222.257 723.673 215.954C724.777 213.8 726.759 208.513 728.077 204.205C729.394 199.897 730.744 195.491 731.076 194.414C731.641 192.578 729.515 192.456 697.08 192.456H662.483L658.682 205.595C654.361 220.535 650.845 226.118 643.236 230.135L638.304 232.738H591.933H545.562L541.757 228.933C536.605 223.781 536.756 221.257 543.696 196.62C546.855 185.407 549.683 175.101 549.98 173.721L550.52 171.209L643.938 170.923L737.356 170.637L741.919 156.091C745.89 143.429 746.487 140.167 746.517 130.915C746.548 121.548 746.186 119.526 743.46 113.905C739.452 105.635 730.965 97.9311 723.383 95.6798C718.507 94.2319 705.215 94.0058 630.341 94.1021C581.669 94.1647 541.048 94.6705 538.607 95.2422ZM788.048 108.257C785.734 116.102 780.929 132.593 777.369 144.902C773.81 157.21 768.023 177.099 764.511 189.099C760.998 201.1 755.736 219.108 752.818 229.117L747.513 247.315L782.833 247.02L818.154 246.724L837.14 178.19L856.126 109.655H905.83C960.015 109.655 960.964 109.758 965.127 116.113C967.817 120.219 967.282 123.819 960.516 147.139C946.507 195.418 941.607 215.014 942.294 220.022C943.692 230.22 950.953 241.039 959.023 244.945C963.624 247.173 965.609 247.284 1000.9 247.284H1037.96L1039.71 241.237C1040.68 237.912 1041.47 234.639 1041.47 233.964C1041.47 233.156 1037.62 232.738 1030.17 232.738C1014.98 232.738 1010.14 229.777 1010.14 220.469C1010.14 218.703 1015.26 199.466 1021.51 177.722C1034.13 133.805 1034.85 128.989 1030.48 117.647C1027.4 109.665 1024.33 105.381 1018.46 100.887C1009.12 93.7351 1013.59 93.9902 897.664 93.9902H792.256L788.048 108.257ZM1819.84 97.8606C1810.76 101.596 1802.3 107.431 1794.52 115.337C1786.07 123.914 1780.77 132.69 1777.28 143.856C1763.83 186.993 1757.59 210.004 1757.59 216.49C1757.59 228.354 1767.39 242.987 1777.3 245.921C1780.76 246.945 1805.27 247.284 1875.87 247.284C1966.05 247.284 1970.09 247.196 1976.16 245.106C1984.81 242.133 1992.98 236.483 2001.69 227.458C2010.89 217.93 2012.5 214.713 2018.06 194.694C2020.53 185.77 2025.18 169.154 2028.37 157.769L2034.19 137.069L2032.96 128.225C2030.85 113.018 2024.09 101.737 2014.38 97.2351C2010.14 95.2658 2005.18 95.1583 1918.15 95.1606L1826.4 95.1617L1819.84 97.8606ZM2107.81 96.7271C2091.45 101.332 2076.03 113.257 2065.85 129.16C2061.89 135.362 2060.32 139.771 2050.34 172.875C2040.14 206.706 2038.3 214.921 2039.52 221.329C2041.71 232.884 2048.45 242.18 2057.44 246.047L2063.02 248.451L2159.09 248.147L2255.16 247.843L2263.51 243.604C2268.11 241.272 2275.15 236.402 2279.15 232.783C2292.01 221.179 2293.25 218.559 2304.36 179.588C2313.89 146.165 2314.25 144.494 2314.2 133.712C2314.14 119.702 2311.4 111.891 2303.77 104.027C2296.8 96.8345 2290.79 95.1091 2272.73 95.1091C2260.64 95.1091 2258.95 95.3407 2258.44 97.0672C2257.2 101.249 2241.85 155.428 2233.19 186.161C2228.19 203.93 2223.4 219.79 2222.56 221.407C2220.59 225.184 2215.72 229.684 2210.75 232.33C2207.12 234.267 2203.59 234.416 2161.41 234.416C2111.94 234.416 2111.53 234.367 2108.28 228.077C2107.41 226.393 2106.69 223.246 2106.69 221.082C2106.69 218.223 2130.22 130.504 2139.95 97.0672C2140.47 95.2736 2139.36 95.118 2126.69 95.2087C2119.07 95.2646 2110.58 95.9472 2107.81 96.7271ZM2352.86 95.7715C2352.86 96.1352 2350.04 106.079 2346.59 117.87C2343.15 129.661 2338.67 145.097 2336.64 152.175C2334.61 159.252 2331.17 171.084 2329 178.469C2326.82 185.854 2321.7 203.478 2317.62 217.632C2313.54 231.787 2309.95 244.249 2309.64 245.326C2309.1 247.161 2311.25 247.284 2343.78 247.284H2378.5L2380.7 239.731C2381.91 235.577 2387.76 214.555 2393.7 193.016C2399.64 171.476 2405.9 148.818 2407.62 142.664C2409.33 136.51 2412.16 126.313 2413.9 120.005L2417.07 108.536H2465.6C2512.74 108.536 2514.29 108.606 2519.71 110.935C2525.41 113.388 2528.53 117.299 2528.53 121.987C2528.53 123.292 2525.79 133.765 2522.44 145.261C2510.91 184.831 2503.91 211.953 2503.91 217.105C2503.91 224.573 2506.77 231.859 2512.07 237.871C2520.26 247.184 2520.52 247.231 2562.25 247.259L2598.76 247.284L2600.24 241.969C2601.06 239.046 2601.91 236.025 2602.13 235.255C2602.44 234.216 2600.15 233.855 2593.23 233.85C2576.88 233.84 2571.05 230.468 2571.05 221.02C2571.05 218.399 2576.03 199.036 2582.3 177.253C2593.1 139.771 2593.54 137.825 2593.13 129.236C2592.42 114.5 2584.99 102.758 2572.88 97.2597C2568.46 95.2512 2563.51 95.1572 2460.56 95.1337C2401.32 95.1203 2352.86 95.4068 2352.86 95.7715ZM669.375 109.777C674.635 111.237 681.176 117.379 681.176 120.859C681.176 123.611 673.686 150.491 672.06 153.573C671.097 155.399 667.146 155.531 613.442 155.531C581.769 155.531 555.856 155.126 555.856 154.632C555.856 152.612 564.036 124.556 565.381 121.963C568.125 116.674 575.713 111.422 583.27 109.582C588.86 108.222 664.386 108.392 669.375 109.777ZM1257.1 110.888C1262.57 113.533 1265.76 118.452 1264.93 122.95C1264.63 124.562 1260.28 140.23 1255.26 157.769C1250.24 175.308 1244.29 196.18 1242.03 204.15C1237.39 220.542 1234.08 225.976 1226.2 230.135C1221.27 232.738 1221.26 232.738 1175.16 232.738C1130.34 232.738 1128.97 232.673 1126.13 230.439C1124.52 229.176 1122.64 226.239 1121.94 223.913C1120.8 220.118 1121.27 217.444 1126.49 197.957C1134.74 167.193 1141.66 141.958 1144.84 131.076C1147.71 121.269 1150.97 116.603 1157.28 113.284C1165.49 108.966 1168.68 108.687 1210.92 108.611C1250.71 108.539 1252.42 108.624 1257.1 110.888ZM1961.32 110.958C1965.38 113.24 1969.07 118.618 1969.07 122.262C1969.07 123.164 1964.07 141.466 1957.95 162.934C1951.84 184.402 1945.99 205.362 1944.95 209.512C1942.43 219.559 1938.07 226.197 1931.39 230.122L1925.99 233.297L1882.35 233.654C1836.27 234.03 1832.68 233.722 1828.25 229C1823.54 223.99 1823.91 220.791 1833.1 186.791C1851.45 118.903 1851.21 119.598 1858.49 114.553C1866.84 108.766 1868.03 108.638 1914.09 108.586C1956.07 108.537 1957.11 108.59 1961.32 110.958ZM278.371 122.803C278.376 123.265 272.247 145.21 264.751 171.573C249.879 223.88 248.972 226.04 240.064 230.351C235.284 232.665 233.776 232.738 190.421 232.738C151.713 232.738 145.372 232.503 143.213 230.991C140.294 228.947 137.376 223.727 137.376 220.55C137.376 218.425 163.848 124.605 164.952 122.821C165.637 121.712 278.358 121.694 278.371 122.803ZM2.74937 283.468C1.71324 286.753 0.866211 290.026 0.866211 290.741C0.866211 291.728 326.828 292.041 1354.03 292.041H2707.19L2709.05 285.344C2710.08 281.661 2710.92 278.388 2710.92 278.071C2710.92 277.754 2102 277.495 1357.77 277.495H4.63142L2.74937 283.468ZM2172.16 341.554C2171.89 342.323 2170.94 347.232 2170.04 352.463C2168.32 362.502 2164.02 385.645 2154.98 433.586C2151.96 449.586 2149.71 463.055 2149.98 463.517C2150.66 464.686 2162.37 464.573 2163.11 463.389C2163.43 462.859 2164.95 455.935 2166.47 448.004C2172.53 416.387 2186.14 342.68 2186.14 341.456C2186.14 339.601 2172.8 339.694 2172.16 341.554ZM816.107 348.074C810.534 354.695 813.951 363.652 822.047 363.652C827.81 363.652 831.113 360.058 831.113 353.79C831.113 344.623 821.948 341.132 816.107 348.074ZM1648.52 347.148C1641.72 353.056 1644.86 363.652 1653.41 363.652C1659.2 363.652 1662.99 359.592 1662.99 353.4C1662.99 345.386 1654.68 341.795 1648.52 347.148ZM1986.25 345.725C1975.61 347.989 1964.67 355.95 1960.7 364.316C1952.57 381.448 1958.29 396.062 1977.79 407.998C1988.77 414.717 1992.34 417.952 1994.92 423.515C2001.58 437.9 1989.43 453.201 1971.38 453.154C1965.43 453.138 1956.68 450.985 1951.34 448.223C1949.28 447.159 1947.46 446.451 1947.29 446.65C1947.12 446.849 1945.93 449.41 1944.65 452.34L1942.33 457.666L1944.8 459.291C1949.86 462.603 1957.6 464.599 1967.63 465.18C1976.39 465.687 1979.15 465.39 1985.91 463.216C2004.85 457.127 2015.28 438.471 2009.96 420.184C2008.45 414.969 2006.79 412.401 2001.71 407.356C1998.22 403.886 1992.5 399.447 1989 397.49C1979.9 392.393 1975.08 387.772 1972.89 382.025C1970.37 375.424 1972.07 369.205 1977.94 363.611C1986.41 355.529 1997.15 354.992 2012.84 361.867C2014.6 362.638 2014.89 362.156 2019.04 351.786C2020.62 347.84 1996.9 343.457 1986.25 345.725ZM2403.72 347.378C2400.17 350.924 2399.91 358.116 2403.21 361.415C2405.41 363.617 2410.24 364.32 2413.79 362.958C2416.14 362.054 2418.88 356.721 2418.88 353.027C2418.88 348.996 2414.22 344.631 2409.92 344.631C2407.74 344.631 2405.45 345.646 2403.72 347.378ZM169.97 354.421C167.995 365.396 150.867 457.645 150.129 461.279L149.506 464.356H156.243C159.948 464.356 163.244 463.928 163.568 463.404C163.891 462.88 165.449 455.454 167.027 446.9C168.607 438.347 171.677 421.781 173.847 410.088C176.018 398.395 179.267 380.772 181.068 370.926C182.869 361.079 184.64 351.638 185.005 349.946L185.668 346.868H178.499H171.331L169.97 354.421ZM1112.11 350.505C1111.03 353.958 1084.01 460.325 1083.62 462.678C1083.52 463.293 1086.3 463.947 1089.81 464.13L1096.18 464.465L1097.32 460.214C1101.61 444.176 1115.5 386.481 1117.67 375.681C1120.4 362.043 1122.03 358.972 1122.03 367.449C1122.03 374.712 1124.84 399.644 1129.28 431.907C1131.44 447.6 1133.21 461.07 1133.21 461.839C1133.22 462.766 1135.07 463.237 1138.72 463.237H1144.21L1163 427.711C1173.34 408.173 1184.94 385.458 1188.78 377.236C1196.03 361.711 1197.62 358.921 1196.55 363.655C1195.23 369.473 1192.53 387.372 1189.7 408.969C1188.09 421.277 1185.82 438.356 1184.67 446.922C1183.51 455.488 1182.82 462.915 1183.13 463.426C1183.45 463.938 1186.44 464.356 1189.77 464.356C1195.16 464.356 1195.9 464.074 1196.38 461.839C1197.01 458.835 1210.46 350.286 1210.44 348.267C1210.43 347.26 1207.84 346.874 1201.2 346.888L1191.97 346.908L1172.32 384.651C1161.52 405.411 1150.69 426.797 1148.27 432.177C1145.84 437.556 1143.48 441.962 1143.01 441.968C1142.55 441.973 1142.17 439.585 1142.17 436.663C1142.15 430.569 1140.4 415.34 1135.51 378.758C1130.68 342.711 1132.44 346.868 1122.03 346.868H1113.26L1112.11 350.505ZM752.109 362.163L746.397 363.849L745.016 371.583L743.632 379.318H737.711C731.304 379.318 730.459 380.257 730.425 387.43C730.41 390.327 730.7 390.507 735.378 390.507C738.112 390.507 740.553 390.884 740.804 391.346C741.056 391.808 739.097 403.514 736.451 417.361C733.806 431.208 731.616 445.063 731.585 448.15C731.47 459.463 737.871 465.489 749.972 465.458C753.675 465.448 757.389 465.007 758.224 464.477C759.06 463.948 760.007 461.186 760.328 458.341L760.911 453.167H755.235C748.683 453.167 746.074 450.723 746.074 444.587C746.074 440.469 754.548 393.304 755.591 391.617C755.968 391.006 760.497 390.507 765.655 390.507H775.034L776.034 385.751C776.584 383.136 776.836 380.619 776.593 380.157C776.351 379.695 771.893 379.318 766.687 379.318C757.447 379.318 757.234 379.257 757.793 376.8C761.963 358.437 762.247 359.17 752.109 362.163ZM1583.82 362.102C1577.95 363.906 1578.12 363.655 1576.31 372.884L1575.04 379.318H1569.59C1563.43 379.318 1563.25 379.473 1562.23 385.858L1561.49 390.507H1567.23C1570.38 390.507 1572.96 390.728 1572.96 391C1572.96 391.271 1570.91 402.223 1568.39 415.337C1563.15 442.723 1562.42 453.357 1565.47 458.022C1568.72 462.984 1573.84 465.468 1580.8 465.456C1591.16 465.437 1591.99 464.935 1591.99 458.631V453.167H1586.42C1581.7 453.167 1580.56 452.735 1579 450.349C1576.73 446.876 1577.11 443.088 1582.82 412.885L1586.95 391.066L1596.68 390.744C1607.2 390.395 1606.64 390.774 1608.22 382.954L1608.95 379.318H1599.35C1588.37 379.318 1588.92 380.103 1591.29 367.848C1592.97 359.194 1593.06 359.263 1583.82 362.102ZM2339.55 362.06C2336.84 362.91 2334.37 363.87 2334.04 364.193C2333.72 364.517 2332.89 367.927 2332.2 371.77L2330.94 378.758L2324.84 379.318C2319.14 379.84 2318.7 380.096 2318.03 383.234C2316.51 390.382 2316.59 390.507 2322.65 390.507C2326.38 390.507 2328.24 390.972 2328.24 391.907C2328.24 392.676 2326.23 403.879 2323.77 416.802C2319.16 440.975 2318.28 452.784 2320.72 457.609C2323.3 462.708 2328.93 465.475 2336.71 465.475C2346.68 465.475 2347.26 465.099 2347.26 458.642V453.167H2342.31C2334.79 453.167 2333.31 451.025 2333.8 440.859C2333.98 437.033 2341.17 396.348 2342.34 392.465C2342.85 390.793 2344.38 390.507 2352.79 390.507H2362.64L2363.33 386.311C2364.53 379.065 2364.85 379.318 2354.54 379.318C2349.27 379.318 2345.03 378.843 2345.03 378.253C2345.03 377.311 2346.38 370.023 2347.9 362.813C2348.52 359.853 2347.02 359.716 2339.55 362.06ZM256.791 378.254C249.916 379.395 243.082 383.435 237.153 389.868C234.56 392.681 232.288 394.983 232.103 394.983C231.919 394.983 232.144 392.34 232.603 389.108C234.068 378.829 234.324 379.318 227.471 379.318C221.994 379.318 221.289 379.586 220.877 381.835C216.586 405.27 206.702 461.913 206.723 462.958C206.74 463.904 208.746 464.356 212.927 464.356C220.527 464.356 220.196 465.002 224.123 442.537C229.437 412.151 232.07 405.295 241.779 396.566C250.791 388.463 259.952 387.482 265.463 394.031C267.891 396.917 268.291 398.487 268.291 405.131C268.291 409.388 267.062 419.294 265.56 427.144C261.151 450.203 259.339 460.49 259.339 462.485C259.339 464.008 260.489 464.356 265.521 464.356C270.907 464.356 271.824 464.032 272.647 461.839C273.795 458.776 281.56 417.358 282.848 407.437C284.841 392.07 279.48 381.129 268.782 378.729C262.8 377.386 262.178 377.362 256.791 378.254ZM462.108 378.385C438.036 382.151 419.355 411.018 423.828 437.538C427.005 456.375 439.391 466.366 458.246 465.3C481.74 463.972 501.028 440.111 501.028 412.376C501.028 389.285 484.532 374.876 462.108 378.385ZM671.106 377.96C642.342 379.797 618.243 408.602 619.887 439.18C620.578 452.05 624.581 458.98 634.108 463.801C639.992 466.779 651.653 465.636 658.482 461.415C663.127 458.543 670.375 450.767 674.086 444.675C675.128 442.966 675.247 443.882 674.678 449.251C674.288 452.943 673.953 457.727 673.935 459.881L673.903 463.797H680.057H686.211L686.477 458.762C687.242 444.326 689.476 427.923 693.488 407.291C695.94 394.675 697.95 383.521 697.953 382.506C697.963 379.55 683.79 377.15 671.106 377.96ZM983.823 378.291C960.256 381.308 940.66 412.57 945.257 439.819C946.907 449.607 951.541 456.848 959.145 461.526C964.432 464.778 965.157 464.913 977.048 464.852C987.252 464.799 990.602 464.332 996.006 462.206L1002.57 459.622L1002.01 454.661C1001.7 451.932 1001.24 449.485 1000.98 449.222C1000.71 448.96 997.945 449.714 994.827 450.899C973.689 458.931 958.671 450.973 958.671 431.741V426.313L967.902 426.304C984.993 426.288 999.619 422.361 1006.65 415.898C1013.34 409.747 1015.3 398.285 1011.13 389.668C1006.88 380.902 996.671 376.648 983.823 378.291ZM1276.85 378.321C1263.65 379.98 1250.22 389.969 1243.65 403.019C1234.12 421.949 1235.21 445.501 1246.12 456.41C1252.88 463.165 1257.63 464.916 1269.2 464.916C1278.34 464.916 1279.99 464.57 1286.73 461.252C1303.55 452.973 1314.49 433.747 1314.49 412.474C1314.49 389.345 1299.24 375.506 1276.85 378.321ZM1499.99 378.334C1492.3 379.481 1484.98 383.564 1479.31 389.875L1474.32 395.423L1475.11 387.37L1475.91 379.318H1469.61C1466.14 379.318 1463.31 379.695 1463.31 380.157C1463.31 381.892 1458.84 407.692 1453.89 434.527C1451.07 449.815 1448.76 462.78 1448.76 463.339C1448.76 463.899 1451.75 464.356 1455.4 464.356C1463.2 464.356 1462.18 466.272 1466.12 444.216C1470.39 420.267 1471.93 414.373 1475.81 407.106C1480.05 399.136 1485.79 393.746 1492.92 391.024C1497.72 389.188 1498.71 389.144 1502.85 390.585C1506.72 391.933 1507.79 393.016 1509.62 397.459C1511.75 402.601 1511.75 403.03 1509.85 414.802C1508.77 421.441 1506.42 434.595 1504.62 444.033C1502.82 453.471 1501.35 461.906 1501.35 462.775C1501.35 463.961 1503.02 464.356 1508.04 464.356C1514.06 464.356 1514.8 464.103 1515.32 461.839C1516.24 457.89 1521.25 430.559 1523.93 414.91C1526.05 402.485 1526.18 399.93 1524.96 394.476C1522.16 381.973 1513.43 376.33 1499.99 378.334ZM1836.47 378.391C1821.01 380.445 1805.12 392.516 1798.06 407.575C1784.55 436.351 1793.68 463.461 1816.88 463.461C1825.61 463.461 1833.43 459.891 1839.93 452.942L1845.15 447.363L1844.35 452.705C1841.94 468.783 1835.29 480.99 1826.48 485.526C1818.22 489.774 1805.33 489.204 1793.36 484.064C1792.09 483.517 1791.17 484.646 1789.74 488.511C1788.68 491.359 1788.06 494.092 1788.37 494.584C1789.46 496.346 1799.7 499.121 1807.59 499.794C1822.23 501.04 1836.45 496.556 1843.57 488.443C1852.15 478.664 1854.67 470.307 1863.3 422.956C1866.72 404.186 1869.77 387.676 1870.09 386.267C1870.56 384.164 1869.96 383.413 1866.73 382.062C1858.47 378.611 1846.1 377.111 1836.47 378.391ZM2083.33 378.385C2061.7 381.818 2044.76 404.28 2044.64 429.669C2044.59 442.355 2047.14 449.669 2054.05 456.577C2060.83 463.356 2068.04 465.863 2079.13 465.304C2098.96 464.303 2115.38 448.608 2120.81 425.473C2127.66 396.257 2110.06 374.141 2083.33 378.385ZM2478.43 378.383C2456.34 381.841 2439.74 404.329 2439.68 430.893C2439.66 439.51 2440.03 441.278 2443.3 447.917C2449.61 460.72 2459.07 466.063 2474.11 465.304C2489.92 464.505 2503.5 454.638 2511.24 438.319C2527.19 404.714 2510.06 373.434 2478.43 378.383ZM2595.58 378.313C2588.26 379.406 2581.62 383.141 2575.23 389.775C2569.84 395.363 2569.68 395.438 2570.3 392.185C2570.65 390.339 2571.26 386.662 2571.66 384.014L2572.39 379.199L2565.95 379.538L2559.51 379.877L2556.94 394.983C2555.54 403.291 2552.18 422.096 2549.49 436.775C2545.89 456.376 2544.95 463.598 2545.94 463.976C2546.67 464.259 2549.73 464.334 2552.73 464.144L2558.18 463.797L2560.09 454.286C2561.13 449.055 2563.28 438.083 2564.85 429.902C2566.71 420.23 2568.84 412.796 2570.94 408.642C2579.27 392.22 2595.42 384.703 2603.62 393.436C2607.97 398.058 2607.63 407.146 2602.01 436.942C2599.34 451.097 2597.35 463.055 2597.59 463.517C2598.18 464.634 2609.93 464.6 2610.62 463.479C2612.13 461.045 2621.4 407.085 2621.4 400.766C2621.4 384.664 2611.38 375.953 2595.58 378.313ZM2684.6 378.298C2674.37 379.595 2665.84 385.645 2662.3 394.108C2660.29 398.918 2660.04 406.868 2661.75 411.414C2663.3 415.528 2670 422.366 2675.83 425.788C2682.8 429.871 2686.3 434.588 2686.3 439.881C2686.3 452.351 2674.23 457.768 2659.18 452.049C2655.94 450.818 2653.23 449.811 2653.16 449.811C2653.09 449.81 2652.15 452.133 2651.06 454.972C2648.78 460.946 2648.93 461.144 2657.69 463.801C2679.72 470.486 2700.85 458.156 2700.85 438.612C2700.85 428.881 2696.28 422.531 2683.32 414.234C2672.42 407.262 2671.33 397.738 2680.67 391.295C2684.13 388.912 2693.83 388.765 2699.21 391.013L2703.1 392.637L2704.77 388.638C2705.69 386.438 2706.44 383.963 2706.44 383.136C2706.44 379.612 2694.72 377.015 2684.6 378.298ZM356.686 381.079C353.154 382.719 348.256 386.357 345.189 389.617L339.845 395.297L340.576 388.706C340.977 385.081 341.368 381.611 341.443 380.996C341.52 380.369 338.875 379.877 335.426 379.877H329.272L328.281 386.031C327.735 389.416 324.376 408.046 320.814 427.432C317.253 446.817 314.732 463.084 315.212 463.581C315.692 464.078 318.8 464.329 322.119 464.14L328.153 463.797L329.61 455.964C337.848 411.694 339.328 407.065 348.15 397.989C350.832 395.229 355.256 392.194 358.284 391.038C363.131 389.186 364.108 389.142 368.284 390.585C373.88 392.52 376.843 397.565 376.783 405.053C376.762 407.822 374.538 421.921 371.841 436.383C369.144 450.845 367.328 463.084 367.806 463.581C368.284 464.078 371.38 464.329 374.686 464.14L380.699 463.797L384.85 441.978C392.468 401.923 392.838 394.673 387.654 386.979C386.285 384.948 383.467 382.142 381.39 380.743C375.907 377.048 365.047 377.195 356.686 381.079ZM1725.39 380.909C1722.15 382.452 1716.93 386.375 1713.79 389.627C1708.29 395.328 1708.11 395.421 1708.72 392.185C1709.07 390.339 1709.68 386.662 1710.08 384.014L1710.81 379.199L1704.37 379.538L1697.93 379.877L1695.37 394.983C1693.96 403.291 1690.6 422.096 1687.91 436.775C1684.32 456.376 1683.37 463.598 1684.36 463.976C1685.1 464.259 1688.15 464.334 1691.15 464.144L1696.61 463.797L1698.96 452.048C1700.25 445.586 1702.41 434.552 1703.75 427.528C1705.38 418.963 1707.32 412.626 1709.63 408.291C1716.23 395.898 1726.55 388.484 1735.16 389.94C1745.05 391.61 1747.14 399.956 1743.16 421.837C1741.87 428.914 1739.64 441.125 1738.2 448.973C1736.76 456.82 1735.84 463.491 1736.14 463.799C1737.09 464.75 1748.47 464.411 1749.09 463.413C1749.41 462.894 1752 449.947 1754.86 434.642C1760.83 402.626 1761.16 393.655 1756.62 387.049C1752.01 380.344 1748.98 378.801 1739.68 378.435C1732.61 378.156 1730.36 378.545 1725.39 380.909ZM531.239 381.403C531.239 384.267 544.685 462.362 545.368 463.468C546.268 464.922 557.71 464.493 558.942 462.958C560.32 461.24 602.439 383.929 603.494 381.18C604.179 379.397 603.516 379.24 596.558 379.542L588.864 379.877L571.925 413.543L554.985 447.21L553.787 439.279C553.128 434.917 551.006 420.27 549.072 406.731C547.138 393.192 545.371 381.486 545.145 380.716C544.877 379.798 542.423 379.318 537.988 379.318C532.15 379.318 531.239 379.598 531.239 381.403ZM810.428 381.835C809.268 386.812 795.352 462.118 795.324 463.571C795.315 464.061 798.454 464.313 802.3 464.13L809.294 463.797L812.295 447.572C813.945 438.649 817.139 421.529 819.393 409.529C821.647 397.528 823.761 385.822 824.093 383.513L824.693 379.318H817.854C811.681 379.318 810.957 379.563 810.428 381.835ZM855.729 380.892C855.729 383.503 869.241 462.47 869.859 463.47C870.161 463.958 873.141 464.356 876.481 464.356C882.292 464.356 882.669 464.174 885.159 460.16C888.528 454.732 926.962 383.866 927.973 381.221C928.672 379.387 928.065 379.238 921.094 379.542L913.447 379.877L896.399 413.682C879.514 447.163 879.345 447.441 878.718 442.774C878.368 440.182 877.026 430.76 875.732 421.837C874.439 412.913 872.547 399.822 871.527 392.745L869.674 379.877L862.701 379.544C857.096 379.276 855.729 379.54 855.729 380.892ZM1355.89 380.279C1355.89 380.808 1353.63 393.187 1350.86 407.789C1344.05 443.665 1344.37 453.043 1352.67 460.645C1361.75 468.973 1377.56 466.804 1389.7 455.565L1396.49 449.274L1395.68 456.816L1394.88 464.356H1400.49C1403.58 464.356 1406.36 463.948 1406.67 463.448C1406.98 462.949 1408.01 457.705 1408.96 451.797C1409.91 445.889 1413.22 427.707 1416.3 411.391C1419.38 395.074 1421.91 381.184 1421.91 380.521C1421.91 379.798 1419.26 379.318 1415.27 379.318C1409.92 379.318 1408.52 379.698 1408.04 381.276C1407.71 382.352 1405.63 392.987 1403.42 404.907C1398.73 430.173 1396.73 436.131 1390.47 443.414C1384.94 449.843 1378.86 453.167 1372.65 453.167C1366.89 453.167 1364.21 451.756 1362.06 447.595C1359.39 442.44 1360.09 433.303 1365.25 405.878C1367.88 391.869 1369.79 380.162 1369.49 379.862C1368.53 378.897 1355.89 379.284 1355.89 380.279ZM1641.35 385.192C1640.72 388.423 1638.64 399.626 1636.72 410.088C1634.8 420.55 1631.8 436.656 1630.05 445.88C1628.3 455.104 1627.11 463.034 1627.4 463.504C1628.08 464.607 1639.81 464.619 1640.49 463.517C1641.24 462.299 1655.76 384.493 1655.76 381.684C1655.76 379.54 1655.14 379.318 1649.13 379.318H1642.5L1641.35 385.192ZM2218.69 385.192C2207.76 440.107 2207.25 450.548 2215.1 459.179C2224.37 469.361 2243.37 466.838 2255.3 453.841L2260.13 448.583L2259.35 456.533L2258.57 464.484L2264.59 464.14L2270.62 463.797L2272.04 454.845C2273.8 443.772 2279.32 413.615 2282.98 395.083C2284.49 387.447 2285.72 380.751 2285.72 380.205C2285.72 379.658 2282.59 379.361 2278.77 379.544L2271.81 379.877L2270.98 383.793C2270.52 385.947 2268.4 397.105 2266.26 408.589C2261.33 435.053 2257.54 443.085 2246.75 449.928C2239.55 454.5 2232.04 454.487 2227.45 449.896C2222.26 444.703 2222.59 438.899 2230.4 398.052C2234.21 378.157 2234.45 379.318 2226.5 379.318H2219.86L2218.69 385.192ZM2397.14 383.513C2395.89 390.74 2389.76 424.005 2386.98 438.621C2385.52 446.314 2383.97 455.25 2383.55 458.482L2382.78 464.356H2389.64C2393.41 464.356 2396.5 464.13 2396.5 463.854C2396.5 463.578 2397.52 457.912 2398.77 451.266C2400.02 444.618 2402.02 433.893 2403.21 427.432C2404.41 420.97 2406.91 407.666 2408.77 397.866C2410.64 388.066 2412.16 379.884 2412.16 379.683C2412.16 379.482 2408.94 379.318 2405.01 379.318H2397.86L2397.14 383.513ZM475.216 391.026C483.932 395.534 487.835 406.496 485.533 420.004C482.206 439.535 470.008 454.343 457.316 454.261C442.881 454.17 434.923 440.044 438.745 421.301C442.76 401.618 453.602 389.482 467.236 389.412C469.882 389.399 473.472 390.125 475.216 391.026ZM681.837 390.929C682.656 393.062 677.19 420.523 674.58 427.393C669.622 440.44 660.58 450.879 652.305 453.108C634.926 457.787 628.33 435.38 640.206 412.006C645.424 401.735 653.387 394.419 663.141 390.933C668.761 388.925 681.067 388.921 681.837 390.929ZM996.372 392.088C998.943 394.3 999.512 395.696 999.512 399.803C999.512 409.562 991.74 413.979 973.009 414.867C964.188 415.284 960.909 415.085 960.909 414.131C960.909 411.351 967.599 399.85 971.157 396.512C976.681 391.33 980.925 389.483 987.421 389.433C991.992 389.398 993.903 389.964 996.372 392.088ZM1288.68 391.026C1299.43 396.585 1302.78 412.874 1296.73 430.107C1287.83 455.428 1263.96 462.48 1253.9 442.761C1251.91 438.861 1251.65 436.738 1252.07 427.517C1252.47 418.587 1253.11 415.584 1255.92 409.495C1257.78 405.476 1260.9 400.362 1262.86 398.131C1269.7 390.341 1281.22 387.17 1288.68 391.026ZM1850.74 390.566C1853.05 391.206 1854.93 392.133 1854.93 392.623C1854.93 396.956 1847.63 427.97 1845.52 432.566C1842.26 439.683 1834.44 448.464 1829.51 450.535C1821.13 454.058 1812.15 451.197 1808.69 443.899C1806.03 438.297 1806.23 425.781 1809.12 417.046C1815.99 396.272 1832.79 385.581 1850.74 390.566ZM2098.63 392.387C2108.67 399.833 2110.12 418.143 2102.01 435.133C2096.31 447.082 2086.96 454.286 2077.15 454.286C2072.06 454.286 2065.61 450.186 2062.61 445.057C2053.39 429.262 2062.74 399.179 2079.28 391.413C2085.02 388.721 2094.31 389.189 2098.63 392.387ZM2490.93 390.948C2499.69 394.608 2504.03 406.266 2501.76 420.067C2499.36 434.629 2491.52 447.486 2482.31 451.943C2465.58 460.044 2450.81 445.188 2454.4 423.862C2458.57 399.02 2474.95 384.269 2490.93 390.948Z" fill="currentColor"/>
</svg>
