<svg width="1768" height="500" viewBox="0 0 1768 500" fill="none" xmlns="http://www.w3.org/2000/svg">
<path fill-rule="evenodd" clip-rule="evenodd" d="M0.634033 186.158V372.316L194.549 371.493C400.451 370.618 396.961 370.792 420.939 360.215C439.304 352.115 450.205 341.661 459.139 323.587L467.091 307.503V272.326C467.091 239.804 466.709 236.299 462.021 225.929C453.363 206.767 431.026 190.727 406.05 185.731C402.805 185.083 400.151 183.924 400.151 183.159C400.151 182.394 404.979 179.893 410.883 177.604C427.669 171.089 440.783 160.092 447.581 146.831C453.544 135.192 453.567 134.994 452.86 100.079C452.197 67.461 451.757 64.1777 446.554 53.0125C435.844 30.0275 415.052 15.2688 380.488 6.11813C363.24 1.54919 360.082 1.46419 181.798 0.737407L0.634033 0V186.158ZM606.414 2.44384C575.309 6.61964 549.691 18.7539 534.319 36.5919C525.308 47.0516 515.569 68.5065 511.2 87.5282C508.137 100.859 507.576 115.788 507.528 185.083C507.477 255.999 507.978 269.304 511.302 284.962C521.134 331.282 543.323 355.358 587.159 367.273C599.778 370.703 614.473 371.028 757.166 371.028C929.772 371.028 924.865 371.372 953.998 357.179C978.148 345.412 994.588 320.961 1001.78 286.105C1005.23 269.393 1005.75 256.645 1005.77 187.973C1005.81 99.2268 1004.28 84.8038 992.04 58.3146C979.308 30.7522 960.182 15.6959 925.716 6.09686C909.488 1.57679 905.82 1.46206 764.604 1.03917C685.126 0.801156 613.939 1.4323 606.414 2.44384ZM1050.43 186.145V372.091H1241.69H1432.94V328.526V284.962H1294.81H1156.68V142.581V0.199746H1103.56H1050.43V186.145ZM1324.57 43.7641V87.3284H1404.26H1483.95V229.709V372.091H1541.32H1598.7V229.709V87.3284H1679.46H1760.21V43.7641V0.199746H1542.39H1324.57V43.7641ZM769.041 37.9201L778.676 48.0143L777.459 62.4712C776.789 70.4233 774.751 79.2063 772.928 81.9859C770.32 85.9662 770.129 88.0042 772.027 91.551C775.935 98.8528 777.527 147.991 774.063 154.462C771.789 158.712 771.721 160.704 773.738 163.934C775.142 166.184 776.292 170.906 776.292 174.427C776.292 177.951 777.248 180.832 778.417 180.832C779.675 180.832 780.542 188.614 780.542 199.931V219.027L787.449 221.921C811.273 231.905 823.044 255.563 823.044 293.462C823.044 318.768 819.812 330.696 810.406 340.102C799.917 350.591 789.586 352.965 754.416 352.965C716.097 352.965 704.247 348.581 695.071 331.004C691.067 323.335 690.434 318.598 690.338 295.587C690.27 279.617 691.337 265.209 693.012 259.461C697.317 244.681 708.427 230.97 720.804 225.162L731.491 220.147L731.578 200.489C731.629 188.859 732.532 180.832 733.79 180.832C734.959 180.832 735.915 177.951 735.915 174.427C735.915 170.906 737.065 166.184 738.47 163.934C740.486 160.706 740.418 158.714 738.153 154.479C734.613 147.864 736.183 102.145 740.255 93.2596C742.458 88.4526 742.331 86.6442 739.483 82.2983C737.609 79.4358 735.437 70.8802 734.659 63.2873L733.244 49.4785L743.37 38.6511C748.94 32.6987 754.826 27.8259 756.452 27.8259C758.078 27.8259 763.743 32.3672 769.041 37.9201ZM333.14 96.0711C342.691 106.497 344.525 117.819 338.77 130.833C335.28 138.717 332.596 141.435 324.972 144.81C315.919 148.814 311.04 148.973 213.853 148.446L112.201 147.894L111.61 117.554L111.022 87.2137L218.562 87.8024L326.102 88.391L333.14 96.0711ZM342.533 226.522C357.607 235.424 361.963 257.2 351.584 271.774C342.191 284.966 340.551 285.125 220.581 284.482L112.201 283.899L111.606 255.317C111.277 239.598 111.502 225.453 112.104 223.885C113.005 221.536 132.868 221.141 224.268 221.651C330.922 222.246 335.623 222.44 342.533 226.522ZM0.634033 466.657V499.596H17.3989C38.8049 499.596 43.6756 496.368 43.9859 481.968C44.1261 475.444 43.0211 470.945 40.709 468.633C37.5384 465.463 37.5192 464.617 40.4965 459.432C42.7937 455.426 43.3271 451.339 42.2773 445.748C40.4242 435.871 35.6109 433.718 15.3715 433.718H0.634033V466.657ZM54.6942 436.477C54.1119 437.994 53.9037 452.578 54.2288 468.884C54.724 493.559 55.3594 498.533 58.0115 498.533C60.4022 498.533 61.3585 495.475 61.8366 486.314L62.4742 474.095H75.9536C91.1756 474.095 92.0129 474.934 92.0129 490.207C92.0129 497.135 92.8481 499.596 95.2005 499.596C99.8736 499.596 99.7886 474.499 95.1092 472.703C92.1638 471.572 92.1617 471.079 95.0837 467.849C104.245 457.725 99.7057 437.488 87.7372 435.095C75.5371 432.653 55.846 433.478 54.6942 436.477ZM107.821 436.477C107.239 437.994 107.031 452.578 107.356 468.884L107.951 498.533L126.546 499.148C142.133 499.662 145.14 499.233 145.14 496.491C145.14 493.858 142.237 493.221 130.265 493.221H115.389V481.533V469.845H129.202C140.063 469.845 143.015 469.163 143.015 466.657C143.015 464.152 140.063 463.469 129.202 463.469H115.389V452.844V442.218H130.265C143.723 442.218 145.14 441.815 145.14 437.968C145.14 434.05 143.723 433.718 127.011 433.718C114.107 433.718 108.576 434.513 107.821 436.477ZM161.127 463.882C155.655 480.602 150.808 495.48 150.351 496.94C148.383 503.257 156.006 498.884 158.858 492.06L162.007 484.523L176.345 485.154C190.511 485.774 190.708 485.868 192.659 492.689C193.743 496.489 195.928 499.596 197.513 499.596C199.096 499.596 200.393 498.854 200.393 497.947C200.393 497.039 195.77 482.455 190.122 465.539C181.651 440.17 179.084 434.666 175.463 434.13C171.57 433.552 169.948 436.916 161.127 463.882ZM208.893 466.657C208.893 494.519 209.384 499.596 212.081 499.596C214.609 499.596 215.268 496.527 215.268 484.72C215.268 474.265 216.057 469.828 217.924 469.792C219.387 469.762 226.827 476.566 234.46 484.912C243.587 494.891 249.61 499.821 252.047 499.309C254.965 498.699 252.797 495.178 241.887 482.797C234.26 474.142 228.019 466.462 228.019 465.726C228.019 464.993 233.278 458.057 239.707 450.313C252.24 435.212 253.022 433.718 248.403 433.718C246.756 433.718 239.824 440.395 232.996 448.553C226.168 456.714 219.387 463.408 217.924 463.429C216.048 463.457 215.268 459.098 215.268 448.594C215.268 436.787 214.609 433.718 212.081 433.718C209.384 433.718 208.893 438.795 208.893 466.657ZM256.707 435.843C254.272 439.783 257.972 442.218 266.396 442.218H274.771V470.907C274.771 494.991 275.283 499.596 277.958 499.596C280.634 499.596 281.146 494.991 281.146 470.907V442.218H290.709C298.854 442.218 300.272 441.589 300.272 437.968C300.272 434.003 298.854 433.718 279.146 433.718C267.354 433.718 257.441 434.657 256.707 435.843ZM307.648 436.3C307.027 437.915 306.789 452.578 307.115 468.884C307.61 493.559 308.245 498.533 310.897 498.533C313.354 498.533 314.229 495.244 314.714 484.189L315.341 469.845H331.086H346.83L347.457 484.189C347.942 495.244 348.817 498.533 351.274 498.533C353.966 498.533 354.462 493.576 354.462 466.657C354.462 439.739 353.966 434.781 351.274 434.781C348.817 434.781 347.942 438.07 347.457 449.125L346.83 463.469H331.086H315.341L314.714 449.295C314.316 440.323 313.109 434.798 311.431 434.243C309.969 433.759 308.268 434.685 307.648 436.3ZM366.15 466.438C366.15 494.496 366.64 499.596 369.337 499.596C371.817 499.596 372.525 496.763 372.525 486.845V474.095H386.391C399.32 474.095 400.395 474.462 402.329 479.546C403.468 482.544 404.401 488.282 404.401 492.296C404.401 497.369 405.374 499.596 407.589 499.596C412.4 499.596 411.975 479.544 407.058 474.626C403.515 471.084 403.515 470.731 407.058 467.188C412.226 462.02 412.028 446.36 406.713 439.798C403.124 435.363 400.533 434.694 384.4 434.031L366.15 433.283V466.438ZM428.277 435.805C421.315 438.769 419.277 446.286 419.277 469.018C419.277 487.812 419.642 489.529 424.732 494.619C429.713 499.6 431.392 499.995 444.115 499.186C454.266 498.54 458.789 497.277 460.797 494.534C467.948 484.752 467.019 445.697 459.473 438.867C454.687 434.536 435.644 432.668 428.277 435.805ZM474.529 461.44C474.529 488.042 474.74 489.374 479.746 494.379C483.886 498.521 487.142 499.596 495.544 499.596C518.249 499.596 521.849 493.469 520.824 456.59C520.333 438.891 519.617 434.781 517.031 434.781C514.4 434.781 513.739 439.401 513.244 461.208C512.902 476.243 511.644 488.841 510.326 490.428C507.396 493.962 486.929 494.145 483.455 490.671C481.737 488.953 480.904 479.242 480.904 460.919C480.904 438.157 480.384 433.718 477.717 433.718C475.046 433.718 474.529 438.215 474.529 461.44ZM538.798 436.317C532 439.596 529.193 451.284 530.081 472.609C531.048 495.866 532.939 498.093 552.667 499.207C564.616 499.883 567.918 499.307 572.254 495.798C576.697 492.199 577.477 489.738 577.532 479.116L577.596 466.657L565.377 466.02C554.267 465.439 553.157 465.777 553.157 469.738C553.157 473.404 554.505 474.095 561.658 474.095C570.152 474.095 570.158 474.101 570.158 482.555C570.158 492.273 566.956 493.981 550.911 492.83C543.435 492.292 541.034 491.098 538.894 486.845C536.078 481.25 535.555 457.619 538.048 448.594C539.818 442.182 550.716 438.763 562.399 440.956C568.826 442.161 570.158 443.307 570.158 447.627C570.158 451.427 571.312 452.844 574.408 452.844C580.416 452.844 579.9 445.391 573.441 438.935C569.057 434.549 566.263 433.741 555.909 433.863C549.137 433.941 541.438 435.046 538.798 436.317ZM587.159 466.657C587.159 494.519 587.65 499.596 590.347 499.596C592.875 499.596 593.534 496.527 593.534 484.72V469.845H610.535H627.536V484.72C627.536 496.527 628.194 499.596 630.723 499.596C633.42 499.596 633.911 494.519 633.911 466.657C633.911 438.795 633.42 433.718 630.723 433.718C628.194 433.718 627.536 436.787 627.536 448.594V463.469H610.535H593.534V448.594C593.534 436.787 592.875 433.718 590.347 433.718C587.65 433.718 587.159 438.795 587.159 466.657ZM681.651 435.624C679.273 436.653 676.194 438.859 674.81 440.527C671.23 444.841 669.234 465.212 671.004 479.386C673.078 495.977 677.11 499.596 693.509 499.596C704.436 499.596 707.165 498.788 711.759 494.194C716.989 488.964 717.138 488.059 716.443 465.575C715.878 447.232 714.968 441.602 712.116 438.755C708.017 434.662 688.517 432.658 681.651 435.624ZM726.28 436.328C725.666 437.928 725.432 452.578 725.757 468.884C726.252 493.559 726.888 498.533 729.54 498.533C732.152 498.533 732.919 493.633 733.79 471.438L734.853 444.341L749.924 471.438C762.838 494.655 765.811 498.631 770.699 499.211L776.405 499.889L775.816 467.509C775.397 444.341 774.492 434.885 772.635 434.266C770.692 433.622 769.889 440.801 769.447 462.781L768.854 492.158L752.873 463.469C740.614 441.464 735.786 434.621 732.143 434.101C729.531 433.727 726.894 434.728 726.28 436.328ZM786.288 435.057C785.466 435.879 784.792 450.736 784.792 468.074V499.596H803.918C819.501 499.596 823.044 499.005 823.044 496.408C823.044 493.879 819.975 493.221 808.168 493.221H793.293V481.533V469.845H807.106C817.967 469.845 820.919 469.163 820.919 466.657C820.919 464.152 817.967 463.469 807.106 463.469H793.293V452.942V442.412L807.637 441.785C818.692 441.3 821.981 440.425 821.981 437.968C821.981 435.45 818.394 434.653 804.883 434.171C795.477 433.835 787.111 434.232 786.288 435.057ZM854.257 435.091C853.452 435.894 852.795 450.806 852.795 468.23C852.795 497.252 853.108 499.849 856.514 499.199C859.54 498.623 860.35 495.82 860.862 484.168C861.274 474.762 862.369 469.845 864.05 469.847C865.456 469.849 872.346 476.517 879.359 484.667C886.372 492.817 893.784 499.511 895.828 499.541C897.873 499.57 899.547 499.022 899.547 498.321C899.547 497.617 893.231 489.986 885.511 481.361L871.473 465.675L884.555 450.513C891.75 442.174 897.184 434.895 896.627 434.341C894.047 431.761 886.918 437.256 876.577 449.792C870.374 457.315 864.441 463.469 863.393 463.469C862.345 463.469 861.206 457.09 860.862 449.295C860.286 436.296 857.989 431.357 854.257 435.091ZM905.293 435.057C904.471 435.879 903.797 450.736 903.797 468.074V499.596H922.923C938.506 499.596 942.049 499.005 942.049 496.408C942.049 493.879 938.98 493.221 927.173 493.221H912.298V481.533V469.845H926.111C936.972 469.845 939.924 469.163 939.924 466.657C939.924 464.152 936.972 463.469 926.111 463.469H912.298V452.942V442.412L926.642 441.785C937.697 441.3 940.986 440.425 940.986 437.968C940.986 435.45 937.399 434.653 923.888 434.171C914.482 433.835 906.116 434.232 905.293 435.057ZM946.299 435.131C946.299 435.907 950.347 443.797 955.297 452.663C962.788 466.079 964.479 471.277 965.391 483.658C966.226 494.976 967.25 498.533 969.675 498.533C972.132 498.533 973.007 495.246 973.492 484.202C974.042 471.628 975.281 467.902 983.586 453.858C993.667 436.804 994.69 433.718 990.259 433.718C988.722 433.718 983.735 440.342 979.176 448.436C974.616 456.531 970.213 462.738 969.39 462.23C968.568 461.723 964.424 455.099 960.18 447.512C955.939 439.926 951.078 433.718 949.383 433.718C947.687 433.718 946.299 434.354 946.299 435.131ZM1029.18 466.657V499.596H1047.24C1061.88 499.596 1065.3 498.992 1065.3 496.408C1065.3 493.879 1062.24 493.221 1050.43 493.221H1035.55V463.469C1035.55 438.44 1035.05 433.718 1032.37 433.718C1029.67 433.718 1029.18 438.795 1029.18 466.657ZM1078.92 435.669C1071.55 438.844 1069.07 448.522 1069.88 470.979C1070.54 489.489 1071.1 491.869 1075.63 495.535C1082.64 501.209 1103.22 501.207 1110.23 495.533C1114.98 491.688 1115.24 490.158 1115.24 466.921C1115.24 437.288 1114.1 435.388 1095.65 434.409C1088.89 434.052 1081.37 434.619 1078.92 435.669ZM1131.96 436.205C1124.99 439.577 1122.68 447.153 1122.68 466.657C1122.68 494.192 1127.06 499.596 1149.35 499.596C1158.1 499.596 1161.97 498.557 1165.18 495.346C1170.39 490.141 1171.16 476.22 1166.25 476.22C1164.13 476.22 1163.06 478.337 1163.06 482.521C1163.06 490.086 1158.24 493.221 1146.6 493.221C1132.17 493.221 1130.94 490.953 1131.63 465.569L1132.24 443.292L1141.12 441.424C1154.57 438.593 1160.93 440.909 1160.93 448.634C1160.93 453.632 1161.87 454.969 1165.35 454.969C1169.21 454.969 1169.59 454.089 1168.37 448.062C1166.28 437.756 1160.28 433.693 1147.42 433.863C1141.41 433.941 1134.45 434.995 1131.96 436.205ZM1177.93 466.657C1177.93 494.519 1178.42 499.596 1181.12 499.596C1183.65 499.596 1184.31 496.527 1184.31 484.72C1184.31 473.3 1185.01 469.845 1187.32 469.845C1188.98 469.845 1196.47 476.639 1203.98 484.943C1213.2 495.148 1218.87 499.796 1221.49 499.288C1224.68 498.665 1223.53 496.495 1214.92 486.835C1194.02 463.378 1194.81 467.756 1208.47 451.065C1221.26 435.418 1222.14 433.718 1217.37 433.718C1215.69 433.718 1208.81 440.412 1202.07 448.594C1195.34 456.775 1188.59 463.469 1187.07 463.469C1185.07 463.469 1184.31 459.385 1184.31 448.594C1184.31 436.787 1183.65 433.718 1181.12 433.718C1178.42 433.718 1177.93 438.795 1177.93 466.657ZM1253.37 435.843C1250.94 439.783 1254.64 442.218 1263.06 442.218H1271.44V470.907C1271.44 494.991 1271.95 499.596 1274.63 499.596C1277.3 499.596 1277.81 494.991 1277.81 470.907V442.218H1287.38C1295.52 442.218 1296.94 441.589 1296.94 437.968C1296.94 434.003 1295.52 433.718 1275.81 433.718C1264.02 433.718 1254.11 434.657 1253.37 435.843ZM1302.69 435.057C1301.86 435.879 1301.19 450.736 1301.19 468.074V499.596H1320.31C1335.9 499.596 1339.44 499.005 1339.44 496.408C1339.44 493.879 1336.37 493.221 1324.57 493.221H1309.69V481.533V469.845H1323.5C1334.36 469.845 1337.32 469.163 1337.32 466.657C1337.32 464.152 1334.36 463.469 1323.5 463.469H1309.69V452.942V442.412L1324.03 441.785C1335.09 441.3 1338.38 440.425 1338.38 437.968C1338.38 435.45 1334.79 434.653 1321.28 434.171C1311.87 433.835 1303.51 434.232 1302.69 435.057ZM1355.09 436.205C1348.03 439.624 1345.82 447.202 1345.82 467.983C1345.82 486.359 1346.08 487.436 1352.03 493.384C1357.53 498.886 1359.71 499.596 1371.15 499.596C1386.82 499.596 1392.57 495.269 1392.57 483.481C1392.57 474.79 1387.71 474.207 1386.57 482.761C1385.62 489.933 1380.49 493.221 1370.25 493.221C1355.26 493.221 1354.07 491.1 1354.77 465.569L1355.38 443.292L1364.26 441.424C1377.7 438.593 1384.07 440.909 1384.07 448.634C1384.07 453.677 1384.99 454.969 1388.58 454.969C1392.54 454.969 1392.93 454.106 1391.76 448.062C1389.8 437.898 1383.52 433.69 1370.55 433.863C1364.54 433.941 1357.59 434.995 1355.09 436.205ZM1401.07 466.657C1401.07 494.519 1401.56 499.596 1404.26 499.596C1406.78 499.596 1407.44 496.527 1407.44 484.72V469.845H1424.44H1441.45V484.72C1441.45 496.527 1442.1 499.596 1444.63 499.596C1447.33 499.596 1447.82 494.519 1447.82 466.657C1447.82 438.795 1447.33 433.718 1444.63 433.718C1442.1 433.718 1441.45 436.787 1441.45 448.594V463.469H1424.44H1407.44V448.594C1407.44 436.787 1406.78 433.718 1404.26 433.718C1401.56 433.718 1401.07 438.795 1401.07 466.657ZM1460.57 466.657C1460.57 494.23 1461.08 499.596 1463.7 499.596C1466.26 499.596 1466.93 494.6 1467.42 471.978L1468.01 444.358L1483.08 471.447C1495.93 494.54 1498.98 498.633 1503.8 499.205L1509.45 499.879V466.797C1509.45 439.093 1508.94 433.718 1506.32 433.718C1503.75 433.718 1503.09 438.899 1502.6 462.938L1502.01 492.158L1490.52 470.907C1473.45 439.35 1469.56 433.718 1464.79 433.718C1460.76 433.718 1460.57 435.204 1460.57 466.657ZM1527.05 436.164C1519.97 439.756 1517.33 450.825 1518.37 472.52C1519.17 489.349 1519.88 492.177 1524.16 495.645C1531.04 501.211 1551.69 501.143 1558.62 495.533C1563.37 491.688 1563.64 490.158 1563.64 466.921C1563.64 437.286 1562.49 435.384 1544.04 434.415C1537.29 434.06 1529.64 434.847 1527.05 436.164ZM1575.33 466.566V499.768L1592.69 499.15C1604.22 498.74 1610.34 497.643 1610.93 495.877C1611.58 493.92 1607.86 493.221 1596.81 493.221H1581.82L1581.23 464.175C1580.8 443.262 1579.89 434.883 1577.98 434.247C1575.93 433.565 1575.33 440.95 1575.33 466.566ZM1624.7 435.922C1617.75 438.712 1615.7 446.254 1615.7 469.018C1615.7 487.574 1616.11 489.576 1620.92 494.379C1625.22 498.678 1628.23 499.596 1638.06 499.596C1644.62 499.596 1651.73 498.659 1653.87 497.515C1659.55 494.479 1662.45 484.023 1662.45 466.657C1662.45 447.858 1659.38 438.31 1652.49 435.692C1646.02 433.231 1631.09 433.355 1624.7 435.922ZM1674.28 438.701C1669.13 443.853 1668.83 445.359 1668.83 466.326C1668.83 496.243 1670.57 498.533 1693.25 498.533C1713.11 498.533 1715.58 496.255 1715.58 477.939V465.594H1703.89C1693.62 465.594 1692.21 466.109 1692.21 469.845C1692.21 473.387 1693.62 474.095 1700.71 474.095C1708.91 474.095 1709.21 474.343 1709.21 481.108C1709.21 490.741 1705.92 493.221 1693.17 493.221C1677.39 493.221 1675.21 490.035 1675.21 467.02C1675.21 451.426 1675.86 447.939 1679.46 444.344C1687.3 436.498 1709.21 439.683 1709.21 448.668C1709.21 450.965 1710.64 452.844 1712.39 452.844C1716.45 452.844 1716.59 444.414 1712.63 438.988C1710.33 435.85 1706.32 434.757 1694.7 434.101C1680.89 433.321 1679.3 433.68 1674.28 438.701ZM1719.83 434.358C1719.83 434.881 1724.6 443.795 1730.42 454.17C1739.95 471.149 1741.01 474.358 1741.04 486.314C1741.07 496.687 1741.78 499.596 1744.27 499.596C1746.78 499.596 1747.46 496.653 1747.46 485.849C1747.46 473.134 1748.27 470.722 1758.27 453.8C1764.21 443.736 1768.56 434.983 1767.92 434.347C1765.11 431.531 1760.2 436.515 1752.86 449.641C1748.51 457.424 1744.45 463.295 1743.84 462.689C1743.24 462.082 1739.24 455.564 1734.96 448.205C1730.68 440.844 1725.53 434.502 1723.51 434.113C1721.49 433.725 1719.83 433.835 1719.83 434.358ZM453.418 442.293C457.072 444.248 457.528 446.915 457.528 466.306C457.528 480.44 456.63 489.019 454.978 490.671C451.956 493.692 434.461 494.022 429.902 491.142C427.531 489.644 426.528 483.994 425.986 469.061C425.327 450.978 425.697 448.549 429.705 444.541C434.571 439.675 446.425 438.551 453.418 442.293ZM706.362 444.541C710.369 448.549 710.739 450.978 710.08 469.061C709.539 483.994 708.536 489.644 706.164 491.142C701.606 494.022 684.11 493.692 681.088 490.671C679.437 489.019 678.538 480.447 678.538 466.338C678.538 441.851 679.464 440.276 693.945 440.157C699.262 440.115 703.393 441.572 706.362 444.541ZM1103.7 442.293C1107.35 444.248 1107.81 446.915 1107.81 466.306C1107.81 480.44 1106.91 489.019 1105.26 490.671C1102.23 493.692 1084.74 494.022 1080.18 491.14C1077.69 489.565 1076.99 484.425 1076.99 467.626C1076.99 448.796 1077.5 445.753 1081.12 443.109C1085.95 439.577 1097.82 439.148 1103.7 442.293ZM1554.27 444.541C1558.28 448.549 1558.65 450.978 1557.99 469.061C1557.45 483.994 1556.45 489.644 1554.07 491.142C1549.52 494.022 1532.02 493.692 1529 490.671C1527.35 489.019 1526.45 480.447 1526.45 466.338C1526.45 441.851 1527.38 440.276 1541.86 440.157C1547.17 440.115 1551.3 441.572 1554.27 444.541ZM1649.84 442.293C1653.5 444.248 1653.95 446.915 1653.95 466.306C1653.95 480.44 1653.06 489.019 1651.4 490.671C1648.38 493.692 1630.89 494.022 1626.33 491.142C1623.96 489.644 1622.95 483.994 1622.41 469.061C1621.75 450.978 1622.12 448.549 1626.13 444.541C1631 439.675 1642.85 438.551 1649.84 442.293ZM35.1965 446.256C35.7766 448.479 35.7958 452.68 35.239 455.596C34.1595 461.242 28.2007 463.469 14.1815 463.469H7.0093V452.844V442.218H20.5738C32.1151 442.218 34.2976 442.822 35.1965 446.256ZM91.5985 453.384C92.1893 462.596 91.7558 463.671 86.6789 465.603C83.6167 466.768 76.8695 467.72 71.6864 467.72H62.2616V454.871V442.025L76.606 442.652L90.9504 443.281L91.5985 453.384ZM186.522 473.916C187.833 478.043 187.121 478.345 176.096 478.345C169.589 478.345 164.266 477.631 164.266 476.758C164.266 475.886 166.812 467.53 169.921 458.189L175.578 441.207L180.347 455.347C182.971 463.123 185.749 471.479 186.522 473.916ZM403.111 445.58C404.962 450.404 404.643 459.797 402.512 463.161C401.415 464.889 395.057 466.493 386.606 467.171L372.525 468.302V455.26V442.218H387.173C398.57 442.218 402.108 442.964 403.111 445.58ZM35.698 480.47V490.033L21.3537 490.662L7.0093 491.289V480.47V469.651L21.3537 470.278L35.698 470.907V480.47ZM827.294 475.157C827.294 477.518 829.774 478.345 836.857 478.345C843.94 478.345 846.42 477.518 846.42 475.157C846.42 472.796 843.94 471.97 836.857 471.97C829.774 471.97 827.294 472.796 827.294 475.157Z" fill="white"/>
</svg>
