<svg width="2565" height="500" viewBox="0 0 2565 500" fill="none" xmlns="http://www.w3.org/2000/svg">
<path fill-rule="evenodd" clip-rule="evenodd" d="M915.141 8.39652C912.534 12.1242 910.34 22.1829 910.265 30.749L910.127 46.3167L904.546 36.0001C901.478 30.3261 894.525 21.5329 889.095 16.4606C876.196 4.40746 860.7 2.69835 776.287 4.00855L709.229 5.05052L704.945 30.8419C702.589 45.0271 698.913 69.0131 696.774 84.144C694.635 99.2749 691.447 121.713 689.687 134.007C687.929 146.301 685.684 167.192 684.697 180.432C683.71 193.671 681.475 205.972 679.731 207.771C677.988 209.569 676.56 216.144 676.56 222.386V233.734H762.532C817.553 233.734 848.503 232.496 848.503 230.295C848.503 228.404 851.986 226.856 856.24 226.856C865.518 226.856 893.208 202.53 893.208 194.383C893.208 186.281 898.94 190.769 905.227 203.788C911.774 217.358 934.182 233.734 946.201 233.734C951.097 233.734 955.107 235.281 955.107 237.173C955.107 239.274 971.156 240.612 996.373 240.612C1021.59 240.612 1037.64 239.274 1037.64 237.173C1037.64 235.281 1042.28 233.734 1047.96 233.734C1053.63 233.734 1058.27 232.186 1058.27 230.295C1058.27 228.404 1060.35 226.856 1062.89 226.856C1065.44 226.856 1076.17 218.476 1086.75 208.231C1101.21 194.228 1107.42 185.054 1111.79 171.264C1118.91 148.791 1123.57 122.525 1125.87 91.8814C1126.83 79.1164 1128.91 68.6692 1130.5 68.6692C1132.08 68.6692 1134.08 57.4482 1134.92 43.7376C1135.77 30.0234 1137.06 15.7109 1137.78 11.9282C1139.01 5.46318 1136.97 4.99206 1103.78 4.07045C1077.44 3.33798 1068.05 4.21144 1066.81 7.5093C1064.16 14.5658 1054.37 82.0291 1052.44 106.497C1051.47 118.79 1049.29 130.321 1047.59 132.116C1045.9 133.914 1044.52 141.081 1044.52 148.041C1044.52 157.742 1041.95 163.21 1033.55 171.425C1022.63 182.1 1015.88 183.908 992.934 182.313C972.484 180.893 968.082 172.718 970.1 139.901C971.056 124.365 973.436 101.596 975.389 89.3023C977.339 77.0084 980.393 55.3437 982.171 41.1584C983.952 26.9732 985.94 13.0458 986.59 10.2088C987.563 5.97901 981.676 4.74102 953.828 3.3311C922.847 1.76298 919.467 2.20315 915.141 8.39652ZM1150.69 8.48937C1146.51 18.2866 1133.93 107.415 1133.93 127.267C1133.93 136.425 1132.38 144.874 1130.49 146.043C1128.6 147.212 1127.05 157.271 1127.05 168.396C1127.05 179.52 1125.5 189.579 1123.61 190.748C1121.72 191.918 1120.17 202.066 1120.17 213.304V233.734H1156.28C1182.79 233.734 1192.43 232.592 1192.54 229.435C1192.62 227.073 1194.24 213.531 1196.14 199.345C1204.96 133.478 1206.55 120.737 1208.17 103.058C1209.11 92.6552 1211.27 81.0491 1212.96 77.2663C1215.75 71.0179 1219.2 43.7719 1220.94 14.2701L1221.62 2.85653L1187.62 2.2341C1156.58 1.66669 1153.37 2.21003 1150.69 8.48937ZM1843.55 2.45075L1812.1 3.5787L1809.77 16.3506C1808.48 23.3761 1806.64 39.5697 1805.69 52.3347C1804.72 65.0997 1802.72 75.5469 1801.23 75.5469C1799.75 75.5469 1797.54 86.7679 1796.32 100.479C1795.1 114.189 1792.67 134.695 1790.91 146.043C1789.14 157.391 1786.65 174.723 1785.37 184.555C1783.38 199.741 1782.31 201.722 1778.29 197.698C1775.68 195.092 1773.55 188.981 1773.55 184.115C1773.55 179.252 1772.01 175.273 1770.11 175.273C1768.22 175.273 1766.68 172.55 1766.68 169.218C1766.68 161.528 1745.95 137.395 1739.37 137.426C1735.84 137.439 1736.34 135.988 1741.09 132.398C1744.76 129.619 1750.13 127.298 1753.02 127.24C1755.91 127.178 1760.51 124.035 1763.24 120.252C1765.96 116.469 1769.79 113.364 1771.73 113.35C1773.68 113.336 1778.66 108.309 1782.81 102.174C1806.29 67.4312 1801.87 27.0832 1772.84 11.237C1762.4 5.53196 1746.83 4.97143 1572.72 4.02574C1468.88 3.46177 1382.7 4.23551 1381.21 5.74517C1379.72 7.25482 1377.41 20.4806 1376.1 35.1404L1373.7 61.7915H1408.87H1444.04L1442.14 81.5649C1440.1 102.917 1435.96 134.392 1429.82 175.273C1427.69 189.459 1425.04 208.417 1423.93 217.399L1421.92 233.734H1458.08H1494.25L1496.48 220.838C1497.71 213.747 1500.02 198.658 1501.63 187.309C1503.23 175.961 1505.42 161.26 1506.5 154.64C1507.57 148.021 1511.09 124.423 1514.32 102.198L1520.19 61.7915H1551.73C1569.08 61.7915 1584.04 62.5618 1584.98 63.5006C1586.85 65.3714 1579.34 120.125 1574.01 143.512C1572.17 151.58 1570.66 166.577 1570.66 176.838C1570.66 187.103 1569.11 196.457 1567.22 197.626C1565.33 198.795 1563.78 207.396 1563.78 216.743V233.734H1599.52C1640.47 233.734 1639.44 234.539 1639.44 202.502C1639.44 191.226 1640.97 182.151 1642.88 182.151C1644.77 182.151 1646.32 173.64 1646.32 163.238C1646.32 144.417 1646.37 144.324 1656.88 144.324C1668.35 144.324 1677.27 150.985 1677.27 159.555C1677.27 162.526 1678.81 164.957 1680.7 164.957C1682.6 164.957 1684.14 168.826 1684.14 173.554C1684.14 178.282 1685.69 182.151 1687.58 182.151C1689.47 182.151 1691.02 184.369 1691.02 187.082C1691.02 189.796 1695.09 201.402 1700.07 212.874L1709.11 233.734H1780.82C1862.38 233.734 1853.87 237.355 1857.61 201.065C1858.58 191.608 1860.62 173.812 1862.14 161.518L1864.9 139.166L1869.39 159.799C1873.72 179.716 1875.13 183.496 1884.46 200.136C1890.09 210.192 1908.22 226.732 1913.69 226.801C1916.05 226.832 1917.98 228.404 1917.98 230.295C1917.98 232.186 1922.63 233.734 1928.3 233.734C1933.98 233.734 1938.62 235.281 1938.62 237.173C1938.62 239.267 1954.09 240.612 1978.16 240.612C2002.24 240.612 2017.71 239.267 2017.71 237.173C2017.71 235.281 2023.9 233.734 2031.47 233.734C2039.03 233.734 2045.22 232.186 2045.22 230.295C2045.22 228.404 2047.44 226.856 2050.15 226.856C2052.85 226.856 2064.38 221.935 2075.77 215.924C2091.24 207.753 2096.89 202.757 2098.12 196.151C2099.04 191.288 2099.17 197.757 2098.42 210.522L2097.06 233.734H2134.36H2171.66L2173.75 212.241C2176.54 183.424 2179.29 161.453 2181.27 152.061C2182.85 144.602 2184.28 144.324 2220.94 144.324H2258.98L2256.69 167.536C2255.44 180.305 2253 196.164 2251.28 202.784C2249.56 209.404 2248.14 219.074 2248.13 224.277L2248.11 233.734H2285.94H2323.77V211.381C2323.77 199.088 2325.19 189.029 2326.93 189.029C2328.66 189.029 2330.91 178.585 2331.92 165.817C2333.63 144.138 2337 117.05 2342.84 78.126L2345.3 61.7915H2375.22C2391.69 61.7915 2405.81 62.4415 2406.6 63.2393C2408.32 64.9621 2404.46 106.101 2399.63 137.446C2397.74 149.74 2394.8 170.631 2393.1 183.871C2391.4 197.11 2388.86 213.747 2387.46 220.838L2384.9 233.734H2421.26H2457.62L2460.77 220.838C2462.51 213.747 2466.52 187.052 2469.69 161.518C2472.86 135.985 2476.91 107.666 2478.7 98.5906C2480.49 89.5121 2481.96 77.5208 2481.96 71.9395V61.7915H2519.78H2557.61V46.5196C2557.61 38.1185 2559.16 30.2917 2561.05 29.1225C2562.94 27.9532 2564.49 21.6739 2564.49 15.1642V3.3311H2422.12H2279.75L2277.76 17.9462C2276.66 25.9828 2274.9 40.2987 2273.84 49.7555C2269.87 85.2066 2273.54 82.4246 2230.71 82.4246H2192.81L2194.94 55.7735C2196.11 41.1137 2198.74 24.7242 2200.79 19.3493C2206.06 5.50101 2200.97 3.44458 2161.28 3.38268L2127.75 3.3311V20.5253C2127.75 29.9822 2126.33 37.7196 2124.6 37.7196C2122.86 37.7196 2120.59 48.1668 2119.56 60.9318C2116.49 98.7488 2111.68 133.12 2111.1 121.394C2109.99 99.0824 2111.39 99.6188 2054.29 99.6188H2002.19L1997.91 113.319C1995.56 120.857 1993.64 132.463 1993.64 139.111V151.202H2015.99H2038.34V162.398C2038.34 171.814 2036.57 174.311 2027.17 178.097C2021.02 180.576 2013.31 184.049 2010.02 185.814C2002.03 190.116 1969.57 189.937 1969.57 185.59C1969.57 183.699 1966.81 182.151 1963.43 182.151C1951.76 182.151 1943.95 162.319 1944.46 133.942C1945.13 95.8877 1954.91 74.6975 1979.79 57.3898C1997 45.4157 2038.34 53.9028 2038.34 69.412C2038.34 74.5565 2041.4 75.5469 2057.26 75.5469C2067.66 75.5469 2076.17 73.9994 2076.17 72.1081C2076.17 70.2167 2083.96 68.6692 2093.47 68.6692C2115.78 68.6692 2117.61 63.8583 2104.94 38.5105C2096.45 21.5467 2092.45 17.506 2076.17 9.45912C2058.83 0.892953 2053.83 0.105456 2016.11 0.00229071C1973.44 -0.111191 1954.67 3.96729 1934.65 17.702C1929.63 21.1478 1924.53 23.9642 1923.31 23.9642C1916.77 23.9642 1887.03 61.5714 1887.03 69.8522C1887.03 72.985 1885.49 75.5469 1883.6 75.5469C1881.7 75.5469 1880.16 79.4156 1880.16 84.144C1880.16 88.8724 1878.42 92.7411 1876.29 92.7411C1873.65 92.7411 1873.11 87.0464 1874.6 74.6872C1882.93 5.62481 1883.17 -1.31822 1877.21 0.60753C1875.99 0.999559 1860.85 1.82832 1843.55 2.45075ZM69.9373 7.62966C67.4717 16.6738 57.4268 98.4256 57.4956 108.873C57.5368 114.908 56.0203 120.802 54.1289 121.971C48.8812 125.214 49.7994 151.202 55.1606 151.202C57.6194 151.202 61.0995 149.874 62.898 148.251C64.6931 146.628 75.773 143.333 87.5133 140.933L108.862 136.569L110.578 122.391C111.52 114.595 113.232 99.7426 114.381 89.3883C115.53 79.0339 118.109 68.5867 120.11 66.176C125.045 60.2303 175.775 60.1581 180.534 66.0901C182.429 68.456 185.036 82.7685 186.325 97.8994C189.626 136.586 189.162 135.796 211.518 140.71C222.361 143.093 234.325 146.287 238.107 147.811C254.837 154.541 257.547 154.42 264.951 146.611C276.01 134.943 283.449 125.266 288.246 116.297C290.584 111.93 294.463 106.39 296.867 103.99C302.046 98.8073 315.481 98.1367 315.481 103.058C315.481 104.949 318.576 106.497 322.359 106.497C326.142 106.497 329.237 107.869 329.237 109.543C329.237 111.218 334.746 115.204 341.479 118.402C348.216 121.597 354.512 126.263 355.475 128.773C357.036 132.845 348.353 156.597 339.433 172.646C337.607 175.93 336.114 180.831 336.114 183.537C336.114 186.243 334.178 189.184 331.816 190.078C329.257 191.041 338.683 202.774 355.1 219.064C374.062 237.874 384.272 245.687 387.769 244.054C390.565 242.751 396.315 239.893 400.545 237.706C404.775 235.522 410.579 233.734 413.44 233.734C416.305 233.734 418.647 232.186 418.647 230.295C418.647 228.404 421.649 226.856 425.322 226.856C428.994 226.856 432.952 225.309 434.122 223.417C437.079 218.63 445.793 219.122 451.048 224.377C456.533 229.865 477.118 268.618 477.021 273.281C476.983 275.172 469.181 282.136 459.679 288.755C450.181 295.375 437.853 304.66 432.285 309.389L422.161 317.986L427.739 335.18C430.81 344.637 434.273 359.338 435.439 367.849C437.258 381.113 438.788 383.468 446.158 384.328C450.886 384.878 457.85 386.787 461.632 388.568C465.415 390.349 477.795 392.217 489.143 392.722L509.776 393.64L510.756 426.746L511.733 459.855L491.843 461.987C437.44 467.816 435.989 468.432 435.893 485.63L435.841 495.086H518.373H600.906V484.77C600.906 479.096 602.326 474.453 604.063 474.453C605.799 474.453 608.045 464.009 609.052 451.241C611.054 425.952 614.324 400.229 622.945 342.058C630.012 294.385 634.923 259.742 639.276 226.856C644.538 187.12 648.548 158.482 652.272 134.007C654.146 121.713 657.275 98.5012 659.229 82.4246C661.182 66.348 664.335 44.7864 666.23 34.5077C668.128 24.2324 669.683 13.0115 669.683 9.57604C669.683 3.58901 657.303 3.3311 370.396 3.3311C133.883 3.3311 70.8624 4.23208 69.9373 7.62966ZM1232.6 19.6656C1230.75 35.2883 1223.82 84.2953 1216.18 135.727C1214.21 148.966 1211.21 170.631 1209.5 183.871C1207.79 197.11 1205.4 213.747 1204.17 220.838L1201.95 233.734H1295.02H1388.09L1390.59 220.838C1391.96 213.747 1393.19 200.979 1393.32 192.468L1393.56 176.993L1339.4 176.047L1285.24 175.098V159.713C1285.24 151.25 1286.66 144.324 1288.39 144.324C1290.13 144.324 1292.38 133.877 1293.38 121.112C1294.39 108.343 1296.72 87.067 1298.54 73.8275C1300.37 60.5879 1302.98 39.3083 1304.34 26.5433L1306.81 3.3311H1270.67H1234.53L1232.6 19.6656ZM828.458 57.1663C837.079 64.9656 836.34 74.2642 826.305 84.2988C819.063 91.5444 814.671 92.7411 795.355 92.7411H772.848V72.1081V51.475H797.508C815.631 51.475 823.836 52.9846 828.458 57.1663ZM1717.84 55.6016C1724.51 62.2661 1722.74 79.2299 1714.65 86.2486C1705.81 93.9138 1690.99 97.0259 1670.31 95.5576C1658.66 94.7288 1655.23 93.2054 1656.22 89.3023C1656.93 86.4652 1658.29 76.7918 1659.23 67.8095L1660.94 51.475H1687.33C1703.27 51.475 1715.35 53.1084 1717.84 55.6016ZM901.605 100.479C898.971 128.567 896.513 133.381 888.761 125.63C885.804 122.673 881.726 120.252 879.697 120.252C877.671 120.252 876.014 118.818 876.014 117.064C876.014 115.314 873.304 113.23 869.996 112.439C864.593 111.146 864.679 110.702 870.855 108.082C874.638 106.476 879.477 103.529 881.609 101.531C883.744 99.5329 888.772 95.6229 892.785 92.8409C896.801 90.0588 900.086 85.0312 900.086 81.6646C900.086 78.3014 900.952 75.5469 902.015 75.5469C903.074 75.5469 902.888 86.7679 901.605 100.479ZM1872.27 114.193C1871.45 118.471 1870.75 115.781 1870.71 108.216C1870.67 100.65 1871.34 97.1497 1872.2 100.437C1873.06 103.725 1873.09 109.915 1872.27 114.193ZM821.219 144.444C830.325 149.317 830.167 168.692 820.951 177.031C815.885 181.615 806.666 183.719 786.562 184.885L759.093 186.474V165.686C759.093 152.271 760.616 144.283 763.391 143.162C771.438 139.915 814.541 140.871 821.219 144.444ZM2106.15 167.488C2105.36 172.715 2104.69 169.256 2104.67 159.799C2104.64 150.342 2105.29 146.064 2106.1 150.294C2106.92 154.523 2106.94 162.261 2106.15 167.488ZM109.15 217.2C102.531 219.071 90.536 222.344 82.4994 224.48C74.4628 226.612 67.8843 229.566 67.8843 231.045C67.8843 232.523 64.0156 233.734 59.2872 233.734C54.5588 233.734 50.6901 235.178 50.6901 236.942C50.6901 238.706 47.5951 241.131 43.8124 242.331C36.8865 244.528 34.3315 255.791 39.9677 259.274C41.639 260.306 46.6804 258.463 51.1715 255.179C64.9166 245.127 74.3494 240.612 81.5916 240.612C85.4018 240.612 88.5174 239.064 88.5174 237.173C88.5174 235.281 95.4811 233.734 103.992 233.734C112.503 233.734 119.467 232.186 119.467 230.295C119.467 228.259 132.009 226.856 150.214 226.856C167.126 226.856 181.917 228.404 183.086 230.295C184.255 232.186 189.785 233.734 195.373 233.734C200.961 233.734 208.22 235.092 211.504 236.757C214.788 238.418 227.148 244.119 238.967 249.422C250.79 254.728 260.46 260.333 260.46 261.877C260.46 263.421 262.145 264.684 264.208 264.684C270.003 264.684 315.481 311.813 315.481 317.821C315.481 320.747 317.029 323.144 318.92 323.144C320.812 323.144 322.359 325.465 322.359 328.302C322.359 331.139 323.907 333.46 325.798 333.46C327.689 333.46 329.237 336.555 329.237 340.338C329.237 344.121 330.406 347.216 331.84 347.216C335.736 347.216 342.552 371.48 346.94 400.999C350.018 421.681 349.853 433.483 346.156 456.857C340.272 494.062 340.265 493.078 346.431 494.264C355.073 495.925 360.19 470.942 360.159 427.224C360.131 385.562 353.673 353.619 341.52 335.073C338.546 330.537 336.114 324.791 336.114 322.305C336.114 319.819 333.02 315.554 329.237 312.827C325.454 310.1 322.359 306.008 322.359 303.732C322.359 293.766 261.605 240.612 250.215 240.612C248.286 240.612 246.704 239.064 246.704 237.173C246.704 235.281 243.919 233.734 240.514 233.734C237.11 233.734 232.856 232.455 231.058 230.893C227.976 228.215 219.606 225.591 186.126 216.811C168.966 212.313 125.688 212.533 109.15 217.2ZM101.695 262.465C94.7555 264.632 87.9225 267.565 86.5057 268.982C85.0889 270.399 81.0964 271.561 77.6266 271.561C74.1602 271.561 71.3232 273.109 71.3232 275C71.3232 276.891 68.9366 278.439 66.0205 278.439C63.1043 278.439 58.847 280.004 56.5636 281.916C29.3176 304.715 29.2007 304.873 26.0714 323.478C19.1455 364.658 10.3214 429.862 7.2643 462.417C6.2017 473.765 3.89079 484.804 2.1301 486.947C0.0255297 489.512 0.823342 491.572 4.4582 492.965C7.49815 494.13 77.1142 495.086 159.158 495.086H308.329L311.905 481.331C313.872 473.765 317.029 461.592 318.92 454.281C323.36 437.111 323.277 420.133 318.645 399.706C312.94 374.544 304.278 347.216 302.008 347.216C300.883 347.216 297.864 342.467 295.295 336.659C289.969 324.63 255.687 289.887 246.158 286.861C242.674 285.757 239.827 283.411 239.827 281.647C239.827 279.883 237.506 278.439 234.668 278.439C231.831 278.439 229.51 276.891 229.51 275C229.51 273.109 227.168 271.561 224.304 271.561C221.443 271.561 216.412 270.203 213.128 268.545C191.167 257.448 128.683 254.04 101.695 262.465ZM1495.01 261.124C1492.17 263.023 1486.37 264.601 1482.11 264.632C1477.85 264.659 1474.37 266.231 1474.37 268.122C1474.37 270.014 1471.28 271.561 1467.5 271.561C1463.71 271.561 1460.62 273.109 1460.62 275C1460.62 276.891 1459 278.439 1457.02 278.439C1452.35 278.439 1436.55 294.247 1436.55 298.917C1436.55 300.895 1435 302.511 1433.11 302.511C1431.22 302.511 1429.67 305.606 1429.67 309.389C1429.67 313.171 1428.12 316.266 1426.23 316.266C1420.18 316.266 1422.55 343.333 1429.98 359.159C1433.94 367.577 1440.13 375.401 1443.74 376.546C1447.35 377.691 1450.3 380.071 1450.3 381.835C1450.3 383.599 1453.4 385.043 1457.18 385.043C1460.96 385.043 1464.06 386.591 1464.06 388.482C1464.06 390.373 1467.83 391.921 1472.45 391.921C1477.07 391.921 1481.8 393.468 1482.97 395.36C1484.14 397.251 1489.56 398.799 1495.01 398.799C1500.46 398.799 1505.87 400.346 1507.04 402.237C1508.21 404.129 1512.74 405.676 1517.1 405.676C1529.7 405.676 1543.71 418.654 1542.48 429.177C1541.14 440.591 1521.99 453.82 1506.8 453.82C1491.29 453.82 1474.37 439.312 1474.37 426.003C1474.37 420.408 1472.48 415.893 1470.07 415.766C1467.71 415.642 1452.24 415.735 1435.69 415.972C1407.99 416.371 1399.13 413.52 1409.04 407.396C1410.93 406.227 1412.47 396.168 1412.47 385.043C1412.47 373.919 1413.82 363.984 1415.47 362.966C1417.11 361.948 1419.42 349.09 1420.61 334.392C1421.79 319.695 1424.07 298.384 1425.68 287.036C1427.7 272.851 1427.43 265.612 1424.84 263.875C1420.37 260.88 1372.73 260.471 1362.05 263.336C1355.9 264.983 1354.37 268.404 1353.23 283.061C1350.51 317.91 1336.18 410.993 1332.24 419.432C1324.16 436.722 1312.55 443.548 1291.48 443.394C1275.29 443.277 1268.05 439.274 1261.38 426.753C1256.94 418.417 1257.76 401.773 1264.69 359.252C1276.52 286.675 1278.48 266.884 1274.14 264.126C1268.67 260.657 1212.71 260.447 1207.36 263.875C1205.2 265.265 1202.56 274.914 1201.5 285.317C1200.44 295.719 1198.32 312.741 1196.77 323.144C1194.07 341.366 1193.88 341.638 1191.49 330.606C1185.9 304.784 1162.6 271.561 1150.08 271.561C1147.63 271.561 1143.92 269.862 1141.84 267.782C1139.48 265.419 1111.86 263.305 1068.05 262.132C1010.7 260.598 997.312 261.128 994.055 265.051C991.872 267.686 986.769 294.602 982.718 324.863C978.667 355.125 973.89 386.484 972.105 394.548C970.324 402.616 968.863 417.613 968.863 427.874C968.863 438.139 967.315 447.493 965.424 448.662C963.532 449.831 961.985 460.753 961.985 472.937V495.086H1026.79C1081.7 495.086 1094.68 494.068 1111.83 488.408C1122.97 484.735 1132.62 480.093 1133.29 478.092C1133.95 476.09 1136.39 474.453 1138.7 474.453C1143.64 474.453 1164.88 453.311 1164.88 448.397C1164.88 446.54 1167.97 442.792 1171.75 440.065C1175.54 437.338 1178.68 431.193 1178.74 426.409C1178.88 414.119 1184.06 423.909 1187.06 442.176C1189.46 456.754 1210.4 483.491 1225.36 491.087C1248.66 502.92 1318.79 502.27 1348.28 489.945C1362.24 484.113 1393.63 454.116 1397.05 443.339C1400.3 433.105 1405.6 435.336 1405.6 446.942C1405.6 452.617 1407.14 457.259 1409.04 457.259C1410.93 457.259 1412.47 459.594 1412.47 462.448C1412.47 468.789 1428.27 485.086 1439.98 490.846C1456.36 498.897 1497.89 502.421 1526.7 498.209C1541.47 496.049 1554.4 492.916 1555.43 491.245C1556.47 489.574 1559.52 488.209 1562.23 488.209C1564.93 488.209 1570.41 485.502 1574.41 482.191C1591.82 467.758 1601.61 457.672 1601.61 454.161C1601.61 452.08 1603.16 450.381 1605.05 450.381C1606.94 450.381 1608.49 447.379 1608.49 443.707C1608.49 440.034 1610.04 436.076 1611.93 434.906C1616.84 431.87 1616.18 393.269 1611.07 384.269C1602.65 369.462 1582.24 354.094 1570.99 354.094C1567.03 354.094 1563.78 352.546 1563.78 350.655C1563.78 348.763 1559.23 347.216 1553.67 347.216C1548.11 347.216 1542.6 345.668 1541.43 343.777C1540.26 341.886 1535.97 340.338 1531.88 340.338C1527.81 340.338 1517.84 337.807 1509.73 334.712C1497.41 330.004 1495.01 327.57 1495.01 319.791C1495.01 309.021 1505.86 302.511 1523.8 302.511C1536 302.511 1548.41 312.865 1550.6 324.863C1551.76 331.27 1554.08 331.662 1584.47 330.572C1602.41 329.929 1618.56 327.993 1620.35 326.273C1622.15 324.55 1637.42 323.144 1654.28 323.144C1684.56 323.144 1684.91 323.244 1682.36 330.881C1680.94 335.135 1679.14 347.13 1678.37 357.532C1677.59 367.935 1675.6 379.541 1673.94 383.324C1672.29 387.107 1670 400.26 1668.86 412.554C1667.72 424.848 1664.81 447.723 1662.39 463.387C1659.97 479.051 1658.72 492.593 1659.61 493.477C1663.47 497.342 1728.14 494.921 1731.47 490.788C1733.38 488.425 1735.86 476.431 1737 464.137C1738.13 451.843 1740.45 432.499 1742.16 421.151C1743.86 409.803 1747.27 383.111 1749.73 361.831L1754.2 323.144H1788.04H1821.89L1819.8 346.356C1818.64 359.125 1816.28 374.056 1814.54 379.538C1812.8 385.023 1811.38 398.472 1811.38 409.425C1811.38 420.381 1809.83 430.298 1807.94 431.468C1806.05 432.637 1804.5 442.785 1804.5 454.023C1804.5 465.351 1802.97 474.453 1801.06 474.453C1799.17 474.453 1797.62 479.096 1797.62 484.77V495.086H1835.02H1872.41L1874.8 477.032C1876.11 467.104 1878.44 448.92 1879.98 436.626C1884.35 401.68 1885.94 398.506 1896.83 403.128C1907.98 407.863 1917.81 419.071 1917.91 427.169C1917.95 430.481 1919.53 433.187 1921.42 433.187C1923.31 433.187 1924.86 437.056 1924.86 441.784C1924.86 446.513 1926.41 450.381 1928.3 450.381C1930.19 450.381 1931.74 454.25 1931.74 458.978C1931.74 463.707 1933.02 467.576 1934.57 467.576C1936.13 467.576 1938.84 473.38 1940.59 480.471L1943.78 493.367L2016.85 494.295L2089.93 495.224V480.368C2089.93 472.197 2091.31 464.044 2093 462.245C2094.7 460.45 2096.9 448.92 2097.89 436.626C2098.88 424.332 2101.44 402.667 2103.56 388.482C2105.68 374.297 2109.68 346.442 2112.44 326.583C2115.22 306.723 2118.45 285.275 2119.62 278.917C2122.5 263.449 2118.3 261.362 2084.19 261.296C2045.19 261.224 2045.22 261.207 2045.22 287.404C2045.22 299.767 2043.72 309.389 2041.78 309.389C2039.87 309.389 2038.34 318.505 2038.34 329.86C2038.34 341.119 2036.94 353.887 2035.23 358.231C2033.51 362.574 2029.34 387.409 2025.96 413.414C2022.58 439.422 2018.96 460.684 2017.9 460.67C2014.94 460.629 2007.39 442.867 2007.39 435.942C2007.39 432.534 2005.85 429.748 2003.96 429.748C2002.06 429.748 2000.52 426.653 2000.52 422.871C2000.52 419.088 1999.23 415.993 1997.66 415.993C1996.09 415.993 1992.73 412.124 1990.2 407.396C1987.67 402.667 1983.54 398.799 1981.02 398.799C1978.5 398.799 1976.44 397.915 1976.44 396.835C1976.44 393.083 1986.29 385.043 1990.89 385.043C1997.6 385.043 2021.15 364.775 2021.15 359.001C2021.15 356.301 2022.39 354.094 2023.9 354.094C2028.19 354.094 2034.91 332.577 2034.91 318.825C2034.91 295.98 2026.15 281.733 2003.79 268.171C1996.68 263.865 1966.8 262.864 1813.79 261.822C1713.93 261.142 1628.43 261.537 1623.79 262.699C1617.21 264.353 1615.37 267.053 1615.37 275.065C1615.37 287.002 1612.01 288.099 1605.05 278.439C1602.32 274.656 1597.34 271.561 1593.97 271.561C1590.61 271.561 1587.86 270.189 1587.86 268.511C1587.86 263.865 1568.92 260.615 1532.83 259.068C1514.14 258.267 1497.96 259.147 1495.01 261.124ZM2381.65 262.355C2374.71 264.58 2367.88 267.565 2366.46 268.982C2365.04 270.399 2361.05 271.561 2357.58 271.561C2354.12 271.561 2351.28 272.724 2351.27 274.14C2351.27 275.557 2346.63 279.814 2340.96 283.597C2335.3 287.38 2330.66 292.411 2330.66 294.773C2330.65 297.139 2329.1 299.072 2327.21 299.072C2325.32 299.072 2323.77 290.561 2323.77 280.158V261.245H2229.54H2135.31L2131.53 272.074C2129.45 278.03 2127.75 291.957 2127.75 303.023C2127.75 314.089 2126.33 323.144 2124.6 323.144C2122.86 323.144 2120.63 333.588 2119.63 346.356C2118.64 359.125 2116.3 379.627 2114.45 391.921C2110.2 420.009 2103.37 473.411 2102.57 484.77L2101.96 493.367L2200.83 494.278L2299.7 495.193V481.383C2299.7 466.733 2307.67 461.654 2311.54 473.841C2317.25 491.837 2369.17 504.323 2414.43 498.584C2439.7 495.379 2471.64 483.618 2471.64 477.514C2471.64 475.829 2473.3 474.453 2475.32 474.453C2480.08 474.453 2488.83 465.705 2488.83 460.942C2488.83 458.917 2490.02 457.259 2491.46 457.259C2492.9 457.259 2496.7 451.224 2499.9 443.848C2510.54 419.298 2508.01 386.587 2494.46 373.31C2484.05 363.117 2469.36 354.094 2463.16 354.094C2460.26 354.094 2457.88 352.546 2457.88 350.655C2457.88 348.763 2453.33 347.216 2447.77 347.216C2442.21 347.216 2436.7 345.668 2435.53 343.777C2434.36 341.886 2427.69 340.331 2420.71 340.324C2406.35 340.311 2385.67 329.262 2385.67 321.61C2385.67 312.539 2400 302.511 2412.97 302.514C2427.69 302.521 2444.13 315.186 2444.13 326.524C2444.13 332.872 2445.52 333.89 2451.87 332.188C2456.12 331.05 2471.59 330.094 2486.25 330.07C2516.22 330.015 2516.92 329.145 2509.22 301.428C2504.41 284.079 2487.7 267.875 2469.61 262.998C2452.74 258.452 2395.13 258.033 2381.65 262.355ZM676.103 263.538C672.021 264.625 670.006 270.399 668.737 284.632C666.124 313.935 659.603 360.758 655.828 377.354C653.991 385.421 652.488 400.418 652.488 410.68C652.488 420.945 650.941 430.298 649.05 431.468C647.158 432.637 645.611 443.469 645.611 455.54C645.611 467.61 644.063 478.442 642.172 479.612C640.281 480.781 638.733 484.739 638.733 488.412C638.733 494.612 641.405 495.086 676.213 495.086H713.697L715.664 478.752C716.747 469.766 718.655 451.162 719.907 437.407C721.155 423.651 723.521 411.567 725.162 410.553C726.802 409.538 728.143 398.744 728.143 386.56C728.143 374.376 729.515 364.41 731.193 364.41C732.872 364.41 735.062 353.966 736.059 341.198C737.057 328.429 739.546 306.469 741.592 292.39C744.502 272.4 744.378 266.2 741.028 264.071C736.623 261.276 686.158 260.86 676.103 263.538ZM756.366 276.768C754.082 285.306 752.215 296.434 752.215 301.493C752.215 306.555 750.692 319.299 748.831 329.815C742.377 366.284 734.983 424.662 735 439.002C735.011 446.929 733.473 454.37 731.582 455.54C729.691 456.709 728.143 466.142 728.143 476.499V495.334L761.672 494.35L795.201 493.367L797.732 474.453C800.342 454.955 805.799 415.03 809.369 389.342C811.239 375.861 817.553 368.379 817.553 379.641C817.553 382.34 819.496 386.598 821.872 389.098C824.245 391.594 830.05 401.378 834.768 410.835C839.486 420.291 844.507 428.545 845.924 429.174C847.34 429.807 848.503 433.287 848.503 436.911C848.503 440.536 849.662 443.511 851.082 443.517C852.502 443.524 856.522 450.488 860.02 458.992C863.517 467.496 867.774 474.453 869.476 474.453C871.182 474.453 872.575 476.885 872.575 479.856C872.575 492.469 881.344 495.375 916.3 494.354L949.949 493.367L954.337 462.417C956.751 445.395 959.554 422.183 960.568 410.835C961.583 399.486 963.801 387.107 965.496 383.324C967.191 379.541 969.354 367.161 970.303 355.813C971.256 344.465 973.667 323.574 975.665 309.389C977.663 295.203 979.657 278.955 980.097 273.281L980.898 262.964L956.827 261.905C943.587 261.324 927.865 261.754 921.891 262.861C911.633 264.766 910.935 265.877 909.34 282.834C907.232 305.286 900.649 358.973 898.17 373.943C896.544 383.774 895.677 384.565 891.32 380.205C888.576 377.464 886.33 373.561 886.33 371.532C886.33 369.506 884.783 367.849 882.891 367.849C881 367.849 879.452 365.112 879.452 361.769C879.452 358.427 875.842 350.301 871.43 343.715C867.018 337.13 861.223 326.71 858.555 320.565C855.886 314.42 852.533 309.389 851.103 309.389C849.672 309.389 848.503 306.294 848.503 302.511C848.503 298.728 847.272 295.633 845.769 295.633C844.266 295.633 840.219 288.804 836.776 280.458C829.448 262.682 826.082 261.355 788.175 261.293L760.52 261.245L756.366 276.768ZM1953.09 317.095C1957.75 322.463 1959.19 327.745 1957.84 334.489C1954.55 350.968 1948.5 354.094 1919.95 354.094H1893.91V340.562C1893.91 333.12 1895.42 323.061 1897.27 318.209C1900.4 309.959 1902.1 309.389 1923.51 309.389C1942.95 309.389 1947.42 310.554 1953.09 317.095ZM2316.89 335.18C2316.89 347.79 2318.39 357.532 2320.33 357.532C2322.22 357.532 2323.78 359.468 2323.8 361.831C2323.86 370.153 2356.47 391.921 2368.87 391.921C2372.43 391.921 2375.35 393.468 2375.35 395.36C2375.35 397.251 2380.67 398.799 2387.18 398.799C2393.69 398.799 2399.97 400.346 2401.14 402.237C2402.31 404.129 2406.66 405.724 2410.8 405.786C2418.63 405.9 2425.53 410.277 2433.06 419.906C2442.65 432.197 2420.85 453.841 2398.9 453.806C2394.46 453.8 2385.8 450.729 2379.65 446.98C2371.1 441.767 2368.47 437.778 2368.47 430.003C2368.47 424.411 2366.72 418.758 2364.59 417.437C2358.77 413.844 2301.95 415.89 2297.98 419.837C2296.09 421.715 2294.54 427.424 2294.54 432.52V441.784L2244.68 442.771C2181.18 444.03 2178.83 443.5 2183.02 428.906C2184.78 422.774 2186.21 413.493 2186.21 408.28V398.799H2242.5H2298.79L2301.3 384.183C2302.68 376.143 2304.04 364.926 2304.33 359.252L2304.85 348.935L2250.69 347.99L2196.53 347.04V331.941C2196.53 323.079 2198.31 316.122 2200.83 315.104C2203.2 314.151 2230.28 313.247 2261.01 313.099L2316.89 312.827V335.18ZM1100.26 320.499C1105.2 322.828 1111.7 330.314 1114.7 337.13C1120.81 350.971 1122.03 376.615 1116.73 379.885C1114.84 381.054 1113.29 387.158 1113.29 393.451C1113.29 414.232 1099.69 433.445 1080.63 439.594C1062.47 445.447 1038.87 443.696 1040.68 436.626C1041.41 433.789 1042.77 419.473 1043.7 404.817C1044.63 390.16 1046.75 378.166 1048.4 378.166C1050.05 378.166 1051.39 368.2 1051.39 356.016C1051.39 343.832 1052.94 332.91 1054.83 331.741C1056.73 330.572 1058.27 326.614 1058.27 322.941C1058.27 317.26 1060.73 316.266 1074.78 316.266C1083.86 316.266 1095.33 318.171 1100.26 320.499Z" fill="currentColor"/>
</svg>
