<svg width="1183" height="500" viewBox="0 0 1183 500" fill="none" xmlns="http://www.w3.org/2000/svg">
<path fill-rule="evenodd" clip-rule="evenodd" d="M61.0192 1.98082C60.7154 3.1207 59.6395 6.63945 58.6276 9.80169C57.6172 12.9623 55.355 21.2356 53.6028 28.1868C51.849 35.1364 49.638 43.7007 48.6883 47.2178C47.7371 50.735 45.9913 57.2097 44.8083 61.6062C43.6252 66.0026 41.5261 73.6205 40.1448 78.5333C38.7636 83.4461 37.6333 89.2382 37.6333 91.4029C37.6333 93.5675 37.0306 96.0231 36.2952 96.8577C35.5582 97.6938 32.6341 107.369 29.798 118.36C26.9619 129.351 23.5679 142.301 22.2537 147.137C16.0763 169.883 15.0068 173.887 13.7038 179.111C9.50242 195.957 6.69835 206.179 4.69997 211.937C3.46896 215.485 2.46174 220.388 2.46174 222.834C2.46174 225.28 1.71679 228.674 0.807121 230.375C-0.820363 233.414 0.616876 233.467 85.1389 233.44C163.146 233.414 172.168 233.141 182.351 230.495C195.015 227.205 213.491 219.354 213.491 217.261C213.491 216.503 214.446 215.881 215.614 215.881C217.774 215.881 233.486 200.006 237.011 194.261C244.52 182.022 248.663 169.373 248.663 158.678C248.663 150.136 244.154 132.749 241.938 132.749C241.24 132.749 240.669 131.989 240.669 131.06C240.669 128.582 231.179 120.192 224.391 116.667C221.154 114.985 218.059 112.888 217.513 112.007C216.968 111.125 220.337 108.597 224.999 106.388C246.934 95.9959 259.097 75.7212 257.866 51.5967C257.216 38.8422 254.605 30.126 250.042 25.469C248.602 24.0014 246.803 21.7792 246.046 20.5322C243.398 16.1805 233.115 9.63539 222.146 5.31728L211.093 0.967235L136.331 0.438073C76.1062 0.0112187 61.4636 0.31177 61.0192 1.98082ZM295.527 2.05434C293.712 4.49237 289.847 17.5394 286.173 33.6288C284.667 40.2235 282.894 46.7254 282.234 48.0779C281.572 49.432 280.501 53.7485 279.85 57.6702C279.201 61.5934 278.226 65.523 277.684 66.4023C276.045 69.0626 271.235 88.5028 271.137 92.8609C271.086 95.1039 270.4 97.6218 269.614 98.4564C267.743 100.444 264.866 112.635 262.274 129.551C261.129 137.025 259.692 146.378 259.08 150.334C257.176 162.66 265.105 198.296 269.753 198.296C270.464 198.296 271.044 199.272 271.044 200.467C271.044 203.17 284.566 217.445 291.028 221.563C302.664 228.976 308.761 231.235 327.799 235.178C364.662 242.812 416.661 235.827 442.303 219.797C450.568 214.63 469.284 195.907 469.284 192.806C469.284 191.616 470.27 190.265 471.477 189.803C472.683 189.34 475.14 185.845 476.937 182.038C486.684 161.386 490.123 153.255 491.461 147.698C492.277 144.312 495.271 132.909 498.114 122.357C500.958 111.806 503.602 101.374 503.99 99.1758C504.379 96.9776 505.321 93.7402 506.082 91.9816C506.844 90.223 508.181 85.5468 509.052 81.59C511.581 70.1097 514.213 60.2633 515.674 56.8101C516.419 55.0515 517.386 51.4544 517.822 48.8165C518.646 43.8573 521.325 33.4418 526.048 16.8424C531.066 -0.794551 534.748 0.916068 490.729 0.428462L452.221 0L449.435 10.0207C447.901 15.5314 446.004 22.5578 445.216 25.6353C439.937 46.2442 438.408 52.5255 437.719 56.4296C437.292 58.858 436.304 61.2401 435.527 61.7197C434.749 62.2009 434.113 64.2344 434.113 66.2408C434.113 69.8379 432.675 75.7963 423.086 111.965C420.405 122.077 417.747 132.149 417.179 134.347C415.448 141.057 409.054 153.971 404.07 160.833C401.099 164.921 395.905 169.076 390.079 172.024C382.099 176.062 379.016 176.713 367.856 176.713C352.716 176.713 343.386 173.333 339.264 166.355C335.76 160.425 335.592 138.234 338.99 130.104C340.308 126.947 341.388 123.096 341.388 121.547C341.388 119.996 342.423 115.227 343.69 110.95C344.957 106.672 348.943 91.6619 352.55 77.5933C356.157 63.5246 359.765 49.8557 360.569 47.2178C363.985 35.9997 370.657 10.0431 371.355 5.25176L372.113 0.0559606H334.564C306.384 0.0559606 296.644 0.554757 295.527 2.05434ZM559.828 6.90321C558.39 10.6698 557.213 15.6641 557.213 17.9998C557.213 20.3372 556.588 22.6361 555.824 23.1077C555.061 23.5793 553.95 26.9974 553.359 30.7032C552.765 34.409 551.189 41.0788 549.856 45.5264C548.521 49.974 546.81 56.1306 546.054 59.2081C543.602 69.1761 539.424 85.3901 537.199 93.5803C536.003 97.9768 534.297 104.452 533.405 107.969C530.961 117.622 526.956 132.589 524.422 141.542C523.178 145.938 520.953 154.931 519.479 161.525C518.003 168.12 516.257 174.955 515.599 176.713C513.91 181.215 510.774 192.635 508.131 203.891C506.892 209.167 505.231 216.001 504.44 219.079C503.648 222.156 502.523 226.658 501.941 229.084L500.881 233.491L600.589 233.08L700.297 232.668L701.679 226.273C702.44 222.756 703.643 218.439 704.356 216.681C705.069 214.922 705.982 211.685 706.387 209.487C706.79 207.288 708.232 201.173 709.591 195.898C710.949 190.622 712.529 183.968 713.101 181.11L714.141 175.914H654.86H595.582V171.386C595.582 168.897 597.054 161.883 598.856 155.799C600.656 149.716 602.757 142.221 603.524 139.143C604.917 133.562 608.3 120.629 612.727 103.972C614.012 99.1358 615.697 92.6611 616.471 89.5836C617.245 86.506 618.952 80.0313 620.264 75.1952C624.023 61.3488 627.652 47.7134 629.203 41.6223C633.107 26.2764 637.588 10.0862 638.773 7.04708C641.303 0.554735 638.501 0.0559606 599.477 0.0559606H562.444L559.828 6.90321ZM771.59 4.35966C770.513 6.72734 768.995 11.5826 768.22 15.1509C765.678 26.8583 762.191 40.6711 759.52 49.6159C758.076 54.452 756.257 61.2864 755.478 64.8036C754.698 68.3208 752.88 75.5149 751.437 80.7907C747.21 96.2406 739.179 126.682 737.729 132.749C736.994 135.826 734.132 146.617 731.37 156.729C728.607 166.841 725.794 177.632 725.116 180.71C724.439 183.787 722.264 192.061 720.281 199.095C716.706 211.784 714.505 220.615 712.807 229.071L711.925 233.467H811.161H910.4L912.168 226.673C913.14 222.937 914.97 216.641 916.236 212.684C917.501 208.727 918.534 204.014 918.529 202.212C918.524 200.409 919.236 198.221 920.11 197.346C920.983 196.473 922.164 191.293 922.735 185.835L923.773 175.914H865.325C820.132 175.914 806.728 175.463 806.215 173.925C805.553 171.939 806.482 167.639 810.747 152.948C811.989 148.672 813.006 143.575 813.006 141.625C813.006 139.674 813.545 137.538 814.204 136.88C814.862 136.221 816.237 132.323 817.257 128.219C818.276 124.116 820.707 114.284 822.659 106.37C824.611 98.4564 826.779 90.5428 827.476 88.7842C828.595 85.9609 834.918 62.0187 838.666 46.4185C839.404 43.341 841.196 36.5065 842.646 31.2307C847.112 14.9959 849.636 2.721 848.793 1.3573C848.35 0.64108 831.241 0.0559606 810.77 0.0559606H773.552L771.59 4.35966ZM916.153 1.60671C915.626 2.45882 917.021 6.58989 919.256 10.7865C921.49 14.9831 923.317 19.3204 923.317 20.4267C923.317 21.533 924.036 22.4379 924.916 22.4379C925.795 22.4379 926.514 23.1429 926.514 24.0062C926.514 25.5553 930.254 33.7471 948.06 71.1984C953.077 81.7499 960.423 97.2174 964.385 105.571C968.346 113.924 973.758 125.064 976.412 130.323C981.339 140.093 982.33 147.871 979.575 155.148C978.746 157.337 976.52 165.602 974.629 173.516C972.738 181.429 970.166 191.501 968.914 195.898C963.873 213.589 961.766 221.757 960.773 227.472L959.731 233.467H998.084H1036.44L1038.16 229.071C1039.1 226.654 1041.4 218.559 1043.27 211.085C1049.65 185.533 1053.2 172.339 1057.01 160.042C1058.22 156.147 1059.21 151.351 1059.21 149.383C1059.21 147.415 1059.78 145.565 1060.47 145.271C1061.17 144.979 1065.32 140.422 1069.7 135.147C1083.12 118.976 1083.91 118.05 1086.47 115.366C1087.84 113.935 1092.51 108.453 1096.86 103.184C1101.21 97.9144 1105.49 92.7762 1106.37 91.7674C1107.25 90.7586 1111.56 85.7754 1115.96 80.6915C1120.36 75.6092 1125.21 70.1353 1126.75 68.527C1128.29 66.9187 1129.55 65.2688 1129.55 64.8579C1129.55 64.4487 1131.53 62.0538 1133.95 59.5358C1136.37 57.0179 1140.97 51.7773 1144.19 47.8909C1149.88 41.0068 1152.34 38.1132 1161.22 27.8735C1163.59 25.1461 1168.4 19.4435 1171.92 15.2005C1175.43 10.9559 1179.21 6.5835 1180.31 5.48199C1185.34 0.449262 1182.35 0.0559606 1139.14 0.0559606C1090 0.0559606 1095.72 -1.59872 1082.48 16.4539C1078.13 22.3835 1074 27.234 1073.29 27.234C1072.58 27.234 1072 27.9886 1072 28.911C1072 29.8335 1067.5 36.2107 1062 43.0836C1045.51 63.7085 1032.86 80.156 1032.3 81.7179C1031.24 84.6259 1029.4 83.0832 1026.9 77.1936C1025.5 73.897 1020.25 60.7669 1015.23 48.0172C1010.2 35.2675 1005.12 22.6777 1003.93 20.0398C1002.74 17.4019 1000.35 11.8272 998.605 7.64982L995.438 0.0559606H956.274C932.7 0.0559606 916.729 0.673064 916.153 1.60671ZM171.925 50.9364C179.263 53.2098 181.186 54.6151 183.547 59.424C186.28 64.9891 186.27 65.4399 183.237 72.5125C177.445 86.0248 162.4 91.0576 127.511 91.1551C115.586 91.1871 114.587 89.8745 118.141 78.8514C119.498 74.642 121.118 68.3208 121.738 64.8036C122.358 61.2864 123.842 56.0715 125.035 53.213L127.204 48.0172L145.167 48.1147C157.341 48.1802 165.966 49.0899 171.925 50.9364ZM163.287 139.828C166.3 141.351 169.383 144.872 171.167 148.827C173.728 154.507 173.835 156.064 172.019 161.222C169.346 168.819 164.702 173.847 156.836 177.658C151.343 180.321 146.809 180.71 121.265 180.71C105.163 180.71 91.9893 180.457 91.9893 180.149C91.9893 177.599 101.865 141.602 103.299 138.921C105.11 135.54 105.671 135.489 131.741 136.397C151.207 137.076 159.663 137.996 163.287 139.828ZM607.572 260.118C585.277 263.531 557.18 276.281 541.472 290.114C527.328 302.57 512.798 321.207 507.108 334.186C505.76 337.263 502.801 343.896 500.536 348.926C498.269 353.955 495.967 361.509 495.418 365.712C494.87 369.915 493.899 374.073 493.263 374.953C492.625 375.832 491.7 383.026 491.207 390.94C489.754 414.279 493.661 438.525 500.665 449.619C502.75 452.922 504.456 456.372 504.456 457.288C504.456 460.759 526.305 480.693 534.032 484.271C538.428 486.308 544.184 488.952 546.821 490.151C565.413 498.592 591.662 501.57 622.418 498.726C634.1 497.647 644.034 496.154 644.494 495.409C644.955 494.666 646.547 494.052 648.034 494.047C649.521 494.04 652.798 492.961 655.316 491.649C657.836 490.335 660.728 489.26 661.745 489.26C664.123 489.26 688.935 474.826 689.639 473.032C689.933 472.285 691.012 471.66 692.037 471.643C694.569 471.601 708.281 458.448 717.084 447.62C723.151 440.158 735.16 418.543 739.693 406.927C745.677 391.597 749.745 363.375 748.196 347.946C745.776 323.847 735.467 300.34 720.43 284.626C715.976 279.97 698.839 268.639 696.254 268.639C694.814 268.639 693.132 268.135 692.517 267.518C691.901 266.903 687.284 265.003 682.257 263.299C674.705 260.736 667.847 260.127 642.744 259.792C626.037 259.568 610.21 259.715 607.572 260.118ZM880.951 260.084C861.887 264.054 853.527 266.151 852.255 267.286C851.418 268.03 849.543 268.639 848.085 268.639C844.88 268.639 826.562 278.041 817.305 284.439C806.164 292.137 795.758 302.01 787.867 312.37C783.75 317.773 779.978 322.555 779.486 322.995C776.031 326.079 766.151 350.505 762.351 365.361C758.244 381.416 758.354 415.365 762.567 432.107C764.282 438.922 766.26 444.497 766.963 444.497C767.667 444.497 768.242 445.847 768.242 447.499C768.242 449.149 769.322 451.395 770.64 452.49C771.959 453.585 773.039 455.36 773.039 456.432C773.039 459.886 798.786 484.464 802.402 484.464C802.91 484.464 807.123 486.236 811.764 488.399C833.681 498.621 857.704 501.9 889.264 498.976C900.519 497.933 912.246 496.45 915.323 495.678C942.789 488.792 951.015 486.226 968.081 479.222C982.554 473.283 984.068 472.22 984.068 467.996C984.068 466.186 984.746 462.498 985.575 459.798C987.054 454.981 989.977 442.172 999.28 399.733C1000.72 393.138 1002.93 384.081 1004.18 379.608C1007.14 369.018 1007.05 363.536 1003.92 362.334C1000.29 360.94 895.69 361.18 893.567 362.587C890.387 364.694 883.129 393.533 882.745 405.582L882.55 411.723L904.706 412.169C926.78 412.614 926.86 412.628 925.752 416.166C925.139 418.119 924.102 422.737 923.445 426.426C921.998 434.554 919.998 437.163 913.272 439.689C910.444 440.752 906.399 442.449 904.286 443.459C899.189 445.894 862.86 445.94 861.308 443.513C860.681 442.532 858.713 441.277 856.936 440.724C850.597 438.749 842.539 429.649 837.81 419.122C835.009 412.888 834.351 381.378 836.987 379.749C837.866 379.205 838.586 376.344 838.586 373.389C838.586 370.435 839.63 365.981 840.905 363.492C842.181 361.002 844.518 355.551 846.101 351.378C847.682 347.204 849.518 343.788 850.176 343.784C850.835 343.781 851.378 342.88 851.383 341.78C851.386 340.681 853.545 337.482 856.179 334.672C858.812 331.863 860.967 328.804 860.967 327.877C860.967 326.95 861.693 326.192 862.581 326.192C863.466 326.192 866.363 324.259 869.015 321.896C876.238 315.458 884.27 313.054 899.336 312.817C909.712 312.654 914.438 313.323 919.32 315.642C926.78 319.187 934.885 327.238 937.939 334.133C940.391 339.674 941.742 339.872 960.087 337.364C966.682 336.462 981.296 334.756 992.562 333.575C1003.83 332.392 1013.74 330.729 1014.59 329.879C1016 328.472 1010.6 310.811 1008.09 308.606C1007.59 308.167 1006.38 306.009 1005.41 303.81C1001.91 295.938 989.796 283.006 979.43 276.068C960.377 263.318 942.209 259.035 908.129 259.259C894.94 259.347 882.71 259.716 880.951 260.084ZM278.059 263.467C276.245 264.666 275.933 265.916 272.581 285.425C271.523 291.58 270.082 298.055 269.377 299.814C268.21 302.728 263.662 322.845 259.615 342.979C258.733 347.375 257.305 353.295 256.443 356.133C255.58 358.97 254.213 364.726 253.403 368.922C250.197 385.523 243.684 415.605 239.809 431.707C238.432 437.422 236.891 445.531 236.383 449.726C235.875 453.921 234.834 457.74 234.068 458.213C233.302 458.687 232.676 460.551 232.676 462.357C232.676 464.164 231.195 471.767 229.385 479.254C227.576 486.739 226.485 493.881 226.962 495.123C227.694 497.032 238.72 497.286 298.597 496.768C344.977 496.367 372.671 495.492 378.957 494.231C394.321 491.148 413.449 484.261 422.621 478.511C432.092 472.573 451.684 454.317 451.693 451.424C451.695 450.399 452.239 449.32 452.897 449.026C454.152 448.468 464.488 433.734 464.488 432.503C464.488 432.113 466.232 427.998 468.362 423.357C478.475 401.335 482.501 381.354 481.657 357.367C480.854 334.579 479.017 326.462 470.777 309.332C460.998 288.995 444.14 274.695 421.323 267.379C418.245 266.393 409.632 264.834 402.18 263.915C386.922 262.033 280.809 261.651 278.059 263.467ZM644.343 315.001C644.886 315.881 646.429 316.6 647.773 316.6C651.473 316.6 663.679 325.927 665.722 330.314C666.713 332.443 668.424 336.095 669.522 338.429C670.68 340.888 671.463 348.454 671.381 356.414C671.217 372.788 666.723 390.571 658.502 407.376C652.648 419.347 638.563 436.503 634.591 436.503C633.359 436.503 632.352 437.053 632.352 437.726C632.352 438.399 628.838 440.198 624.544 441.723C616.303 444.65 594.84 445.579 593.293 443.075C592.81 442.294 590.429 441.163 588.003 440.565C581.728 439.019 571.182 426.943 568.666 418.422C565.568 407.928 567.844 380.487 572.871 367.759C578.815 352.707 580.818 348.453 585.44 341.065C593.595 328.031 602.129 320.827 615.566 315.636C621.563 313.319 643.011 312.846 644.343 315.001ZM389.279 319.761C397.378 323.893 401.776 330.312 404.874 342.523C407.027 351.009 407.11 354.35 405.441 365.308C403.467 378.278 400.404 389.766 396.354 399.387C395.139 402.275 394.145 405.367 394.145 406.259C394.145 409.533 382.398 426.252 376.826 430.908C368.909 437.523 365.108 439.291 354.642 441.226C344.989 443.01 322.414 443.492 318.518 441.996C316.727 441.309 316.48 439.887 317.479 436.001C318.2 433.2 319.96 424.792 321.393 417.319C322.825 409.845 324.614 401.571 325.367 398.933C326.12 396.296 327.202 391.619 327.771 388.542C328.755 383.224 331.736 369.103 335.199 353.37C336.069 349.413 337.789 342.219 339.02 337.383C340.249 332.547 341.679 325.893 342.193 322.595L343.132 316.6H363.106C379.851 316.6 384.084 317.112 389.279 319.761Z" fill="white"/>
</svg>
