<svg width="1927" height="500" viewBox="0 0 1927 500" fill="none" xmlns="http://www.w3.org/2000/svg">
<path fill-rule="evenodd" clip-rule="evenodd" d="M810.843 0.873672C800.15 1.56301 763.562 3.85373 729.536 5.96417C448.452 23.4062 202.779 76.9201 85.284 146.299C-158.314 290.138 140.622 451.783 727.769 493.716C815.944 500.012 1030.54 502.097 1123.7 497.565C1533.15 477.631 1840.39 398.177 1912.41 293.599C1925.06 275.241 1926.16 271.731 1926.16 249.757C1926.16 227.776 1925.06 224.276 1912.39 205.876C1893.43 178.348 1866.46 157.87 1816.57 133.103C1765.07 107.541 1731.66 95.1788 1663.54 76.4782C1542.72 43.3122 1403.46 21.773 1205 5.55764C1160.95 1.95893 851.136 -1.72461 810.843 0.873672ZM1134.3 27.0827C1531.15 46.1084 1830.1 123.187 1879.02 219.101C1888.94 238.54 1886.75 263.968 1873.41 284.086C1820.66 363.636 1581.96 431.375 1259.8 458.209C1126.61 469.306 901.772 472.548 766.655 465.325C538.236 453.112 340.24 421.855 203.709 376.454C179.882 368.532 160.39 360.475 160.39 358.549C160.39 356.626 162.681 355.933 165.477 357.004C426.634 457.22 958.132 492.758 1387.06 438.685C1638.74 406.958 1811.7 351.125 1865.45 284.259C1881.04 264.866 1882.75 238.303 1869.83 216.258C1827.71 144.38 1622.07 79.5113 1337.57 48.3638C1193.05 32.5408 922.332 25.5803 771.441 33.8064C340.852 57.2793 40.1977 144.231 40.1977 245.288C40.1977 277.723 63.6882 303.918 122.254 336.787C141.283 347.466 156.855 356.983 156.855 357.93C156.855 358.877 140.548 351.319 120.621 341.128C23.2576 291.354 7.53007 231.88 77.475 177.991C98.8268 161.539 162.614 130.268 201.043 117.414C338.886 71.3029 543.85 39.1726 775.492 27.362C857.305 23.1941 1050.02 23.0421 1134.3 27.0827ZM282.76 159.832C300.909 173.385 307.11 185.111 306.915 205.512C306.816 215.877 304.674 226.842 302.161 229.872C298.385 234.418 298.647 238.162 303.645 251.256C310.79 269.96 308.722 286.907 297.572 301.086C287.172 314.304 270.582 320.458 245.345 320.458H224.021V301.192V281.926L243.98 280.865C257.926 280.123 265.056 278.03 267.641 273.915C274.152 263.537 264.491 256.827 243.033 256.827H224.021V237.561V218.295L243.98 217.234C266.329 216.046 275.096 208.927 266.69 198.795C263.218 194.613 255.445 193.196 235.963 193.196H209.881V256.827V320.458H190.438H170.995V257.806V195.154L193.089 172.713L215.184 150.269L244.09 151.408C266.562 152.288 275.174 154.165 282.76 159.832ZM464.406 212.815C464.406 277.2 462.667 286.405 447.187 304.041C431.986 321.363 396.985 329.066 373.608 320.232C359.461 314.887 344.394 299.799 336.776 283.34C331.618 272.201 330.211 260.546 330.151 228.412L330.073 187.628L347.505 170.458L364.936 153.288L366.064 212.444L367.192 271.596L377.111 280.12C390.831 291.909 405.773 291.259 418.722 278.31L429.055 267.977V209.376V150.775H446.731H464.406V212.815ZM609.348 171.101V191.428L578.582 190.802C545.554 190.134 535.108 193.182 535.108 203.493C535.108 213.133 541.81 216.852 562.621 218.754C610.521 223.131 626.178 282.583 587.01 311.37C578.133 317.892 570.533 318.882 517.28 320.458L457.513 322.226L477.641 301.899L497.767 281.572H530.402C557.622 281.572 563.604 280.561 566.45 275.478C572.19 265.216 564.901 256.827 550.241 256.827C508.534 256.827 480.551 214.123 499.241 178.999C502.847 172.226 511.992 163.13 519.567 158.785C531.452 151.973 538.547 150.884 571.342 150.831L609.344 150.775L609.348 171.101ZM782.563 235.617V320.458H761.352H740.142V288.643V256.827H711.861H683.581V288.643V320.458H662.37H641.16V257.601V194.74L662.37 173.753L683.581 152.765V183.584V214.406H711.861H740.142V182.59V150.775H761.352H782.563V235.617ZM970.957 233.442L886.847 316.11L885.829 284.701C885.271 267.425 883.881 253.292 882.743 253.292C881.601 253.292 865.357 267.934 846.639 285.829L812.611 318.369L811.642 256.855L810.67 195.341L831.085 174.69L851.496 154.038L853.264 186.871L855.032 219.709L889.498 186.49L923.965 153.271V185.606C923.965 203.391 924.899 217.941 926.04 217.941C927.186 217.941 944.243 202.829 963.947 184.358L999.775 150.775H1027.42H1055.06L970.957 233.442ZM1132.53 235.617V320.458H1113.33C1095 320.458 1094.07 320.013 1093 310.737L1091.88 301.015L1057.81 300.008L1023.73 299L1043.98 279.681C1061.87 262.621 1065.96 260.362 1078.94 260.362H1093.65V239.152C1093.65 227.486 1092.46 218.015 1091 218.107C1089.54 218.199 1065.28 240.368 1037.09 267.376L985.829 316.474L984.811 289L983.793 261.525L1039.6 206.212L1095.42 150.899L1113.98 150.835L1132.53 150.775V235.617ZM1277.47 170.218C1261.41 186.483 1256.23 189.664 1245.78 189.675C1220.13 189.699 1198.52 211.292 1198.52 236.889C1198.52 263.646 1217.36 281.572 1245.48 281.572H1259.8V299.248C1259.8 308.969 1259.74 318.118 1259.67 319.574C1259.47 323.661 1227.02 321.855 1212.09 316.93C1194.56 311.143 1171.92 290.385 1163.88 272.735C1148.4 238.749 1160.82 188.515 1189.36 169.62C1211.12 155.225 1227.43 151.096 1263.21 150.93L1296.68 150.775L1277.47 170.218ZM1419.2 187.773L1381.76 224.774L1402.08 245.32L1422.41 265.87V291.69V317.514L1413.9 311.03C1409.22 307.467 1393.25 293.56 1378.41 280.13L1351.43 255.71L1339.2 267.567C1328.01 278.412 1326.96 281.18 1326.96 299.941V320.458H1307.52H1288.08V255.823V191.188L1307.52 171.985L1326.96 152.783V183.594C1326.96 200.542 1328 214.406 1329.27 214.406C1330.53 214.406 1346.37 200.089 1364.46 182.59L1397.35 150.775H1427H1456.64L1419.2 187.773ZM1576.19 170.062L1554.98 189.335L1524.04 189.498L1493.11 189.661V202.033V214.406H1526.69H1560.28V233.849V253.292H1526.69H1493.11V267.432V281.572H1526.69H1560.28V301.015V320.458H1507.25H1454.23V255.36V190.258L1474.55 170.589L1494.88 150.916L1546.14 150.853L1597.4 150.789L1576.19 170.062ZM1705.3 157.891C1735.48 173.286 1743.84 211.571 1723.14 239.572L1715.83 249.46L1728.2 259.33C1740.16 268.878 1740.57 269.988 1740.57 293.355C1740.57 306.643 1739.21 316.983 1737.55 316.333C1735.89 315.686 1715.64 297.261 1692.56 275.386L1650.59 235.617H1667.1C1685.18 235.617 1694.61 227.465 1694.61 211.85C1694.61 197.063 1682.82 189.661 1659.26 189.661H1638.05V255.059V320.458H1618.61H1599.16V256.046V191.633L1619.38 171.204L1639.59 150.775H1665.48C1684.44 150.775 1695.09 152.677 1705.3 157.891Z" fill="white"/>
</svg>
