<svg width="942" height="500" viewBox="0 0 942 500" fill="none" xmlns="http://www.w3.org/2000/svg">
<path fill-rule="evenodd" clip-rule="evenodd" d="M0.158203 192.766V385.533L172.907 385.099L345.656 384.665L357.259 380.369C377.871 372.738 398.58 357.423 412.192 339.746C418.412 331.667 427.776 311.327 430.368 300.265C435.053 280.264 433.381 252.738 426.355 234.261C424.921 230.488 424.461 230.744 398.019 249.965C383.237 260.712 370.558 269.504 369.844 269.504C368.319 269.504 370.218 262.906 380.873 231.173C385.202 218.279 388.745 206.874 388.745 205.827C388.745 204.781 376.274 194.884 361.03 183.833L333.317 163.739L368.368 162.956L403.42 162.172L413.71 130.524C419.37 113.118 424.392 98.5068 424.869 98.0555C425.349 97.6042 430.587 112.021 436.511 130.095L447.284 162.956H481.566C500.979 162.956 515.476 163.556 514.993 164.339C514.523 165.099 505.492 171.929 494.923 179.516C484.355 187.103 473.459 195.237 470.709 197.589C467.96 199.942 464.491 202.549 463.001 203.383C460.721 204.658 460.568 205.613 462.033 209.389C462.99 211.858 471.636 238.205 481.246 267.937C490.856 297.668 503.392 336.273 509.104 353.724L519.489 385.453H568.499C595.456 385.453 617.51 385.107 617.51 384.682C617.51 383.736 665.926 199.08 666.975 196.028C667.387 194.828 668.012 194.134 668.365 194.486C668.717 194.839 679.657 235.659 692.675 285.198C705.694 334.736 717.08 377.57 717.98 380.383L719.614 385.497L768.354 385.083L817.093 384.67L827.549 352.549C833.299 334.882 844.408 300.685 852.234 276.555C860.06 252.425 881.368 186.851 899.585 130.835C917.801 74.8186 934.482 23.3967 936.652 16.5635C938.824 9.7319 940.961 3.19958 941.403 2.05106C942.064 0.327487 932.37 0.0329038 886.215 0.37135L830.225 0.783441L824.249 18.8026C817.725 38.4764 783.66 143.429 778.479 159.822C776.708 165.424 774.737 170.607 774.099 171.342C773.045 172.553 765.303 149.52 729.023 37.237L717.007 0.0454505L668.238 0.0235023L619.467 0L605.29 43.481C597.491 67.3947 584.89 106.175 577.288 129.66C569.685 153.144 563.076 172.357 562.6 172.357C562.124 172.357 559.095 164.073 555.872 153.946C551.066 138.852 531.516 78.482 509.951 12.1433L506.004 0H450.508C419.986 0 395.013 0.502965 395.013 1.11718C395.013 1.73297 397.897 11.305 401.424 22.3876C404.95 33.4717 407.499 42.8777 407.087 43.2898C406.675 43.7004 404.799 41.549 402.921 38.5077C397.488 29.7175 381.62 16.3927 369.418 10.3712C347.61 -0.388582 356.068 0.0485724 168.99 0.0235023L0.158203 0V192.766ZM267.307 89.5019C275.914 91.8914 286.061 102.324 288.468 111.26C292.495 126.217 286.177 141.308 272.727 148.854L265.745 152.771H190.534H115.324L114.901 120.258L114.476 87.7454L187.761 87.7548C236.605 87.7595 263.133 88.3424 267.307 89.5019ZM288.723 238.97C308.483 252.707 306.708 282.854 285.476 294.062L278.57 297.708H196.556H114.541V265.547V233.386L198.236 233.818L281.929 234.249L288.723 238.97ZM593.223 432.27C564.469 445.46 565.228 485.336 594.472 497.946C603.574 501.871 624.221 499.188 627.652 493.635C628.271 492.636 626.916 489.131 624.641 485.849L620.504 479.88L614.135 482.075C600.501 486.772 589.306 478.496 589.306 463.719C589.306 458.377 590.285 456.237 594.785 451.737C599.803 446.72 600.892 446.314 607.712 446.916C611.808 447.278 616.333 448.102 617.767 448.75C619.708 449.626 621.407 448.406 624.426 443.964C626.654 440.683 628.478 437.423 628.478 436.72C628.478 436.016 625.481 434.08 621.819 432.417C613.405 428.597 601.363 428.536 593.223 432.27ZM778.115 431.524C766.964 436.446 763.421 447.445 769.856 457.169C773.745 463.045 777.589 465.546 791.934 471.533C798.666 474.344 799.43 475.156 798.985 479.034C798.541 482.896 797.775 483.435 792.153 483.849C787.394 484.2 784.325 483.299 779.795 480.224L773.767 476.135L768.507 481.233L763.246 486.332L766.632 489.936C779.276 503.395 806.325 502.628 814.899 488.566C822.717 475.745 816.164 463.413 798.391 457.498C787.256 453.793 783.263 450.83 784.623 447.285C786.255 443.028 793.15 442.66 799.779 446.475L805.935 450.02L810.658 445.297C816.465 439.49 815.691 436.996 806.734 432.66C798.792 428.815 785.45 428.285 778.115 431.524ZM0.158203 437.865V444.838L9.16778 445.308L18.1774 445.778L18.9608 472.415L19.7442 499.052H27.5786H35.4131L35.8424 472.023L36.2701 444.995H45.6354H54.9991V437.944V430.893H27.5786H0.158203V437.865ZM62.8335 465.446V500L71.0596 499.525L79.2858 499.052L79.7464 487.692C80.1993 476.498 80.2682 476.332 84.4471 476.345C88.1183 476.357 89.5269 477.935 94.9421 488.096L101.195 499.835H118.021H134.846L138.044 493.568L141.242 487.3H153.507H165.773L168.235 493.568C170.657 499.735 170.825 499.835 178.657 499.835C183.971 499.835 186.623 499.185 186.634 497.877C186.644 496.8 180.884 481.288 173.833 463.405L161.016 430.893H152.846C146.427 430.893 144.499 431.48 143.849 433.635C143.393 435.142 139.376 445.543 134.919 456.746C130.465 467.949 125.402 481.169 123.669 486.125C121.938 491.081 120.056 495.122 119.489 495.108C118.922 495.093 115.805 490.077 112.562 483.96L106.667 472.84L112.17 466.746C118.494 459.748 119.492 451.648 115.158 442.514C110.565 432.837 105.121 430.893 82.6264 430.893H62.8335V465.446ZM192.885 465.364V499.835H201.503H210.12V465.364V430.893H201.503H192.885V465.364ZM220.222 432.894C219.801 433.994 219.646 449.33 219.881 466.973L220.305 499.052H243.025H265.745L266.223 491.609L266.701 484.167H252.512H238.324V457.53V430.893H229.658C224.072 430.893 220.717 431.604 220.222 432.894ZM273.156 464.933L273.579 499.052H298.649H323.719L324.197 491.609L324.675 484.167H308.137H291.598V477.899V471.632H304.133H316.668V464.581V457.53H304.133H291.598V451.262V444.995H308.14H324.683L324.2 438.335L323.719 431.676L298.226 431.245L272.735 430.814L273.156 464.933ZM332.698 464.853L333.121 499.052H341.739H350.356L350.817 487.692C351.254 476.893 351.461 476.332 355.016 476.332C358.048 476.332 359.982 478.556 365.242 488.084L371.729 499.835H381.02C386.131 499.835 390.312 499.39 390.312 498.847C390.312 498.301 387.379 492.354 383.795 485.627L377.279 473.396L382.152 467.846C390.849 457.94 390.303 445.38 380.776 436.244C376.045 431.706 375.87 431.673 354.145 431.165L332.276 430.654L332.698 464.853ZM420.443 464.972L420.866 499.052H428.701H436.535L437.318 484.95L438.102 470.848H449.853H461.605L462.389 484.95L463.172 499.052L471.398 499.525L479.624 500V465.446V430.893H471.006H462.389V442.644V454.396H449.853H437.318V442.644V430.893H428.669H420.022L420.443 464.972ZM492.159 465.446V500L500.385 499.525L508.612 499.052L509.035 464.972L509.456 430.893H500.808H492.159V465.446ZM517.229 437.865V444.838L526.239 445.308L535.249 445.778L535.678 472.887L536.107 499.997L544.296 499.524L552.484 499.052L552.914 472.023L553.341 444.995H562.707H572.07V437.944V430.893H544.65H517.229V437.865ZM637.013 432.894C636.591 433.994 636.436 449.33 636.671 466.973L637.096 499.052H645.714H654.332L654.783 484.558L655.233 470.065H666.867H678.501L678.95 484.558L679.402 499.052H688.02H696.637V465.364V431.676L687.628 431.206L678.618 430.736V442.566V454.396H666.867H655.115V442.644V430.893H646.449C640.863 430.893 637.508 431.604 637.013 432.894ZM708.749 464.972L709.172 499.052H734.243H759.313L759.791 491.609L760.268 484.167H742.947H725.625V477.962V471.759L738.552 471.303L751.478 470.848V464.581V458.313L738.461 457.857L725.443 457.4L725.926 451.59L726.408 445.778L742.469 445.331L758.529 444.885V437.889V430.893H733.428H708.328L708.749 464.972ZM95.1943 445.729C103.773 451.738 98.1855 462.23 86.4072 462.23H80.0692V452.829V443.428H85.9873C89.2433 443.428 93.3861 444.463 95.1943 445.729ZM367.888 447.486C373.227 454.784 367.758 462.23 357.058 462.23H351.14V452.625V443.02L358.487 443.848C363 444.357 366.627 445.761 367.888 447.486ZM157.103 462.558C158.686 467.052 159.98 471.284 159.98 471.964C159.98 472.642 156.732 473.198 152.762 473.198C147.646 473.198 145.753 472.628 146.265 471.24C146.663 470.163 148.221 465.533 149.727 460.953C151.232 456.373 152.862 453.022 153.344 453.506C153.829 453.99 155.521 458.062 157.103 462.558Z" fill="white"/>
</svg>
