<svg width="942" height="501" viewBox="0 0 942 501" fill="none" xmlns="http://www.w3.org/2000/svg">
<path fill-rule="evenodd" clip-rule="evenodd" d="M0.158203 193.26V386.027L172.907 385.593L345.656 385.159L357.259 380.863C377.871 373.232 398.58 357.917 412.192 340.24C418.412 332.161 427.776 311.821 430.368 300.759C435.053 280.758 433.381 253.232 426.355 234.756C424.921 230.983 424.461 231.238 398.019 250.459C383.237 261.206 370.558 269.998 369.844 269.998C368.319 269.998 370.218 263.4 380.873 231.667C385.202 218.773 388.745 207.368 388.745 206.321C388.745 205.275 376.274 195.378 361.03 184.327L333.317 164.233L368.368 163.45L403.42 162.666L413.71 131.019C419.37 113.612 424.392 99.0009 424.87 98.5496C425.349 98.0984 430.587 112.515 436.511 130.589L447.284 163.45H481.566C500.979 163.45 515.476 164.05 514.993 164.833C514.523 165.593 505.492 172.423 494.923 180.01C484.355 187.597 473.459 195.731 470.709 198.083C467.96 200.436 464.491 203.043 463.001 203.877C460.721 205.152 460.568 206.107 462.033 209.883C462.99 212.352 471.636 238.699 481.246 268.431C490.856 298.163 503.392 336.767 509.104 354.218L519.489 385.947H568.499C595.456 385.947 617.51 385.601 617.51 385.176C617.51 384.23 665.926 199.574 666.975 196.522C667.387 195.322 668.012 194.628 668.365 194.98C668.717 195.333 679.657 236.153 692.675 285.692C705.694 335.23 717.081 378.064 717.98 380.877L719.614 385.991L768.354 385.577L817.093 385.164L827.549 353.043C833.299 335.376 844.409 301.179 852.234 277.049C860.06 252.919 881.368 187.345 899.585 131.329C917.801 75.3128 934.482 23.8908 936.652 17.0577C938.824 10.226 940.961 3.69372 941.403 2.5452C942.064 0.821628 932.37 0.527044 886.214 0.865491L830.225 1.27758L824.249 19.2967C817.724 38.9705 783.66 143.923 778.479 160.316C776.708 165.918 774.737 171.101 774.099 171.836C773.045 173.047 765.303 150.014 729.023 37.7311L717.007 0.539591L668.238 0.517643L619.467 0.494141L605.29 43.9751C597.491 67.8889 584.891 106.669 577.288 130.154C569.685 153.638 563.076 172.851 562.6 172.851C562.124 172.851 559.095 164.567 555.872 154.44C551.066 139.347 531.516 78.9762 509.951 12.6375L506.004 0.494141H450.508C419.986 0.494141 395.013 0.997106 395.013 1.61132C395.013 2.22711 397.897 11.7992 401.424 22.8817C404.95 33.9659 407.499 43.3719 407.087 43.784C406.675 44.1945 404.799 42.0432 402.921 39.0018C397.488 30.2116 381.62 16.8869 369.418 10.8653C347.61 0.105559 356.068 0.542713 168.99 0.517643L0.158203 0.494141V193.26ZM267.307 89.996C275.914 92.3855 286.061 102.818 288.468 111.754C292.495 126.711 286.177 141.802 272.727 149.348L265.745 153.265H190.534H115.324L114.901 120.752L114.476 88.2396L187.761 88.2489C236.605 88.2536 263.133 88.8365 267.307 89.996ZM288.723 239.464C308.483 253.201 306.708 283.348 285.477 294.556L278.57 298.202H196.556H114.541V266.042V233.88L198.236 234.312L281.929 234.743L288.723 239.464ZM593.223 432.764C564.469 445.954 565.228 485.83 594.472 498.44C603.574 502.365 624.221 499.682 627.652 494.129C628.271 493.13 626.916 489.625 624.641 486.344L620.504 480.374L614.135 482.569C600.501 487.267 589.306 478.99 589.306 464.213C589.306 458.871 590.285 456.731 594.785 452.231C599.803 447.214 600.892 446.808 607.712 447.41C611.808 447.772 616.333 448.596 617.767 449.245C619.708 450.12 621.407 448.9 624.426 444.458C626.654 441.177 628.478 437.918 628.478 437.214C628.478 436.51 625.481 434.574 621.819 432.911C613.405 429.091 601.363 429.03 593.223 432.764ZM778.115 432.018C766.964 436.94 763.421 447.939 769.856 457.663C773.745 463.539 777.589 466.04 791.934 472.027C798.667 474.838 799.43 475.65 798.985 479.528C798.541 483.39 797.775 483.929 792.153 484.343C787.394 484.694 784.325 483.793 779.795 480.719L773.767 476.629L768.507 481.728L763.246 486.826L766.632 490.43C779.276 503.89 806.326 503.122 814.899 489.061C822.717 476.239 816.164 463.907 798.391 457.992C787.256 454.287 783.263 451.324 784.623 447.78C786.255 443.522 793.15 443.154 799.779 446.969L805.935 450.514L810.658 445.791C816.465 439.984 815.691 437.49 806.734 433.154C798.792 429.309 785.45 428.78 778.115 432.018ZM0.158203 438.359V445.332L9.16778 445.802L18.1774 446.272L18.9608 472.909L19.7442 499.546H27.5786H35.4131L35.8424 472.517L36.2701 445.489H45.6354H54.9991V438.438V431.387H27.5786H0.158203V438.359ZM62.8335 465.94V500.494L71.0596 500.019L79.2858 499.546L79.7464 488.186C80.1993 476.992 80.2682 476.826 84.4471 476.839C88.1183 476.851 89.5269 478.429 94.9421 488.591L101.195 500.33H118.021H134.846L138.044 494.062L141.242 487.795H153.507H165.773L168.235 494.062C170.657 500.229 170.825 500.33 178.657 500.33C183.971 500.33 186.623 499.679 186.634 498.371C186.644 497.295 180.884 481.782 173.833 463.9L161.016 431.387H152.846C146.427 431.387 144.499 431.974 143.849 434.129C143.393 435.636 139.376 446.037 134.919 457.24C130.465 468.444 125.402 481.663 123.669 486.619C121.938 491.575 120.056 495.616 119.489 495.602C118.922 495.587 115.805 490.571 112.562 484.454L106.667 473.334L112.17 467.24C118.494 460.242 119.492 452.142 115.158 443.008C110.565 433.331 105.121 431.387 82.6264 431.387H62.8335V465.94ZM192.885 465.858V500.33H201.503H210.12V465.858V431.387H201.503H192.885V465.858ZM220.222 433.388C219.801 434.488 219.646 449.824 219.881 467.467L220.305 499.546H243.025H265.745L266.223 492.103L266.701 484.661H252.512H238.324V458.024V431.387H229.658C224.072 431.387 220.717 432.098 220.222 433.388ZM273.156 465.427L273.579 499.546H298.649H323.719L324.197 492.103L324.675 484.661H308.137H291.598V478.393V472.126H304.133H316.668V465.075V458.024H304.133H291.598V451.756V445.489H308.14H324.683L324.2 438.829L323.719 432.17L298.226 431.739L272.735 431.308L273.156 465.427ZM332.698 465.347L333.121 499.546H341.739H350.356L350.817 488.186C351.254 477.387 351.461 476.826 355.016 476.826C358.048 476.826 359.982 479.05 365.242 488.578L371.729 500.33H381.02C386.131 500.33 390.312 499.885 390.312 499.341C390.312 498.796 387.379 492.848 383.795 486.121L377.279 473.89L382.152 468.34C390.849 458.434 390.303 445.874 380.776 436.738C376.045 432.2 375.87 432.167 354.145 431.659L332.276 431.149L332.698 465.347ZM420.443 465.466L420.866 499.546H428.701H436.535L437.318 485.444L438.102 471.342H449.853H461.605L462.388 485.444L463.172 499.546L471.398 500.019L479.624 500.494V465.94V431.387H471.006H462.388V443.138V454.89H449.853H437.318V443.138V431.387H428.669H420.022L420.443 465.466ZM492.159 465.94V500.494L500.385 500.019L508.612 499.546L509.035 465.466L509.456 431.387H500.808H492.159V465.94ZM517.229 438.359V445.332L526.239 445.802L535.249 446.272L535.678 473.381L536.107 500.491L544.296 500.018L552.484 499.546L552.914 472.517L553.341 445.489H562.707H572.07V438.438V431.387H544.65H517.229V438.359ZM637.013 433.388C636.591 434.488 636.436 449.824 636.671 467.467L637.096 499.546H645.714H654.332L654.783 485.053L655.233 470.559H666.867H678.501L678.95 485.053L679.402 499.546H688.02H696.637V465.858V432.17L687.628 431.7L678.618 431.23V443.06V454.89H666.867H655.115V443.138V431.387H646.449C640.863 431.387 637.508 432.098 637.013 433.388ZM708.749 465.466L709.172 499.546H734.243H759.313L759.791 492.103L760.268 484.661H742.947H725.625V478.456V472.253L738.552 471.797L751.478 471.342V465.075V458.807L738.461 458.351L725.443 457.894L725.926 452.084L726.408 446.272L742.469 445.826L758.529 445.379V438.383V431.387H733.428H708.328L708.749 465.466ZM95.1943 446.224C103.773 452.233 98.1855 462.724 86.4072 462.724H80.0692V453.323V443.922H85.9873C89.2433 443.922 93.3861 444.958 95.1943 446.224ZM367.888 447.98C373.227 455.279 367.758 462.724 357.058 462.724H351.14V453.119V443.514L358.487 444.342C363 444.851 366.627 446.255 367.888 447.98ZM157.103 463.052C158.686 467.546 159.98 471.778 159.98 472.458C159.98 473.136 156.732 473.693 152.762 473.693C147.646 473.693 145.753 473.122 146.265 471.734C146.663 470.658 148.221 466.027 149.727 461.447C151.232 456.867 152.862 453.516 153.344 454C153.829 454.484 155.521 458.557 157.103 463.052Z" fill="currentColor"/>
</svg>
