<svg width="1400" height="500" viewBox="0 0 1400 500" fill="none" xmlns="http://www.w3.org/2000/svg">
<path d="M700.873 129.585C716.391 132.026 752.739 140.187 755.406 163.325C757.91 184.908 730.835 194.878 721.946 198.156C719.171 199.071 714.091 200.8 714.091 200.8C689.621 209.137 654.624 221.05 561.363 224.667L554.52 235.902H606.018C625.628 233.127 645.441 230.008 665.378 226.385C666.616 226.159 667.876 226.046 669.102 226.046C675.912 226.046 682.23 229.477 685.643 234.8C706.083 228.742 729.699 224.362 756.135 221.655L892.367 0.000183105H698.183L623.995 121.825C652.409 123.543 678.127 126.132 700.873 129.585Z" fill="currentColor"/>
<path d="M1108.36 45.2809H914.185L903.029 63.4111H1097.54L1108.36 45.2809Z" fill="currentColor"/>
<path d="M837.422 218.729C866.373 220.871 879.568 228.326 883.806 231.378C898.29 226.455 922.093 221.007 944.494 221.007C963.431 221.007 978.333 224.867 988.839 232.485C992.252 231.253 997.208 229.524 1003.41 227.682L1008.75 218.729H837.422Z" fill="currentColor"/>
<path d="M853.498 152.147H1048.01L1058.83 134.017H864.653L853.498 152.147Z" fill="currentColor"/>
<path d="M1080.92 87.9879H886.741L875.586 106.118H1070.1L1080.92 87.9879Z" fill="currentColor"/>
<path d="M828.793 193.949H1023.3L1034.12 175.818H839.943L828.793 193.949Z" fill="currentColor"/>
<path d="M1133.29 3.88197H939.114L927.959 22.0122H1122.47L1133.29 3.88197Z" fill="currentColor"/>
<path d="M427.902 452.26H622.087L633.237 434.13H438.73L427.902 452.26Z" fill="currentColor"/>
<path d="M620.899 179.467C611.478 178.987 600.956 178.642 589.529 178.416L586.98 182.604C599.871 181.688 611.574 180.648 620.899 179.467Z" fill="currentColor"/>
<path d="M944.264 306.18L943.529 306.389C937.42 308.169 929.831 310.379 917.675 310.379C912.674 310.379 907.379 310.006 901.485 309.237C900.36 309.096 899.224 308.847 898.116 308.508C891.866 306.604 887.108 302.066 885.057 296.064C883.124 290.356 883.525 281.703 888.792 275.232C888.973 274.989 889.566 274.079 890.352 272.887C890.352 272.887 894.375 266.822 895.24 265.523C894.053 265.85 892.742 266.263 891.301 266.76C889.109 267.529 886.82 267.913 884.492 267.913C880.767 267.913 877.134 266.907 874.026 265.048C868.572 268.631 860.508 274.848 850.494 285.167C831.512 304.75 815.638 308.791 780.454 310.356L779.527 310.379C772.333 310.379 765.665 306.604 762.404 300.721C761.907 300.834 761.444 300.918 760.952 301.031L636.52 500H830.043L951.486 303.213C948.672 304.609 946.287 305.592 944.264 306.18Z" fill="currentColor"/>
<path d="M402.977 493.659H597.155L608.311 475.528H413.804L402.977 493.659Z" fill="currentColor"/>
<path d="M660.68 391.423H466.173L455.346 409.553H649.525L660.68 391.423Z" fill="currentColor"/>
<path d="M703.606 309.883C698.65 310.217 693.909 310.403 689.427 310.403L685.669 310.375C651.457 310.375 632.989 309.183 622.687 303.588H512.97L502.148 321.718H696.327L703.606 309.883Z" fill="currentColor"/>
<path d="M682.766 345.388H488.259L477.432 363.518H671.61L682.766 345.388Z" fill="currentColor"/>
<path d="M713.712 269.991C708.897 268.934 718.081 266.323 718.081 266.323C730.112 263.096 792.76 252.449 810.528 256.258C812.771 258.665 744.545 269.432 713.712 269.991ZM877.42 239.914C876.024 238.738 862.558 228.452 820.965 228.452C815.207 228.452 809.064 228.656 803.023 229.029C742.363 230.696 662.558 240.609 626.837 278.412L625.803 279.491C622.859 282.707 622.141 286.68 623.876 290.128C627.334 296.983 637.094 300.046 685.784 300.046C685.784 300.046 688.418 300.069 689.429 300.069C718.448 300.069 753.57 292.321 773.874 287.421L773.524 287.782C771.393 290.009 770.913 293.191 772.309 295.864C773.643 298.424 776.462 300.046 779.525 300.046C779.655 300.046 779.785 300.041 779.915 300.035C813.217 298.554 825.43 295.525 842.14 278.288C859.856 260.011 872.238 253.523 875.606 251.968C877.968 250.878 879.596 248.787 879.963 246.379C880.319 243.971 879.37 241.552 877.42 239.914Z" fill="currentColor"/>
<path d="M264.351 301.472C147.853 301.472 62.4472 287.032 10.5189 258.56C10.2533 258.419 9.99896 258.26 9.75596 258.085C1.88392 252.563 0.459835 246.432 0.651974 242.261C1.0193 234.173 7.47289 226.561 20.3744 218.999C21.9398 218.083 23.6295 217.009 25.5565 215.794C47.1269 202.146 97.6425 170.192 291.578 143.386C333.623 137.859 432.682 129.636 533.487 129.636C599.063 129.636 654.766 133.05 699.048 139.781C706.287 140.917 742.296 147.41 744.263 164.416C745.693 176.787 729.83 184.117 717.776 188.559C715.137 189.43 712.741 190.244 710.203 191.108C681.795 200.789 638.858 215.416 501.049 215.421C480.971 215.421 459.219 215.099 436.406 214.466C427.533 214.133 426.872 208.6 426.884 206.916C426.912 199.693 433.529 199.45 441.921 199.139C446.64 198.958 453.421 198.749 461.678 198.489C507.226 197.071 601.99 194.121 634.874 187.785C660.411 183.077 671.906 179.037 676.958 176.64C675.398 176.081 673.268 175.437 670.386 174.758C653.641 170.243 614.1 167.796 558.798 167.796C521.145 167.796 477.105 168.949 437.977 170.949C424.821 171.622 410.004 172.26 394.011 172.95C314.68 176.369 206.031 181.06 130.589 197.353C77.7561 207.877 57.6663 221.084 57.0164 227.403C56.7169 230.302 62.0573 235.92 78.1008 242.21C100.118 251.58 201.833 264.437 336.132 264.437H336.155C417.277 264.437 540.601 259.6 667.549 236.519C668.063 236.423 668.588 236.377 669.103 236.377C672.431 236.377 675.489 238.293 676.641 241.283C677.975 244.725 676.37 248.545 672.866 250.263C670.03 251.665 600.865 284.608 385.144 297.855C379.99 297.872 371.35 298.279 360.409 298.793C337.726 299.861 303.451 301.472 264.351 301.472Z" fill="currentColor"/>
<path d="M1328.63 214.176C1327.86 214.176 1327.16 214.142 1326.52 214.086C1325.26 214.024 1323.56 213.978 1321.86 213.928C1312.55 213.668 1305.2 213.464 1301.94 208.073C1300.44 205.592 1300.37 202.732 1301.71 200.081L1302.09 199.07C1304 193.966 1306.37 187.62 1314.11 185.24L1315.05 184.941C1340.65 176.774 1360.22 175.056 1372.13 175.056C1378.23 175.056 1384.08 175.491 1389.5 176.356C1397.53 177.955 1398.94 182.657 1399.2 184.602C1400.16 192.033 1391.22 196.696 1381.97 200.839C1375.95 203.534 1341.91 214.176 1328.63 214.176Z" fill="currentColor"/>
<path d="M1259.4 298.878C1219.59 298.878 1202.5 294.973 1198.42 284.936C1196.03 279.024 1198.72 272.903 1206.42 266.737L1207.8 265.528C1212.83 261.097 1216.47 257.898 1230.44 250.382L1232.18 249.444C1247.3 241.271 1268.01 230.081 1302.83 227.934L1304.92 227.911C1308.25 227.911 1316.03 227.911 1317.93 234.303C1318.79 237.168 1318.39 241.368 1311.56 245.109C1304.46 249.003 1286.68 262.431 1281.95 269.851C1281.25 270.954 1281.19 271.57 1281.22 271.683C1281.41 272.146 1283.87 273.887 1289.18 273.887C1289.57 273.887 1292.12 273.847 1292.12 273.847C1305.25 273.847 1322.27 273.118 1330.67 271.072C1331.34 270.908 1332.04 270.824 1332.72 270.824C1335.58 270.824 1338.28 272.242 1339.72 274.627C1341.5 277.583 1340.87 281.279 1338.19 283.59C1328.59 291.881 1299.24 297.589 1259.69 298.878H1259.4Z" fill="currentColor"/>
<path d="M1099.03 300.799C1093.5 300.799 1088.48 300.539 1084.07 300.03C1076.72 299.222 1067.51 298.199 1063.88 291.655C1062.78 289.66 1061.41 285.534 1064.62 280.21C1069.96 271.349 1081.71 257.711 1098.63 246.018C1105.01 241.604 1118.97 230.386 1135.14 217.387C1161.09 196.527 1193.39 170.564 1212.8 157.955C1213.91 157.238 1215.24 156.78 1216.59 156.644C1216.59 156.644 1218.63 156.441 1222 156.441C1231.99 156.441 1256.88 158.368 1272.1 176.193C1272.37 176.521 1272.62 176.86 1272.83 177.227C1274.57 180.166 1276.35 185.908 1268.7 191.3C1267.75 191.967 1156.94 270.879 1151.34 275.135C1150.75 275.576 1150.36 276 1150.09 276.356C1151.62 276.633 1154.76 276.961 1160.01 276.961C1163.86 276.961 1168.11 276.785 1172.64 276.441C1172.86 276.429 1173.08 276.418 1173.31 276.418C1176.66 276.418 1179.68 278.351 1180.84 281.301C1182.06 284.438 1180.85 287.947 1177.88 289.852C1175.9 291.123 1170.2 293.587 1154.32 295.775L1153.07 295.95C1139.97 297.764 1118.06 300.799 1099.03 300.799Z" fill="currentColor"/>
<path d="M917.675 300.048C913.205 300.048 908.418 299.704 903.05 299.003C902.575 298.946 902.106 298.845 901.648 298.709C898.851 297.85 896.709 295.759 895.76 292.973C894.681 289.785 895.02 284.8 897.766 281.432C898.348 280.675 900.015 278.126 901.914 275.261C905.463 269.914 908.079 265.986 909.526 264.172C911.058 262.245 912.442 257.729 911.911 256.373C911.385 255.452 909 253.785 903.598 253.785C899.117 253.785 893.641 254.904 887.328 257.102C886.396 257.43 885.435 257.582 884.491 257.582C881.344 257.582 878.371 255.864 877.094 253.039C875.433 249.354 877.247 245.126 881.18 243.482C895.624 237.452 922.004 231.342 944.495 231.342C963.263 231.342 976.978 235.417 985.342 243.476C987.218 243.448 988.749 243.363 989.648 243.295C990.043 243.16 990.518 242.979 991.083 242.77C1001.44 239 1032.94 227.533 1074.6 227.533C1083.37 227.533 1092.15 228.059 1100.71 229.087C1104.13 229.505 1106.88 231.885 1107.53 235.01C1108.18 238.13 1106.59 241.289 1103.58 242.843C1096.66 246.415 1067.42 260.165 1063.47 262.025C1061.91 262.946 1058.01 264.929 1053.53 264.929C1052.64 264.929 1051.74 264.85 1050.86 264.692C1050.67 264.658 1031.03 261.222 1006.87 261.007C993.366 261.137 988.648 265.551 985.2 268.767C984.053 269.835 982.974 270.847 981.646 271.717L978.826 273.622C957.47 288.135 946.485 294.713 940.901 296.324L940.161 296.539C934.51 298.183 928.101 300.048 917.675 300.048Z" fill="currentColor"/>
</svg>
