<svg width="1308" height="501" viewBox="0 0 1308 501" fill="none" xmlns="http://www.w3.org/2000/svg">
<path fill-rule="evenodd" clip-rule="evenodd" d="M1175.21 3.42715C1168.72 4.99569 1157.67 9.69936 1150.64 13.8821C1122.56 30.5897 1104.85 56.4392 1099.72 88.213C1097.08 104.602 1099.32 107.266 1118.16 110.066C1126.38 111.289 1137.52 112.29 1142.92 112.29C1150.4 112.29 1157.36 114.406 1172.04 121.135L1191.34 129.98H1219.93H1248.51L1259.24 137.351C1265.14 141.406 1273.85 147.413 1278.6 150.701C1283.35 153.99 1288.32 157.341 1289.63 158.147C1291.23 159.13 1293.93 155.827 1297.81 148.146C1317 110.127 1307.91 58.9375 1276.67 29.1391C1263.98 17.0389 1243.32 5.78587 1227.69 2.46401C1213.71 -0.505998 1189.65 -0.0637436 1175.21 3.42715ZM723.776 9.58732C721.032 12.5613 709.685 30.4717 698.561 49.3906C687.438 68.3094 667.108 102.806 653.384 126.049C639.658 149.292 620.631 181.577 611.098 197.793C595.34 224.602 583.602 244.546 531.851 332.436C522.621 348.112 510.358 368.748 504.597 378.293C498.837 387.84 494.124 396.041 494.124 396.518C494.124 396.994 492.038 400.683 489.491 404.713C486.944 408.744 477.214 424.968 467.869 440.768C453.359 465.304 450.881 470.774 450.881 478.263C450.881 485.149 451.97 488.056 455.952 491.798L461.025 496.563L642.192 497.168C831.622 497.803 836.141 497.634 852.54 489.316C862.256 484.386 875.15 471.462 881.585 460.199C887.406 450.018 907.443 415.826 950.128 343.247C966.658 315.139 985.052 283.738 991 273.468C996.95 263.198 1005.56 248.603 1010.14 241.036C1020 224.71 1022.2 216.478 1018.84 208.381C1014.06 196.818 1013.98 196.81 915.911 196.81C810.755 196.81 819.714 199.251 825.401 172.156C830.791 146.475 829.936 143.572 804.241 100.272C791.807 79.3148 774.958 50.6682 766.803 36.6142C758.647 22.5602 750.567 9.5146 748.847 7.62173C746.791 5.3613 742.815 4.18194 737.242 4.18194C730.514 4.18194 727.735 5.29643 723.776 9.58732ZM911.382 8.11706C905.741 10.122 893.8 12.3568 884.846 13.0802C875.315 13.8527 861.548 16.7617 851.628 20.1013C831.457 26.8904 827.819 27.0221 805.621 21.7504C796.234 19.5195 788.131 18.118 787.616 18.633C786.337 19.9106 787.386 21.8271 820.591 78.8745C851.408 131.818 856.77 144.767 855.463 163.09L854.81 172.24L946.21 173.223C996.48 173.763 1038.94 175 1040.56 175.973C1042.18 176.944 1045.44 179.472 1047.79 181.59C1052.06 185.429 1052.11 185.423 1063.51 179.823L1074.96 174.206H1159.48C1253.9 174.206 1250.43 173.73 1262.44 188.305C1265.75 192.323 1268.75 195.216 1269.11 194.734C1269.47 194.255 1271.26 191.428 1273.09 188.456C1274.93 185.482 1277.77 180.971 1279.41 178.428C1282.29 173.97 1282.1 173.61 1274.01 168.266C1269.39 165.219 1260.73 159.423 1254.76 155.385L1243.91 148.044L1214.47 146.619C1185.08 145.196 1185 145.18 1166.56 136.604C1150.67 129.213 1146.28 128.01 1135.11 127.989C1126.91 127.971 1116.71 126.233 1107.43 123.271C1092.97 118.658 1092.6 118.377 1085.14 106.108C1080.97 99.2478 1076.53 92.958 1075.27 92.1304C1070.35 88.8833 1035 79.014 1023.85 77.7718C1007.25 75.9202 980.142 61.3984 972.844 50.4422C969.937 46.0805 965.583 39.7631 963.167 36.4039C956.522 27.1636 929.322 4.16228 925.235 4.32543C923.258 4.40405 917.023 6.11019 911.382 8.11706ZM651.371 57.0761C641.182 58.5286 640.893 58.678 623.774 71.1988C612.048 79.7747 609.284 80.8637 592.311 83.5958C582.076 85.243 567.307 87.9359 559.488 89.5811C546.074 92.4017 544.307 92.3408 528.162 88.5059C518.751 86.271 506.102 81.9447 500.054 78.8922L489.057 73.3394L469.855 77.2411C456.098 80.0381 447.296 83.1437 438.82 88.1933C427.136 95.1535 426.669 95.2498 401.637 95.9516L376.287 96.6631L352.542 112.091L328.798 127.517L278.292 128.413L227.786 129.308L213.585 136.523C205.773 140.492 196.81 143.739 193.667 143.739C188.763 143.739 186.939 145.437 180.842 155.674C176.932 162.237 173.732 168.209 173.732 168.942C173.732 169.675 265.292 170.037 377.199 169.748C557.469 169.28 581.335 169.567 586.534 172.254C589.762 173.925 592.403 176.152 592.403 177.205C592.403 178.259 593.211 179.12 594.2 179.12C595.843 179.12 599.368 173.498 619.464 138.825C623.224 132.339 627.853 124.378 629.75 121.135C666.856 57.7188 668.244 54.9552 662.673 55.5507C661.323 55.6942 656.236 56.3802 651.371 57.0761ZM170.039 201.974C155.578 209.18 148.036 217.706 132.046 244.924C124.41 257.92 115.765 272.535 112.834 277.399C109.905 282.264 99.993 299.07 90.8078 314.746C81.6226 330.421 66.5347 356.072 57.2807 371.748C48.0247 387.423 38.7235 403.345 36.6144 407.128C34.5034 410.912 25.9078 425.507 17.5128 439.561C-3.22618 474.281 -4.7161 486.535 11.0755 492.526C18.584 495.376 37.7112 495.641 199.285 495.148L379.137 494.597L389.947 489.493C408.615 480.677 419.693 468.669 438.474 436.891C447.828 421.063 461.173 398.547 468.127 386.857C481.251 364.797 484.532 353.983 480.428 346.311C475.539 337.177 469.216 336.367 402.861 336.367C345.549 336.367 340.167 336.662 330.335 340.342C315.542 345.877 305.975 356.397 289.399 385.363C262.88 431.704 255.882 442.617 249.696 447.286C241.801 453.241 230.337 456.361 223.385 454.444C214.74 452.062 216.663 444.359 232.765 416.839C240.635 403.39 254.591 379.561 263.776 363.885C272.963 348.21 283.298 330.519 286.742 324.574C305.203 292.705 326.174 257.857 330.724 251.491C343.55 233.539 369.841 225.948 371.882 239.605C372.216 241.842 367.001 254.225 360.293 267.123C347.322 292.063 346.738 295.738 354.262 305.03C359.327 311.286 373.096 312.556 437.255 312.68C513.583 312.827 515.769 311.823 544.524 263.418C554.407 246.783 563.914 230.343 565.654 226.884C570.125 217.989 569.762 205.618 564.885 200.741C561.009 196.865 558.334 196.81 370.677 196.81H180.401L170.039 201.974ZM1081.74 198.668C1074.1 200.987 1062 209.307 1054.01 217.732C1050.05 221.901 1032.03 250.52 1013.96 281.331C995.889 312.141 968.266 359.021 952.581 385.507C906.641 463.073 905.652 464.803 903.274 471.794C899.751 482.155 900.522 487.12 906.737 494.075L912.475 500.494H987.818H1063.16L1074.96 494.983C1093.06 486.523 1101.61 476.986 1120.24 444.475C1123.65 438.529 1132.44 423.492 1139.78 411.06C1147.12 398.627 1154.69 385.711 1156.6 382.36C1158.5 379.007 1164 369.719 1168.81 361.721C1176.97 348.149 1194.65 318.176 1224.93 266.589C1231.91 254.697 1239.84 241.474 1242.57 237.207C1249.03 227.068 1250.53 214.32 1246.06 207.495C1239.36 197.262 1235.45 196.796 1158.07 196.979C1118.84 197.071 1084.5 197.832 1081.74 198.668ZM822.05 237.431C823.058 239.231 823.205 242.992 822.378 245.785C820.648 251.617 817.201 257.686 774.834 329.488C767.817 341.379 756.078 361.281 748.751 373.713C707.896 443.016 709.348 440.831 697.791 450.383C684.197 461.615 665.123 463.541 665.136 453.68C665.14 451.319 673.237 435.679 683.127 418.922C707.662 377.36 755.64 296.377 769.704 272.79C783.4 249.818 790.974 242.443 806.653 236.804C816.06 233.419 819.891 233.576 822.05 237.431Z" fill="currentColor"/>
</svg>
