<svg width="2318" height="500" viewBox="0 0 2318 500" fill="none" xmlns="http://www.w3.org/2000/svg">
<path fill-rule="evenodd" clip-rule="evenodd" d="M51.179 81.9257L0.0168891 163.851L0.00675949 250L0 336.149L29.0169 381.757C44.9797 406.841 68.75 443.706 81.8446 463.682L105.652 500H1159.32H2212.99L2230.96 472.128C2250.55 441.74 2278.58 396.905 2301.2 359.797L2315.61 336.149L2316.99 249.02C2318.15 176.348 2317.56 160.936 2313.47 156.115C2310.78 152.939 2287.63 116.514 2262.02 75.1689L2215.48 0H1158.91H102.341L51.179 81.9257ZM2237.66 105.155L2281.06 173.105L2278.57 252.78L2276.09 332.459L2234.68 396.804L2193.26 461.149L1159.52 462L125.784 462.848L81.473 395.105L37.1622 327.358V250.132V172.905L80.2365 105.081L123.311 37.2568L1158.78 37.2297L2194.26 37.2061L2237.66 105.155ZM146.02 169.764L124.993 201.014L124.997 249.179L125 297.345L146.115 329.338L167.23 361.328L265.679 361.405L364.125 361.486L384.767 331.351C396.118 314.777 405.405 300.334 405.405 299.257C405.405 298.179 360.682 297.297 306.02 297.297H206.632L199.601 285.919C189.23 269.139 189.544 227.53 200.169 211.182L207.77 199.483L306.53 198.561L405.291 197.635L385.922 168.139L366.554 138.642L266.801 138.578L167.051 138.514L146.02 169.764ZM456.649 168.632L435.811 198.75V248.551V298.348L456.926 329.905L478.041 361.459L589.78 361.473L701.524 361.486L722.382 330.017L743.243 298.547V248.807V199.064L722.885 168.791L702.527 138.514H590.007H477.486L456.649 168.632ZM797.666 168.649L777.027 198.784V248.716V298.652L797.743 330.068L818.459 361.486L930.345 361.405L1042.23 361.328L1063.34 329.338L1084.46 297.345V260.159V222.973H1005.07H925.676V248.311V273.649H972.973C998.986 273.649 1020.27 274.554 1020.27 275.662C1020.27 276.767 1017.66 282.088 1014.47 287.486L1008.68 297.297H933.514H858.351L849.784 284.689C842.693 274.253 841.216 268.128 841.216 249.142C841.216 230.024 842.696 223.97 850.111 212.767L859.007 199.324H970.044C1031.11 199.324 1081.08 198.551 1081.08 197.601C1081.08 196.655 1072.49 182.973 1061.99 167.196L1042.91 138.514H930.605H818.307L797.666 168.649ZM1114.86 250V361.486H1153.65H1192.44L1193.34 288.135L1194.26 214.787L1253.6 287.291L1312.94 359.797L1371 360.723L1429.05 361.645V250.081V138.514H1390.2H1351.35V207.77C1351.35 245.861 1350.21 276.926 1348.82 276.804C1347.42 276.682 1336.9 264.902 1325.42 250.622C1313.94 236.345 1288.85 205.294 1269.68 181.618L1234.8 138.578L1174.83 138.544L1114.86 138.514V250ZM1479.73 250V361.486H1518.58H1557.43V250V138.514H1518.58H1479.73V250ZM1611.49 168.919V199.324H1650.34H1689.19V280.405V361.486H1728.04H1766.89V280.405V199.324H1807.43H1847.97V168.919V138.514H1729.73H1611.49V168.919ZM1905.52 168.743L1885.14 199.064L1885.13 249.027L1885.12 298.986L1906.24 330.135L1927.36 361.284L2039.25 361.385L2151.14 361.486L2171.85 330.068L2192.57 298.652V248.132V197.615L2173.07 168.909L2153.58 140.203L2039.75 139.314L1925.91 138.422L1905.52 168.743ZM669.764 212.605C677.72 223.855 679.054 229.071 679.054 248.912C679.054 268.145 677.598 274.22 670.487 284.689L661.919 297.297H589.682H517.443L510.412 285.919C500.041 269.139 500.358 227.541 510.98 211.142L518.581 199.409L589.527 199.439L660.473 199.47L669.764 212.605ZM2117.4 211.142C2128.02 227.541 2128.34 269.139 2117.97 285.919L2110.94 297.297H2038.62H1966.3L1957.81 283.851C1945.44 264.25 1945.78 234.355 1958.61 214.044L1967.91 199.338L2038.85 199.372L2109.8 199.409L2117.4 211.142Z" fill="white"/>
</svg>
