<svg width="3295" height="501" viewBox="0 0 3295 501" fill="none" xmlns="http://www.w3.org/2000/svg">
<path fill-rule="evenodd" clip-rule="evenodd" d="M121.838 14.9061C120.051 22.8313 117.621 34.5037 116.441 40.8394C115.263 47.1752 112.996 53.9694 111.403 55.9377C109.811 57.906 107.832 64.4558 107.006 70.4951C104.252 90.6088 95.2483 127.49 91.0976 135.654C89.7662 138.275 88.6764 145.306 88.6764 151.276C88.6764 157.247 87.4411 162.896 85.9313 163.83C84.4215 164.763 83.1779 168.851 83.1697 172.913C83.1587 176.976 81.3057 183.839 79.052 188.163C76.7955 192.489 74.9507 199.451 74.9507 203.634C74.9507 207.818 73.106 214.779 70.8495 219.106C68.5957 223.429 66.7428 230.91 66.7318 235.728C66.7236 240.545 65.48 245.251 63.9702 246.184C62.4604 247.117 61.225 252.676 61.225 258.537C61.225 264.398 60.1627 269.85 58.8642 270.654C57.563 271.456 55.7101 277.89 54.741 284.951C53.7747 292.011 51.8943 299.149 50.5657 300.809C49.237 302.473 47.4554 308.155 46.6044 313.44C43.2417 334.347 39.9173 348.097 36.4804 355.314C34.5011 359.473 33.4607 363.453 34.1662 364.159C36.7247 366.72 260.407 366.671 264.434 364.112C266.66 362.696 276.512 360.73 286.326 359.745C305.336 357.834 324.676 353.431 332.401 349.256C334.992 347.853 342.36 344.542 348.778 341.899C355.196 339.252 360.445 336.093 360.445 334.874C360.445 333.652 362.353 332.656 364.683 332.656C367.014 332.656 372.252 329.567 376.32 325.793C380.391 322.018 384.825 318.93 386.172 318.93C390.101 318.93 429.073 279.79 429.073 275.845C429.073 273.874 430.309 272.263 431.819 272.263C433.328 272.263 434.564 270.371 434.564 268.06C434.564 265.746 436.417 263.143 438.681 262.276C440.946 261.406 442.799 258.356 442.799 255.498C442.799 252.64 444.034 250.302 445.544 250.302C447.054 250.302 448.289 247.345 448.289 243.732C448.289 240.12 450.142 236.452 452.407 235.582C454.672 234.715 456.525 230.948 456.525 227.215C456.525 223.484 457.76 219.666 459.27 218.733C460.78 217.799 462.015 213.64 462.015 209.487C462.015 205.336 463.83 199.541 466.045 196.609C468.263 193.68 470.116 186.721 470.163 181.149C470.212 175.576 471.486 170.253 472.996 169.32C474.626 168.313 475.741 151.046 475.741 126.77C475.741 102.495 474.626 85.2283 472.996 84.2208C471.486 83.2875 470.25 78.9529 470.25 74.5881C470.25 70.2206 468.705 65.6637 466.814 64.4558C464.925 63.248 461.535 58.6883 459.281 54.3235C452.605 41.3912 436.87 26.5208 423.583 20.5803C421.318 19.5674 418.848 17.9669 418.093 17.0254C415.241 13.4622 391.471 5.98441 383.002 5.98441C378.143 5.98441 374.171 4.7491 374.171 3.23928C374.171 1.44945 330.828 0.494141 249.632 0.494141H125.091L121.838 14.9061ZM952.316 4.83695C951.399 7.22522 950.649 12.5481 950.649 16.6658C950.649 20.7835 948.835 26.5483 946.62 29.4801C944.402 32.4091 942.549 40.0571 942.502 46.4752C942.452 52.8933 941.179 58.142 939.669 58.142C938.159 58.142 936.924 62.8472 936.924 68.5983C936.924 74.3493 935.109 81.451 932.894 84.3828C930.676 87.3119 928.823 94.2708 928.776 99.8434C928.727 105.416 927.453 110.739 925.943 111.672C924.433 112.606 923.154 117.928 923.102 123.501C923.047 129.074 921.238 136.722 919.08 140.496C916.923 144.271 915.114 151.301 915.059 156.119C915.007 160.936 913.727 165.642 912.218 166.575C910.708 167.508 909.472 172.903 909.472 178.566C909.472 184.226 907.658 191.256 905.443 194.188C903.224 197.117 901.372 204.076 901.325 209.649C901.275 215.222 900.002 220.544 898.492 221.478C896.982 222.411 895.747 226.888 895.747 231.429C895.747 235.967 894.284 242.379 892.496 245.679C890.707 248.976 888.236 256.926 887.006 263.341C885.774 269.756 883.759 280.259 882.526 286.675C881.296 293.09 878.826 301.04 877.036 304.337C875.249 307.637 873.786 314.049 873.786 318.587C873.786 323.127 872.55 327.605 871.04 328.538C869.531 329.471 868.295 333.471 868.295 337.427C868.295 341.383 866.824 348.69 865.023 353.667C863.225 358.644 862.542 363.503 863.505 364.466C866.684 367.645 966.873 367.599 973.258 364.417C977.118 362.49 980.022 357.554 981.453 350.477C985.351 331.184 985.982 330.627 993.323 340.007C1002.98 352.344 1026.9 367.201 1041.24 369.767C1058.17 372.798 1086.74 372.411 1101.63 368.949C1115.75 365.666 1133.58 359.273 1136.35 356.497C1137.39 355.462 1140.54 354.617 1143.35 354.617C1146.17 354.617 1149.18 352.764 1150.05 350.499C1150.92 348.234 1153.35 346.381 1155.46 346.381C1157.56 346.381 1159.28 345.146 1159.28 343.636C1159.28 342.126 1160.83 340.858 1162.71 340.817C1167.78 340.707 1183.68 325.013 1197.55 306.434C1204.26 297.455 1210.74 289.694 1211.96 289.192C1213.18 288.687 1214.18 286.592 1214.18 284.533C1214.18 282.475 1217.27 274.98 1221.05 267.881C1224.82 260.783 1227.91 252.174 1227.91 248.748C1227.91 245.325 1229.26 242.072 1230.92 241.52C1232.58 240.965 1234.6 234.657 1235.41 227.5C1236.21 220.344 1237.94 213.827 1239.25 213.017C1242.47 211.032 1242.3 166.355 1239.05 160.36C1237.64 157.738 1235.7 151.954 1234.75 147.502C1232.89 138.772 1197.77 102.064 1191.29 102.064C1189.25 102.064 1183.59 100.074 1178.71 97.6418C1171.48 94.0347 1162.8 93.4115 1131.7 94.2653C1106.45 94.957 1092.42 96.4531 1090.18 98.6877C1088.33 100.546 1085 102.064 1082.79 102.064C1077.04 102.064 1057.71 110.934 1057.71 113.572C1057.71 114.793 1055.86 115.79 1053.59 115.79C1048.65 115.79 1048.27 109.416 1052.72 101.197C1054.51 97.8998 1056.99 89.9527 1058.21 83.5345C1059.45 77.1164 1061.45 66.5723 1062.68 60.0993C1063.9 53.629 1065.99 46.5713 1067.32 44.4163C1068.65 42.2614 1070.79 34.8962 1072.08 28.0471C1073.37 21.1952 1075.13 12.1939 1075.99 8.04327L1077.55 0.494141H1015.76C961.959 0.494141 953.768 1.05415 952.316 4.83695ZM1342.13 4.83695C1341.21 7.22522 1340.41 12.4739 1340.36 16.5038C1340.31 20.5309 1338.5 26.9161 1336.34 30.6906C1334.18 34.4652 1332.37 42.1873 1332.32 47.8478C1332.27 53.511 1330.99 58.142 1329.48 58.142C1327.97 58.142 1326.73 61.2303 1326.73 65.0049C1326.73 70.6104 1328.12 71.9061 1334.28 72.0818C1359.48 72.7901 1446 71.2281 1449.18 70.0038C1451.61 69.0704 1453.01 64.3351 1453.01 57.0248C1453.01 50.6945 1454.43 44.0924 1456.17 42.3547C1457.91 40.617 1460.31 33.8832 1461.51 27.3937C1462.71 20.9015 1464.52 12.1939 1465.54 8.04327L1467.37 0.494141H1405.58C1351.77 0.494141 1343.58 1.05415 1342.13 4.83695ZM290.002 89.7111C298.696 91.9758 308.221 93.8288 311.167 93.8288C314.113 93.8288 316.523 95.0641 316.523 96.5739C316.523 98.0838 318.719 99.3191 321.404 99.3191C327.391 99.3191 335.739 108.609 335.739 115.271C335.739 117.972 337.095 121.538 338.753 123.196C343.494 127.937 336.23 185.006 330.106 191.144C328.675 192.577 327.503 197.828 327.503 202.811C327.503 207.793 326.268 211.87 324.758 211.87C323.248 211.87 322.013 214.807 322.013 218.398C322.013 221.985 320.16 226.46 317.895 228.341C315.631 230.221 313.778 233.252 313.778 235.074C313.778 239.747 284.913 266.772 279.922 266.772C277.657 266.772 275.39 268.016 274.882 269.537C274.357 271.11 256.92 273.078 234.517 274.096L195.075 275.892L196.549 265.156C198.559 250.519 204.892 226.507 207.406 223.992C208.537 222.861 209.462 217.736 209.462 212.605C209.462 207.472 210.865 200.653 212.578 197.452C214.291 194.249 216.259 187.227 216.951 181.846C217.643 176.468 219.331 170.89 220.698 169.457C222.068 168.022 223.188 162.402 223.188 156.967C223.188 151.532 224.412 145.86 225.909 144.364C228.777 141.495 233.644 121.912 236.082 103.437C236.878 97.3975 238.778 90.9135 240.304 89.0248C244.123 84.3004 270.632 84.6655 290.002 89.7111ZM650.057 95.8107C647.037 96.5245 643.392 98.221 641.959 99.5853C640.526 100.95 635.348 102.064 630.454 102.064C625.559 102.064 620.851 103.203 619.992 104.598C619.13 105.993 614.732 107.944 610.222 108.935C605.709 109.926 602.017 111.873 602.017 113.262C602.017 114.653 599.621 115.79 596.689 115.79C593.757 115.79 590.616 116.992 589.711 118.461C588.802 119.932 583.479 123.287 577.882 125.922C565.553 131.72 565.229 131.967 541.374 153.958C523.539 170.399 516.822 178.934 512.548 190.595C511.579 193.236 509.695 195.399 508.361 195.399C507.03 195.399 505.937 197.718 505.937 200.554C505.937 203.387 504.213 207.137 502.108 208.886C496.939 213.174 494.655 226.781 493.134 262.339C492.313 281.497 492.903 293.268 494.778 295.143C496.387 296.752 497.702 300.329 497.702 303.093C497.702 305.86 499.555 308.833 501.82 309.701C504.084 310.571 505.97 313.311 506.009 315.792C506.08 320.352 528.538 343.85 536.134 347.309C538.398 348.341 543.957 351.553 548.487 354.447C553.016 357.34 559.256 359.797 562.35 359.907C565.446 360.017 569.202 361.331 570.695 362.825C572.191 364.321 579.543 366.273 587.029 367.162C594.517 368.052 603.203 370.006 606.327 371.505C617.099 376.674 700.765 369.517 707.422 362.86C708.937 361.345 713.033 360.107 716.528 360.107C722.88 360.107 724.464 359.528 741.555 350.963C746.584 348.443 752.453 346.381 754.594 346.381C756.736 346.381 758.49 345.146 758.49 343.636C758.49 342.126 760.282 340.891 762.47 340.891C764.661 340.891 767.439 339.346 768.647 337.454C769.855 335.566 774.31 332.23 778.546 330.045C787.113 325.628 821.743 291.232 825.062 283.844C826.229 281.25 829.548 275.42 832.441 270.89C835.332 266.361 837.789 260.645 837.898 258.186C838.008 255.729 839.952 252.182 842.217 250.302C844.481 248.421 846.334 242.785 846.334 237.776C846.334 232.763 847.57 227.901 849.079 226.968C850.595 226.032 851.824 213.725 851.824 199.517C851.824 185.308 850.595 173.001 849.079 172.065C847.57 171.132 846.334 167.442 846.334 163.863C846.334 160.286 844.481 155.507 842.217 153.242C839.952 150.977 838.099 148.427 838.099 147.576C838.099 145.503 827.014 132.45 820.634 127.012C817.826 124.613 814.12 121.349 812.399 119.754C810.68 118.159 807.422 115.985 805.157 114.92C802.892 113.855 797.334 110.618 792.804 107.725C788.275 104.831 781.417 102.374 777.569 102.265C773.717 102.155 769.026 100.521 767.14 98.6328C764.653 96.1457 748.843 95.108 709.629 94.8582C679.883 94.6688 653.077 95.0998 650.057 95.8107ZM1684.97 95.7861C1681.95 96.5136 1678.31 98.221 1676.88 99.5853C1675.44 100.95 1671.74 102.155 1668.64 102.265C1665.55 102.374 1659.31 104.831 1654.78 107.725C1650.25 110.618 1644.69 113.833 1642.42 114.87C1640.16 115.908 1634.49 119.628 1629.81 123.136C1625.14 126.644 1620.51 129.516 1619.52 129.516C1616.75 129.516 1617.38 110.832 1620.2 109.086C1621.57 108.241 1622.05 105.078 1621.26 102.061C1619.88 96.81 1617.5 96.5739 1566.25 96.5739C1514.82 96.5739 1512.47 96.8101 1507.55 102.484C1504.49 106.015 1502.42 112.581 1502.42 118.793C1502.42 124.511 1501.19 129.955 1499.68 130.888C1498.17 131.821 1496.89 136.527 1496.84 141.344C1496.78 146.162 1494.97 153.192 1492.81 156.967C1490.66 160.742 1488.85 168.464 1488.79 174.124C1488.74 179.787 1487.58 184.418 1486.23 184.418C1484.87 184.418 1483.14 189.67 1482.39 196.085C1480.83 209.276 1475.53 230.086 1471.9 237.224C1470.57 239.845 1469.48 246.096 1469.48 251.111C1469.48 256.13 1467.67 262.63 1465.45 265.562C1463.23 268.491 1461.38 275.45 1461.33 281.022C1461.28 286.595 1460.01 291.918 1458.5 292.851C1456.99 293.785 1455.75 298.657 1455.75 303.681C1455.75 308.702 1453.91 316.35 1451.65 320.676C1449.4 324.999 1447.55 332.48 1447.54 337.298C1447.53 342.115 1446.28 346.821 1444.77 347.754C1441.6 349.714 1441.01 365.488 1444.09 365.817C1445.22 365.938 1471.91 366.248 1503.39 366.503L1560.64 366.97L1564.39 359.709C1566.46 355.715 1568.96 347.35 1569.96 341.119C1570.96 334.888 1572.85 329.125 1574.16 328.316C1575.47 327.506 1576.54 322.114 1576.54 316.336C1576.54 310.56 1578.39 302.295 1580.64 297.968C1582.9 293.645 1584.75 286.782 1584.76 282.719C1584.77 278.656 1586.01 274.569 1587.52 273.635C1589.03 272.702 1590.27 268.23 1590.27 263.695C1590.27 252.533 1599.93 221.159 1607.07 209.125C1608.42 206.86 1610.37 203.154 1611.4 200.889C1613.78 195.706 1619.43 189.909 1622.11 189.909C1623.23 189.909 1626.1 188.275 1628.48 186.28C1630.87 184.281 1637.76 181.102 1643.8 179.211C1653.49 176.177 1656.31 176.43 1667.82 181.371L1680.86 186.969V204.746C1680.86 214.527 1679.62 223.289 1678.11 224.223C1676.6 225.156 1675.36 229.861 1675.35 234.679C1675.34 239.497 1673.49 246.977 1671.23 251.301C1668.97 255.627 1667.13 263.275 1667.13 268.296C1667.13 273.32 1665.89 278.192 1664.39 279.126C1662.88 280.059 1661.6 284.764 1661.54 289.582C1661.49 294.399 1659.68 301.43 1657.52 305.204C1655.36 308.979 1653.56 316.451 1653.5 321.812C1653.45 327.171 1652.32 332.73 1651 334.166C1649.68 335.598 1647.78 343.26 1646.79 351.185L1644.98 365.597L1660.86 365.998C1688.88 366.704 1764.47 365.144 1766.62 363.813C1767.76 363.108 1768.7 358.968 1768.7 354.617C1768.7 350.266 1769.94 345.942 1771.45 345.009C1772.96 344.075 1774.23 339.37 1774.29 334.553C1774.34 329.735 1776.15 322.705 1778.31 318.93C1780.47 315.155 1782.28 307.507 1782.33 301.935C1782.38 296.362 1783.66 291.039 1785.17 290.106C1786.68 289.173 1787.96 284.468 1788.01 279.65C1788.07 274.832 1789.88 267.802 1792.03 264.027C1794.19 260.253 1796 252.605 1796.06 247.032C1796.11 241.459 1797.39 236.137 1798.9 235.203C1800.41 234.27 1801.64 229.504 1801.64 224.61C1801.64 219.715 1802.96 214.392 1804.57 212.781C1807.2 210.154 1810 197.337 1814.39 167.81C1816.73 152.07 1808.19 127.825 1796 115.642C1777.69 97.3261 1766.08 93.7794 1725.62 94.1472C1706.28 94.3229 1687.99 95.0587 1684.97 95.7861ZM1974.59 95.7284C1969.3 96.4092 1963.8 98.114 1962.37 99.514C1960.94 100.917 1955.99 102.103 1951.39 102.152C1946.79 102.199 1940.62 104.052 1937.69 106.27C1934.76 108.485 1930.13 110.3 1927.39 110.3C1924.66 110.3 1922.43 111.233 1922.43 112.375C1922.43 113.517 1918.61 116.139 1913.95 118.203C1901.39 123.762 1883.34 142.519 1873.48 160.25C1866.17 173.377 1864.78 178.785 1864.78 193.963C1864.78 207.502 1865.81 212.438 1868.9 213.621C1871.16 214.491 1873.02 217.069 1873.02 219.35C1873.02 224.808 1893.12 244.811 1898.61 244.811C1900.96 244.811 1903.65 246.047 1904.58 247.556C1905.52 249.066 1909.67 250.302 1913.81 250.302C1917.95 250.302 1922.81 251.781 1924.62 253.588C1928.01 256.986 1947.38 260.574 1975.96 263.097C1985.02 263.896 1993.71 265.597 1995.26 266.877C1996.82 268.156 2004.24 269.951 2011.74 270.868C2027.51 272.795 2036.77 276.792 2039.01 282.642C2040.95 287.704 2033.48 299.714 2028.39 299.714C2026.34 299.714 2023.13 301.567 2021.25 303.832C2018.67 306.945 2011.68 307.949 1992.61 307.949C1968.55 307.949 1967.04 307.593 1960 300.249C1955.94 296.016 1952.62 289.972 1952.62 286.817C1952.62 283.666 1951.08 280.531 1949.19 279.853C1947.31 279.175 1926 279.622 1901.84 280.844C1825.89 284.687 1818.31 287.166 1827.31 305.21C1829.8 310.201 1831.87 316.256 1831.92 318.666C1832.12 330.578 1860.65 356.473 1878.51 360.953C1914.95 370.094 1950.04 374.404 1977.33 373.089C2010.63 371.483 2049.2 366.196 2052.64 362.764C2054.1 361.304 2059.37 360.107 2064.35 360.107C2069.33 360.107 2073.41 358.872 2073.41 357.362C2073.41 355.852 2075.65 354.617 2078.38 354.617C2081.11 354.617 2085.74 352.802 2088.67 350.587C2091.6 348.369 2095.59 346.516 2097.55 346.469C2104.72 346.291 2139.14 313.388 2145.74 300.4C2148.23 295.492 2152.13 287.891 2154.39 283.507C2160.06 272.54 2159.55 255.029 2153.16 241.009C2147.64 228.895 2132.34 211.87 2126.97 211.87C2125.29 211.87 2122.48 210.426 2120.71 208.663C2116.1 204.052 2098.15 198.235 2088.37 198.185C2083.77 198.163 2078.7 196.846 2077.11 195.259C2074.53 192.678 2052.92 189.662 2007.53 185.544C1986.89 183.672 1980.08 179.867 1980.08 170.229C1980.08 165.458 1981.54 162.457 1983.86 162.457C1985.94 162.457 1989.18 160.604 1991.06 158.34C1993.61 155.254 2000.48 154.222 2018.42 154.222C2038.13 154.222 2043.17 155.109 2046.91 159.243C2049.4 162.004 2051.45 165.556 2051.45 167.14C2051.45 168.724 2053.37 171.612 2055.71 173.559C2061.8 178.61 2118.17 176.976 2147.53 170.896C2173.34 165.551 2175.66 163.031 2168.32 148.309C2165.94 143.549 2164 138.157 2164 136.332C2164 134.506 2157.94 127.594 2150.53 120.97C2130.35 102.918 2129.07 102.064 2122.11 102.064C2118.58 102.064 2114.14 100.521 2112.26 98.6328C2109.74 96.11 2092.31 95.108 2046.51 94.8445C2012.24 94.6496 1979.87 95.0476 1974.59 95.7284ZM2356.16 95.8081C2352.38 96.4861 2348.12 98.1688 2346.69 99.5524C2345.26 100.933 2340.81 102.064 2336.82 102.064C2330.29 102.064 2319.6 105.949 2306.1 113.22C2303.48 114.634 2299.46 115.79 2297.18 115.79C2294.89 115.79 2293.02 116.745 2293.02 117.912C2293.02 119.079 2288.47 122.474 2282.92 125.461C2260.53 137.485 2223.81 174.363 2215.48 193.194C2213.6 197.427 2211.14 200.889 2210 200.889C2208.86 200.889 2207.92 203.124 2207.92 205.855C2207.92 208.586 2206.11 213.218 2203.89 216.149C2201.67 219.078 2199.82 226.655 2199.77 232.983C2199.73 239.31 2198.45 245.251 2196.94 246.184C2195.43 247.117 2194.2 255.147 2194.2 264.027C2194.2 272.908 2195.43 280.937 2196.94 281.871C2198.45 282.804 2199.69 287.111 2199.69 291.446C2199.69 295.778 2201.54 301.174 2203.8 303.439C2206.07 305.704 2207.92 309.229 2207.92 311.274C2207.92 320.64 2255.66 360.107 2266.99 360.107C2269.43 360.107 2274.12 361.581 2277.42 363.385C2297.6 374.415 2393.07 374.448 2412.94 363.431C2416.24 361.603 2421.3 360.107 2424.2 360.107C2427.09 360.107 2435.27 357.019 2442.37 353.244C2449.47 349.47 2457.06 346.381 2459.25 346.381C2461.43 346.381 2463.22 345.228 2463.22 343.82C2463.22 342.412 2465.94 340.397 2469.27 339.34C2472.59 338.286 2477.01 335.727 2479.08 333.658C2481.15 331.585 2488.01 326.323 2494.31 321.958C2500.61 317.596 2508.24 311.112 2511.26 307.549C2525.04 291.289 2534.59 278.082 2534.59 275.299C2534.59 273.63 2535.83 272.263 2537.34 272.263C2538.85 272.263 2540.08 270.509 2540.08 268.367C2540.08 266.226 2542.15 260.357 2544.67 255.328C2547.19 250.299 2550.27 244.04 2551.53 241.418C2552.78 238.797 2553.81 231.61 2553.81 225.453C2553.81 219.293 2555.05 211.933 2556.57 209.094C2561.39 200.093 2554.03 165.902 2543.74 149.484C2533.87 133.74 2516.26 115.79 2510.69 115.79C2508.74 115.79 2507.14 114.653 2507.14 113.262C2507.14 111.873 2503.44 109.921 2498.91 108.927C2494.38 107.933 2490.67 105.981 2490.67 104.592C2490.67 103.201 2487.89 102.045 2484.49 102.023C2481.1 102.001 2473.38 100.2 2467.34 98.0261C2459.28 95.1217 2443.95 94.1362 2409.69 94.3229C2384.02 94.4629 2359.93 95.13 2356.16 95.8081ZM2806.23 98.1058C2804.42 100.283 2800.48 102.064 2797.48 102.064C2791.82 102.064 2764.51 115.6 2762.91 119.197C2762.41 120.317 2757.77 123.237 2752.61 125.686C2747.45 128.138 2743.22 131.237 2743.22 132.574C2743.22 133.911 2741.85 135.006 2740.16 135.006C2738.31 135.006 2738.91 132.244 2741.69 128.008C2744.62 123.537 2745.97 116.849 2745.43 109.479L2744.6 97.9465L2691.42 97.1998C2657 96.7167 2637.01 97.4771 2634.75 99.3548C2631.32 102.199 2630.6 105.015 2625.78 134.385C2624.47 142.346 2621.95 150.315 2620.18 152.092C2618.4 153.868 2616.95 159.94 2616.95 165.589C2616.95 171.239 2615.71 176.622 2614.2 177.555C2612.69 178.489 2611.46 183.883 2611.46 189.546C2611.46 195.207 2609.64 202.237 2607.43 205.169C2605.21 208.098 2603.36 214.439 2603.31 219.257C2603.26 224.075 2601.99 228.78 2600.48 229.713C2598.97 230.646 2597.73 236.002 2597.73 241.619C2597.73 247.233 2596.03 254.263 2593.96 257.239C2591.88 260.217 2589.49 267.596 2588.64 273.635C2585.4 296.777 2581.97 311.082 2578.93 314.123C2577.19 315.861 2575.77 321.903 2575.77 327.552C2575.77 333.202 2574.54 338.585 2573.03 339.519C2571.52 340.452 2570.28 346.7 2570.28 353.406V365.597L2583.32 365.924C2614.28 366.695 2636.58 366.775 2662.93 366.204L2691.07 365.597V357.362C2691.07 352.832 2692.3 349.127 2693.81 349.127C2695.32 349.127 2696.6 344.495 2696.65 338.832C2696.71 333.172 2698.52 325.45 2700.67 321.675C2702.83 317.901 2704.64 310.87 2704.7 306.053C2704.75 301.235 2706.03 296.53 2707.54 295.596C2709.05 294.663 2710.28 289.269 2710.28 283.606C2710.28 277.945 2712.1 270.915 2714.31 267.983C2716.53 265.054 2718.38 258.095 2718.43 252.522C2718.48 246.95 2719.75 241.627 2721.26 240.694C2722.77 239.76 2724.01 235.601 2724.01 231.448C2724.01 227.297 2725.82 221.502 2728.04 218.571C2730.26 215.642 2732.11 211.175 2732.16 208.65C2732.24 204.021 2754.09 180.638 2756.27 182.829C2756.92 183.477 2762.86 182.376 2769.47 180.388C2782.18 176.562 2795.09 178.95 2804.67 186.9C2810.24 191.517 2810.42 210.607 2804.99 220.105C2802.83 223.88 2801.02 230.91 2800.97 235.728C2800.92 240.545 2799.64 245.251 2798.13 246.184C2796.62 247.117 2795.38 252.511 2795.38 258.175C2795.38 263.835 2793.57 270.865 2791.35 273.797C2789.13 276.726 2787.28 283.685 2787.23 289.258C2787.18 294.83 2785.91 300.153 2784.4 301.087C2782.89 302.02 2781.66 307.403 2781.66 313.053C2781.66 318.702 2780.23 324.744 2778.5 326.482C2776.76 328.22 2774.45 334.953 2773.37 341.443C2772.29 347.935 2770.5 355.388 2769.39 358.01C2766.05 365.902 2777.39 367.851 2821.6 366.986C2844.17 366.544 2869.5 366.05 2877.88 365.891L2893.12 365.597L2896.59 351.185C2898.5 343.26 2900.73 331.832 2901.56 325.793C2902.38 319.754 2904.29 313.292 2905.79 311.43C2907.29 309.572 2908.94 303.752 2909.45 298.495C2909.96 293.241 2911.68 286.507 2913.27 283.529C2914.86 280.55 2916.17 274.398 2916.17 269.861C2916.17 265.32 2917.29 260.914 2918.65 260.069C2920.02 259.223 2921.99 252.358 2923.03 244.811C2924.07 237.265 2926.04 230.399 2927.41 229.554C2928.77 228.708 2929.89 223.396 2929.89 217.747C2929.89 212.098 2931.05 206.305 2932.47 204.87C2939.09 198.166 2940.43 147.049 2934.3 134.767C2931.88 129.905 2929.89 124.882 2929.89 123.603C2929.89 119.685 2919.97 111.087 2906.07 102.951C2893.27 95.4539 2891.47 95.1849 2851.18 94.6743C2817.76 94.2488 2808.87 94.9269 2806.23 98.1058ZM3097.35 96.9472C3092.06 98.4927 3083.63 100.42 3078.62 101.232C3073.6 102.048 3063.96 105.655 3057.2 109.251C3050.43 112.847 3043.66 115.79 3042.14 115.79C3037.45 115.79 2998.96 154.919 3000.28 158.348C3000.96 160.124 2999.61 163.163 2997.28 165.098C2991.67 169.748 2991.36 208.027 2996.84 218.584C3004.25 232.873 3028.2 250.197 3040.81 250.389C3043.97 250.436 3048.96 252.289 3051.89 254.507C3054.82 256.723 3062.91 258.537 3069.87 258.537C3076.83 258.537 3083.7 259.668 3085.13 261.052C3086.56 262.432 3095.15 264.173 3104.21 264.914C3125.26 266.641 3148.95 271.801 3157.74 276.578C3166.96 281.593 3165.68 290.757 3154.42 300.4C3146.09 307.521 3144.07 307.949 3118.73 307.949C3103.94 307.949 3091.86 306.799 3091.86 305.388C3091.86 303.98 3089.39 302.045 3086.37 301.087C3083.35 300.129 3080.88 297.123 3080.88 294.408C3080.88 286.307 3069.94 274.341 3064.76 276.781C3062.3 277.94 3042.99 279.804 3021.86 280.926C3000.72 282.046 2976.63 283.954 2968.33 285.162C2953.65 287.301 2953.2 287.622 2952.33 296.744C2950.55 315.457 2974.06 351.347 2989.59 353.626C2992.18 354.007 2994.74 355.622 2995.27 357.214C2995.8 358.803 2999.26 360.107 3002.97 360.107C3006.67 360.107 3012.43 361.817 3015.77 363.906C3033.64 375.071 3166.64 374.261 3177.99 362.918C3179.53 361.373 3183.84 360.107 3187.56 360.107C3195.43 360.107 3215.39 351.852 3215.39 348.6C3215.39 347.378 3218.37 346.381 3222.02 346.381C3225.67 346.381 3229.07 345.445 3229.57 344.303C3230.07 343.159 3236.04 337.907 3242.83 332.637C3261.94 317.796 3264.8 315.158 3264.8 312.402C3264.8 310.994 3267.89 305.792 3271.66 300.842C3275.44 295.893 3278.53 289.365 3278.53 286.334C3278.53 283.304 3279.76 280.059 3281.27 279.126C3285.16 276.721 3284.6 256.335 3280.3 243.999C3275.89 231.322 3250.46 206.668 3239.55 204.485C3235.26 203.629 3231.08 201.85 3230.27 200.535C3229.45 199.22 3224.6 198.144 3219.47 198.144C3214.35 198.144 3207.32 196.92 3203.85 195.424C3198.02 192.909 3166.74 188.594 3130.29 185.275C3112.93 183.694 3104.67 178.066 3107.21 169.545C3110.71 157.796 3119.09 154.343 3144.01 154.37C3167.42 154.397 3176.65 157.469 3177.96 165.658C3179.88 177.75 3181.73 178.159 3225 176.087C3247.64 175.002 3269.65 172.727 3273.9 171.03C3278.15 169.334 3284.81 167.947 3288.69 167.947C3295.55 167.947 3295.71 167.547 3294.15 154.345C3292.45 139.947 3287.21 129.779 3275.71 118.535C3267.1 110.118 3252.37 102.064 3245.59 102.064C3242.82 102.064 3240.04 100.521 3239.41 98.6328C3237.94 94.2159 3111.82 92.7197 3097.35 96.9472ZM1319.58 101.378C1318.77 104.019 1316.95 108.326 1315.55 110.947C1314.15 113.569 1313.01 118.741 1313.01 122.436C1313.01 126.134 1311.6 132.637 1309.89 136.886C1306.88 144.331 1304.68 153.739 1299.7 180.435C1298.41 187.303 1295.94 194.345 1294.21 196.082C1292.47 197.82 1291.05 203.862 1291.05 209.512C1291.05 215.161 1289.81 220.544 1288.3 221.478C1286.79 222.411 1285.56 227.805 1285.56 233.468C1285.56 239.129 1283.74 246.159 1281.53 249.091C1279.31 252.02 1277.46 258.979 1277.41 264.552C1277.36 270.124 1276.09 275.447 1274.58 276.38C1273.07 277.314 1271.83 282.708 1271.83 288.371C1271.83 294.032 1270.02 301.062 1267.8 303.994C1265.58 306.923 1263.73 313.355 1263.68 318.282C1263.63 323.21 1262.51 329.386 1261.17 332.008C1257.32 339.601 1252.27 363.426 1254.13 365.282C1255.06 366.21 1282.32 366.97 1314.71 366.97C1379.52 366.97 1378.77 367.173 1378.85 349.813C1378.87 344.905 1380.13 340.891 1381.64 340.891C1383.15 340.891 1384.38 336.485 1384.38 331.102C1384.38 325.719 1385.84 318.617 1387.63 315.317C1390.68 309.706 1391.76 305.207 1397.65 273.781C1398.91 267.066 1401.24 259.965 1402.83 257.996C1404.42 256.028 1406.4 249.478 1407.23 243.439C1410.35 220.668 1413.85 206.006 1416.91 202.951C1418.65 201.213 1420.07 195.171 1420.07 189.522C1420.07 183.872 1421.3 178.489 1422.81 177.555C1424.32 176.622 1425.6 171.299 1425.65 165.727C1425.71 160.154 1427.52 152.506 1429.68 148.732C1431.83 144.957 1433.64 137.927 1433.7 133.109C1433.75 128.291 1435.03 123.586 1436.54 122.653C1438.05 121.719 1439.28 115.471 1439.28 108.765V96.5739H1380.18C1326.28 96.5739 1320.94 96.9967 1319.58 101.378ZM706.332 172.065C708.213 174.33 711.26 176.183 713.105 176.183C718.721 176.183 724.716 185.212 726.394 196.189C728.12 207.488 723.654 239.09 719.737 243.302C718.405 244.737 717.313 248.144 717.313 250.875C717.313 258.559 701.904 278.014 689.076 286.526C678.79 293.351 675.076 294.191 655.547 294.119C630.723 294.032 625.268 291.201 617.222 274.247C612.325 263.931 612.454 256.228 617.936 231.552C619.388 225.013 621.96 218.28 623.649 216.591C625.34 214.9 626.726 211.603 626.732 209.262C626.742 203.588 653.645 176.208 659.316 176.095C661.773 176.048 666.182 174.195 669.111 171.977C676.298 166.542 701.797 166.602 706.332 172.065ZM2414.29 172.828C2428.8 182.401 2433.03 190.724 2432.94 209.558C2432.88 220.495 2431.35 228.95 2428.82 232.296C2426.6 235.228 2424.79 240.405 2424.79 243.801C2424.79 247.2 2423.55 250.741 2422.04 251.674C2420.53 252.608 2419.3 255.46 2419.3 258.013C2419.3 264.104 2400.43 284.635 2392.53 287.144C2389.13 288.22 2386.36 290.254 2386.36 291.663C2386.36 293.071 2375.22 294.224 2361.61 294.224C2337.2 294.224 2336.76 294.106 2328.71 285.302C2321.08 276.943 2320.58 275.044 2320.85 255.177C2321.03 242.047 2322.54 232.118 2324.83 229.098C2326.87 226.416 2328.57 220.824 2328.62 216.674C2328.67 212.523 2329.94 209.125 2331.45 209.125C2332.96 209.125 2334.2 207.697 2334.2 205.951C2334.2 199.193 2349.26 183.521 2360.55 178.525C2367.07 175.639 2373.14 172.082 2374.05 170.616C2376.95 165.919 2406.26 167.533 2414.29 172.828ZM1107.05 182.974C1112.61 188.887 1113.41 192.462 1113.3 210.7C1113.22 222.213 1111.8 232.993 1110.14 234.654C1108.48 236.315 1107.12 241.133 1107.12 245.36C1107.12 249.588 1105.89 253.047 1104.38 253.047C1102.87 253.047 1101.63 254.971 1101.63 257.324C1101.63 259.676 1096.23 266.926 1089.62 273.438C1069 293.776 1039.33 296.209 1022.71 278.928C1017.51 273.515 1016.53 269.479 1016.53 253.329C1016.53 242.783 1017.77 233.392 1019.28 232.458C1020.79 231.525 1022.02 227.281 1022.02 223.023C1022.02 218.768 1023.88 213.75 1026.14 211.87C1028.41 209.989 1030.26 206.948 1030.26 205.111C1030.26 200.453 1051.06 181.673 1056.22 181.673C1058.55 181.673 1060.45 180.438 1060.45 178.928C1060.45 177.347 1068.99 176.183 1080.57 176.183C1098.41 176.183 1101.39 176.949 1107.05 182.974ZM19.2848 439.162C16.6852 447.921 14.5577 457.732 14.5577 460.963C14.5577 464.197 13.3224 467.607 11.8126 468.54C10.3028 469.473 9.06744 473.78 9.06744 478.115C9.06744 482.447 7.21447 487.844 4.94974 490.109C2.685 492.373 0.832031 495.544 0.832031 497.153C0.832031 499.214 264.297 500.084 895.549 500.101L1790.27 500.126L1794.99 484.333C1801.06 464.06 1804.7 446.343 1805.29 434.226L1805.76 424.618L914.886 423.926L24.012 423.237L19.2848 439.162ZM1875.76 428.148C1866.18 434.585 1864.87 436.985 1864.82 448.122C1864.79 455.8 1866.53 459.19 1872.91 463.906C1877.37 467.209 1883.48 469.913 1886.47 469.913C1889.46 469.913 1892.67 471.148 1893.6 472.658C1894.54 474.168 1897.85 475.403 1900.96 475.403C1905.69 475.403 1906.06 476.086 1903.21 479.521C1898.51 485.189 1885.05 484.69 1878.98 478.626C1871.77 471.417 1865.7 469.701 1857.89 472.666C1849.25 475.955 1849.25 480.684 1857.91 490.759C1864.57 498.511 1865.49 498.737 1890.54 498.737C1914.67 498.737 1916.69 498.297 1922.1 491.874C1925.27 488.099 1928.61 482.348 1929.5 479.092C1931.47 471.936 1923.66 458.968 1917.31 458.844C1914.84 458.797 1910.42 456.945 1907.49 454.726C1904.56 452.511 1899.31 450.697 1895.82 450.697C1892.02 450.697 1889.49 449.05 1889.49 446.579C1889.49 440.564 1902.37 441.399 1910.7 447.951C1924.02 458.432 1936.19 453.417 1932.36 439.024C1928.73 425.378 1890.74 418.076 1875.76 428.148ZM1952.07 426.677C1949.67 428.565 1947.02 433.814 1946.18 438.343C1940.92 466.459 1939.57 471.914 1936.49 477.596C1934.61 481.069 1933.46 487.245 1933.92 491.322C1934.65 497.567 1936.28 498.879 1944.27 499.64C1954.25 500.587 1961.75 494.638 1959.14 487.844C1956.55 481.08 1966.21 475.403 1980.31 475.403C1987.77 475.403 1996.02 474.258 1998.64 472.858C2001.27 471.458 2005.3 469.748 2007.61 469.059C2009.92 468.367 2014.12 463.522 2016.93 458.29C2023.27 446.529 2021.08 435.069 2011.83 431.552C2008.25 430.19 2004.5 427.764 2003.51 426.161C2000.93 421.969 1957.48 422.405 1952.07 426.677ZM2035.36 425.699C2033.3 427.001 2030.58 432.85 2029.31 438.695C2028.03 444.542 2025.87 454.551 2024.5 460.941C2023.13 467.329 2020.52 474.351 2018.7 476.545C2016.88 478.741 2015.78 484.629 2016.26 489.636C2017.09 498.273 2017.69 498.737 2028.08 498.737C2036.9 498.737 2039.19 497.671 2039.9 493.246C2040.93 486.831 2049.29 469.885 2051.39 469.973C2054.91 470.124 2064.38 480.248 2068.03 487.756C2073.31 498.627 2075.58 500.018 2088.12 500.068C2096.65 500.101 2098.38 499.266 2097.04 495.766C2096.12 493.378 2095.37 489.853 2095.37 487.932C2095.37 486.013 2092.34 481.17 2088.64 477.176C2083.02 471.112 2082.68 469.899 2086.58 469.822C2092.62 469.704 2101.24 462.245 2106 453.005C2109.25 446.7 2109.17 444.869 2105.46 439.571C2096.48 426.753 2087.29 423.281 2062.43 423.306C2049.6 423.319 2037.41 424.395 2035.36 425.699ZM2120.17 428.554C2118.61 431.475 2117.33 436.345 2117.33 439.373C2117.33 442.404 2116.23 445.566 2114.88 446.4C2113.53 447.235 2111.8 452.558 2111.05 458.229C2110.3 463.901 2108.17 473.761 2106.32 480.144C2101.89 495.473 2103.98 500.109 2115.33 500.109C2126.82 500.109 2131.06 495.942 2131.06 484.624C2131.06 479.729 2132.29 474.964 2133.8 474.03C2135.31 473.097 2136.55 468.842 2136.55 464.573C2136.55 460.307 2138.39 453.277 2140.65 448.951C2145.06 440.49 2145.76 434.467 2143.12 427.588C2140.63 421.11 2123.78 421.82 2120.17 428.554ZM2157.33 427.558C2154.96 429.932 2152.98 435.181 2152.93 439.225C2152.88 443.271 2151.03 448.978 2148.81 451.907C2146.6 454.839 2144.78 461.076 2144.78 465.77C2144.78 470.464 2143.46 475.631 2141.84 477.25C2140.22 478.87 2139.29 484.366 2139.78 489.466C2140.53 497.328 2141.84 498.871 2148.38 499.62C2158.23 500.751 2164 495.936 2164 486.598C2164 482.554 2165.13 478.071 2166.51 476.638C2167.9 475.205 2169.44 471.03 2169.94 467.36C2170.7 461.858 2172.45 463.86 2179.93 478.788C2184.91 488.741 2190.88 497.611 2193.19 498.498C2207.01 503.801 2218.9 496.024 2218.9 481.678C2218.9 477.061 2220.75 469.748 2223 465.422C2225.26 461.098 2227.11 455.026 2227.12 451.932C2227.13 448.835 2228.47 444.973 2230.1 443.345C2231.73 441.717 2232.65 436.836 2232.16 432.502C2231.36 425.565 2230.02 424.516 2220.94 423.764C2214.15 423.204 2210.3 424.143 2209.69 426.509C2209.17 428.488 2207.19 434.432 2205.28 439.716C2203.37 445 2201.18 452.758 2200.42 456.956C2199.14 464.008 2198.76 464.216 2195.33 459.701C2193.29 457.013 2191.59 452.651 2191.54 450.01C2191.49 447.369 2190.22 445.206 2188.71 445.206C2187.2 445.206 2185.96 442.95 2185.96 440.194C2185.96 433.534 2174.73 423.245 2167.45 423.245C2164.26 423.245 2159.71 425.186 2157.33 427.558ZM2260.08 428.186C2248.09 433.918 2238.07 445.291 2233.45 458.438C2229 471.104 2231 481.077 2239.93 490.712C2246 497.268 2249.38 498.36 2266.52 499.313C2277.32 499.914 2291.7 499.382 2298.47 498.13C2308.92 496.197 2311.15 494.616 2313.2 487.687C2314.54 483.196 2316.72 477.377 2318.05 474.755C2319.38 472.133 2320.47 467.5 2320.47 464.461C2320.47 459.382 2318.69 458.932 2298.61 458.932C2279.8 458.932 2276.35 459.673 2273.9 464.241C2269.17 473.083 2270.61 475.403 2280.83 475.403C2292.97 475.403 2290.86 480.02 2277.57 482.513C2269.84 483.962 2266.65 483.191 2262.27 478.818C2254.01 470.558 2257.43 453.692 2268.67 447.24C2278.68 441.492 2291.92 441.012 2294.94 446.285C2296.15 448.388 2301.78 451.38 2307.45 452.931C2316.4 455.383 2318.13 455.083 2320.49 450.661C2321.99 447.858 2323.22 444.924 2323.22 444.138C2323.22 442.758 2314.12 433.732 2305.62 426.677C2299.73 421.785 2271.52 422.721 2260.08 428.186ZM2386.65 432.032C2379.61 438.909 2377.91 442.544 2378.82 448.756C2379.63 454.263 2378.65 457.203 2375.62 458.347C2369.85 460.53 2364.39 466.053 2364.39 469.718C2364.39 471.335 2363.16 472.658 2361.65 472.658C2357.06 472.658 2358.7 484.585 2364.29 491.865C2369.34 498.432 2370.91 498.739 2401.98 499.206C2425.99 499.568 2435.75 498.704 2439.61 495.871C2443.92 492.705 2444.22 491.319 2441.33 487.841C2438.6 484.552 2438.56 482.771 2441.15 479.652C2443.03 477.379 2443.64 473.105 2442.57 469.712C2440.89 464.425 2439.32 463.942 2428.61 465.408C2417.86 466.882 2416.55 466.47 2416.55 461.625C2416.55 458.633 2417.96 456.187 2419.68 456.187C2424.36 456.187 2430.09 447.444 2430.19 440.155C2430.32 430.874 2419.98 423.446 2406.78 423.336C2397.87 423.264 2393.83 425.01 2386.65 432.032ZM2503.02 428.889C2497.14 432.639 2494.3 437.051 2493.07 444.372C2491.56 453.324 2492.38 455.577 2499.53 462.262C2504.59 466.984 2510.77 469.913 2515.67 469.913C2520.04 469.913 2523.61 471.148 2523.61 472.658C2523.61 474.168 2525.62 475.403 2528.07 475.403C2531.82 475.403 2531.95 476.086 2528.91 479.757C2524.55 485.008 2510.72 483.084 2505.96 476.567C2503.78 473.594 2499.44 472.531 2491.96 473.144C2478.45 474.247 2476.27 480.967 2486.2 490.896C2491.57 496.271 2496.89 498.198 2509.49 499.343C2533.87 501.553 2544.24 498.742 2552.71 487.635C2559.07 479.298 2559.57 477.204 2556.8 470.516C2553.61 462.814 2532.8 450.625 2522.93 450.672C2520.29 450.686 2518.12 448.844 2518.12 446.579C2518.12 440.564 2531 441.399 2539.33 447.951C2546.88 453.884 2557.88 455.215 2560.77 450.54C2564.36 444.731 2559.11 434.654 2549.55 429.018C2536.9 421.554 2514.64 421.494 2503.02 428.889ZM2580.57 426.21C2577.47 428.019 2575.77 432.356 2575.77 438.481C2575.77 443.688 2574.54 447.951 2573.03 447.951C2571.52 447.951 2570.28 452.357 2570.28 457.741C2570.28 463.124 2569.22 469.608 2567.92 472.153C2564.33 479.186 2571.83 494.289 2580.62 497.707C2591.32 501.871 2626.4 499.28 2631.76 493.927C2639.46 486.227 2649.89 463.805 2649.89 454.954C2649.89 450.197 2651.22 444.973 2652.85 443.345C2654.48 441.717 2655.4 436.836 2654.91 432.502C2654.08 425.285 2653.08 424.618 2643.03 424.618C2633.09 424.618 2631.96 425.334 2631.18 432.167C2630.7 436.318 2629.16 439.716 2627.75 439.716C2626.34 439.716 2625.19 442.494 2625.2 445.893C2625.22 457.688 2615.82 478.777 2609.2 481.796C2598.74 486.559 2593.59 481.302 2594.62 466.915C2595.1 460.258 2596.44 453.579 2597.59 452.069C2600.79 447.91 2603.28 432.085 2601.48 427.393C2599.68 422.685 2587.78 422.013 2580.57 426.21ZM2677.34 427.363C2675.46 429.628 2672.37 431.481 2670.46 431.481C2666.8 431.481 2663.71 439.815 2663.65 449.9C2663.6 457.988 2676.86 469.913 2685.9 469.913C2693.8 469.913 2700.82 476.21 2698 480.772C2695.07 485.513 2684.02 484.006 2678.71 478.148C2675.39 474.472 2670.26 472.658 2663.19 472.658C2653.71 472.658 2652.63 473.371 2652.63 479.636C2652.63 491.434 2661.14 497.66 2679.55 499.329C2704.06 501.553 2714.43 498.756 2722.91 487.635C2729.27 479.298 2729.77 477.204 2727 470.516C2724.13 463.588 2710.79 455.396 2692.95 449.607C2690.21 448.717 2688.74 446.746 2689.68 445.226C2692.56 440.573 2704.48 442.148 2710.28 447.951C2713.33 451.001 2719.43 453.442 2724.01 453.442C2731.17 453.442 2732.24 452.459 2732.2 445.893C2732.15 436.559 2730.41 434.119 2719.47 428.049C2708.43 421.925 2682.21 421.497 2677.34 427.363ZM2752.14 425.065C2750.25 425.828 2747.93 431.316 2746.98 437.262C2746.03 443.208 2744.17 448.737 2742.86 449.546C2741.55 450.356 2740.48 454.463 2740.48 458.671C2740.48 462.88 2738.54 470.206 2736.17 474.95C2733.81 479.693 2732.27 486.987 2732.74 491.157C2733.52 497.938 2734.84 498.824 2745.19 499.577C2757.42 500.463 2757.62 500.238 2760.3 482.266C2760.98 477.679 2763.82 476.531 2777.56 475.299C2799.34 473.341 2811.14 468.274 2816.05 458.77C2823.14 445.066 2820.61 437.503 2805.77 428.011C2800.23 424.47 2792.83 423.3 2776.95 423.462C2765.19 423.58 2754.03 424.302 2752.14 425.065ZM2833.34 426.594C2830.88 428.527 2828.21 434.432 2827.41 439.716C2824.98 455.89 2822.51 465.394 2818.29 474.81C2816.07 479.768 2814.64 487.179 2815.11 491.281L2815.97 498.737L2852.02 499.5L2888.07 500.263L2889.33 491.698C2890.9 480.959 2888.98 480.21 2862.82 481.357C2848.68 481.975 2842.04 481.275 2842.04 479.169C2842.05 472.77 2849.82 470.14 2871 469.353L2892.83 468.54V460.305V452.069L2871.69 451.27C2854.49 450.62 2850.83 449.722 2852.08 446.466C2853.27 443.37 2859.19 442.461 2878.2 442.461H2902.79L2901.93 433.539L2901.07 424.618L2869.45 423.849C2846.92 423.303 2836.54 424.091 2833.34 426.594ZM2915.48 426.21C2912.4 428.005 2910.68 432.348 2910.68 438.319C2910.68 443.438 2909.44 448.391 2907.93 449.324C2906.42 450.257 2905.19 454.996 2905.19 459.857C2905.19 464.716 2903.26 471.447 2900.9 474.815C2898.51 478.219 2896.99 484.893 2897.46 489.84C2898.18 497.301 2899.57 498.879 2906.04 499.62C2916.16 500.782 2921.11 496.321 2923.32 484.05C2925.49 471.999 2932.36 457.801 2932.53 465.012C2932.66 470.516 2945.81 495.066 2950.21 498.009C2955.76 501.72 2967.43 500.161 2972.02 495.088C2974.52 492.327 2976.56 486.386 2976.56 481.887C2976.56 477.388 2978.38 471.31 2980.59 468.378C2982.81 465.449 2984.66 459.281 2984.71 454.677C2984.76 450.071 2986.13 444.973 2987.76 443.345C2989.38 441.717 2990.31 436.847 2989.81 432.524C2988.84 424.03 2983.54 421.587 2972.23 424.426C2967.05 425.724 2965.58 427.909 2965.58 434.278C2965.58 438.78 2964.34 442.461 2962.83 442.461C2961.33 442.461 2960.05 447.713 2960 454.128L2959.91 465.795L2954.51 459.314C2951.54 455.75 2949.11 451.117 2949.11 449.019C2949.11 446.922 2947.87 445.206 2946.36 445.206C2944.85 445.206 2943.62 442.736 2943.62 439.716C2943.62 427.357 2927.11 419.435 2915.48 426.21ZM3010.37 428.241C3001.66 432.837 2998.63 438.39 2998.56 449.9C2998.51 458.155 3011.78 469.913 3021.14 469.913C3025.31 469.913 3028.72 471.148 3028.72 472.658C3028.72 474.168 3030.68 475.403 3033.06 475.403C3041.05 475.403 3035.28 482.255 3026.56 483.117C3020.54 483.715 3016.52 482.274 3013.13 478.313C3009.82 474.456 3004.99 472.658 2997.91 472.658C2988.63 472.658 2987.54 473.393 2987.54 479.636C2987.54 491.434 2996.05 497.66 3014.46 499.329C3038.97 501.553 3049.34 498.756 3057.82 487.635C3064.18 479.298 3064.68 477.204 3061.91 470.516C3059.04 463.588 3045.7 455.396 3027.86 449.607C3025.12 448.717 3023.65 446.746 3024.59 445.226C3027.5 440.518 3039.41 442.176 3045.36 448.119C3053.59 456.349 3065.51 454.414 3066.63 444.66C3068.58 427.772 3031.67 417.003 3010.37 428.241ZM3083.8 428.401C3082.19 431.407 3080.88 436.345 3080.88 439.373C3080.88 442.404 3079.64 445.646 3078.13 446.579C3076.62 447.512 3075.39 452.278 3075.39 457.172C3075.39 462.067 3074.25 467.244 3072.85 468.677C3071.46 470.11 3069.16 477.772 3067.73 485.697L3065.15 500.109H3075.56C3088 500.109 3094.6 494.385 3094.6 483.605C3094.6 479.271 3095.84 474.964 3097.35 474.03C3098.86 473.097 3100.09 468.639 3100.09 464.123C3100.09 459.607 3102.02 452.187 3104.37 447.633C3106.73 443.079 3108.28 436.038 3107.81 431.986C3107.08 425.664 3105.52 424.497 3096.84 423.778C3089.02 423.124 3086.06 424.173 3083.8 428.401ZM3134.6 427.819C3123.06 434.067 3108.33 449.077 3108.33 454.586C3108.33 457.175 3106.97 461.836 3105.3 464.947C3101.79 471.505 3105.5 480.734 3116.13 491.874C3122.13 498.16 3124.67 498.737 3146.39 498.737C3167.27 498.737 3171.16 497.938 3179.06 492.011C3192.39 482.013 3196.36 474.242 3196.56 457.776C3196.74 442.178 3194.21 437.869 3179.07 428.049C3169.7 421.971 3145.63 421.848 3134.6 427.819ZM3215.94 426.539C3214.12 428.351 3212.64 432.535 3212.64 435.834C3212.64 439.134 3210.8 445.371 3208.54 449.697C3206.29 454.021 3204.43 460.884 3204.42 464.947C3204.42 469.009 3203.17 473.097 3201.66 474.03C3200.15 474.964 3198.92 481.212 3198.92 487.918C3198.92 499.176 3199.46 500.109 3205.96 500.109C3218.06 500.109 3223.62 495.371 3223.62 485.077C3223.62 479.935 3224.86 474.964 3226.37 474.03C3227.88 473.097 3229.19 469.627 3229.29 466.319L3229.46 460.305L3231.84 466.201C3233.15 469.443 3235.54 472.913 3237.16 473.912C3238.77 474.909 3240.09 477.626 3240.09 479.946C3240.09 482.266 3242.65 487.75 3245.77 492.137C3257.32 508.353 3278.53 499.464 3278.53 478.406C3278.53 473.912 3279.6 469.572 3280.91 468.762C3282.22 467.953 3284.13 462.072 3285.15 455.698C3286.17 449.321 3288.28 442.568 3289.84 440.691C3291.4 438.81 3292.27 434.426 3291.78 430.945C3291.05 425.809 3288.93 424.456 3280.56 423.764C3272.53 423.1 3269.92 424.011 3268.76 427.882C3267.93 430.616 3265.48 436.351 3263.29 440.625C3261.1 444.899 3259.31 452.091 3259.31 456.604C3259.31 463.903 3258.85 464.356 3255.19 460.697C3252.93 458.432 3251.07 454.79 3251.07 452.602C3251.07 450.414 3249.22 447.087 3246.96 445.206C3244.69 443.326 3242.84 440.1 3242.84 438.039C3242.84 426.781 3223.82 418.653 3215.94 426.539ZM1993.43 446.134C1995.78 448.959 1995.06 450.502 1990.34 452.824C1972.99 461.348 1965.1 459.994 1970.04 449.343C1972.43 444.199 1975.34 442.5 1981.8 442.483C1986.52 442.472 1991.76 444.114 1993.43 446.134ZM2080.9 447.032C2082.01 450.408 2078.29 451.913 2062.11 454.63C2052.62 456.223 2052.25 455.989 2053.54 449.242C2054.78 442.741 2055.87 442.253 2067.37 443.01C2074.23 443.463 2080.32 445.272 2080.9 447.032ZM2792.64 445.3C2796.2 447.688 2796.05 448.594 2791.47 452.086C2786.09 456.198 2768.66 460.579 2766.46 458.375C2765.79 457.708 2766.77 453.862 2768.64 449.832C2771.23 444.267 2774.03 442.508 2780.28 442.524C2784.81 442.535 2790.37 443.784 2792.64 445.3ZM3167.54 446.384C3174.21 453.044 3172.48 468.718 3164.38 475.09C3154.26 483.051 3147.04 484.72 3139.71 480.797C3131.43 476.364 3129.78 471.615 3133.29 462.339C3139.92 444.849 3157.72 436.556 3167.54 446.384ZM2398.88 483.361C2396.46 487.284 2394.36 487.072 2388.01 482.263C2383.61 478.939 2383.36 477.637 2386.41 473.967C2389.68 470.025 2390.53 470.118 2395.38 474.977C2398.34 477.926 2399.91 481.7 2398.88 483.361Z" fill="white"/>
</svg>
