<svg width="1175" height="501" viewBox="0 0 1175 501" fill="none" xmlns="http://www.w3.org/2000/svg">
<path fill-rule="evenodd" clip-rule="evenodd" d="M922.748 23.0524C865.927 35.5319 812.569 47.3421 804.175 49.2956C795.781 51.2503 736.348 64.2933 672.102 78.2801C606.997 92.4559 550.874 105.27 545.312 107.229C496.653 124.381 464.365 163.562 459.816 210.978L458.926 220.246L452.714 208.039C445.566 193.993 437.82 185.053 428.631 180.242C423.662 177.639 421.801 175.778 419.198 170.809C414.837 162.477 404.987 153.427 395.399 148.94C385.424 144.272 373.186 143.349 359.236 146.21C346.74 148.774 54.5356 212.606 52.102 213.305C50.5817 213.74 45.2318 238.875 25.2448 339.482C11.5174 408.58 0.487827 465.318 0.735538 465.565C0.983248 465.812 9.10721 464.288 18.7879 462.177C28.4697 460.066 36.4739 458.39 36.5749 458.452C36.6758 458.514 35.145 466.631 33.1727 476.49C31.2004 486.349 29.8186 494.648 30.1027 494.932C30.3868 495.217 50.9362 490.977 75.7683 485.512C100.6 480.048 127.785 474.259 136.179 472.649C144.573 471.038 197.564 459.625 253.938 447.284C310.31 434.944 356.8 425.213 357.248 425.66C357.696 426.107 358.366 439.768 358.739 456.02C359.441 486.677 359.724 488.412 364.959 494.189C368.77 498.396 373.219 500.241 379.545 500.241C388.996 500.241 411.221 494.788 420.682 490.147C428.421 486.352 429.762 486.038 433.852 487.077C439.166 488.426 454.273 486.018 460.127 482.89C462.604 481.565 467.003 480.92 474.286 480.812C485.585 480.645 495.103 477.894 501.329 472.998C504.109 470.811 506.11 470.491 517.569 470.404C531.539 470.298 536.784 468.774 546.672 461.947C550.513 459.295 551.443 459.114 555.476 460.234C565.289 462.959 580.481 460.343 588.656 454.523C591.309 452.634 593.22 452.13 595.68 452.67C597.639 453.1 603.618 452.342 609.921 450.861C619.594 448.591 621.326 447.768 625.745 443.35L630.706 438.389L634.674 440.503C636.858 441.666 640.652 442.64 643.108 442.667C648.528 442.727 663.307 439.503 667.56 437.332C671.612 435.266 676.607 429.252 677.548 425.309C678.774 420.173 679.244 420.044 683.098 423.781C690.504 430.959 703.004 432.857 715.241 428.66C718.957 427.385 725.695 425.501 730.214 424.472C734.734 423.444 739.753 421.742 741.367 420.691C743.587 419.245 746.591 418.856 753.694 419.096C763.674 419.431 770.675 417.738 778.577 413.075C781.293 411.473 784.41 410.66 787.101 410.855C793.181 411.294 808.219 407.703 812.625 404.761C816.562 402.13 821.198 395.066 821.198 391.696C821.198 389.938 821.535 389.981 824.2 392.077C832.257 398.416 851.234 400.561 863.839 396.559L869.499 394.762L873.653 399.36C879.388 405.707 884.75 407.171 895.565 405.34C911.231 402.688 921.635 395.246 926.507 383.206L928.617 377.991L933.9 378.467C945.236 379.492 962.195 374.71 968.616 368.676C970.725 366.696 971.576 366.567 974.899 367.726C979.911 369.472 990.491 368.337 999.054 365.133C1003.67 363.404 1008.76 362.572 1015.39 362.46C1023.98 362.316 1025.97 361.824 1033.99 357.859C1039.76 355.008 1043.93 353.642 1045.67 354.042C1047.15 354.383 1052.85 353.593 1058.34 352.285C1063.83 350.979 1072.55 349.12 1077.71 348.156C1082.88 347.193 1089.48 345.656 1092.39 344.74C1095.29 343.824 1101.32 342.485 1105.79 341.763C1110.25 341.041 1115.8 339.625 1118.11 338.617C1120.43 337.608 1124.97 336.865 1128.19 336.964C1135.01 337.173 1145.54 334.617 1152.5 331.064C1160.32 327.079 1169.15 317.416 1172.04 309.681C1175.14 301.381 1175.46 287.695 1172.72 280.823C1171.32 277.336 1171.18 275.613 1172.13 273.832C1173.88 270.553 1173.71 262.59 1171.78 258.07C1169.59 252.926 1165.85 249.727 1157.65 245.972C1144.16 239.795 1128.03 241.141 1115.26 249.508C1110.39 252.695 1108.86 253.175 1106.45 252.257C1102.29 250.669 1088.95 251.822 1084.42 254.16C1082.31 255.252 1077.2 256.369 1073.05 256.641C1068.91 256.914 1063.54 257.969 1061.1 258.984C1058.67 260 1052.96 261.669 1048.42 262.694C1043.87 263.719 1038.56 265.382 1036.62 266.391C1034.19 267.655 1030.37 268.155 1024.3 267.999C1018.09 267.841 1013.59 268.448 1009.04 270.06L1002.58 272.346L999.056 269.036C994.031 264.314 991.144 263.097 984.965 263.097H979.525L985.283 256.346C992.986 247.317 995 244.257 1000.74 232.862C1008.15 218.178 1010.56 207.07 1009.95 190.461C1009.35 174.213 1006.95 166.877 998.646 155.945C993.96 149.776 982.098 140.046 977.321 138.454C976.238 138.092 1027.95 70.4602 1058.65 32.0874C1059.31 31.2644 1059.56 30.2971 1059.2 29.9367C1058.84 29.5774 1045.18 32.206 1028.84 35.7796C1012.51 39.3532 999.049 42.1696 998.939 42.0393C998.828 41.9078 1006.07 32.4232 1015.04 20.9627C1028.52 3.73689 1030.88 0.145679 1028.7 0.243119C1027.25 0.308862 979.568 10.573 922.748 23.0524ZM994.126 24.0691C993.609 24.9695 979.987 42.5969 963.856 63.239L934.524 100.77L866.415 115.663C828.955 123.854 797.124 131.329 795.68 132.274C792.759 134.184 788.863 139.582 789.758 140.478C790.075 140.794 813.258 136.039 841.279 129.911C900.94 116.864 906.949 115.841 918.639 116.736C942.642 118.575 958.838 129.765 964.607 148.497C966.692 155.266 966.988 158.411 966.432 167.868C965.16 189.473 955.009 209.361 936.099 227.295C922.208 240.469 906.456 249.741 885.508 257.074C878.047 259.686 680.22 304.186 676.071 304.186C675.743 304.186 678.735 300.195 682.722 295.315C686.709 290.436 689.75 286.223 689.478 285.952C689.207 285.681 686.171 287.574 682.73 290.159C669.029 300.455 650.22 309.017 630.314 314.019C613.521 318.24 263.379 394.798 262.929 394.347C262.581 393.999 317.514 320.223 319.94 317.78C320.531 317.184 334.633 313.692 351.277 310.018C374.226 304.953 381.446 302.945 381.151 301.708C380.495 298.982 356.942 254.881 356.139 254.88C355.728 254.879 330.37 287.287 299.788 326.894L244.186 398.911L198.4 408.938C173.218 414.452 152.454 418.822 152.259 418.647C152.063 418.471 191.227 365.807 239.29 301.615C293.47 229.254 329.073 182.736 332.979 179.203C342.035 171.007 354.87 162.905 362.699 160.444C376.504 156.101 392.077 160.07 401.29 170.279C403.366 172.579 420.355 204.178 439.044 240.498C457.733 276.817 473.308 306.501 473.656 306.461C474.002 306.42 479.027 300.191 484.82 292.618L495.356 278.847L561.129 264.416C626.036 250.175 636.622 247.466 642.552 243.58L645.57 241.603L642.811 240.583C639.4 239.321 637.743 239.625 583.573 251.497C536.446 261.823 523.437 263.463 509.817 260.793C494.818 257.855 482.965 249.467 477.09 237.632C474.608 232.633 474.294 230.438 474.354 218.485C474.405 208.289 475.054 202.747 477.004 195.84C487.603 158.315 514.625 131.729 554.704 119.4C562.719 116.935 750.284 75.2594 753.367 75.2594C754.012 75.2594 697.204 148.863 693.396 152.961C692.984 153.404 662.39 160.397 625.411 168.499C588.43 176.603 556.605 184.044 554.689 185.035C551.139 186.87 546.828 192.217 547.975 193.363C548.322 193.711 573.091 188.6 603.017 182.007C655.136 170.526 658.02 170.02 671.515 170.001C682.703 169.986 687.153 170.491 693.132 172.451C706.731 176.912 716.746 185.762 721.975 197.941C726.39 208.219 725.46 230.844 720.124 243.027C718.878 245.871 718.072 248.41 718.331 248.67C718.591 248.929 722.885 243.961 727.873 237.629C732.862 231.297 737.279 225.988 737.688 225.831C738.098 225.675 767.488 219.205 803.001 211.454C864.86 197.954 878.35 194.486 884.391 190.534C886.832 188.937 886.915 188.627 885.166 187.649C882.432 186.119 878.14 186.893 827.068 198.139C767.849 211.178 755.713 211.91 737.918 203.51C719.934 195.021 712.681 177.861 716.656 153.213C723.074 113.43 750.461 82.2998 791.849 67.7413C798.939 65.2465 988.079 22.8399 993.539 22.5194C994.517 22.4619 994.728 23.0184 994.126 24.0691ZM890.463 51.2738C842.359 61.8561 799.039 71.9089 794.196 73.6112C763.934 84.2545 742.996 102.371 730.743 128.517C725.56 139.58 721.451 156.247 721.425 166.323C721.375 185.251 733.676 198.445 754.801 202.124C766.897 204.231 775.86 202.927 828.409 191.419C854.781 185.643 878.441 180.918 880.987 180.918C889.7 180.918 894.597 184.781 893.107 190.48C892.381 193.254 885.349 197.707 876.938 200.719C873.076 202.101 840.862 209.572 805.349 217.323C748.868 229.649 740.531 231.743 738.796 234.048C737.704 235.496 726.811 249.361 714.589 264.858C702.365 280.354 693.014 293.189 693.809 293.381C696.628 294.06 873.094 254.729 883.161 251.176C927.784 235.434 957.5 203.461 960.456 168.008C961.084 160.474 960.767 157.416 958.629 150.377C953.984 135.084 942.394 126.452 922.326 123.339C910.769 121.546 902.239 122.91 840.867 136.37C798.431 145.676 786.622 147.894 785.304 146.8C782.937 144.834 783.236 137.554 785.862 133.248C787.084 131.244 789.879 128.495 792.072 127.14C794.809 125.448 817.177 120.053 863.481 109.918C900.564 101.802 931.234 94.7769 931.636 94.3085C933.898 91.6741 978.218 34.5128 978.948 33.2896C979.43 32.483 979.397 31.869 978.875 31.9266C978.352 31.9841 938.567 40.6903 890.463 51.2738ZM697.343 93.5571C676.035 98.3071 635.729 107.233 607.773 113.394C554.217 125.197 544.329 128.219 528.519 137.611C518.737 143.423 504.616 156.565 497.76 166.238C486.366 182.311 480.531 199.623 480.345 217.898C480.209 231.301 481.518 235.395 488.363 242.973C496.566 252.052 512.218 256.961 528.867 255.677C533.942 255.286 560.189 250.148 587.195 244.258C640.334 232.671 645.813 232.059 650.015 237.248C652.987 240.919 652.69 242.861 648.566 246.714C641.892 252.949 639.779 253.492 518.897 280.099L498.94 284.493L486.645 300.283C479.883 308.968 473.806 316.525 473.141 317.075C472.363 317.722 459.412 293.675 436.716 249.443C414.601 206.343 399.809 178.845 396.954 175.53C388.466 165.677 377.283 162.464 364.964 166.339C356.337 169.052 343.63 177.545 334.877 186.446C326.796 194.665 166.971 407.919 168.489 408.459C169.415 408.789 240.261 393.699 240.756 393.067C243.859 389.107 350.075 251.381 352.998 247.526L357.24 241.936L374.324 274.528C385.245 295.362 390.899 307.311 389.998 307.648C389.221 307.938 374.088 311.373 356.37 315.283L324.154 322.39L300.878 353.378C288.077 370.422 277.759 384.523 277.95 384.714C278.142 384.906 310.508 378.006 349.877 369.383C389.246 360.76 467.682 343.593 524.18 331.233C580.678 318.875 630.602 307.672 635.122 306.338C673.617 294.982 704.2 268.984 715.319 238.164C717.884 231.053 718.401 227.592 718.435 217.311C718.471 206.136 718.167 204.358 715.18 198.276C707.107 181.835 688.478 173.96 663.341 176.36C658.449 176.828 629.876 182.587 599.847 189.16C540.946 202.052 541.79 201.971 541.79 194.746C541.79 189.077 545.203 183.429 550.503 180.323C554.169 178.174 572.067 173.802 622.146 162.822C658.862 154.772 689.535 147.495 690.308 146.648C693.367 143.308 737.845 85.9039 737.845 85.2982C737.845 84.4588 741.568 83.7004 697.343 93.5571ZM321.37 170.646C320.726 171.453 307.739 188.86 292.511 209.329C267.029 243.582 264.47 246.637 260.375 247.7C257.927 248.335 226.341 255.286 190.182 263.147C154.024 271.008 123.846 278.043 123.121 278.78C122.397 279.516 121.478 281.87 121.082 284.009C120.465 287.328 120.659 287.81 122.399 287.291C123.521 286.957 153.759 280.299 189.595 272.496C225.431 264.691 255.439 258.07 256.28 257.78C257.24 257.45 257.488 257.795 256.947 258.707C254.279 263.206 199.579 335.005 198.509 335.412C197.804 335.681 176.989 340.328 152.254 345.742C127.521 351.154 107.135 355.773 106.953 356.006C106.771 356.238 103.235 373.33 99.0942 393.988L91.5678 431.546L55.2917 439.498C35.3398 443.872 18.8794 447.31 18.7139 447.137C18.269 446.676 62.3685 226.749 63.04 226.077C63.7009 225.415 317.042 169.533 320.344 169.32C321.954 169.216 322.228 169.571 321.37 170.646ZM186.66 204.815L68.0881 230.866L47.2616 334.651C35.8071 391.732 26.616 438.617 26.8379 438.837C27.3861 439.385 85.0686 426.715 85.9256 425.857C86.3013 425.481 89.9641 408.435 94.0648 387.977C98.1655 367.519 101.658 350.663 101.827 350.518C101.995 350.374 122.209 345.893 146.745 340.56C171.281 335.227 192.521 330.432 193.943 329.902C196.705 328.874 243.264 267.793 241.286 267.793C240.039 267.793 117.532 294.478 114.351 295.442C112.671 295.952 112.704 294.851 114.675 284.61C115.881 278.341 116.987 273.095 117.132 272.955C117.277 272.814 149.621 265.651 189.008 257.039L260.621 241.378L283.733 210.854C296.445 194.066 306.879 179.934 306.92 179.45C307.019 178.269 318.877 175.768 186.66 204.815ZM1148.56 264.386C1150.6 265.095 1152.25 266.019 1152.23 266.44C1152.21 266.862 1150.76 269.068 1149 271.345C1145.93 275.32 1145.64 275.431 1141.74 274.139C1135.15 271.961 1128.28 274.888 1129.09 279.532C1129.31 280.821 1131.68 281.498 1137.92 282.055C1150.78 283.207 1155.7 287.814 1154.02 297.13C1151.51 311.059 1133.18 320.246 1120.63 313.869C1118.41 312.741 1116.43 311.275 1116.22 310.611C1116.01 309.948 1117.35 307.609 1119.18 305.415C1122.42 301.528 1122.58 301.475 1125.32 303.392C1130.27 306.86 1139.18 305.367 1141.71 300.645C1143.87 296.596 1141.32 294.794 1133.41 294.794C1124.12 294.794 1120.81 293.315 1118.68 288.223C1113.9 276.782 1125.22 263.1 1139.47 263.098C1142.44 263.097 1146.53 263.677 1148.56 264.386ZM1104.78 274.154C1106.64 275.512 1107.2 277.844 1107.83 286.775C1109.2 306.141 1108.99 320.621 1107.36 320.635C1106.55 320.642 1103.91 320.975 1101.49 321.376L1097.08 322.103V305.774C1097.08 292.897 1096.7 288.895 1095.26 286.838C1092.98 283.593 1091.21 283.554 1087.26 286.662L1084.17 289.095V307.127C1084.17 326.981 1084.81 325.36 1076.25 327.085L1072.43 327.852V311.246C1072.43 302.044 1071.89 293.627 1071.22 292.369C1069.63 289.407 1064.86 289.447 1061.86 292.446C1059.72 294.59 1059.52 296.359 1059.52 312.794V330.792L1054.37 331.971L1049.22 333.149L1048.5 327.896C1048.1 325.007 1047.78 314.009 1047.78 303.457V284.273L1051.01 283.555C1052.78 283.16 1055.16 282.586 1056.29 282.28C1057.76 281.879 1058.34 282.409 1058.34 284.15C1058.34 287.345 1058.59 287.265 1063.3 282.56C1068.43 277.43 1074.94 275.976 1079.95 278.847C1083.32 280.785 1083.53 280.771 1085.28 278.495C1089.5 273.019 1100.03 270.676 1104.78 274.154ZM984.937 297.958C985.286 298.945 986.494 299.057 989.017 298.334C992.519 297.329 992.6 297.398 992.6 301.363C992.6 304.955 992.185 305.502 988.977 306.143C986.984 306.542 985.12 307.477 984.835 308.221C984.548 308.965 984.727 315.362 985.229 322.436L986.143 335.297L989.257 335.091C991.558 334.94 992.55 335.553 993.056 337.439C994.654 343.396 993.945 345.117 989.371 346.387C982.724 348.234 979.112 347.884 976.639 345.155C974.713 343.026 974.346 340.408 973.994 326.246L973.585 309.808L970.179 310.49C966.944 311.137 966.772 310.966 966.772 307.114C966.772 303.785 967.29 302.928 969.656 302.334C972.306 301.668 972.568 300.981 972.885 293.852L973.229 286.094L978.512 284.806L983.795 283.518L984.118 290.037C984.296 293.621 984.665 297.187 984.937 297.958ZM1032.32 291.876C1036.09 295.049 1039.56 303.482 1039.56 309.482V313.186L1026.94 315.813C1020 317.258 1013.39 318.702 1012.26 319.023C1009.21 319.889 1009.73 324.941 1013.22 328.437C1015.65 330.865 1016.95 331.307 1019.92 330.713C1024.02 329.893 1028.57 326.138 1029.68 322.661C1030.27 320.807 1031.1 320.514 1034.06 321.108C1039.61 322.217 1039.86 323.207 1036.1 329.136C1031.53 336.346 1024.71 340.772 1017.04 341.509C1004.85 342.68 998.469 335.185 998.469 319.708C998.469 301.001 1007.88 289.086 1022.74 288.971C1027.56 288.934 1029.54 289.535 1032.32 291.876ZM1013.64 301.748C1009.7 305.69 1008.77 311.796 1012.26 310.806C1013.39 310.486 1017.36 309.573 1021.07 308.779C1028.19 307.256 1028.63 306.749 1026.47 302.641C1023.59 297.181 1018.56 296.83 1013.64 301.748ZM959.072 306.508C962.812 307.93 962.789 308.556 958.816 313.236C955.754 316.844 955.421 316.951 950.923 315.753C943.212 313.7 936.09 317.948 939.783 322.398C940.767 323.584 943.464 324.144 948.19 324.144C960.263 324.144 965.544 329.305 963.832 339.434C961.372 354 939.374 362.949 927.453 354.232C925.242 352.616 925.266 352.46 928.412 347.919L931.638 343.264L936.25 345.547C941.565 348.176 946.273 347.635 950.243 343.936C954.935 339.565 953.077 337.736 943.016 336.823C938.038 336.371 932.935 335.45 931.678 334.777C928.153 332.89 926.47 326.418 928.014 320.683C931.455 307.905 945.675 301.414 959.072 306.508ZM871.241 309.36C874.553 310.901 877.543 312.619 877.887 313.175C878.231 313.732 876.554 316.486 874.158 319.294L869.803 324.401L865.182 321.925C857.071 317.578 848.414 319.645 846.024 326.501C844.968 329.534 845.122 330.457 846.995 332.331C848.883 334.219 850.893 334.542 860.18 334.448C866.643 334.382 872.212 334.912 873.756 335.738C883.391 340.894 881.962 360.482 871.294 369.501C860.051 379.005 842.096 380.603 833.25 372.886L830.003 370.054L834.842 365.17C839.462 360.507 839.807 360.366 842.473 362.058C851.689 367.905 866.983 363.313 866.983 354.698C866.983 349.596 865.087 348.797 852.954 348.793C843.909 348.789 841.017 348.347 837.987 346.499C828.22 340.543 831.334 319.562 843.061 312.315C853.362 305.948 861.976 305.045 871.241 309.36ZM922.757 312.697C922.48 313.505 919.102 327.453 915.252 343.693C911.402 359.934 907.384 374.9 906.324 376.951C904.396 380.679 900.324 383.023 893.104 384.564L889.289 385.378V380.092C889.289 375.119 889.525 374.73 893.295 373.485C895.497 372.758 897.591 371.401 897.95 370.47C898.306 369.539 895.448 358.404 891.596 345.727C887.744 333.051 884.593 322.021 884.593 321.218C884.593 320.407 887.171 319.249 890.404 318.61L896.216 317.461L897.491 323.444C900.809 339.016 903.645 349.971 904.355 349.969C904.786 349.967 906.459 341.911 908.073 332.066L911.008 314.165L916.878 312.81C920.106 312.065 922.863 311.405 923.005 311.343C923.146 311.28 923.034 311.891 922.757 312.697ZM799.862 356.428C800.016 368.696 800.446 380.638 800.814 382.966C801.483 387.184 801.467 387.203 795.937 388.595C792.886 389.364 790.163 389.766 789.886 389.489C789.609 389.212 789.063 374.225 788.673 356.183L787.964 323.38L793.134 322.282L798.305 321.183L798.943 327.653C799.294 331.211 799.707 344.16 799.862 356.428ZM771.54 347.576C776.299 350.477 778.958 355.601 779.766 363.423C780.505 370.596 781.84 369.742 763.966 373.527C749.848 376.516 748.964 377.238 752.109 383.214C753.948 386.707 755.385 387.5 759.91 387.521C763.835 387.539 767.097 385.124 770.732 379.514C772.365 376.992 772.792 376.892 776.015 378.283C777.944 379.116 779.697 379.908 779.91 380.045C780.757 380.587 777.254 385.794 772.77 390.658C764.758 399.35 750.524 401.458 744.534 394.839C738.702 388.395 737.247 373.58 741.365 362.575C746.53 348.769 761.386 341.385 771.54 347.576ZM686.19 352.191V357.935L678.266 359.699C673.908 360.669 667.304 362.13 663.591 362.947L656.84 364.433V371.877C656.84 375.972 657.236 379.308 657.721 379.292C658.206 379.275 664.28 378.023 671.222 376.507L683.842 373.75V379.852V385.952L670.635 388.821L657.427 391.691L657.779 405.248L658.13 418.807L651.995 420.223C647.086 421.355 645.67 421.34 644.912 420.144C644.389 419.322 643.955 409.883 643.944 399.168C643.935 388.453 643.593 374.189 643.186 367.471L642.445 355.254L662.263 350.958C673.164 348.594 683.006 346.613 684.136 346.555C685.826 346.468 686.19 347.465 686.19 352.191ZM728.894 358.336C729.94 363.568 729.805 402.553 728.738 403.212C728.249 403.514 725.872 404.132 723.455 404.586C719.856 405.261 719.062 405.068 719.062 403.518C719.062 402.478 718.533 401.627 717.888 401.627C717.242 401.627 716.714 402.148 716.714 402.784C716.714 403.42 714.657 405.302 712.142 406.966C708.652 409.276 706.39 409.904 702.574 409.625C694.154 409.006 693.376 406.94 692.478 382.817L691.711 362.247L697.755 361.008L703.8 359.769V376.328C703.8 389.415 704.183 393.433 705.628 395.495C707.905 398.748 710.804 398.81 714.765 395.695C717.805 393.303 717.831 393.148 718.152 374.908L718.475 356.532L721.41 355.717C727.042 354.152 728.133 354.533 728.894 358.336ZM758.215 355.919C752.719 357.952 748.212 367.643 752.814 367.532C757.35 367.422 767.664 364.413 768.112 363.07C768.788 361.041 765.412 356.263 762.824 355.587C761.629 355.273 759.555 355.423 758.215 355.919ZM609.112 375.506C609.52 382.447 609.929 397.352 610.023 408.628L610.195 429.132L604.873 430.489L599.551 431.846L598.834 412.922C598.439 402.512 597.99 387.528 597.836 379.624L597.554 365.252L602.25 364.194C604.833 363.613 607.267 363.08 607.66 363.011C608.052 362.942 608.706 368.564 609.112 375.506ZM583.463 391.409C587.452 395.399 589.906 401.799 589.916 408.247C589.922 411.579 589.502 412.009 585.521 412.747C583.1 413.196 576.497 414.623 570.846 415.918C561.36 418.093 560.574 418.493 560.574 421.156C560.574 424.875 565.509 429.802 569.235 429.802C572.613 429.802 578.889 424.909 580 421.409C580.634 419.414 581.409 419.118 584.428 419.722C589.974 420.832 590.225 421.822 586.466 427.75C581.625 435.386 574.959 439.525 566.524 440.134C560.277 440.586 559.453 440.343 555.506 436.877C550.644 432.608 548.85 427.515 548.841 417.956C548.822 399.686 558.76 387.633 573.899 387.565C578.791 387.542 580.137 388.084 583.463 391.409ZM539.388 399.249C541.868 400.577 541.861 400.614 538.222 405.206C535.199 409.024 534.183 409.625 532.383 408.662C529.549 407.146 523.461 407.171 520.581 408.712C519.326 409.383 518.31 411.159 518.31 412.684C518.31 415.892 520.803 416.848 529.229 416.872C535.383 416.89 541.089 419.238 542.235 422.224C543.869 426.485 542.894 433.825 540.047 438.683C534.283 448.518 517.341 453.096 507.934 447.362L504.015 444.971L507.255 440.616C509.037 438.22 510.635 436.074 510.805 435.846C510.975 435.618 512.323 436.279 513.8 437.313C517.221 439.709 525.229 439.739 528.615 437.366C531.632 435.254 532.088 430.385 529.367 429.341C528.346 428.949 524.178 428.628 520.105 428.628C510.648 428.628 507.749 426.536 506.912 419.104C505.906 410.184 511.294 401.91 520.287 398.561C525.225 396.723 535.349 397.088 539.388 399.249ZM564.677 399.765C561.976 402.466 559.682 408.17 560.833 409.322C561.132 409.62 565.157 409.01 569.779 407.966C579.002 405.884 580.414 403.857 575.836 399.279C572.676 396.119 568.124 396.318 564.677 399.765ZM449.046 403.19C449.046 408.24 449.009 408.283 443.868 409.459L438.691 410.644L438.187 405.842C437.91 403.201 437.835 400.846 438.022 400.61C438.399 400.132 445.288 398.412 447.578 398.224C448.544 398.146 449.046 399.84 449.046 403.19ZM493.14 409.411C497.002 411.941 499.978 418.948 500.05 425.679L500.114 431.534L486.026 434.577C471.056 437.81 470.218 438.411 472.457 444.297C475.141 451.358 485.533 450.192 490.184 442.31C492.476 438.426 492.729 438.316 496.635 439.515C498.872 440.2 500.701 441.144 500.701 441.611C500.701 442.077 498.932 445.026 496.77 448.163C492.194 454.803 482.85 460.328 476.207 460.321C462.87 460.308 455.925 443.815 461.438 425.25C465.829 410.466 482.238 402.269 493.14 409.411ZM419.109 410.899C421.046 411.999 423.952 415.25 425.566 418.122C428.224 422.852 428.501 424.62 428.501 436.846C428.501 448.566 428.131 451.166 425.696 456.555C424.056 460.183 420.683 464.705 417.58 467.437C412.029 472.324 408.036 473.822 390.053 477.772L379.781 480.029V460.969C379.781 450.487 379.439 435.549 379.021 427.775L378.26 413.638L389.293 411.2C395.36 409.861 401.646 408.539 403.26 408.266C407.87 407.484 415.256 408.71 419.109 410.899ZM449.48 418.356C449.868 419.809 450.195 430.814 450.203 442.812L450.219 464.626L445.102 465.797L439.986 466.968L439.232 454.659C438.819 447.89 438.48 436.901 438.48 430.24V418.129L442.295 417.028C448.048 415.367 448.711 415.49 449.48 418.356ZM475.525 419.53C471.985 422.644 469.803 430.648 472.807 429.495C473.813 429.108 477.859 428.159 481.798 427.384C489.55 425.859 490.552 424.378 487.133 419.498C484.737 416.077 479.432 416.091 475.525 419.53ZM396.803 422.616L393.281 423.37L393.065 443.088C392.819 465.512 392.68 465.211 401.853 462.164C411.946 458.811 416.174 452.109 416.174 439.457C416.174 425.125 410.032 419.785 396.803 422.616Z" fill="white"/>
</svg>
