<svg width="3501" height="501" viewBox="0 0 3501 501" fill="none" xmlns="http://www.w3.org/2000/svg">
<path fill-rule="evenodd" clip-rule="evenodd" d="M96.8856 7.10934C92.7592 19.6533 0.588867 478.868 0.588867 486.879C0.588867 493.395 16.6054 494.747 93.9955 494.747C145.369 494.747 187.402 493.598 187.402 492.192C187.402 487.791 220.534 333.164 223.649 323.043C226.331 314.318 236.473 313.428 333.27 313.428C439.38 313.428 439.957 313.362 442.809 301.065C450.578 267.582 462.127 207.423 462.127 200.434C462.127 193.851 444.375 192.549 354.88 192.549H247.633L250.506 180.186C252.089 173.384 255.336 157.934 257.726 145.846L262.061 123.868L391.765 122.395L521.463 120.923L530.561 70.1973C535.561 42.2962 540.924 15.1478 542.473 9.8566C545.116 0.812639 532.072 0.241211 322.215 0.241211C148.627 0.241211 98.6438 1.76319 96.8856 7.10934ZM572.017 1.79616C572.017 4.39506 479.039 469.104 475.864 482.384L472.908 494.747H563.039H653.171L700.506 254.302C726.539 122.06 747.842 10.7962 747.842 7.0489C747.842 1.91703 726.182 0.241211 659.93 0.241211C611.578 0.241211 572.017 0.944508 572.017 1.79616ZM800.039 12.6038C796.864 25.8841 703.886 490.593 703.886 493.192C703.886 494.043 793.677 494.747 903.43 494.747H1102.97L1112.99 441.175C1118.51 411.714 1124.17 384.516 1125.58 380.736C1127.57 375.384 1103.35 373.868 1015.69 373.868H903.237L927.27 254.362C940.484 188.637 957.089 104.571 964.166 67.5489L977.039 0.241211H890.017C804.314 0.241211 802.951 0.428024 800.039 12.6038ZM1228.71 7.10934C1225.87 15.5654 1132.44 484.89 1132.45 490.626C1132.45 492.89 1221.47 494.747 1330.26 494.747C1439.05 494.747 1528.06 494.126 1528.06 493.362C1528.06 492.598 1533.01 466.027 1539.05 434.307C1545.09 402.587 1550.04 376.016 1550.04 375.252C1550.04 374.488 1499.64 373.868 1438.04 373.868H1326.05L1361.14 202.164C1380.43 107.73 1397.65 23.6643 1399.39 15.3511L1402.56 0.241211H1316.79C1253.06 0.241211 1230.42 2.00495 1228.71 7.10934ZM1779.11 243.373C1752.58 377.098 1730.98 488.362 1731.12 490.626C1731.25 492.89 1770.72 494.747 1818.81 494.747H1906.27L1911.81 468.648C1914.86 454.296 1922.91 415.966 1929.69 383.483L1942.03 324.417L1978.18 324.45C2019.87 324.483 2051.27 331.928 2064.19 344.846C2071.31 351.966 2072.53 360.329 2069.96 384.472C2068.18 401.307 2065.08 434.236 2063.09 457.659L2059.46 500.241H2150.52C2240.76 500.241 2241.6 500.131 2243.38 487.879C2244.37 481.082 2242.18 473.043 2238.51 470.021C2233.33 465.752 2234.31 452.296 2242.96 409.582C2258.19 334.362 2255.13 310.73 2226.95 285.708L2205.01 266.23L2230.39 252.741C2279.08 226.868 2306 174.785 2301.67 114.851C2298.97 77.6093 2281.69 51.6148 2245.53 30.428C2202.54 5.23572 2161.32 0.439013 1986.78 0.334618L1827.35 0.241211L1779.11 243.373ZM2368.61 1.61484C2368.54 2.37308 2346.74 113.631 2320.14 248.868L2271.79 494.747H2361.46C2410.79 494.747 2451.14 494.043 2451.14 493.192C2451.14 490.593 2544.12 25.8841 2547.29 12.6038L2550.25 0.241211H2459.48C2409.57 0.241211 2368.67 0.856596 2368.61 1.61484ZM2575.3 4.87857C2573.72 7.42253 2567.24 34.0049 2560.9 63.9445C2554.56 93.8786 2548.11 122.697 2546.58 127.988C2544.03 136.835 2550.22 137.604 2623.85 137.604C2689.46 137.604 2703.89 139.016 2703.89 145.434C2703.89 149.741 2688.98 229.203 2670.76 322.016C2652.54 414.829 2639.15 492.285 2641 494.131C2645.38 498.51 2806.33 498.527 2810.72 494.148C2813.45 491.412 2837.67 377.131 2880.17 166.45L2885.98 137.604H2964.36H3042.73L3055.08 81.2852C3061.88 50.3071 3068.74 19.406 3070.33 12.6038L3073.21 0.241211H2825.68C2689.54 0.241211 2576.87 2.32912 2575.3 4.87857ZM3096.96 7.10934C3095.75 10.8896 3074.66 117.824 3050.09 244.747C3025.52 371.67 3004.16 479.84 3002.63 485.131C3000.02 494.164 3012.02 494.747 3200.77 494.747C3311.28 494.747 3401.73 494.131 3401.78 493.373C3401.83 492.615 3406.46 466.653 3412.08 435.681L3422.29 379.362H3317.97H3213.65L3217.3 358.758C3224.92 315.752 3217.44 318.923 3311.4 318.923C3358.03 318.923 3396.19 317.961 3396.19 316.78C3396.19 315.604 3401.14 290.604 3407.18 261.23C3413.23 231.857 3418.17 205.62 3418.17 202.934C3418.17 200.241 3379.85 198.043 3333.01 198.043C3286.17 198.043 3247.95 196.192 3248.07 193.923C3248.2 191.653 3251.48 176.203 3255.35 159.582L3262.4 129.362L3370.43 127.873C3477.08 126.401 3478.5 126.225 3481.3 114.137C3490.13 76.0324 3500.59 20.0654 3500.59 10.8731C3500.59 0.554397 3494.67 0.241211 3299.87 0.241211C3144.12 0.241211 3098.65 1.77967 3096.96 7.10934ZM2095.54 128.51C2105.27 132.576 2116.42 139.758 2120.33 144.466C2130.34 156.543 2123.29 178.966 2107.17 186.307C2094.42 192.12 1980.91 196.681 1975.81 191.587C1974.5 190.263 1975.58 180.67 1978.23 170.263C1980.87 159.857 1984.56 144.538 1986.42 136.23C1989.77 121.285 1990.29 121.12 2033.84 121.12C2058.29 121.12 2085.73 124.406 2095.54 128.51ZM1492.43 204.912C1484.67 238.395 1473.12 298.554 1473.12 305.543C1473.12 312.153 1492.54 313.428 1593.11 313.428H1713.09L1722.23 262.285C1727.25 234.159 1731.36 206.961 1731.36 201.846C1731.36 193.401 1720.54 192.549 1613.33 192.549C1495.45 192.549 1495.3 192.565 1492.43 204.912Z" fill="currentColor"/>
</svg>
