<svg width="2335" height="501" viewBox="0 0 2335 501" fill="none" xmlns="http://www.w3.org/2000/svg">
<path fill-rule="evenodd" clip-rule="evenodd" d="M110.234 1.58473C110.234 2.31278 85.564 114.195 55.4115 250.211C25.2591 386.228 0.588867 498.127 0.588867 498.877C0.588867 499.703 29.968 500.241 75.1199 500.241H149.651L150.456 496.952C150.899 495.142 159.697 455.177 170.005 408.139L188.749 322.616L240.132 322.231C268.392 322.021 291.514 321.521 291.514 321.12C291.514 320.721 299.08 287.113 308.327 246.437C317.573 205.762 325.139 171.558 325.139 170.431C325.139 168.713 317.07 168.382 275.25 168.382H225.362L226.275 163.813C226.778 161.3 227.189 158.668 227.189 157.965C227.189 157.256 251.931 156.686 282.645 156.686C334.182 156.686 338.156 156.505 338.891 154.128C340.159 150.036 370.456 4.10511 370.457 2.08618C370.459 0.637396 343.463 0.258754 240.347 0.258754C163.525 0.258754 110.234 0.801133 110.234 1.58473ZM390.227 2.08618C389.509 4.24838 279.819 498.431 279.819 499.506C279.819 499.911 334.093 500.241 400.429 500.241C466.764 500.241 521.04 499.749 521.04 499.145C521.041 498.541 528.605 463.51 537.851 421.297C547.096 379.083 554.66 343.732 554.661 342.738C554.663 341.354 544.34 340.842 510.34 340.545L466.017 340.159L502.989 171.305C523.325 78.4358 539.981 1.95899 540.003 1.35521C540.026 0.751427 506.472 0.258754 465.439 0.258754C407.054 0.258754 390.702 0.656401 390.227 2.08618ZM681.851 29.7402C664.564 45.8727 647.313 61.9657 643.515 65.5035L636.61 71.9361L597.697 246.252C576.294 342.124 558.677 421.071 558.55 421.688C558.422 422.305 569.831 440.217 583.902 461.49L609.486 500.17L691.354 500.167L773.223 500.165L810.85 465.074C831.545 445.775 848.821 428.523 849.242 426.737C849.866 424.079 924.517 89.6942 926.21 81.9664C926.493 80.6726 915.254 61.7595 901.234 39.9357L875.742 0.258754L794.513 0.333313L713.283 0.407872L681.851 29.7402ZM1408.58 5.74102C1407.8 8.75699 1383.4 120.101 1354.36 253.174C1325.33 386.247 1301.23 496.276 1300.81 497.683C1300.1 500.096 1304.32 500.241 1375.22 500.241H1450.39L1455.25 478.678C1457.91 466.817 1465.11 435.075 1471.23 408.139L1482.37 359.164L1521.15 358.775L1559.94 358.387L1600.78 322.161L1641.62 285.937L1651.7 239.22C1657.25 213.526 1667.52 166.55 1674.53 134.829L1687.28 77.1537L1661.65 38.7062L1636.03 0.258754H1523.02H1410.01L1408.58 5.74102ZM1732.25 3.53934C1728.89 17.5754 1624.8 496.93 1624.8 498.376C1624.8 499.876 1653.4 500.241 1770.85 500.241H1916.89L1919.22 489.642C1920.49 483.812 1931.03 436.05 1942.63 383.506L1963.71 287.966L1951.42 269.312C1944.65 259.052 1939.12 250.013 1939.12 249.224C1939.12 248.434 1943.24 243.902 1948.28 239.152C1953.32 234.401 1963.21 225.052 1970.26 218.375L1983.07 206.237L1996.96 142.85L2010.85 79.465L1985.52 40.2267L1960.18 0.989723L1846.61 0.615467L1733.04 0.241211L1732.25 3.53934ZM2089.7 31.1963C2071.61 48.1153 2054.4 64.1396 2051.45 66.8047L2046.1 71.651L2007.14 246.059C1985.71 341.984 1968.48 421.626 1968.85 423.042C1969.22 424.459 1980.61 442.398 1994.16 462.909L2018.79 500.2L2099.68 500.221L2180.57 500.241L2212.98 470.773C2230.81 454.566 2248.11 438.84 2251.42 435.825L2257.45 430.347L2296.51 255.434C2317.99 159.233 2335.25 79.7004 2334.86 78.6961C2334.47 77.6917 2323.12 59.6324 2309.63 38.5644L2285.1 0.258754L2203.84 0.34647L2122.59 0.434187L2089.7 31.1963ZM358.763 10.4645C358.763 11.254 352.514 41.9093 344.875 78.5864C337.236 115.265 330.987 145.54 330.987 145.863C330.987 146.188 306.04 146.452 275.55 146.452H220.113L217.904 156.321C216.689 161.747 215.247 168.656 214.7 171.671L213.706 177.153H263.575C302.523 177.153 313.432 177.554 313.391 178.981C313.363 179.986 306.602 210.412 298.366 246.595L283.395 312.382L232.119 312.767L180.843 313.15L170.511 360.28C164.829 386.2 156.05 426.323 151.003 449.439L141.827 491.47H77.0555C41.431 491.47 12.2844 491.122 12.2844 490.698C12.2844 489.524 117.5 14.5243 118.409 11.5888C119.156 9.17949 126.184 9.03038 238.983 9.03038C316.335 9.03038 358.763 9.53913 358.763 10.4645ZM527.847 12.3197C527.396 14.1296 510.846 89.6197 491.069 180.077C471.292 270.534 454.741 346.024 454.291 347.834L453.472 351.124H498.221C522.831 351.124 542.948 351.618 542.924 352.22C542.9 352.822 536.105 384.237 527.826 422.028L512.771 490.739L401.983 491.113L291.193 491.489L292.011 488.189C293.551 481.989 398.236 10.4967 398.236 9.76281C398.236 9.35931 427.583 9.03038 463.45 9.03038H528.665L527.847 12.3197ZM893.174 44.4823C905.829 63.9802 916.178 80.5922 916.174 81.3963C916.169 82.2003 898.872 160.158 877.732 254.636L839.299 426.413L804.169 458.942L769.038 491.47H692.056H615.072L592.178 457.118C579.585 438.226 569.259 421.944 569.231 420.936C569.203 419.928 586.431 341.804 607.513 247.326L645.848 75.5485L681.74 42.2894L717.632 9.03038H793.9H870.168L893.174 44.4823ZM1653.81 43.7718L1677 78.5133L1661.39 149.397C1652.81 188.382 1642.87 234.055 1639.31 250.89L1632.84 281.5L1595.56 314.783L1558.28 348.065L1516.56 348.133L1474.84 348.2L1458.7 419.469L1442.56 490.739L1377.15 491.119C1315.28 491.48 1311.78 491.36 1312.54 488.926C1313.62 485.423 1417.21 11.6399 1417.21 10.1868C1417.21 9.55083 1465.22 9.03038 1523.91 9.03038H1630.62L1653.81 43.7718ZM1977.52 44.8858L2000.57 80.7106L1987.28 141.725C1978.17 183.517 1973.22 203.464 1971.54 205.044C1970.19 206.313 1963.47 212.563 1956.62 218.932C1949.75 225.302 1940.07 234.321 1935.1 238.973L1926.07 247.431L1939.76 268.423L1953.45 289.417L1931.2 390.077L1908.96 490.739L1844.36 491.119C1793.17 491.421 1779.77 491.117 1779.77 489.657C1779.77 488.262 1814.37 329.658 1818.52 312.017C1819.23 308.983 1818.79 308.727 1812.81 308.727C1806.36 308.727 1806.31 308.765 1804.98 314.941C1804.24 318.359 1795.18 359.474 1784.84 406.312L1766.04 491.47H1701.27C1665.64 491.47 1636.48 490.977 1636.46 490.373C1636.44 489.769 1659.95 381.221 1688.71 249.154L1741 9.03038L1847.73 9.04646L1954.47 9.06108L1977.52 44.8858ZM2296.07 34.6143C2304.85 48.2834 2315.07 64.2974 2318.78 70.2022L2325.54 80.9358L2286.96 253.675L2248.38 426.413L2212.59 458.942L2176.81 491.47H2100.6H2024.38L2001.48 457.118C1988.89 438.226 1978.57 421.944 1978.55 420.936C1978.53 419.928 1995.77 341.804 2016.86 247.326L2055.22 75.5485L2091.1 42.2982L2126.98 9.04646L2203.54 9.40463L2280.11 9.76135L2296.07 34.6143ZM793.618 24.7608L724.835 25.1395L692.744 54.9045L660.653 84.6695L623.706 250.424C603.385 341.59 586.773 416.82 586.792 417.604C586.811 418.387 595.214 431.694 605.465 447.174L624.105 475.321L693.851 475.355L763.597 475.388L786.684 453.949C799.382 442.158 813.41 429.09 817.858 424.911L825.946 417.311L862.348 254.471C882.369 164.908 899.032 89.8316 899.378 87.6343C899.876 84.4532 896.319 77.9169 881.934 55.5741C871.994 40.1389 863.534 26.8061 863.132 25.945C862.624 24.8588 841.394 24.4962 793.618 24.7608ZM1526.12 24.7477L1431.09 25.1351L1381.98 249.896L1332.87 474.657L1381.11 475.043C1407.64 475.255 1429.7 475.077 1430.13 474.647C1430.56 474.217 1436.61 448.715 1443.58 417.977C1450.55 387.238 1457.72 355.675 1459.51 347.834L1462.77 333.58L1506.87 333.537L1550.97 333.493L1582.4 305.662C1599.69 290.354 1615 276.695 1616.42 275.309C1618.26 273.508 1623.55 251.921 1634.95 199.752C1643.72 159.582 1653.15 116.692 1655.9 104.439L1660.89 82.1638L1641.37 52.906C1630.64 36.816 1621.7 23.8091 1621.5 24.005C1621.31 24.1994 1578.38 24.5342 1526.12 24.7477ZM2202.91 24.7608L2134.11 25.1395L2102.13 54.8621L2070.14 84.5862L2045.66 194.098C2032.19 254.33 2015.43 329.379 2008.41 360.875L1995.65 418.139L2014.16 446.071C2024.35 461.433 2032.68 474.479 2032.68 475.061C2032.68 475.643 2063.88 475.942 2102.02 475.726L2171.35 475.333L2203.25 446.284L2235.16 417.235L2272.28 250.646L2309.41 84.0584L2292.14 57.1427C2282.64 42.3406 2274.16 28.9127 2273.29 27.3046C2271.74 24.4363 2270.41 24.388 2202.91 24.7608ZM131.437 28.401C129.618 36.0528 32.7515 474.184 32.7515 474.757C32.7515 475.105 54.625 475.385 81.3609 475.381L129.97 475.375L147.445 395.34C157.057 351.321 165.846 311.178 166.978 306.133L169.035 296.959L220.106 297.361C270.138 297.754 271.19 297.703 271.872 294.839C275.817 278.265 294.438 195.476 294.438 194.508C294.438 193.808 272.071 193.234 244.732 193.234C205.912 193.234 195.04 192.834 195.083 191.407C195.116 190.403 197.923 176.751 201.322 161.072L207.503 132.564L263.031 131.833L318.56 131.102L329.621 78.1069L340.682 25.1117H236.45H132.219L131.437 28.401ZM362.648 247.692C335.485 370.111 312.929 471.422 312.522 472.83C311.825 475.248 316.968 475.388 406.079 475.388C494.623 475.388 500.421 475.232 501.128 472.83C502.383 468.574 523.962 368.765 523.962 367.221C523.962 366.322 507.381 365.641 479.585 365.398L435.208 365.012L471.334 199.813C491.203 108.954 507.937 32.4769 508.517 29.863L509.575 25.1117H460.805H412.035L362.648 247.692ZM1754.19 26.9289C1753.2 29.7709 1656.96 472.155 1656.96 473.872C1656.96 474.888 1672.97 475.387 1705.57 475.385L1754.18 475.382L1773.67 386.573C1784.38 337.728 1793.47 296.612 1793.87 295.205C1794.51 292.908 1796.91 292.646 1817.3 292.646H1840.02L1839.19 295.962C1836.59 306.34 1800.24 472.042 1800.24 473.561C1800.23 474.986 1810.84 475.388 1848.42 475.388H1896.61L1898.03 469.906C1900.52 460.275 1936.4 296.754 1936.56 294.286C1936.65 292.982 1929.78 281.331 1921.31 268.393L1905.9 244.872L1933.16 219.418L1960.41 193.965L1971.73 142.067C1977.96 113.522 1983.4 88.8419 1983.83 87.2221C1984.37 85.1417 1979.06 75.6947 1965.75 55.0595L1946.89 25.8427L1850.86 25.4669C1774.79 25.1687 1754.7 25.4728 1754.19 26.9289ZM1878.59 119.772C1878.15 121.18 1874.14 138.448 1869.66 158.148C1865.18 177.848 1861.17 195.116 1860.75 196.524C1860.06 198.818 1857.63 199.082 1837.32 199.082C1816.42 199.082 1814.72 198.883 1815.43 196.524C1815.85 195.116 1819.55 179.163 1823.64 161.072C1827.73 142.98 1831.72 125.712 1832.52 122.696L1833.97 117.214H1856.67C1877.62 117.214 1879.31 117.411 1878.59 119.772ZM792.235 126.351C791.808 128.159 780.61 179.309 767.35 240.016C754.092 300.723 741.876 356.477 740.205 363.916L737.165 377.439H715.328H693.491L694.279 374.149C694.714 372.339 705.922 322.835 719.188 264.138C732.454 205.442 745.061 149.688 747.206 140.239L751.106 123.061H772.06H793.014L792.235 126.351ZM1551.66 124.158C1551.64 124.76 1546.17 149.925 1539.52 180.077L1527.41 234.9L1505.09 235.303C1484.28 235.68 1482.82 235.533 1483.56 233.11C1484.53 229.926 1507.85 125.069 1507.85 123.899C1507.85 123.439 1517.71 123.061 1529.77 123.061C1541.84 123.061 1551.69 123.556 1551.66 124.158ZM2201.78 126.351C2199.72 134.742 2145.25 375.905 2145.25 376.623C2145.25 377.072 2135.67 377.439 2123.95 377.439C2104.35 377.439 2102.72 377.235 2103.44 374.88C2103.87 373.472 2112.11 336.139 2121.74 291.915C2131.37 247.692 2143.56 191.888 2148.83 167.909C2154.1 143.929 2158.41 124.028 2158.41 123.686C2158.41 123.342 2168.35 123.061 2180.49 123.061H2202.58L2201.78 126.351ZM1845 135.853C1844.14 138.752 1833.86 183.154 1833.86 183.947C1833.86 185.001 1847.02 184.42 1847.05 183.366C1847.07 182.764 1849.61 171.251 1852.7 157.782L1858.31 133.295H1852.03C1847.31 133.295 1845.56 133.931 1845 135.853ZM759.581 153.401C757.708 162.043 746.359 212.465 734.363 265.451C722.368 318.438 712.552 362.022 712.552 362.305C712.552 362.588 715.021 362.819 718.04 362.819H723.53L747.548 252.808C760.758 192.303 771.851 141.647 772.199 140.239C772.708 138.184 771.866 137.682 767.911 137.685L762.989 137.69L759.581 153.401ZM1511.66 176.796C1506.92 198.3 1502.73 216.718 1502.36 217.722C1501.89 218.997 1503.49 219.549 1507.66 219.549C1512.65 219.549 1513.77 219.007 1514.42 216.26C1517.55 203.105 1531.24 140.387 1531.24 139.184C1531.24 138.358 1528.77 137.685 1525.75 137.69L1520.27 137.7L1511.66 176.796ZM2160.99 182.641C2139.39 281.224 2121.86 361.676 2121.86 362.233C2121.86 362.555 2124 362.813 2126.61 362.806L2131.36 362.793L2156.14 252.795C2169.77 192.296 2181.2 141.647 2181.53 140.239C2182.03 138.138 2181.13 137.682 2176.49 137.687L2170.83 137.693L2160.99 182.641ZM1059.72 197.682C1041.4 200.078 1014.41 209.077 1003.7 216.362C997.975 220.255 911.085 300.853 910.162 303.127C909.896 303.78 911.541 303.962 913.817 303.529C916.092 303.098 944.461 298.564 976.856 293.458C1030.94 284.93 1036.32 284.32 1042.64 286.005C1046.43 287.013 1061.51 293.846 1076.16 301.19C1101.77 314.031 1103.69 314.736 1126.51 319.653L1150.22 324.763L1176.58 320.324C1219.24 313.135 1237.07 304.333 1260.75 278.758C1275.63 262.69 1315.04 217.776 1314.62 217.37C1314.36 217.114 1293.42 220.821 1268.09 225.606C1217.77 235.113 1213.11 235.384 1188.6 230.239C1179.74 228.378 1174.32 226.075 1165 220.223C1144.27 207.213 1129.77 202.543 1099.43 199.111C1085.06 197.487 1072.23 196.242 1070.92 196.344C1069.61 196.446 1064.57 197.047 1059.72 197.682ZM1102.2 209.183C1129.07 212.367 1142.89 217 1161.55 229.072C1173.56 236.84 1176.06 237.777 1192.8 240.815C1211.26 244.162 1223.54 243.459 1257.74 237.09C1274.96 233.882 1289.27 231.468 1289.52 231.724C1289.78 231.979 1288.84 233.457 1287.44 235.006C1286.04 236.556 1277.67 246.047 1268.85 256.098C1248.55 279.239 1243.46 284.094 1230.66 292.557C1218.96 300.302 1204.13 305.66 1182.29 310.032C1156.08 315.28 1151.27 315.311 1128.4 310.379C1109.49 306.301 1105.44 304.788 1077.35 291.31C1060.57 283.258 1044.03 276.248 1040.59 275.733C1036.28 275.087 1019.58 277.136 986.604 282.356C960.343 286.513 938.613 289.67 938.313 289.371C938.015 289.072 952.903 274.72 971.398 257.478C1006.89 224.385 1011.91 220.812 1031.99 214.311C1058.16 205.835 1067.93 205.121 1102.2 209.183ZM1061.96 222.728C1048.8 224.602 1028.02 231.808 1017.44 238.158C1008.94 243.266 986.443 264.404 987.93 265.89C988.325 266.286 999.833 264.855 1013.5 262.71L1038.35 258.81L1049.79 262.017C1056.08 263.78 1072.91 271.071 1087.19 278.217C1111.29 290.282 1114.63 291.529 1133.97 295.674C1153.45 299.852 1155.54 300.032 1166.48 298.485C1191.83 294.905 1210.12 289.152 1221.88 281.057C1228.05 276.812 1247.1 256.549 1245.97 255.425C1245.66 255.109 1241.13 255.753 1235.91 256.854C1223.11 259.552 1202.9 258.302 1181.83 253.509C1167.26 250.192 1163.46 248.667 1153.25 242.022C1135.48 230.455 1125.17 227.125 1097.04 223.856C1083.77 222.314 1072.59 221.124 1072.19 221.212C1071.79 221.301 1067.18 221.982 1061.96 222.728Z" fill="currentColor"/>
</svg>
