<svg width="1801" height="853" viewBox="0 0 1801 853" fill="none" xmlns="http://www.w3.org/2000/svg">
<path d="M182.875 2.82336C166.733 6.85966 153.729 31.0775 132.655 98.7976C97.6794 210.02 97.231 215.402 125.48 227.062C132.655 230.202 138.932 234.686 138.932 237.377C138.932 239.62 131.758 264.734 122.79 292.54L106.647 343.666H87.3662C75.7078 343.666 64.4978 346.806 59.117 351.291C53.2878 356.224 42.0778 383.581 29.5226 422.15C3.06703 504.221 -0.968566 521.712 0.825034 545.481C1.72183 561.627 4.41223 566.56 13.3802 571.045C27.729 578.22 365.374 579.117 390.933 572.39C410.663 566.56 420.079 549.518 437.567 488.973C462.229 400.623 466.713 388.514 472.542 388.514C481.061 388.514 484.2 398.829 484.2 426.186C484.2 457.58 494.513 489.422 512.898 514.536C524.108 529.785 537.56 539.651 564.464 554.003C584.642 564.766 602.129 575.529 602.578 578.22C603.475 581.36 607.51 598.85 611.546 617.686C631.275 706.485 687.774 769.272 790.906 816.81C846.507 842.822 893.141 851.792 968.472 852.24C1113.31 852.689 1264.42 802.011 1472.92 684.51C1589.06 618.583 1621.79 616.341 1715.96 667.019C1770.21 696.17 1789.04 696.17 1798.01 668.364C1804.74 648.631 1794.43 607.371 1773.35 570.148C1727.61 488.525 1645.56 423.047 1559.02 399.726L1530.77 392.102L1513.73 348.151L1496.24 303.752L1510.14 286.261C1517.76 276.843 1533.01 260.698 1544.22 250.383C1563.5 232.444 1566.19 231.547 1592.65 231.547H1620.89L1709.23 142.748C1790.39 61.5739 1798.01 52.6044 1798.01 38.2531C1798.01 20.314 1794.87 14.9323 1781.42 7.75661C1774.25 4.16879 1677.39 2.82336 1423.6 2.82336C1105.68 2.82336 1074.29 3.27184 1062.64 10.4475C1050.53 17.6231 1047.39 17.1746 1012.42 9.10205C982.373 2.37488 959.056 0.58097 890.002 1.02945C814.223 1.02945 798.977 2.37488 753.24 13.1383L702.123 25.2472L690.464 14.4838L679.254 3.27184L436.221 1.9264C302.598 1.02945 188.705 1.47793 182.875 2.82336ZM995.376 41.8409C1032.59 49.0166 1072.95 65.6102 1088.2 79.9615C1100.3 91.1735 1100.75 88.4826 1091.78 59.78L1085.5 38.7016H1221.82H1358.13L1360.82 64.2648C1362.62 78.6161 1364.41 92.0704 1364.86 94.7613C1365.31 97.0037 1375.17 85.7917 1385.93 69.1981L1405.66 38.7016H1581.88C1678.29 38.7016 1757.66 40.047 1757.66 41.8409C1757.66 47.2227 1616.86 187.148 1605.2 192.978C1598.92 196.117 1586.82 197.911 1577.85 197.014C1554.98 193.875 1541.53 202.396 1496.24 249.038C1458.57 287.607 1456.78 290.298 1459.47 304.2C1464.4 326.176 1497.58 412.284 1504.31 419.011C1507.45 422.15 1527.63 429.774 1549.6 435.156C1595.78 447.265 1625.38 461.168 1657.21 486.731C1685.02 508.706 1724.92 556.693 1743.31 590.329C1757.21 615.892 1768.87 647.734 1765.73 651.322C1764.38 652.219 1745.55 642.801 1723.13 630.244C1694.43 614.547 1672.01 605.577 1647.35 600.644C1614.17 593.917 1609.68 593.917 1577.4 601.093C1542.42 608.717 1524.94 617.238 1354.1 705.588C1200.74 784.969 1099.41 815.017 980.131 815.017C898.97 815.465 842.92 803.356 779.696 771.514C692.706 728.46 660.87 684.51 643.382 585.844C639.795 565.214 635.311 546.827 633.517 545.033C631.275 543.239 616.927 537.409 600.784 531.579C561.325 518.124 545.631 505.118 530.834 475.967C519.624 452.647 519.175 448.162 521.866 411.835C523.211 390.308 525.901 368.333 527.247 362.503L529.937 352.636H460.435C395.865 352.636 390.036 353.084 385.552 361.157C377.481 376.854 380.171 379.545 406.179 379.545H431.289L428.15 393.896C423.218 415.423 394.969 508.706 387.794 525.748L381.517 540.997H206.641C69.4302 540.997 31.3162 539.651 31.3162 535.615C31.3162 532.476 42.5262 496.149 56.4266 454.889L81.0886 379.993L106.647 378.648L131.758 377.302L160.007 292.092C175.253 245.001 187.808 204.19 188.256 201.051C188.256 197.463 181.082 195.669 165.836 195.669C151.936 195.669 143.416 193.875 143.416 190.736C143.416 187.596 154.178 152.615 167.181 112.252L190.498 38.7016H427.253C557.289 38.7016 663.56 40.4955 663.56 42.2894C663.56 44.5318 660.421 56.1922 656.834 67.8526C653.247 79.9615 651.005 90.2765 651.902 91.1735C652.35 91.622 668.941 84.4463 688.671 74.5798C768.486 33.7683 890.002 21.2109 995.376 41.8409Z" fill="currentColor"/>
<path d="M799.425 72.3374C719.61 86.6887 664.905 116.288 636.656 160.688C613.339 196.566 590.919 251.729 569.396 326.176C542.941 419.459 544.734 456.234 578.364 484.489C590.023 493.907 635.759 512.294 638.898 508.258C639.795 507.809 643.382 495.252 647.866 480.452C660.421 436.501 681.048 402.866 724.543 357.121C764.45 314.964 766.244 312.273 777.454 273.704C807.497 173.245 824.087 150.821 870.272 150.821C890.45 150.821 891.347 151.27 894.038 166.518C898.522 189.839 890.45 225.717 863.098 305.546C829.916 401.52 829.468 428.429 860.408 461.616C907.49 512.743 974.75 483.143 1019.14 391.654C1046.49 334.697 1081.02 224.371 1083.71 185.802C1089.09 113.149 1063.08 86.6887 971.162 70.5435C935.29 63.8163 839.333 65.1618 799.425 72.3374Z" fill="currentColor"/>
<path d="M212.918 75.4764C208.434 87.5853 183.772 161.584 183.772 162.93C183.772 163.827 194.982 164.275 208.434 164.275C221.886 164.275 233.096 165.172 233.096 166.517C233.096 168.311 193.189 294.334 163.146 389.411L156.42 410.489L129.067 411.835L101.715 413.18L89.1598 455.786C81.9854 479.106 76.1562 499.736 76.1562 501.53C76.1562 503.773 140.726 505.118 219.196 505.118H362.235L372.1 472.828C377.481 454.889 382.862 433.81 384.207 425.738L386.897 410.938H361.339C347.438 410.938 336.228 409.592 336.228 407.798C336.228 405.556 342.506 385.375 350.129 362.951L364.029 321.242H434.876H505.275L519.175 281.776C526.798 260.249 534.421 239.171 535.766 234.686C538.905 227.51 533.973 227.062 468.955 227.062C430.392 227.062 399.004 225.268 399.004 223.474C399.004 221.68 403.04 207.329 408.421 192.081L417.837 164.275H507.069H595.852L600.784 144.99C603.475 134.675 609.752 113.597 614.236 97.9003L622.307 70.0947H418.734C259.552 70.0947 214.263 71.4401 212.918 75.4764Z" fill="currentColor"/>
<path d="M1166.22 176.384L1202.09 282.673L1079.68 405.108L957.262 527.542H1063.08H1169.36L1181.91 510.5C1222.27 456.682 1279.66 384.029 1282.35 384.029C1284.15 384.029 1286.84 397.483 1288.18 413.629C1289.98 430.222 1291.77 444.125 1292.22 445.022C1293.11 445.471 1317.78 441.434 1347.37 435.604C1376.96 429.325 1414.63 424.392 1430.77 424.392C1446.91 424.392 1461.26 423.047 1463.06 421.701C1466.64 417.665 1453.64 376.853 1436.6 339.63C1421.36 306.442 1418.22 288.503 1425.39 276.843C1427.63 273.255 1453.19 246.346 1481.89 217.195L1534.8 164.275H1561.71H1588.61L1632.55 120.773C1657.21 97.0033 1676.94 75.9248 1676.94 73.6825C1676.94 71.8885 1621.79 70.0946 1554.53 70.0946C1411.04 70.0946 1433.01 61.1251 1378.76 143.645C1359.03 173.245 1341.09 197.462 1338.4 197.014C1334.81 196.117 1330.33 150.372 1327.64 84.4459L1327.19 70.0946H1228.99H1130.34L1166.22 176.384Z" fill="currentColor"/>
<path d="M1450.5 456.234C1419.56 459.822 1391.76 470.137 1339.75 497.046L1302.53 516.33L1322.71 517.676C1333.47 518.573 1358.58 517.227 1378.31 514.536C1398.04 511.845 1414.63 510.5 1415.98 511.845C1424.05 519.918 1380.55 544.584 1325.85 562.972C1289.53 575.081 1283.25 581.36 1301.19 586.741C1316.43 590.778 1375.62 590.329 1398.94 585.844C1410.15 584.05 1419.56 582.705 1420.46 583.602C1426.74 589.881 1331.68 644.146 1314.19 644.146C1311.5 644.146 1309.26 646.389 1309.26 649.08C1309.26 655.807 1363.51 650.874 1395.8 641.007C1408.35 637.419 1442.88 622.171 1471.58 607.82C1527.63 579.566 1566.19 567.905 1602.96 567.905C1623.14 567.905 1672.46 576.426 1695.78 584.05C1703.85 586.293 1704.3 585.844 1698.02 573.735C1685.91 551.312 1654.97 519.47 1624.03 498.84C1572.02 464.307 1509.24 449.059 1450.5 456.234Z" fill="currentColor"/>
</svg>
