<svg width="4246" height="501" viewBox="0 0 4246 501" fill="none" xmlns="http://www.w3.org/2000/svg">
<path fill-rule="evenodd" clip-rule="evenodd" d="M4216.37 3.0242C4213.72 5.68751 4211.54 17.8212 4211.54 29.9902C4211.54 68.6366 4190.52 135.439 4167.83 168.936C4145.08 202.503 4101.48 237.799 4093.1 229.42C4090.46 226.785 4092.13 210.345 4096.79 192.884C4106 158.445 4107.8 133.002 4101.02 133.002C4098.66 133.002 4081.05 147.112 4061.87 164.353C4001.72 218.441 3963.01 214.75 3914.34 150.278C3898.59 129.425 3885.71 110.633 3885.71 108.515C3885.71 106.398 3895.2 104.669 3906.79 104.669C3933.05 104.669 3947.68 84.1914 3953.92 38.6885C3958.78 3.15878 3956.94 0.707967 3935.37 14.1804C3925.03 20.6332 3919.42 20.8032 3913.47 14.8462C3907.5 8.88207 3897.75 14.8674 3875.34 38.2493L3845.24 69.6636L3808 44.5959C3760.74 12.7991 3743.76 8.70498 3716.83 22.6307C3651.72 56.3046 3618.52 161.087 3625.56 310.736C3629.72 399.411 3636.83 430.599 3661.12 466.752C3674.26 486.302 3682.4 491.09 3705.44 492.804C3729.12 494.568 3737.02 491.416 3754.35 473.325C3765.72 461.461 3782.33 451.75 3791.24 451.75C3800.73 451.75 3812.28 444.397 3819.07 434.041C3825.45 424.302 3834.03 416.333 3838.15 416.333C3842.26 416.333 3860.22 432.356 3878.06 451.941C3906.99 483.702 3915.09 488.377 3953 495.22C4012.32 505.93 4123.02 499.633 4139.62 484.602C4146.67 478.22 4156.36 472.999 4161.14 472.999C4177.44 472.999 4196.08 414.527 4199.53 352.584C4201.92 309.695 4208.08 280.15 4220.94 249.876C4242.94 198.034 4251.05 118.326 4240.7 55.6388C4233.21 10.3271 4225.58 -6.17698 4216.37 3.0242ZM721.395 34.2189C612.744 55.66 547.231 126.677 513.833 259.212C487.215 364.824 501.629 444.673 551.566 468.225C627.676 504.13 835.889 496.629 918.26 455.015C1001.51 412.962 1062.21 289.436 1062.58 161.335C1062.83 77.0869 1042.73 51.8421 961.737 34.7006C918.997 25.6482 766.345 25.3507 721.395 34.2189ZM3186.37 34.2189C3074.74 56.2479 3004.7 135.793 2975.77 273.357C2954.13 376.299 2968.64 445.63 3016.55 468.225C3092.66 504.13 3300.87 496.629 3383.24 455.015C3466.49 412.962 3527.19 289.436 3527.56 161.335C3527.81 77.0869 3507.71 51.8421 3426.72 34.7006C3383.98 25.6482 3231.32 25.3507 3186.37 34.2189ZM3543.26 46.7918C3528.03 63.6287 3528.43 78.3973 3544.5 92.9464C3569.1 115.216 3602.38 99.4134 3602.38 65.4562C3602.38 36.1739 3563.87 24.019 3543.26 46.7918ZM195.32 50.9851C140.077 66.7666 124.685 75.3515 86.0037 111.93C62.6997 133.966 39.3249 165.748 24.7546 195.179C3.41271 238.295 1.15315 248.863 0.855648 307.052C0.558151 365.362 2.30772 374.004 19.7326 400.332C62.6643 465.229 116.922 489.064 223.653 489.921C302.476 490.559 407.372 476.697 425.08 463.31C434.579 456.134 485.734 292.617 485.734 269.44C485.734 262.067 466.716 260.501 396.386 262.06L307.037 264.043L294.11 305.855C286.999 328.855 277.004 350.324 271.897 353.561C256.852 363.102 228.045 360.531 210.237 348.058C195.759 337.921 194.201 332.517 197.926 305.353C204.089 260.416 229.249 206.513 250.945 191.779C266.542 181.183 289.775 178.449 389.182 175.502L508.67 171.96L529.077 111.752C540.297 78.6452 549.484 49.1576 549.484 46.2322C549.484 36.7193 230.255 41.0047 195.32 50.9851ZM1226.38 77.6961C1220.44 98.3722 1193.64 196.575 1166.85 295.918L1118.12 476.541L1210.18 478.524C1260.82 479.615 1303.45 479.311 1304.91 477.844C1306.38 476.378 1315.2 448.959 1324.51 416.921C1333.83 384.876 1342.94 357.181 1344.75 355.368C1346.56 353.554 1365.09 380.874 1385.93 416.078L1423.83 480.083H1524.98C1580.62 480.083 1626.14 478.241 1626.14 475.989C1626.14 473.736 1607.21 441.061 1584.07 403.385C1527.28 310.899 1527.05 310.112 1556.32 309.971C1609.44 309.709 1658.87 263.242 1679.33 194.322C1699.5 126.394 1688.88 84.5952 1644.66 57.8204C1624.75 45.7576 1603.85 44.2489 1429.9 42.2797L1237.2 40.091L1226.38 77.6961ZM1754.64 63.9404C1750.69 76.6053 1727.91 157.085 1704.02 242.793C1680.13 328.501 1656.03 412.742 1650.44 429.99C1633.64 481.974 1630.83 480.083 1725.03 480.083H1809.76L1817.61 449.979C1821.92 433.425 1831.74 398.356 1839.43 372.063L1853.41 324.251H1916.85C1960.33 324.251 1980.31 326.843 1980.31 332.481C1980.31 340.344 1967.97 385.153 1947.96 449.979L1938.66 480.083H2025.35H2112.05L2171.38 269.355C2204.01 153.452 2232.12 54.5409 2233.85 49.5471C2236.32 42.4214 2218.32 40.8985 2150.05 42.4639L2063.11 44.4614L2043.15 114.749C2032.17 153.409 2020.42 187.806 2017.04 191.184C2013.65 194.57 1983.65 196.405 1950.35 195.271L1889.82 193.21L1910.22 122.377C1921.44 83.4194 1930.64 49.1505 1930.67 46.2322C1930.7 43.3139 1892.72 40.9197 1846.28 40.9197H1761.82L1754.64 63.9404ZM2228.26 248.105C2195.91 362.054 2167.92 460.965 2166.07 467.892C2162.95 479.594 2169.71 480.352 2260.9 478.517L2359.08 476.541L2377.92 409.25C2414.12 279.931 2468.65 86.7698 2475.41 63.9404L2482.23 40.9197H2384.66H2287.09L2228.26 248.105ZM2477.06 248.105C2444.91 362.054 2417 460.866 2415.02 467.687C2411.73 479.056 2419.31 480.083 2506.39 480.083H2601.34L2624.93 393.313C2637.9 345.593 2650.59 302.385 2653.12 297.306C2655.67 292.227 2664.85 319.321 2673.55 357.514C2682.24 395.707 2692.52 439 2696.4 453.719L2703.45 480.479L2799.71 478.51L2895.97 476.541L2955.18 267.585C2987.75 152.658 3015.9 54.6471 3017.74 49.7738C3020.33 42.9668 2999.13 40.9197 2925.9 40.9197H2830.71L2816.49 88.7318C2808.67 115.025 2796.3 158.856 2789 186.127C2773.84 242.701 2772.97 241.391 2756.02 136.544C2749.72 97.5859 2742.92 60.1296 2740.91 53.3154C2737.66 42.2585 2726.34 40.9197 2636.39 40.9197H2535.51L2477.06 248.105ZM3554.6 65.3287C3551.89 79.4952 3554 82.449 3566.21 81.5281C3576 80.7915 3581.12 75.564 3581.12 66.3274C3581.12 55.6671 3583.12 54.2434 3589.33 60.4554C3595.53 66.6603 3595.33 71.2999 3588.46 79.5802C3569.41 102.53 3537.75 86.026 3548.27 58.6279C3554.58 42.1735 3558.28 46.0834 3554.6 65.3287ZM852.485 172.364C864.186 180.559 868.231 190.497 868.231 211.053C868.231 251.399 842.674 313.576 817.316 334.904C798.687 350.586 789.89 352.931 756.457 351.139C723.697 349.382 715.119 346.003 703.375 330.222C689.392 311.437 689.399 311.31 704.473 262.931C712.781 236.269 725.701 207.221 733.188 198.367C763.278 162.787 820.886 150.229 852.485 172.364ZM3317.46 172.364C3337.94 186.701 3338.37 224.943 3318.65 277.65C3298.48 331.532 3271.92 352.648 3224.65 352.357C3184.26 352.109 3167.84 343.298 3161.43 318.435C3156.38 298.871 3173.27 237.566 3192.27 206.47C3216.91 166.117 3282.89 148.146 3317.46 172.364ZM1480.35 172.718C1496.55 178.93 1494.51 219.425 1476.88 241.837C1463.74 258.539 1457.42 260.501 1416.67 260.501C1391.63 260.501 1371.14 258.32 1371.14 255.656C1371.14 252.986 1376.34 232.267 1382.7 209.615L1394.26 168.419H1431.71C1452.3 168.419 1474.19 170.352 1480.35 172.718Z" fill="currentColor"/>
</svg>
