<svg width="2630" height="500" viewBox="0 0 2630 500" fill="none" xmlns="http://www.w3.org/2000/svg">
<path fill-rule="evenodd" clip-rule="evenodd" d="M1798.51 0.851109C1797.98 1.74863 1771.93 96.4111 1771.93 97.4423C1771.93 97.8 1752.72 98.092 1729.25 98.092C1694.15 98.092 1686.68 98.3462 1687.13 99.5271C1687.43 100.317 1701.07 122.499 1717.44 148.821C1735.94 178.559 1746.67 196.795 1745.79 196.985C1744.38 197.286 1681.93 422.431 1682.69 424.496C1682.88 425.027 1695.16 442.217 1709.97 462.694L1736.91 499.927L1821.46 499.686L1906.02 499.446L1920.27 447.728C1928.1 419.283 1934.54 395.647 1934.57 395.202C1934.6 394.757 1915.25 394.394 1891.56 394.394H1848.49L1843.17 386.506L1837.85 378.618L1862.72 287.918L1887.59 197.218L1938.31 197.209L1989.04 197.199L2002.29 148.454C2009.57 121.643 2015.51 99.344 2015.48 98.9001C2015.46 98.4561 1992.84 98.092 1965.22 98.092H1915L1915.72 95.1289C1916.11 93.4987 1921.98 71.9592 1928.76 47.2617C1935.54 22.5641 1941.09 1.83699 1941.09 1.20021C1941.09 -0.145543 1799.31 -0.493563 1798.51 0.851109ZM2087.1 4.62222C2083.97 13.9466 2075.84 46.8576 2076.5 47.4922C2077.66 48.5923 2208.14 82.4515 2208.77 81.8158C2209.04 81.5486 2213.91 64.3739 2219.59 43.65C2225.27 22.9251 2230.13 5.36352 2230.39 4.62222C2230.76 3.55338 2216.06 3.2754 2159.21 3.2754C2102.85 3.2754 2087.46 3.56308 2087.1 4.62222ZM62.7278 271.837C28.5475 396.434 0.582031 498.739 0.582031 499.181C0.582031 499.623 31.3144 499.985 68.8747 499.985C133.007 499.985 137.199 499.87 137.67 498.099C137.945 497.063 148.04 460.214 160.102 416.212L182.034 336.211H254.077H326.121L325.345 338.635C324.918 339.969 314.791 376.696 302.839 420.253L281.108 499.446L349.505 499.723C387.123 499.876 418.137 499.767 418.422 499.481C418.835 499.069 492.682 230.952 495.517 219.576L496.255 216.613H355.554C222.057 216.613 214.88 216.516 215.411 214.727C218.064 205.766 261.328 47.086 261.328 46.3113C261.328 45.6875 235.05 45.2964 193.101 45.2964H124.874L62.7278 271.837ZM403.091 54.1854C388.812 101.443 370.269 165.372 370.711 165.815C371.445 166.547 497.347 199.343 499.494 199.36C500.783 199.37 505.817 182.347 521.878 123.682C533.275 82.0507 542.587 47.3845 542.572 46.6432C542.55 45.5797 528.135 45.2964 474.161 45.2964H405.776L403.091 54.1854ZM603.924 135.813L555.94 173.512L521.659 298.518C502.805 367.271 487.633 424.122 487.945 424.851C488.256 425.582 500.326 442.664 514.766 462.812L541.022 499.446L672.781 499.72L804.538 499.994L843.511 469.148C864.946 452.182 883.102 437.726 883.86 437.022C884.616 436.318 888.615 423.429 892.747 408.38C896.878 393.331 900.535 380.149 900.872 379.086C901.457 377.242 898.263 377.154 830.518 377.154H759.552L755.832 391.431C752.386 404.654 751.793 406.006 747.801 409.748L743.492 413.788H693.791H644.091L638.374 405.976C635.229 401.68 632.708 397.438 632.771 396.549C632.834 395.66 636.801 380.728 641.588 363.367C646.374 346.006 650.291 331.581 650.291 331.313C650.291 331.043 709.686 330.824 782.28 330.824C854.874 330.824 914.269 330.613 914.269 330.356C914.269 330.098 923.76 295.31 935.361 253.048C946.962 210.786 956.509 175.481 956.576 174.592C956.642 173.703 944.463 156.127 929.512 135.534L902.326 98.092L777.117 98.1027L651.907 98.1135L603.924 135.813ZM1025.75 99.4388C1024.91 101.704 917.402 493.853 916.757 497.022L916.155 499.985H987.168H1058.18L1092.69 374.195L1127.2 248.404L1147.07 232.59L1166.93 216.778L1206.84 216.695L1246.74 216.613L1263.82 159.238C1273.22 127.681 1281.14 101.014 1281.42 99.9775C1281.9 98.2051 1279.37 98.092 1238.96 98.092H1195.99L1161.7 125.028C1142.83 139.844 1127.28 151.965 1127.13 151.965C1126.98 151.965 1128.46 141.177 1130.42 127.992C1132.39 114.806 1134.01 102.685 1134.03 101.055L1134.07 98.092H1080.16C1038.03 98.092 1026.15 98.3861 1025.75 99.4388ZM1332.3 134.809C1306.53 155.002 1284.88 172.094 1284.18 172.789C1282.99 173.958 1214.88 420.349 1214.88 423.46C1214.88 424.228 1226.88 441.736 1241.55 462.37L1268.21 499.884L1399.93 499.934L1531.66 499.985L1570.71 469.109C1592.19 452.127 1610.35 437.703 1611.06 437.055C1611.77 436.406 1615.78 423.27 1619.98 407.862C1624.17 392.454 1627.82 379.242 1628.08 378.501C1628.46 377.432 1613.91 377.154 1557.65 377.154H1486.74L1482.7 391.943C1479.04 405.346 1478.29 407.057 1474.72 410.214L1470.78 413.699L1421.02 413.743L1371.25 413.788L1365.26 405.474C1361.87 400.777 1359.49 396.432 1359.79 395.487C1360.09 394.567 1363.98 380.489 1368.45 364.204C1372.93 347.919 1376.84 333.746 1377.15 332.709C1377.69 330.927 1384.93 330.824 1509.44 330.824H1641.15L1662.48 252.977C1674.2 210.161 1683.87 174.794 1683.96 174.383C1684.04 173.971 1671.82 156.637 1656.79 135.863L1629.47 98.092H1504.31H1379.14L1332.3 134.809ZM2061.21 99.4388C2060.35 101.775 1952.85 493.912 1952.2 497.029L1951.59 500L2023.09 499.723L2094.58 499.446L2148.71 302.271C2178.49 193.824 2203.16 103.519 2203.54 101.594L2204.23 98.092H2132.96C2076.93 98.092 2061.59 98.3796 2061.21 99.4388ZM2276.18 134.33C2250.99 154.19 2229.5 171.082 2228.42 171.869C2226.95 172.928 2217.55 205.71 2192.08 298.535C2173.17 367.416 2158.03 424.314 2158.42 424.975C2158.8 425.637 2170.96 442.785 2185.44 463.082L2211.76 499.985L2340.67 499.972L2469.58 499.96L2513.74 465.224L2557.89 430.489L2568.41 392.239C2574.19 371.201 2578.93 353.379 2578.93 352.635C2578.94 351.557 2564.01 351.337 2506.03 351.557L2433.11 351.834L2426.98 374.26C2422.65 390.09 2420.24 397.109 2418.82 398.12C2417.7 398.907 2413.39 402.271 2409.25 405.594L2401.7 411.637L2361.89 411.366L2322.08 411.094L2315.37 401.906L2308.65 392.717L2334.2 299.547L2359.74 206.377L2372.1 196.444L2384.46 186.511L2423.79 186.494L2463.12 186.479L2468.69 194.277L2474.26 202.073L2468.02 224.697L2461.77 247.32L2534.54 247.597C2574.56 247.749 2607.5 247.674 2607.75 247.429C2607.99 247.183 2613.07 229.265 2619.02 207.61L2629.84 168.238L2613.61 145.826C2604.69 133.498 2593.34 117.836 2588.4 111.021L2579.42 98.6307L2450.7 98.427L2321.97 98.2223L2276.18 134.33ZM807.915 190.913C810.704 194.556 812.988 198.095 812.988 198.777C812.988 199.461 810.129 210.419 806.634 223.131C803.14 235.842 799.727 248.303 799.051 250.822L797.82 255.401H734.83C687.527 255.401 671.84 255.088 671.84 254.143C671.84 252.953 683.641 209.329 686.012 201.751C686.828 199.146 689.571 196.357 696.346 191.246L705.57 184.289H754.207H802.842L807.915 190.913ZM1534.69 190.32C1537.25 193.633 1539.57 196.939 1539.85 197.668C1540.27 198.771 1525.73 254.138 1524.77 255.105C1524.59 255.277 1496.11 255.294 1461.46 255.141L1398.46 254.863L1406.27 226.457C1411.71 206.68 1414.67 197.631 1416.03 196.665C1417.1 195.902 1421.13 192.833 1424.99 189.846L1431.99 184.414L1481.01 184.356L1530.04 184.297L1534.69 190.32Z" fill="currentColor"/>
</svg>
