<svg width="2982" height="501" viewBox="0 0 2982 501" fill="none" xmlns="http://www.w3.org/2000/svg">
<path fill-rule="evenodd" clip-rule="evenodd" d="M1010.9 13.2093C1007.91 20.2392 1003.57 30.198 1001.24 35.3414C995.114 48.8464 994.918 49.2891 980.629 82.0995C953.168 145.151 937.036 182.06 934.578 187.461C933.175 190.547 926.562 205.697 919.882 221.127C904.875 255.798 894.354 279.841 890.965 287.212C889.546 290.298 886.857 296.47 884.99 300.927C881.539 309.164 861.66 354.772 857.533 363.919C856.29 366.674 851.25 378.177 846.336 389.48C835.648 414.056 824.391 439.773 822.059 444.942C816.66 456.908 813.925 463.462 813.925 464.435C813.925 465.065 842.076 465.4 879.477 465.215L945.031 464.893L953.118 446.189C957.566 435.903 965.432 417.667 970.599 405.666C975.765 393.664 980.997 381.601 982.224 378.858C983.451 376.115 986.265 369.662 988.478 364.518C994.133 351.376 995.266 348.795 999.609 339.182C1001.72 334.505 1003.45 330.381 1003.45 330.018C1003.45 329.656 1004.25 327.591 1005.22 325.43C1006.19 323.269 1008.72 317.674 1010.83 312.997C1012.94 308.32 1014.67 304.274 1014.67 304.005C1014.67 303.737 1016.68 299.287 1019.13 294.117L1023.6 284.718H1082.03C1114.57 284.718 1140.76 285.207 1141.14 285.822C1141.66 286.663 1126.07 324.133 1116.95 343.945C1114.04 350.282 1110.68 358.204 1110.68 358.752C1110.68 359.085 1108.95 363.183 1106.84 367.86C1104.73 372.537 1101.98 378.608 1100.75 381.351C1099.51 384.095 1096.98 389.986 1095.11 394.444C1093.25 398.901 1090.38 405.507 1088.74 409.124C1087.1 412.742 1084.32 419.194 1082.58 423.464C1080.83 427.733 1078.87 432.349 1078.23 433.72C1076.03 438.403 1064.55 464.779 1064.55 465.148C1064.55 465.35 1094.15 465.511 1130.32 465.504L1196.09 465.492L1206.57 441.501C1212.32 428.307 1218.16 414.986 1219.53 411.9C1220.9 408.814 1227.9 392.823 1235.08 376.364C1242.27 359.905 1255.14 330.447 1263.7 310.903C1272.25 291.358 1284.01 264.425 1289.83 251.052C1295.65 237.679 1301.18 225.055 1302.11 222.997C1303.04 220.94 1306.96 211.962 1310.82 203.047C1314.69 194.132 1319 184.313 1320.42 181.227C1321.83 178.141 1327.33 165.516 1332.65 153.172C1341.98 131.497 1349.19 114.981 1353.87 104.52C1355.11 101.764 1360.14 90.2616 1365.05 78.9586C1369.96 67.6569 1374.74 56.7255 1375.68 54.6681C1382.31 40.1407 1398.71 2.21799 1398.71 1.415C1398.71 0.872602 1369.12 0.437438 1332.94 0.447413L1267.17 0.46487L1264.22 8.11699C1262.6 12.3252 1259.32 20.0322 1256.94 25.2429C1249.53 41.4337 1247.72 45.4848 1240.98 60.9025C1237.39 69.132 1228.56 89.3315 1221.37 105.79C1214.18 122.249 1207.12 138.295 1205.68 141.45C1198.21 157.794 1192.98 170.682 1192.98 172.713C1192.98 174.889 1190.24 174.992 1132.5 174.992C1099.24 174.992 1072.03 174.546 1072.03 174.001C1072.03 173.112 1079.76 155.248 1086.77 139.924C1088.22 136.752 1094.4 122.724 1100.51 108.752C1121.52 60.6781 1134.03 32.2105 1136.87 25.9898C1138.43 22.5609 1141.58 15.4075 1143.85 10.0921L1147.99 0.428711H1082.16H1016.32L1010.9 13.2093ZM1426.4 43.7579C1423.4 50.7604 1393.49 121.561 1355.68 211.152C1340.78 246.47 1321.7 291.638 1313.28 311.526C1272.02 409.026 1234.12 499.129 1234.12 499.743C1234.12 500.121 1304.47 500.429 1390.45 500.429H1546.77L1552.64 487.648C1555.87 480.619 1565.64 459.157 1574.36 439.955L1590.2 405.042L1492.7 404.723L1395.2 404.404L1402.43 387.267C1458.48 254.385 1477.33 209.72 1522.81 102.05C1537 68.4462 1548.89 40.2517 1549.23 39.3938C1549.72 38.1594 1537.26 37.8352 1489.4 37.8352H1428.94L1426.4 43.7579ZM1627.78 131.04C1610.87 167.901 1579.97 235.233 1559.1 280.666L1521.17 363.272H1565.69H1610.2L1637.79 303.109C1674.6 222.87 1736.31 88.5384 1742.62 74.93L1747.68 64.0197H1703.1H1658.53L1627.78 131.04ZM1746.87 146.002C1726.19 191.093 1695.28 258.425 1678.18 295.628L1647.1 363.272H1691.61H1736.12L1763.12 304.356L1790.13 245.441L1864.79 245.119L1939.46 244.799L1953.33 214.693C1960.96 198.134 1966.91 184.121 1966.56 183.55C1966.21 182.98 1932.84 182.644 1892.42 182.805C1851.99 182.966 1818.91 183.078 1818.91 183.056C1818.91 183.033 1823.6 172.653 1829.33 159.989L1839.74 136.962L1925.18 136.642L2010.62 136.321L2026.99 100.901C2035.99 81.4187 2043.35 65.1507 2043.35 64.7492C2043.35 64.3477 1985.1 64.0197 1913.91 64.0197H1784.47L1746.87 146.002ZM106.645 129.169C90.3885 164.316 59.9034 230.105 38.9009 275.366C17.8997 320.628 0.424641 358.643 0.0680321 359.843C-0.541694 361.891 2.10543 362.025 43.5456 362.025H87.6715L113.829 305.307L139.984 248.59L204.447 248.573L268.91 248.558L267.174 252.611C266.219 254.84 254.516 280.229 241.167 309.032L216.897 361.401L260.657 361.729C284.724 361.91 304.821 361.629 305.317 361.106C306.014 360.369 439.204 73.5621 441.984 66.809C442.501 65.5546 433.587 65.3015 398.144 65.5621L353.657 65.8901L328.011 121.688L302.365 177.486H237.652C173.82 177.486 172.957 177.452 174.244 175.048C177.133 169.649 224.149 67.1369 224.149 66.2367C224.149 65.703 204.361 65.2666 180.176 65.2666H136.204L106.645 129.169ZM459.211 146.002C438.669 190.408 407.956 256.744 390.961 293.419C373.965 330.093 360.059 360.532 360.059 361.062C360.059 361.592 379.846 362.025 404.031 362.025H448.002L481.3 290.017C499.614 250.414 530.037 184.672 548.906 143.926C567.775 103.181 583.541 68.814 583.94 67.5547C584.635 65.3651 582.782 65.2666 540.613 65.2666H496.561L459.211 146.002ZM2069.05 71.8128C2067.42 75.4125 2060.14 91.1606 2052.85 106.808C2045.57 122.455 2039.61 135.782 2039.61 136.421C2039.61 137.124 2060.9 137.586 2093.36 137.586C2135.88 137.586 2146.97 137.911 2146.44 139.144C2146.08 140.002 2126.04 183.346 2101.91 235.466C2077.78 287.586 2054.77 337.384 2050.77 346.127L2043.51 362.025L2088.01 362.005L2132.5 361.984L2184.25 249.792L2235.99 137.6L2290.32 137.593L2344.64 137.586L2361.09 102.361C2370.13 82.9886 2377.53 66.7155 2377.52 66.2018C2377.52 65.6881 2308.77 65.2666 2224.76 65.2666H2072L2069.05 71.8128ZM2372.78 130.416C2356.22 166.249 2325.32 233.021 2304.13 278.8L2265.59 362.036L2400.89 361.718L2536.18 361.401L2552.2 327.112C2561 308.253 2568.23 292.136 2568.25 291.295C2568.28 290.105 2548.61 289.758 2478.91 289.722C2429.76 289.697 2389.34 289.481 2389.11 289.244C2388.87 289.006 2393.31 278.633 2398.97 266.192L2409.27 243.571H2489.84H2570.41L2584.23 213.957L2598.04 184.344L2517.73 183.72L2437.41 183.097L2447.71 160.653L2458 138.209L2548.92 137.586L2639.85 136.962L2655.6 103.187C2664.27 84.6095 2671.72 68.4773 2672.15 67.3389C2672.89 65.415 2663.27 65.2666 2537.93 65.2666H2402.91L2372.78 130.416ZM2657.42 172.81C2630.06 231.96 2599.15 298.73 2588.73 321.189L2569.79 362.025H2614.3H2658.81L2681.09 313.991L2703.36 265.957L2724.63 266.298L2745.89 266.638L2760.88 314.331L2775.86 362.025H2826.69C2854.64 362.025 2877.52 361.834 2877.52 361.6C2877.52 361.366 2868.89 339.84 2858.35 313.765L2839.19 266.358L2849.85 265.538C2864.7 264.396 2874.88 261.8 2887.28 255.985C2908.23 246.169 2927.45 228.466 2939.69 207.706C2945.18 198.394 2976.69 129.243 2979.02 121.381C2984.79 101.945 2978.63 82.3601 2963.77 72.9262C2951.26 64.9873 2956.29 65.2666 2825.77 65.2666H2707.15L2657.42 172.81ZM686.743 67.3701C680.588 68.3888 667.519 72.9736 660.057 76.7317C649.215 82.1918 642.725 86.8901 632.133 96.9524C621.174 107.363 614.009 117.05 607.147 130.735C603.082 138.843 558.911 233.803 523.182 311.247C514.831 329.348 513.2 335.859 514.957 344.098C516.469 351.188 523.213 358.333 530.433 360.496C537.27 362.545 755.597 362.708 765.547 360.673C769.18 359.929 777.204 356.899 783.376 353.937C800.246 345.844 813.665 332.688 826.291 311.861C830.249 305.333 878.62 202.565 887.046 182.785L888.771 178.733H811.726H734.682L720.915 208.346L707.149 237.96L739.963 238.292C758.011 238.475 772.744 239.036 772.703 239.538C772.662 240.042 767.693 251.115 761.66 264.144C753.675 281.391 749.88 288.254 747.708 289.375C745.46 290.535 729.721 290.92 684.011 290.934C650.619 290.944 623.032 290.521 622.705 289.992C621.618 288.233 689.205 143.361 692.498 140.391L695.61 137.586H790.714H885.819L901.928 103.176C910.79 84.2504 918.226 68.2591 918.455 67.6394C918.859 66.5459 693.299 66.2828 686.743 67.3701ZM2881.78 138.674C2882.8 140.325 2859.07 191.507 2856.12 194.007C2853.75 196.018 2848.93 196.189 2794.6 196.189H2735.65L2747.88 169.489C2754.6 154.804 2760.73 141.618 2761.5 140.187C2762.88 137.606 2763.35 137.586 2822 137.586C2854.51 137.586 2881.41 138.076 2881.78 138.674Z" fill="white"/>
</svg>
