<svg width="1360" height="501" viewBox="0 0 1360 501" fill="none" xmlns="http://www.w3.org/2000/svg">
<path fill-rule="evenodd" clip-rule="evenodd" d="M234.328 10.5291C218.399 27.2554 216.309 45.0028 217.554 152.934C218.553 239.467 219.534 253.703 225.3 265.284C228.933 272.582 236.036 280.431 241.083 282.73C246.93 285.396 275.898 286.913 320.894 286.913C425.38 286.913 420.705 293.451 420.705 147.344C420.705 89.7715 419.467 38.2483 417.95 32.8492C416.437 27.4501 410.917 17.9447 405.686 11.7302L396.177 0.428711H320.061H243.944L234.328 10.5291ZM453.999 9.70273C441.967 22.6827 437.233 45.2562 437.233 89.6209C437.233 129.81 443.069 157.565 454.077 169.73C459.854 176.114 466.157 176.727 525.951 176.727H591.494V202.437V228.147H514.198H436.898L439.392 241.92C442.705 260.204 450.058 274.172 460.067 281.18C466.807 285.903 480.962 286.913 540.397 286.913C621.854 286.913 626.625 285.492 636.222 258.39C642.653 240.22 642.576 157.734 636.108 139.091C627.969 115.632 623.422 114.288 552.109 114.288H488.653V90.4142V66.5405H563.947H639.241V51.9225C639.241 33.7711 629.545 8.74044 620.675 3.99508C616.987 2.01907 580.236 0.428711 538.303 0.428711H462.594L453.999 9.70273ZM657.605 33.7197V67.0143L696.178 65.8574L734.751 64.7041L734.743 175.809L734.736 286.913H752.799C784.882 286.913 782.483 296.14 782.483 172.786V63.1174L821.967 62.0743L861.45 61.0312L862.515 30.73L863.584 0.428711H760.593H657.605V33.7197ZM0.160156 145.684V287.262L23.1157 286.171L46.0711 285.077L47.0334 144.589L47.9957 4.10159H24.0779H0.160156V145.684ZM154.421 59.1948V114.288H106.674H58.9262V147.344V180.4H106.674H154.421V233.657V286.913H178.295H202.169V145.507V4.10159H178.295H154.421V59.1948ZM880.428 6.5514C879.08 7.89567 877.978 70.7019 877.978 146.121V283.24H900.016H922.053V143.671V4.10159H902.465C891.689 4.10159 881.772 5.20345 880.428 6.5514ZM941.905 9.1922C940.832 11.9946 940.469 67.7746 941.104 133.152C942.125 238.751 942.992 253.501 948.857 265.284C952.49 272.582 959.593 280.431 964.64 282.73C970.652 285.47 1002.9 286.913 1058.12 286.913H1142.43V257.53V228.147H1065.3H988.165V116.124V4.10159H966.013C950.514 4.10159 943.271 5.63318 941.905 9.1922ZM1160.79 143.671V283.24H1259.96H1359.13V252.021V220.801H1281.99H1204.86V149.481C1204.86 110.255 1205.87 75.5464 1207.09 72.351C1209.03 67.3155 1219.31 66.5405 1284.22 66.5405H1359.13V35.3211V4.10159H1259.96H1160.79V143.671ZM371.121 147.344V228.147H317.864H264.607V147.344V66.5405H317.864H371.121V147.344ZM1215.88 146.844V175.728L1232.93 178.064C1254.54 181.028 1287.89 181.006 1319.64 178.005L1344.43 175.665V146.811V117.961H1280.16H1215.88V146.844ZM0.160156 360.371V378.735H679.643H1359.13V360.371V342.006H679.643H0.160156V360.371ZM6.28285 428.932C4.9349 430.277 3.83304 445.097 3.83304 461.856C3.83304 498.949 5.00836 499.94 48.9323 499.94C88.4929 499.94 91.9821 496.778 91.9821 460.901C91.9821 445.886 90.1604 433.476 87.5747 430.89C82.8697 426.185 10.7638 424.448 6.28285 428.932ZM95.655 461.375V496.267H106.674H117.692L117.685 469.639L117.681 443.011H149.823C180.363 443.011 182.026 442.599 183.143 434.747C184.304 426.567 183.856 426.483 139.987 426.483H95.655V461.375ZM191.15 461.375V496.267H202.169H213.187L213.18 469.639L213.176 443.011H245.317C275.857 443.011 277.521 442.599 278.638 434.747C279.798 426.567 279.35 426.483 235.482 426.483H191.15V461.375ZM309.468 462.293L310.518 498.104L320.619 499.264L330.719 500.429V470.8V441.174H354.593C373.365 441.174 378.467 442.353 378.467 446.683C378.467 450.97 373.571 452.193 356.429 452.193C344.309 452.193 334.392 453.486 334.392 455.061C334.392 456.641 343.945 467.384 355.618 478.935C372.612 495.753 379.201 499.94 388.674 499.94C395.182 499.94 400.504 498.78 400.504 497.362C400.504 495.94 395.222 489.329 388.765 482.67C377.872 471.428 377.596 470.557 384.964 470.557C394.267 470.557 400.504 460.629 400.504 445.824C400.504 428.44 395.399 426.483 350.053 426.483H308.418L309.468 462.293ZM412.257 430.89C409.653 433.494 407.85 446.026 407.85 461.54C407.85 497.072 411.229 499.94 453.133 499.94C493.362 499.94 499.672 495.243 499.672 465.287C499.672 454.308 498.059 441.086 496.091 435.904C492.565 426.63 491.915 426.483 454.587 426.483C429.99 426.483 415.115 428.033 412.257 430.89ZM522.737 461.199L504.204 496.267H518.22C528.342 496.267 532.797 494.482 534.267 489.84C535.945 484.533 539.805 483.629 556.377 484.661C567.789 485.37 578.304 488.143 580.75 491.089C583.112 493.935 590.513 496.267 597.194 496.267H609.34L591.42 462.293L573.497 428.319L557.384 427.225L541.271 426.13L522.737 461.199ZM613.531 461.375V496.499L656.687 495.467L699.844 494.431V461.375V428.319L656.687 427.283L613.531 426.251V461.375ZM753.769 463.193C773.147 499.61 773.411 499.9 786.979 499.922C798.589 499.937 801.557 498.207 806.585 488.481L812.513 477.021L819.612 488.698C825.838 498.934 828.405 500.234 840.408 499.239C853.524 498.152 854.806 496.785 870.632 467.02L887.16 435.937L888.222 467.938C889.258 499.202 889.493 499.94 898.322 499.94C907.325 499.94 907.361 499.797 907.361 463.028V426.115L886.242 427.217L865.123 428.319L852.342 452.913L839.556 477.506L826.631 452.913C814.463 429.766 812.88 428.253 799.735 427.166L785.771 426.016L792.936 440.065C799.867 453.651 799.889 454.532 793.561 466.77L787.016 479.427L773.683 452.953C760.902 427.57 759.818 426.483 747.297 426.483H734.236L753.769 463.193ZM955.109 441.174V455.866H934.908C917.157 455.866 914.707 456.755 914.707 463.211C914.707 469.668 917.157 470.557 934.908 470.557H955.109V485.249C955.109 499.125 955.722 499.94 966.127 499.94H977.146V463.211V426.483H966.127C955.722 426.483 955.109 427.298 955.109 441.174ZM984.492 461.375V496.267H1028.57C1070.19 496.267 1072.64 495.86 1072.64 488.922C1072.64 482.119 1070.19 481.576 1039.58 481.576H1006.53V463.355V445.134L1038.67 444.072C1068.82 443.077 1070.88 442.5 1071.98 434.747C1073.14 426.567 1072.69 426.483 1028.82 426.483H984.492V461.375ZM1076.31 461.375V496.267H1120.39C1162.01 496.267 1164.46 495.86 1164.46 488.922C1164.46 482.119 1162.01 481.576 1131.41 481.576H1098.35V463.355V445.134L1130.49 444.072C1160.65 443.077 1162.7 442.5 1163.8 434.747C1164.96 426.567 1164.51 426.483 1120.65 426.483H1076.31V461.375ZM1168.14 457.133C1168.14 498.486 1169.86 499.94 1218.93 499.94H1256.28V490.758C1256.28 481.646 1256.04 481.576 1223.23 481.576H1190.17V454.029V426.483H1179.15H1168.14V457.133ZM1268.15 430.776C1262.36 436.568 1262.28 460.394 1268.04 466.15C1270.71 468.824 1283.71 470.557 1301.09 470.557C1324.11 470.557 1329.74 471.641 1329.74 476.066C1329.74 480.555 1323.62 481.576 1296.69 481.576C1278.51 481.576 1263.66 482.817 1263.69 484.33C1263.91 495.07 1272.07 498.155 1303.48 499.371C1345.38 500.994 1351.78 497.902 1351.78 476.066C1351.78 455.495 1346.23 452.193 1311.62 452.193C1291 452.193 1285.67 451.062 1285.67 446.683C1285.67 442.192 1291.82 441.174 1318.99 441.174C1348.75 441.174 1352.19 440.487 1351.09 434.747C1350.02 429.193 1344.61 428.18 1311.27 427.287C1284.38 426.563 1271.3 427.625 1268.15 430.776ZM477.634 463.524V481.576H453.761H429.887L429.88 462.293L429.872 443.011L453.753 444.241L477.634 445.475V463.524ZM679.643 463.538V481.576H657.605H635.568L635.561 462.293L635.554 443.011L657.598 444.256L679.643 445.501V463.538ZM69.9449 463.211V481.576H46.0711H22.1974V463.211V444.847H46.0711H69.9449V463.211ZM563.271 458.033L569.038 469.382L556.506 469.852L543.978 470.326L550.027 457.632C553.358 450.65 556.403 445.332 556.792 445.813C557.185 446.29 560.098 451.792 563.271 458.033ZM121.365 463.211C121.365 469.944 123.815 470.557 150.748 470.557C177.681 470.557 180.131 469.944 180.131 463.211C180.131 456.479 177.681 455.866 150.748 455.866C123.815 455.866 121.365 456.479 121.365 463.211ZM216.86 463.211C216.86 469.903 219.31 470.557 244.407 470.557C269.503 470.557 271.953 469.903 271.953 463.211C271.953 456.519 269.503 455.866 244.407 455.866C219.31 455.866 216.86 456.519 216.86 463.211ZM1010.2 463.211C1010.2 469.903 1012.65 470.557 1037.75 470.557C1062.85 470.557 1065.3 469.903 1065.3 463.211C1065.3 456.519 1062.85 455.866 1037.75 455.866C1012.65 455.866 1010.2 456.519 1010.2 463.211ZM1102.02 463.211C1102.02 469.903 1104.47 470.557 1129.57 470.557C1154.67 470.557 1157.12 469.903 1157.12 463.211C1157.12 456.519 1154.67 455.866 1129.57 455.866C1104.47 455.866 1102.02 456.519 1102.02 463.211Z" fill="currentColor"/>
</svg>
