<svg width="1187" height="501" viewBox="0 0 1187 501" fill="none" xmlns="http://www.w3.org/2000/svg">
<path fill-rule="evenodd" clip-rule="evenodd" d="M0.125 250.429V500.429H593.12H1186.12V250.429V0.428711H593.12H0.125V250.429ZM684.644 84.8466C706.072 92.2669 706.098 92.3152 698.999 111.093C695.642 119.975 690.726 133.006 688.074 140.054C683.403 152.472 683.089 152.757 677.854 149.33C669.997 144.18 648.048 138.11 637.289 138.11C624.816 138.11 612.243 143.661 610.615 149.888C608.608 157.557 616.255 165.388 638.002 177.931C667.898 195.175 679.683 207.842 687.482 231.105C688.482 234.088 693.106 215.151 699.574 181.588C705.335 151.697 712.002 117.115 714.386 104.738L718.724 82.2355L750.975 82.2403C768.714 82.2403 783.656 82.6727 784.181 83.1968C784.707 83.721 781.995 100.368 778.156 120.19C772.091 151.499 770.941 161.238 773.787 157.233C774.181 156.68 787.949 139.921 804.383 119.994C820.818 100.066 834.618 83.32 835.048 82.7789C836.908 80.4335 942.35 80.9166 943.809 83.2765C944.652 84.6437 949.874 103.789 955.41 125.825L965.475 165.888L969.881 157.434C973.579 150.342 1011.72 85.2524 1013.47 83.0446C1013.78 82.6509 1032.12 82.1075 1054.21 81.8369C1082.21 81.4963 1094.08 82.1389 1093.38 83.9601C1092.83 85.3973 1069.34 117.926 1041.17 156.245C1013.01 194.562 989.036 228.168 987.893 230.924C986.748 233.68 982.466 254.414 978.376 276.999C967.712 335.909 973.263 329.252 934.854 329.192C902.352 329.141 902.299 329.132 902.924 323.6C903.268 320.554 907.391 297.409 912.086 272.168L920.625 226.274L902.963 173.627L885.304 120.977L852.739 156.31C834.828 175.743 820.453 192.912 820.797 194.465C821.137 196.018 833.345 226.566 847.922 262.351C862.499 298.139 874.14 327.704 873.787 328.054C873.437 328.407 857.531 328.859 838.444 329.064C810.883 329.356 803.347 328.735 801.842 326.045C800.799 324.18 792.642 303.687 783.717 280.504C774.792 257.32 767.185 237.97 766.816 237.504C766.444 237.037 763.424 239.211 760.106 242.335C754.992 247.144 752.842 254.233 746.057 288.658L738.048 329.301L705.797 329.272C688.057 329.255 673.173 328.871 672.719 328.417C672.265 327.965 672.806 323.274 673.92 317.996C675.033 312.719 676.654 304.315 677.521 299.325L679.094 290.25L668.171 301.929C662.161 308.351 651.963 316.482 645.504 319.996C621.509 333.059 585.12 337.103 552.949 330.284C537.524 327.013 514.009 316.9 511.176 312.318C509.224 309.158 531.603 256.453 534.859 256.545C536.347 256.586 539.724 258.252 542.362 260.245C549.507 265.646 576.482 273.376 588.183 273.376C601.306 273.376 613.101 269.255 616.118 263.62C622.321 252.028 616.381 244.499 587.999 227.984C567.149 215.851 548.207 195.892 543.717 181.318L540.451 170.719L535.19 198.496C526.91 242.209 524.318 251.533 514.601 272.535C503.439 296.658 489.676 312.04 470.818 321.465C451.4 331.168 433.021 334.595 408.048 333.175C363.388 330.632 337.429 308.344 331.021 267.042C327.934 247.144 329.995 231.359 347.468 141.021L358.821 82.3369L392.036 81.8418C414.92 81.5012 425.248 82.1751 425.248 84.0084C425.246 85.4722 419.159 118.624 411.717 157.68C404.277 196.735 398.026 235.934 397.828 244.786C397.516 258.772 398.236 261.702 403.323 267.129C408.234 272.366 411.306 273.376 422.328 273.376C434.304 273.376 436.284 272.566 444.543 264.308C456.565 252.286 459.231 243.04 475.697 156.226L489.441 83.762L522.772 82.5543C541.103 81.8901 556.408 81.6558 556.782 82.035C557.156 82.4142 556.011 89.4794 554.241 97.7355C549.299 120.764 549.792 123.88 556.755 113.632C566.763 98.9046 593.258 84.1364 618.482 79.2282C631.623 76.6703 670.586 79.9794 684.644 84.8466ZM217.507 84.9698C217.502 86.9625 214.246 105.441 210.27 126.033C206.294 146.624 203.038 165.373 203.033 167.699C203.024 171.508 206.13 171.926 234.499 171.926C257.577 171.926 266.224 171.12 266.905 168.907C267.415 167.248 271.456 147.064 275.886 124.059L283.941 82.2306L317.154 81.7886C345.289 81.4142 350.357 81.8997 350.296 84.9698C350.193 90.2331 305.159 326.634 304.048 327.745C303.533 328.26 288.473 328.837 270.582 329.03L238.048 329.378L238.83 322.513C239.26 318.735 242.789 298.798 246.671 278.206C250.553 257.615 253.734 238.832 253.739 236.47C253.748 232.533 251.069 232.228 221.753 232.847L189.755 233.52L180.939 280.173C176.089 305.83 171.702 327.24 171.193 327.752C170.681 328.262 155.623 328.837 137.731 329.03L105.197 329.378L105.97 322.513C106.835 314.849 149.572 87.5664 150.864 83.762C151.357 82.3104 164.813 81.3466 184.601 81.3466C212.253 81.3466 217.514 81.9263 217.507 84.9698ZM1015.85 304.808C1025.94 315.95 1018.26 333.762 1003.37 333.762C988.27 333.762 980.516 317.987 989.393 305.315C994.412 298.149 1009.56 297.859 1015.85 304.808ZM991.325 308.586C986.016 316.692 989.248 326.755 998.168 329.892C1007.2 333.071 1017.03 326.443 1017.03 317.173C1017.03 302.907 998.995 296.883 991.325 308.586ZM1010.28 310.211C1010.84 311.873 1010.55 316.492 1009.62 320.477C1008.7 324.463 1007.81 325.822 1007.66 323.496C1007.31 318.356 1000.12 317.781 1000.12 322.892C1000.12 324.885 999.038 326.516 997.71 326.516C996.381 326.516 995.294 322.168 995.294 316.854C995.294 307.808 995.739 307.192 1002.28 307.192C1006.12 307.192 1009.73 308.552 1010.28 310.211ZM1000.12 313.156C1000.12 315.315 1001.54 316.158 1003.75 315.313C1005.74 314.547 1007.37 312.95 1007.37 311.764C1007.37 310.578 1005.74 309.607 1003.75 309.607C1001.76 309.607 1000.12 311.204 1000.12 313.156ZM690.946 379.052C690.946 381.378 689.316 391.798 687.323 402.211C682.028 429.876 680.845 427.965 703.282 427.965C720.147 427.965 722.661 428.496 721.398 431.786C720.591 433.888 719.932 437.692 719.932 440.24C719.932 444.583 717.847 444.873 686.524 444.873H653.118L658.811 412.868C661.941 395.267 664.985 379.506 665.572 377.844C666.234 375.97 671.251 374.825 678.794 374.825C688.758 374.825 690.946 375.586 690.946 379.052ZM765.816 375.429C765.809 375.76 763.091 391.194 759.777 409.723C756.461 428.255 753.748 443.743 753.748 444.144C753.748 444.545 747.683 444.873 740.272 444.873C726.854 444.873 726.801 444.844 728.132 438.231C728.867 434.578 731.794 418.818 734.637 403.206L739.806 374.825H752.816C759.97 374.825 765.821 375.098 765.816 375.429ZM814.61 392.941C822.924 402.905 830.427 411.057 831.282 411.057C832.137 411.057 833.579 405.349 834.49 398.376C837.632 374.284 837.229 374.825 852.028 374.825C865.159 374.825 865.234 374.868 863.905 381.467C863.171 385.12 860.243 400.88 857.4 416.492L852.231 444.873L839.825 444.745L827.42 444.617L813.185 426.699C799.311 409.235 794.811 406.593 794.811 415.912C794.811 418.424 793.635 425.97 792.195 432.678L789.579 444.873H776.236C766.565 444.873 763.207 444.042 764.033 441.854C764.661 440.194 767.683 424.431 770.751 406.83L776.323 374.825H787.908C799.369 374.825 799.652 375.016 814.61 392.941ZM938.789 378.646C937.982 380.748 937.323 384.008 937.323 385.892C937.323 388.564 933.069 389.318 917.999 389.318C907.371 389.318 898.676 390.315 898.676 391.535C898.676 392.755 898.016 395.472 897.21 397.574C895.951 400.851 898.354 401.395 914.118 401.395C933.113 401.395 934.729 402.417 931.026 412.066C929.871 415.074 925.758 415.888 911.702 415.888C897.898 415.888 893.845 416.665 893.845 419.313C893.845 421.197 893.185 424.458 892.379 426.559C891.115 429.849 893.63 430.38 910.495 430.38C930.768 430.38 932.347 431.313 928.611 441.052C927.374 444.274 922.065 444.873 894.794 444.873C877.002 444.873 862.453 444.6 862.468 444.269C862.48 443.938 865.198 429.095 868.507 411.289C871.813 393.479 874.521 377.991 874.521 376.868C874.521 375.745 889.311 374.825 907.388 374.825C936.367 374.825 940.081 375.277 938.789 378.646ZM1009.61 378.359C1021.96 384.74 1023.47 400.692 1012.5 408.801L1005.55 413.936L1011.04 423.97C1014.06 429.489 1017.26 436.448 1018.15 439.438C1019.7 444.644 1019.17 444.873 1005.5 444.873H991.229L988.451 435.605C985.197 424.745 978.139 417.53 971.941 418.726C968.702 419.349 967.024 422.885 965.538 432.221L963.523 444.873H950.425C943.219 444.873 937.333 444.057 937.347 443.062C937.359 442.066 940.077 426.68 943.386 408.873C946.693 391.064 949.4 376.12 949.4 375.661C949.4 375.202 961.41 374.825 976.091 374.825C994.792 374.825 1004.83 375.883 1009.61 378.359ZM1086.62 377.441C1093.41 379.808 1093.99 380.791 1092.67 387.706C1090.77 397.709 1091.12 397.528 1082.33 392.982C1073.76 388.552 1057.79 388.921 1056.26 393.586C1055.66 395.397 1060.02 398.719 1066.94 401.726C1090.11 411.793 1095.2 422.629 1082.66 435.17C1076.28 441.549 1062.23 447.245 1052.78 447.274C1050.52 447.281 1043.18 446.112 1036.48 444.673C1026.05 442.438 1024.28 441.238 1024.28 436.417C1024.28 424.699 1026.15 423.153 1035.57 427.088C1045.64 431.296 1061.72 430.624 1061.72 425.999C1061.72 424.252 1055.2 419.361 1047.23 415.129C1034.63 408.441 1032.63 406.419 1031.98 399.694C1031 389.496 1034.41 383.634 1044.1 378.854C1053.26 374.344 1075.61 373.603 1086.62 377.441ZM972.654 393.011C967.98 405.194 973.053 409.052 986.85 403.806C991.553 402.018 993.011 399.97 992.441 395.955C991.828 391.636 989.881 390.376 982.92 389.793C976.582 389.264 973.753 390.151 972.654 393.011ZM645.577 393.062C646.954 394.438 643.932 410.569 641.92 412.581C641.292 413.209 516.763 412.948 365.188 412.001L89.5984 410.284L90.9583 404.028C91.7047 400.586 92.7337 396.414 93.2458 394.752C93.9825 392.361 151.289 391.733 369.212 391.733C520.482 391.733 644.845 392.332 645.577 393.062Z" fill="white"/>
</svg>
