<svg width="1586" height="501" viewBox="0 0 1586 501" fill="none" xmlns="http://www.w3.org/2000/svg">
<path fill-rule="evenodd" clip-rule="evenodd" d="M236.047 2.24764C234.837 3.24753 222.574 27.9206 208.795 57.0754C181.376 115.091 166.299 147.251 166.299 147.72C166.299 147.886 210.436 148.022 264.381 148.022C360.545 148.022 362.514 147.981 365.078 145.965C366.516 144.833 373.226 136.532 379.988 127.516C404.17 95.2751 432.088 70.3245 471.36 45.8552C489.739 34.4043 520.919 18.8831 544.06 9.6668C555.344 5.17144 562.714 1.71027 561.985 1.24774C561.304 0.814319 488.184 0.453672 399.497 0.444317C247.443 0.429766 238.122 0.53265 236.047 2.24764ZM689.631 1.16251C623.257 4.79414 557.982 23.6268 502.022 55.2918C439.947 90.4149 399.47 129.275 376.739 175.566C360.799 208.027 354.757 237.607 355.757 278.293C356.702 316.714 362.356 341.304 377.428 372.53C407.943 435.757 467.087 481.847 535.384 495.624C556.912 499.966 566.843 500.373 651.293 500.374C728.991 500.375 731.525 500.314 734.005 498.363C735.411 497.256 738.631 491.794 741.16 486.226C743.689 480.657 757.959 449.406 772.871 416.78L799.982 357.459L724.539 356.896C650.555 356.343 648.934 356.288 640.78 354.013C615.269 346.901 595.153 330.393 584.179 307.568C579.102 297.008 576.899 288.311 576.153 275.867C574.429 247.116 588.266 214.476 612.824 189.367C632.631 169.115 657.3 155.994 685.993 150.45C695.457 148.621 712.919 148.532 1105.79 148.308C1457.19 148.107 1516.03 147.864 1517.96 146.603C1519.41 145.651 1525.93 132.539 1536.46 109.419C1545.4 89.7767 1559.57 58.7384 1567.94 40.4452C1576.31 22.1519 1583.8 5.66515 1584.58 3.80673L1586 0.428711L1140.93 0.625151C896.148 0.733247 693.061 0.975423 689.631 1.16251ZM1098.31 173.227C1096.67 174.436 1080 210.2 1034.02 311.206C1023.74 333.787 1014.41 353.197 1013.3 354.341C1011.3 356.381 1009.54 356.429 919.345 356.939C839.474 357.39 827.225 357.664 825.902 359.018C825.064 359.875 814.113 383.028 801.566 410.468C789.02 437.908 774.721 469.182 769.792 479.966C764.862 490.749 760.83 499.752 760.83 499.974C760.83 500.861 1353.28 500.325 1355.62 499.435C1357.47 498.73 1359.54 495.292 1363.92 485.663C1372.3 467.223 1392.82 422.306 1397.33 412.547C1399.45 407.973 1405.99 393.708 1411.88 380.845L1422.58 357.459L1320.89 357.194C1247.47 357.003 1219.2 356.61 1219.2 355.779C1219.2 355.147 1229.08 333.05 1241.15 306.673C1294.95 189.141 1302.35 172.897 1302.35 172.427C1302.35 172.152 1256.84 171.928 1201.21 171.928C1121.93 171.928 1099.69 172.209 1098.31 173.227ZM311.959 313.897C302.044 334.998 293.032 353.197 291.931 354.341C289.96 356.387 288.221 356.428 179.422 356.939C90.4599 357.358 68.5953 357.724 67.2752 358.821C65.739 360.096 61.5077 368.191 57.2056 378.087C56.1725 380.462 50.8893 391.759 45.4637 403.192C29.9872 435.806 9.50287 479.173 4.5928 489.721L0.117188 499.336H235.704H471.292L458.631 491.659C434.184 476.834 417.002 463.234 399.09 444.53C360.401 404.129 338.662 354.774 331.75 291.649L329.985 275.531L311.959 313.897Z" fill="currentColor"/>
</svg>
