<svg width="2572" height="501" viewBox="0 0 2572 501" fill="none" xmlns="http://www.w3.org/2000/svg">
<path fill-rule="evenodd" clip-rule="evenodd" d="M35.572 1.71344C19.9545 6.07115 7.31503 18.5368 2.35528 34.4733C0.585857 40.1605 0.544644 42.3824 0.609149 129.387C0.645882 178.387 0.825063 218.627 1.00783 218.809C1.1897 218.992 15.7948 212.403 33.4622 204.167C51.1295 195.931 66.0213 189.186 66.5544 189.179C67.0883 189.173 80.7958 195.339 97.0153 202.883C113.236 210.426 127.818 217.151 129.419 217.827L132.33 219.055V184.215C132.33 145.223 132.457 144.263 138.416 138.099C140.243 136.209 143.35 133.79 145.321 132.723L148.905 130.784L250.59 130.535C343.758 130.307 352.607 130.411 356.222 131.782C361.136 133.644 366.58 138.484 369.139 143.265L371.09 146.91L371.367 247.252C371.572 321.637 371.372 348.856 370.592 352.472C369.708 356.57 368.731 358.154 364.492 362.363C361.199 365.63 358.16 367.751 355.756 368.459C350.567 369.985 152.839 370.03 148.366 368.505C143.182 366.738 137.859 362.508 135.263 358.092L132.778 353.865L132.498 332.296L132.217 310.727L120.851 305.496C114.599 302.619 100.048 295.836 88.5149 290.423L67.5452 280.58L64.1076 281.834C62.2164 282.524 47.1821 289.337 30.6974 296.975L0.725619 310.861L0.454157 382.534C0.261536 433.528 0.481932 456.06 1.21568 460.629C4.11933 478.687 20.5593 495.551 38.9756 499.363C42.3406 500.061 104.054 500.346 250.894 500.346C479.496 500.346 462.61 500.772 474.047 494.719C481.151 490.959 491.315 480.813 494.958 473.844C500.971 462.339 500.551 479.198 500.536 250.423C500.521 21.7603 500.908 37.3061 494.944 26.1153C489.047 15.05 477.996 5.69666 466.699 2.20709C461.021 0.453797 458.004 0.429607 250.272 0.508448C84.1823 0.572057 38.7507 0.827389 35.572 1.71344ZM560.561 2.06285C558.616 3.0815 556.676 5.18689 555.413 7.65064L553.385 11.6043L553.621 148.69C553.853 283.951 553.88 285.816 555.648 288.81C559.01 294.504 561.614 295.183 580.083 295.183C598.577 295.183 601.549 294.416 604.923 288.773C606.694 285.811 606.714 284.179 606.714 147.806C606.714 11.4448 606.694 9.80082 604.923 6.80132C601.553 1.09527 598.976 0.428711 580.285 0.428711C565.955 0.428711 563.256 0.65269 560.561 2.06285ZM654.088 1.71613C647.888 4.41461 648.374 -7.85845 648.376 145.99C648.377 276.449 648.472 285.066 649.944 287.952C653.192 294.325 654.495 294.703 674.211 295.009C691.39 295.276 691.941 295.229 694.93 293.215C696.619 292.077 698.828 289.736 699.841 288.013C701.663 284.911 701.685 283.809 702.129 176.567L702.577 68.2544L820.242 179.041C884.957 239.973 939.659 291.032 941.799 292.505L945.691 295.183H960.851C975.097 295.183 976.193 295.061 979.008 293.165C980.655 292.054 982.832 289.736 983.844 288.013C985.675 284.895 985.685 284.23 985.923 150.494C986.09 57.0233 985.87 14.6889 985.198 11.4493C984.17 6.49043 980.168 1.88546 975.973 0.832766C974.837 0.547867 966.406 0.441254 957.237 0.595351C941.978 0.852477 940.352 1.03524 938.04 2.74912C932.521 6.83894 932.868 -0.128553 932.378 116.63L931.93 223.424L812.648 113.494C747.044 53.0329 692.152 2.85842 690.667 1.99655C688.369 0.663439 685.642 0.434088 672.426 0.463653C661.368 0.488738 656.079 0.849789 654.088 1.71613ZM1033.06 1.71613C1026.86 4.41461 1027.34 -7.90772 1027.35 146.438C1027.35 283.895 1027.37 285.815 1029.13 288.696C1032.74 294.622 1034.81 295.176 1053.33 295.178C1071.57 295.18 1074.19 294.578 1077.9 289.518C1079.75 287.001 1079.76 286.482 1080.2 177.3L1080.65 67.6112L1197.92 178.037C1262.42 238.772 1317.22 290 1319.7 291.878L1324.22 295.292L1340.12 295.014C1357.88 294.703 1359.44 294.213 1362.64 287.952C1364.11 285.066 1364.2 276.519 1364.2 147.358C1364.2 11.7118 1364.17 9.79634 1362.42 6.91599C1358.79 0.961778 1356.79 0.434982 1337.78 0.434982C1319.06 0.434982 1316.98 0.94386 1313.41 6.39368C1311.88 8.72663 1311.77 14.6808 1311.35 116.243L1310.9 223.625L1194.1 115.834C1129.86 56.5494 1075.09 6.33007 1072.4 4.23633L1067.5 0.428711L1051.68 0.463653C1040.38 0.488738 1035.06 0.847101 1033.06 1.71613ZM1493.67 1.04599C1486.4 1.9867 1475.88 4.48987 1469.03 6.90703C1452.44 12.7582 1441.5 19.7633 1428.19 33.0631C1419.35 41.9031 1417.77 43.9771 1413.71 52.094C1405.58 68.362 1405.87 64.8464 1405.87 147.806C1405.87 214.324 1406 220.943 1407.47 227.185C1410.65 240.748 1417.94 252.93 1429.73 264.378C1442.01 276.3 1457.25 285.261 1473.51 290.116C1489.32 294.837 1487.08 294.735 1574.74 294.735C1651.33 294.735 1657.22 294.626 1664.3 293.07C1685.6 288.389 1703.83 279.059 1718.87 265.136C1729.11 255.652 1736.41 244.088 1740.63 230.639L1742.73 223.958V147.806V71.6535L1740.63 64.9727C1734.9 46.7159 1723.45 31.9782 1705.63 19.9094C1697.13 14.1549 1682.79 7.32721 1674.19 4.94141C1658.15 0.495007 1656.6 0.426919 1573.85 0.56668C1531.23 0.638353 1495.14 0.854267 1493.67 1.04599ZM1791.54 2.09779C1785.05 5.56854 1782.9 14.0367 1786.1 23.5073C1787.14 26.5911 1818.51 84.2428 1855.8 151.622C1893.09 219.001 1925.3 277.556 1927.37 281.744C1929.45 285.933 1932.42 290.569 1933.97 292.047L1936.81 294.735L1952.78 295.015L1968.76 295.294L1972.04 292.408C1973.98 290.708 1976.9 286.365 1979.17 281.826C1981.28 277.593 2012.76 220.307 2049.13 154.525C2085.5 88.743 2116.64 32.0149 2118.34 28.4635C2122.48 19.775 2123.07 13.139 2120.2 7.66229C2116.74 1.07018 2114.32 0.31045 2097.82 0.616851L2083.79 0.876666L2079.9 3.6728C2077.76 5.21018 2074.32 8.63703 2072.26 11.288C2070.2 13.9381 2042.78 64.5328 2011.34 123.72C1979.89 182.908 1953.81 231.415 1953.38 231.514C1952.94 231.614 1926.62 182.817 1894.87 123.076C1858.34 54.3141 1835.78 12.8129 1833.4 9.97552C1831.34 7.51088 1827.86 4.35459 1825.66 2.96145C1821.73 0.470818 1821.44 0.428711 1808.16 0.428711C1796.71 0.428711 1794.19 0.681357 1791.54 2.09779ZM2246.68 1.72957C2235.12 3.71132 2225.97 6.61945 2215.77 11.5577C2189.71 24.1658 2173.14 41.9147 2165.9 64.9727C2164.11 70.6922 2163.81 73.5233 2163.81 84.6442C2163.81 95.7651 2164.11 98.5962 2165.9 104.316C2170.87 120.137 2180.8 134.307 2194.05 144.47L2198.32 147.743L2195.4 149.985C2181.07 160.977 2170.97 175.128 2165.92 191.289C2163.17 200.061 2162.91 219.711 2165.4 228.886C2173.79 259.689 2203.58 284.578 2242.23 293.07C2249.32 294.626 2255.22 294.735 2332.24 294.735C2409.38 294.735 2415.15 294.628 2422.28 293.062C2445.19 288.031 2463.82 277.814 2479.34 261.778C2494.61 245.984 2500.69 231.152 2500.5 210.072C2500.32 188.436 2491.36 169.444 2474.51 154.963C2471.16 152.083 2467.89 149.258 2467.25 148.685C2466.31 147.855 2467.38 146.579 2472.45 142.428C2484.95 132.196 2494.6 117.609 2498.53 102.958C2501.2 93.0416 2501.22 76.3185 2498.58 66.5029C2490.5 36.4792 2462.22 12.3336 2424.07 2.86917C2416.64 1.02539 2414.49 0.975215 2334.92 0.778115C2271.8 0.622227 2251.88 0.837245 2246.68 1.72957ZM2522.62 5.80417C2522.62 7.35678 2523.21 7.59599 2527.1 7.59599H2531.58V18.3469C2531.58 28.5002 2531.68 29.0978 2533.37 29.0978C2535.06 29.0978 2535.16 28.5002 2535.16 18.3469V7.59599H2539.19C2542.63 7.59599 2543.22 7.3308 2543.22 5.80417C2543.22 4.11628 2542.63 4.01235 2532.92 4.01235C2523.21 4.01235 2522.62 4.11628 2522.62 5.80417ZM2546.81 16.5551V29.0978H2549.01C2551.17 29.0978 2551.22 28.9195 2551.48 21.2586L2551.73 13.4194L2554.42 21.0346C2556.8 27.7728 2557.36 28.6499 2559.29 28.6499C2561.22 28.6499 2561.8 27.7575 2564.22 21.0346L2566.96 13.4194L2567.22 21.2586C2567.48 28.9195 2567.53 29.0978 2569.69 29.0978H2571.89V16.4986V3.89857L2569.06 4.17988C2566.37 4.44507 2566.09 4.84375 2563.78 11.6276C2558.96 25.7964 2559.69 25.5778 2555.59 14.0913C2552.13 4.3958 2551.9 4.01235 2549.4 4.01235H2546.81V16.5551ZM1653.95 45.2018C1668.11 48.824 1680.6 58.1853 1686.05 69.2641L1688.97 75.1995V147.806V220.412L1686.03 226.39C1680.63 237.365 1668.01 246.814 1653.95 250.41C1647.34 252.1 1643.79 252.179 1574.34 252.179C1493.32 252.179 1497.03 252.436 1483.66 245.89C1471.25 239.82 1462.53 229.534 1460.1 218.135C1459.34 214.549 1459.13 194.537 1459.34 144.67L1459.62 76.1331L1461.63 71.7888C1467.71 58.6082 1480.44 48.5803 1495.9 44.7897C1499.82 43.8302 1515.85 43.5668 1573.93 43.5067C1643.93 43.436 1647.32 43.5076 1653.95 45.2018ZM2415.71 46.2312C2423.51 49.0829 2433.6 55.6338 2438.04 60.7306C2439.84 62.7966 2442.57 67.1068 2444.11 70.3097C2446.64 75.574 2446.91 76.951 2446.91 84.6442C2446.91 92.3374 2446.64 93.7144 2444.11 98.9788C2442.57 102.182 2439.86 106.464 2438.09 108.495C2433.51 113.755 2423.79 120.113 2415.98 122.963L2409.28 125.408L2334.92 125.664C2269.33 125.891 2259.8 125.751 2254.06 124.483C2239.7 121.303 2226.07 111.38 2220.48 100.024C2217.74 94.4616 2217.56 93.4958 2217.56 84.6442C2217.56 75.7783 2217.74 74.8331 2220.5 69.222C2225.83 58.4039 2238.43 48.8732 2252.23 45.2314C2258.47 43.5865 2262.26 43.5148 2334.03 43.6931L2409.28 43.8803L2415.71 46.2312ZM2402.07 169.792C2412.47 170.984 2421.2 174.077 2428.78 179.259C2436.36 184.439 2440.51 189.14 2444.11 196.633C2446.65 201.904 2446.91 203.264 2446.9 210.967C2446.9 218.278 2446.56 220.174 2444.55 224.406C2439.72 234.57 2433.01 241.135 2421.83 246.63C2410.33 252.28 2411.95 252.179 2332.1 252.179C2262.74 252.179 2259.2 252.1 2252.59 250.41C2248.78 249.436 2243.17 247.32 2240.13 245.706C2232.55 241.693 2223.15 232.306 2220.03 225.65C2217.82 220.939 2217.56 219.366 2217.56 210.946C2217.56 202.146 2217.75 201.131 2220.43 195.716C2227.17 182.071 2243.6 171.643 2261.31 169.779C2271.33 168.724 2392.84 168.735 2402.07 169.792ZM32.8843 244.447L0.183594 259.833L0.500746 267.429C0.675448 271.607 0.973788 275.189 1.16372 275.39C1.52029 275.765 27.2428 264.08 51.693 252.435C61.1243 247.943 66.2121 245.983 67.5632 246.323C68.6571 246.597 83.5113 253.269 100.573 261.147C117.634 269.027 131.774 275.473 131.995 275.473C132.216 275.473 132.282 271.773 132.14 267.251L131.882 259.029L99.6296 244C81.8906 235.734 66.9737 228.991 66.4809 229.016C65.9882 229.041 50.8697 235.985 32.8843 244.447ZM556.096 434.497V500.346H562.367H568.638V473.469V446.592L612.762 446.634L656.885 446.676L684.211 473.484L711.536 500.292L720.348 500.319L729.16 500.346L701.982 473.509L674.804 446.672L682.564 446.632C702.803 446.527 717.25 440.147 723.169 428.699C725.299 424.582 727.18 414.86 727.199 407.888C727.241 391.382 721.172 380.793 708.4 375.091C695.402 369.288 686.489 368.692 612.314 368.666L556.096 368.648V434.497ZM796.14 432.481C773.348 467.59 754.114 497.222 753.397 498.331L752.094 500.346L759.588 500.338L767.082 500.33L776.984 484.884L786.885 469.437L845.648 469.207L904.411 468.977L914.587 484.654L924.762 500.331L932.206 500.339C937.925 500.345 939.495 500.086 938.978 499.226C938.211 497.951 919.41 468.942 908.058 451.519C903.884 445.113 890.063 423.846 877.345 404.26L854.219 368.648H845.9H837.581L796.14 432.481ZM1017.49 369.621C990.902 371.303 974.659 379.931 966.419 396.749C961.521 406.747 959.846 416.755 959.88 435.841C959.924 460.96 963.662 473.375 974.469 484.3C981.002 490.903 987.905 494.678 999.306 497.882C1006.12 499.797 1007.73 499.851 1066.54 500.137L1126.79 500.429V494.665V488.902L1070.57 488.451C1018.46 488.035 1013.75 487.87 1006.12 486.192C980.561 480.574 971.744 465.75 972.969 430.465C973.264 421.978 974.012 414.515 974.894 411.271C979.057 395.947 988.587 387.558 1006.25 383.672C1013.72 382.027 1018.74 381.853 1070.57 381.439L1126.79 380.988V374.818V368.648L1077.74 368.781C1050.76 368.854 1023.65 369.233 1017.49 369.621ZM1190.14 369.208C1189.79 369.557 1189.5 399.205 1189.5 435.095V500.346H1196.23H1202.95L1202.72 434.721L1202.49 369.096L1196.63 368.835C1193.41 368.691 1190.49 368.86 1190.14 369.208ZM1267.45 434.497V500.346H1273.71H1279.98L1280.21 441.102L1280.44 381.857L1345.8 441.102L1411.16 500.346H1419.94H1428.72L1428.49 434.721L1428.26 369.096L1422.22 368.83L1416.18 368.566L1415.95 428.344L1415.72 488.121L1349.9 428.384L1284.09 368.648H1275.77H1267.45V434.497ZM1534.43 369.611C1515.24 370.817 1500.95 376.18 1491.32 385.784C1481.08 395.999 1476.89 410.134 1476.86 434.497C1476.84 457.094 1479.82 469.594 1487.71 479.984C1494.97 489.548 1505.31 495.266 1521.44 498.637C1528.86 500.189 1534.23 500.324 1588.86 500.335L1648.21 500.346V466.302V432.257H1604.31H1560.41V438.081V443.904H1597.59H1634.77V466.408V488.913L1583.03 488.449C1535.83 488.026 1530.58 487.829 1523.19 486.21C1505.21 482.272 1496.05 474.077 1491.64 458.001C1490.44 453.621 1490.11 448.644 1490.11 434.945C1490.11 421.246 1490.44 416.269 1491.64 411.889C1495.83 396.61 1504.24 388.336 1519.65 384.326C1528.37 382.056 1549.02 381.239 1598.3 381.214L1644.71 381.19L1644.44 375.143L1644.18 369.096L1594.9 369.001C1567.8 368.949 1540.59 369.223 1534.43 369.611ZM1766.48 414.563C1766.5 451.183 1766.76 461.718 1767.8 466.602C1771.68 484.914 1782.01 494.591 1802.07 498.688C1810.12 500.331 1813.75 500.428 1856.45 500.129C1896.62 499.848 1902.85 499.619 1907.58 498.252C1925.4 493.087 1934.11 484.594 1938.26 468.326C1939.63 462.975 1939.81 456.845 1939.82 415.683L1939.83 369.096H1933.56H1927.29L1926.83 417.027C1926.38 464.925 1926.38 464.961 1924.25 470.26C1921.53 477.009 1915.9 482.596 1909.32 485.056C1899.69 488.66 1893.31 489.115 1852.48 489.108C1818.49 489.102 1812.54 488.896 1805.97 487.501C1789 483.895 1782.21 476.881 1779.98 460.638C1779.4 456.446 1779.01 436.551 1779.01 411.139V368.648H1772.74H1766.47L1766.48 414.563ZM2066.12 369.593C2051.96 370.69 2042.08 374.725 2036.23 381.8C2031.21 387.865 2028.97 399.565 2030.69 410.655C2032.37 421.488 2036.52 427.873 2044.53 431.962C2053.03 436.295 2057.72 436.702 2099.75 436.75C2143.28 436.8 2163.19 437.691 2170.5 439.914C2176.71 441.8 2181.59 446.494 2183.07 451.989C2184.78 458.329 2183.93 474.081 2181.67 477.946C2179.56 481.552 2175.29 484.681 2170.63 486.045C2164.47 487.847 2139.42 488.631 2086.98 488.665L2034.35 488.699V494.561V500.422L2101.32 500.138C2163.47 499.874 2168.64 499.735 2173.21 498.209C2185.23 494.194 2192.28 488.221 2195.34 479.446C2197.68 472.73 2197.63 453.467 2195.25 446.637C2192.99 440.133 2187.22 434.053 2180.39 430.991C2170.23 426.429 2165.02 425.988 2120.95 425.96C2070.75 425.928 2059.09 425.212 2052.35 421.753C2045.33 418.154 2043.75 414.737 2043.75 403.14C2043.75 391.849 2045.11 389.034 2052.31 385.425C2059.51 381.815 2070.78 381.247 2135.85 381.216L2191.21 381.19L2190.95 375.143L2190.68 369.096L2132.9 368.996C2101.11 368.941 2071.07 369.209 2066.12 369.593ZM2314.71 432.481C2291.92 467.59 2272.69 497.222 2271.97 498.331L2270.66 500.346L2278.15 500.338L2285.65 500.33L2295.55 484.884L2305.45 469.437L2364.22 469.207L2422.98 468.977L2433.15 484.654L2443.33 500.331L2450.82 500.339L2458.32 500.346L2457.02 498.331C2456.3 497.222 2437.06 467.59 2414.25 432.481L2372.78 368.648H2364.46H2356.14L2314.71 432.481ZM871.346 418.371L896.511 456.895L846.214 457.126C818.55 457.254 795.763 457.205 795.577 457.018C795.277 456.72 803.745 443.65 837.256 392.678C842.011 385.445 845.964 379.599 846.041 379.687C846.117 379.775 857.505 397.182 871.346 418.371ZM2389.91 418.371L2415.08 456.895L2364.78 457.126C2337.12 457.254 2314.33 457.206 2314.14 457.02C2313.96 456.834 2325.21 439.322 2339.14 418.104C2353.07 396.887 2364.53 379.599 2364.61 379.687C2364.68 379.775 2376.07 397.182 2389.91 418.371ZM692.403 383.258C706.09 386.437 711.814 392.249 713.306 404.484C714.031 410.431 712.66 419.627 710.386 424.077C708.073 428.603 701.663 432.703 694.795 434.053C690.789 434.839 671.555 435.292 628.888 435.602L568.638 436.041V408.522V381.002L627.544 381.439C676.328 381.8 687.474 382.113 692.403 383.258ZM1977.01 491.835V500.346H1985.97H1994.93V491.835V483.324H1985.97H1977.01V491.835ZM2229.65 491.835V500.346H2238.61H2247.57V491.835V483.324H2238.61H2229.65V491.835ZM2480.51 491.835V500.346H2489.47H2498.43V491.835V483.324H2489.47H2480.51V491.835Z" fill="white"/>
</svg>
