<svg width="2788" height="436" viewBox="0 0 2788 436" fill="none" xmlns="http://www.w3.org/2000/svg">
<path d="M2461.81 3.59311C2478.98 3.58648 2492.24 2.63119 2492.24 1.3994C2492.24 0.476388 2502.11 0.285156 2549.77 0.285156C2597.5 0.285156 2607.3 0.475553 2607.3 1.40188C2607.3 2.72059 2617.68 3.58565 2633.59 3.59227C2643.17 3.59641 2643.73 3.68665 2643.73 5.25204C2643.73 6.834 2644.28 6.90767 2656.14 6.90767C2668.01 6.90767 2668.56 6.98135 2668.56 8.5633C2668.56 9.98549 2669.11 10.2197 2672.49 10.2247C2680.19 10.2363 2687.6 11.257 2687.6 12.305C2687.6 13.56 2691.34 14.358 2697.22 14.358C2701.12 14.358 2701.67 14.5633 2701.67 16.0136C2701.67 17.5393 2702.23 17.6693 2708.71 17.6693C2715.03 17.6693 2715.75 17.8265 2715.75 19.2164C2715.75 20.7959 2718.97 21.7785 2724.23 21.7992C2725.95 21.8059 2726.51 22.2123 2726.51 23.464C2726.51 24.8746 2727.06 25.1196 2730.23 25.1196C2733.41 25.1196 2733.96 25.3646 2733.96 26.7752C2733.96 28.1858 2734.51 28.4309 2737.68 28.4309C2740.86 28.4309 2741.41 28.6759 2741.41 30.0865C2741.41 31.4722 2741.96 31.7421 2744.8 31.7421C2747.49 31.7421 2748.27 32.0815 2748.62 33.4035C2748.93 34.5749 2750 35.2165 2752.27 35.579C2754.67 35.964 2755.48 36.4822 2755.48 37.6428C2755.48 38.8944 2756.11 39.1924 2758.73 39.1924C2761.48 39.1924 2762.03 39.4847 2762.25 41.055C2762.42 42.252 2763.18 43.012 2764.38 43.1825C2765.58 43.3522 2766.24 44.0178 2766.24 45.0451C2766.24 46.1974 2766.82 46.6428 2768.31 46.6428C2769.83 46.6428 2770.38 47.084 2770.38 48.2984C2770.38 49.4019 2770.93 49.954 2772.04 49.954C2773.14 49.954 2773.69 50.5062 2773.69 51.6097C2773.69 52.7131 2774.25 53.2653 2775.35 53.2653C2776.56 53.2653 2777 53.8174 2777 55.3348C2777 56.8208 2777.45 57.4044 2778.59 57.4044C2779.78 57.4044 2780.3 58.1958 2780.72 60.6345C2781.09 62.8473 2781.76 63.9963 2782.86 64.2819C2784.23 64.6411 2784.46 65.4631 2784.46 70.1577C2784.46 75.0641 2784.62 75.6163 2786.11 75.6163C2787.67 75.6163 2787.77 76.1684 2787.77 84.7222C2787.77 93.2761 2787.67 93.8282 2786.11 93.8282C2784.6 93.8282 2784.46 94.3804 2784.46 99.9333C2784.46 107.393 2783.76 111.212 2782.39 111.212C2781.32 111.212 2780.34 115.441 2780.33 120.111C2780.32 122.247 2779.97 122.802 2778.66 122.802C2777.17 122.802 2777 123.354 2777 128.183C2777 133.011 2776.83 133.563 2775.35 133.563C2774.08 133.563 2773.69 134.115 2773.69 135.943C2773.69 139.995 2772.71 143.497 2771.57 143.497C2770.92 143.497 2770.26 144.981 2769.93 147.222C2769.49 150.124 2769.02 150.947 2767.8 150.947C2766.51 150.947 2766.24 151.574 2766.24 154.673C2766.24 157.846 2766 158.398 2764.59 158.398C2763.52 158.398 2762.93 158.95 2762.93 159.945C2762.93 162.319 2759.89 162.518 2723.4 162.528C2694.34 162.536 2690.08 162.696 2690.08 163.779C2690.08 164.875 2680.15 165.02 2605.65 165.02H2521.21V160.053C2521.21 155.738 2521.41 155.086 2522.77 155.086C2523.99 155.086 2524.46 154.263 2524.89 151.361C2525.24 149.019 2525.87 147.636 2526.59 147.636C2527.31 147.636 2527.94 146.253 2528.29 143.911C2528.73 141.009 2529.19 140.186 2530.41 140.186C2531.78 140.186 2531.97 139.526 2531.97 134.805C2531.97 130.084 2532.16 129.424 2533.53 129.424C2534.75 129.424 2535.22 128.601 2535.65 125.699C2536.09 122.757 2536.55 121.974 2537.82 121.974C2539.17 121.974 2539.42 121.383 2539.42 118.249C2539.42 115.076 2539.67 114.524 2541.08 114.524C2542.55 114.524 2542.73 113.971 2542.73 109.479C2542.73 105.131 2542.96 104.375 2544.39 104.002C2545.74 103.648 2546.05 102.869 2546.05 99.733C2546.07 92.9764 2546.91 89.6891 2548.64 89.6891C2549.88 89.6891 2550.18 89.0691 2550.17 86.5848C2550.16 82.0467 2549.41 79.9615 2547.62 79.4954C2546.7 79.2554 2546.04 78.358 2546.04 77.3497C2546.04 75.8555 2545.55 75.6163 2542.44 75.6163C2535.12 75.6163 2528.66 74.5906 2528.66 73.4292C2528.66 72.5658 2526.93 72.305 2521.21 72.305C2515.49 72.305 2513.76 72.5658 2513.76 73.4292C2513.76 74.6155 2507.26 75.6163 2499.57 75.6163C2496.1 75.6163 2495.55 75.8439 2495.55 77.2719C2495.55 78.6519 2495 78.9275 2492.24 78.9275C2489.48 78.9275 2488.93 79.2032 2488.93 80.5832C2488.93 81.7115 2488.37 82.2388 2487.19 82.2388C2486.18 82.2388 2485.29 82.8986 2485.05 83.8183C2484.82 84.6866 2483.92 85.5832 2483.05 85.81C2482.13 86.0501 2481.47 86.9474 2481.47 87.9557C2481.47 89.137 2480.95 89.6891 2479.82 89.6891C2478.6 89.6891 2478.16 90.2413 2478.16 91.7587C2478.16 93.2446 2477.72 93.8282 2476.58 93.8282C2475.39 93.8282 2474.86 94.6196 2474.45 97.0583C2474.08 99.2711 2473.4 100.42 2472.31 100.706C2471.06 101.033 2470.71 101.861 2470.71 104.512C2470.71 107.349 2470.44 107.901 2469.06 107.901C2467.65 107.901 2467.4 108.453 2467.4 111.626C2467.4 114.76 2467.15 115.351 2465.8 115.351C2464.53 115.351 2464.07 116.134 2463.63 119.077C2463.31 121.243 2462.63 122.802 2462.02 122.802C2460.76 122.802 2459.98 125.401 2459.96 129.631C2459.95 132.18 2459.66 132.735 2458.3 132.735C2456.89 132.735 2456.64 133.288 2456.64 136.461C2456.64 139.559 2456.38 140.186 2455.08 140.186C2453.86 140.186 2453.39 141.009 2452.96 143.911C2452.52 146.853 2452.06 147.636 2450.8 147.636C2449.45 147.636 2449.19 148.227 2449.19 151.361C2449.19 154.534 2448.95 155.086 2447.53 155.086C2446.18 155.086 2445.88 155.642 2445.87 158.191C2445.85 162.421 2445.07 165.02 2443.81 165.02C2443.2 165.02 2442.52 166.579 2442.2 168.745C2441.76 171.687 2441.3 172.471 2440.03 172.471C2438.68 172.471 2438.43 173.062 2438.43 176.196C2438.43 179.369 2438.18 179.921 2436.77 179.921C2435.29 179.921 2435.12 180.473 2435.12 185.302C2435.12 190.074 2434.94 190.683 2433.51 190.683C2432.24 190.683 2431.79 191.466 2431.35 194.408C2430.91 197.309 2430.45 198.133 2429.23 198.133C2427.93 198.133 2427.67 198.759 2427.67 201.858C2427.67 205.031 2427.42 205.583 2426.01 205.583C2424.74 205.583 2424.36 206.135 2424.36 207.963C2424.36 212.418 2423.39 215.36 2421.78 215.78C2420.57 216.098 2420.22 216.95 2420.22 219.578C2420.22 222.415 2419.95 222.967 2418.56 222.967C2417.15 222.967 2416.91 223.519 2416.91 226.692C2416.91 229.865 2416.66 230.418 2415.25 230.418C2413.86 230.418 2413.59 230.97 2413.59 233.807C2413.59 236.435 2413.24 237.287 2412.03 237.605C2410.42 238.024 2409.46 240.966 2409.46 245.422C2409.46 247.25 2409.07 247.802 2407.8 247.802C2406.39 247.802 2406.14 248.354 2406.14 251.527C2406.14 254.7 2405.9 255.252 2404.49 255.252C2403.08 255.252 2402.83 255.804 2402.83 258.977C2402.83 262.067 2402.57 262.702 2401.28 262.702C2399.61 262.702 2398.69 265.53 2398.69 270.67C2398.69 272.912 2398.37 273.464 2397.04 273.464C2395.63 273.464 2395.38 274.016 2395.38 277.189C2395.38 280.323 2395.13 280.914 2393.78 280.914C2392.51 280.914 2392.06 281.697 2391.61 284.639C2391.29 286.806 2390.61 288.365 2390 288.365C2388.74 288.365 2387.96 290.964 2387.94 295.194C2387.93 297.743 2387.64 298.298 2386.28 298.298C2384.87 298.298 2384.62 298.851 2384.62 302.024C2384.62 305.122 2384.36 305.749 2383.06 305.749C2381.84 305.749 2381.37 306.572 2380.94 309.474C2380.6 311.715 2379.95 313.199 2379.29 313.199C2378.11 313.199 2377.17 316.733 2377.17 321.167C2377.17 323.409 2376.84 323.961 2375.51 323.961C2374.1 323.961 2373.86 324.513 2373.86 327.686C2373.86 330.764 2373.59 331.411 2372.32 331.411C2371.05 331.411 2370.69 332.283 2370.25 336.5C2369.96 339.298 2369.72 344.885 2369.72 348.917C2369.72 356.182 2369.74 356.245 2371.79 356.245C2373.27 356.245 2373.86 356.692 2373.86 357.817C2373.86 359.246 2374.8 359.444 2384.22 359.987C2389.91 360.316 2401.09 360.313 2409.05 359.982C2422.49 359.422 2423.53 359.266 2423.53 357.812C2423.53 356.507 2424.15 356.245 2427.25 356.245C2430.35 356.245 2430.98 355.983 2430.98 354.684C2430.98 353.467 2431.8 352.999 2434.7 352.563C2437.65 352.122 2438.43 351.668 2438.43 350.4C2438.43 349.347 2439 348.795 2440.08 348.795C2441.19 348.795 2441.74 348.243 2441.74 347.139C2441.74 346.053 2442.29 345.484 2443.34 345.484C2444.61 345.484 2445.07 344.701 2445.51 341.759C2445.94 338.857 2446.41 338.034 2447.63 338.034C2448.64 338.034 2449.19 337.448 2449.19 336.378C2449.19 335.307 2449.74 334.722 2450.75 334.722C2451.97 334.722 2452.44 333.899 2452.87 330.997C2453.22 328.655 2453.85 327.272 2454.57 327.272C2455.29 327.272 2455.92 325.889 2456.27 323.547C2456.71 320.645 2457.17 319.822 2458.39 319.822C2459.66 319.822 2459.95 319.203 2459.95 316.51C2459.95 313.751 2460.23 313.199 2461.61 313.199C2462.99 313.199 2463.26 312.647 2463.26 309.81C2463.26 307.182 2463.61 306.33 2464.83 306.012C2466.48 305.58 2467.4 302.638 2467.4 297.781C2467.4 295.539 2467.73 294.987 2469.06 294.987C2470.47 294.987 2470.71 294.435 2470.71 291.262C2470.71 288.089 2470.96 287.537 2472.37 287.537C2473.64 287.537 2474.02 286.985 2474.02 285.157C2474.02 280.702 2474.99 277.76 2476.6 277.34C2477.81 277.022 2478.16 276.17 2478.16 273.542C2478.16 270.705 2478.43 270.153 2479.82 270.153C2481.03 270.153 2481.47 269.601 2481.47 268.083V266.014H2458.3H2435.12V262.288C2435.12 259.115 2435.36 258.563 2436.77 258.563C2438.15 258.563 2438.43 258.011 2438.43 255.252C2438.43 252.493 2438.7 251.941 2440.08 251.941C2441.41 251.941 2441.74 251.389 2441.74 249.147C2441.74 244.007 2442.66 241.179 2444.33 241.179C2445.61 241.179 2445.88 240.544 2445.88 237.454C2445.88 234.281 2446.12 233.729 2447.53 233.729C2448.95 233.729 2449.19 233.177 2449.19 230.004C2449.19 226.831 2449.44 226.279 2450.85 226.279C2452.12 226.279 2452.5 225.726 2452.5 223.899C2452.5 219.443 2453.47 216.501 2455.07 216.082C2456.29 215.764 2456.64 214.912 2456.64 212.283C2456.64 209.447 2456.91 208.894 2458.3 208.894C2459.71 208.894 2459.95 208.342 2459.95 205.169V201.444H2537.35C2614.2 201.444 2614.75 201.433 2614.75 199.788C2614.75 198.147 2615.31 198.133 2679.74 198.133H2744.72V203.514C2744.72 208.286 2744.54 208.894 2743.11 208.894C2741.85 208.894 2741.39 209.678 2740.95 212.62C2740.63 214.786 2739.95 216.345 2739.34 216.345C2738.08 216.345 2737.3 218.944 2737.28 223.174C2737.27 225.723 2736.97 226.279 2735.61 226.279C2734.2 226.279 2733.96 226.831 2733.96 230.004C2733.96 233.102 2733.7 233.729 2732.4 233.729C2731.18 233.729 2730.71 234.553 2730.28 237.454C2729.84 240.396 2729.38 241.179 2728.11 241.179C2726.76 241.179 2726.51 241.77 2726.51 244.904C2726.51 248.077 2726.26 248.63 2724.85 248.63C2723.38 248.63 2723.2 249.182 2723.2 253.674C2723.2 257.96 2722.96 258.781 2721.6 259.136C2720.51 259.422 2719.83 260.571 2719.46 262.784C2719.05 265.222 2718.52 266.014 2717.33 266.014C2716.01 266.014 2715.75 266.623 2715.75 269.739C2715.75 272.912 2715.5 273.464 2714.09 273.464C2712.76 273.464 2712.44 274.016 2712.44 276.258C2712.44 281.398 2711.52 284.226 2709.85 284.226C2708.56 284.226 2708.3 284.86 2708.3 287.951C2708.3 291.124 2708.05 291.676 2706.64 291.676C2705.23 291.676 2704.98 292.228 2704.98 295.401C2704.98 298.574 2704.74 299.126 2703.33 299.126C2702.06 299.126 2701.67 299.678 2701.67 301.506C2701.67 305.961 2700.71 308.904 2699.1 309.323C2697.89 309.641 2697.53 310.493 2697.53 313.121C2697.53 315.958 2697.26 316.51 2695.88 316.51C2694.47 316.51 2694.22 317.062 2694.22 320.236C2694.22 323.334 2693.96 323.961 2692.66 323.961C2691.45 323.961 2690.98 324.784 2690.54 327.686C2690.21 329.927 2689.55 331.411 2688.9 331.411C2687.76 331.411 2686.77 334.913 2686.77 338.965C2686.77 340.793 2686.39 341.345 2685.12 341.345C2683.71 341.345 2683.46 341.897 2683.46 345.07C2683.46 348.168 2683.2 348.795 2681.9 348.795C2680.68 348.795 2680.22 349.619 2679.78 352.52C2679.44 354.761 2678.79 356.245 2678.13 356.245C2676.95 356.245 2676.01 359.779 2676.01 364.213C2676.01 366.455 2675.68 367.007 2674.36 367.007C2672.97 367.007 2672.7 367.559 2672.7 370.396C2672.7 373.029 2672.35 373.876 2671.13 374.196C2670 374.49 2669.4 375.648 2669.01 378.257C2668.68 380.456 2668.02 381.908 2667.36 381.908C2666.21 381.908 2665.28 384.379 2665.26 387.495C2665.25 388.803 2664.76 389.358 2663.59 389.358C2662.32 389.358 2661.94 389.91 2661.94 391.738C2661.94 395.737 2660.96 399.292 2659.86 399.292C2659.26 399.292 2658.58 400.866 2658.26 403.017C2657.82 405.959 2657.36 406.742 2656.09 406.742C2654.74 406.742 2654.49 407.333 2654.49 410.467C2654.49 413.64 2654.24 414.192 2652.83 414.192C2651.42 414.192 2651.18 414.745 2651.18 417.918C2651.18 421.091 2650.93 421.643 2649.52 421.643C2648.42 421.643 2647.87 422.195 2647.87 423.298C2647.87 424.942 2647.31 424.954 2571.71 424.954H2495.55V422.884C2495.55 421.367 2495.11 420.815 2493.89 420.815C2492.41 420.815 2492.24 420.263 2492.24 415.434C2492.24 410.606 2492.07 410.053 2490.58 410.053C2489.09 410.053 2488.93 409.501 2488.93 404.673C2488.93 399.485 2488.85 399.292 2486.86 399.292C2485.34 399.292 2484.79 398.851 2484.79 397.636C2484.79 396.716 2484.23 395.981 2483.54 395.981C2482.85 395.981 2482.3 396.716 2482.3 397.636C2482.3 398.837 2481.75 399.292 2480.29 399.292C2478.83 399.292 2478.21 399.806 2478.01 401.154C2477.79 402.702 2477.16 403.06 2474.23 403.271C2471.39 403.477 2470.71 403.834 2470.71 405.134C2470.71 406.488 2470.12 406.742 2466.99 406.742C2463.82 406.742 2463.26 406.987 2463.26 408.398C2463.26 409.669 2462.71 410.053 2460.88 410.053C2456.43 410.053 2453.49 411.022 2453.07 412.625C2452.75 413.841 2451.9 414.192 2449.27 414.192C2446.43 414.192 2445.88 414.462 2445.88 415.848C2445.88 417.374 2445.33 417.504 2438.84 417.504C2432.52 417.504 2431.81 417.661 2431.81 419.051C2431.81 420.673 2428.56 421.615 2422.91 421.634C2421.18 421.639 2420.22 422.051 2420.22 422.781C2420.22 424.25 2416.57 424.954 2408.94 424.954C2403.38 424.954 2402.83 425.104 2402.83 426.61C2402.83 428.165 2402.28 428.265 2393.73 428.265C2385.42 428.265 2384.62 428.4 2384.62 429.795C2384.62 431.154 2383.63 431.385 2375.8 431.865C2370.95 432.162 2363.5 432.404 2359.24 432.404C2353.28 432.404 2351.51 432.662 2351.51 433.529C2351.51 435.249 2344.14 435.716 2317.24 435.707C2291.62 435.697 2286.94 435.361 2286.94 433.538C2286.94 432.665 2285.27 432.404 2279.7 432.401C2275.71 432.399 2267.7 432.155 2261.9 431.86C2252.38 431.374 2251.34 431.17 2251.34 429.793C2251.34 428.4 2250.54 428.265 2242.24 428.265C2233.68 428.265 2233.13 428.165 2233.13 426.61C2233.13 425.104 2232.58 424.954 2227.03 424.954C2219.57 424.954 2215.75 424.255 2215.75 422.889C2215.75 421.821 2211.52 420.84 2206.85 420.824C2204.71 420.817 2204.16 420.473 2204.16 419.159C2204.16 417.673 2203.6 417.504 2198.78 417.504C2193.95 417.504 2193.4 417.334 2193.4 415.848C2193.4 414.374 2192.84 414.192 2188.35 414.192C2184.04 414.192 2183.24 413.957 2182.88 412.575C2182.58 411.4 2181.46 410.807 2178.82 410.411C2176 409.988 2175.18 409.514 2175.18 408.303C2175.18 407.005 2174.56 406.742 2171.46 406.742C2168.29 406.742 2167.73 406.497 2167.73 405.086C2167.73 403.707 2167.18 403.431 2164.42 403.431C2161.44 403.431 2161.11 403.224 2161.11 401.361C2161.11 399.706 2160.7 399.292 2159.04 399.292C2157.52 399.292 2156.97 398.851 2156.97 397.636C2156.97 396.256 2156.42 395.981 2153.66 395.981C2150.68 395.981 2150.35 395.774 2150.35 393.911C2150.35 392.394 2149.91 391.841 2148.69 391.841C2147.59 391.841 2147.04 391.289 2147.04 390.186C2147.04 388.971 2146.49 388.53 2144.97 388.53C2143.45 388.53 2142.9 388.089 2142.9 386.875C2142.9 385.771 2142.35 385.219 2141.24 385.219C2140.03 385.219 2139.59 384.667 2139.59 383.149C2139.59 381.663 2139.14 381.08 2138 381.08C2136.8 381.08 2136.29 380.282 2135.86 377.769C2135.44 375.255 2134.92 374.457 2133.72 374.457C2132.4 374.457 2132.14 373.848 2132.14 370.732C2132.14 367.559 2131.89 367.007 2130.48 367.007C2128.88 367.007 2128.83 366.455 2128.83 350.865C2128.83 335.274 2128.88 334.722 2130.48 334.722C2131.97 334.722 2132.14 334.17 2132.14 329.341C2132.14 324.513 2132.31 323.961 2133.79 323.961C2135.04 323.961 2135.45 323.406 2135.46 321.684C2135.48 316.426 2136.46 313.199 2138.04 313.199C2139.39 313.199 2139.59 312.522 2139.59 307.818C2139.59 302.99 2139.76 302.437 2141.24 302.437C2142.65 302.437 2142.9 301.885 2142.9 298.712C2142.9 295.622 2143.16 294.987 2144.45 294.987C2146.12 294.987 2147.04 292.159 2147.04 287.019C2147.04 284.778 2147.36 284.226 2148.69 284.226C2150.1 284.226 2150.35 283.673 2150.35 280.5C2150.35 277.327 2150.59 276.775 2152 276.775C2153.39 276.775 2153.66 276.223 2153.66 273.386C2153.66 270.758 2154.01 269.906 2155.23 269.588C2156.83 269.168 2157.8 266.226 2157.8 261.771C2157.8 259.943 2158.18 259.391 2159.46 259.391C2160.87 259.391 2161.11 258.839 2161.11 255.666C2161.11 252.567 2161.37 251.941 2162.67 251.941C2163.89 251.941 2164.36 251.117 2164.79 248.216C2165.14 245.874 2165.77 244.49 2166.49 244.49C2167.21 244.49 2167.84 243.107 2168.19 240.765C2168.63 237.864 2169.09 237.04 2170.31 237.04C2171.67 237.04 2171.87 236.389 2171.87 232.073C2171.87 227.758 2172.08 227.106 2173.43 227.106C2174.65 227.106 2175.12 226.283 2175.55 223.381C2175.91 221.039 2176.54 219.656 2177.25 219.656C2177.97 219.656 2178.6 218.273 2178.95 215.931C2179.39 213.029 2179.86 212.206 2181.07 212.206C2182.44 212.206 2182.63 211.546 2182.63 206.825C2182.63 202.104 2182.82 201.444 2184.2 201.444C2185.41 201.444 2185.88 200.62 2186.32 197.719C2186.76 194.777 2187.21 193.994 2188.48 193.994C2189.83 193.994 2190.08 193.403 2190.08 190.269C2190.08 187.096 2190.33 186.543 2191.74 186.543C2193.13 186.543 2193.4 185.991 2193.4 183.154C2193.4 180.534 2193.75 179.673 2194.95 179.359C2196.17 179.041 2196.63 177.875 2197.06 174.056C2197.53 169.942 2197.88 169.159 2199.23 169.159C2200.59 169.159 2200.85 168.576 2200.85 165.434C2200.85 162.261 2201.09 161.709 2202.5 161.709C2203.91 161.709 2204.16 161.157 2204.16 157.984C2204.16 154.85 2204.41 154.259 2205.76 154.259C2207.03 154.259 2207.48 153.476 2207.93 150.534C2208.36 147.632 2208.83 146.808 2210.05 146.808C2211.4 146.808 2211.61 146.157 2211.61 141.841C2211.61 137.526 2211.81 136.875 2213.17 136.875C2214.39 136.875 2214.85 136.051 2215.29 133.149C2215.73 130.207 2216.19 129.424 2217.45 129.424C2218.61 129.424 2219.06 128.851 2219.06 127.355C2219.06 125.837 2219.5 125.285 2220.71 125.285C2222.09 125.285 2222.37 124.733 2222.37 121.974C2222.37 119.215 2222.64 118.663 2224.02 118.663C2225.41 118.663 2225.68 118.11 2225.68 115.274C2225.68 112.623 2226.03 111.794 2227.28 111.467C2228.37 111.182 2229.05 110.033 2229.42 107.82C2229.83 105.381 2230.35 104.59 2231.55 104.59C2232.68 104.59 2233.13 104.006 2233.13 102.52C2233.13 101.034 2233.58 100.451 2234.71 100.451C2235.91 100.451 2236.43 99.6593 2236.84 97.2206C2237.22 95.0078 2237.89 93.8588 2238.98 93.5732C2239.92 93.3282 2240.58 92.4375 2240.58 91.4226C2240.58 90.2413 2241.11 89.6891 2242.24 89.6891C2243.61 89.6891 2243.89 89.137 2243.89 86.4358C2243.89 83.6916 2244.18 83.1403 2245.75 82.9176C2246.95 82.7471 2247.71 81.9871 2247.88 80.7901C2248.05 79.5931 2248.72 78.9275 2249.74 78.9275C2250.79 78.9275 2251.34 78.3555 2251.34 77.2719C2251.34 76.1684 2251.89 75.6163 2253 75.6163C2254.21 75.6163 2254.65 75.0641 2254.65 73.5467C2254.65 72.0294 2255.09 71.4772 2256.31 71.4772C2257.41 71.4772 2257.97 70.9251 2257.97 69.8216C2257.97 68.6072 2258.52 68.166 2260.03 68.166C2261.52 68.166 2262.1 67.7198 2262.1 66.5832C2262.1 65.3812 2262.9 64.8655 2265.42 64.4408C2267.93 64.0161 2268.73 63.5004 2268.73 62.2984C2268.73 61.1618 2269.31 60.7156 2270.8 60.7156C2272.31 60.7156 2272.87 60.2744 2272.87 59.06C2272.87 57.68 2273.42 57.4044 2276.18 57.4044C2278.94 57.4044 2279.49 57.1287 2279.49 55.7487C2279.49 54.5343 2280.04 54.0931 2281.56 54.0931C2283.05 54.0931 2283.63 53.6486 2283.63 52.488C2283.63 51.2206 2284.41 50.7661 2287.35 50.3249C2290.25 49.8895 2291.08 49.4209 2291.08 48.204C2291.08 46.9052 2291.7 46.6428 2294.8 46.6428C2297.98 46.6428 2298.53 46.3977 2298.53 44.9871C2298.53 43.7156 2299.08 43.3315 2300.91 43.3315C2305.65 43.3315 2308.46 42.3671 2308.46 40.7446C2308.46 39.4565 2309.1 39.1924 2312.19 39.1924C2315.36 39.1924 2315.91 38.9474 2315.91 37.5368C2315.91 36.2082 2316.46 35.8812 2318.71 35.8812C2323.07 35.8812 2326.67 34.9458 2326.67 33.8116C2326.67 32.6775 2330.27 31.7421 2334.64 31.7421C2336.88 31.7421 2337.44 31.4151 2337.44 30.0865C2337.44 28.6006 2337.99 28.4309 2342.82 28.4309C2347.64 28.4309 2348.2 28.2612 2348.2 26.7752C2348.2 25.2893 2348.75 25.1196 2353.58 25.1196C2358.28 25.1196 2358.96 24.9251 2358.96 23.5724C2358.96 21.8506 2362.25 21.0053 2369 20.9896C2372.14 20.9822 2372.92 20.6784 2373.27 19.3249C2373.66 17.8315 2374.4 17.6693 2380.82 17.6693C2387.38 17.6693 2387.93 17.541 2387.93 16.0136C2387.93 14.5459 2388.48 14.358 2392.8 14.358C2399.13 14.358 2402.83 13.5848 2402.83 12.2603C2402.83 11.4797 2405.69 11.0385 2413.59 10.6014C2421.32 10.1742 2424.36 9.7148 2424.36 8.97473C2424.36 7.40934 2428.4 6.90767 2441.02 6.90767C2451.95 6.90767 2452.5 6.8282 2452.5 5.25204C2452.5 3.69492 2453.05 3.59642 2461.81 3.59311Z" fill="white"/>
<path d="M1811.77 11.0592L1862.48 10.8464C1913.86 10.6304 2002.63 10.6709 2009.83 10.9143L2013.76 11.0467V16.0914C2013.76 20.4002 2013.52 21.1974 2012.14 21.5583C2010.97 21.8655 2010.37 22.9789 2009.98 25.6204C2009.56 28.4408 2009.08 29.2587 2007.87 29.2587C2006.51 29.2587 2006.31 29.9102 2006.31 34.2256C2006.31 38.6403 2006.13 39.1924 2004.65 39.1924C2003.24 39.1924 2003 39.7446 2003 42.9176C2003 46.0161 2002.74 46.6428 2001.44 46.6428C2000.22 46.6428 1999.75 47.4664 1999.32 50.3679C1998.87 53.31 1998.42 54.0931 1997.15 54.0931C1995.73 54.0931 1995.55 54.7015 1995.55 59.4739C1995.55 64.2206 1995.36 64.8547 1993.96 64.8547C1992.76 64.8547 1992.25 65.6527 1991.82 68.166C1991.51 70.0418 1990.8 71.4772 1990.19 71.4772C1989.55 71.4772 1988.89 72.9863 1988.55 75.2024C1988.11 78.1444 1987.66 78.9275 1986.39 78.9275C1984.97 78.9275 1984.79 79.536 1984.79 84.3083C1984.79 89.137 1984.62 89.6891 1983.13 89.6891C1981.72 89.6891 1981.47 90.2413 1981.47 93.4143C1981.47 96.5484 1981.22 97.1395 1979.87 97.1395C1978.6 97.1395 1978.15 97.9226 1977.71 100.865C1977.27 103.766 1976.8 104.59 1975.59 104.59C1974.23 104.59 1974.02 105.241 1974.02 109.557C1974.02 113.872 1973.82 114.524 1972.46 114.524C1971.25 114.524 1970.78 115.347 1970.34 118.249C1969.99 120.591 1969.36 121.974 1968.64 121.974C1967.93 121.974 1967.3 123.357 1966.95 125.699C1966.51 128.601 1966.04 129.424 1964.82 129.424C1963.53 129.424 1963.26 130.051 1963.26 133.149C1963.26 136.322 1963.02 136.875 1961.61 136.875C1960.36 136.875 1959.95 137.429 1959.94 139.151C1959.92 144.409 1958.94 147.636 1957.36 147.636C1956.08 147.636 1955.81 148.275 1955.81 151.361C1955.81 154.534 1955.57 155.086 1954.16 155.086C1952.77 155.086 1952.5 155.639 1952.5 158.476C1952.5 161.168 1952.16 161.953 1950.85 162.297C1949.7 162.598 1949.19 163.426 1949.19 165.014C1949.19 169.659 1948.21 172.471 1946.6 172.471C1945.32 172.471 1945.05 173.106 1945.05 176.196C1945.05 179.369 1944.81 179.921 1943.4 179.921C1941.98 179.921 1941.74 180.473 1941.74 183.646C1941.74 186.736 1941.48 187.371 1940.19 187.371C1938.57 187.371 1937.6 190.187 1937.6 194.925C1937.6 196.753 1937.22 197.305 1935.95 197.305C1934.53 197.305 1934.29 197.857 1934.29 201.03C1934.29 204.203 1934.04 204.755 1932.63 204.755C1931.22 204.755 1930.98 205.308 1930.98 208.481C1930.98 211.579 1930.72 212.206 1929.42 212.206C1928.2 212.206 1927.73 213.029 1927.3 215.931C1926.85 218.873 1926.4 219.656 1925.13 219.656C1923.71 219.656 1923.53 220.264 1923.53 225.037C1923.53 229.758 1923.34 230.418 1921.97 230.418C1920.75 230.418 1920.28 231.241 1919.85 234.143C1919.49 236.485 1918.86 237.868 1918.15 237.868C1917.43 237.868 1916.8 239.251 1916.45 241.593C1916.01 244.495 1915.54 245.318 1914.33 245.318C1912.97 245.318 1912.77 245.97 1912.77 250.285C1912.77 254.601 1912.56 255.252 1911.21 255.252C1909.99 255.252 1909.52 256.076 1909.08 258.977C1908.73 261.319 1908.1 262.702 1907.39 262.702C1906.67 262.702 1906.04 264.086 1905.69 266.428C1905.25 269.329 1904.78 270.153 1903.57 270.153C1902.32 270.153 1902 270.771 1901.99 273.257C1901.98 277.487 1901.19 280.086 1899.93 280.086C1899.32 280.086 1898.65 281.645 1898.32 283.812C1897.97 286.154 1897.34 287.537 1896.62 287.537C1895.91 287.537 1895.28 288.92 1894.93 291.262C1894.49 294.163 1894.02 294.987 1892.8 294.987C1891.58 294.987 1891.24 295.595 1891.24 297.781C1891.24 302.161 1890.31 305.749 1889.16 305.749C1888.56 305.749 1887.88 307.323 1887.56 309.474C1887.12 312.416 1886.67 313.199 1885.4 313.199C1884.05 313.199 1883.79 313.79 1883.79 316.924C1883.79 320.097 1883.55 320.649 1882.14 320.649C1880.78 320.649 1880.48 321.205 1880.47 323.754C1880.46 327.984 1879.67 330.583 1878.41 330.583C1877.8 330.583 1877.12 332.142 1876.8 334.308C1876.36 337.25 1875.9 338.034 1874.64 338.034C1873.29 338.034 1873.03 338.625 1873.03 341.759C1873.03 344.932 1872.79 345.484 1871.38 345.484C1869.96 345.484 1869.72 346.036 1869.72 349.209C1869.72 352.382 1869.47 352.934 1868.06 352.934C1866.81 352.934 1866.41 353.489 1866.4 355.211C1866.38 360.469 1865.4 363.696 1863.82 363.696C1862.54 363.696 1862.27 364.335 1862.27 367.421C1862.27 370.594 1862.02 371.146 1860.61 371.146C1859.23 371.146 1858.96 371.698 1858.96 374.535C1858.96 377.163 1858.61 378.015 1857.39 378.333C1855.79 378.753 1854.82 381.695 1854.82 386.15C1854.82 387.978 1854.44 388.53 1853.16 388.53C1851.75 388.53 1851.51 389.082 1851.51 392.255C1851.51 395.428 1851.26 395.981 1849.85 395.981C1848.47 395.981 1848.2 396.533 1848.2 399.37C1848.2 402.035 1847.85 402.848 1846.58 403.181C1845.4 403.488 1844.81 404.601 1844.42 407.243C1843.99 410.063 1843.52 410.881 1842.31 410.881C1840.95 410.881 1840.75 411.533 1840.75 415.848C1840.75 420.163 1840.54 420.815 1839.19 420.815C1837.97 420.815 1837.5 421.639 1837.06 424.54L1836.51 428.265H1729.04H1621.57L1620.99 421.307C1620.5 415.421 1620.17 414.286 1618.82 413.935C1617.41 413.566 1617.24 412.722 1617.24 406.406C1617.24 399.844 1617.11 399.292 1615.58 399.292C1614.08 399.292 1613.93 398.74 1613.93 393.187C1613.93 385.727 1613.23 381.908 1611.86 381.908C1610.66 381.908 1609.81 377.541 1609.8 371.353C1609.79 367.562 1609.58 367.007 1608.13 367.007C1606.6 367.007 1606.47 366.455 1606.47 359.971C1606.47 353.486 1606.34 352.934 1604.82 352.934C1603.29 352.934 1603.16 352.382 1603.16 345.82C1603.16 339.504 1602.99 338.66 1601.58 338.291C1600.23 337.94 1599.9 336.809 1599.41 330.99C1598.93 325.213 1598.59 324.04 1597.28 323.697C1595.87 323.328 1595.71 322.42 1595.71 314.519C1595.71 306.301 1595.61 305.749 1594.06 305.749C1592.61 305.749 1592.4 305.197 1592.4 301.299C1592.4 295.37 1591.6 291.676 1590.32 291.676C1589.59 291.676 1589.08 289.383 1588.68 284.226C1588.27 279.068 1587.76 276.775 1587.04 276.775C1585.65 276.775 1584.95 272.988 1584.95 265.496C1584.95 259.943 1584.8 259.391 1583.3 259.391C1581.8 259.391 1581.64 258.839 1581.64 253.538C1581.64 247.943 1581.56 247.698 1579.78 247.951C1578.58 248.121 1577.82 248.881 1577.65 250.078C1577.48 251.275 1576.82 251.941 1575.79 251.941C1574.37 251.941 1574.19 252.558 1574.19 257.322C1574.19 262.15 1574.02 262.702 1572.53 262.702C1571.15 262.702 1570.88 263.255 1570.88 266.091C1570.88 268.757 1570.53 269.57 1569.26 269.903C1568.09 270.21 1567.49 271.323 1567.1 273.965C1566.67 276.785 1566.2 277.603 1564.99 277.603C1563.63 277.603 1563.43 278.255 1563.43 282.57C1563.43 286.885 1563.22 287.537 1561.87 287.537C1560.65 287.537 1560.18 288.361 1559.75 291.262C1559.4 293.604 1558.76 294.987 1558.05 294.987C1557.33 294.987 1556.7 296.37 1556.35 298.712C1555.91 301.614 1555.45 302.437 1554.23 302.437C1552.87 302.437 1552.67 303.089 1552.67 307.404C1552.67 311.819 1552.48 312.371 1551.01 312.371C1549.85 312.371 1549.35 312.927 1549.34 314.234C1549.32 317.558 1548.41 319.659 1546.8 320.082C1545.57 320.403 1545.22 321.245 1545.22 323.883C1545.22 326.72 1544.95 327.272 1543.56 327.272C1542.15 327.272 1541.91 327.824 1541.91 330.997C1541.91 334.17 1541.66 334.722 1540.25 334.722C1539 334.722 1538.59 335.277 1538.59 336.999C1538.56 342.257 1537.58 345.484 1536 345.484C1534.72 345.484 1534.46 346.123 1534.46 349.209C1534.46 352.382 1534.21 352.934 1532.8 352.934C1531.39 352.934 1531.14 353.486 1531.14 356.659C1531.14 359.832 1530.9 360.384 1529.49 360.384C1528.22 360.384 1527.83 360.937 1527.83 362.764C1527.83 367.503 1526.87 370.318 1525.25 370.318C1523.96 370.318 1523.69 370.953 1523.69 374.043C1523.69 377.216 1523.45 377.769 1522.04 377.769C1520.63 377.769 1520.38 378.321 1520.38 381.494C1520.38 384.667 1520.14 385.219 1518.73 385.219C1517.34 385.219 1517.07 385.771 1517.07 388.608C1517.07 391.236 1516.72 392.088 1515.5 392.406C1513.9 392.826 1512.93 395.768 1512.93 400.223C1512.93 402.051 1512.55 402.603 1511.28 402.603C1509.87 402.603 1509.62 403.155 1509.62 406.328C1509.62 409.427 1509.36 410.053 1508.06 410.053C1506.84 410.053 1506.37 410.877 1505.94 413.779C1505.5 416.721 1505.04 417.504 1503.78 417.504C1502.43 417.504 1502.17 418.095 1502.17 421.229C1502.17 424.402 1501.93 424.954 1500.51 424.954C1499.41 424.954 1498.86 425.506 1498.86 426.61C1498.86 427.713 1498.31 428.265 1497.2 428.265C1496.1 428.265 1495.55 428.817 1495.55 429.921C1495.55 431.567 1495 431.577 1396.21 431.577H1296.87V426.61C1296.87 422.294 1297.08 421.643 1298.43 421.643C1299.65 421.643 1300.12 420.819 1300.55 417.918C1300.91 415.576 1301.54 414.192 1302.25 414.192C1302.97 414.192 1303.6 412.809 1303.95 410.467C1304.39 407.566 1304.86 406.742 1306.07 406.742C1307.37 406.742 1307.63 406.115 1307.63 403.017C1307.63 399.844 1307.88 399.292 1309.29 399.292C1310.56 399.292 1310.95 398.74 1310.95 396.912C1310.95 392.457 1311.91 389.514 1313.52 389.095C1314.77 388.768 1315.08 387.917 1315.08 384.883C1315.08 381.632 1315.32 381.08 1316.74 381.08C1318.12 381.08 1318.4 380.528 1318.4 377.769C1318.4 375.01 1318.67 374.457 1320.05 374.457C1321.38 374.457 1321.71 373.905 1321.71 371.663C1321.71 366.524 1322.62 363.696 1324.29 363.696C1325.58 363.696 1325.85 363.061 1325.85 359.971C1325.85 356.798 1326.09 356.245 1327.5 356.245C1328.91 356.245 1329.16 355.693 1329.16 352.52C1329.16 349.386 1329.41 348.795 1330.76 348.795C1332.03 348.795 1332.48 348.012 1332.93 345.07C1333.36 342.168 1333.83 341.345 1335.05 341.345C1336.4 341.345 1336.61 340.693 1336.61 336.378C1336.61 331.963 1336.79 331.411 1338.26 331.411C1339.67 331.411 1339.92 330.859 1339.92 327.686C1339.92 324.6 1340.18 323.961 1341.47 323.961C1343.05 323.961 1344.03 320.734 1344.05 315.476C1344.06 313.754 1344.46 313.199 1345.71 313.199C1347.12 313.199 1347.37 312.647 1347.37 309.474C1347.37 306.301 1347.61 305.749 1349.02 305.749C1350.41 305.749 1350.68 305.197 1350.68 302.36C1350.68 299.694 1351.03 298.881 1352.3 298.548C1353.47 298.241 1354.07 297.128 1354.46 294.486C1354.88 291.666 1355.36 290.848 1356.57 290.848C1357.93 290.848 1358.13 290.197 1358.13 285.881C1358.13 281.566 1358.33 280.914 1359.69 280.914C1360.91 280.914 1361.38 280.091 1361.81 277.189C1362.16 274.847 1362.79 273.464 1363.51 273.464C1364.23 273.464 1364.86 272.081 1365.21 269.739C1365.65 266.837 1366.11 266.014 1367.33 266.014C1368.69 266.014 1368.89 265.361 1368.89 260.969C1368.89 256.66 1369.13 255.863 1370.51 255.502C1371.68 255.195 1372.28 254.082 1372.67 251.44C1373 249.245 1373.65 247.802 1374.32 247.802C1374.98 247.802 1375.63 246.336 1375.97 244.077C1376.41 241.175 1376.88 240.351 1378.09 240.351C1379.45 240.351 1379.65 239.7 1379.65 235.384C1379.65 231.069 1379.86 230.418 1381.21 230.418C1382.43 230.418 1382.9 229.594 1383.34 226.692C1383.69 224.351 1384.32 222.967 1385.03 222.967C1385.75 222.967 1386.38 221.584 1386.73 219.242C1387.17 216.341 1387.64 215.517 1388.85 215.517C1390.1 215.517 1390.42 214.899 1390.43 212.413C1390.44 208.166 1391.23 205.583 1392.5 205.583C1393.16 205.583 1393.79 203.977 1394.14 201.444C1394.6 198.124 1395.02 197.305 1396.29 197.305C1397.58 197.305 1397.87 196.699 1397.87 193.994C1397.87 191.235 1398.14 190.683 1399.52 190.683C1400.85 190.683 1401.18 190.13 1401.18 187.889C1401.18 183.455 1402.12 179.921 1403.3 179.921C1403.95 179.921 1404.61 178.437 1404.95 176.196C1405.38 173.294 1405.85 172.471 1407.07 172.471C1408.36 172.471 1408.63 171.844 1408.63 168.745C1408.63 165.572 1408.87 165.02 1410.28 165.02C1411.64 165.02 1411.94 164.465 1411.95 161.916C1411.96 157.686 1412.75 155.086 1414.01 155.086C1414.62 155.086 1415.3 153.528 1415.62 151.361C1416.06 148.419 1416.52 147.636 1417.78 147.636C1419.13 147.636 1419.39 147.045 1419.39 143.911C1419.39 140.738 1419.63 140.186 1421.04 140.186C1422.46 140.186 1422.7 139.634 1422.7 136.461C1422.7 133.37 1422.96 132.735 1424.25 132.735C1425.92 132.735 1426.84 129.908 1426.84 124.768C1426.84 122.526 1427.17 121.974 1428.49 121.974C1429.87 121.974 1430.15 121.422 1430.15 118.663C1430.15 115.904 1430.43 115.351 1431.81 115.351C1433.22 115.351 1433.46 114.799 1433.46 111.548C1433.46 108.514 1433.78 107.663 1435.03 107.336C1436.63 106.917 1437.6 103.975 1437.6 99.5194C1437.6 97.6916 1437.98 97.1395 1439.26 97.1395C1440.67 97.1395 1440.91 96.5873 1440.91 93.4143C1440.91 90.2413 1441.16 89.6891 1442.57 89.6891C1443.95 89.6891 1444.22 89.137 1444.22 86.3001C1444.22 83.6718 1444.58 82.8199 1445.79 82.502C1447.39 82.0823 1448.36 79.1403 1448.36 74.685C1448.36 72.8572 1448.75 72.305 1450.02 72.305C1451.43 72.305 1451.67 71.7529 1451.67 68.5799C1451.67 65.4068 1451.92 64.8547 1453.33 64.8547C1454.74 64.8547 1454.98 64.3025 1454.98 61.1295C1454.98 58.0393 1455.25 57.4044 1456.54 57.4044C1458.21 57.4044 1459.12 54.5765 1459.12 49.4366C1459.12 47.1949 1459.45 46.6428 1460.78 46.6428C1462.19 46.6428 1462.44 46.0906 1462.44 42.9176C1462.44 39.7446 1462.68 39.1924 1464.09 39.1924C1465.48 39.1924 1465.75 38.6403 1465.75 35.8034C1465.75 33.1751 1466.1 32.3232 1467.31 32.0054C1468.92 31.5856 1469.89 28.6436 1469.89 24.1883C1469.89 22.3605 1470.27 21.8083 1471.54 21.8083C1472.94 21.8083 1473.2 21.2562 1473.2 18.1916C1473.2 14.6552 1473.27 14.5633 1476.3 14.0616C1478.01 13.7794 1516.19 13.5443 1561.15 13.5393C1633.26 13.531 1642.9 13.3837 1642.9 12.2885C1642.9 11.2231 1645.43 11.0467 1660.7 11.0467C1677.94 11.0467 1678.49 11.0981 1678.49 12.7024C1678.49 13.7802 1679.05 14.358 1680.08 14.358C1681.46 14.358 1681.73 15.2247 1682.24 21.3944C1682.75 27.5236 1683.03 28.4309 1684.39 28.4309C1685.75 28.4309 1685.95 29.0956 1685.95 33.8116C1685.95 38.5277 1686.14 39.1924 1687.5 39.1924C1688.86 39.1924 1689.14 40.0956 1689.64 46.1502C1690.13 52.0368 1690.46 53.1717 1691.81 53.5227C1693.17 53.8795 1693.4 54.7123 1693.4 59.3961C1693.4 64.3025 1693.56 64.8547 1695.05 64.8547C1696.58 64.8547 1696.71 65.4069 1696.71 71.8911C1696.71 78.3754 1696.84 78.9275 1698.36 78.9275C1699.69 78.9275 1700.02 79.4797 1700.02 81.7214C1700.02 86.089 1700.95 89.6891 1702.09 89.6891C1703.36 89.6891 1704.16 93.406 1704.16 99.3125C1704.16 103.21 1704.36 103.762 1705.81 103.762C1707.31 103.762 1707.47 104.314 1707.47 109.557C1707.47 114.709 1707.64 115.351 1709.05 115.351C1710.44 115.351 1710.7 116.218 1711.22 122.388C1711.73 128.517 1712 129.424 1713.36 129.424C1714.73 129.424 1714.92 130.089 1714.92 134.805C1714.92 139.634 1715.09 140.186 1716.57 140.186C1718.1 140.186 1718.23 140.738 1718.23 147.222C1718.23 153.707 1718.36 154.259 1719.89 154.259C1721.2 154.259 1721.54 154.813 1721.55 156.949C1721.57 161.62 1722.55 165.848 1723.62 165.848C1724.88 165.848 1725.68 169.572 1725.68 175.471C1725.68 179.369 1725.89 179.921 1727.34 179.921C1728.79 179.921 1728.99 180.473 1728.99 184.37C1728.99 186.817 1729.22 189.984 1729.51 191.407C1729.96 193.668 1730.37 193.994 1732.72 193.994C1735.07 193.994 1735.47 193.668 1735.92 191.407C1736.21 189.984 1736.44 187.562 1736.44 186.026C1736.44 183.784 1736.77 183.232 1738.1 183.232C1739.46 183.232 1739.75 182.677 1739.76 180.128C1739.78 175.898 1740.56 173.298 1741.83 173.298C1742.43 173.298 1743.11 171.763 1743.42 169.66C1743.82 167.019 1744.41 165.905 1745.59 165.598C1746.86 165.265 1747.2 164.452 1747.2 161.787C1747.2 158.95 1747.47 158.398 1748.86 158.398C1750.19 158.398 1750.51 157.846 1750.51 155.604C1750.51 151.224 1751.45 147.636 1752.59 147.636C1753.2 147.636 1753.87 146.062 1754.2 143.911C1754.64 140.969 1755.09 140.186 1756.36 140.186C1757.71 140.186 1757.96 139.595 1757.96 136.461C1757.96 133.288 1758.21 132.735 1759.62 132.735C1760.98 132.735 1761.28 132.18 1761.29 129.631C1761.3 125.093 1762.05 123.008 1763.84 122.542C1765.07 122.221 1765.42 121.378 1765.42 118.74C1765.42 115.904 1765.69 115.351 1767.07 115.351C1768.48 115.351 1768.73 114.799 1768.73 111.626C1768.73 108.453 1768.97 107.901 1770.38 107.901C1771.79 107.901 1772.04 107.349 1772.04 104.176C1772.04 101.09 1772.3 100.451 1773.58 100.451C1775.16 100.451 1776.15 97.2239 1776.17 91.9656C1776.17 90.2438 1776.58 89.6891 1777.83 89.6891C1779.24 89.6891 1779.49 89.137 1779.49 85.964C1779.49 82.791 1779.73 82.2388 1781.14 82.2388C1782.53 82.2388 1782.8 81.6867 1782.8 78.8497C1782.8 76.2214 1783.15 75.3696 1784.37 75.0517C1785.97 74.632 1786.94 71.69 1786.94 67.2347C1786.94 65.4068 1787.32 64.8547 1788.59 64.8547C1790 64.8547 1790.25 64.3025 1790.25 61.1295C1790.25 57.9565 1790.49 57.4044 1791.91 57.4044C1793.29 57.4044 1793.56 56.8522 1793.56 54.0153C1793.56 51.3497 1793.91 50.5368 1795.18 50.204C1796.35 49.8969 1796.95 48.7835 1797.34 46.1419C1797.77 43.3216 1798.24 42.5037 1799.45 42.5037C1800.81 42.5037 1801.01 41.8522 1801.01 37.5368C1801.01 33.2214 1801.22 32.5699 1802.57 32.5699C1803.79 32.5699 1804.26 31.7463 1804.69 28.8448C1805.04 26.5029 1805.68 25.1196 1806.39 25.1196C1807.11 25.1196 1807.74 23.7363 1808.09 21.3944C1808.53 18.4929 1808.99 17.6693 1810.21 17.6693C1811.48 17.6693 1811.77 17.0509 1811.77 14.3646V11.0592Z" fill="white"/>
<path d="M637.932 17.6693C749.135 17.6693 749.687 17.661 749.687 16.0136C749.687 14.9102 750.239 14.358 751.342 14.358C752.446 14.358 752.998 14.9102 752.998 16.0136C752.998 17.1171 753.55 17.6693 754.654 17.6693C755.723 17.6693 756.309 18.2214 756.309 19.228C756.309 20.0914 755.57 20.9805 754.654 21.2206C753.663 21.4797 752.998 22.3497 752.998 23.3862C752.998 24.8564 752.496 25.1196 749.687 25.1196C746.967 25.1196 746.376 25.4052 746.376 26.7173C746.376 27.7446 745.71 28.4102 744.513 28.5799C743.316 28.7504 742.556 29.5103 742.386 30.7073C742.216 31.9044 741.55 32.5699 740.523 32.5699C739.477 32.5699 738.925 33.1419 738.925 34.2256C738.925 35.44 738.373 35.8812 736.856 35.8812C735.338 35.8812 734.786 36.3224 734.786 37.5368C734.786 38.6403 734.234 39.1924 733.131 39.1924C732.052 39.1924 731.475 39.7446 731.475 40.7752C731.475 41.9772 730.677 42.4929 728.164 42.9176C725.65 43.3423 724.852 43.858 724.852 45.06C724.852 46.1966 724.269 46.6428 722.783 46.6428C721.266 46.6428 720.713 47.084 720.713 48.2984C720.713 49.4019 720.161 49.954 719.058 49.954C717.843 49.954 717.402 50.5062 717.402 52.0236C717.402 53.6792 716.988 54.0931 715.333 54.0931C713.815 54.0931 713.263 54.5343 713.263 55.7487C713.263 56.8522 712.711 57.4044 711.607 57.4044C710.504 57.4044 709.952 57.9565 709.952 59.06C709.952 60.1883 709.4 60.7156 708.218 60.7156C707.179 60.7156 706.312 61.3812 706.051 62.377C705.745 63.5484 704.669 64.19 702.404 64.5526C699.998 64.9375 699.19 65.4557 699.19 66.6163C699.19 67.5956 698.602 68.166 697.592 68.166C696.565 68.166 695.9 68.8315 695.73 70.0285C695.559 71.2256 694.799 71.9855 693.602 72.156C692.405 72.3257 691.74 72.9913 691.74 74.0186C691.74 75.0641 691.168 75.6163 690.084 75.6163C688.981 75.6163 688.429 76.1684 688.429 77.2719C688.429 78.4863 687.876 78.9275 686.359 78.9275C684.873 78.9275 684.289 79.3737 684.289 80.5103C684.289 81.7123 683.491 82.228 680.978 82.6527C678.465 83.0774 677.667 83.5931 677.667 84.7951C677.667 85.8257 677.09 86.3779 676.011 86.3779C674.928 86.3779 674.356 86.93 674.356 87.9755C674.356 89.0029 673.69 89.6684 672.493 89.8381C671.296 90.0087 670.536 90.7686 670.366 91.9656C670.196 93.1626 669.53 93.8282 668.503 93.8282C667.458 93.8282 666.905 94.4002 666.905 95.4838C666.905 96.6982 666.353 97.1395 664.836 97.1395C663.318 97.1395 662.766 97.5807 662.766 98.7951C662.766 99.8986 662.214 100.451 661.111 100.451C660.007 100.451 659.455 101.003 659.455 102.106C659.455 103.235 658.903 103.762 657.722 103.762C656.692 103.762 655.815 104.426 655.561 105.397C655.283 106.461 654.154 107.216 652.328 107.559C650.314 107.937 649.521 108.527 649.521 109.649C649.521 110.764 648.929 111.212 647.452 111.212C645.796 111.212 645.382 111.626 645.382 113.282C645.382 114.937 644.968 115.351 643.313 115.351C641.795 115.351 641.243 115.793 641.243 117.007C641.243 118.11 640.691 118.663 639.588 118.663C638.484 118.663 637.932 119.215 637.932 120.318C637.932 121.447 637.38 121.974 636.198 121.974C635.19 121.974 634.293 122.634 634.053 123.553C633.826 124.422 632.929 125.318 632.061 125.545C631.141 125.785 630.482 126.683 630.482 127.691C630.482 129.156 629.978 129.424 627.228 129.424C624.484 129.424 623.933 129.716 623.71 131.287C623.539 132.484 622.78 133.244 621.583 133.414C620.385 133.584 619.72 134.25 619.72 135.277C619.72 136.322 619.148 136.875 618.064 136.875C616.961 136.875 616.409 137.427 616.409 138.53C616.409 139.634 615.857 140.186 614.753 140.186C613.65 140.186 613.097 140.738 613.097 141.841C613.097 143.056 612.545 143.497 611.028 143.497C609.372 143.497 608.958 143.911 608.958 145.567C608.958 147.222 608.544 147.636 606.889 147.636C605.371 147.636 604.819 148.077 604.819 149.292C604.819 150.625 604.267 150.947 601.98 150.947C599.664 150.947 599.091 151.292 598.876 152.81C598.705 154.007 597.945 154.767 596.748 154.937C595.551 155.107 594.885 155.773 594.885 156.8C594.885 157.846 594.313 158.398 593.23 158.398C592.126 158.398 591.574 158.95 591.574 160.053C591.574 161.268 591.022 161.709 589.505 161.709C588.012 161.709 587.435 162.154 587.435 163.307C587.435 164.334 586.77 165 585.573 165.169C584.376 165.34 583.616 166.1 583.445 167.297C583.231 168.807 582.654 169.159 580.399 169.159C578.144 169.159 577.567 169.512 577.352 171.022C577.182 172.219 576.422 172.979 575.225 173.149C574.028 173.319 573.362 173.985 573.362 175.012C573.362 176.164 572.785 176.61 571.293 176.61C569.775 176.61 569.223 177.051 569.223 178.265C569.223 179.369 568.671 179.921 567.568 179.921C566.464 179.921 565.912 180.473 565.912 181.577C565.912 182.68 565.36 183.232 564.256 183.232C563.173 183.232 562.601 183.784 562.601 184.83C562.601 185.857 561.935 186.523 560.738 186.692C559.541 186.863 558.781 187.623 558.611 188.82C558.388 190.39 557.837 190.683 555.093 190.683C552.343 190.683 551.839 190.951 551.839 192.416C551.839 193.424 551.179 194.322 550.26 194.562C549.391 194.788 548.495 195.685 548.268 196.553C548.028 197.473 547.131 198.133 546.122 198.133C544.941 198.133 544.389 198.66 544.389 199.788C544.389 200.892 543.837 201.444 542.733 201.444C541.63 201.444 541.078 201.996 541.078 203.1C541.078 204.187 540.525 204.755 539.471 204.755C538.587 204.755 537.638 205.121 537.362 205.569C536.546 206.888 537.857 212.206 538.996 212.206C540.305 212.206 541.078 215.931 541.078 222.243C541.078 226.554 541.266 227.106 542.733 227.106C544.284 227.106 544.389 227.658 544.389 235.798C544.389 243.938 544.494 244.49 546.044 244.49C547.495 244.49 547.7 245.043 547.7 248.94C547.7 254.839 548.499 258.563 549.765 258.563C551.061 258.563 551.818 263.04 551.83 270.774C551.838 276.221 551.992 276.775 553.495 276.775C555.02 276.775 555.15 277.327 555.15 283.812C555.15 290.134 555.308 290.848 556.699 290.848C558.054 290.848 558.321 291.779 558.831 298.298C559.242 303.561 559.73 305.749 560.49 305.749C561.9 305.749 562.601 309.495 562.601 317.028C562.601 322.581 562.751 323.133 564.256 323.133C565.789 323.133 565.912 323.685 565.912 330.583C565.912 337.342 566.058 338.034 567.48 338.034C568.858 338.034 569.119 338.932 569.637 345.484C570.045 350.641 570.55 352.934 571.277 352.934C572.562 352.934 573.362 356.629 573.362 362.558C573.362 366.455 573.568 367.007 575.018 367.007C576.539 367.007 576.674 367.562 576.685 373.836C576.698 381.63 577.239 384.391 578.751 384.391C579.487 384.391 579.988 386.656 580.399 391.841C580.807 396.999 581.312 399.292 582.039 399.292C583.352 399.292 584.124 403.011 584.124 409.329C584.124 413.64 584.312 414.192 585.78 414.192C587.23 414.192 587.435 414.745 587.435 418.642C587.435 424.692 588.242 428.265 589.608 428.265C590.234 428.265 590.746 429.01 590.746 429.921C590.746 431.024 590.194 431.577 589.091 431.577C587.987 431.577 587.435 432.129 587.435 433.232C587.435 434.612 586.883 434.888 584.124 434.888C581.732 434.888 580.813 434.543 580.813 433.646C580.813 432.557 575.018 432.404 533.627 432.404C494.143 432.404 486.442 432.59 486.442 433.543C486.442 434.168 485.28 434.913 483.859 435.197C482.439 435.481 449.285 435.704 410.184 435.692L339.091 435.67V431.968C339.091 428.817 338.844 428.265 337.435 428.265C335.922 428.265 335.78 427.712 335.775 421.85C335.767 410.097 334.775 399.292 333.703 399.292C332.323 399.292 331.64 391.717 331.64 376.405C331.64 364.248 331.568 363.696 329.985 363.696C328.386 363.696 328.329 363.144 328.329 347.553C328.329 332.292 328.244 331.411 326.769 331.411C325.32 331.411 325.165 330.342 324.604 316.51C324.158 305.514 323.73 301.61 322.971 301.61C321.519 301.61 320.879 294.099 320.879 277.067C320.879 263.255 320.815 262.702 319.223 262.702C318.009 262.702 317.568 263.255 317.568 264.772C317.568 266.289 317.126 266.841 315.912 266.841C314.66 266.841 314.254 267.396 314.247 269.118C314.23 273.461 313.207 277.603 312.151 277.603C311.559 277.603 310.843 279.065 310.531 280.914C310.107 283.428 309.591 284.226 308.389 284.226C306.992 284.226 306.806 284.86 306.806 289.606C306.806 294.327 306.615 294.987 305.245 294.987C304.028 294.987 303.559 295.811 303.124 298.712C302.683 301.654 302.228 302.437 300.961 302.437C299.611 302.437 299.356 303.029 299.356 306.163C299.356 309.336 299.111 309.888 297.7 309.888C296.341 309.888 296.043 310.443 296.033 312.992C296.018 317.222 295.233 319.822 293.972 319.822C293.365 319.822 292.691 321.357 292.376 323.46C291.98 326.101 291.386 327.215 290.212 327.522C288.939 327.855 288.594 328.668 288.594 331.333C288.594 334.17 288.324 334.722 286.939 334.722C285.528 334.722 285.283 335.274 285.283 338.447C285.283 341.538 285.019 342.173 283.731 342.173C282.108 342.173 281.144 344.988 281.144 349.726C281.144 351.554 280.76 352.106 279.488 352.106C278.078 352.106 277.833 352.659 277.833 355.832C277.833 359.005 277.587 359.557 276.177 359.557C274.766 359.557 274.521 360.109 274.521 363.282C274.521 366.38 274.259 367.007 272.96 367.007C271.743 367.007 271.275 367.831 270.839 370.732C270.398 373.674 269.943 374.457 268.676 374.457C267.252 374.457 267.071 375.066 267.071 379.838C267.071 384.559 266.88 385.219 265.51 385.219C264.293 385.219 263.824 386.043 263.389 388.944C263.051 391.199 262.399 392.669 261.736 392.669C260.581 392.669 259.651 395.14 259.632 398.257C259.624 399.564 259.126 400.12 257.965 400.12C256.493 400.12 256.309 400.672 256.309 405.086C256.309 409.402 256.105 410.053 254.748 410.053C253.531 410.053 253.063 410.877 252.627 413.779C252.276 416.12 251.645 417.504 250.929 417.504C250.212 417.504 249.581 418.887 249.23 421.229C248.794 424.13 248.326 424.954 247.109 424.954C245.81 424.954 245.548 425.581 245.548 428.679C245.548 431.775 245.285 432.404 243.989 432.404C243.126 432.404 242.237 433.144 241.996 434.06C241.566 435.706 240.867 435.716 121.039 435.716H0.514648V431.99C0.514648 428.892 0.777054 428.265 2.0759 428.265C3.29278 428.265 3.76134 427.442 4.19677 424.54C4.54776 422.198 5.17856 420.815 5.89544 420.815C6.61233 420.815 7.24313 419.432 7.59412 417.09C8.02955 414.188 8.4981 413.365 9.71499 413.365C11.0718 413.365 11.2762 412.713 11.2762 408.398C11.2762 404.082 11.4807 403.431 12.8375 403.431C14.0544 403.431 14.5229 402.607 14.9584 399.706C15.3093 397.364 15.9401 395.981 16.657 395.981C17.3739 395.981 18.0047 394.597 18.3557 392.255C18.7911 389.354 19.2597 388.53 20.4766 388.53C21.6984 388.53 22.0378 387.923 22.0378 385.736C22.0378 381.303 22.979 377.769 24.1603 377.769C24.8143 377.769 25.4699 376.284 25.806 374.043C26.2415 371.142 26.71 370.318 27.9269 370.318C29.2258 370.318 29.4882 369.692 29.4882 366.593C29.4882 363.42 29.7332 362.868 31.1438 362.868C32.5238 362.868 32.7994 362.316 32.7994 359.557C32.7994 356.875 33.0933 356.245 34.3466 356.245C35.9261 356.245 36.9087 353.019 36.9294 347.76C36.936 346.038 37.3425 345.484 38.5941 345.484C40.0047 345.484 40.2497 344.932 40.2497 341.759C40.2497 338.586 40.4948 338.034 41.9054 338.034C43.2646 338.034 43.5627 337.478 43.5726 334.929C43.5875 330.699 44.3723 328.1 45.633 328.1C46.2439 328.1 46.9178 326.541 47.2431 324.375C47.6844 321.433 48.1388 320.649 49.4062 320.649C50.7564 320.649 51.0113 320.058 51.0113 316.924C51.0113 313.751 51.2564 313.199 52.667 313.199C54.0776 313.199 54.3226 312.647 54.3226 309.474C54.3226 306.384 54.5867 305.749 55.8747 305.749C57.5436 305.749 58.4617 302.921 58.4617 297.781C58.4617 295.539 58.7887 294.987 60.1173 294.987C61.5279 294.987 61.7729 294.435 61.7729 291.262C61.7729 288.089 62.018 287.537 63.4286 287.537C64.8085 287.537 65.0842 286.985 65.0842 284.226C65.0842 281.543 65.3781 280.914 66.6314 280.914C68.2108 280.914 69.1935 277.687 69.2142 272.429C69.2208 270.707 69.6272 270.153 70.8789 270.153C72.2895 270.153 72.5345 269.601 72.5345 266.428C72.5345 263.329 72.7969 262.702 74.0958 262.702C75.3127 262.702 75.7812 261.879 76.2166 258.977C76.5676 256.635 77.1984 255.252 77.9153 255.252C78.6322 255.252 79.263 253.869 79.614 251.527C80.0494 248.625 80.518 247.802 81.7349 247.802C83.0916 247.802 83.2961 247.15 83.2961 242.835C83.2961 238.519 83.5006 237.868 84.8574 237.868C86.0684 237.868 86.542 237.05 86.965 234.23C87.3607 231.588 87.9542 230.475 89.1289 230.168C90.4012 229.835 90.7464 229.022 90.7464 226.356C90.7464 223.519 91.0163 222.967 92.4021 222.967C93.7307 222.967 94.0577 222.415 94.0577 220.173C94.0577 215.767 94.9964 212.206 96.1579 212.206C96.7514 212.206 97.465 210.774 97.7688 208.976C98.143 206.763 98.8176 205.614 99.9112 205.328C101.196 204.992 101.508 204.168 101.508 201.108C101.508 197.857 101.748 197.305 103.164 197.305C104.544 197.305 104.819 196.753 104.819 193.994C104.819 191.312 105.113 190.683 106.366 190.683C107.946 190.683 108.929 187.456 108.949 182.197C108.956 180.476 109.362 179.921 110.614 179.921C112.025 179.921 112.27 179.369 112.27 176.196C112.27 173.023 112.515 172.471 113.925 172.471C115.311 172.471 115.581 171.918 115.581 169.082C115.581 166.453 115.933 165.601 117.148 165.283C118.751 164.864 119.72 161.922 119.72 157.466C119.72 155.639 120.104 155.086 121.376 155.086C122.786 155.086 123.031 154.534 123.031 151.361C123.031 148.188 123.276 147.636 124.687 147.636C126.097 147.636 126.342 147.084 126.342 143.911C126.342 140.821 126.607 140.186 127.895 140.186C129.563 140.186 130.482 137.358 130.482 132.218C130.482 129.976 130.809 129.424 132.137 129.424C133.517 129.424 133.793 128.872 133.793 126.113C133.793 123.42 134.084 122.802 135.354 122.802C136.571 122.802 137.039 121.978 137.475 119.077C137.826 116.735 138.457 115.351 139.174 115.351C139.89 115.351 140.521 113.968 140.872 111.626C141.308 108.725 141.776 107.901 142.993 107.901C144.215 107.901 144.554 107.293 144.554 105.107C144.554 100.727 145.491 97.1395 146.633 97.1395C147.236 97.1395 147.914 95.565 148.236 93.4143C148.587 91.0724 149.218 89.6891 149.935 89.6891C150.652 89.6891 151.283 88.3059 151.634 85.964C152.069 83.0625 152.538 82.2388 153.755 82.2388C155.005 82.2388 155.318 81.6204 155.328 79.1345C155.342 74.9044 156.127 72.305 157.388 72.305C157.999 72.305 158.673 70.7462 158.998 68.5799C159.439 65.6378 159.894 64.8547 161.161 64.8547C162.511 64.8547 162.766 64.2636 162.766 61.1295C162.766 57.9565 163.011 57.4044 164.422 57.4044C165.833 57.4044 166.078 56.8522 166.078 53.6792C166.078 50.5062 166.323 49.954 167.733 49.954C168.985 49.954 169.391 49.3994 169.398 47.6775C169.419 42.4193 170.401 39.1924 171.981 39.1924C173.262 39.1924 173.528 38.5534 173.528 35.4673C173.528 32.2943 173.773 31.7421 175.184 31.7421C176.569 31.7421 176.839 31.19 176.839 28.353C176.839 25.661 177.179 24.8754 178.495 24.5319C179.411 24.2918 180.15 23.4027 180.15 22.5393C180.15 21.4284 180.745 20.9805 182.22 20.9805C183.737 20.9805 184.289 20.5393 184.289 19.3249C184.289 17.6767 184.842 17.6693 303.081 17.6693H421.872V23.0501C421.872 27.8787 421.703 28.4309 420.217 28.4309C418.806 28.4309 418.561 28.983 418.561 32.156C418.561 35.2421 418.295 35.8812 417.014 35.8812C415.434 35.8812 414.452 39.108 414.431 44.3663C414.424 46.0881 414.018 46.6428 412.766 46.6428C411.356 46.6428 411.111 47.1949 411.111 50.3679C411.111 53.541 410.866 54.0931 409.455 54.0931C408.069 54.0931 407.799 54.6452 407.799 57.4822C407.799 60.1328 407.452 60.9615 406.203 61.2885C405.109 61.5741 404.434 62.7231 404.06 64.9358C403.649 67.3746 403.127 68.166 401.932 68.166C400.535 68.166 400.349 68.8001 400.349 73.5467C400.349 78.2678 400.158 78.9275 398.788 78.9275C397.571 78.9275 397.102 79.7512 396.667 82.6527C396.316 84.9946 395.685 86.3779 394.968 86.3779C394.251 86.3779 393.621 87.7611 393.27 90.103C392.834 93.0045 392.366 93.8282 391.149 93.8282C389.899 93.8282 389.585 94.4466 389.576 96.9325C389.561 101.163 388.776 103.762 387.516 103.762C386.905 103.762 386.231 105.321 385.905 107.487C385.554 109.829 384.924 111.212 384.207 111.212C383.49 111.212 382.859 112.596 382.508 114.937C382.073 117.839 381.604 118.663 380.387 118.663C379.088 118.663 378.826 119.289 378.826 122.388C378.826 125.561 378.581 126.113 377.17 126.113C375.919 126.113 375.512 126.668 375.506 128.389C375.485 133.648 374.502 136.875 372.923 136.875C371.641 136.875 371.376 137.514 371.376 140.6C371.376 143.773 371.131 144.325 369.72 144.325C368.448 144.325 368.064 144.877 368.064 146.705C368.064 150.704 367.086 154.259 365.986 154.259C365.382 154.259 364.705 155.833 364.382 157.984C363.941 160.926 363.487 161.709 362.219 161.709C360.869 161.709 360.614 162.3 360.614 165.434C360.614 168.856 360.783 169.159 362.684 169.159C364.159 169.159 364.753 168.711 364.753 167.601C364.753 166.737 365.492 165.848 366.409 165.608C367.4 165.349 368.064 164.479 368.064 163.442C368.064 162.261 368.592 161.709 369.72 161.709C370.823 161.709 371.376 161.157 371.376 160.053C371.376 158.839 371.928 158.398 373.445 158.398C374.963 158.398 375.515 157.957 375.515 156.742C375.515 155.639 376.067 155.086 377.17 155.086C378.249 155.086 378.826 154.534 378.826 153.504C378.826 152.306 379.62 151.787 382.088 151.37C384.592 150.947 385.41 150.401 385.607 149.02C385.768 147.887 386.551 147.125 387.725 146.957C388.922 146.788 389.587 146.122 389.587 145.095C389.587 144.049 390.16 143.497 391.243 143.497C392.347 143.497 392.899 142.945 392.899 141.841C392.899 140.627 393.451 140.186 394.968 140.186C396.486 140.186 397.038 139.745 397.038 138.53C397.038 137.427 397.59 136.875 398.693 136.875C399.908 136.875 400.349 136.322 400.349 134.805C400.349 133.288 400.79 132.735 402.005 132.735C403.108 132.735 403.66 132.183 403.66 131.08C403.66 129.865 404.212 129.424 405.73 129.424C407.247 129.424 407.799 128.983 407.799 127.769C407.799 126.665 408.352 126.113 409.455 126.113C410.539 126.113 411.111 125.561 411.111 124.515C411.111 123.488 411.776 122.822 412.973 122.653C414.17 122.482 414.93 121.722 415.101 120.525C415.323 118.955 415.875 118.663 418.619 118.663C421.537 118.663 421.872 118.45 421.872 116.593C421.872 115.076 422.313 114.524 423.528 114.524C424.631 114.524 425.184 113.971 425.184 112.868C425.184 111.764 425.736 111.212 426.839 111.212C427.943 111.212 428.495 110.66 428.495 109.557C428.495 108.342 429.047 107.901 430.564 107.901C432.22 107.901 432.634 107.487 432.634 105.832C432.634 104.314 433.075 103.762 434.289 103.762C435.393 103.762 435.945 103.21 435.945 102.106C435.945 100.892 436.497 100.451 438.015 100.451C439.532 100.451 440.084 100.009 440.084 98.7951C440.084 97.7115 440.636 97.1395 441.682 97.1395C442.709 97.1395 443.375 96.4739 443.544 95.2769C443.715 94.0799 444.475 93.3199 445.672 93.1494C446.869 92.9797 447.535 92.3141 447.535 91.2868C447.535 90.2413 448.107 89.6891 449.19 89.6891C450.294 89.6891 450.846 89.137 450.846 88.0335C450.846 86.93 451.398 86.3779 452.501 86.3779C453.585 86.3779 454.157 85.8257 454.157 84.7802C454.157 83.7529 454.823 83.0873 456.02 82.9176C457.217 82.7471 457.977 81.9871 458.147 80.7901C458.317 79.5931 458.982 78.9275 460.01 78.9275C461.031 78.9275 461.607 78.3564 461.607 77.3448C461.607 76.1428 462.405 75.627 464.919 75.2024C467.432 74.7777 468.23 74.262 468.23 73.06C468.23 71.9234 468.813 71.4772 470.299 71.4772C471.817 71.4772 472.369 71.036 472.369 69.8216C472.369 68.7181 472.921 68.166 474.025 68.166C475.128 68.166 475.68 67.6138 475.68 66.5103C475.68 65.4267 476.232 64.8547 477.278 64.8547C478.305 64.8547 478.971 64.1891 479.14 62.9921C479.311 61.7951 480.071 61.0351 481.268 60.8646C482.465 60.6949 483.131 60.0294 483.131 59.002C483.131 57.9565 483.703 57.4044 484.786 57.4044C485.87 57.4044 486.442 56.8522 486.442 55.8067C486.442 54.7794 487.107 54.1138 488.304 53.9441C489.501 53.7736 490.261 53.0136 490.432 51.8166C490.602 50.6196 491.267 49.954 492.294 49.954C493.34 49.954 493.892 49.382 493.892 48.2984C493.892 47.1949 494.444 46.6428 495.548 46.6428C496.631 46.6428 497.203 46.0906 497.203 45.0451C497.203 44.0178 497.869 43.3522 499.066 43.1825C500.263 43.012 501.023 42.252 501.193 41.055C501.363 39.858 502.029 39.1924 503.056 39.1924C504.102 39.1924 504.654 38.6204 504.654 37.5368C504.654 36.3224 505.206 35.8812 506.723 35.8812C508.209 35.8812 508.793 35.435 508.793 34.2984C508.793 33.0964 509.591 32.5807 512.104 32.156C514.617 31.7313 515.415 31.2156 515.415 30.0136C515.415 28.983 515.992 28.4309 517.071 28.4309C518.155 28.4309 518.727 27.8787 518.727 26.8332C518.727 25.8059 519.392 25.1403 520.589 24.9706C521.786 24.8001 522.546 24.0401 522.717 22.8431C522.886 21.6461 523.552 20.9805 524.579 20.9805C525.625 20.9805 526.177 20.4085 526.177 19.3249C526.177 17.6775 526.729 17.6693 637.932 17.6693Z" fill="white"/>
<path d="M974.438 17.6693C975.956 17.6693 976.508 17.228 976.508 16.0136C976.508 14.3655 977.06 14.358 1096.96 14.358H1217.4V17.6693C1217.4 20.4284 1217.13 20.9805 1215.75 20.9805C1214.53 20.9805 1214.09 21.5327 1214.09 23.0501C1214.09 24.5674 1213.65 25.1196 1212.44 25.1196C1211.11 25.1196 1210.78 25.6717 1210.78 27.9135C1210.78 32.3472 1209.84 35.8812 1208.66 35.8812C1208 35.8812 1207.35 37.3655 1207.01 39.6063C1206.58 42.5078 1206.11 43.3315 1204.89 43.3315C1203.59 43.3315 1203.33 43.9582 1203.33 47.0567C1203.33 50.2297 1203.08 50.7818 1201.67 50.7818C1200.4 50.7818 1200.02 51.334 1200.02 53.1618C1200.02 57.6171 1199.05 60.5592 1197.45 60.9789C1196.23 61.2967 1195.88 62.1486 1195.88 64.7769C1195.88 67.6138 1195.61 68.166 1194.22 68.166C1192.81 68.166 1192.57 68.7181 1192.57 71.8911C1192.57 75.0641 1192.32 75.6163 1190.91 75.6163C1189.53 75.6163 1189.26 76.1684 1189.26 79.0053C1189.26 81.6337 1188.9 82.4855 1187.69 82.8034C1186.09 83.2231 1185.12 86.1651 1185.12 90.6204C1185.12 92.4482 1184.73 93.0004 1183.46 93.0004C1182.05 93.0004 1181.81 93.5525 1181.81 96.7256C1181.81 99.8241 1181.54 100.451 1180.24 100.451C1179.03 100.451 1178.56 101.274 1178.12 104.176C1177.79 106.417 1177.13 107.901 1176.48 107.901C1175.3 107.901 1174.36 111.435 1174.36 115.869C1174.36 118.11 1174.03 118.663 1172.7 118.663C1171.29 118.663 1171.04 119.215 1171.04 122.388C1171.04 125.522 1170.79 126.113 1169.44 126.113C1168.17 126.113 1167.72 126.896 1167.28 129.838C1166.95 132.005 1166.28 133.563 1165.67 133.563C1164.41 133.563 1163.62 136.163 1163.61 140.393C1163.6 142.942 1163.3 143.497 1161.94 143.497C1160.53 143.497 1160.28 144.049 1160.28 147.222C1160.28 150.321 1160.02 150.947 1158.72 150.947C1157.5 150.947 1157.04 151.771 1156.6 154.673C1156.25 157.014 1155.62 158.398 1154.9 158.398C1154.19 158.398 1153.55 159.781 1153.2 162.123C1152.77 165.024 1152.3 165.848 1151.08 165.848C1149.73 165.848 1149.52 166.5 1149.52 170.815C1149.52 175.13 1149.32 175.782 1147.96 175.782C1146.74 175.782 1146.27 176.606 1145.84 179.507C1145.4 182.449 1144.94 183.232 1143.68 183.232C1142.33 183.232 1142.07 183.823 1142.07 186.957C1142.07 190.13 1141.83 190.683 1140.42 190.683C1139.09 190.683 1138.76 191.235 1138.76 193.476C1138.76 197.91 1137.82 201.444 1136.64 201.444C1135.98 201.444 1135.33 202.928 1134.99 205.169C1134.56 208.071 1134.09 208.894 1132.87 208.894C1131.57 208.894 1131.31 209.521 1131.31 212.62C1131.31 215.793 1131.06 216.345 1129.65 216.345C1128.27 216.345 1128 216.897 1128 219.734C1128 222.362 1127.65 223.214 1126.43 223.532C1124.83 223.952 1123.86 226.894 1123.86 231.349C1123.86 233.177 1123.47 233.729 1122.2 233.729C1120.79 233.729 1120.55 234.281 1120.55 237.454C1120.55 240.627 1120.3 241.179 1118.89 241.179C1117.51 241.179 1117.24 241.731 1117.24 244.568C1117.24 247.197 1116.88 248.048 1115.67 248.366C1114.07 248.786 1113.1 251.728 1113.1 256.183C1113.1 258.011 1112.71 258.563 1111.44 258.563C1110.03 258.563 1109.79 259.115 1109.79 262.288C1109.79 265.461 1109.54 266.014 1108.13 266.014C1106.72 266.014 1106.47 266.566 1106.47 269.739C1106.47 272.825 1106.21 273.464 1104.93 273.464C1103.35 273.464 1102.37 276.691 1102.34 281.949C1102.34 283.671 1101.93 284.226 1100.68 284.226C1099.27 284.226 1099.02 284.778 1099.02 287.951C1099.02 291.124 1098.78 291.676 1097.37 291.676C1096.1 291.676 1095.71 292.228 1095.71 294.056C1095.71 298.511 1094.74 301.453 1093.14 301.873C1091.93 302.191 1091.57 303.043 1091.57 305.671C1091.57 308.508 1091.3 309.06 1089.92 309.06C1088.51 309.06 1088.26 309.612 1088.26 312.785C1088.26 315.958 1088.02 316.51 1086.61 316.51C1085.28 316.51 1084.95 317.062 1084.95 319.304C1084.95 324.444 1084.03 327.272 1082.36 327.272C1081.08 327.272 1080.81 327.907 1080.81 330.997C1080.81 334.17 1080.57 334.722 1079.16 334.722C1077.75 334.722 1077.5 335.274 1077.5 338.447C1077.5 341.582 1077.25 342.173 1075.9 342.173C1074.63 342.173 1074.17 342.956 1073.73 345.898C1073.3 348.799 1072.83 349.623 1071.61 349.623C1070.26 349.623 1070.05 350.274 1070.05 354.59C1070.05 359.005 1069.87 359.557 1068.4 359.557C1066.98 359.557 1066.74 360.109 1066.74 363.282C1066.74 366.38 1066.48 367.007 1065.18 367.007C1063.96 367.007 1063.49 367.831 1063.06 370.732C1062.62 373.674 1062.16 374.457 1060.89 374.457C1059.48 374.457 1059.29 375.062 1059.29 379.424C1059.29 383.839 1059.11 384.391 1057.63 384.391C1056.47 384.391 1055.97 384.947 1055.97 386.254C1055.95 389.578 1055.03 391.679 1053.42 392.101C1052.19 392.423 1051.84 393.265 1051.84 395.903C1051.84 398.74 1051.57 399.292 1050.18 399.292C1048.77 399.292 1048.53 399.844 1048.53 403.017C1048.53 406.19 1048.28 406.742 1046.87 406.742C1045.54 406.742 1045.22 407.294 1045.22 409.536C1045.22 414.676 1044.3 417.504 1042.63 417.504C1041.34 417.504 1041.08 418.139 1041.08 421.229C1041.08 424.402 1040.83 424.954 1039.42 424.954C1038.05 424.954 1037.77 425.506 1037.77 428.134V431.314L984.165 431.866C916.997 432.557 800.249 432.567 795.958 431.88C793.542 431.495 792.733 430.976 792.733 429.815C792.733 428.817 793.323 428.265 794.389 428.265C795.775 428.265 796.044 427.713 796.044 424.876C796.044 422.248 796.396 421.396 797.611 421.078C799.215 420.659 800.184 417.716 800.184 413.261C800.184 411.433 800.568 410.881 801.839 410.881C803.25 410.881 803.495 410.329 803.495 407.156C803.495 404.058 803.757 403.431 805.056 403.431C806.273 403.431 806.741 402.607 807.177 399.706C807.513 397.465 808.169 395.981 808.823 395.981C810.004 395.981 810.945 392.447 810.945 388.013C810.945 385.771 811.272 385.219 812.601 385.219C814.011 385.219 814.256 384.667 814.256 381.494C814.256 378.395 814.519 377.769 815.818 377.769C817.034 377.769 817.503 376.945 817.938 374.043C818.38 371.101 818.834 370.318 820.102 370.318C821.452 370.318 821.707 369.727 821.707 366.593C821.707 363.42 821.952 362.868 823.362 362.868C824.634 362.868 825.018 362.316 825.018 360.488C825.018 356.489 825.996 352.934 827.097 352.934C827.7 352.934 828.377 351.36 828.7 349.209C829.141 346.267 829.596 345.484 830.863 345.484C832.213 345.484 832.468 344.893 832.468 341.759C832.468 338.586 832.713 338.034 834.124 338.034C835.483 338.034 835.781 337.478 835.791 334.929C835.806 330.699 836.591 328.1 837.852 328.1C838.463 328.1 839.136 326.541 839.462 324.375C839.903 321.433 840.357 320.649 841.625 320.649C842.975 320.649 843.23 320.058 843.23 316.924C843.23 313.751 843.475 313.199 844.885 313.199C846.296 313.199 846.541 312.647 846.541 309.474C846.541 306.384 846.805 305.749 848.093 305.749C849.762 305.749 850.68 302.921 850.68 297.781C850.68 295.539 851.007 294.987 852.336 294.987C853.746 294.987 853.991 294.435 853.991 291.262C853.991 288.089 854.237 287.537 855.647 287.537C856.919 287.537 857.303 286.985 857.303 285.157C857.303 280.702 858.271 277.76 859.875 277.34C861.09 277.022 861.442 276.17 861.442 273.542C861.442 270.705 861.712 270.153 863.097 270.153C864.508 270.153 864.753 269.601 864.753 266.428C864.753 263.255 864.998 262.702 866.409 262.702C867.794 262.702 868.064 262.15 868.064 259.313C868.064 256.685 868.416 255.833 869.631 255.515C871.284 255.083 872.203 252.141 872.203 247.284C872.203 245.043 872.53 244.49 873.859 244.49C875.27 244.49 875.515 243.938 875.515 240.765C875.515 237.592 875.76 237.04 877.17 237.04C878.556 237.04 878.826 236.488 878.826 233.651C878.826 231.014 879.176 230.171 880.405 229.85C882.188 229.384 882.937 227.298 882.953 222.76C882.963 220.211 883.261 219.656 884.621 219.656C886.031 219.656 886.276 219.104 886.276 215.931C886.276 212.832 886.539 212.206 887.838 212.206C889.054 212.206 889.523 211.382 889.958 208.481C890.294 206.24 890.95 204.755 891.604 204.755C892.742 204.755 893.727 201.254 893.727 197.202C893.727 195.374 894.111 194.822 895.382 194.822C896.793 194.822 897.038 194.269 897.038 191.096C897.038 187.998 897.3 187.371 898.599 187.371C899.816 187.371 900.285 186.548 900.72 183.646C901.161 180.704 901.616 179.921 902.883 179.921C904.233 179.921 904.488 179.33 904.488 176.196C904.488 173.023 904.733 172.471 906.144 172.471C907.472 172.471 907.799 171.918 907.799 169.677C907.799 165.243 908.741 161.709 909.922 161.709C910.576 161.709 911.232 160.225 911.568 157.984C912.003 155.082 912.472 154.259 913.689 154.259C914.987 154.259 915.25 153.632 915.25 150.534C915.25 147.36 915.495 146.808 916.905 146.808C918.177 146.808 918.561 146.256 918.561 144.428C918.561 139.973 919.53 137.031 921.133 136.611C922.348 136.293 922.7 135.442 922.7 132.813C922.7 129.976 922.97 129.424 924.356 129.424C925.766 129.424 926.011 128.872 926.011 125.699C926.011 122.526 926.256 121.974 927.667 121.974C929.026 121.974 929.324 121.418 929.334 118.87C929.351 114.332 930.1 112.246 931.882 111.78C933.112 111.459 933.462 110.616 933.462 107.979C933.462 105.142 933.732 104.59 935.117 104.59C936.528 104.59 936.773 104.038 936.773 100.865C936.773 97.6916 937.018 97.1395 938.429 97.1395C939.757 97.1395 940.084 96.5873 940.084 94.3456C940.084 89.4888 941.004 86.5468 942.656 86.1146C943.871 85.7968 944.223 84.9449 944.223 82.3166C944.223 79.4797 944.493 78.9275 945.879 78.9275C947.289 78.9275 947.535 78.3754 947.535 75.2024C947.535 72.0294 947.78 71.4772 949.19 71.4772C950.576 71.4772 950.846 70.9251 950.846 68.0881C950.846 65.4507 951.196 64.608 952.425 64.2868C954.208 63.8208 954.957 61.7355 954.973 57.1974C954.983 54.6486 955.281 54.0931 956.641 54.0931C958.051 54.0931 958.296 53.541 958.296 50.3679C958.296 47.1949 958.541 46.6428 959.952 46.6428C961.203 46.6428 961.61 46.0881 961.616 44.3663C961.637 39.108 962.62 35.8812 964.199 35.8812C965.453 35.8812 965.746 35.252 965.746 32.5699C965.746 29.8108 966.022 29.2587 967.402 29.2587C968.818 29.2587 969.058 28.7065 969.058 25.4557C969.058 22.3497 969.361 21.5741 970.713 21.2206C971.63 20.9805 972.369 20.0914 972.369 19.228C972.369 18.1171 972.963 17.6693 974.438 17.6693Z" fill="white"/>
</svg>
