<svg width="2489" height="500" viewBox="0 0 2489 500" fill="none" xmlns="http://www.w3.org/2000/svg">
<path fill-rule="evenodd" clip-rule="evenodd" d="M106.805 58.4657L0.0290299 119.126L0.0165885 244.962L0 370.799L108.298 432.826L216.596 494.853L320.839 435.268C378.173 402.496 427.416 373.78 430.265 371.458C434.2 368.246 435.449 337.702 435.449 244.6V121.971L330.734 62.1262C273.138 29.2104 223.219 1.27688 219.798 0.0457299C216.265 -1.22248 167.432 24.0264 106.805 58.4657ZM303.176 95.6267L387.757 144.189L388.864 245.498L389.971 346.81L359.834 363.264L329.697 379.722L327.623 284.586L325.55 189.449L242.607 140.792C196.989 114.028 157.044 90.558 153.838 88.6392C149.595 86.0945 156.919 79.9964 180.794 66.182C198.826 55.7522 214.705 47.1836 216.086 47.1424C217.467 47.1012 256.658 68.9202 303.176 95.6267ZM1418.51 97.4878C1395.48 105.175 1373.79 129.658 1370.46 151.741C1365.08 187.358 1376.15 213.047 1402.77 226.713C1409.78 230.312 1430.5 235.854 1448.82 239.033C1493.55 246.786 1501.26 252.172 1501.26 275.688C1501.26 297.988 1492 308.855 1469.39 313.063C1449.69 316.736 1411.43 309.044 1397.09 298.524L1386.23 290.556L1372.68 304.432L1359.14 318.304L1378.62 330.571C1418.66 355.778 1473.43 358.36 1508.46 336.681C1534.79 320.392 1543.62 302.851 1541.75 270.491C1539.29 227.673 1521.11 212.347 1460.28 201.802C1440.97 198.455 1422.31 192.706 1417.9 188.745C1410.06 181.7 1407.42 161.524 1412.6 148.134C1419.95 129.115 1467.01 123.264 1494.58 137.935L1510.58 146.454L1522.44 135.18C1536.34 121.954 1534.1 117.17 1507.76 103.763C1487.79 93.5967 1440.21 90.2491 1418.51 97.4878ZM580.598 222.065V347.65H663.777H746.96L745.683 330.151L744.41 312.651L683.24 311.51L622.07 310.374V203.424V96.479H601.334H580.598V222.065ZM787.955 222.065V347.65H806.617H825.279V222.065V96.479H806.617H787.955V222.065ZM891.633 222.065V347.65H912.369H933.104L933.204 262.211L933.299 176.771L989.713 262.211L1046.13 347.65H1066.34H1086.55V222.065V96.479H1065.9H1045.25L1044.12 181.918L1043 267.358L986.142 181.918L929.277 96.479H910.457H891.633V222.065ZM1148.76 222.065V347.65H1169.49H1190.23V310.217V272.789L1209.35 250.558C1219.87 238.333 1229.85 229.163 1231.52 230.189C1233.18 231.21 1249.29 258.06 1267.3 289.848L1300.06 347.65H1324.18C1337.45 347.65 1347.54 346.258 1346.61 344.562C1345.68 342.866 1325.97 309.596 1302.82 270.631C1279.67 231.667 1260.73 197.796 1260.73 195.354C1260.73 192.916 1278.54 169.673 1300.32 143.699L1339.92 96.479H1314.97H1290.03L1241.16 156.344L1192.3 216.214L1191.15 156.344L1190.01 96.479H1169.38H1148.76V222.065ZM1567.69 109.861C1569.64 117.223 1583.58 170.492 1598.66 228.241C1613.74 285.99 1627.05 336.479 1628.23 340.444C1629.86 345.888 1634.83 347.65 1648.57 347.65C1665.56 347.65 1667 346.769 1670.48 334.268C1694.51 247.919 1714.88 183.43 1717.33 185.974C1719 187.708 1726.26 209.506 1733.45 234.417C1740.66 259.329 1751.19 294.999 1756.87 313.68L1767.18 347.65H1785.59C1795.72 347.65 1804 346.786 1804 345.727C1804 343.117 1865.81 108.103 1868.2 101.626C1869.57 97.9119 1863.88 96.479 1847.78 96.479H1825.46L1806.25 175.742C1795.69 219.335 1785.97 257.784 1784.66 261.181C1783.36 264.578 1774.08 238.638 1764.06 203.536C1754.04 168.433 1742.98 129.885 1739.48 117.87L1733.14 96.022L1715.84 97.2819L1698.55 98.5378L1675.59 179.613C1662.96 224.202 1651.65 261.618 1650.45 262.758C1649.25 263.899 1639.12 226.952 1627.94 180.654L1607.63 96.479H1585.88H1564.14L1567.69 109.861ZM1903.53 222.065V347.65H1986.71H2069.89L2068.62 330.151L2067.34 312.651L2006.17 311.51L1945 310.374V275.482V240.594H1996.84H2048.68V222.065V203.536H1996.84H1945V166.478V129.419H2007.21H2069.42V112.949V96.479H1986.48H1903.53V222.065ZM2119.18 222.065V347.65H2200.05H2280.92V329.121V310.592H2220.79H2160.65V203.536V96.479H2139.92H2119.18V222.065ZM2322.39 222.065V347.65H2405.57H2488.76L2487.48 330.151L2486.2 312.651L2425.03 311.51L2363.86 310.374V203.424V96.479H2343.13H2322.39V222.065ZM103.678 205.397V297.848L192.717 350.541C241.686 379.524 281.81 404.258 281.88 405.506C282.059 408.705 221.83 442.354 215.925 442.354C213.245 442.354 172.898 420.58 126.259 393.973L41.463 345.591L42.5039 244.913L43.5449 144.234L70.5012 128.814C85.3272 120.336 98.8551 113.295 100.568 113.172C102.281 113.048 103.678 154.553 103.678 205.397ZM219.354 176.771L285.994 213.829L286.073 284.709L286.152 355.589L235.35 326.157C207.41 309.97 176.149 291.845 165.885 285.879L147.223 275.025L146.083 205.965C145.398 164.295 146.485 137.457 148.828 138.305C150.964 139.079 182.702 156.39 219.354 176.771ZM573.071 416.619C573.901 420.963 578.96 424.344 585.82 425.126L597.187 426.432V463.214C597.187 497.254 597.805 500 605.481 500C613.162 500 613.775 497.254 613.775 462.942V425.884H626.217C635.892 425.884 638.658 424.056 638.658 417.649C638.658 410.093 635.892 409.414 605.178 409.414C575.53 409.414 571.852 410.237 573.071 416.619ZM680.129 454.707V500H709.159C732.201 500 738.189 498.724 738.189 493.824C738.189 489.158 733.121 487.647 717.454 487.647C697.178 487.647 696.718 487.371 696.718 475.295C696.718 463.63 697.639 462.942 713.306 462.942C727.129 462.942 729.895 461.571 729.895 454.707C729.895 447.843 727.129 446.472 713.306 446.472C698.377 446.472 696.718 445.442 696.718 436.178C696.718 426.572 698.099 425.884 717.454 425.884C735.423 425.884 738.189 424.784 738.189 417.649C738.189 410.196 735.423 409.414 709.159 409.414H680.129V454.707ZM790.588 417.949C780.66 425.699 779.661 429.096 779.661 455.007C779.661 489.788 787.121 500 812.535 500C825.192 500 830.741 497.583 837.418 489.15C842.145 483.184 846.015 476.699 846.015 474.739C846.015 467.821 831.35 471.288 826.241 479.412C820.211 489.002 807.679 490.18 800.687 481.817C797.813 478.379 796.328 466.133 797.07 451.965C798.277 428.828 798.766 427.893 810.407 426.576C818.229 425.69 823.79 427.506 826.166 431.723C831.815 441.741 845.762 440.217 843.037 429.874C837.754 409.825 809.279 403.348 790.588 417.949ZM887.486 454.707C887.486 497.254 887.988 500 895.78 500C902.847 500 904.074 497.254 904.074 481.471V462.942H920.663H937.251V481.471C937.251 497.254 938.479 500 945.546 500C953.338 500 953.84 497.254 953.84 454.707C953.84 412.16 953.338 409.414 945.546 409.414C938.479 409.414 937.251 412.16 937.251 427.943V446.472H920.663H904.074V427.943C904.074 412.16 902.847 409.414 895.78 409.414C887.988 409.414 887.486 412.16 887.486 454.707ZM1003.61 454.707C1003.61 491.617 1004.73 500 1009.64 500C1014.26 500 1015.97 492.984 1016.9 470.148L1018.12 440.295L1036.7 470.148C1048.44 489.014 1057.98 500 1062.62 500C1069.2 500 1069.96 495.281 1069.96 454.406C1069.96 413.206 1069.26 408.94 1062.7 410.179C1056.97 411.258 1055.01 417.056 1053.37 437.742L1051.3 463.938L1033.84 436.676C1008.15 396.575 1003.61 399.289 1003.61 454.707ZM1133.12 412.168C1123.75 415.911 1115.58 437.306 1115.58 458.063C1115.58 485.951 1126.79 500 1149.06 500C1174.47 500 1181.93 489.788 1181.93 455.007C1181.93 429.096 1180.93 425.699 1171 417.949C1160.69 409.887 1144.87 407.474 1133.12 412.168ZM1227.55 454.707V500H1256.58C1279.62 500 1285.61 498.724 1285.61 493.824C1285.61 489.158 1280.54 487.647 1264.87 487.647H1244.14V448.53C1244.14 412.16 1243.56 409.414 1235.84 409.414C1228.05 409.414 1227.55 412.16 1227.55 454.707ZM1332.2 417.632C1315.11 433.44 1314.72 479.128 1331.56 492.794C1343.62 502.582 1366.48 502.063 1376.85 491.765C1383.54 485.115 1385.14 478.041 1385.14 455.007C1385.14 429.096 1384.14 425.699 1374.21 417.949C1360.41 407.165 1343.65 407.038 1332.2 417.632ZM1439 419.761C1430.66 428.581 1429.25 434.168 1429.47 457.606C1429.69 480.915 1431.15 486.235 1439 492.551C1451.49 502.586 1477.11 502.335 1486.46 492.086C1490.42 487.73 1494.69 476.612 1495.94 467.381L1498.2 450.589H1479C1464.69 450.589 1459.79 452.166 1459.79 456.766C1459.79 460.607 1463.7 462.942 1470.16 462.942C1482.06 462.942 1483.85 471.408 1474.01 481.179C1460.78 494.31 1447.54 486.832 1444.61 464.564C1441.66 442.181 1448.67 425.884 1461.25 425.884C1466.73 425.884 1473.54 428.663 1476.38 432.06C1479.22 435.457 1485.11 438.237 1489.48 438.237C1496.41 438.237 1496.78 437.071 1492.44 428.972C1480.6 406.918 1455.29 402.554 1439 419.761ZM1530.29 411.592C1530.29 412.786 1535.89 424.776 1542.73 438.237C1551.1 454.686 1555.17 468.818 1555.17 481.352C1555.17 497.254 1556.39 500 1563.47 500C1570.54 500 1571.76 497.254 1571.76 481.352C1571.76 468.818 1575.84 454.686 1584.2 438.237C1598.86 409.414 1598.86 409.414 1588.98 409.414C1584.05 409.414 1578.65 415.289 1573.84 425.884C1569.72 434.943 1565.06 442.354 1563.47 442.354C1561.88 442.354 1557.21 434.943 1553.1 425.884C1548.29 415.289 1542.89 409.414 1537.96 409.414C1533.74 409.414 1530.29 410.394 1530.29 411.592ZM1683.73 417.649C1683.73 424.056 1686.5 425.884 1696.18 425.884H1708.62V462.942C1708.62 497.254 1709.23 500 1716.91 500C1724.59 500 1725.21 497.254 1725.21 462.942V425.884H1737.65C1747.32 425.884 1750.09 424.056 1750.09 417.649C1750.09 410.101 1747.32 409.414 1716.91 409.414C1686.5 409.414 1683.73 410.101 1683.73 417.649ZM1795.81 417.546C1785.12 428.165 1781.74 442.539 1784.42 466.112C1787.01 488.915 1798.31 500 1818.98 500C1841.94 500 1849.62 488.726 1849.62 455.007C1849.62 429.096 1848.62 425.699 1838.69 417.949C1824.91 407.182 1806.42 407.009 1795.81 417.546ZM1904.69 417.468C1887.32 433.53 1887.33 481.681 1904.7 493.762C1917.36 502.565 1939.21 501.635 1949.05 491.868C1958.37 482.612 1963.63 465.915 1960.1 456.774C1956.75 448.123 1924.27 448.115 1924.27 456.766C1924.27 460.607 1928.18 462.942 1934.64 462.942C1946.54 462.942 1948.33 471.408 1938.49 481.179C1924.04 495.516 1907.68 483.344 1907.68 458.26C1907.68 449.214 1909.61 438.228 1911.97 433.847C1917.09 424.36 1935.91 423.133 1939.36 432.06C1942.3 439.686 1957.45 440.287 1957.45 432.777C1957.45 423.195 1938.79 409.414 1925.82 409.414C1918.99 409.414 1909.47 413.037 1904.69 417.468ZM2003.06 454.707V500H2034.17C2059.05 500 2065.27 498.765 2065.27 493.824C2065.27 489.08 2059.97 487.647 2042.46 487.647C2019.88 487.647 2019.65 487.524 2019.65 475.295C2019.65 463.399 2020.35 462.942 2038.31 462.942C2054.21 462.942 2056.98 461.723 2056.98 454.707C2056.98 447.69 2054.21 446.472 2038.31 446.472C2021.28 446.472 2019.65 445.595 2019.65 436.392C2019.65 427.14 2021.43 426.213 2041.39 425.069C2058.18 424.109 2063.43 422.19 2064.5 416.619C2065.71 410.27 2062.14 409.414 2034.47 409.414H2003.06V454.707ZM2099.22 416.619C2100.04 420.963 2105.1 424.344 2111.96 425.126L2123.33 426.432V463.214C2123.33 497.254 2123.95 500 2131.63 500C2139.31 500 2139.92 497.254 2139.92 462.942V425.884H2152.36C2162.04 425.884 2164.8 424.056 2164.8 417.649C2164.8 410.093 2162.04 409.414 2131.32 409.414C2101.67 409.414 2098 410.237 2099.22 416.619ZM2206.27 454.406C2206.27 497.254 2206.77 500 2214.57 500C2221.63 500 2222.86 497.254 2222.86 481.471V462.942H2239.45H2256.04V481.471C2256.04 497.356 2257.24 500 2264.47 500C2272.5 500 2272.85 497.884 2271.73 455.786C2270.71 417.496 2269.58 411.386 2263.3 410.192C2257.24 409.039 2256.04 411.925 2256.04 427.642V446.472H2239.69C2223.43 446.472 2223.33 446.381 2222.06 429.009C2221.13 416.269 2218.83 411.172 2213.53 410.175C2206.97 408.94 2206.27 413.206 2206.27 454.406ZM2318.25 454.526V500H2349.35C2374.23 500 2380.45 498.765 2380.45 493.824C2380.45 489.08 2375.15 487.647 2357.64 487.647C2335.07 487.647 2334.83 487.524 2334.83 475.295C2334.83 463.399 2335.53 462.942 2353.5 462.942C2369.39 462.942 2372.16 461.723 2372.16 454.707C2372.16 447.69 2369.39 446.472 2353.5 446.472C2336.46 446.472 2334.83 445.595 2334.83 436.392C2334.83 427.136 2336.61 426.213 2356.61 425.069C2372.64 424.155 2378.38 422.195 2378.38 417.649C2378.38 412.839 2371.73 411.205 2348.31 410.262L2318.25 409.051V454.526ZM2421.92 454.707C2421.92 497.254 2422.43 500 2430.22 500C2437.29 500 2438.51 497.254 2438.51 481.471C2438.51 466.372 2439.89 462.942 2445.98 462.942C2450.72 462.942 2456.76 469.703 2462.52 481.471C2468.8 494.314 2474.14 500 2479.93 500C2490.36 500 2490.33 498.567 2479.41 479.285L2470.55 463.621L2479.41 452.434C2490.82 438.027 2490.58 431.912 2478.1 419.522C2469.74 411.221 2463.81 409.414 2444.92 409.414H2421.92V454.707ZM1164.52 451.965C1165.86 477.51 1161.28 487.647 1148.39 487.647C1138.28 487.647 1132.17 475.472 1132.17 455.316C1132.17 430.347 1135.4 425.25 1150.32 426.691C1163.03 427.918 1163.29 428.383 1164.52 451.965ZM1368.96 437.207C1377.56 459.598 1368.08 487.647 1351.92 487.647C1337.79 487.647 1329.74 452.277 1339.67 433.847C1346.33 421.495 1363.69 423.487 1368.96 437.207ZM1832.21 451.965C1833.55 477.51 1828.96 487.647 1816.08 487.647C1805.73 487.647 1799.85 475.369 1799.85 453.743C1799.85 432.933 1805.91 425.036 1820.56 426.736C1830.16 427.852 1831.05 429.779 1832.21 451.965ZM2469.24 432.583C2472.98 442.239 2464.26 450.589 2450.45 450.589C2439.95 450.589 2438.51 449.099 2438.51 438.237C2438.51 426.938 2439.72 425.884 2452.58 425.884C2461.75 425.884 2467.55 428.219 2469.24 432.583Z" fill="white"/>
</svg>
