<svg width="920" height="501" viewBox="0 0 920 501" fill="none" xmlns="http://www.w3.org/2000/svg">
<path fill-rule="evenodd" clip-rule="evenodd" d="M127.971 1.00681C113.064 2.4997 98.2489 6.94687 82.4632 14.6672C54.1728 28.5027 28.9947 51.8594 17.3504 75.0689C11.6273 86.4768 6.62828 100.469 4.32827 111.519C1.04026 127.319 1.24405 118.091 1.04599 260.105C0.945812 331.967 0.995614 390.761 1.15704 390.761C1.31789 390.761 16.0716 380.162 33.9421 367.208C51.8132 354.253 76.2781 336.544 88.3088 327.854L110.182 312.053L110.214 229.051C110.233 178.708 110.468 143.94 110.81 140.687C112.088 128.556 115.401 120.139 121.4 113.78C127.621 107.184 135.433 104.162 144.858 104.705C159.381 105.542 168.567 114.516 172.499 131.706C173.331 135.346 173.44 148.378 173.605 263.254C173.705 333.383 173.975 390.757 174.205 390.752C174.564 390.743 188.181 380.233 195.231 374.523C196.49 373.503 214.393 359.431 235.015 343.251C255.636 327.072 275.428 311.522 278.997 308.697L285.485 303.559L285.293 218.508L285.102 133.456L286.397 128.877C290.642 113.863 300.355 105.636 314.917 104.719C333.212 103.568 346.821 115.242 349.414 134.315C349.76 136.857 350.144 163.592 350.354 199.858C350.555 234.227 350.964 263.494 351.288 266.545C354.39 295.766 369.461 326.808 391.546 349.466C410.13 368.53 431.477 380.979 457.003 387.638C479.605 393.535 506.788 393.981 529.609 388.829C557.1 382.623 583.804 366.617 602.89 344.905C617.612 328.158 628.607 309.144 633.143 292.591L634.398 288.011L696.78 287.866L759.163 287.72L764.511 278.134C767.452 272.862 770.289 267.776 770.813 266.831C791.409 229.748 818.901 180.399 819.844 178.821C819.985 178.585 754.55 178.392 674.432 178.392H528.763L528.495 215.17C528.206 254.864 528.089 256.541 524.97 265.908C522.217 274.172 516.791 281.317 510.539 284.911C506.027 287.504 499.099 289.059 493.506 288.734C475.959 287.712 463.788 273.944 461.135 252.116C460.723 248.724 460.311 224.09 460.001 184.116C459.536 124.495 459.455 121.128 458.338 115.139C453.368 88.4929 439.801 62.7286 420.701 43.6605C411.279 34.255 399.5 26.0573 384.466 18.4417C367.607 9.9023 353.298 5.21471 336.048 2.58041C325.857 1.02399 307.831 0.88546 298.379 2.29076C276.448 5.5513 256.233 13.1102 236.244 25.5249C232.67 27.7448 229.657 29.5611 229.549 29.5611C229.441 29.5611 226.204 27.5021 222.356 24.9851C195.231 7.24568 158.6 -2.06082 127.971 1.00681ZM659.468 1.88377C658.523 1.99425 655.303 2.36232 652.312 2.70291C628.508 5.41106 604.466 15.1927 584.571 30.2652C578.939 34.532 568.238 44.8409 563.316 50.7408C547.466 69.7425 536.151 94.3911 531.258 120.577C530.036 127.113 528.669 138.98 528.669 143.041V146.336H580.629H632.589L633.542 141.731C635.807 130.773 642.825 121.792 652.885 116.974C659.456 113.828 665.856 112.196 674.637 111.43C678.685 111.077 715.178 110.854 769.398 110.851L857.577 110.845L862.213 102.688C864.764 98.2023 878.727 73.702 893.243 48.2433C907.758 22.7847 919.635 1.85572 919.635 1.73379C919.635 1.45846 661.838 1.60786 659.468 1.88377ZM253.648 403.986C224.146 407.094 207.744 424.416 207.903 452.297C207.957 461.599 209.342 467.74 213.198 475.763C218.248 486.268 224.268 492.386 232.862 495.741C239.834 498.464 244.818 499.122 258.484 499.121C269.169 499.12 289.878 497.904 296.407 496.892L298.554 496.559V469.42V442.28H278.233H257.911V450.866V459.453H263.35H268.788V464.634V469.815L266.641 470.78C265.071 471.487 262.88 471.748 258.484 471.753C251.348 471.761 248.583 470.761 244.531 466.709C238.64 460.818 238.063 449.795 243.196 441.214C247.925 433.309 255.017 430.053 267.314 430.143C274.31 430.194 281.771 431.769 287.887 434.487L291.243 435.978L290.906 432.976C290.72 431.324 290.285 425.336 289.939 419.669C289.594 414.002 289.095 408.824 288.832 408.163C288.441 407.181 287.265 406.732 282.434 405.721C272.045 403.545 263.008 403.001 253.648 403.986ZM673.394 404.177C663.266 405.96 655.908 409.688 648.932 416.569C639.578 425.796 634.709 436.356 634.148 448.627C633.77 456.913 635.056 464.275 638.407 473.007C638.643 473.622 635.756 473.763 622.894 473.763H607.091V438.845V403.927H591.635H576.18V427.589C576.18 440.603 576.009 461.726 575.8 474.528L575.422 497.805H609.074H642.728L642.362 489.076C642.014 480.766 642.043 480.415 642.962 481.777C644.768 484.454 651.539 490.643 654.756 492.558C659.059 495.117 664.809 497.408 670.977 499.02C678.089 500.878 689.822 500.901 697.137 499.072C710.34 495.77 720.207 489.408 725.732 480.632C733.273 468.656 736.279 451.918 733.053 439.858C729.946 428.239 721.605 416.481 712.328 410.643C708.002 407.921 705.865 407.014 699.757 405.309C693.146 403.463 680.531 402.922 673.394 404.177ZM0.892578 450.859V497.805H14.6239H28.3553L28.5052 476.088L28.6552 454.371L36.0263 476.088L43.3974 497.805H54.3542H65.3105L72.539 475.91L79.7682 454.014L79.8277 475.91L79.8873 497.805H107.541H135.193L140.22 486.5C142.984 480.282 145.416 475.045 145.624 474.864C145.832 474.682 152.019 474.682 159.373 474.864L172.744 475.194L177.744 486.357L182.744 497.519L201.438 497.67C211.719 497.753 220.131 497.727 220.131 497.612C220.131 497.438 209.013 473.207 203.54 461.456C196.247 445.795 179.633 409.856 178.467 407.219L177.012 403.927H160.023H143.033L140.131 410.081C138.535 413.466 135.316 420.356 132.978 425.393C130.64 430.431 124.113 444.458 118.475 456.567L108.222 478.581L108.075 441.255L107.928 403.927H88.2218C69.9482 403.927 68.4943 404 68.2207 404.929C66.9819 409.129 57.7533 440.756 56.5701 444.856C55.7521 447.689 54.9244 450.196 54.7309 450.426C54.5374 450.656 51.1492 440.352 47.2018 427.529L40.0247 404.213L20.4586 404.063L0.892578 403.912V450.859ZM305.994 430.688C305.994 445.406 305.824 466.529 305.615 477.627L305.237 497.805H319.634H334.031L334.181 475.179L334.33 452.554L348.355 475.163L362.379 497.773L393.557 497.646L424.736 497.519L429.932 486.07L435.128 474.622L445.692 474.474C451.503 474.393 457.791 474.522 459.666 474.76L463.076 475.194L467.966 486.49L472.857 497.786L504.197 497.796L535.538 497.805V483.781V469.756H546.711H557.885L557.731 457.592L557.576 445.428L546.557 445.272L535.538 445.117V436.829V428.542H552.997H570.456V416.234V403.927H537.259H504.062L503.915 444.122L503.768 484.318L494.946 465.159C490.094 454.622 485.236 444.069 484.15 441.707C483.065 439.346 481.174 435.264 479.95 432.635C478.725 430.006 477.723 427.784 477.723 427.697C477.723 427.611 476.341 424.61 474.652 421.028C470.25 411.695 467.948 406.692 467.375 405.215L466.875 403.927H449.78H432.685L431.951 405.501C431.339 406.812 413.899 445.462 401.665 472.618L398.442 479.774L398.295 441.841L398.148 403.908L383.412 404.061L368.676 404.213L368.857 427.969L369.038 451.725L366.345 447.145C364.864 444.627 360.303 436.77 356.208 429.686C352.114 422.603 347.073 413.909 345.006 410.367L341.247 403.927H323.621H305.995L305.994 430.688ZM729.813 404.929C729.977 405.48 732.343 415.719 735.069 427.683C737.794 439.647 742.292 459.352 745.064 471.473C747.837 483.595 750.283 494.478 750.501 495.658L750.897 497.805L768.149 497.803L785.401 497.802L789.059 479.915C791.071 470.077 792.874 461.607 793.066 461.092C793.258 460.577 795.081 468.627 797.117 478.98L800.818 497.805H818.687C835.213 497.805 836.578 497.729 836.846 496.803C837.005 496.253 837.913 492.582 838.865 488.646C839.816 484.711 844.855 464.274 850.062 443.232C855.27 422.189 859.53 404.733 859.53 404.44C859.53 404.122 853.623 403.97 844.838 404.061L830.146 404.213L824.815 428.222C821.882 441.426 819.413 452.439 819.328 452.696C819.242 452.953 817.112 442.085 814.594 428.546L810.016 403.929L793.87 403.928L777.726 403.927L777.384 405.788C777.196 406.811 775.31 418.062 773.192 430.791L769.343 453.934L764.591 431.077C761.978 418.506 759.592 407.255 759.29 406.074L758.74 403.927H744.126C730.476 403.927 729.533 403.993 729.813 404.929ZM455.592 441.421L459.865 452.297L450.682 452.455C445.631 452.542 441.377 452.491 441.229 452.344C441.081 452.195 443.099 447.035 445.713 440.876C448.328 434.717 450.659 429.873 450.893 430.112C451.127 430.35 453.241 435.439 455.592 441.421ZM690.848 431.599C698.907 436.322 702.343 448.564 698.922 460.366C696.518 468.662 689.812 473.795 682.379 473.028C672.624 472.021 666.605 462.608 667.34 449.507C667.7 443.076 669.226 438.806 672.488 435.101C675.946 431.172 679.629 429.562 684.469 429.862C687.252 430.036 688.984 430.507 690.848 431.599ZM165.623 442.137L170.199 453.156H160.486C154.993 453.156 150.855 452.933 150.964 452.642C153.15 446.757 160.383 430.396 160.663 430.701C160.874 430.93 163.106 436.076 165.623 442.137ZM846.602 484.278C843.75 485.568 842.358 487.802 842.358 491.089C842.358 493.627 842.588 494.166 844.402 495.877C846.215 497.587 846.804 497.805 849.611 497.805C852.447 497.805 852.978 497.603 854.722 495.859C856.428 494.153 856.668 493.551 856.668 490.985C856.668 488.48 856.4 487.764 854.807 486.027C852.638 483.659 849.466 482.983 846.602 484.278ZM852.973 487.189C853.996 488.211 854.379 489.216 854.379 490.876C854.379 493.06 853.594 494.349 852.768 493.523C852.554 493.309 852.421 492.01 852.475 490.637C852.592 487.603 851.775 486.793 848.838 487.035L846.651 487.215V490.928C846.651 494.009 846.821 494.674 847.653 494.834C848.397 494.977 848.654 494.649 848.654 493.554C848.654 491.642 850.13 491.611 850.607 493.512C850.804 494.299 851.283 494.947 851.67 494.951C852.126 494.957 852.071 495.157 851.516 495.515C849.958 496.523 848.018 496.112 846.321 494.415C842.967 491.061 844.919 485.784 849.513 485.784C850.932 485.784 852.004 486.219 852.973 487.189ZM850.241 489.326C849.887 490.388 848.654 490.563 848.654 489.552C848.654 489.054 849.062 488.646 849.561 488.646C850.059 488.646 850.365 488.952 850.241 489.326Z" fill="white"/>
</svg>
