<svg width="2461" height="501" viewBox="0 0 2461 501" fill="none" xmlns="http://www.w3.org/2000/svg">
<path fill-rule="evenodd" clip-rule="evenodd" d="M738.627 249.58V498.731H789.088H839.549V334.733V170.735H855.318C870.519 170.735 871.087 169.265 871.087 129.735C871.087 90.2051 870.519 88.7355 855.318 88.7355C839.997 88.7355 839.549 87.4739 839.549 44.5821V0.428711H789.088H738.627V249.58ZM1177.6 5.77757C1175.78 8.72323 1174.9 120.128 1175.65 253.352L1177.01 495.577L1229.04 497.406L1281.08 499.242V249.832V0.428711H1230.99C1203.44 0.428711 1179.42 2.83822 1177.6 5.77757ZM1462.7 46.159L1460.85 91.8893L1389.89 93.6743L1318.93 95.4594V133.097V170.735H1391.47H1464V334.733V498.731H1514.46H1564.93V334.733V170.735H1581C1596.7 170.735 1597.03 169.845 1595.19 131.312C1593.54 96.7209 1591.76 91.8893 1580.69 91.8893C1569.41 91.8893 1567.88 87.0639 1566.22 46.159L1564.37 0.428711H1514.46H1464.56L1462.7 46.159ZM2202 249.58V498.731H2255.61H2309.23V334.733V170.735H2334.46H2359.69V334.733V498.731H2410.15H2460.61L2460.51 323.694C2460.45 197.29 2458.26 144.463 2452.63 133.564C2439.48 108.087 2406.43 95.0431 2355.06 95.0431H2309.23V47.7359V0.428711H2255.61H2202V249.58ZM0.634766 293.361V498.731H54.2496H107.864V334.733V170.735H129.941H152.018V334.733V498.731H205.633H259.247V334.733V170.735H281.217H303.186L304.87 333.156L306.555 495.577L358.592 497.406L410.63 499.242V325.82C410.63 204.613 408.36 147.415 403.08 135.834C398.93 126.72 384.025 113.102 369.965 105.577C345.826 92.6525 334.813 91.782 172.518 89.9402L0.634766 87.9912V293.361ZM515.867 97.8752C492.295 106.277 472.224 120.293 456.663 139.196C450.987 146.097 448.823 189.096 448.678 298.004L448.476 447.349L471.221 466.102C515.463 502.566 594.945 511.397 647.955 485.737C685.214 467.698 700.724 442.253 700.756 399.134L700.781 365.76L648.743 367.596L596.705 369.425L594.75 393.078C592.896 415.445 591.609 416.732 571.096 416.732H549.398V375.732V334.733H625.09H700.781V243.758C700.781 155.521 700.295 152.203 684.747 133.728C653.039 96.0397 570.27 78.473 515.867 97.8752ZM902.625 129.035V170.735H968.855C1023.52 170.735 1035.08 172.387 1035.08 180.196C1035.08 187.639 1026.3 189.657 993.884 189.657C945.731 189.657 916.426 200.216 897.377 224.438C884.591 240.686 883.702 248.659 883.702 346.793C883.702 496.574 885.985 498.731 1044.34 498.731H1142.31L1142.22 323.694C1142.12 131.173 1141.31 126.461 1104.46 104.908C1085.68 93.9329 1068.97 91.6559 992.509 89.669L902.625 87.3352V129.035ZM1694.99 96.5128C1681.04 100.209 1660.01 113.493 1646.1 127.401L1621.69 151.812V290.895C1621.69 451.367 1623.28 457.53 1670.41 480.742C1694.43 492.569 1710.76 495.577 1751 495.577C1834.49 495.577 1873.92 465.742 1873.97 402.54L1874 372.579H1823.54H1773.08V394.655C1773.08 416.208 1772.48 416.732 1747.85 416.732H1722.62V375.732V334.733H1798.31H1874V242.641V150.55L1853.16 129.716C1818.51 95.062 1752.69 81.2483 1694.99 96.5128ZM1969.57 104.896C1913.67 133.274 1911.9 139.095 1911.87 294.377C1911.84 422.037 1912.43 428.338 1926.04 448.365C1948.83 481.896 1982.18 495.577 2041.15 495.577C2122.44 495.577 2163.02 466.695 2168.99 404.583L2172.06 372.579H2117.64H2063.23V394.655C2063.23 416.208 2062.63 416.732 2038 416.732H2012.77V293.733V170.735H2038H2063.23V195.965V221.196H2116.84H2170.46V192.496C2170.46 152.316 2157.7 131.943 2119.54 111.172C2070.27 84.358 2014.62 82.0242 1969.57 104.896ZM594.592 211.747L596.705 252.759L573.052 252.746L549.398 252.734V211.734V170.735H570.939H592.473L594.592 211.747ZM1773.08 211.734V252.734H1747.85H1722.62V211.734V170.735H1747.85H1773.08V211.734ZM1035.08 344.194V416.732H1013.01H990.932V344.194V271.657H1013.01H1035.08V344.194Z" fill="white"/>
</svg>
