<svg width="2427" height="496" viewBox="0 0 2427 496" fill="none" xmlns="http://www.w3.org/2000/svg">
<path d="M104.18 369.512C110.179 371.655 115.321 374.226 119.606 378.511C123.034 381.51 125.605 385.367 127.748 389.223C129.89 393.08 130.747 397.365 130.747 402.507C130.747 408.506 128.605 414.505 124.748 420.075C120.892 425.646 114.464 429.931 105.466 432.502C113.179 434.644 118.321 438.072 121.749 442.357C124.748 446.642 126.462 453.07 126.462 462.068V470.638C126.462 476.209 126.891 480.494 127.319 482.208C128.176 485.636 130.319 487.778 133.318 489.492V492.492H95.6101C94.7531 489.492 93.8961 487.35 93.4676 485.636C92.6106 482.208 92.1821 478.351 92.1821 474.923V463.354C92.1821 455.212 90.0396 450.07 86.6116 447.071C83.1836 444.5 76.7561 443.214 67.3291 443.214H34.3346V492.92H0.911621V366.941H78.8986C89.6111 366.513 98.1811 367.37 104.18 369.512ZM33.9061 387.938V421.789H70.3286C77.6131 421.789 83.1836 420.932 86.6116 419.647C93.0391 417.076 96.4671 412.362 96.4671 405.506C96.4671 397.793 93.4676 392.651 87.0401 390.08C83.6121 388.795 78.4701 387.938 71.1856 387.938H33.9061Z" fill="white"/>
<path d="M265.297 366.085H303.433L360.852 492.064H324.001L313.289 466.354H253.299L242.158 492.064H207.021L265.297 366.085ZM262.726 444.501H304.29L283.722 395.223L262.726 444.501Z" fill="white"/>
<path d="M470.547 379.368C483.831 369.084 500.114 363.942 520.682 363.942C547.677 363.942 567.388 370.798 580.243 384.51C587.099 392.223 590.956 399.936 591.384 407.649H557.533C555.39 401.65 552.819 396.937 549.391 393.937C543.392 388.367 534.394 385.796 522.396 385.796C510.398 385.796 500.971 389.652 493.686 397.365C486.83 405.078 483.402 416.219 483.402 430.36C483.402 444.5 487.259 455.213 494.543 462.069C501.828 468.925 511.255 472.781 522.824 472.781C534.394 472.781 543.392 469.782 549.391 463.783C552.819 460.355 555.39 455.641 557.961 448.785H591.384C588.385 462.497 581.1 473.638 569.102 482.208C557.104 490.778 541.678 495.063 523.253 495.063C500.114 495.063 482.117 489.064 468.833 477.495C455.55 465.925 449.122 450.071 449.122 429.503C447.837 408.078 455.55 391.366 470.547 379.368Z" fill="white"/>
<path d="M811.633 388.794H725.505V415.361H804.777V437.214H725.505V469.352H815.49V492.062H692.51V366.512H811.633V388.794Z" fill="white"/>
<path d="M1073.45 366.085L1094.87 438.073L1099.59 458.212L1104.3 438.501L1122.72 366.085H1158.29L1177.57 438.073L1182.71 458.212L1187.43 438.93L1209.28 366.085H1243.56L1197.71 492.064H1165.57L1146.29 418.362L1140.29 393.937L1134.72 418.362L1115.01 492.064H1083.73L1037.02 366.085H1073.45Z" fill="white"/>
<path d="M1354.97 492.064V366.085H1388.39V414.077H1452.24V366.085H1485.66V492.064H1452.24V435.931H1388.39V492.064H1354.97Z" fill="white"/>
<path d="M1729.05 388.794H1642.92V415.361H1722.2V437.214H1642.92V469.352H1733.34V492.062H1609.93V366.512H1729.05V388.794Z" fill="white"/>
<path d="M1970.73 388.794H1884.6V415.361H1963.44V437.214H1884.6V469.352H1974.58V492.062H1851.17V366.512H1970.73V388.794Z" fill="white"/>
<path d="M2091.13 366.085H2124.99V469.782H2206.4V492.064H2091.13V366.085Z" fill="white"/>
<path d="M2321.24 453.07C2322.1 459.069 2324.24 463.354 2327.24 465.925C2332.81 471.067 2342.66 473.638 2356.38 473.638C2364.52 473.638 2371.37 472.781 2376.09 471.496C2385.94 468.925 2390.66 463.783 2390.66 456.927C2390.66 452.642 2388.08 449.642 2383.37 447.071C2378.66 444.929 2370.94 442.786 2360.66 441.072L2343.09 438.073C2325.95 435.073 2313.95 432.074 2307.53 428.646C2296.39 422.647 2291.24 413.648 2291.24 401.222C2291.24 390.081 2296.39 380.654 2307.1 372.941C2317.81 365.656 2333.67 361.8 2354.23 361.8C2371.37 361.8 2386.37 365.228 2398.37 372.512C2410.8 379.368 2416.79 389.652 2417.65 402.936H2385.09C2384.66 395.651 2379.94 390.081 2371.8 387.081C2366.23 384.939 2359.38 384.082 2351.66 384.082C2342.66 384.082 2335.38 385.367 2330.24 387.938C2325.1 390.509 2322.1 394.366 2322.1 399.079C2322.1 403.364 2324.67 406.792 2330.24 408.935C2333.67 410.22 2340.95 411.934 2351.66 414.077L2380.37 419.219C2392.8 421.361 2402.23 424.361 2408.22 428.217C2417.65 434.216 2422.79 442.786 2422.79 453.927C2422.79 465.497 2417.22 474.924 2405.65 482.637C2394.08 490.35 2378.23 494.206 2357.23 494.206C2335.81 494.206 2319.1 490.35 2307.1 483.065C2294.67 475.352 2288.67 465.068 2288.67 452.213H2321.24V453.07Z" fill="white"/>
<path d="M509.97 7.0003V317.663H365.994V108.126L307.718 317.663H205.306L144.031 112.84V317.663H0.0546875V7.0003H213.019C217.733 21.1408 224.589 42.9943 233.587 72.9893L256.298 152.69L294.863 6.57178H509.97V7.0003Z" fill="white"/>
<path d="M538.679 7.00049H813.776V68.7045H703.652V127.837H806.92V186.97H703.652V255.53H817.633V317.663H538.679V7.00049Z" fill="white"/>
<path d="M1200.28 7.00049V68.7045H1102.16V317.663H936.756V68.7045H839.058V7.00049H1200.28Z" fill="white"/>
<path d="M1605.64 7.00049V317.663H1440.67V186.97H1391.39V317.663H1225.99V7.00049H1391.39V117.982H1440.67V7.00049H1605.64Z" fill="white"/>
<path d="M2018.29 188.684C2018.29 219.536 2017.86 237.105 2017 241.39C2013.58 262.386 2002.86 278.669 1985.72 290.667C1952.73 312.949 1900.02 324.09 1827.18 324.09C1755.62 324.09 1702.91 313.378 1669.92 291.524C1651.49 279.526 1640.78 262.815 1636.92 241.818C1636.07 237.962 1635.64 220.393 1635.64 188.684V135.55C1635.64 104.698 1636.07 87.1295 1636.92 82.8445C1640.78 61.848 1651.07 45.565 1668.63 33.567C1701.2 11.285 1753.91 0.144043 1826.75 0.144043C1898.31 0.144043 1950.59 10.8566 1983.58 32.7101C2002.01 44.7081 2012.72 61.4196 2016.58 81.9876C2017.43 85.8441 2017.86 103.413 2017.86 135.122V188.684H2018.29ZM1853.32 86.7011C1853.32 75.1316 1852.89 68.2755 1852.46 66.133C1849.03 57.1345 1840.89 52.8495 1828.04 52.8495C1814.32 52.8495 1805.75 57.1345 1802.75 65.7045C1801.9 68.2755 1801.04 75.1316 1801.04 86.2726V231.534C1801.04 247.389 1801.04 255.102 1801.04 255.53C1803.61 266.243 1812.18 271.385 1826.75 271.385C1841.32 271.385 1849.89 265.814 1852.89 254.245C1853.32 253.388 1853.32 245.246 1853.32 229.392V86.7011Z" fill="white"/>
<path d="M2044 7.00049H2167.41C2226.97 7.00049 2266.39 7.42896 2286.1 8.71446C2337.52 11.714 2373.09 18.57 2393.23 30.1395C2410.79 39.995 2421.51 53.707 2424.94 71.2755C2425.79 75.5605 2426.22 90.558 2426.22 116.697V225.536C2426.22 246.961 2425.36 260.672 2423.65 267.1C2418.94 284.24 2407.8 296.666 2389.8 303.522C2365.8 312.949 2319.52 318.092 2251.82 318.092H2043.57V7.00049H2044ZM2208.97 60.1345V264.957C2236.4 264.957 2252.68 260.673 2258.68 251.674C2260.39 248.675 2261.25 237.962 2261.25 219.537V98.6995C2261.25 86.7015 2261.25 80.274 2260.82 79.417C2259.11 70.847 2254.39 65.2765 2245.82 62.7055C2239.39 60.9915 2226.97 60.1345 2208.97 60.1345Z" fill="white"/>
</svg>
