<svg width="2452" height="501" viewBox="0 0 2452 501" fill="none" xmlns="http://www.w3.org/2000/svg">
<path d="M105.194 373.446C111.255 375.611 116.45 378.208 120.779 382.537C124.242 385.567 126.839 389.463 129.004 393.359C131.168 397.255 132.034 401.584 132.034 406.779C132.034 412.84 129.87 418.9 125.974 424.528C122.077 430.156 115.584 434.485 106.493 437.082C114.285 439.247 119.48 442.71 122.943 447.039C125.974 451.368 127.705 457.861 127.705 466.952V475.61C127.705 481.238 128.138 485.567 128.571 487.298C129.437 490.762 131.601 492.926 134.632 494.658V497.688H96.5364C95.6706 494.658 94.8048 492.493 94.3719 490.762C93.5061 487.298 93.0732 483.402 93.0732 479.939V468.251C93.0732 460.026 90.9087 454.831 87.4455 451.801C83.9823 449.203 77.4888 447.905 67.9651 447.905H34.6318V498.121H0.865723V370.849H79.6533C90.4758 370.416 99.1338 371.282 105.194 373.446ZM34.1989 392.061V426.26H70.9954C78.3546 426.26 83.9823 425.394 87.4455 424.095C93.939 421.498 97.4022 416.736 97.4022 409.81C97.4022 402.017 94.3719 396.823 87.8784 394.225C84.4152 392.927 79.2205 392.061 71.8612 392.061H34.1989Z" fill="white"/>
<path d="M267.965 369.984H306.493L364.501 497.256H327.272L316.45 471.282H255.844L244.588 497.256H209.091L267.965 369.984ZM265.367 449.204H307.359L286.579 399.421L265.367 449.204Z" fill="white"/>
<path d="M475.322 383.404C488.742 373.014 505.192 367.819 525.971 367.819C553.244 367.819 573.157 374.746 586.144 388.598C593.071 396.391 596.967 404.183 597.4 411.975H563.201C561.036 405.914 558.439 401.152 554.976 398.122C548.915 392.494 539.824 389.897 527.703 389.897C515.582 389.897 506.058 393.793 498.699 401.585C491.772 409.378 488.309 420.633 488.309 434.919C488.309 449.204 492.205 460.027 499.565 466.953C506.924 473.879 516.448 477.776 528.136 477.776C539.824 477.776 548.915 474.745 554.976 468.685C558.439 465.222 561.036 460.46 563.634 453.533H597.4C594.37 467.386 587.01 478.641 574.889 487.299C562.768 495.957 547.184 500.286 528.569 500.286C505.192 500.286 487.011 494.226 473.591 482.537C460.171 470.849 453.677 454.832 453.677 434.053C452.379 412.408 460.171 395.525 475.322 383.404Z" fill="white"/>
<path d="M819.91 392.926H732.897V419.765H812.984V441.843H732.897V474.311H823.806V497.254H699.564V370.415H819.91V392.926Z" fill="white"/>
<path d="M1084.41 369.984L1106.06 442.711L1110.82 463.057L1115.58 443.144L1134.2 369.984H1170.13L1189.61 442.711L1194.8 463.057L1199.56 443.577L1221.64 369.984H1256.27L1209.95 497.256H1177.49L1158 422.797L1151.94 398.122L1146.32 422.797L1126.4 497.256H1094.8L1047.62 369.984H1084.41Z" fill="white"/>
<path d="M1368.83 497.256V369.984H1402.59V418.468H1467.09V369.984H1500.86V497.256H1467.09V440.546H1402.59V497.256H1368.83Z" fill="white"/>
<path d="M1746.75 392.926H1659.73V419.765H1739.82V441.843H1659.73V474.311H1751.08V497.254H1626.4V370.415H1746.75V392.926Z" fill="white"/>
<path d="M1990.9 392.926H1903.89V419.765H1983.54V441.843H1903.89V474.311H1994.8V497.254H1870.12V370.415H1990.9V392.926Z" fill="white"/>
<path d="M2112.55 369.984H2146.75V474.745H2229V497.256H2112.55V369.984Z" fill="white"/>
<path d="M2345.01 457.862C2345.88 463.923 2348.04 468.252 2351.07 470.849C2356.7 476.044 2366.66 478.641 2380.51 478.641C2388.74 478.641 2395.66 477.775 2400.42 476.477C2410.38 473.879 2415.14 468.685 2415.14 461.758C2415.14 457.429 2412.55 454.399 2407.78 451.802C2403.02 449.637 2395.23 447.473 2384.84 445.741L2367.09 442.711C2349.77 439.68 2337.65 436.65 2331.16 433.187C2319.9 427.126 2314.71 418.035 2314.71 405.481C2314.71 394.226 2319.9 384.702 2330.73 376.91C2341.55 369.551 2357.57 365.655 2378.35 365.655C2395.66 365.655 2410.81 369.118 2422.93 376.477C2435.49 383.403 2441.55 393.793 2442.42 407.213H2409.52C2409.08 399.854 2404.32 394.226 2396.1 391.196C2390.47 389.031 2383.54 388.165 2375.75 388.165C2366.66 388.165 2359.3 389.464 2354.1 392.061C2348.91 394.659 2345.88 398.555 2345.88 403.317C2345.88 407.646 2348.48 411.109 2354.1 413.274C2357.57 414.572 2364.93 416.304 2375.75 418.468L2404.75 423.663C2417.31 425.828 2426.83 428.858 2432.89 432.754C2442.42 438.815 2447.61 447.473 2447.61 458.728C2447.61 470.416 2441.98 479.94 2430.29 487.732C2418.61 495.524 2402.59 499.42 2381.38 499.42C2359.73 499.42 2342.85 495.524 2330.73 488.165C2318.17 480.373 2312.11 469.983 2312.11 456.996H2345.01V457.862Z" fill="white"/>
<path d="M515.15 7.21277V321.065H369.696V109.377L310.822 321.065H207.359L145.454 114.139V321.065H0V7.21277H215.151C219.913 21.4984 226.839 43.5763 235.93 73.8792L258.874 154.398L297.835 6.77985H515.15V7.21277Z" fill="white"/>
<path d="M544.154 7.21295H822.075V69.5504H710.82V129.29H815.149V189.031H710.82V258.294H825.971V321.065H544.154V7.21295Z" fill="white"/>
<path d="M1212.55 7.21295V69.5504H1113.42V321.065H946.317V69.5504H847.616V7.21295H1212.55Z" fill="white"/>
<path d="M1622.07 7.21295V321.065H1455.41V189.031H1405.62V321.065H1238.52V7.21295H1405.62V119.334H1455.41V7.21295H1622.07Z" fill="white"/>
<path d="M2038.95 190.762C2038.95 221.93 2038.52 239.679 2037.66 244.008C2034.19 265.22 2023.37 281.67 2006.05 293.792C1972.72 316.302 1919.47 327.558 1845.88 327.558C1773.59 327.558 1720.34 316.735 1687.01 294.657C1668.39 282.536 1657.57 265.653 1653.67 244.441C1652.81 240.545 1652.38 222.796 1652.38 190.762V137.082C1652.38 105.914 1652.81 88.1646 1653.67 83.8356C1657.57 62.6235 1667.96 46.1734 1685.71 34.0522C1718.61 11.5415 1771.86 0.286133 1845.45 0.286133C1917.74 0.286133 1970.56 11.1086 2003.89 33.1865C2022.5 45.3077 2033.33 62.1907 2037.22 82.9699C2038.09 86.866 2038.52 104.615 2038.52 136.649V190.762H2038.95ZM1872.29 87.7318C1872.29 76.0435 1871.85 69.1171 1871.42 66.9526C1867.96 57.8617 1859.73 53.5327 1846.75 53.5327C1832.89 53.5327 1824.24 57.8616 1821.21 66.5196C1820.34 69.117 1819.47 76.0435 1819.47 87.2989V234.052C1819.47 250.069 1819.47 257.861 1819.47 258.294C1822.07 269.116 1830.73 274.311 1845.45 274.311C1860.17 274.311 1868.82 268.683 1871.85 256.995C1872.29 256.129 1872.29 247.904 1872.29 231.887V87.7318Z" fill="white"/>
<path d="M2064.93 7.21295H2189.6C2249.78 7.21295 2289.6 7.64582 2309.52 8.94452C2361.46 11.9748 2397.39 18.9012 2417.74 30.5895C2435.49 40.5461 2446.31 54.3989 2449.77 72.1478C2450.64 76.4768 2451.07 91.6283 2451.07 118.035V227.991C2451.07 249.636 2450.21 263.489 2448.48 269.983C2443.71 287.298 2432.46 299.853 2414.28 306.779C2390.03 316.303 2343.28 321.498 2274.88 321.498H2064.49V7.21295H2064.93ZM2231.59 60.8924V267.818C2259.3 267.818 2275.75 263.489 2281.81 254.398C2283.54 251.368 2284.41 240.546 2284.41 221.931V99.8533C2284.41 87.7321 2284.41 81.2386 2283.97 80.3728C2282.24 71.7149 2277.48 66.0872 2268.82 63.4898C2262.33 61.7582 2249.78 60.8924 2231.59 60.8924Z" fill="white"/>
</svg>
