<svg width="1183" height="500" viewBox="0 0 1183 500" fill="none" xmlns="http://www.w3.org/2000/svg">
<path fill-rule="evenodd" clip-rule="evenodd" d="M386.728 20.283V40.566H345.973C321.781 40.566 305.324 40.9151 305.48 41.4255C305.625 41.8991 320.421 55.9726 338.361 72.7009C356.3 89.4292 370.866 103.517 370.729 104.008C370.592 104.499 357.159 116.108 340.878 129.808C316.588 150.243 311.188 154.418 310.795 153.064C310.531 152.158 309.56 147.662 308.638 143.075C306.842 134.137 301.591 119.926 297.393 112.641C293.3 105.538 284.165 94.5142 277.352 88.4566C270.478 82.3443 258.692 75.1377 248.857 71.034L242.536 68.3962H121.651H0.766186L0.566291 240.802L0.367188 413.208H70.6874H141.008V302.358V191.509H160.761H180.513V302.358V413.208H245.301H310.089V359.906V306.604H353.638H397.186L399.886 309.434C401.371 310.991 402.929 312.264 403.348 312.264C403.825 312.264 404.111 325.367 404.111 347.17V382.075H387.124H370.136V426.887V471.698H385.938H401.74V485.849V500H464.948H528.156V483.491V466.981H559.76H591.364V440.566V414.151L841.627 414.144C1089.8 414.138 1091.95 414.122 1098.61 412.236C1123.1 405.299 1143.16 393.033 1157.15 376.448C1172.62 358.093 1179.81 338.39 1180.58 312.264C1181.37 284.868 1175.56 265.368 1161.65 248.754L1155.48 241.376L1161.36 234.357C1170.9 222.959 1176.76 211.143 1179.96 196.846C1182.17 186.966 1182.61 179.086 1181.62 167.208C1178.46 129.526 1161.39 101.581 1130.11 82.9151C1125.69 80.2736 1117.93 76.4896 1112.87 74.5066C1095.16 67.5651 1101.84 67.9245 990.674 67.9245H890.817L890.616 169.439L890.415 270.953L854.948 169.439L819.482 67.9245H765.47H711.458V48.6594V29.3953L709.285 28.8547C708.091 28.5575 678.337 21.9434 643.167 14.1566L579.221 0H482.975H386.728V20.283ZM634.688 41.5094C664.206 47.7358 688.577 52.8302 688.846 52.8302C689.115 52.8302 689.336 57.2877 689.336 62.7358V72.6415H596.894H504.453V104.717V136.792H596.499H688.545V148.614C688.545 157.207 688.276 160.558 687.558 160.879C687.015 161.123 659.549 165.566 626.523 170.753L566.475 180.184L535.464 180.187L504.453 180.189V187.103V194.017L508.587 196.301C515.999 200.394 526.071 208.985 531.398 215.755C545.709 233.939 546.839 255.241 534.44 273.072C529.649 279.962 521.568 287.268 513.75 291.775L506.85 295.755L506.837 354.009L506.823 412.264H538.822H570.821V426.887V441.509H538.842H506.863L506.645 456.84L506.428 472.17L465.936 472.414L425.443 472.658V459.914V447.17H410.036H394.629V428.302V409.434H410.826H427.023L427.016 353.066L427.009 296.698L420.103 292.931C407.283 285.938 397.599 275.423 392.731 263.208C390.438 257.455 390.286 256.404 390.285 246.207C390.284 235.786 390.393 235.074 392.926 228.929C397.737 217.26 410 204.429 423.67 196.76L428.604 193.992V186.619V179.245H420.308H412.012V158.508V137.771L393.854 137.517L375.698 137.264L384.571 129.077C389.451 124.575 397.246 117.316 401.893 112.948L410.342 105.005L392.864 88.1151L375.387 71.2264L394.095 70.9736L412.802 70.7207V50.4547V30.1887H496.911H581.019L634.688 41.5094ZM674.908 100.708C676.235 104.728 678.063 110.248 678.971 112.972L680.622 117.925H603.203H525.785V105.66V93.3962H599.141H672.496L674.908 100.708ZM241.904 100.164C265.425 110.592 279.82 128.971 284.762 154.879C286.428 163.617 286.438 164.454 286.216 273.113L285.991 382.547L245.894 382.791L205.796 383.036V283.373C205.796 209.714 205.554 182.743 204.867 180.007C203.547 174.745 198.46 168.292 193.074 165.046L188.459 162.264H152.488H116.515V272.642V383.019H71.4798H26.4443V240.077V97.1358L131.33 97.3887L236.215 97.6415L241.904 100.164ZM812.099 119.104C888.144 338.256 904.755 386.432 904.478 387.028C904.297 387.417 832.528 387.736 744.991 387.736C616.336 387.736 585.833 387.505 585.833 386.53C585.833 385.867 600.736 346.28 618.95 298.558L652.067 211.792L694.404 211.548C726.333 211.364 736.741 211.575 736.741 212.409C736.741 213.016 729.416 236.184 720.464 263.893C711.512 291.603 704.345 314.462 704.538 314.692C704.731 314.923 723.779 315.001 746.869 314.867L788.849 314.623L746.546 208.962C723.279 150.849 703.751 101.923 703.15 100.236L702.058 97.1698H753.272H804.487L812.099 119.104ZM1099 99.4613C1118.81 105.199 1132.15 113.418 1142.85 126.463C1164.16 152.446 1164.77 193.139 1144.26 219.368C1138.08 227.271 1128.14 235.635 1120.6 239.278C1117.85 240.609 1115.48 241.825 1115.34 241.978C1115.21 242.133 1117.06 243.334 1119.46 244.646C1130.86 250.875 1143.11 263.213 1149.54 274.933C1155.55 285.892 1159.4 300.175 1159.43 311.596C1159.46 324.991 1154.67 340.899 1147.2 352.145C1137.46 366.829 1117.04 380.293 1095.45 386.284C1091.03 387.508 1078.1 387.71 1003.6 387.722L916.883 387.736V351.903V316.07L981.603 315.818L1046.32 315.566L1049.74 312.701C1054.81 308.446 1056.73 304.512 1056.73 298.398C1056.73 290.585 1053.18 283.844 1047.08 280.102C1044.27 278.375 1041.58 278.302 980.518 278.302H916.883V242.453V206.604H981.121H1045.36L1048.95 203.886C1058.42 196.716 1060.21 183.355 1052.94 174.208C1048.46 168.585 1052.23 168.868 981.711 168.868H916.883V133.019V97.1698L1003.99 97.1708L1091.1 97.1726L1099 99.4613ZM387.519 177.358V189.623H349.199H310.879V177.358V165.094H349.199H387.519V177.358ZM627.446 206.84C625.593 211.639 609.516 253.663 591.721 300.226L559.365 384.888L543.76 384.896L528.156 384.906V347.76V310.615L534.661 305.543C547.96 295.174 558.861 279.6 562.971 265.094C567.25 249.992 563.493 226.213 554.213 209.67C553.267 207.983 552.795 206.578 553.164 206.546C553.532 206.515 569.478 204.658 588.598 202.42C607.719 200.181 625.04 198.296 627.089 198.231L630.816 198.113L627.446 206.84ZM458.789 213.307C443.945 215.971 429.529 227.799 425.757 240.409C420.862 256.774 432.864 274.516 453.097 280.828C459.966 282.971 472.392 282.933 479.17 280.748C487.986 277.906 494.113 273.833 499.845 267.004C504.219 261.792 505.342 259.792 506.454 255.22C508.923 245.079 506.311 236.08 498.342 227.271C488.474 216.362 472.731 210.804 458.789 213.307ZM374.706 219.575C367.604 236.136 365.649 244.294 366.438 254.057C367.087 262.079 368.781 268.33 372.084 274.878C373.62 277.924 374.877 280.578 374.877 280.774C374.877 280.972 361.722 281.132 345.643 281.132H316.41V250V218.868H345.709C361.824 218.868 374.872 219.186 374.706 219.575Z" fill="currentColor"/>
</svg>
