<svg width="2681" height="501" viewBox="0 0 2681 501" fill="none" xmlns="http://www.w3.org/2000/svg">
<path fill-rule="evenodd" clip-rule="evenodd" d="M222.454 4.46826C221.017 6.7675 212.517 20.7786 203.565 35.6019C194.612 50.4252 178.93 76.3544 168.712 93.2223C158.497 110.09 149.781 124.519 149.346 125.285C148.91 126.051 233.946 126.679 338.317 126.679C518.463 126.679 527.994 126.514 526.361 123.427C525.413 121.637 517.907 102.191 509.68 80.2112C501.454 58.2318 493.532 37.3212 492.076 33.7431C490.621 30.1651 487.151 21.1726 484.365 13.7619L479.3 0.286133H352.183H225.065L222.454 4.46826ZM601.289 23.9849C593.384 37.0201 583.799 52.7021 579.99 58.8359C574.357 67.9065 542.699 120.112 539.693 125.285C539.249 126.051 593.169 126.679 659.518 126.679H780.151L792.801 105.769C799.76 94.2688 816.195 67.1704 829.325 45.5535C842.455 23.9347 853.711 4.90691 854.342 3.26752C855.382 0.550065 844.847 0.286133 735.573 0.286133H615.661L601.289 23.9849ZM891.817 10.0444C890.315 12.3437 875.457 36.3918 858.801 63.4827C842.143 90.5736 826.537 115.876 824.119 119.709L819.725 126.679H925.462H1031.2L1057.8 83.464C1102.22 11.3158 1104.16 8.11322 1104.16 6.96825C1104.16 6.36044 1056.99 5.8623 999.352 5.8623H894.548L891.817 10.0444ZM1126.84 10.9738C1124.25 14.6578 1073.32 97.3672 1056.45 125.285C1055.99 126.051 1158 126.679 1283.15 126.679H1510.69L1547.2 67.3489C1567.28 34.7171 1583.71 7.5333 1583.71 6.94037C1583.71 6.34743 1481.72 5.8623 1357.07 5.8623H1130.43L1126.84 10.9738ZM1593.42 58.3935C1575.76 87.2614 1559.2 114.434 1556.61 118.78L1551.9 126.679H1779.36H2006.82L2021.37 102.981C2029.37 89.9472 2045.83 63.1946 2057.95 43.533C2070.07 23.8715 2079.99 7.35114 2079.99 6.82326C2079.99 6.29538 1977.73 5.8716 1852.76 5.88461L1625.53 5.90692L1593.42 58.3935ZM2372.73 8.90689C2248.2 18.6187 2153.92 46.6984 2082.77 95.2687C2072.55 102.246 2060.42 111.297 2055.82 115.38L2047.46 122.804L2182.34 122.882C2305.4 122.954 2318.11 122.679 2327.32 119.735C2341.83 115.098 2388.22 115.09 2398.52 119.724C2405.15 122.707 2416.37 122.962 2540.99 122.962H2676.27L2678.31 117.109C2684.78 98.5457 2675.71 73.228 2656.29 55.6556C2632.32 33.9606 2594.88 21.2748 2527.94 12.1634C2507.44 9.37343 2396.58 7.04817 2372.73 8.90689ZM2019.47 150.27C2014.42 156.088 2007.1 165.081 2003.22 170.251L1996.15 179.653L2118.37 180.131L2240.58 180.61L2256.61 164.638C2265.42 155.854 2275.29 146.982 2278.54 144.925C2281.79 142.867 2284.45 140.848 2284.45 140.438C2284.45 140.027 2226.89 139.69 2156.55 139.69H2028.65L2019.47 150.27ZM2415.75 142.943C2415.25 144.733 2414.3 148.874 2413.64 152.146C2412.98 155.419 2409.17 163.157 2405.17 169.339L2397.91 180.582H2522.33H2646.76L2653.98 169.895C2661.09 159.369 2671.06 142.241 2671.06 140.555C2671.06 140.079 2613.82 139.69 2543.86 139.69C2424.31 139.69 2416.61 139.886 2415.75 142.943ZM127.33 161.397C121.233 171.291 115.575 180.491 114.757 181.842C113.529 183.876 167.805 184.3 429.222 184.3H745.173L754.926 168.036C760.29 159.092 765.879 149.891 767.346 147.59L770.013 143.408H454.214H138.413L127.33 161.397ZM797.466 163.227C790.822 174.123 785.175 183.53 784.92 184.134C784.664 184.737 832.083 185.006 890.295 184.735L996.136 184.24L1005.87 168.006C1011.23 159.077 1016.81 149.891 1018.27 147.59L1020.94 143.408L915.244 143.413L809.548 143.419L797.466 163.227ZM1161.24 159.672C1151.69 174.941 1146.91 183.283 1146.91 184.642C1146.91 184.965 1185.8 185.229 1233.34 185.229C1280.87 185.229 1319.77 184.785 1319.77 184.244C1319.77 183.701 1311.2 180.216 1300.72 176.497C1290.24 172.779 1265.51 163.813 1245.76 156.573C1209.89 143.423 1209.83 143.408 1190.63 143.408H1171.4L1161.24 159.672ZM1655.29 163.103C1648.48 173.934 1643.25 183.121 1643.64 183.517C1644.53 184.409 1816.28 184.683 1817.17 183.792C1817.53 183.439 1805.92 178.874 1791.37 173.649C1776.83 168.424 1752.26 159.482 1736.78 153.778C1708.92 143.521 1708.4 143.408 1688.13 143.408H1667.65L1655.29 163.103ZM1978.21 211.716C1972.67 223.952 1971.88 226.231 1969.53 236.809L1968.39 241.92H2100.31H2232.22L2227.66 237.002C2221.72 230.582 2221 217.171 2225.98 205.21L2228.49 199.17H2106.19H1983.88L1978.21 211.716ZM2374.51 206.746C2365.2 216.337 2344.31 230.403 2330.48 236.383C2324.62 238.916 2319.81 241.409 2319.79 241.92C2319.77 242.431 2324.15 242.692 2329.52 242.496C2334.89 242.303 2395.14 242.093 2463.42 242.032L2587.56 241.92L2600.42 229.846C2607.49 223.205 2617.19 213.586 2621.98 208.471L2630.68 199.17H2506.26H2381.85L2374.51 206.746ZM99.7259 207.069C93.0829 217.504 76.2819 245.855 76.2819 246.632C76.2819 247.108 132.668 247.496 201.586 247.496H326.89L332.96 237.738C347.129 214.954 353.232 204.753 353.232 203.85C353.232 203.32 296.791 202.887 227.811 202.887H102.389L99.7259 207.069ZM358.808 203.781C358.808 204.272 363.616 214.307 369.495 226.082L380.183 247.489L543.688 247.028L707.192 246.567L719.802 226.147C726.736 214.915 732.411 205.088 732.411 204.307C732.411 203.526 648.35 202.887 545.609 202.887C442.869 202.887 358.808 203.288 358.808 203.781ZM770.755 207.069C760.18 223.859 747.281 245.463 747.281 246.385C747.281 246.996 794.483 247.496 852.172 247.496H957.064L970.201 226.324C977.428 214.679 983.339 204.642 983.339 204.019C983.339 203.396 936.099 202.887 878.364 202.887H773.389L770.755 207.069ZM1125.36 218.225C1120.15 226.656 1114.03 236.667 1111.77 240.468L1107.64 247.381L1210.73 247.465L1313.83 247.548L1321.77 234.976C1331.78 219.125 1340.21 204.837 1340.21 203.735C1340.21 203.268 1294 202.889 1237.52 202.891L1134.82 202.893L1125.36 218.225ZM1617.92 223.74C1610.86 235.21 1604.8 245.247 1604.46 246.045C1604.12 246.844 1650.24 247.496 1706.95 247.496H1810.06L1823.28 226.324C1830.54 214.679 1836.49 204.642 1836.49 204.019C1836.49 203.396 1790.2 202.887 1733.62 202.887H1630.75L1617.92 223.74ZM1970.32 263.357C1970.32 268.663 1979.7 284.758 1987.11 292.169L1994.48 299.541L2242.16 299.539L2489.83 299.537L2514 287.754C2536.38 276.84 2559.54 263.427 2559.54 261.379C2559.54 260.9 2426.96 260.507 2264.93 260.507C2001.45 260.507 1970.32 260.809 1970.32 263.357ZM59.0664 273.983C50.7616 287.106 42.8249 300.89 42.8249 302.195C42.8249 302.78 99.2259 303.258 168.16 303.258H293.496L304.777 284.583C310.981 274.314 316.057 265.532 316.057 265.067C316.057 264.604 259.624 264.225 190.651 264.225H65.2429L59.0664 273.983ZM390.406 266.059C390.406 267.069 394.36 275.851 399.19 285.576L407.973 303.258H540.411H672.846L675.397 299.076C676.8 296.775 681.837 288.682 686.592 281.089C691.346 273.496 695.237 266.597 695.237 265.755C695.237 264.913 626.65 264.225 542.821 264.225C443.813 264.225 390.406 264.868 390.406 266.059ZM728.052 276.771C723.653 283.673 718.164 292.455 715.857 296.288L711.662 303.258L817.295 303.249L922.93 303.239L934.083 285.219C940.216 275.308 945.514 266.531 945.854 265.712C946.196 264.894 899.129 264.225 841.264 264.225H736.054L728.052 276.771ZM1085.74 282.541C1079.51 292.615 1074.42 301.397 1074.42 302.057C1074.42 302.717 1120.66 303.258 1177.18 303.258H1279.94L1291.02 285.23C1297.12 275.314 1302.39 266.531 1302.73 265.714C1303.07 264.894 1256.93 264.225 1200.2 264.225H1097.06L1085.74 282.541ZM1582.76 281.148C1577 290.459 1571.84 299.241 1571.29 300.665C1570.45 302.864 1585.95 303.256 1673.19 303.249L1776.08 303.239L1787.24 285.219C1793.37 275.308 1798.67 266.531 1799.01 265.712C1799.35 264.894 1753.19 264.225 1696.43 264.225H1593.22L1582.76 281.148ZM2030.17 317.258C2031.87 318.957 2055.94 325.457 2075.08 329.39C2137.24 342.152 2267.74 343.825 2352.29 332.944C2378.37 329.587 2430.64 319.386 2432.8 317.234C2433.33 316.704 2342.73 316.269 2231.47 316.269C2120.21 316.269 2029.63 316.713 2030.17 317.258ZM23.1484 333.247C18.4551 340.568 14.1801 347.694 13.6466 349.085C12.8344 351.202 33.0721 351.533 138.61 351.133L264.543 350.655L273.398 336.386C278.267 328.539 281.795 321.659 281.238 321.102C280.68 320.544 224.301 320.053 155.95 320.013L31.6799 319.938L23.1484 333.247ZM417.91 320.985C417.417 321.477 420.437 328.563 424.621 336.732L432.227 351.583L538.102 351.12L643.979 350.655L652.765 336.715C657.598 329.048 661.603 322.135 661.666 321.355C661.787 319.842 419.421 319.473 417.91 320.985ZM695.54 329.362C692.305 334.564 689.661 339.183 689.661 339.626C689.661 340.07 737.129 340.432 795.143 340.431L900.626 340.429L905.737 331.328C908.549 326.323 910.849 321.762 910.849 321.195C910.849 320.626 863.726 320.104 806.134 320.033L701.419 319.905L695.54 329.362ZM1061.83 322.368C1060.84 323.615 1057.83 328.189 1055.12 332.533L1050.21 340.432L1153.85 340.431L1257.5 340.429L1262.61 331.328C1265.42 326.323 1267.72 321.711 1267.72 321.079C1267.72 320.449 1221.8 319.972 1165.67 320.018C1087.74 320.083 1063.2 320.639 1061.83 322.368ZM1554.33 327.946C1551.41 332.258 1548.41 336.832 1547.67 338.109C1546.59 339.957 1567.49 340.432 1649.62 340.432H1752.93L1758.47 331.704C1761.51 326.905 1764 322.291 1764 321.453C1764 320.615 1718.02 319.97 1661.82 320.018L1559.64 320.105L1554.33 327.946ZM128.326 411.094C128.326 411.622 137.945 421.101 149.701 432.159C169.53 450.809 173.707 456.259 169.387 457.842C168.458 458.183 157.863 467.244 145.845 477.978L123.992 497.495L143.352 498.424L162.712 499.353L179.071 483.554C188.067 474.865 196.136 467.504 197.002 467.199C197.867 466.894 206.09 473.794 215.273 482.534L231.97 498.424L252.175 498.357L272.377 498.29L261.286 488.599C241.177 471.026 224.05 455.106 224.05 453.987C224.05 453.381 233.669 443.685 245.426 432.439C257.182 421.194 267.013 411.575 267.269 411.064C267.528 410.553 258.781 410.4 247.833 410.726L227.926 411.319L213.357 425.595C205.344 433.449 198.199 440.075 197.48 440.32C196.759 440.566 189.506 434.082 181.363 425.915C173.22 417.746 165.274 411.003 163.705 410.928C149.032 410.229 128.326 410.326 128.326 411.094ZM277.799 410.91C277.373 411.335 277.024 416.144 277.024 421.597V431.51H298.357H319.689L320.197 464.502L320.704 497.495L336.038 498.034L351.373 498.574V465.041V431.51H372.748H394.124V420.822V410.135H336.351C304.574 410.135 278.227 410.484 277.799 410.91ZM608.341 410.597L553.974 411.12V454.772V498.424H607.877C637.523 498.424 662.406 498.433 663.174 498.446C663.941 498.457 664.819 493.874 665.124 488.259L665.681 478.05L625.161 477.55L584.643 477.049V470.543V464.038L622.282 463.534L659.921 463.032V453.776V444.521H621.706H583.488L584.066 437.551L584.643 430.581L624.141 430.079L663.638 429.577V419.391C663.638 413.789 663.428 409.4 663.174 409.64C662.919 409.88 638.243 410.311 608.341 410.597ZM685.943 454.357V498.58L700.348 498.037L714.753 497.495L715.683 466.937L716.612 436.382L736.288 466.937L755.965 497.495H767.842H779.721L798.756 467.775C809.227 451.43 818.656 437.768 819.712 437.415C820.979 436.993 821.63 447.235 821.63 467.601V498.424H835.57H849.511V454.744C849.511 426.91 848.836 411.04 847.652 410.995C833.297 410.464 804.567 411.051 803.186 411.906C802.191 412.519 794.121 424.919 785.251 439.46C776.383 454 768.872 466.184 768.561 466.536C767.928 467.253 760.389 455.738 744.415 429.651C738.467 419.939 733.43 411.742 733.222 411.434C733.012 411.125 722.289 410.707 709.391 410.504L685.941 410.135L685.943 454.357ZM922.432 410.629L871.747 411.123L872.247 454.309L872.745 497.495L928.042 497.987L983.339 498.48V488.264V478.05L942.912 477.55L902.484 477.049L901.91 470.117L901.336 463.186L939.084 462.683L976.833 462.179L977.4 453.35L977.967 444.521H939.648H901.33L901.908 437.551L902.484 430.581L942.079 430.079L981.672 429.577L981.112 420.003C980.638 411.911 979.974 410.404 976.833 410.281C974.789 410.2 950.307 410.358 922.432 410.629ZM1216.14 410.716L1210.1 411.3L1210.1 455.326V499.353L1265.86 498.835L1321.63 498.318V488.147V477.978H1281.81H1242L1240.78 472.446C1240.11 469.406 1240.1 466.06 1240.74 465.012C1241.48 463.816 1255.69 463.108 1278.99 463.108H1316.05V453.854V444.597L1278.41 444.095L1240.77 443.592V437.086V430.581L1280.27 430.079L1319.77 429.577V419.856V410.135H1270.98C1244.14 410.135 1219.47 410.397 1216.14 410.716ZM1487.83 410.91C1487.4 411.335 1487.05 431.199 1487.05 455.054V498.424H1501.92H1516.79V483.554V468.684H1552.11H1587.42V458.461V448.238H1552.11H1516.79V439.874V431.51H1553.97H1591.14L1591.14 420.822V410.135H1539.88C1511.68 410.135 1488.26 410.484 1487.83 410.91ZM1633.89 410.871C1622.95 413.205 1615.19 418.322 1612.37 425.068C1610.55 429.417 1609.73 438.807 1609.74 455.149C1609.74 475.394 1610.28 479.783 1613.35 484.829C1621.02 497.405 1633.23 500.271 1678.5 500.126C1710.6 500.024 1716.13 499.548 1726.83 495.965C1737.79 492.292 1739.3 491.147 1743.18 483.554C1747.09 475.907 1747.41 473.168 1746.9 451.619C1746.27 424.83 1744.5 420.532 1731.35 413.852C1724.75 410.495 1719.98 410.103 1682.22 409.809C1659.22 409.631 1637.47 410.109 1633.89 410.871ZM1914.52 410.754C1913.4 411.135 1912.7 428.144 1912.7 454.751V498.13L1926.64 498.742L1940.59 499.353L1940.58 468.329C1940.58 437.937 1941.8 431.062 1945.7 439.603C1946.76 441.947 1955.64 456.138 1965.43 471.143L1983.22 498.424H1994.23H2005.23L2018.18 478.443C2025.31 467.452 2034.58 453.025 2038.79 446.38L2046.45 434.298L2046.49 466.22L2046.53 498.141L2061.4 498.747L2076.28 499.353L2076.28 454.744V410.135L2052.49 410.698L2028.71 411.261L2012.38 438.095C2003.4 452.855 1995.45 465.298 1994.73 465.744C1994.01 466.192 1985.9 454.279 1976.72 439.276L1960.03 411.993L1938.19 411.064C1926.17 410.553 1915.52 410.413 1914.52 410.754ZM2250.98 454.744L2250.98 499.353L2265.85 498.747L2280.73 498.141V466.684C2280.73 449.383 2281.13 435.227 2281.62 435.227C2282.11 435.227 2286.08 439.175 2290.45 444.001C2304.68 459.729 2322.07 478.705 2331.38 488.666L2340.5 498.424H2363.62H2386.74L2386.24 454.538L2385.75 410.653L2373.66 410.69C2367.02 410.711 2360.54 410.804 2359.26 410.895C2357.5 411.023 2356.92 418.835 2356.89 443.127L2356.83 475.19L2350.05 467.755C2346.32 463.666 2336.01 452.374 2327.15 442.662C2318.28 432.95 2308.35 421.913 2305.07 418.136L2299.11 411.268L2275.05 410.701L2250.98 410.135V454.744ZM2431.28 410.832C2422.88 412.644 2418.43 415.142 2412.7 421.261C2408.27 425.982 2408.02 427.45 2407.51 451.634C2406.78 486.292 2409.32 490.885 2433.27 498.244C2441.78 500.855 2512.4 501.013 2514 498.424C2514.63 497.402 2516.81 496.565 2518.85 496.565C2529.68 496.565 2536.54 488.052 2537.95 472.866L2538.69 464.967H2523.22C2508.65 464.967 2507.72 465.207 2507.16 469.103C2506.09 476.519 2499.44 478.114 2471.9 477.56C2439.34 476.904 2438.72 476.476 2438.72 454.744C2438.72 433.004 2439.3 432.608 2472.23 431.837C2498.38 431.224 2505.63 432.579 2505.63 438.081C2505.63 440.261 2508.82 440.804 2521.67 440.804H2537.71L2536.45 432.904C2533.24 412.817 2527.27 410.512 2476.82 409.902C2455.35 409.644 2434.86 410.062 2431.28 410.832ZM2558.45 410.91C2558.03 411.335 2557.68 431.199 2557.68 455.054V498.424H2613.44H2669.2V488.238V478.05L2628.77 477.55L2588.35 477.049L2587.77 470.117L2587.2 463.186L2624.95 462.683L2662.7 462.179V453.815V445.45L2625.06 444.947L2587.42 444.445V437.047V429.651H2627.38H2667.34V419.893V410.135H2613.28C2583.55 410.135 2558.88 410.484 2558.45 410.91ZM0.0742188 454.692V498.318L56.7671 498.837L113.458 499.353V488.666L113.456 477.978H72.5644H31.6725V470.582V463.184L69.3117 462.683L106.951 462.179V453.815V445.45L69.3117 444.947L31.6725 444.445V437.047V429.651H71.6351H111.598V420.358V411.064H55.8359H0.0742188V454.692ZM408.993 454.666V498.424H423.774H438.556L439.108 486.807L439.662 475.19H468.16C500.695 475.19 501.929 475.748 501.929 490.415V498.424H516.799H531.669V488.322C531.669 474.725 529.188 469.028 521.926 465.952C516.504 463.655 516.258 463.246 519.587 462.041C521.632 461.302 525.186 459.002 527.487 456.932C531.145 453.638 531.669 451.35 531.669 438.649C531.669 425.239 531.256 423.672 526.247 418.064L520.827 411.993L464.909 411.451L408.993 410.908V454.666ZM1072.56 454.744V498.424H1087.43H1102.3V487.272V476.119L1135.29 476.108C1173.87 476.097 1180.2 474.805 1187.3 465.499C1191.96 459.385 1192.45 457.307 1192.45 443.408C1192.45 425.965 1189.57 420.032 1178.37 414.32C1172.78 411.465 1165.94 411.07 1122.28 411.068L1072.56 411.064V454.744ZM1342.07 454.744V498.424H1356.85H1371.64L1372.19 486.807L1372.74 475.19L1395.98 474.636C1408.75 474.331 1421.8 474.554 1424.97 475.13C1431.57 476.335 1435.01 482.114 1435.01 492.006V498.424H1449.88H1464.75V488.288C1464.75 475.556 1461.72 468.796 1454.71 465.846L1449.23 463.541L1455.07 460.517C1458.29 458.854 1461.78 455.885 1462.83 453.917C1465.73 448.506 1465.16 428.4 1461.93 422.155C1456.45 411.564 1453.44 411.064 1395.14 411.064H1342.07V454.744ZM1766.26 454.279L1766.79 497.495L1782.03 498.034L1797.28 498.571L1797.83 486.881L1798.39 475.19L1824.61 474.675C1855.67 474.067 1858.5 475.242 1859.38 489.13L1859.91 497.495L1875.15 498.034L1890.4 498.574V489.327C1890.4 477.01 1887.96 471.27 1880.93 466.989L1875.08 463.435L1880.52 460.623C1883.51 459.077 1886.95 455.618 1888.17 452.937C1891.31 446.066 1890.93 430.415 1887.46 423.105C1882.05 411.703 1878.42 411.064 1818.95 411.064H1765.72L1766.26 454.279ZM2116.23 453.248C2101.92 476.378 2089.93 496.006 2089.59 496.865C2089.25 497.721 2096.53 498.424 2105.78 498.424H2122.58L2127.48 490.06L2132.38 481.695L2162.41 481.723C2178.93 481.74 2193.32 482.366 2194.4 483.117C2195.47 483.868 2198.26 487.621 2200.59 491.454L2204.82 498.424H2221.61H2238.4L2235.71 494.242C2234.22 491.941 2221.91 472.287 2208.36 450.562L2183.71 411.064L2162.98 411.127L2142.25 411.19L2116.23 453.248ZM500.102 435.259C502.595 437.751 503.56 440.607 502.983 443.783C501.201 453.616 500.017 453.947 468.671 453.396L439.662 452.885L439.08 444.774C438.101 431.129 437.261 431.51 468.415 431.51C493.952 431.51 496.675 431.831 500.102 435.259ZM1160.01 435.227C1161 436.761 1161.6 440.924 1161.33 444.478C1160.63 453.887 1155.76 455.614 1129.87 455.645C1117.94 455.66 1106.85 455.166 1105.24 454.545C1103.01 453.69 1102.3 450.725 1102.3 442.33V431.242L1130.25 431.841C1152.58 432.318 1158.56 433.001 1160.01 435.227ZM1431.41 433.434C1434.03 434.835 1435.01 437.343 1435.01 442.662C1435.01 447.982 1434.03 450.489 1431.41 451.891C1429.39 452.973 1415.56 453.815 1399.82 453.815H1371.81V442.662V431.51H1399.82C1415.56 431.51 1429.39 432.352 1431.41 433.434ZM1712.13 436.828C1714.94 440.3 1715.68 444.214 1715.68 455.592C1715.68 476.318 1714.83 476.879 1682.49 477.668C1655.71 478.32 1644.43 476.463 1642.36 471.062C1639.86 464.556 1639.22 448.118 1641.23 442.038C1642.37 438.575 1645.16 434.817 1647.43 433.685C1650.02 432.389 1662.11 431.778 1680.06 432.032C1707.55 432.424 1708.71 432.597 1712.13 436.828ZM1857.74 434.43C1861.96 438.655 1861.54 449.493 1857.06 451.891C1855.04 452.973 1841.21 453.815 1825.46 453.815H1797.46V442.662V431.51H1826.14C1849.73 431.51 1855.33 432.029 1857.74 434.43ZM2173.73 447.413C2178.4 455.095 2182.22 462.188 2182.22 463.173C2182.22 464.207 2174.32 464.967 2163.63 464.967C2149.98 464.967 2145.05 464.35 2145.07 462.644C2145.13 458.645 2161.87 431.352 2163.61 432.424C2164.51 432.986 2169.07 439.731 2173.73 447.413Z" fill="white"/>
</svg>
