<svg width="1293" height="501" viewBox="0 0 1293 501" fill="none" xmlns="http://www.w3.org/2000/svg">
<path fill-rule="evenodd" clip-rule="evenodd" d="M386.951 3.58428C388.468 5.42759 395.665 9.6467 402.946 12.9611L416.187 18.9873L383.768 20.4967C275.734 25.5258 116.555 24.1766 28.789 17.4847C13.941 16.3543 1.24985 15.9776 0.586529 16.6522C-1.84565 19.1295 17.8329 33.321 31.1129 38.6682C73.8678 55.8807 145.401 59.4049 260.683 49.9785C284.03 48.0697 304.284 46.892 305.69 47.3613C308.582 48.3247 269.131 52.2821 217.107 56.2462C197.873 57.7105 143.363 58.9739 95.9741 59.0529L9.80987 59.1973L14.3651 64.0459C20.9848 71.0942 42.8722 80.277 63.0516 84.4735C76.2594 87.2193 93.4584 88.1263 132.5 88.1353C186.721 88.1466 220.735 85.3489 293.076 74.9298C331.638 69.375 347.003 68.0145 327.661 71.8659C260.189 85.3015 161.837 95.7003 61.6212 99.9939C27.063 101.474 26.8757 101.51 32.2906 105.713C35.2869 108.039 44.8464 112.231 53.5327 115.029C68.1687 119.742 73.3805 120.112 124.603 120.088C157.616 120.072 188.512 118.871 201.314 117.107C236.653 112.232 302.247 101.05 329.917 95.1814C360.516 88.6926 366.682 88.3474 344.582 94.3602C281.826 111.437 175.654 127.844 82.9017 134.8C64.3106 136.195 48.8015 137.632 48.4382 137.993C47.1703 139.261 73.9423 149.928 86.2476 153.057C107.278 158.407 182.28 157.186 218.235 150.909C252.906 144.856 306.092 131.759 346.969 119.208C363.101 114.255 378.301 109.614 380.747 108.892C396.723 104.188 358.972 119.154 332.173 128.149C270.85 148.732 196.677 164.21 122.615 171.874C104.769 173.722 89.774 175.624 89.2957 176.104C87.466 177.934 115.014 190.772 126.859 193.61C145.119 197.983 184.62 196.889 213.538 191.205C253.757 183.299 317.528 162.398 368.272 140.486C394.043 129.358 396.773 128.652 380.681 137.282C328.784 165.112 213.599 203.639 148.293 215.01C133.553 217.576 132.103 219.595 143.02 222.345C196.395 235.785 272.242 218.81 364.888 172.689C382.261 164.041 400.028 154.93 404.372 152.446C409.622 149.443 410.757 149.188 407.756 151.69C398.72 159.221 360.229 180.838 331.325 194.614C296.162 211.371 252.649 227.891 209.21 240.975C191.838 246.207 176.773 251.245 175.733 252.17C172.288 255.236 208.881 256.928 228.388 254.604C277.598 248.747 334.763 225.763 395.755 187.316C407.318 180.026 419.826 172.208 423.549 169.945L430.318 165.832L424.677 170.633C411.589 181.774 365.509 210.924 340.235 224.051C307.599 240.999 277.341 254.09 240.797 267.065L213.723 276.679L237.83 276.801C274.058 276.981 302.466 269.928 342.326 250.857C366.844 239.127 396.527 220.504 422.421 200.609C432.969 192.505 439.061 188.703 435.958 192.162C427.692 201.376 381.724 235.555 356.991 250.882C345.203 258.185 323.374 270.567 308.483 278.396L281.409 292.633H292.69C339.786 292.642 395.209 264.324 449.247 212.648C480.807 182.465 474.007 194.134 440.651 227.397C415.93 252.048 392.581 269.89 356.824 291.446C337.545 303.067 336.575 303.988 343.68 303.916C363.53 303.711 393.855 293.58 415.237 280.011C433.359 268.509 468.443 232.155 485.22 207.49C493.047 195.982 502.069 184.852 505.266 182.756C508.617 180.563 517.19 178.559 525.496 178.029C538.112 177.226 541.663 177.979 553.928 184.069C568.492 191.298 578.099 201.997 578.099 210.988C578.099 216.725 566.238 230.959 559.74 233.022C557.24 233.816 555.686 234.955 556.286 235.553C558.307 237.577 570.755 229.748 576.641 222.751C579.859 218.927 583.654 211.531 585.073 206.313C590.264 187.239 591.738 184.843 590.652 197.236C588.606 220.619 574.904 236.747 556.426 237.516C547.275 237.897 546.647 237.525 545.271 230.91C543.498 222.388 538.279 213.747 534.904 213.747C533.189 213.747 533.248 214.74 535.093 216.964C536.562 218.733 537.447 224.416 537.061 229.592L536.359 239.005L529.074 228.631C525.065 222.927 520.049 218.259 517.924 218.259C514.282 218.259 514.282 218.419 517.93 221.086C520.056 222.643 522.45 227.929 523.246 232.839L524.692 241.762L515.911 234.524C503.069 223.938 499.691 225.581 509.551 237.615C514.862 244.095 523.12 250.487 531.7 254.76C539.227 258.505 547.207 263.755 549.434 266.425C553.439 271.226 553.475 271.169 552.818 261.244C552.164 251.378 552.288 251.182 560.248 249.512C564.699 248.576 573.708 245.697 580.267 243.111C591.311 238.759 592.597 238.676 597.656 241.99C604.756 246.642 608.016 255.538 606.288 265.538C601.13 295.367 564.404 296.504 523.136 268.11L513.204 261.278L511.807 268.252C510.038 277.105 510.056 293.648 511.852 304.505C513.136 312.268 514.208 313.27 525.906 317.647C532.871 320.253 547.209 323.678 557.77 325.259L576.971 328.132L561.601 329.878C550.402 331.15 542.44 330.692 532.271 328.193C524.591 326.304 517.937 325.113 517.482 325.546C517.026 325.979 520.189 332.73 524.507 340.545L532.361 354.759L545.641 354.353C552.944 354.132 563.237 352.399 568.51 350.506C573.783 348.611 578.099 347.569 578.099 348.187C578.099 350.078 550.156 362.651 545.948 362.654C539.863 362.656 541.192 365.914 550.826 374.616C566.112 388.428 566.576 388.458 581.618 376.653C595.124 366.054 594.889 368.215 580.91 383.192L573.325 391.319L584.709 396.215C606.419 405.555 608.102 405.309 616.269 391.641C623.189 380.065 623.708 382.831 617.474 398.078L614.523 405.296L624.344 406.769C635.476 408.439 674.046 407.351 676.083 405.312C676.819 404.574 675.876 399.594 673.987 394.243C669.297 380.947 671.53 380.108 677.719 392.842C680.503 398.577 684.066 403.268 685.634 403.268C689.56 403.268 714.105 394.141 716.751 391.698C718.071 390.479 715.235 385.974 709.419 380.047C696.139 366.516 697.607 365.224 712.489 377.344L725.047 387.571L731.103 383.176C734.435 380.757 740.714 375.742 745.057 372.033C752.318 365.828 752.591 365.165 748.442 363.786C737.375 360.113 715.567 350.687 714.633 349.173C714.064 348.255 720.404 349.392 728.716 351.695C737.03 354.001 747.519 355.887 752.027 355.887C759.721 355.887 760.657 355.073 767.306 342.598C771.2 335.29 774.388 328.33 774.388 327.137C774.388 325.853 769.558 326.214 762.615 328.014C750.287 331.214 735.078 331.597 723.624 329C718.028 327.732 719.486 327.182 732.032 325.826C752.751 323.588 776.026 316.135 778.864 310.833C782.043 304.888 781.888 263.383 778.684 263.383C777.326 263.383 773.517 265.285 770.223 267.609C745.597 284.991 715.034 292.626 700.392 285.054C681.925 275.504 681.674 240.821 700.076 240.821C702.634 240.821 711.519 243.019 719.817 245.701C728.116 248.386 736.297 250.94 738 251.378C740.153 251.931 740.687 254.214 739.753 258.88C739.015 262.571 739.022 267.183 739.769 269.13C740.872 272.002 741.603 271.688 743.656 267.462C745.048 264.597 751.77 259.548 758.595 256.24C765.42 252.93 775.065 245.674 780.029 240.115C784.992 234.554 791.084 229.511 793.566 228.906C797.151 228.033 796.867 227.753 792.185 227.546C788.722 227.392 782.759 230.089 777.736 234.082C773.032 237.82 768.763 240.46 768.253 239.95C766.464 238.163 772.238 220.854 774.993 219.739C776.588 219.094 776.069 218.539 773.774 218.438C771.369 218.329 767.141 222.413 763.168 228.681L756.56 239.1L754.976 232.794C754.105 229.326 754.5 223.559 755.851 219.976C757.71 215.049 757.658 213.675 755.632 214.32C754.159 214.789 751.298 220.103 749.272 226.127C746.441 234.549 744.356 237.27 740.247 237.909C721.079 240.889 702.136 219.187 702.418 194.569L702.548 183.288L705.676 197.699C707.395 205.625 711.029 215.362 713.753 219.338C719.271 227.39 731.193 236.363 736.173 236.21C737.957 236.153 735.674 234.132 731.096 231.715C707.695 219.356 711.458 198.012 739.471 184.22C752.149 177.979 755.675 177.224 768.33 178.029C776.771 178.566 785.204 180.558 788.679 182.835C791.941 184.974 800.887 196.054 808.556 207.461C835.382 247.357 875.459 283.208 906.01 294.641C920.628 300.11 943.19 304.681 950.435 303.643C954.904 303.002 952.72 301.046 937.879 292.4C895.183 267.526 851.216 230.641 827.558 199.853C816.926 186.018 817.342 186.298 840.034 208.285C867.057 234.463 880.669 245.803 899.406 257.745C932.428 278.789 963.166 290 993.239 291.962L1012.42 293.215L989.855 281.431C938.908 254.816 887.554 220.087 854.483 189.883C844.175 180.468 849.598 183.708 864.67 195.966C885.33 212.774 925.149 238.082 950.372 250.437C989.871 269.786 1010.28 275.131 1048.52 276.133L1080.1 276.961L1055.28 268.193C986.487 243.89 931.984 216.274 882.122 180.457C872.506 173.55 864.636 167.429 864.636 166.856C864.636 166.286 866.922 167.393 869.712 169.322C904.573 193.394 958.381 222.871 990.678 235.591C1030.51 251.281 1072.41 258.647 1104.52 255.611C1114.23 254.692 1121.82 253.582 1121.38 253.14C1120.94 252.7 1103.46 247.15 1082.54 240.808C1017.05 220.955 951.603 192.791 903.648 163.826C878.358 148.549 877.896 145.998 902.942 159.934C951.202 186.79 1017.69 212.928 1060.93 222.041C1085.13 227.142 1138.11 227.352 1153.43 222.406L1163.58 219.128L1148.92 216.29C1077.31 202.43 981.64 171.139 921.294 141.842C901.069 132.021 893.734 127.28 908.632 133.656C980.415 164.377 1029.6 181.041 1078.97 191.372C1108.98 197.651 1152.7 198.411 1172.04 192.992C1184.19 189.587 1206.67 178.243 1204.86 176.432C1204.41 175.983 1192.4 174.494 1178.17 173.124C1123.22 167.835 1055.66 155.756 1007.9 142.683C968.708 131.951 908.113 110.855 910.274 108.694C910.728 108.243 923.43 111.895 938.504 116.812C1056.76 155.377 1165.08 167.951 1220.06 149.493C1252.09 138.742 1251.42 138.275 1197.93 133.99C1143.34 129.615 1094.72 123.637 1047.39 115.476C1009.93 109.019 949.555 95.838 934.578 90.8518C923.245 87.0771 924.883 87.3434 969.549 96.5441C1051.74 113.47 1118.5 121.863 1172.61 122.071C1215.73 122.235 1238.82 118.45 1258.18 108.042L1269.29 102.065L1232.23 100.513C1177.14 98.207 1125.39 94.4075 1082.5 89.5251C1041.4 84.848 956.438 71.5568 957.952 70.0429C958.458 69.5352 975.997 71.6628 996.926 74.7718C1066.93 85.1639 1102.36 88.1285 1159.07 88.3316C1203.1 88.4918 1216.8 87.7698 1232.4 84.4757C1253.64 79.9836 1271.85 72.1434 1279.2 64.3234L1284.01 59.1973L1195.59 59.1341C1105.89 59.071 1063.74 56.9005 997.752 48.9542C960.439 44.4598 974.447 45.0081 1031.59 50.2763C1135.86 59.89 1217.03 56.253 1260.11 40.0399C1272.8 35.2613 1291.06 23.1748 1292.58 18.5451C1293.09 17.0267 1286.28 16.7695 1272.46 17.7848C1182.82 24.3729 989.061 25.5597 900.735 20.0613L877.045 18.5857L887.378 14.5968C893.06 12.4037 901.182 7.9523 905.428 4.70563C909.672 1.45896 911.114 -0.418228 908.632 0.533887C906.15 1.48375 875.691 3.07439 840.946 4.06711C806.2 5.05984 775.742 6.38648 773.26 7.01822C770.778 7.64995 761.338 9.87005 752.284 11.9525C743.228 14.035 736.191 16.1107 736.646 16.5664C737.1 17.0199 744.509 15.8603 753.11 13.9876C763.218 11.7856 786.7 10.1837 819.512 9.45492C847.432 8.83672 876.364 7.91845 883.805 7.41757C891.516 6.89639 895.882 7.29572 893.958 8.34486C887.861 11.6727 866.175 15.3977 842.074 17.2568C829.044 18.2631 822.605 19.2265 827.763 19.4002C832.923 19.5717 854.591 22.2521 875.917 25.3543C897.243 28.4566 919.926 31.067 926.327 31.1528C934.908 31.2701 936.778 31.8206 933.45 33.251C924.482 37.1046 890.275 35.4824 855.532 29.5531C831.587 25.4671 811.622 23.5223 791.896 23.3486C761.456 23.0823 762.247 21.1984 794.378 17.4418C809.014 15.7294 807.089 15.5805 781.615 16.4559C754.624 17.3832 740.958 19.0957 727.956 23.1771C725.072 24.0841 725.51 23.3237 729.264 20.9028L734.905 17.2704L729.264 18.7843C722.356 20.6389 704.936 29.3929 698.805 34.0948C694.747 37.2039 695.428 37.2084 705.574 34.1377C711.779 32.2606 720.233 31.243 724.359 31.8747C752.765 36.2224 777.711 74.8846 770.063 102.701C768.355 108.913 763.671 116.16 756.936 123.007C751.179 128.862 746.404 134.636 746.326 135.836C746.102 139.31 729.535 147.697 719.824 149.249C708.473 151.065 693.483 144.732 686.753 135.281C679.743 125.435 680.749 124.291 689.587 132.052C703.555 144.317 723.357 146.749 738.289 138.036L743.929 134.744L737.161 136.454C711.061 143.049 683.91 130.61 667.194 104.4C657.095 88.564 655.818 83.4943 660.597 78.2125C664.444 73.9641 664.227 73.8626 651.211 73.8829C633.588 73.9077 614.198 76.3151 614.198 78.4788C614.198 79.4309 616.229 79.6768 618.71 79.0293C621.192 78.3795 623.223 78.9142 623.223 80.216C623.223 81.5179 621.192 83.2281 618.71 84.0155C616.229 84.8029 614.13 87.1561 614.045 89.2431C613.927 92.1829 613.359 91.9347 611.527 88.1466C609.158 83.2506 600.444 82.1428 596.708 86.2604C595.781 87.2847 596.543 87.3028 598.405 86.301C600.266 85.2993 599.506 86.7004 596.712 89.4123C593.919 92.1243 591.636 96.393 591.636 98.8973C591.636 103.15 591.965 103.218 596.652 99.9375C603.163 95.3755 616.172 95.3213 617.909 99.8495C621.224 108.488 606.119 128.005 590.697 135.008C574.385 142.417 557.159 139.335 541.905 126.279C516.852 104.833 517.63 70.5573 543.748 45.175C557.085 32.2132 568.052 29.2598 585.901 33.8241C597.513 36.7933 598.743 36.8113 594.926 33.9527C586.842 27.8948 573.185 21.6406 570.387 22.7146C568.869 23.2989 562.256 22.3829 555.695 20.6795C549.134 18.9783 528.9 17.1057 510.731 16.5191C479.873 15.5241 479.128 15.5918 499.441 17.5614C532.273 20.7449 533.726 23.0846 502.945 23.2042C484.23 23.2764 463.495 25.2596 438.059 29.4087C401.572 35.3606 374.023 36.7233 360.376 33.251C354.69 31.8048 355.595 31.4822 366.016 31.2407C372.841 31.0828 395.509 28.425 416.39 25.334C437.271 22.243 458.592 19.5852 463.77 19.4295C468.948 19.2716 459.987 17.8074 443.855 16.1761C427.723 14.5449 410.463 11.7404 405.5 9.9445C396.493 6.68655 396.509 6.68203 414.524 7.51682C424.452 7.97709 453.895 8.85026 479.954 9.45492C511.584 10.1882 532.131 11.7179 541.763 14.0553C549.698 15.9821 556.597 17.1486 557.098 16.6477C558.436 15.312 529.771 8.7397 511.541 6.20599C502.855 4.99892 475.949 3.91596 451.752 3.80089C427.554 3.68583 402.456 2.83523 395.976 1.91244C385.713 0.450425 384.553 0.664758 386.951 3.58428ZM562.305 19.7138C564.167 20.9164 566.705 21.9001 567.946 21.9001C569.187 21.9001 568.679 20.9164 566.818 19.7138C564.956 18.5113 562.418 17.5276 561.177 17.5276C559.936 17.5276 560.444 18.5113 562.305 19.7138ZM66.842 29.9344C105.861 35.1034 135.024 40.6649 137.831 43.4716C139.417 45.0577 135.879 44.6832 124.603 42.0705C119.019 40.7754 98.7131 37.8131 79.479 35.4869C45.2683 31.349 20.8179 27.0465 20.8179 25.1671C20.8179 23.8089 19.8184 23.7051 66.842 29.9344ZM1274.95 25.2934C1272.77 27.4752 1241.6 33.0119 1212.09 36.4593C1195.34 38.4155 1177.57 40.6694 1172.61 41.4659C1158.65 43.7063 1164.55 40.3219 1179.57 37.4701C1192.69 34.9815 1263.23 25.0542 1271.69 24.506C1274.07 24.3526 1275.53 24.7068 1274.95 25.2934ZM501.388 32.4884C476.441 34.9296 454.673 39.0246 419.508 47.8915C377.148 58.5723 350.358 62.1732 341.198 58.4144C336.047 56.3003 336.397 56.086 345.207 55.9552C350.514 55.8784 372.343 51.6481 393.715 46.5581C448.593 33.4902 461.167 31.4664 486.723 31.5995C499.132 31.6649 505.731 32.0643 501.388 32.4884ZM843.283 34.4558C854.201 36.3601 877.941 41.5132 896.035 45.906C914.132 50.2988 934.269 54.4661 940.783 55.1677C947.296 55.8694 952.628 57.469 952.628 58.719C952.628 63.457 914.2 58.191 873.313 47.8531C850.548 42.0976 821.768 36.0623 809.359 34.4446L786.797 31.5025L805.115 31.2475C815.189 31.1099 832.366 32.5516 843.283 34.4558ZM339.549 43.7559C338.021 44.3741 334.975 44.4124 332.78 43.8393C330.585 43.2663 331.835 42.7609 335.557 42.7158C339.28 42.6707 341.076 43.1377 339.549 43.7559ZM959.96 43.7694C958.41 44.3967 955.872 44.3967 954.32 43.7694C952.77 43.1445 954.038 42.6323 957.14 42.6323C960.242 42.6323 961.513 43.1445 959.96 43.7694ZM1161.84 43.6386C1161.09 44.3876 1159.15 44.4688 1157.52 43.8168C1155.72 43.0971 1156.25 42.5623 1158.88 42.454C1161.26 42.357 1162.59 42.8895 1161.84 43.6386ZM323.712 46.1249C320.919 46.6619 316.353 46.6619 313.56 46.1249C310.766 45.5856 313.052 45.1457 318.636 45.1457C324.22 45.1457 326.506 45.5856 323.712 46.1249ZM475.442 48.9654C463.033 51.1449 434.097 59.1341 411.14 66.7217C362.165 82.9077 353.289 85.0759 336.686 84.9089L324.276 84.7849L337.814 81.8292C345.259 80.2048 367.088 73.743 386.322 67.4685C440.301 49.8634 460.379 45.2878 484.467 45.1051C497.404 45.0058 497.004 45.1773 475.442 48.9654ZM852.227 51.1675C862.154 53.5568 886.081 60.6367 905.399 66.9022C924.716 73.1677 946.545 79.749 953.907 81.5291L967.293 84.7668L956.012 84.9225C940.697 85.1323 922.521 80.5996 875.917 64.9506C854.201 57.6563 828.059 50.4703 817.82 48.979C807.581 47.4899 799.206 45.7323 799.206 45.0758C799.206 42.8128 834.225 46.8378 852.227 51.1675ZM480.024 62.8366C461.591 65.5214 442.772 72.0238 404.929 88.7783C369.493 104.468 350.004 111.101 333.146 113.211C322.781 114.508 323.408 114.073 342.326 106.821C353.494 102.541 378.876 92.3747 398.731 84.2298C440.453 67.1166 463.592 60.5127 481.082 60.7248L493.491 60.8759L480.024 62.8366ZM840.969 64.8446C857.143 68.9802 877.717 76.7979 933.45 99.9871C944.618 104.633 958.325 109.788 963.909 111.444L974.062 114.454L961.648 113.382C946.486 112.074 919.191 102.893 885.752 87.8623C853.998 73.5851 829.712 65.1807 813.229 62.7666L800.334 60.8759L811.818 60.6006C818.136 60.4495 831.253 62.3582 840.969 64.8446ZM116.706 68.2492C129.115 68.847 142.314 70.2369 146.037 71.3357C150.985 72.7999 148.257 73.118 135.884 72.5156C126.577 72.0644 101.195 71.1619 79.479 70.5121C57.7631 69.8601 36.442 68.4206 32.0989 67.3106C24.3014 65.3161 65.2243 65.7719 116.706 68.2492ZM1263.98 67.4144C1260.88 68.6733 1242.61 70.1466 1223.37 70.6859C1204.14 71.2273 1178.25 72.0351 1165.84 72.4773C1149.37 73.0684 1145.11 72.7097 1150.05 71.1529C1153.77 69.9797 1180.67 68.2469 1209.83 67.3038C1239 66.3607 1264.38 65.4853 1266.24 65.3567C1268.1 65.2281 1267.09 66.1532 1263.98 67.4144ZM346.274 68.5876C344.724 69.2148 342.186 69.2148 340.634 68.5876C339.084 67.9626 340.352 67.4505 343.454 67.4505C346.556 67.4505 347.827 67.9626 346.274 68.5876ZM953.235 68.5741C951.707 69.1923 948.661 69.2306 946.466 68.6575C944.271 68.0844 945.521 67.5791 949.243 67.534C952.966 67.4888 954.762 67.9559 953.235 68.5741ZM473.779 87.4742C456.194 90.4344 441.362 96.0952 399.859 115.683C378.143 125.931 353.776 136.386 345.71 138.913C331.988 143.216 314.124 146.686 314.124 145.05C314.124 144.651 319.455 142.586 325.969 140.461C332.482 138.336 355.074 128.679 376.169 119.002C412.435 102.367 446.447 89.0874 458.662 86.7906C461.686 86.222 468.73 85.7392 474.314 85.7167L484.467 85.6738L473.779 87.4742ZM847.918 90.9059C858.856 94.0759 888.667 106.115 914.164 117.66C939.664 129.205 964.401 139.911 969.136 141.452C984.287 146.381 976.178 146.632 957.158 141.822C946.595 139.15 921.819 129.13 898.89 118.256C852.847 96.42 844.082 92.9545 824.024 88.6497C810.433 85.7325 810.043 85.4888 818.695 85.3218C823.83 85.2248 836.982 87.736 847.918 90.9059ZM367.661 88.7625C366.912 89.5116 364.965 89.5928 363.338 88.9408C361.538 88.221 362.072 87.6863 364.701 87.578C367.079 87.481 368.41 88.0135 367.661 88.7625ZM150.549 105.564C126.392 107.46 42.7774 110.052 55.7889 108.502C78.7367 105.767 114.755 103.836 141.524 103.899C170.842 103.972 170.846 103.972 150.549 105.564ZM1223.37 107.787C1237.28 109.001 1228.56 109.15 1198.55 108.213C1173.11 107.421 1144.18 106.808 1134.25 106.853C1121.48 106.911 1118.18 106.42 1122.97 105.179C1130.33 103.27 1189.03 104.795 1223.37 107.787ZM464.161 115.503C441.423 122.953 434.045 126.407 398.038 146.478C361.68 166.746 339.639 176.463 325.129 178.622C315.405 180.071 315.477 179.994 329.917 173.65C337.983 170.105 359.812 159.002 378.425 148.98C417.629 127.869 435.128 120.191 457.268 114.384C479.271 108.615 483.228 109.256 464.161 115.503ZM848.843 118.267C858.149 121.301 887.439 134.976 913.929 148.653C940.419 162.333 965.802 174.888 970.334 176.556C976.207 178.715 977.184 179.631 973.734 179.746C963.624 180.078 939.165 170.399 910.888 154.878C864.722 129.536 843.468 119.293 829.514 115.659C822.396 113.804 816.094 111.807 815.507 111.221C813.181 108.895 832.857 113.053 848.843 118.267ZM609.95 129.703C599.282 149.283 579.29 154.542 557.382 143.532C544.378 136.996 545.456 135.123 559.496 139.863C576.357 145.556 588.507 143.757 601.232 133.686C612.598 124.69 612.709 124.641 609.95 129.703ZM465.738 132.515C460.4 134.938 444.938 144.608 431.378 154.005C406.935 170.945 387.166 181.499 384.63 178.965C383.906 178.241 384.424 177.648 385.78 177.648C387.136 177.648 402.147 168.406 419.136 157.114C449.757 136.756 465.535 128.111 472.057 128.111C473.919 128.111 471.074 130.092 465.738 132.515ZM838.166 135.085C845.876 138.976 861.328 148.315 872.51 155.837C883.69 163.357 896.9 171.838 901.863 174.681C906.827 177.524 909.586 179.861 907.993 179.877C902.723 179.926 881.826 168.233 863.113 154.763C852.969 147.46 838.906 138.453 831.862 134.748C824.816 131.044 820.2 128.011 821.604 128.011C823.007 128.011 830.459 131.195 838.166 135.085ZM204.466 137.445C214.386 138.027 160.639 140.77 109.938 142.273C73.1526 143.363 70.4317 143.232 90.76 141.357C136.768 137.113 171.008 135.188 184.16 136.107C191.477 136.619 200.614 137.221 204.466 137.445ZM1203.07 140.883C1224.65 142.34 1225.75 142.622 1215.47 144.066C1209.27 144.935 1183.89 144.22 1159.07 142.471C1134.25 140.725 1107.35 138.909 1099.28 138.435C1091.21 137.961 1105.94 137.957 1132 138.428C1158.05 138.9 1190.04 140.003 1203.07 140.883ZM474.088 146.426C468.628 150.352 455.023 161.902 443.855 172.093C423.457 190.707 407.93 202.466 403.753 202.466C402.517 202.466 404.435 200.221 408.015 197.48C411.596 194.736 423.154 184.705 433.702 175.186C453.126 157.656 477.732 139.292 481.795 139.292C483.016 139.292 479.548 142.503 474.088 146.426ZM824.697 146.833C831.152 150.982 847.602 164.291 861.252 176.409C892.394 204.061 892.089 203.743 883.051 199.179C878.909 197.087 866.427 187.072 855.311 176.923C844.195 166.775 829.451 154.154 822.547 148.881C807.5 137.39 808.506 136.431 824.697 146.833ZM479.399 166.931C470.65 175.928 457.045 190.79 449.162 199.962C441.278 209.131 431.277 219.284 426.934 222.523C413.936 232.216 462.169 177.691 482.098 160.162C488.092 154.889 493.518 150.573 494.152 150.573C494.786 150.573 488.146 157.933 479.399 166.931ZM827.553 175.786C852.288 201.586 874.881 228.08 869.864 225.402C867.154 223.956 857.509 214.462 848.43 204.302C839.351 194.14 824.814 178.223 816.128 168.93C807.441 159.634 803.38 154.163 807.103 156.771C810.826 159.379 820.029 167.937 827.553 175.786ZM498.441 171.443C494.173 176.716 483.02 192.708 473.659 206.978C464.296 221.249 452.814 236.478 448.144 240.821L439.649 248.718L446.454 239.693C450.197 234.73 459.935 220.475 468.091 208.016C481.213 187.979 502.175 161.854 505.133 161.854C505.72 161.854 502.71 166.17 498.441 171.443ZM824.523 206.978C835.779 223.731 847.101 239.777 849.682 242.64C853.364 246.719 853.563 247.529 850.607 246.394C845.957 244.609 832.959 227.771 816.696 202.466C809.916 191.918 800.54 178.212 795.858 172.007L787.345 160.726L795.702 168.623C800.3 172.966 813.269 190.226 824.523 206.978ZM230.644 171.242C218.856 172.348 197.027 175.292 182.136 177.788C167.245 180.281 145.416 182.751 133.628 183.277L112.194 184.231L133.628 180.824C185.694 172.553 215.052 169.106 232.9 169.169L252.078 169.237L230.644 171.242ZM1128.61 176.287C1150.33 179.428 1171.14 182.39 1174.86 182.869C1178.59 183.347 1174.52 183.888 1165.84 184.071C1157.15 184.254 1138.37 182.474 1124.1 180.114C1109.83 177.756 1088.51 174.708 1076.72 173.343C1064.93 171.976 1051.73 170.435 1047.39 169.918C1043.04 169.401 1050.66 169.338 1064.31 169.778C1077.96 170.218 1106.9 173.147 1128.61 176.287ZM279.669 199.316C278.92 200.065 276.973 200.147 275.346 199.494C273.546 198.775 274.081 198.24 276.709 198.132C279.087 198.035 280.418 198.567 279.669 199.316ZM264.487 201.868C260.144 202.382 240.736 206.238 221.358 210.437C201.979 214.636 179.135 218.647 170.593 219.349C157.51 220.425 160.041 219.545 186.648 213.758C233.176 203.639 250.894 200.595 262.231 200.774C271.008 200.911 271.315 201.058 264.487 201.868ZM1088.26 210.135C1108.59 214.412 1128.27 218.379 1132 218.952C1135.72 219.523 1131.66 219.692 1122.97 219.329C1114.28 218.965 1094.99 215.904 1080.1 212.526C1065.21 209.147 1044.91 205.009 1034.98 203.33L1016.93 200.277L1034.11 201.317C1043.56 201.888 1067.93 205.857 1088.26 210.135ZM298.33 221.551C289.023 224.435 266.687 231.945 248.694 238.24C230.701 244.535 211.41 250.293 205.826 251.035C199.491 251.879 208.396 248.03 229.516 240.801C273.04 225.901 305.029 216.244 310.739 216.281C313.221 216.296 307.637 218.668 298.33 221.551ZM1046.26 235.233C1073.56 244.447 1093.41 252.012 1090.36 252.044C1087.32 252.075 1062.45 244.564 1035.09 235.352C1007.73 226.14 983.312 218.052 980.83 217.377C978.348 216.705 980.887 216.675 986.471 217.316C992.055 217.955 1018.96 226.016 1046.26 235.233ZM337.814 239.506C325.405 243.587 305.067 251.037 292.62 256.066C265.435 267.049 237.697 275.7 235.788 273.793C235.028 273.031 235.581 272.408 237.02 272.408C238.46 272.408 256.703 265.858 277.564 257.853C314.92 243.52 350.363 232.011 356.991 232.063C358.853 232.078 350.223 235.427 337.814 239.506ZM988.727 247.982C1053.18 271.882 1059.69 274.443 1056.26 274.551C1050.25 274.743 1029.47 267.907 1000.01 256.048C984.497 249.805 964.698 242.265 956.012 239.294C944.553 235.373 942.696 234.274 949.243 235.289C954.207 236.061 971.975 241.771 988.727 247.982ZM921.212 253.366C939.212 260.852 994.282 288.201 991.353 288.201C986.825 288.201 967.573 279.747 932.322 262.282C898.745 245.647 894.546 242.276 921.212 253.366ZM388.391 248.357C384.858 251.236 305.261 288.19 302.687 288.145C297.328 288.052 381.119 247.969 387.263 247.685C388.4 247.633 388.908 247.935 388.391 248.357ZM875.917 265.639C877.778 266.842 878.286 267.826 877.045 267.826C875.804 267.826 873.266 266.842 871.405 265.639C869.543 264.437 869.036 263.453 870.276 263.453C871.517 263.453 874.056 264.437 875.917 265.639ZM412.268 269.748C390.342 283.003 359.624 299.482 356.847 299.48C355.065 299.48 367.313 291.881 384.066 282.597C400.818 273.313 415.54 265.703 416.781 265.685C418.022 265.669 415.991 267.499 412.268 269.748ZM912.637 284.72C925.844 292.114 936.212 298.6 935.675 299.137C934.668 300.146 885.569 273.475 881.557 269.741C877.345 265.82 888.304 271.102 912.637 284.72ZM551.401 288.551C557.425 290.841 568.688 292.813 576.431 292.937L590.508 293.161L580.621 296.265C565.006 301.168 546.607 295.737 527.898 280.706C515.911 271.075 517.385 268.523 529.943 277.162C535.721 281.137 545.377 286.263 551.401 288.551ZM768.605 277.121C753.712 292.788 729.589 301.567 713.41 297.21C699.956 293.587 701.147 291.502 716.18 292.362C731.807 293.258 744.663 289.185 761.979 277.859C776.141 268.595 776.78 268.525 768.605 277.121ZM579.493 332.17C572.522 337.45 552.963 340.552 542.07 338.104C525.572 334.397 527.862 332.166 547.39 332.917C557.687 333.314 569.573 332.644 573.798 331.428C584.159 328.452 584.371 328.479 579.493 332.17ZM744.688 332.926C766.564 332.139 769.07 333.544 753.006 337.59C741.838 340.401 727.064 338.946 717.419 334.081C709.265 329.97 709.489 328.447 717.821 331.351C721.455 332.617 733.544 333.325 744.688 332.926ZM584.879 352.492C578.812 358.949 562.926 367.168 556.516 367.166C554.115 367.166 558.244 364.262 565.69 360.716C573.135 357.169 581.167 352.088 583.539 349.423C585.908 346.759 588.367 345.096 588.998 345.73C589.633 346.362 587.778 349.405 584.879 352.492ZM728.136 361.282C734.341 364.456 737.894 367.056 736.033 367.06C729.582 367.076 714.567 358.678 707.83 351.285L701.062 343.857L708.958 349.685C713.302 352.889 721.931 358.107 728.136 361.282ZM601.024 368.642C596.415 377.606 582.611 392.336 582.611 388.289C582.611 387.032 585.249 383.544 588.471 380.534C591.695 377.527 596.333 371.16 598.781 366.385C601.229 361.611 603.741 358.214 604.361 358.834C604.981 359.454 603.479 363.868 601.024 368.642ZM704.026 380.469C711.291 389.444 711.481 390.01 706.032 386.438C699.442 382.12 692.253 371.487 689.954 362.656C688.668 357.71 688.95 357.85 692.244 363.784C694.311 367.507 699.613 375.015 704.026 380.469ZM631.55 376.11C630.822 382.267 628.584 390.134 626.58 393.595C624.577 397.054 623.611 397.853 624.437 395.371C625.265 392.889 627.083 385.022 628.482 377.885C631.605 361.954 633.346 360.946 631.55 376.11ZM668.065 392.151C671.278 401.366 668.818 400.434 664.847 390.931C663.049 386.628 661.698 378.758 661.844 373.445L662.108 363.784L663.936 374.666C664.942 380.649 666.799 388.519 668.065 392.151ZM301.728 426.394C300.273 432.551 287.049 498.414 287.049 499.508C287.049 499.934 295.596 500.284 306.04 500.284H325.03L327.474 488.892C328.818 482.627 329.917 476.028 329.917 474.227C329.917 471.633 333.786 470.947 348.531 470.92C376.706 470.87 383.078 465.64 385.679 440.432C387.658 421.263 387.782 421.317 342.094 421.317C303.339 421.317 302.917 421.371 301.728 426.394ZM386.816 458.091C382.823 478.318 379.553 496.085 379.553 497.574C379.553 499.47 385.313 500.284 398.731 500.284C413.985 500.284 417.909 499.614 417.909 497.01C417.909 495.21 419.007 488.61 420.352 482.345C422.302 473.25 423.709 470.953 427.328 470.953C431.356 470.953 431.809 472.278 431.374 482.798C431.105 489.312 431.013 495.914 431.166 497.464C431.365 499.472 436.843 500.284 450.159 500.284H468.874L469.409 485.795C469.702 477.828 468.933 470.683 467.698 469.92C466.37 469.099 467.134 466.852 469.569 464.417C475.218 458.768 480.112 432.449 476.701 426.073C474.257 421.511 472.529 421.317 434.117 421.317H394.079L386.816 458.091ZM496.607 423.589C491.528 426.556 488.6 434.712 483.354 460.485C475.083 501.121 474.302 500.284 520.527 500.284H555.135L560.444 493.976C567.623 485.445 577.72 435.13 573.925 426.8C571.432 421.326 571.364 421.317 535.842 421.385C516.272 421.423 498.617 422.414 496.607 423.589ZM606.315 426.394C604.86 432.551 591.636 498.414 591.636 499.508C591.636 499.934 608.928 500.284 630.061 500.284C658.835 500.284 668.708 499.576 669.358 497.464C669.836 495.914 670.838 491.85 671.587 488.439L672.945 482.234H653.575H634.204L634.919 476.03C635.63 469.846 635.7 469.823 655.353 469.173C673.615 468.571 675.154 468.154 676.16 463.533C679.346 448.888 680.108 449.576 659.886 448.865C643.127 448.274 641.272 447.769 641.272 443.789C641.272 439.73 642.915 439.367 661.296 439.367H681.32L682.73 432.316C683.506 428.438 684.14 424.376 684.14 423.291C684.14 422.206 666.901 421.317 645.828 421.317C607.955 421.317 607.502 421.376 606.315 426.394ZM695.243 460.291L673.631 499.156L685.09 499.86C694.622 500.447 697.07 499.783 699.645 495.912C704.092 489.229 723.667 489.123 725.406 495.772C726.469 499.835 728.483 500.284 745.613 500.284H764.639L759.493 468.133C756.661 450.451 753.733 432.684 752.984 428.65L751.621 421.317L734.239 421.371L716.855 421.423L695.243 460.291ZM787.968 425.342C784.148 428.435 781.764 435.351 777.66 455.237C771.584 484.673 770.981 493.718 774.839 497.577C776.714 499.451 788.39 500.284 812.802 500.284C856.694 500.284 855.372 501.184 863.325 465.877L864.722 459.672H842.381H820.038L818.853 465.87C818.201 469.282 818.738 472.731 820.047 473.541C823.352 475.583 820.408 482.234 816.198 482.234C814.084 482.234 812.743 480.193 812.743 476.971C812.743 468.666 817.703 445.296 820.123 442.187C823.512 437.837 828.537 438.848 828.537 443.879C828.537 448.035 830.042 448.391 847.613 448.391H866.687L868.201 440.321C869.056 435.77 868.629 429.868 867.224 426.784C864.74 421.333 864.634 421.317 828.835 421.317C797.751 421.317 792.271 421.856 787.968 425.342ZM875.917 422.093C875.917 423.187 862.693 489.05 861.238 495.208L860.038 500.284H899.564C935.693 500.284 939.093 499.946 939.122 496.336C939.138 494.165 939.765 490.104 940.512 487.311C941.845 482.334 941.491 482.234 922.433 482.234C911.739 482.234 902.991 481.359 902.991 480.29C902.991 479.218 905.53 465.879 908.632 450.648C911.734 435.416 914.272 422.585 914.272 422.134C914.272 421.685 905.642 421.317 895.095 421.317C884.547 421.317 875.917 421.667 875.917 422.093ZM949.904 460.801L942.015 500.284H980.882H1019.75L1021.16 493.233C1021.94 489.355 1022.57 485.294 1022.57 484.209C1022.57 483.123 1013.82 482.234 1003.13 482.234C984.07 482.234 983.716 482.135 985.049 477.158C985.796 474.365 986.423 471.321 986.439 470.389C986.457 469.458 995.04 468.697 1005.52 468.697C1015.99 468.697 1025.04 467.928 1025.62 466.987C1026.2 466.048 1027.38 461.48 1028.26 456.834L1029.84 448.391H1010.25C992.802 448.391 990.735 447.958 991.407 444.443C992.046 441.104 995.2 440.393 1011.86 439.843C1031.23 439.202 1031.57 439.091 1032.89 433.074C1033.63 429.71 1034.62 425.69 1035.1 424.137C1035.77 421.956 1027.11 421.317 996.879 421.317H957.794L949.904 460.801ZM346.218 440.626C349.196 443.606 344.912 450.648 340.12 450.648C335.934 450.648 335.242 449.668 336.133 445.007C337.126 439.82 342.901 437.311 346.218 440.626ZM437.808 444.443C437.093 449.474 426.934 453.481 426.934 448.732C426.934 443.38 430.004 439.367 434.101 439.367C437.402 439.367 438.345 440.657 437.808 444.443ZM535.152 444.443C535.048 451.13 529.615 476.287 527.555 479.62C525.121 483.561 519.438 482.756 519.438 478.471C519.438 470.516 524.613 444.874 526.759 442.187C530.407 437.625 535.238 438.924 535.152 444.443ZM720.72 466.441C721.584 472.325 721.02 473.21 716.406 473.21C711.235 473.21 711.19 473.036 714.599 466.441C716.523 462.718 718.466 459.672 718.913 459.672C719.362 459.672 720.174 462.718 720.72 466.441Z" fill="currentColor"/>
</svg>
