<svg width="2175" height="501" viewBox="0 0 2175 501" fill="none" xmlns="http://www.w3.org/2000/svg">
<path d="M51.5434 13.2491C33.64 22.5084 21.2928 34.2368 13.2671 50.2861C2.15464 71.8911 0.919922 87.3232 0.919922 247.817C0.919922 411.397 1.53728 423.743 13.8845 448.434C23.1449 467.57 33.64 478.064 52.7781 487.323C78.7072 500.286 81.794 500.286 1087.47 500.286C2093.15 500.286 2096.24 500.286 2122.17 487.323C2141.3 478.064 2151.8 467.57 2161.06 448.434C2173.41 423.743 2174.02 411.397 2174.02 247.817C2174.02 87.3232 2173.41 71.8911 2161.68 50.2861C2153.65 33.6195 2141.3 21.8911 2122.78 13.2491L2096.24 0.286133H1086.85H78.0898L51.5434 13.2491ZM2106.11 46.5824C2115.99 51.5207 2127.1 61.3972 2130.81 67.5701C2138.83 83.0022 2139.45 407.076 2130.81 428.681C2117.23 465.101 2181.43 463.249 1090.56 463.249C4.00672 463.249 57.717 465.101 44.1351 429.298C36.1094 408.311 36.1094 92.8787 44.1351 71.8911C57.717 35.4713 -7.10575 37.9405 1086.24 37.3232C1968.44 37.3232 2090.06 38.5577 2106.11 46.5824Z" fill="white"/>
<path d="M78.0899 82.3847C76.2379 86.7057 75.6205 165.101 76.2379 256.459L78.0899 423.125H1087.47H2096.85V250.286V77.4464L1088.71 75.5946C279.349 74.36 79.942 75.5946 78.0899 82.3847ZM375.657 147.2C397.265 160.78 401.586 213.249 383.683 236.706L370.718 252.755L383.683 259.545C395.413 265.718 396.647 271.274 394.795 313.866C392.943 360.78 392.943 361.397 376.274 363.249L358.988 365.101V318.187V271.274L286.757 273.125L213.909 274.977L212.057 320.039C210.205 365.101 210.205 365.101 193.536 363.249L176.867 361.397L175.015 251.521L173.781 142.261H270.706C324.416 142.261 371.336 144.73 375.657 147.2ZM647.912 249.669C678.78 308.311 704.71 358.311 704.71 360.78C704.71 362.632 696.684 364.483 686.189 364.483C671.372 364.483 664.581 359.545 652.234 339.792L636.8 315.101H565.804H494.807L482.46 339.792C471.965 360.163 466.409 364.483 451.592 364.483C441.097 364.483 433.071 361.397 433.071 358.311C433.071 354.607 458.383 304.607 489.251 247.2L545.431 142.261H568.273H590.498L647.912 249.669ZM957.827 163.866V185.471H868.31H778.793V247.2V308.311L867.075 310.162L954.74 312.014V336.706V361.397H860.901C738.664 361.397 745.455 367.57 742.986 250.903C741.134 175.595 742.368 160.78 751.011 152.138C759.655 144.113 776.323 142.261 859.667 142.261H957.827V163.866ZM1198.6 163.866V185.471H1112.17H1025.74V207.076V228.681H1081.3H1136.86V250.286V271.891H1081.3H1025.74V293.496V315.101H1112.17H1198.6V339.792V364.483L1095.5 363.249L991.782 361.397L989.93 251.521L988.695 142.261H1093.65H1198.6V163.866ZM1272.68 228.681V315.101H1353.55H1433.81L1431.96 337.94L1430.11 361.397L1333.18 363.249L1235.64 365.101V253.372V142.261H1254.16H1272.68V228.681ZM1506.04 251.521L1504.19 361.397H1485.67H1467.15L1465.3 251.521L1464.06 142.261H1485.67H1507.28L1506.04 251.521ZM1662.23 226.829L1732.61 312.014L1734.46 226.829L1736.32 142.261H1754.84H1772.74L1771.51 251.521L1769.65 361.397L1744.34 363.249L1718.41 365.101L1648.65 279.916L1578.27 194.73L1575.19 278.064L1572.1 361.397L1555.43 363.249L1538.14 365.101V253.99V142.261H1565.31H1591.85L1662.23 226.829ZM2013.51 163.866V185.471H1927.08H1840.65V207.076V228.681H1896.21H1951.78V250.286V271.891H1896.21H1840.65V293.496V315.101H1927.08H2013.51V339.792V364.483L1910.41 363.249L1806.7 361.397L1804.84 251.521L1803.61 142.261H1908.56H2013.51V163.866ZM2061.05 152.138C2062.9 157.076 2059.81 166.335 2054.26 171.891C2045 181.15 2043.76 181.15 2034.5 171.891C2021.54 158.928 2027.71 142.261 2044.38 142.261C2051.17 142.261 2058.58 146.582 2061.05 152.138Z" fill="white"/>
<path d="M212.057 208.311L213.909 225.595L286.757 227.447L358.988 229.298V210.163V191.644H284.288H210.205L212.057 208.311Z" fill="white"/>
<path d="M556.543 198.434C552.221 206.459 541.726 224.978 533.701 239.175L518.267 265.718H565.186H612.105L592.35 229.916C566.421 183.002 565.186 181.768 556.543 198.434Z" fill="white"/>
<path d="M2047.47 154.607C2051.17 160.78 2049.93 162.015 2042.53 158.928C2035.74 156.459 2033.88 157.694 2036.35 164.484C2038.21 168.805 2041.91 173.126 2044.38 173.126C2052.4 173.126 2056.73 155.225 2049.32 150.904C2045 147.817 2044.38 149.669 2047.47 154.607Z" fill="white"/>
</svg>
