<svg width="3039" height="700" viewBox="0 0 3039 700" fill="none" xmlns="http://www.w3.org/2000/svg">
<path d="M70.8761 18.2257C45.8471 31.1702 28.5857 47.5665 17.3659 70.0035C1.83063 100.207 0.104492 121.781 0.104492 346.152C0.104492 574.837 0.96756 592.096 18.2289 626.615C31.1749 653.366 45.8471 668.037 72.6022 680.981C108.851 699.104 113.166 699.104 1519.1 699.104C2925.04 699.104 2929.36 699.104 2965.61 680.981C2992.36 668.037 3007.03 653.366 3019.98 626.615C3037.24 592.096 3038.1 574.837 3038.1 346.152C3038.1 121.781 3037.24 100.207 3020.84 70.0035C3009.62 46.7035 2992.36 30.3072 2966.47 18.2257L2929.36 0.103517H1518.24H107.988L70.8761 18.2257ZM2943.17 64.8257C2956.98 71.7294 2972.51 85.5369 2977.69 94.1665C2988.91 115.741 2989.77 568.796 2977.69 599C2958.7 649.915 3048.46 647.326 1523.42 647.326C4.41983 647.326 79.5068 649.915 60.5193 599.863C49.2994 570.522 49.2994 129.548 60.5193 100.207C79.5068 49.2924 -11.1154 52.7443 1517.38 51.8813C2750.7 51.8813 2920.73 53.6072 2943.17 64.8257Z" fill="white"/>
<path d="M107.988 114.877C105.399 120.918 104.536 230.514 105.399 358.233L107.988 591.233H1519.1H2930.22V349.603V107.974L1520.83 105.385C389.348 103.659 110.577 105.385 107.988 114.877ZM523.987 205.488C554.194 224.474 560.236 297.825 535.207 330.618L517.082 353.055L535.207 362.548C551.605 371.177 553.331 378.944 550.742 438.488C548.153 504.074 548.153 504.937 524.85 507.525L500.684 510.114V444.529V378.944L399.705 381.533L297.863 384.122L295.274 447.118C292.685 510.114 292.685 510.114 269.382 507.525L246.079 504.937L243.49 351.329L241.764 198.585H377.265C452.352 198.585 517.945 202.037 523.987 205.488ZM904.6 348.74C947.753 430.722 984.002 500.622 984.002 504.074C984.002 506.663 972.782 509.251 958.11 509.251C937.397 509.251 927.903 502.348 910.641 474.733L889.065 440.214H789.812H690.559L673.298 474.733C658.626 503.211 650.858 509.251 630.144 509.251C615.472 509.251 604.252 504.937 604.252 500.622C604.252 495.444 639.638 425.544 682.791 345.288L761.331 198.585H793.264H824.335L904.6 348.74ZM1337.86 228.788V258.992H1212.72H1087.57V345.288V430.722L1210.99 433.311L1333.54 435.9V470.418V504.937H1202.36C1031.47 504.937 1040.96 513.566 1037.51 350.466C1034.92 245.185 1036.65 224.474 1048.73 212.392C1060.82 201.174 1084.12 198.585 1200.63 198.585H1337.86V228.788ZM1674.46 228.788V258.992H1553.63H1432.8V289.196V319.4H1510.47H1588.15V349.603V379.807H1510.47H1432.8V410.011V440.214H1553.63H1674.46V474.733V509.251L1530.32 507.525L1385.33 504.937L1382.74 351.329L1381.01 198.585H1527.74H1674.46V228.788ZM1778.02 319.4V440.214H1891.09H2003.29L2000.7 472.144L1998.11 504.937L1862.61 507.525L1726.24 510.114V353.918V198.585H1752.13H1778.02V319.4ZM2104.26 351.329L2101.68 504.937H2075.78H2049.89L2047.3 351.329L2045.58 198.585H2075.78H2105.99L2104.26 351.329ZM2322.62 316.811L2421.01 435.9L2423.6 316.811L2426.19 198.585H2452.08H2477.11L2475.38 351.329L2472.79 504.937L2437.41 507.525L2401.16 510.114L2303.63 391.025L2205.24 271.937L2200.93 388.437L2196.61 504.937L2173.31 507.525L2149.14 510.114V354.781V198.585H2187.12H2224.23L2322.62 316.811ZM2813.71 228.788V258.992H2692.88H2572.05V289.196V319.4H2649.72H2727.4V349.603V379.807H2649.72H2572.05V410.011V440.214H2692.88H2813.71V474.733V509.251L2669.57 507.525L2524.58 504.937L2521.99 351.329L2520.26 198.585H2666.99H2813.71V228.788ZM2880.16 212.392C2882.75 219.296 2878.44 232.24 2870.67 240.007C2857.72 252.951 2856 252.951 2843.05 240.007C2824.93 221.885 2833.56 198.585 2856.86 198.585C2866.35 198.585 2876.71 204.625 2880.16 212.392Z" fill="white"/>
<path d="M295.274 290.922L297.863 315.085L399.705 317.674L500.684 320.263V293.511V267.622H396.253H292.685L295.274 290.922Z" fill="white"/>
<path d="M776.866 277.115C770.824 288.333 756.152 314.222 744.932 334.07L723.355 371.178H788.949H854.542L826.924 321.126C790.675 255.541 788.949 253.815 776.866 277.115Z" fill="white"/>
<path d="M2861.17 215.845C2866.35 224.474 2864.63 226.2 2854.27 221.885C2844.78 218.433 2842.19 220.159 2845.64 229.652C2848.23 235.693 2853.41 241.733 2856.86 241.733C2868.08 241.733 2874.12 216.707 2863.76 210.667C2857.72 206.352 2856.86 208.941 2861.17 215.845Z" fill="white"/>
</svg>
