<svg width="1576" height="500" viewBox="0 0 1576 500" fill="none" xmlns="http://www.w3.org/2000/svg">
<path fill-rule="evenodd" clip-rule="evenodd" d="M241.951 0.734029C221.968 1.69458 215.279 2.78645 208.181 6.24686C197.546 11.4314 190.216 19.5679 171.838 46.5899C148.927 80.2775 129.537 117.663 119.031 148.41L115.609 158.426L119.214 162.172C130.433 173.826 161.388 197.425 180.54 208.923L192.447 216.072L203.979 216.692C210.322 217.034 228.108 217.312 243.505 217.312C265.292 217.312 271.491 217.052 271.467 216.14C271.45 215.495 269.37 212.382 266.846 209.222C263.358 204.855 261.503 203.336 259.117 202.887C257.389 202.564 248.24 199.972 238.785 197.129C204.591 186.847 196.459 182.761 184.089 169.649C174.167 159.131 170.022 153.143 169.516 148.597C168.959 143.595 172.312 134.836 181.811 116.473C197.328 86.4789 214.599 63.2531 231.936 49.07C238.057 44.0628 238.828 43.7092 245.478 42.8659C266.537 40.1962 305.439 41.0808 312.456 44.3893C316.845 46.4586 333.125 62.1885 341.175 72.1391C358.067 93.016 371.613 118.789 381.185 148.261C385.413 161.279 390.125 180.044 391.165 187.999C391.519 190.707 392.226 192.923 392.735 192.923C393.492 192.923 422.444 170.725 432.149 162.703L434.74 160.561L432.408 151.911C425.182 125.101 406.433 87.5445 381.983 50.8992C358.263 15.3495 347.995 5.51051 331.498 2.52193C318.32 0.13463 273.179 -0.766827 241.951 0.734029ZM613.881 56.0059V69.1749L619.51 77.545L625.138 85.9151V159.118V232.321H649.527H673.916V204.18V176.039L692.442 176.042L710.968 176.047L725.468 202.865C733.444 217.614 740.409 230.283 740.946 231.017C741.759 232.128 746.368 232.31 768.32 232.102L794.716 231.852L778.403 202.817C769.432 186.848 762.091 173.446 762.091 173.034C762.091 172.623 762.736 172.287 763.525 172.287C766.406 172.287 775.795 166.712 779.584 162.751C784.325 157.796 787.849 150.943 789.988 142.512C792.35 133.211 792.351 85.6712 789.991 76.3725C785.43 58.411 774.7 48.026 756.777 44.2288C751.52 43.1154 738.074 42.8677 682.124 42.8537L613.881 42.8377V56.0059ZM1248.12 44.6979C1234.33 49.7079 1222.41 64.4276 1217.91 82.0157C1216.23 88.5782 1216.1 92.7534 1216.1 138.517C1216.1 184.628 1216.22 188.417 1217.95 195.166C1220.65 205.716 1225.74 214.814 1233.1 222.251C1240.27 229.492 1246.81 232.96 1255.74 234.25C1263.35 235.352 1333 235.352 1340.62 234.25C1349.54 232.96 1356.08 229.492 1363.26 222.251C1375.5 209.886 1380.26 196.518 1380.26 174.482V161.03H1358.68H1337.11L1337.1 168.769C1337.09 178.568 1335.9 182.843 1331.95 187.149L1328.81 190.578L1298.66 190.85L1268.52 191.122L1265.37 187.98C1259.94 182.543 1259.72 180.607 1259.72 138.048C1259.72 103.458 1259.89 99.1545 1261.38 95.2748C1262.3 92.9016 1264.13 89.9468 1265.44 88.7086L1267.84 86.4564L1297.86 86.1843L1327.87 85.9123L1331.45 89.4881C1335.81 93.85 1337.09 98.118 1337.1 108.266L1337.11 116.004H1358.68H1380.26V102.553C1380.26 86.6909 1378.52 78.3789 1373.01 67.8833C1368.44 59.1708 1359.18 49.7004 1351.65 46.0411L1346.02 43.3068L1299.59 43.0891C1255.61 42.8818 1252.89 42.9672 1248.12 44.6979ZM876.635 46.8103C876.196 47.9791 860.376 89.7902 841.477 139.724C822.579 189.658 807.117 230.926 807.117 231.432C807.117 232.015 816.755 232.259 833.54 232.101L859.964 231.852L865.731 215.905L871.498 199.959H904.672H937.847L943.614 215.905L949.381 231.852L975.91 232.101L1002.44 232.351L1001.9 230.225C1001.6 229.056 985.772 186.943 966.727 136.641L932.101 45.1828L904.768 44.9342L877.434 44.6857L876.635 46.8103ZM1007.87 58.0686L1007.88 71.4478L1014.9 81.5974L1021.93 91.7469V162.034V232.321H1046.31H1070.69L1070.93 180.103L1071.17 127.886L1102.51 180.103L1133.85 232.321H1159.97H1186.08V138.517V44.7138H1161.23H1136.38L1136.14 97.8591L1135.9 151.004L1104.91 98.0936L1073.93 45.1828L1040.89 44.9361L1007.86 44.6894L1007.87 58.0686ZM1397.14 57.4795V70.2443L1404.18 80.4192L1411.21 90.595V161.458V232.321H1436.07H1460.93V194.33V156.34H1493.76H1526.59V194.33V232.321H1550.98H1575.37V138.517V44.7138H1550.98H1526.59V81.2972V117.881H1493.76H1460.93V81.2972V44.7138H1429.03H1397.14V57.4795ZM734.214 82.5832C741.929 85.8701 743.77 92.229 743.116 113.319C742.632 128.87 741.542 132.099 735.794 134.998C732.906 136.456 729.27 136.638 703.229 136.639L673.916 136.641V108.969V81.2972H702.556C724.724 81.2972 731.878 81.588 734.214 82.5832ZM914.791 132.666C919.998 148.021 924.54 161.317 924.884 162.214C925.467 163.732 924.077 163.844 904.672 163.844C885.21 163.844 883.877 163.736 884.472 162.203C884.822 161.3 889.371 148.004 894.582 132.655C899.793 117.306 904.341 104.748 904.689 104.748C905.038 104.748 909.584 117.311 914.791 132.666ZM22.2871 130.06C14.2932 131.757 6.96997 136.763 4.00578 142.558C-0.489286 151.345 -0.402987 190.836 4.1765 220.595C10.9576 264.667 26.4032 302.107 51.37 334.994C64.8467 352.746 85.128 370.506 101.046 378.497C108.38 382.178 121.397 387.097 123.808 387.097C124.611 387.097 124.267 384.241 122.611 377.18C120.39 367.7 120.095 367.09 115.942 363.344C109.132 357.2 100.829 348.149 94.8554 340.359C75.4634 315.068 57.7224 274.791 52.9543 245.233C50.8297 232.059 47.0785 202.215 47.4968 201.816C47.6516 201.67 52.2095 205.33 57.6267 209.95C85.5304 233.744 131.129 265.485 156.39 278.696C167.022 284.258 175.107 287.121 184.261 288.564C188.106 289.171 222.404 289.525 277.127 289.521C358.231 289.517 364.45 289.402 372.398 287.761C383.661 285.437 391.474 282.039 407.661 272.426C438.154 254.316 481.136 223.252 500.478 205.346C505.758 200.457 505.979 200.351 505.539 202.91C505.287 204.382 503.993 214.451 502.664 225.286C499.154 253.913 496.885 263.419 488.445 284.851C476.451 315.306 461.697 338.729 442.356 358.018L432.481 367.867L430.285 377.139C429.078 382.239 428.284 386.604 428.52 386.841C429.309 387.629 439.789 384.162 447.528 380.551C491.374 360.094 528.999 306.859 544.005 244.046C550.217 218.047 552.373 196.959 551.791 167.879C551.418 149.238 551.203 147.084 549.363 143.542C541.937 129.242 518.94 124.667 506.317 134.98C504.252 136.668 494.926 144.628 485.593 152.669C437.979 193.693 393.728 227.802 377.966 235.63C362.059 243.529 367.824 243.108 275.72 243.108H194.111L184.868 239.91C179.675 238.111 172.184 234.55 167.771 231.779C148.459 219.655 96.2456 178.195 55.7562 142.837C49.3101 137.208 42.6303 132.015 40.9118 131.296C36.9121 129.626 27.331 128.989 22.2871 130.06ZM613.881 283.058V296.273L620.917 306.426L627.952 316.578V387.013V457.449H652.341H676.73V419.459V381.468H709.561H742.392V419.459V457.449H767.25H792.108V363.646V269.842H767.25H742.392V306.426V343.009H709.561H676.73V306.426V269.842H645.306H613.881V283.058ZM876.985 271.001C876.745 271.654 860.927 313.476 841.832 363.939C822.739 414.404 807.117 456.094 807.117 456.585C807.117 457.136 817.265 457.383 833.554 457.23L859.991 456.98L865.758 441.034L871.525 425.087H904.686H937.847L943.614 441.034L949.381 456.98L975.91 457.23L1002.44 457.479L1001.89 455.354C1001.59 454.185 985.762 412.072 966.71 361.77L932.071 270.311L904.746 270.063C883.386 269.868 877.326 270.073 876.985 271.001ZM1006.92 283.046V296.273L1013.95 306.426L1020.99 316.578V387.013V457.449H1045.37H1069.75L1069.99 405.385L1070.24 353.323L1101.47 405.385L1132.71 457.449H1158.46H1184.21V363.646V269.842H1159.83H1135.44L1135.2 323.162L1134.96 376.482L1103.86 323.397L1072.75 270.311L1039.84 270.065L1006.92 269.818V283.046ZM1210.5 283.168L1210.52 296.576L1216.59 305.43L1222.67 314.284V385.905V457.526L1283.4 457.224C1337.78 456.954 1344.73 456.751 1349.77 455.29C1368.1 449.972 1379.68 439.05 1385.64 421.482L1388.23 413.831V363.646V313.461L1385.61 306.06C1380.49 291.586 1373.09 282.719 1361.32 276.973C1347.33 270.14 1350.62 270.409 1276.84 270.067L1210.47 269.76L1210.5 283.168ZM122.814 295.316C125.624 312.718 155.63 386.201 179.068 433.08C197.166 469.278 202.295 476.77 213.624 483.556C241.431 500.21 281.021 504.602 316.326 494.95C329.967 491.22 344.183 483.034 350.058 475.527C364.969 456.47 402.583 372.934 420.809 318.398C425.467 304.46 428.495 292.387 427.564 291.456C427.288 291.18 414.573 297.348 399.311 305.164L371.56 319.375L366.257 334.709C352.096 375.66 335.611 409.921 316.003 439.158C305.226 455.226 305.446 454.95 301.966 456.749C292.146 461.822 254.56 461.317 246.448 456.002C243.719 454.214 229.221 432.412 219.964 416.176C206.717 392.941 188.738 354.314 179.14 328.469L175.657 319.089L150.335 305.488C136.408 298.007 124.371 291.742 123.585 291.564C122.401 291.297 122.269 291.939 122.814 295.316ZM1329.57 311.116C1334.18 313.701 1337.52 317.999 1338.97 323.2C1339.53 325.209 1339.91 341.74 1339.91 363.71C1339.92 406.142 1339.68 408.005 1333.42 413.664C1331.39 415.493 1328.12 417.436 1326.15 417.984C1324.03 418.573 1312.13 418.981 1297.01 418.984L1271.44 418.99V363.593V308.196L1298.41 308.484C1325.19 308.769 1325.41 308.788 1329.57 311.116ZM914.763 357.783C919.974 373.131 924.523 386.429 924.873 387.331C925.468 388.864 924.136 388.973 904.695 388.973C893.246 388.973 884.02 388.614 884.192 388.177C884.364 387.74 888.908 374.443 894.289 358.629C899.671 342.815 904.348 329.876 904.682 329.876C905.016 329.876 909.552 342.434 914.763 357.783Z" fill="currentColor"/>
</svg>
