<svg width="4047" height="500" viewBox="0 0 4047 500" fill="none" xmlns="http://www.w3.org/2000/svg">
<path fill-rule="evenodd" clip-rule="evenodd" d="M0.188803 1.23497C0.739104 2.90563 10.3422 3.67823 32.5499 3.83729C42.6025 3.90941 72.39 4.61977 98.7442 5.41706C125.098 6.21337 168.89 7.32781 196.06 7.89392C223.229 8.46002 267.466 9.5626 294.363 10.3431C321.261 11.1246 356.828 12.0316 373.401 12.3605C389.974 12.6886 425.986 13.5945 453.427 14.374C480.868 15.1526 525.104 16.2433 551.73 16.7975C578.356 17.3518 622.371 18.4465 649.54 19.2299C676.709 20.0134 712.499 20.9213 729.072 21.2474C745.645 21.5734 781.879 22.4794 809.592 23.2609C837.304 24.0433 881.541 25.1321 907.895 25.6824C934.249 26.2327 978.486 27.3432 1006.2 28.1504C1033.91 28.9575 1078.37 30.0739 1105 30.6312C1131.62 31.1884 1166.97 32.0746 1183.54 32.6012C1200.11 33.1278 1235.9 34.016 1263.07 34.5742C1290.24 35.1334 1326.25 36.0166 1343.1 36.5383C1359.94 37.0599 1394.84 37.9609 1420.65 38.5409C1446.46 39.1198 1491.15 40.2471 1519.95 41.0434C1548.74 41.8407 1593.43 42.9374 1619.24 43.4798C1645.05 44.0232 1689.06 45.1297 1717.05 45.9398C1745.03 46.7509 1789.71 47.8624 1816.34 48.4117C1842.96 48.961 1878.53 49.8413 1895.38 50.3679C1912.22 50.8955 1947.34 51.7867 1973.43 52.3488C1999.51 52.911 2044.41 54.0382 2073.21 54.8533C2102.01 55.6684 2145.96 56.7641 2170.87 57.2867C2195.78 57.8093 2240.91 58.9149 2271.15 59.7418C2376.62 62.6257 2407.08 63.1503 2407.73 62.0932C2408.34 61.1151 2409.11 57.4645 2414.17 31.6152C2417.94 12.3724 2419.52 4.56148 2420.14 2.18836L2420.71 0H1210.25C242.317 0 -0.136241 0.246994 0.188803 1.23497ZM2461.07 3.7049C2460.52 5.7431 2459.42 11.1888 2458.6 15.8076C2457.79 20.4264 2455.55 32.208 2453.63 41.9889C2451.72 51.7699 2448.99 65.7744 2447.59 73.1101C2446.18 80.4458 2443.98 91.7828 2442.69 98.3035C2441.41 104.824 2438.3 120.829 2435.79 133.871C2433.28 146.912 2430.39 161.806 2429.37 166.968C2428.35 172.13 2426.37 182.355 2424.98 189.691C2423.59 197.027 2421.56 207.475 2420.47 212.908C2418.37 223.406 2415.4 238.754 2411.12 261.319C2409.68 268.927 2407.86 278.129 2407.08 281.767C2400.11 314.332 2421.92 341.074 2461.69 348.75C2471.72 350.685 2475.88 350.731 2643.24 350.731H2814.52L2815.62 345.544C2816.83 339.77 2818.82 329.521 2821.6 314.67C2822.62 309.236 2824.15 301.224 2825 296.864C2825.85 292.505 2826.54 288.169 2826.54 287.231C2826.54 285.624 2819.91 285.525 2713.08 285.525C2603.66 285.525 2599.42 285.456 2594.09 283.623C2591.05 282.576 2587.15 280.687 2585.44 279.424C2581.68 276.66 2578.56 270.917 2578.56 266.762C2578.56 263.629 2580.88 250.562 2586.91 219.824C2588.82 210.043 2591.54 196.039 2592.95 188.703C2594.36 181.367 2596.57 170.03 2597.86 163.51C2599.15 156.989 2602.24 140.984 2604.74 127.943C2607.23 114.901 2610.11 100.008 2611.13 94.8455C2612.14 89.6834 2614.16 79.2355 2615.62 71.6281C2617.07 64.0207 2619.09 53.5729 2620.09 48.4107C2621.1 43.2486 2623.09 32.8008 2624.52 25.1933C2625.94 17.5859 2627.52 9.4974 2628.03 7.21913C2628.53 4.94086 2628.95 2.38497 2628.95 1.53828C2628.95 0.158076 2620.38 0 2545.5 0H2462.05L2461.07 3.7049ZM2924.93 1.23497C2924.74 1.91469 2923.38 8.91647 2921.91 16.7956C2920.43 24.6747 2917.27 41.1244 2914.88 53.3506C2912.49 65.5768 2909.41 81.3597 2908.04 88.4237C2904.91 104.518 2902.23 118.195 2899.72 130.907C2898.64 136.34 2895.48 152.568 2892.7 166.968C2889.91 181.367 2885.93 201.818 2883.85 212.414C2881.78 223.011 2878.66 239.016 2876.93 247.982C2875.2 256.947 2872.04 273.175 2869.9 284.043C2867.76 294.91 2864.87 309.804 2863.48 317.14C2862.09 324.475 2860.1 334.312 2859.06 338.998C2858.02 343.684 2857.17 348.24 2857.17 349.124C2857.17 350.596 2864.29 350.731 2941.49 350.731H3025.81L3028.02 339.616C3029.24 333.504 3031.1 324.056 3032.15 318.622C3033.2 313.188 3035.12 303.407 3036.42 296.886C3037.73 290.366 3039.75 279.918 3040.93 273.669C3042.11 267.42 3044.17 256.75 3045.51 249.958C3050.82 223.108 3051.75 218.343 3054.29 205.005C3055.74 197.397 3057.75 187.172 3058.75 182.281C3059.74 177.391 3061.73 167.165 3063.15 159.558C3064.58 151.95 3066.57 141.725 3067.59 136.834C3068.61 131.944 3070.62 121.718 3072.06 114.111C3074.95 98.8142 3078.51 80.5436 3081.39 66.1943C3082.42 61.0321 3084.46 50.5843 3085.91 42.9769C3087.36 35.3695 3089.36 25.1439 3090.35 20.2535C3091.35 15.363 3092.42 9.51123 3092.73 7.24877C3093.04 4.98729 3093.56 2.43141 3093.89 1.56792C3094.44 0.143256 3086.76 0 3009.89 0C2943.04 0 2925.2 0.258849 2924.93 1.23497ZM3209.38 1.03737C3182.11 4.65534 3152.16 21.4963 3139.02 40.5998C3131.22 51.9299 3129.4 57.5821 3123.45 88.9177C3119.72 108.517 3116.23 126.627 3114.02 137.822C3110.05 157.854 3107.11 172.969 3102.68 196.113C3100.19 209.154 3097.31 224.048 3096.3 229.21C3095.28 234.372 3093.28 244.598 3091.86 251.933C3090.44 259.269 3087.56 274.163 3085.45 285.031C3083.35 295.898 3080.23 312.126 3078.53 321.092C3076.82 330.058 3074.78 340.152 3073.99 343.525C3073.2 346.897 3072.55 349.9 3072.55 350.198C3072.55 350.498 3110.22 350.628 3156.26 350.49C3239.13 350.24 3239.98 350.217 3240.26 348.261C3240.41 347.174 3241.42 341.839 3242.5 336.405C3245.12 323.218 3248.75 304.38 3251.36 290.464C3252.53 284.216 3254.33 275.101 3255.35 270.211C3256.38 265.321 3257.49 259.541 3257.82 257.367C3258.16 255.194 3259.25 249.414 3260.26 244.524C3262.37 234.261 3267.02 209.893 3267.42 206.981C3267.7 205.02 3268.64 205.001 3387.64 204.511L3507.59 204.017L3510.35 189.691C3511.87 181.812 3514.01 171.142 3515.09 165.98C3516.18 160.818 3517.55 153.517 3518.14 149.756C3518.72 145.996 3519.43 142.55 3519.71 142.099C3519.99 141.649 3466.39 141.28 3400.61 141.28H3281.01L3281.02 138.563C3281.02 137.07 3281.44 134.29 3281.96 132.389C3282.48 130.487 3283.79 124.04 3284.88 118.063C3290.37 87.822 3290.92 85.5151 3293.5 81.6185C3297.37 75.7668 3301.54 72.2466 3308.67 68.8006L3315.09 65.7003L3431.46 65.4335L3547.83 65.1668L3548.62 62.9636C3549.36 60.8938 3551.3 51.3401 3555.66 28.1573C3556.68 22.7234 3558.21 14.7109 3559.06 10.351C3559.91 5.99206 3560.61 1.87913 3560.61 1.21224C3560.61 0.258849 3523.77 0.0266753 3387.96 0.125473C3293 0.194631 3212.64 0.60464 3209.38 1.03737ZM3600.79 0.740981C3600.36 1.46121 3597.25 16.3846 3593.11 37.543C3591.99 43.2486 3590.45 50.9726 3589.67 54.7071C3588.9 58.4417 3588.27 61.8867 3588.27 62.3639C3588.27 62.852 3618.22 63.2304 3656.93 63.2304C3694.7 63.2304 3725.6 63.4942 3725.6 63.8162C3725.6 64.1383 3724.74 68.6958 3723.7 73.943C3722.65 79.1901 3720.4 91.0418 3718.69 100.279C3716.99 109.517 3714.77 121.299 3713.75 126.461C3712.73 131.623 3710.72 142.071 3709.28 149.678C3707.84 157.286 3705.84 167.733 3704.84 172.896C3702.91 182.796 3700.78 194.023 3693.5 232.668C3688.01 261.792 3685.57 274.628 3682.61 289.97C3681.35 296.491 3679.35 306.939 3678.18 313.188C3677 319.437 3674.96 329.823 3673.65 336.27C3672.33 342.715 3671.26 348.606 3671.26 349.361C3671.26 350.519 3684.33 350.731 3755.58 350.731H3839.9L3842.11 339.616C3843.33 333.504 3845.43 322.944 3846.78 316.152C3852 289.914 3853.04 284.596 3855.56 271.199C3856.99 263.592 3858.98 253.366 3859.98 248.476C3860.99 243.585 3862.97 233.36 3864.4 225.752C3865.82 218.145 3867.82 207.919 3868.84 203.029C3869.86 198.138 3871.87 187.913 3873.31 180.305C3876.2 165.009 3879.76 146.738 3882.64 132.389C3883.67 127.226 3885.7 116.779 3887.15 109.171C3888.6 101.564 3890.6 91.3382 3891.58 86.4478C3892.57 81.5573 3893.93 74.3352 3894.61 70.4001L3895.84 63.2432L3965.56 62.9903L4035.27 62.7364L4036.05 58.2905C4036.48 55.8453 4037.98 48.065 4039.39 41.0009C4044.54 15.1249 4045.65 9.29091 4046.27 4.69288L4046.91 0H3824.07C3701.51 0 3601.03 0.332947 3600.79 0.740981ZM601.821 99.983C601.169 100.635 600.635 101.968 600.635 102.945C600.635 103.922 598.636 114.837 596.194 127.2C593.752 139.563 590.613 155.68 589.219 163.016C586.529 177.18 584.354 188.461 580.459 208.463C579.137 215.255 577.17 225.48 576.09 231.186C572.209 251.678 568.773 269.383 566.937 278.345C565.909 283.361 565.077 290.919 565.089 295.141C565.158 320.725 586.467 341.608 619.407 348.376L630.768 350.71L838.301 350.72L1045.83 350.731L1054.26 341.592C1058.9 336.565 1067.76 326.796 1073.96 319.882L1085.24 307.31L1183 307.533L1280.76 307.754L1292.03 329.242L1303.31 350.731H1367.97H1432.64L1431.98 348.654C1431.62 347.511 1428.33 340.954 1424.67 334.082C1421.02 327.208 1414.77 315.361 1410.79 307.754C1406.81 300.147 1402.13 291.255 1400.39 287.995C1396.72 281.133 1389.95 268.291 1381.12 251.439C1377.7 244.919 1368.92 228.247 1361.61 214.39C1354.29 200.534 1345.85 184.529 1342.85 178.823C1339.84 173.118 1335.51 164.893 1333.22 160.546C1330.93 156.199 1323.58 142.194 1316.88 129.425C1310.18 116.655 1303.66 104.54 1302.4 102.502L1300.1 98.7974H1222.9H1145.7L1140.66 103.997C1137.89 106.857 1131.16 114.082 1125.71 120.052C1087.38 161.992 1042.22 211.366 1003.27 253.909C988.095 270.483 971.653 288.489 966.733 293.922C961.813 299.356 957.121 304.344 956.306 305.005C954.028 306.856 757.232 306.776 750.272 304.922C743.969 303.244 738.887 299.928 735.873 295.529C732.801 291.046 732.754 283.716 735.704 269.717C736.906 264.011 738.842 254.453 740.005 248.476C741.168 242.498 742.281 237.053 742.481 236.373C742.766 235.395 765.015 235.138 849.455 235.138H956.067L957.135 228.469C957.723 224.801 959.343 215.798 960.736 208.463C963.462 194.109 963.515 193.772 963.338 191.914C963.246 190.935 941.358 190.679 857.508 190.679C789.732 190.679 751.795 190.334 751.795 189.719C751.795 189.191 752.653 184.634 753.7 179.592C756.171 167.706 760.687 144.598 760.687 143.843C760.687 143.52 812.878 143.256 876.667 143.256H992.647L993.17 141.033C993.458 139.81 994.625 133.92 995.766 127.943C996.906 121.965 998.574 113.37 999.473 108.841C1000.88 101.753 1000.91 100.485 999.702 99.7182C997.404 98.2639 603.278 98.5257 601.821 99.983ZM68.6396 101.002C68.4104 101.691 67.0954 108.035 65.7192 115.099C64.3419 122.163 61.4689 136.834 59.3329 147.702C57.1979 158.57 54.0443 174.797 52.3252 183.763C48.1263 205.667 45.7275 217.972 43.466 229.21C42.4277 234.372 40.4675 244.375 39.1091 251.439C30.3566 296.97 21.0519 344.318 20.0313 348.514L19.4889 350.742L103.807 350.49L188.125 350.237L189.924 341.345C191.885 331.652 195.189 314.908 198.5 297.874C199.663 291.897 201.663 281.672 202.946 275.151C204.229 268.63 206.251 258.182 207.436 251.933C208.623 245.685 210.625 235.459 211.887 229.21C213.149 222.961 215.14 212.736 216.313 206.487C217.486 200.238 219.484 190.012 220.752 183.763C224.129 167.14 226.982 152.244 227.706 147.455L228.343 143.256H278.435C320.091 143.256 329.519 143.51 334.416 144.763C361.519 151.697 357.173 180.696 327.721 189.429C323.511 190.677 314.976 191.053 282.912 191.404L243.303 191.837L240.726 204.843C237.028 223.505 236.713 226.47 238.233 228.302C239.347 229.642 253.14 242.605 278.571 266.212C282.111 269.498 290.114 276.851 296.355 282.551C302.595 288.251 310.813 295.823 314.617 299.378C318.42 302.934 326.645 310.536 332.894 316.273C339.143 322.01 350.381 332.333 357.867 339.212L371.478 351.719H461.43C539.442 351.719 551.339 351.529 551.062 350.288C550.886 349.501 543.407 342.341 534.441 334.377C525.475 326.413 515.916 317.806 513.199 315.251C510.482 312.695 497.589 301.097 484.548 289.477C471.507 277.856 458.614 266.269 455.897 263.727C453.18 261.186 444.066 252.968 435.643 245.467C427.221 237.965 420.182 231.461 420.001 231.013C419.819 230.565 422.788 230.198 426.597 230.198C446.471 230.198 473.633 220.882 490.897 208.146C510.446 193.724 521.597 174.819 521.597 156.1C521.597 130.451 502.72 111.134 469.235 102.519L460.837 100.358L264.947 100.053C107.315 99.8072 68.9755 99.9919 68.6396 101.002ZM1487.85 106.433C1487.19 110.113 1484.69 123.126 1482.3 135.352C1479.91 147.579 1476.85 163.362 1475.49 170.426C1474.13 177.49 1471.27 192.161 1469.13 203.029C1466.99 213.896 1462.97 234.57 1460.2 248.97C1457.42 263.369 1454.32 279.374 1453.3 284.537C1452.28 289.699 1450.26 300.147 1448.81 307.754C1447.37 315.361 1445.58 324.253 1444.83 327.514C1444.09 330.774 1443 336.553 1442.41 340.357C1441.82 344.161 1441.11 347.984 1440.85 348.854C1440.42 350.295 1452.67 350.497 1579.94 351.137C1725.38 351.869 1739.99 351.61 1768.42 347.807C1826.71 340.006 1865.58 319.035 1884.48 285.177C1890.54 274.311 1891.94 268.522 1906.15 195.619C1908.63 182.849 1911.12 170.256 1911.67 167.634C1915.22 150.631 1910.16 132.836 1898.65 121.925C1890.53 114.228 1874.78 106.317 1859.81 102.418C1851.96 100.375 1850.62 100.358 1670.48 100.053L1489.06 99.7449L1487.85 106.433ZM1916.62 100.407C1916.62 101.187 1920.76 105.839 1935.81 121.932C1942.37 128.949 1948.85 135.885 1950.21 137.342C1951.57 138.801 1955.13 142.616 1958.13 145.823C1961.13 149.03 1972.45 161.213 1983.28 172.896C1994.12 184.578 2005.49 196.805 2008.55 200.065C2017.54 209.657 2028.33 221.195 2036.87 230.354L2044.83 238.909L2043.45 246.162C2040.37 262.34 2037.01 279.621 2035.22 288.489C2034.18 293.651 2032.15 304.099 2030.72 311.706C2029.3 319.313 2027.29 329.539 2026.26 334.429C2025.23 339.32 2024.26 345.099 2024.1 347.273L2023.81 351.225H2107.26H2190.71L2191.41 347.767C2191.79 345.865 2193.27 338.085 2194.69 330.477C2196.1 322.87 2198.11 312.2 2199.15 306.766C2200.18 301.332 2202.19 290.662 2203.61 283.055C2205.04 275.447 2207.29 263.666 2208.63 256.873C2209.97 250.081 2211.06 243.577 2211.05 242.419C2211.03 240.227 2211.53 239.825 2255 206.988C2265.87 198.777 2283.2 185.656 2293.53 177.828C2303.85 170.001 2324.08 154.701 2338.48 143.829C2352.88 132.958 2368.76 120.935 2373.76 117.112C2378.77 113.287 2385.55 108.169 2388.83 105.737C2392.11 103.305 2394.8 100.97 2394.8 100.55C2394.8 100.129 2358.23 99.7983 2313.54 99.8141L2232.27 99.8437L2206.59 121.117C2192.46 132.816 2179.79 143.364 2178.43 144.555C2169.55 152.345 2141.83 174.862 2141.18 174.817C2140.75 174.787 2136.61 170.071 2132 164.335C2119.48 148.789 2108.57 135.425 2104.24 130.31C2102.12 127.808 2097.16 121.777 2093.22 116.907C2089.28 112.037 2084.46 106.192 2082.5 103.919L2078.95 99.7854H1997.78C1953.14 99.7854 1916.62 100.065 1916.62 100.407ZM1746.73 145.967C1753.52 148.717 1759.38 154.527 1760.54 159.65C1761.53 164.052 1760.92 167.909 1750.62 222.294C1748.92 231.26 1747.16 240.819 1746.7 243.536C1744.01 259.658 1740.44 273.501 1737.6 278.822C1731.88 289.546 1724.43 296.378 1713.09 301.272C1701.57 306.25 1698.68 306.52 1651.96 306.977L1608.12 307.406L1608.67 305.11C1608.97 303.848 1609.51 301.036 1609.85 298.862C1610.2 296.689 1611.53 289.575 1612.82 283.055C1614.1 276.534 1616.33 264.975 1617.77 257.367C1619.21 249.76 1621.22 239.312 1622.23 234.15C1623.25 228.988 1625.22 218.762 1626.61 211.427C1627.99 204.091 1631.08 188.086 1633.47 175.859C1635.86 163.633 1638.13 151.629 1638.52 149.184C1638.91 146.739 1639.43 144.386 1639.69 143.956C1639.94 143.525 1662.9 143.303 1690.7 143.462C1740.46 143.745 1741.34 143.785 1746.73 145.967ZM1211.8 176.608C1213.98 180.477 1219.86 191.649 1231.97 214.884C1235.93 222.492 1242.94 235.829 1247.54 244.524C1252.15 253.218 1256.32 261.11 1256.81 262.06C1257.66 263.698 1254.26 263.789 1191.92 263.789C1135.94 263.789 1126.26 263.584 1126.93 262.412C1127.36 261.654 1132.42 255.985 1138.16 249.815C1143.91 243.644 1154.32 232.372 1161.29 224.764C1168.27 217.157 1176.25 208.487 1179.02 205.499C1186.86 197.032 1202.78 179.657 1205.91 176.145C1207.46 174.4 1208.96 172.959 1209.23 172.942C1209.5 172.924 1210.66 174.574 1211.8 176.608ZM3471.69 416.943C3464.22 417.893 3457.27 420.207 3454.59 422.632C3450.93 425.94 3448.82 432.079 3445.04 450.338C3442.93 460.488 3440.75 470.795 3440.17 473.24C3438.61 479.923 3438.82 490.201 3440.57 492.697C3441.38 493.86 3444.16 495.625 3446.74 496.622C3451.11 498.309 3455.67 498.433 3513.18 498.433H3574.93L3580.86 495.469C3586.01 492.895 3587.15 491.79 3589.51 487.071C3591 484.083 3592.88 478.081 3593.67 473.734C3594.46 469.387 3596.5 459.383 3598.21 451.504C3602.47 431.766 3602.78 428.226 3600.61 424.195C3599.3 421.753 3597.42 420.342 3593.31 418.701C3587.84 416.517 3587.17 416.49 3532.94 416.309C3502.79 416.208 3475.22 416.492 3471.69 416.943ZM2362.37 425.57C2361.25 430.325 2359.18 439.55 2357.76 446.07C2356.34 452.591 2354.27 461.705 2353.15 466.324C2352.03 470.943 2350.88 478.578 2350.59 483.29C2350.08 491.688 2350.13 491.91 2352.82 494.406C2358.09 499.291 2359.77 499.421 2417.52 499.421C2477.48 499.421 2478.06 499.364 2484.48 492.73C2488.43 488.647 2490.23 484.263 2492.57 472.965C2494.69 462.728 2498.35 445.787 2501.48 431.745C2502.62 426.583 2503.82 421.136 2504.14 419.642L2504.71 416.925H2489.8H2474.9L2473.9 420.63C2473.35 422.668 2472.24 427.669 2471.43 431.745C2470.62 435.82 2469.08 443.156 2468.02 448.046C2466.96 452.937 2464.89 462.496 2463.44 469.288C2461.98 476.08 2460.59 481.97 2460.34 482.379C2460.09 482.787 2441.91 483.119 2419.93 483.119H2379.98L2379.99 480.897C2380 479.673 2380.7 475.561 2381.53 471.758C2382.37 467.954 2383.91 460.841 2384.95 455.95C2385.99 451.06 2387.99 441.723 2389.39 435.203C2390.79 428.682 2392.2 421.903 2392.51 420.136L2393.08 416.925H2378.74H2364.39L2362.37 425.57ZM2713.47 418.16C2713.26 418.84 2712.18 423.396 2711.06 428.287C2709.2 436.42 2707.81 442.837 2701.96 470.276C2700.86 475.438 2699.1 483.313 2698.04 487.777C2695.16 499.989 2693.98 498.927 2710.49 498.927C2721.13 498.927 2724.93 498.608 2725.19 497.692C2725.38 497.013 2726.52 491.789 2727.74 486.083C2728.95 480.378 2731 470.819 2732.29 464.842C2733.58 458.865 2735.69 449.084 2736.98 443.107L2739.31 432.239H2775.98C2819.36 432.239 2816.99 431.631 2814.17 442.057C2811.24 452.884 2814.63 451.953 2776.82 452.315L2743.73 452.633L2743.1 455.127C2742.34 458.166 2743 459.009 2749.85 463.725L2755.23 467.43L2789.16 467.095C2820.01 466.788 2823.51 466.585 2827.8 464.838C2837.25 460.989 2839.35 457.472 2843.28 438.907C2845.65 427.682 2845.24 425.265 2840.37 421.735C2834.18 417.242 2829.53 416.925 2769.99 416.925C2725.94 416.925 2713.77 417.191 2713.47 418.16ZM2871.99 426.558C2870.83 431.856 2869.05 439.97 2868.04 444.588C2867.03 449.207 2865.04 458.321 2863.64 464.842C2862.23 471.363 2860.03 481.366 2858.76 487.071C2857.48 492.777 2856.73 497.782 2857.1 498.193C2857.47 498.605 2886.62 498.827 2921.87 498.687L2985.97 498.433L2987.74 491.517C2988.72 487.714 2989.52 484.268 2989.53 483.86C2989.55 483.452 2967.33 483.119 2940.16 483.119C2893.76 483.119 2890.76 483.015 2890.79 481.391C2890.81 480.44 2891.61 476.105 2892.58 471.758L2894.34 463.854L2938.88 463.597L2983.42 463.34L2983.96 461.127C2984.26 459.91 2984.81 456.58 2985.18 453.727L2985.86 448.54H2941.77C2907.15 448.54 2897.68 448.275 2897.68 447.305C2897.68 446.627 2898.09 444.514 2898.58 442.613C2899.07 440.711 2899.75 437.492 2900.1 435.459L2900.73 431.764L2949.76 431.507L2998.79 431.251L3000.06 425.817C3000.76 422.828 3001.35 419.605 3001.37 418.654C3001.41 417.025 2997.74 416.925 2937.76 416.925H2874.11L2871.99 426.558ZM3034.64 417.697C3034.38 418.121 3033.05 423.79 3031.68 430.293C3030.31 436.797 3028.25 446.342 3027.09 451.504C3025.94 456.666 3023.93 465.781 3022.64 471.758C3021.34 477.735 3019.6 485.738 3018.77 489.541C3017.94 493.345 3017.25 497.026 3017.24 497.721C3017.22 498.698 3020.18 498.922 3030.24 498.709L3043.26 498.433L3044.07 495.469C3044.85 492.642 3046.71 484.046 3052.37 457.216C3053.77 450.576 3055.13 444.801 3055.39 444.381C3055.64 443.962 3058.61 445.402 3061.98 447.58C3065.35 449.759 3072.77 454.456 3078.47 458.02C3084.18 461.584 3093.96 467.765 3100.21 471.757C3106.46 475.749 3118.73 483.495 3127.47 488.971L3143.36 498.927H3153.38C3162.98 498.927 3163.42 498.834 3163.85 496.704C3164.1 495.481 3165.2 490.48 3166.29 485.589C3170.63 466.242 3173.19 454.508 3175.23 444.588C3176.41 438.883 3178.24 430.563 3179.3 426.1C3180.36 421.637 3181.22 417.746 3181.22 417.455C3181.22 417.163 3175.23 416.925 3167.91 416.925C3154.9 416.925 3154.57 416.978 3154.09 419.148C3153.82 420.371 3152.23 427.818 3150.57 435.697C3148.91 443.576 3146.68 453.674 3145.61 458.138C3144.55 462.6 3143.67 467.046 3143.67 468.017C3143.63 472.759 3142.16 472.507 3132.22 466.041C3118.95 457.417 3085.02 436.003 3068 425.514L3054.07 416.925H3044.6C3039.38 416.925 3034.91 417.272 3034.64 417.697ZM3386.73 426.558C3385.57 431.856 3383.78 439.97 3382.75 444.588C3381.72 449.207 3379.72 458.321 3378.29 464.842C3376.87 471.363 3374.82 480.699 3373.74 485.589C3372.66 490.48 3371.57 495.493 3371.32 496.73L3370.86 498.978L3385.84 498.706L3400.82 498.433L3403 489.047C3404.19 483.885 3406.38 473.882 3407.85 466.818C3410.51 454.065 3412.38 445.523 3416.3 428.105C3417.42 423.115 3418.34 418.557 3418.34 417.978C3418.34 417.28 3413.37 416.925 3403.59 416.925H3388.84L3386.73 426.558ZM3642.12 418.16C3641.88 418.84 3640.32 425.842 3638.65 433.721C3636.97 441.6 3634.94 450.867 3634.13 454.315C3633.32 457.762 3632.03 463.764 3631.25 467.653C3630.48 471.54 3628.71 480.047 3627.33 486.556C3625.95 493.063 3624.82 498.51 3624.82 498.658C3624.82 498.806 3630.74 498.927 3637.97 498.927H3651.12L3653.84 486.33C3655.34 479.403 3657.61 469.066 3658.9 463.36C3660.18 457.654 3661.53 451.099 3661.89 448.792C3662.25 446.486 3662.86 444.399 3663.26 444.154C3663.66 443.909 3665.95 445.028 3668.36 446.641C3670.77 448.255 3679.85 454.044 3688.55 459.508C3697.24 464.972 3711.25 473.824 3719.67 479.179C3728.09 484.534 3738.62 491.184 3743.07 493.957L3751.15 498.997L3761.29 498.716L3771.44 498.433L3773.14 490.035C3774.08 485.417 3775.79 477.414 3776.94 472.252C3781.13 453.492 3788.8 417.923 3788.82 417.172C3788.82 417.037 3782.86 416.925 3775.57 416.925H3762.31L3761.68 420.136C3760.74 424.923 3756.34 444.958 3754.26 453.974C3753.25 458.321 3752.12 463.995 3751.74 466.583C3751.37 469.171 3750.76 471.473 3750.39 471.7C3750.02 471.927 3747.52 470.709 3744.82 468.991C3735.14 462.824 3714.3 449.751 3690.28 434.778C3676.83 426.393 3665.12 418.947 3664.27 418.229C3662.13 416.445 3642.73 416.385 3642.12 418.16ZM2206.89 419.349C2196.01 421.73 2192.12 426.32 2188.6 440.88C2183.86 460.495 2187.05 464.573 2208.56 466.371C2214.54 466.871 2235.55 467.287 2255.25 467.296C2274.94 467.305 2291.06 467.635 2291.06 468.03C2291.06 468.425 2290.32 472.2 2289.41 476.42L2287.76 484.091L2233.35 484.347L2178.94 484.601L2177.79 489.541C2177.16 492.258 2176.6 495.723 2176.55 497.241L2176.45 500L2236.97 499.711L2297.48 499.421L2302.63 497.092C2305.46 495.811 2308.91 493.279 2310.3 491.465C2312.69 488.326 2316.77 475.042 2318.24 465.604C2319.04 460.446 2317.33 454.872 2314.44 453.242C2307.62 449.39 2305.38 449.202 2258.95 448.618L2213.5 448.046L2214.84 440.39L2216.18 432.733H2270.8H2325.41L2326.06 428.04C2326.41 425.458 2326.94 422.124 2327.24 420.63L2327.77 417.913L2270.14 418.014C2228.09 418.088 2210.99 418.449 2206.89 419.349ZM2557.32 418.996C2555.14 419.483 2552.37 420.111 2551.16 420.393C2548.33 421.052 2542.29 426.352 2540.59 429.668C2538.28 434.177 2534.8 451.304 2535.42 455.103C2537.15 465.805 2545.39 467.269 2604 467.296C2623.7 467.305 2639.81 467.635 2639.81 468.03C2639.81 468.425 2639.07 472.2 2638.17 476.42L2636.52 484.091L2582.1 484.347L2527.69 484.601L2526.55 489.541C2525.91 492.258 2525.36 495.723 2525.3 497.241L2525.21 500L2585.72 499.711L2646.24 499.421L2651.39 497.092C2658.79 493.744 2661.19 490.007 2664.59 476.557C2667.91 463.398 2668.13 459.815 2665.81 456.417C2661.11 449.547 2659 449.264 2607.71 448.618L2562.26 448.046L2563.59 440.397L2564.93 432.75L2619.34 432.494L2673.76 432.239L2674.42 429.749C2674.79 428.381 2675.4 425.157 2675.79 422.586L2676.49 417.913L2618.88 418.012C2587.19 418.067 2559.49 418.51 2557.32 418.996ZM3234.08 418.376C3233.54 418.544 3230.53 419.209 3227.4 419.854C3217.54 421.881 3213.34 427.133 3210.48 440.989C3207.13 457.291 3208.7 461.817 3218.77 464.918C3223.42 466.352 3230.61 466.66 3268.94 467.064C3309.77 467.495 3313.63 467.676 3313.19 469.152C3312.93 470.042 3311.97 473.771 3311.07 477.439L3309.42 484.107H3255.36H3201.31L3199.66 490.918C3198.76 494.663 3198.02 498.22 3198.02 498.821C3198.02 500.241 3309.43 500.346 3318.06 498.934C3325.6 497.7 3331.19 493.907 3334.11 488.038C3337.1 482.024 3340.56 465.873 3339.99 460.603C3339.41 455.214 3337.28 452.892 3330.99 450.803C3326.63 449.356 3319.9 449.086 3280.68 448.774C3246.3 448.501 3235.5 448.132 3235.83 447.242C3236.07 446.598 3236.86 443.069 3237.58 439.402L3238.89 432.733H3292.95H3347L3348.09 426.477C3348.69 423.037 3349.18 419.702 3349.18 419.067C3349.18 418.2 3335.02 417.933 3292.12 417.991C3260.74 418.034 3234.62 418.208 3234.08 418.376ZM3840.16 419.317C3829.09 421.748 3825.45 425.824 3821.86 439.841C3818.72 452.064 3818.75 456.44 3822 460.304C3826.95 466.182 3829.83 466.522 3879.48 467.061C3904.06 467.328 3924.18 467.604 3924.18 467.676C3924.18 467.748 3923.51 471.29 3922.7 475.55C3921.88 479.809 3921.22 483.473 3921.22 483.692C3921.22 483.911 3896.66 484.205 3866.64 484.347L3812.07 484.601L3810.49 492.301L3808.91 499.999L3869.75 499.711L3930.6 499.421L3936.28 496.631C3943.49 493.091 3945.87 489.157 3949.29 475.081C3952.58 461.541 3952.55 459.289 3948.98 455.228C3943.91 449.452 3942.23 449.265 3891.74 448.819C3852.32 448.471 3846.04 448.216 3846.52 446.986C3846.82 446.2 3847.57 442.675 3848.18 439.153L3849.29 432.75L3903.74 432.494L3958.18 432.239L3959.42 426.311C3960.09 423.051 3960.67 419.828 3960.69 419.148C3960.75 417.399 3848.18 417.557 3840.16 419.317ZM3571.47 432.98C3571.46 433.66 3570.1 440.661 3568.44 448.54C3566.78 456.419 3564.74 466.402 3563.9 470.724C3563.07 475.047 3561.99 479.603 3561.52 480.851L3560.66 483.119H3514.85C3489.66 483.119 3468.81 482.878 3468.52 482.584C3468.22 482.289 3468.62 478.844 3469.4 474.927C3470.18 471.01 3471.41 464.694 3472.12 460.89C3472.84 457.086 3474.44 448.973 3475.69 442.86L3477.96 431.745H3524.72C3561.47 431.745 3571.47 432.009 3571.47 432.98Z" fill="currentColor"/>
</svg>
