<svg width="1906" height="501" viewBox="0 0 1906 501" fill="none" xmlns="http://www.w3.org/2000/svg">
<path d="M201.794 3.68533C91.4292 27.7606 12.5293 114.765 1.32594 225.368C-9.40063 331.203 46.8543 431.08 143.155 477.085C177.957 493.771 198.218 498.538 240.409 499.968C292.374 501.875 324.077 495.439 366.268 474.224C386.291 464.213 416.802 442.045 431.342 427.266L440.4 417.731L434.918 409.627C431.819 405.336 407.029 370.773 379.855 333.11C352.443 295.21 330.274 263.268 330.274 262.077C330.274 260.885 331.228 259.931 332.658 259.931C333.85 259.931 340.763 257.786 347.914 254.926C366.268 248.251 382.715 232.519 391.297 214.165C397.733 199.862 398.209 197.479 398.209 165.776C398.209 135.98 397.733 131.451 392.965 122.869C386.052 109.759 378.901 102.847 367.46 97.6024C358.402 93.5502 350.059 93.0735 259.241 93.0735H160.556L153.643 99.9861L146.731 106.899V225.13V343.36H169.376H192.021V240.862V138.363H271.874H351.727L353.158 144.323C354.111 147.66 354.111 159.817 353.634 171.258C352.443 194.857 349.344 201.769 335.28 210.351C327.176 215.595 324.077 215.833 269.014 216.548L211.09 217.263V239.908V262.315H241.84H272.828L293.566 291.396C305.246 307.605 328.844 340.261 346.245 364.098C363.646 388.173 377.948 408.673 377.948 409.865C377.948 413.679 344.338 433.702 325.269 441.091C218.718 482.091 98.3419 427.266 59.0111 319.762C18.2501 207.49 82.6096 85.4456 200.364 52.0741L219.433 46.5916L1044.43 45.8765L1869.66 45.3998L1887.77 23.9466C1897.78 12.2666 1905.89 2.01675 1905.89 1.30167C1905.89 0.586548 1525.93 0.109802 1061.59 0.348175C350.774 0.348175 214.666 1.06329 201.794 3.68533Z" fill="white"/>
<path d="M1862.51 94.2651C1846.53 103.323 1847.01 124.061 1863.46 132.642C1878.48 140.509 1896.35 130.02 1896.35 113.096C1896.35 96.6488 1877.05 86.1606 1862.51 94.2651ZM1886.58 101.655C1889.44 105.23 1891.59 110.474 1891.59 113.335C1891.59 121.916 1882.77 131.212 1874.66 131.212C1865.84 131.212 1855.83 121.916 1855.83 113.811C1855.83 104.277 1864.41 95.457 1873.71 95.457C1879.43 95.457 1883 97.1256 1886.58 101.655Z" fill="white"/>
<path d="M1865.37 113.335C1865.37 119.294 1866.56 124.061 1867.75 124.061C1869.18 124.061 1870.13 121.916 1870.13 119.294C1870.13 116.672 1871.09 114.527 1872.52 114.527C1873.71 114.527 1875.85 116.672 1877.28 119.294C1881.1 126.207 1884.91 125.253 1882.05 118.102C1880.62 114.527 1880.62 111.666 1882.05 110.951C1886.82 108.091 1881.34 102.608 1873.47 102.608C1865.37 102.608 1865.37 102.847 1865.37 113.335ZM1878 108.567C1878.24 109.759 1876.57 111.19 1874.42 111.666C1871.8 112.143 1870.13 110.951 1870.13 108.567C1870.13 104.515 1877.28 104.277 1878 108.567Z" fill="white"/>
<path d="M449.22 100.225L442.069 107.137L442.784 204.391C443.5 299.262 443.738 301.884 448.744 311.419C451.604 316.663 458.04 324.768 462.807 329.058C480.685 344.552 479.493 344.552 580.085 345.267L671.141 345.982V323.337V300.454H587.712C499.993 300.454 492.842 299.739 489.028 289.727C488.313 287.582 487.598 252.542 487.598 212.019V138.363H579.37H671.141V115.718V93.0735H563.637H456.133L449.22 100.225Z" fill="white"/>
<path d="M697.361 115.719V138.364H747.419H797.476V242.054V345.744H820.121H842.766V242.054V138.364H894.015H945.264V115.719V93.0736H821.313H697.361V115.719Z" fill="white"/>
<path d="M985.549 99.9861L978.637 106.899V226.321V345.744H1001.28H1023.93V242.054V138.363H1102.35C1168.85 138.363 1181.01 138.84 1183.63 141.939C1185.78 144.323 1186.26 152.427 1185.54 168.636C1184.59 194.857 1181.73 201.531 1167.19 210.351C1159.08 215.595 1155.98 215.833 1100.92 216.548L1043 217.263V239.908V262.315H1059.21H1075.18L1123.56 304.029L1171.95 345.982L1206.76 345.267L1241.56 344.552L1194.6 304.029L1147.64 263.745L1162.18 260.646C1191.74 254.687 1212.48 239.432 1223.68 215.118C1229.16 203.2 1230.12 197.717 1230.83 172.212C1232.02 137.41 1229.4 125.968 1217.48 111.905C1201.27 93.0735 1202.46 93.0735 1091.15 93.0735H992.462L985.549 99.9861Z" fill="white"/>
<path d="M1365.51 96.4108C1324.51 106.422 1291.38 138.364 1277.55 181.27C1273.97 192.473 1273.26 206.06 1272.31 269.943L1271.35 345.744H1295.43H1319.5V314.756V283.768H1399.36H1479.21V314.756V345.744H1501.85H1524.5V225.845C1524.26 99.7479 1524.5 101.893 1513.3 95.934C1505.91 91.8818 1382.19 92.3585 1365.51 96.4108ZM1479.21 188.421V238.478H1399.36H1319.5V219.647C1319.5 178.171 1338.33 152.427 1376.71 141.701C1383.39 139.794 1404.6 138.602 1433.44 138.602L1479.21 138.364V188.421Z" fill="white"/>
<path d="M1560.49 99.5096C1563.83 103.323 1588.38 131.689 1614.84 162.916L1663.23 219.409L1613.65 277.332C1586.48 309.035 1562.16 337.401 1559.54 340.262L1554.77 345.744L1586.71 345.506L1618.66 345.267L1655.6 301.646C1675.86 277.332 1693.26 257.548 1693.98 257.548C1694.93 257.548 1712.57 277.332 1733.31 301.646L1770.97 345.744H1801.48C1818.17 345.744 1831.99 345.267 1831.99 344.791C1831.99 344.076 1808.4 316.186 1779.55 282.576C1750.71 248.967 1727.11 220.601 1727.11 219.409C1727.11 218.217 1750.71 189.851 1779.55 156.48C1808.4 123.108 1831.99 95.2189 1831.99 94.5038C1831.99 93.5503 1818.17 93.0736 1801.48 93.0736H1770.97L1733.07 137.172C1712.33 161.485 1694.69 181.032 1693.74 180.793C1692.79 180.316 1675.15 160.532 1654.65 136.457L1617.23 93.0736H1586H1554.53L1560.49 99.5096Z" fill="white"/>
<path d="M506.667 219.409V243.246L578.893 242.769L650.88 242.054L651.595 218.694L652.31 195.572H579.369H506.667V219.409Z" fill="white"/>
<path d="M1522.83 389.842C1512.58 394.132 1510.2 399.853 1510.2 418.446C1510.2 432.986 1510.91 434.893 1517.35 441.568C1524.5 448.48 1525.22 448.719 1542.62 447.765C1558.83 447.05 1561.45 446.335 1566.21 440.376C1578.85 426.074 1575.51 397.946 1560.26 390.557C1550.24 385.551 1533.32 385.074 1522.83 389.842ZM1558.83 403.429C1563.83 410.58 1563.59 426.312 1558.59 432.033C1555.73 435.132 1551.2 436.324 1540.95 436.324C1523.79 436.324 1519.73 432.748 1519.73 417.969C1519.73 402.237 1524.26 398.185 1541.42 398.185C1552.87 398.185 1555.73 399.138 1558.83 403.429Z" fill="white"/>
<path d="M461.854 417.731C462.569 445.143 462.807 447.05 467.336 447.05C471.865 447.05 472.104 445.143 472.819 422.498L473.534 397.946L491.888 398.661L510.243 399.376L509.766 406.289C509.051 415.347 505.952 417.254 489.505 417.254C477.348 417.254 475.679 417.731 475.679 422.021C475.679 424.882 477.348 426.789 479.493 426.789C481.638 426.789 489.028 431.556 495.702 437.515C505.475 445.62 510.243 448.242 516.44 448.242L524.545 448.003L514.295 439.184C503.807 429.887 502.138 426.789 507.621 426.789C513.341 426.789 520.969 414.87 520.969 406.051C520.969 389.603 519.301 388.65 488.551 388.65H461.139L461.854 417.731Z" fill="white"/>
<path d="M532.888 414.632C532.888 435.847 533.603 441.091 536.94 443.713C539.324 445.858 548.858 447.288 563.16 447.765L585.329 448.719V442.521C585.329 436.562 585.09 436.562 564.591 435.847L543.614 435.132L542.899 416.539L542.184 398.185H563.876C583.66 398.185 585.329 397.946 585.329 393.417C585.329 388.888 583.66 388.65 559.108 388.65H532.888V414.632Z" fill="white"/>
<path d="M592.479 393.417C592.479 397.469 594.148 398.184 604.398 398.184H616.316V423.213C616.316 446.573 616.555 448.242 621.084 448.242C625.613 448.242 625.851 446.573 625.851 423.213V398.184H637.769C648.019 398.184 649.688 397.469 649.688 393.417C649.688 388.888 648.019 388.65 621.084 388.65C594.148 388.65 592.479 388.888 592.479 393.417Z" fill="white"/>
<path d="M657.792 391.749C657.315 393.417 657.077 406.527 657.315 421.068C658.03 445.858 658.269 447.05 663.513 447.765C668.757 448.48 668.757 448.242 668.757 423.452V398.184H687.826H706.896V404.859C706.896 414.632 702.844 417.254 687.35 417.254C675.193 417.254 673.524 417.731 673.524 422.021C673.524 424.643 674.716 426.789 676.146 426.789C677.815 426.789 684.966 431.556 692.117 437.515C701.413 445.381 707.134 448.242 712.617 448.242L720.006 448.003L709.995 438.945C699.03 428.934 697.838 426.789 703.32 426.789C705.227 426.789 709.041 424.643 711.663 422.021C717.146 416.539 718.337 396.278 713.57 391.51C709.279 387.22 659.461 387.458 657.792 391.749Z" fill="white"/>
<path d="M736.692 396.516C728.111 405.098 725.012 417.016 726.442 436.324C726.919 445.144 728.111 447.289 732.402 447.766C736.692 448.481 737.646 447.289 738.361 440.615L739.076 432.748L757.43 432.033L775.785 431.318L776.5 439.184C776.977 444.428 778.645 447.289 781.506 447.766C785.081 448.481 785.558 445.859 785.558 418.685V388.65H765.058C745.035 388.65 744.32 388.889 736.692 396.516ZM776.023 410.103V422.022H756.954C738.599 422.022 737.884 421.783 737.884 416.539C737.884 405.336 747.896 398.423 764.82 398.185H776.023V410.103Z" fill="white"/>
<path d="M801.052 395.801C795.57 406.289 796.285 434.178 802.006 441.329C806.058 446.573 808.919 447.05 829.418 447.765L852.302 448.719V442.521C852.302 436.562 852.063 436.562 831.564 435.847L810.587 435.132V417.254V399.376L831.564 398.661C850.395 397.946 852.302 397.469 852.302 393.417C852.302 388.888 850.633 388.65 828.465 388.65H804.866L801.052 395.801Z" fill="white"/>
<path d="M859.452 393.179C859.452 397.231 861.359 397.946 870.894 398.661L882.097 399.376L882.812 423.69C883.289 446.335 883.766 448.242 888.056 448.242C892.585 448.242 892.824 446.573 892.824 423.213V398.184H904.742C914.992 398.184 916.661 397.469 916.661 393.417C916.661 388.888 914.992 388.65 888.056 388.65C861.359 388.65 859.452 388.888 859.452 393.179Z" fill="white"/>
<path d="M935.492 392.225C925.481 397.708 921.19 409.865 921.905 429.649C922.382 443.713 923.336 447.05 926.673 447.765C929.533 448.242 930.725 446.573 931.44 440.614L932.155 432.748H951.225H970.294L971.009 440.376C971.486 446.335 972.916 448.242 976.492 448.242C980.782 448.242 981.021 446.335 981.021 418.446V388.65H961.475C949.079 388.888 939.306 390.08 935.492 392.225ZM971.486 410.103V422.021H952.655C942.167 422.021 932.87 421.068 932.155 419.638C929.772 415.824 936.446 404.62 942.882 401.283C946.219 399.615 953.847 398.184 960.283 398.184H971.486V410.103Z" fill="white"/>
<path d="M995.799 417.731L996.514 447.051L1018.92 447.766C1045.62 448.481 1052.53 445.62 1052.53 433.225C1052.53 428.935 1051.1 423.214 1049.19 420.83C1047.29 417.97 1046.57 412.726 1047.29 406.051C1048.96 390.319 1046.33 388.65 1018.68 388.65H995.084L995.799 417.731ZM1037.51 401.999C1039.66 407.958 1031.79 412.487 1019.87 412.487C1011.29 412.487 1009.62 413.202 1009.62 417.255C1009.62 421.545 1011.29 422.022 1022.5 422.022C1035.84 422.022 1043 425.836 1043 432.987C1043 435.609 1038.94 436.324 1023.93 436.324H1004.86V417.255V398.185H1020.35C1032.75 398.185 1036.32 399.139 1037.51 401.999Z" fill="white"/>
<path d="M1062.07 415.585C1062.07 433.463 1063.02 443.474 1064.93 445.381C1066.83 447.288 1076.37 448.242 1092.34 448.242H1116.89V442.283C1116.89 436.323 1116.65 436.323 1095.44 436.323H1073.98V412.487V388.65H1068.02H1062.07V415.585Z" fill="white"/>
<path d="M1124.99 392.226C1124.28 394.133 1124.04 405.575 1124.28 417.493C1125.23 437.039 1125.71 439.661 1130.95 443.714C1135.72 447.766 1139.77 448.243 1157.17 447.766C1176.48 447.051 1177.67 446.812 1178.39 441.568C1179.1 436.562 1178.63 436.324 1157.65 436.324H1135.96V417.255V398.185H1157.41C1177.2 398.185 1178.87 397.947 1178.87 393.418C1178.87 388.889 1177.2 388.65 1152.65 388.65C1131.43 388.65 1125.95 389.366 1124.99 392.226Z" fill="white"/>
<path d="M1218.67 390.318C1217.72 391.033 1217 403.905 1217 418.684C1217 440.852 1217.72 445.62 1220.82 446.812C1222.96 447.527 1233.93 448.242 1245.37 448.242C1269.92 448.242 1276.6 445.143 1276.6 432.986C1276.6 428.696 1275.17 423.213 1273.26 420.591C1270.88 417.492 1270.16 412.725 1271.11 406.051C1273.26 390.318 1270.4 388.65 1243.23 388.65C1230.59 388.65 1219.39 389.365 1218.67 390.318ZM1259.91 403.905C1259.91 410.58 1256.1 412.487 1241.8 412.487C1232.98 412.487 1231.31 413.202 1231.31 417.254C1231.31 421.306 1232.98 422.021 1243.46 422.021C1257.77 422.021 1264.68 425.12 1264.68 431.556C1264.68 435.847 1263.01 436.323 1246.8 436.323H1228.92V417.254V398.184H1244.42C1259.2 398.184 1259.91 398.423 1259.91 403.905Z" fill="white"/>
<path d="M1286.13 413.202C1286.13 446.812 1286.37 447.05 1316.4 447.05C1338.81 447.05 1339.76 446.812 1340.48 441.806C1341.19 436.801 1340.48 436.562 1319.03 435.847L1296.86 435.132L1296.14 416.539L1295.43 398.185H1318.31C1339.29 398.185 1340.96 397.946 1340.96 393.417C1340.96 388.888 1339.29 388.65 1313.54 388.65H1286.13V413.202Z" fill="white"/>
<path d="M1350.97 417.732L1351.68 447.051L1369.56 447.766C1398.16 448.72 1410.08 440.138 1410.08 417.732C1410.08 406.052 1405.08 394.848 1398.4 391.034C1395.78 389.843 1383.86 388.651 1371.94 388.651H1350.25L1350.97 417.732ZM1392.92 401.999C1397.21 404.86 1398.16 407.959 1398.16 417.255C1398.16 433.226 1394.59 436.324 1375.28 436.324H1360.03V418.924C1360.03 409.15 1360.74 400.569 1361.69 399.854C1364.79 396.755 1387.68 398.185 1392.92 401.999Z" fill="white"/>
<path d="M1452.04 392.464C1449.18 395.324 1448.22 401.283 1448.22 418.207C1448.22 446.335 1448.7 446.812 1478.49 447.765L1500.66 448.719V442.521C1500.66 436.562 1500.42 436.562 1479.92 435.847L1458.95 435.132V417.254V399.376L1479.92 398.661C1498.76 397.946 1500.66 397.469 1500.66 393.417C1500.66 389.127 1498.99 388.65 1478.26 388.65C1460.86 388.65 1454.9 389.603 1452.04 392.464Z" fill="white"/>
<path d="M1585.28 406.051C1599.59 437.515 1605.55 448.242 1609.12 448.242C1611.27 448.242 1618.42 436.8 1627 419.638C1634.86 403.905 1641.3 390.557 1641.3 389.842C1641.3 389.126 1638.44 388.65 1635.1 388.65C1629.86 388.65 1627.95 391.272 1619.37 409.388L1609.84 430.364L1599.35 409.388C1590.53 391.987 1587.91 388.65 1582.9 388.65H1577.18L1585.28 406.051Z" fill="white"/>
<path d="M1648.45 413.202C1648.45 446.812 1648.69 447.05 1678.72 447.05C1701.13 447.05 1702.08 446.812 1702.8 441.806C1703.51 436.801 1702.8 436.562 1681.35 435.847L1659.18 435.132L1658.46 416.539L1657.75 398.185H1680.63C1701.61 398.185 1703.28 397.946 1703.28 393.417C1703.28 388.888 1701.61 388.65 1675.86 388.65H1648.45V413.202Z" fill="white"/>
<path d="M1712.81 418.446C1712.81 446.573 1713.05 448.242 1717.58 448.242C1722.11 448.242 1722.35 446.573 1722.35 423.213V398.184H1741.41H1760.48V404.859C1760.48 414.632 1756.43 417.254 1740.94 417.254C1728.78 417.254 1727.11 417.731 1727.11 422.021C1727.11 424.643 1728.78 426.789 1730.69 426.789C1732.6 426.789 1739.51 431.556 1746.18 437.515C1755.96 446.096 1760.01 448.242 1767.16 448.242H1775.74L1764.06 437.515C1754.05 428.696 1752.86 427.027 1757.39 426.789C1768.59 426.55 1776.45 405.574 1770.02 393.179C1767.64 389.126 1764.77 388.65 1740.22 388.65H1712.81V418.446Z" fill="white"/>
<path d="M1785.99 392.94C1780.51 398.9 1780.75 413.202 1786.23 417.969C1789.57 421.068 1795.29 422.021 1807.44 422.021C1825.08 422.021 1831.52 425.359 1828.66 432.748C1827.7 435.608 1822.7 436.323 1804.58 436.323H1781.94V442.521V448.719L1805.54 447.765C1833.43 446.812 1839.15 443.713 1839.15 429.172C1839.15 416.777 1834.62 413.917 1811.97 412.487C1793.38 411.295 1792.66 411.056 1792.66 405.336C1792.66 399.376 1793.14 399.376 1813.64 398.661C1832.47 397.946 1834.38 397.469 1834.38 393.417C1834.38 389.127 1832.71 388.65 1812.21 388.65C1793.62 388.65 1789.09 389.365 1785.99 392.94Z" fill="white"/>
<path d="M547.189 417.254C547.189 421.545 548.858 422.022 563.875 422.022C578.892 422.022 580.561 421.545 580.561 417.254C580.561 412.964 578.892 412.487 563.875 412.487C548.858 412.487 547.189 412.964 547.189 417.254Z" fill="white"/>
<path d="M1140.73 417.254C1140.73 421.545 1142.4 422.022 1157.41 422.022C1172.43 422.022 1174.1 421.545 1174.1 417.254C1174.1 412.964 1172.43 412.487 1157.41 412.487C1142.4 412.487 1140.73 412.964 1140.73 417.254Z" fill="white"/>
<path d="M1300.43 417.254C1300.43 421.545 1302.1 422.022 1317.12 422.022C1332.14 422.022 1333.81 421.545 1333.81 417.254C1333.81 412.964 1332.14 412.487 1317.12 412.487C1302.1 412.487 1300.43 412.964 1300.43 417.254Z" fill="white"/>
<path d="M1662.75 417.254C1662.75 421.545 1664.42 422.022 1680.63 422.022C1696.84 422.022 1698.51 421.545 1698.51 417.254C1698.51 412.964 1696.84 412.487 1680.63 412.487C1664.42 412.487 1662.75 412.964 1662.75 417.254Z" fill="white"/>
</svg>
