<svg width="2286" height="601" viewBox="0 0 2286 601" fill="none" xmlns="http://www.w3.org/2000/svg">
<path d="M242.155 4.8959C109.813 33.7653 15.2013 138.095 1.76696 270.723C-11.0957 397.635 56.3616 517.4 171.839 572.566C213.571 592.575 237.868 598.291 288.461 600.007C350.773 602.293 388.789 594.576 439.382 569.136C463.392 557.131 499.979 530.548 517.415 512.827L528.277 501.393L521.703 491.675C517.987 486.53 488.26 445.083 455.675 399.921C422.803 354.473 396.221 316.171 396.221 314.742C396.221 313.313 397.364 312.17 399.079 312.17C400.508 312.17 408.797 309.597 417.373 306.167C439.382 298.164 459.105 279.298 469.395 257.289C477.112 240.139 477.684 237.281 477.684 199.264C477.684 163.535 477.112 158.104 471.396 147.814C463.106 132.093 454.531 123.804 440.811 117.515C429.949 112.656 419.945 112.084 311.042 112.084H192.705L184.416 120.374L176.127 128.663V270.438V412.212H203.281H230.436V289.303V166.393H326.191H421.946L423.661 173.539C424.804 177.541 424.804 192.118 424.233 205.839C422.803 234.136 419.088 242.426 402.223 252.716C392.505 259.004 388.789 259.29 322.761 260.147L253.303 261.005V288.159V315.028H290.176H327.334L352.202 349.9C366.208 369.337 394.506 408.496 415.372 437.08C436.238 465.949 453.388 490.531 453.388 491.96C453.388 496.534 413.085 520.544 390.218 529.405C262.449 578.569 118.102 512.827 70.9393 383.914C22.0613 249.286 99.237 102.938 240.44 62.9206L263.307 56.3463L1252.59 55.4888L2242.15 54.9172L2263.87 29.1919C2275.88 15.186 2285.6 2.89504 2285.6 2.03754C2285.6 1.18003 1829.97 0.608356 1273.17 0.894192C420.803 0.894192 257.59 1.7517 242.155 4.8959Z" fill="white"/>
<path d="M2233.57 113.513C2214.42 124.375 2215 149.243 2234.72 159.533C2252.73 168.966 2274.16 156.389 2274.16 136.094C2274.16 116.372 2251.01 103.795 2233.57 113.513ZM2262.44 122.374C2265.87 126.662 2268.45 132.95 2268.45 136.38C2268.45 146.67 2257.87 157.818 2248.15 157.818C2237.58 157.818 2225.57 146.67 2225.57 136.952C2225.57 125.519 2235.86 114.943 2247.01 114.943C2253.87 114.943 2258.16 116.943 2262.44 122.374Z" fill="white"/>
<path d="M2237 136.381C2237 143.526 2238.43 149.243 2239.86 149.243C2241.58 149.243 2242.72 146.671 2242.72 143.526C2242.72 140.382 2243.86 137.81 2245.58 137.81C2247.01 137.81 2249.58 140.382 2251.3 143.526C2255.87 151.816 2260.44 150.672 2257.01 142.097C2255.3 137.81 2255.3 134.38 2257.01 133.522C2262.73 130.092 2256.16 123.518 2246.72 123.518C2237 123.518 2237 123.804 2237 136.381ZM2252.15 130.664C2252.44 132.093 2250.44 133.808 2247.87 134.38C2244.72 134.951 2242.72 133.522 2242.72 130.664C2242.72 125.805 2251.3 125.519 2252.15 130.664Z" fill="white"/>
<path d="M538.853 120.659L530.278 128.949L531.136 245.57C531.993 359.333 532.279 362.477 538.282 373.91C541.712 380.199 549.429 389.917 555.146 395.062C576.584 413.641 575.155 413.641 695.777 414.499L804.967 415.356V388.202V360.762H704.924C599.736 360.762 591.161 359.904 586.588 347.899C585.731 345.327 584.873 303.309 584.873 254.717V166.393H694.92H804.967V139.239V112.084H676.055H547.143L538.853 120.659Z" fill="white"/>
<path d="M836.408 139.239V166.393H896.434H956.459V290.732V415.071H983.614H1010.77V290.732V166.393H1072.22H1133.68V139.239V112.085H985.043H836.408V139.239Z" fill="white"/>
<path d="M1181.98 120.374L1173.69 128.663V271.867V415.071H1200.85H1228V290.732V166.393H1322.04C1401.79 166.393 1416.37 166.965 1419.51 170.681C1422.09 173.539 1422.66 183.258 1421.8 202.694C1420.66 234.136 1417.23 242.14 1399.79 252.716C1390.07 259.004 1386.36 259.29 1320.33 260.147L1250.87 261.005V288.159V315.028H1270.31H1289.46L1347.48 365.049L1405.51 415.356L1447.24 414.499L1488.97 413.641L1432.66 365.049L1376.35 316.743L1393.79 313.027C1429.23 305.881 1454.1 287.588 1467.53 258.432C1474.11 244.141 1475.25 237.566 1476.11 206.982C1477.54 165.25 1474.39 151.53 1460.1 134.665C1440.67 112.084 1442.09 112.084 1308.61 112.084H1190.27L1181.98 120.374Z" fill="white"/>
<path d="M1637.61 116.086C1588.44 128.091 1548.71 166.393 1532.13 217.844C1527.85 231.278 1526.99 247.571 1525.84 324.175L1524.7 415.071H1553.57H1582.44V377.912V340.753H1678.2H1773.95V377.912V415.071H1801.1H1828.26V271.295C1827.97 120.088 1828.26 122.661 1814.82 115.515C1805.96 110.655 1657.61 111.227 1637.61 116.086ZM1773.95 226.419V286.445H1678.2H1582.44V263.864C1582.44 214.128 1605.02 183.258 1651.04 170.395C1659.04 168.108 1684.48 166.679 1719.07 166.679L1773.95 166.393V226.419Z" fill="white"/>
<path d="M1871.42 119.802C1875.42 124.376 1904.86 158.39 1936.59 195.835L1994.62 263.578L1935.16 333.036C1902.58 371.052 1873.42 405.067 1870.28 408.497L1864.56 415.071L1902.86 414.785L1941.16 414.499L1985.47 362.191C2009.76 333.036 2030.63 309.311 2031.49 309.311C2032.63 309.311 2053.78 333.036 2078.65 362.191L2123.81 415.071H2160.4C2180.41 415.071 2196.99 414.499 2196.99 413.927C2196.99 413.07 2168.69 379.627 2134.1 339.324C2099.52 299.021 2071.22 265.007 2071.22 263.578C2071.22 262.149 2099.52 228.134 2134.1 188.117C2168.69 148.1 2196.99 114.657 2196.99 113.8C2196.99 112.656 2180.41 112.085 2160.4 112.085H2123.81L2078.37 164.964C2053.5 194.12 2032.35 217.558 2031.2 217.272C2030.06 216.701 2008.91 192.976 1984.33 164.107L1939.45 112.085H1902H1864.27L1871.42 119.802Z" fill="white"/>
<path d="M607.739 263.578V292.161L694.348 291.589L780.67 290.732L781.528 262.72L782.385 234.994H694.919H607.739V263.578Z" fill="white"/>
<path d="M1826.26 467.95C1813.97 473.095 1811.11 479.955 1811.11 502.25C1811.11 519.686 1811.97 521.973 1819.68 529.976C1828.26 538.266 1829.12 538.551 1849.98 537.408C1869.42 536.551 1872.56 535.693 1878.28 528.547C1893.43 511.397 1889.43 477.668 1871.13 468.807C1859.13 462.805 1838.84 462.233 1826.26 467.95ZM1869.42 484.243C1875.42 492.818 1875.14 511.683 1869.13 518.543C1865.7 522.259 1860.27 523.688 1847.98 523.688C1827.4 523.688 1822.54 519.4 1822.54 501.679C1822.54 482.813 1827.97 477.954 1848.55 477.954C1862.27 477.954 1865.7 479.098 1869.42 484.243Z" fill="white"/>
<path d="M554.002 501.392C554.86 534.264 555.145 536.55 560.576 536.55C566.007 536.55 566.293 534.264 567.15 507.109L568.008 477.668L590.017 478.526L612.027 479.383L611.455 487.672C610.598 498.534 606.882 500.821 587.159 500.821C572.581 500.821 570.581 501.392 570.581 506.538C570.581 509.968 572.581 512.254 575.154 512.254C577.726 512.254 586.587 517.971 594.591 525.117C606.31 534.835 612.027 537.979 619.458 537.979L629.177 537.694L616.886 527.118C604.309 515.97 602.308 512.254 608.883 512.254C615.743 512.254 624.889 497.962 624.889 487.387C624.889 467.664 622.889 466.52 586.016 466.52H553.145L554.002 501.392Z" fill="white"/>
<path d="M639.182 497.677C639.182 523.116 640.039 529.405 644.041 532.549C646.899 535.121 658.333 536.836 675.483 537.408L702.066 538.551V531.12C702.066 523.974 701.78 523.974 677.198 523.116L652.044 522.259L651.187 499.963L650.329 477.954H676.34C700.065 477.954 702.066 477.668 702.066 472.237C702.066 466.806 700.065 466.521 670.624 466.521H639.182V497.677Z" fill="white"/>
<path d="M710.641 472.237C710.641 477.096 712.641 477.954 724.932 477.954H739.224V507.967C739.224 535.979 739.51 537.979 744.941 537.979C750.372 537.979 750.658 535.979 750.658 507.967V477.954H764.949C777.24 477.954 779.241 477.096 779.241 472.237C779.241 466.806 777.24 466.52 744.941 466.52C712.641 466.52 710.641 466.806 710.641 472.237Z" fill="white"/>
<path d="M788.959 470.236C788.388 472.237 788.102 487.958 788.388 505.394C789.245 535.121 789.531 536.55 795.819 537.408C802.108 538.265 802.108 537.979 802.108 508.253V477.954H824.975H847.841V485.957C847.841 497.677 842.982 500.821 824.403 500.821C809.825 500.821 807.824 501.392 807.824 506.538C807.824 509.682 809.254 512.254 810.969 512.254C812.969 512.254 821.545 517.971 830.12 525.117C841.267 534.549 848.127 537.979 854.701 537.979L863.562 537.694L851.557 526.832C838.409 514.827 836.98 512.254 843.554 512.254C845.841 512.254 850.414 509.682 853.558 506.538C860.132 499.963 861.562 475.667 855.845 469.951C850.7 464.805 790.96 465.091 788.959 470.236Z" fill="white"/>
<path d="M883.571 475.954C873.281 486.244 869.565 500.536 871.28 523.688C871.851 534.264 873.281 536.837 878.426 537.408C883.571 538.266 884.714 536.837 885.572 528.833L886.429 519.401L908.438 518.543L930.448 517.686L931.305 527.118C931.877 533.407 933.878 536.837 937.308 537.408C941.595 538.266 942.167 535.122 942.167 502.536V466.521H917.585C893.575 466.521 892.717 466.807 883.571 475.954ZM930.734 492.246V506.538H907.867C885.857 506.538 885 506.252 885 499.964C885 486.53 897.005 478.24 917.299 477.955H930.734V492.246Z" fill="white"/>
<path d="M960.747 475.096C954.173 487.672 955.03 521.115 961.89 529.69C966.75 535.979 970.18 536.55 994.761 537.408L1022.2 538.551V531.12C1022.2 523.974 1021.92 523.974 997.334 523.116L972.18 522.259V500.821V479.383L997.334 478.526C1019.92 477.668 1022.2 477.097 1022.2 472.237C1022.2 466.806 1020.2 466.521 993.618 466.521H965.32L960.747 475.096Z" fill="white"/>
<path d="M1030.78 471.951C1030.78 476.811 1033.06 477.668 1044.5 478.526L1057.93 479.383L1058.79 508.538C1059.36 535.693 1059.93 537.979 1065.08 537.979C1070.51 537.979 1070.79 535.979 1070.79 507.967V477.954H1085.09C1097.38 477.954 1099.38 477.096 1099.38 472.237C1099.38 466.806 1097.38 466.52 1065.08 466.52C1033.06 466.52 1030.78 466.806 1030.78 471.951Z" fill="white"/>
<path d="M1121.96 470.808C1109.95 477.382 1104.81 491.96 1105.67 515.684C1106.24 532.549 1107.38 536.55 1111.38 537.408C1114.81 537.979 1116.24 535.979 1117.1 528.833L1117.96 519.4H1140.82H1163.69L1164.55 528.547C1165.12 535.693 1166.83 537.979 1171.12 537.979C1176.27 537.979 1176.55 535.693 1176.55 502.25V466.52H1153.11C1138.25 466.806 1126.53 468.235 1121.96 470.808ZM1165.12 492.246V506.538H1142.54C1129.96 506.538 1118.81 505.394 1117.96 503.679C1115.1 499.106 1123.1 485.671 1130.82 481.67C1134.82 479.669 1143.97 477.954 1151.69 477.954H1165.12V492.246Z" fill="white"/>
<path d="M1194.27 501.393L1195.13 536.551L1222 537.409C1254.01 538.266 1262.3 534.836 1262.3 519.973C1262.3 514.827 1260.59 507.967 1258.3 505.109C1256.02 501.679 1255.16 495.391 1256.02 487.387C1258.02 468.522 1254.87 466.521 1221.71 466.521H1193.42L1194.27 501.393ZM1244.3 482.528C1246.87 489.674 1237.44 495.105 1223.14 495.105C1212.85 495.105 1210.85 495.962 1210.85 500.821C1210.85 505.967 1212.85 506.538 1226.29 506.538C1242.29 506.538 1250.87 511.112 1250.87 519.687C1250.87 522.831 1246.01 523.688 1228 523.688H1205.14V500.821V477.955H1223.72C1238.58 477.955 1242.87 479.098 1244.3 482.528Z" fill="white"/>
<path d="M1273.74 498.82C1273.74 520.258 1274.88 532.263 1277.17 534.549C1279.45 536.836 1290.89 537.979 1310.04 537.979H1339.48V530.834C1339.48 523.688 1339.19 523.688 1313.75 523.688H1288.03V495.104V466.52H1280.88H1273.74V498.82Z" fill="white"/>
<path d="M1349.2 470.809C1348.34 473.096 1348.05 486.816 1348.34 501.107C1349.48 524.546 1350.06 527.69 1356.34 532.549C1362.06 537.409 1366.92 537.98 1387.79 537.409C1410.94 536.551 1412.37 536.265 1413.23 529.977C1414.08 523.974 1413.51 523.689 1388.36 523.689H1362.35V500.822V477.955H1388.07C1411.8 477.955 1413.8 477.669 1413.8 472.238C1413.8 466.807 1411.8 466.521 1382.36 466.521C1356.92 466.521 1350.34 467.379 1349.2 470.809Z" fill="white"/>
<path d="M1461.53 468.521C1460.39 469.379 1459.53 484.814 1459.53 502.536C1459.53 529.119 1460.39 534.835 1464.1 536.264C1466.68 537.122 1479.83 537.979 1493.55 537.979C1522.99 537.979 1530.99 534.264 1530.99 519.686C1530.99 514.541 1529.28 507.967 1526.99 504.823C1524.13 501.107 1523.27 495.39 1524.42 487.387C1526.99 468.521 1523.56 466.52 1490.97 466.52C1475.82 466.52 1462.39 467.378 1461.53 468.521ZM1510.98 484.814C1510.98 492.817 1506.41 495.104 1489.26 495.104C1478.68 495.104 1476.68 495.962 1476.68 500.821C1476.68 505.68 1478.68 506.538 1491.26 506.538C1508.41 506.538 1516.7 510.253 1516.7 517.971C1516.7 523.116 1514.7 523.688 1495.26 523.688H1473.82V500.821V477.954H1492.4C1510.12 477.954 1510.98 478.24 1510.98 484.814Z" fill="white"/>
<path d="M1542.42 495.962C1542.42 536.265 1542.71 536.551 1578.72 536.551C1605.59 536.551 1606.74 536.265 1607.59 530.262C1608.45 524.26 1607.59 523.974 1581.87 523.116L1555.29 522.259L1554.43 499.964L1553.57 477.954H1581.01C1606.16 477.954 1608.17 477.669 1608.17 472.238C1608.17 466.807 1606.16 466.521 1575.29 466.521H1542.42V495.962Z" fill="white"/>
<path d="M1620.17 501.394L1621.03 536.552L1642.47 537.409C1676.77 538.552 1691.06 528.262 1691.06 501.394C1691.06 487.388 1685.06 473.953 1677.05 469.38C1673.91 467.951 1659.62 466.522 1645.32 466.522H1619.31L1620.17 501.394ZM1670.48 482.529C1675.62 485.959 1676.77 489.674 1676.77 500.822C1676.77 519.973 1672.48 523.689 1649.33 523.689H1631.03V502.823C1631.03 491.104 1631.89 480.813 1633.03 479.956C1636.75 476.24 1664.19 477.955 1670.48 482.529Z" fill="white"/>
<path d="M1741.37 471.094C1737.94 474.524 1736.79 481.67 1736.79 501.964C1736.79 535.693 1737.36 536.265 1773.09 537.408L1799.68 538.551V531.12C1799.68 523.974 1799.39 523.974 1774.81 523.116L1749.65 522.259V500.821V479.383L1774.81 478.526C1797.39 477.668 1799.68 477.097 1799.68 472.237C1799.68 467.092 1797.68 466.521 1772.81 466.521C1751.94 466.521 1744.8 467.664 1741.37 471.094Z" fill="white"/>
<path d="M1901.15 487.387C1918.3 525.117 1925.44 537.979 1929.73 537.979C1932.3 537.979 1940.88 524.259 1951.17 503.679C1960.6 484.814 1968.32 468.807 1968.32 467.95C1968.32 467.092 1964.89 466.52 1960.89 466.52C1954.6 466.52 1952.31 469.665 1942.02 491.388L1930.59 516.542L1918.01 491.388C1907.44 470.522 1904.29 466.52 1898.29 466.52H1891.43L1901.15 487.387Z" fill="white"/>
<path d="M1976.89 495.962C1976.89 536.265 1977.18 536.551 2013.2 536.551C2040.06 536.551 2041.21 536.265 2042.07 530.262C2042.92 524.26 2042.07 523.974 2016.34 523.116L1989.76 522.259L1988.9 499.964L1988.04 477.954H2015.48C2040.64 477.954 2042.64 477.669 2042.64 472.238C2042.64 466.807 2040.64 466.521 2009.77 466.521H1976.89V495.962Z" fill="white"/>
<path d="M2054.07 502.25C2054.07 535.979 2054.36 537.979 2059.79 537.979C2065.22 537.979 2065.5 535.979 2065.5 507.967V477.954H2088.37H2111.24V485.957C2111.24 497.677 2106.38 500.821 2087.8 500.821C2073.22 500.821 2071.22 501.392 2071.22 506.538C2071.22 509.682 2073.22 512.254 2075.51 512.254C2077.79 512.254 2086.08 517.971 2094.09 525.117C2105.81 535.407 2110.67 537.979 2119.24 537.979H2129.53L2115.53 525.117C2103.52 514.541 2102.09 512.54 2107.52 512.254C2120.96 511.968 2130.39 486.815 2122.67 471.951C2119.81 467.092 2116.38 466.52 2086.94 466.52H2054.07V502.25Z" fill="white"/>
<path d="M2141.82 471.666C2135.25 478.812 2135.53 495.962 2142.11 501.678C2146.11 505.394 2152.97 506.538 2167.55 506.538C2188.7 506.538 2196.42 510.539 2192.99 519.4C2191.84 522.83 2185.84 523.688 2164.12 523.688H2136.96V531.12V538.551L2165.26 537.408C2198.7 536.265 2205.56 532.549 2205.56 515.113C2205.56 500.249 2200.13 496.819 2172.98 495.104C2150.68 493.675 2149.83 493.389 2149.83 486.529C2149.83 479.383 2150.4 479.383 2174.98 478.526C2197.56 477.668 2199.85 477.097 2199.85 472.237C2199.85 467.092 2197.85 466.521 2173.26 466.521C2150.97 466.521 2145.54 467.378 2141.82 471.666Z" fill="white"/>
<path d="M656.332 500.821C656.332 505.966 658.333 506.538 676.341 506.538C694.348 506.538 696.349 505.966 696.349 500.821C696.349 495.676 694.348 495.105 676.341 495.105C658.333 495.105 656.332 495.676 656.332 500.821Z" fill="white"/>
<path d="M1368.06 500.821C1368.06 505.966 1370.06 506.538 1388.07 506.538C1406.08 506.538 1408.08 505.966 1408.08 500.821C1408.08 495.676 1406.08 495.105 1388.07 495.105C1370.06 495.105 1368.06 495.676 1368.06 500.821Z" fill="white"/>
<path d="M1559.57 500.821C1559.57 505.966 1561.57 506.538 1579.58 506.538C1597.59 506.538 1599.59 505.966 1599.59 500.821C1599.59 495.676 1597.59 495.105 1579.58 495.105C1561.57 495.105 1559.57 495.676 1559.57 500.821Z" fill="white"/>
<path d="M1994.04 500.821C1994.04 505.966 1996.04 506.538 2015.48 506.538C2034.92 506.538 2036.92 505.966 2036.92 500.821C2036.92 495.676 2034.92 495.105 2015.48 495.105C1996.04 495.105 1994.04 495.676 1994.04 500.821Z" fill="white"/>
</svg>
