<svg width="2841" height="500" viewBox="0 0 2841 500" fill="none" xmlns="http://www.w3.org/2000/svg">
<path fill-rule="evenodd" clip-rule="evenodd" d="M281.197 3.73158C279.892 6.02105 217.018 114.626 141.486 245.079C65.9549 375.526 2.60232 486.305 0.70758 491.253C-2.48189 499.558 4.58651 500.132 93.8812 498.805L190.508 497.368L238.118 415.789L285.734 334.211L439.334 332.816L592.934 331.421L545.702 413.116C519.729 458.042 498.476 495.974 498.476 497.405C498.476 498.832 541.771 500 594.692 500H690.902L738.892 417.021C785.265 336.837 802.292 296.489 796.323 280.932C794.587 276.4 807.476 259.658 829.329 238.063C875.302 192.637 909.013 128.937 908.981 87.5474C908.955 52.0053 895.818 31.121 863.465 15.1947L837.95 2.63158L560.766 1.1C408.313 0.25263 282.508 1.43684 281.197 3.73158ZM877.955 246.542C799.508 382.142 735.318 494.642 735.318 496.542C735.318 498.442 778.544 499.984 831.371 499.958L927.423 499.921L1069.53 254.563C1147.69 119.621 1212.42 7.13684 1213.39 4.60526C1214.36 2.07368 1171.37 0 1117.87 0H1020.6L877.955 246.542ZM1403.7 5.74734C1365.19 9.89471 1341.04 18.0474 1290.58 43.9684C1223.35 78.5 1191.41 114.942 1121.02 237.426C1047.3 365.716 1040.84 379.958 1040.7 414.458C1040.6 438.868 1042.79 444.516 1059.59 463.111C1092.52 499.568 1096.41 500 1390.81 500H1649.66L1734.39 353.595C1780.99 273.068 1820.65 203.2 1822.52 198.332C1825.66 190.142 1813.05 189.474 1655.52 189.474H1485.12L1449.94 250L1414.75 310.526H1488.63C1529.27 310.526 1561.64 312.305 1560.59 314.474C1559.53 316.642 1555.34 325.068 1551.28 333.189L1543.89 347.958L1400.13 346.979C1321.06 346.442 1256.37 345.047 1256.37 343.884C1256.37 342.716 1280.3 300.389 1309.54 249.826L1362.72 157.895L1605.6 157.805L1848.48 157.716L1891.67 82.8053L1934.87 7.89474L1904.83 6.61051C1834.4 3.59472 1430.19 2.89998 1403.7 5.74734ZM1836.49 246.989C1757.69 382.832 1693.21 495.332 1693.21 496.989C1693.21 498.642 1736.58 500 1789.59 500H1885.97L2029.07 252.995C2107.77 117.142 2172.16 4.64211 2172.16 2.99474C2172.16 1.34737 2128.87 0 2075.96 0H1979.76L1836.49 246.989ZM2214.35 7.89474C2209.14 14.3105 1930.05 495.611 1930.05 498.179C1930.05 499.179 2056.27 500 2210.53 500C2522.73 500 2521.87 500.079 2590.1 464.379C2653.55 431.174 2686.02 393.042 2760.72 264.032C2837.79 130.937 2840.58 124.721 2840.58 86.3895C2840.58 59 2839.01 55.0895 2820.66 36.7263C2809.27 25.3368 2791.79 14.4264 2779.87 11.2579C2751.75 3.78425 2220.25 0.626316 2214.35 7.89474ZM654.865 159.263L692.829 160.526L681.976 177.632L671.129 194.737H518.702C398.239 194.737 367.076 193.358 370.081 188.158C372.176 184.542 377.971 175.658 382.96 168.421L392.039 155.263L504.465 156.632C566.302 157.389 633.981 158.574 654.865 159.263ZM2620.82 172.368C2615.35 180.326 2590.1 222.963 2564.71 267.105L2518.55 347.368H2364.17H2209.8L2244.18 288.158C2263.09 255.595 2287.88 212.963 2299.28 193.421L2319.99 157.895H2475.38H2630.77L2620.82 172.368Z" fill="currentColor"/>
</svg>
