<svg width="1370" height="501" viewBox="0 0 1370 501" fill="none" xmlns="http://www.w3.org/2000/svg">
<path fill-rule="evenodd" clip-rule="evenodd" d="M0.890625 2.88429C0.890625 4.25902 29.0101 33.4737 63.3783 67.8057L125.866 130.228V231.392V332.556H216.309H306.751V207.087V81.6155L339.432 83.7598C357.409 84.9372 376.277 87.4762 381.365 89.4067C404.785 98.2767 412.421 118.651 397.809 133.263C388.077 142.998 356.13 155.025 333.789 157.367C324.238 158.37 315.687 160.386 314.783 161.846C313.878 163.31 332.052 186.966 355.166 214.422C427.033 299.77 437.311 311.998 514.513 403.993L589.64 493.518H694.724C753.867 493.518 800.608 492.215 801.644 490.541C802.657 488.904 772.446 450.839 734.512 405.949L665.539 324.334L755.827 323.459L846.119 322.584V161.435V0.286133L749.92 1.15767L653.722 2.02921L652.078 154.96L650.433 307.89L632.345 286.289C622.396 274.41 599.825 247.576 582.19 226.666C564.552 205.752 550.124 187.802 550.124 186.776C550.124 185.75 558.221 179.537 568.117 172.969C613 143.176 629.707 85.4765 604.048 48.8785C585.364 22.2292 549.588 10.0375 471.193 3.59798C426.303 -0.0887935 0.890625 -0.733412 0.890625 2.88429ZM913.595 14.3623C907.774 27.6064 898.424 47.757 864.207 120.762C856.067 138.127 849.407 153.016 849.407 153.845C849.407 155.338 858.902 167.799 920.752 247.491C1019.88 375.212 1104.7 483.316 1112 491.242L1120.32 500.286H1224.95C1282.49 500.286 1329.58 499.398 1329.58 498.313C1329.58 496.514 1307.03 469.052 1218.76 363.333C1201.93 343.176 1188.16 325.788 1188.16 324.689C1188.16 323.587 1228.86 322.69 1278.6 322.69H1369.04V161.537V0.384794H1273.7H1178.35L1177.5 156.759L1176.65 313.129L1115.8 239.976C1082.34 199.74 1052.09 163.198 1048.59 158.775C1042.76 151.401 1042.65 150.007 1047.2 142.153C1049.94 137.44 1066.68 108.423 1084.39 77.6722C1102.11 46.9217 1119.51 16.9539 1123.05 11.0735L1129.49 0.384794H1024.62H919.739L913.595 14.3623Z" fill="white"/>
</svg>
