<svg width="2559" height="500" viewBox="0 0 2559 500" fill="none" xmlns="http://www.w3.org/2000/svg">
<path d="M366.162 484.848L267.677 330.808H169.192V484.848H0V15.1514H328.283C489.899 15.1514 537.879 93.4342 537.879 169.192C537.879 222.222 512.626 282.828 439.394 310.606L553.03 482.323H366.162V484.848ZM169.192 123.737V229.798H287.879C340.909 229.798 358.586 204.545 358.586 174.242C358.586 146.465 340.909 121.212 287.879 121.212H169.192V123.737Z" fill="currentColor"/>
<path d="M568.182 250C568.182 95.9596 691.92 0 886.364 0C1080.81 0 1204.55 95.9596 1204.55 250C1204.55 404.04 1080.81 500 886.364 500C691.92 500 568.182 404.04 568.182 250ZM1025.25 250C1025.25 171.717 969.697 121.212 886.364 121.212C803.031 121.212 747.475 171.717 747.475 250C747.475 325.758 803.031 378.788 886.364 378.788C969.697 378.788 1025.25 325.758 1025.25 250Z" fill="currentColor"/>
<path d="M1823.23 484.848L1606.06 15.1514H1388.89L1171.72 482.323H1234.85H1411.62L1497.47 421.717L1583.33 482.323H1760.1H1823.23V484.848ZM1621.21 386.364L1497.47 300.505H1494.95L1371.21 386.364C1368.69 388.889 1366.16 386.364 1368.69 383.838L1494.95 113.636C1494.95 111.111 1497.47 111.111 1500 113.636L1626.26 383.838C1626.26 386.364 1623.74 388.889 1621.21 386.364Z" fill="currentColor"/>
<path d="M1823.23 484.848L1606.06 15.1514H1388.89L1171.72 482.323H1234.85H1411.62L1497.47 421.717L1583.33 482.323H1760.1H1823.23V484.848ZM1621.21 386.364L1497.47 300.505H1494.95L1371.21 386.364C1368.69 388.889 1366.16 386.364 1368.69 383.838L1494.95 113.636C1494.95 111.111 1497.47 111.111 1500 113.636L1626.26 383.838C1626.26 386.364 1623.74 388.889 1621.21 386.364Z" fill="currentColor"/>
<path d="M1848.48 484.848V15.1512H2098.48L2181.82 252.525C2189.39 275.252 2196.97 292.929 2199.5 310.606H2202.02C2204.55 292.929 2212.12 272.727 2219.7 250L2300.51 12.626H2558.08V479.798H2404.04V227.272C2404.04 196.969 2406.57 161.616 2414.14 128.788H2411.62C2406.57 146.464 2391.41 189.394 2378.79 222.222L2277.78 484.848H2121.21L2020.2 222.222C2007.58 186.868 1997.47 151.515 1989.9 128.788H1987.37C1992.42 159.091 1994.95 196.969 1994.95 227.272V484.848H1848.48Z" fill="currentColor"/>
</svg>
