<svg width="1574" height="501" viewBox="0 0 1574 501" fill="none" xmlns="http://www.w3.org/2000/svg">
<path fill-rule="evenodd" clip-rule="evenodd" d="M769.327 6.75231C766.941 12.844 766.598 14.3674 767.394 15.3519C768.172 16.3132 768.169 16.4315 767.377 15.9551C766.224 15.2622 763.138 21.5797 763.021 24.8726C762.981 26.0017 762.732 26.7928 762.468 26.6304C761.976 26.3288 759.058 33.6802 758.299 37.1309C758.253 37.3435 757.591 38.9096 756.829 40.6109C756.067 42.3123 754.482 46.4884 753.306 49.8911C751.218 55.9309 744.493 73.8772 743.162 76.9582C742.795 77.8089 740.569 83.899 738.215 90.4917C735.861 97.0845 733.617 103.175 733.229 104.025C732.39 105.866 726.263 122.193 723.944 128.772C723.045 131.324 722.011 134.108 721.647 134.959C719.854 139.156 718.031 144.176 717.294 146.946C717.238 147.159 716.748 148.377 716.207 149.653C715.665 150.929 712.093 160.499 708.268 170.92C704.444 181.341 700.99 190.475 700.592 191.217C699.912 192.49 694.219 192.579 601.973 192.764L504.077 192.96L508.376 195.922C510.741 197.551 513.372 199.487 514.223 200.224C516.143 201.889 523.828 207.763 582.108 252.113C586.294 255.299 589.868 257.909 590.049 257.913C590.231 257.917 591.449 258.876 592.756 260.043C595.122 262.156 619.933 281.268 624.135 284.215C625.349 285.066 631.673 289.827 638.191 294.796C644.708 299.765 651.018 304.336 652.212 304.954C653.407 305.574 654.364 306.294 654.339 306.555C654.314 306.815 654.539 307.116 654.839 307.222C655.138 307.328 656.1 308.111 656.975 308.962C657.851 309.813 659.764 311.41 661.227 312.512L663.886 314.516L662.23 321.019C661.319 324.596 659.646 330.828 658.512 334.869C654.836 347.963 653.678 352.12 651.185 361.163C649.837 366.054 648.552 370.666 648.33 371.41C647.953 372.674 645.512 372.763 611.282 372.763H574.639V397.123V421.484H604.406H634.173L633.895 423.61C633.742 424.781 633.415 426.259 633.17 426.897C632.749 427.993 632.033 430.531 628.097 444.877C627.193 448.174 625.713 453.568 624.809 456.864C623.905 460.161 622.483 465.257 621.65 468.188C620.817 471.121 620.01 474.079 619.856 474.762C619.703 475.445 619.245 477.1 618.839 478.44C618.322 480.141 618.367 481.148 618.99 481.781C619.662 482.467 619.629 482.628 618.854 482.44C618.171 482.274 617.241 484.195 616.072 488.185C615.107 491.481 614.611 494.178 614.971 494.178C615.332 494.178 615.626 493.894 615.626 493.548C615.626 493.202 616.914 492.304 618.487 491.554C621.939 489.908 629.831 484.778 630.191 483.947C630.333 483.619 630.728 483.351 631.069 483.351C631.595 483.351 654.908 468.621 672.08 457.439C674.845 455.639 679.021 452.947 681.361 451.458C683.7 449.969 689.268 446.368 693.734 443.455C698.2 440.542 702.433 437.801 703.141 437.361C703.849 436.923 706.286 435.421 708.555 434.025C710.824 432.628 716.161 429.238 720.415 426.49L728.148 421.495L774.02 421.49C822.94 421.483 820.799 421.317 826.17 425.528C827.765 426.777 829.07 427.531 829.07 427.201C829.07 426.872 829.505 427.124 830.036 427.763C831.315 429.298 842.639 436.951 843.632 436.951C844.059 436.951 844.523 437.244 844.666 437.603C844.905 438.207 848.266 440.554 870.12 455.375C874.621 458.427 878.681 460.924 879.142 460.924C879.604 460.924 880.097 461.234 880.24 461.611C880.559 462.462 896.201 473.298 897.109 473.298C897.472 473.298 897.884 473.577 898.027 473.919C898.168 474.26 902.982 477.683 908.724 481.524C914.466 485.366 922.122 490.571 925.738 493.091C929.353 495.61 933.229 498.261 934.351 498.979L936.389 500.286L935.394 497.039C934.846 495.252 929.144 477.957 922.722 458.604C916.3 439.251 911.045 422.982 911.045 422.45C911.044 421.692 918.365 421.484 945.071 421.484H979.099V397.123V372.763H936.691H894.284L884.862 344.342C879.68 328.712 875.448 315.562 875.456 315.122C875.47 314.321 882.063 309.23 896.931 298.54C901.291 295.405 904.858 292.553 904.858 292.201C904.858 291.849 905.189 291.562 905.595 291.562C907 291.562 938.885 268.32 938.885 267.295C938.885 266.889 939.1 266.773 939.364 267.037C939.628 267.3 942.499 265.505 945.744 263.047C948.99 260.589 955.995 255.445 961.312 251.614C976.869 240.407 994.921 227.176 995.339 226.674C995.552 226.419 997.739 224.893 1000.2 223.285C1002.89 221.528 1004.46 220.014 1004.14 219.494C1003.85 219.013 1003.95 218.842 1004.38 219.108C1005.4 219.735 1010.19 216.205 1009.44 215.382C1009.13 215.035 1009.26 214.971 1009.72 215.237C1010.56 215.713 1015.23 212.734 1016.26 211.071C1016.54 210.608 1017.03 210.291 1017.33 210.367C1017.63 210.443 1021.82 207.602 1026.63 204.053C1031.45 200.504 1036.11 197.102 1036.98 196.493C1037.85 195.883 1038.39 195.105 1038.18 194.761C1037.97 194.419 1038.28 194.323 1038.87 194.551C1039.46 194.778 1040.39 194.426 1040.94 193.769C1041.83 192.692 1032.31 192.564 944.779 192.477C891.347 192.423 847.311 192.337 846.921 192.283C845.342 192.068 843.826 188.799 838.625 174.4C837.088 170.146 835.615 166.492 835.351 166.28C835.086 166.067 834.808 165.371 834.733 164.733C834.608 163.672 829.948 150.988 828.341 147.333C827.967 146.482 826.388 142.306 824.831 138.052C823.274 133.799 821.51 129.101 820.909 127.612C820.309 126.124 816.315 115.509 812.032 104.025C807.75 92.5411 803.913 83.0282 803.507 82.8859C803.099 82.7428 802.957 82.3182 803.189 81.9416C803.422 81.5658 802.948 79.5945 802.136 77.5614C800.73 74.0427 795.5 60.3312 791.435 49.5044C790.397 46.7397 789.24 43.7817 788.863 42.931C788.488 42.0803 787.945 40.5143 787.659 39.4509C787.372 38.3876 786.672 36.4735 786.106 35.1975C785.538 33.9215 782.452 25.8137 779.249 17.1801C776.045 8.5457 773.155 1.00248 772.827 0.415513C772.433 -0.286685 771.239 1.87559 769.327 6.75231ZM774.787 50.0844C775.234 51.2545 776.567 54.8923 777.75 58.169C779.589 63.2669 780.18 64.1593 781.845 64.3557C783.395 64.5383 784.079 65.3657 785.216 68.4398L786.643 72.2941L784.922 73.6877L783.201 75.0813L785.346 81.8202C788.949 93.1374 789.131 92.6965 782.577 88.5274C779.438 86.5307 776.285 84.3839 775.571 83.7574C773.844 82.2425 772.44 82.7838 765.214 87.7502C761.859 90.0556 758.972 91.8002 758.798 91.6262C758.625 91.4522 759.465 87.6017 760.666 83.0692C762.679 75.4749 762.751 74.7549 761.568 73.8903C760.379 73.0211 760.397 72.646 761.81 68.7793C762.648 66.484 763.335 64.5143 763.335 64.4021C763.335 64.29 764.157 64.198 765.162 64.198C766.777 64.198 767.333 63.2584 769.964 56.0779C771.599 51.6118 773.171 47.9577 773.456 47.9577C773.741 47.9577 774.34 48.9143 774.787 50.0844ZM774.723 104.219C775.239 105.388 776.07 107.563 776.57 109.052C777.071 110.541 777.73 112.107 778.034 112.532C778.34 112.957 778.818 114.263 779.097 115.432L779.605 117.559H787.71C792.169 117.559 795.816 117.867 795.816 118.245C795.816 118.623 794.745 119.754 793.438 120.758C782.674 129.027 782.59 129.13 784.159 132.07C785.041 133.721 785.923 136.121 786.216 137.666C786.338 138.304 786.863 140.133 787.385 141.73C788.616 145.503 787.875 146.108 784.804 143.838C783.437 142.827 780.282 140.648 777.794 138.995L773.27 135.991L770.043 138.179C768.268 139.383 766.641 140.578 766.429 140.834C766.216 141.091 765.249 141.719 764.28 142.229C763.311 142.739 762.72 143.484 762.967 143.883C763.214 144.282 762.911 144.415 762.294 144.177C761.676 143.941 760.942 144.119 760.661 144.573C760.38 145.027 759.701 145.399 759.152 145.399C758.417 145.399 758.755 143.244 760.432 137.23C762.614 129.407 762.654 128.996 761.352 127.558C760.605 126.732 759.88 126.17 759.741 126.309C759.383 126.666 750.962 118.814 750.962 118.125C750.962 117.813 754.627 117.559 759.106 117.559C764.948 117.559 767.334 117.286 767.546 116.592C767.709 116.061 768.772 113.015 769.909 109.825C771.045 106.635 772.108 103.591 772.271 103.059C772.752 101.487 773.72 101.945 774.723 104.219ZM775.875 160.899C776.71 163.22 777.931 166.598 778.589 168.406L779.786 171.693H787.801C792.209 171.693 795.805 171.954 795.791 172.273C795.753 173.164 793.497 175.955 793.484 175.127C793.477 174.716 793.225 174.738 792.904 175.178C792.592 175.605 791.024 176.933 789.421 178.128C787.818 179.323 786.683 180.587 786.9 180.936C787.116 181.286 786.735 181.524 786.055 181.466C784.031 181.293 782.882 183.766 784.09 185.698C785.056 187.247 785.304 188.036 786.226 192.5C786.437 193.522 786.941 194.978 787.346 195.736C788.549 197.983 788.218 199.448 786.536 199.321C785.685 199.257 784.989 198.936 784.989 198.608C784.989 197.475 773.678 190.518 772.566 190.966C771.955 191.212 768.732 193.241 765.406 195.473C762.078 197.706 759.176 199.533 758.957 199.533C758.397 199.533 759.516 193.126 760.239 192.187C760.567 191.761 761.236 189.512 761.726 187.188C762.729 182.431 762.955 182.783 754.565 176.033C749.841 172.233 750.594 171.627 759.833 171.79L766.77 171.913L767.65 169.676C768.134 168.447 769.486 164.9 770.654 161.796C771.823 158.692 773.134 156.27 773.569 156.415C774.004 156.56 775.041 158.578 775.875 160.899ZM737.376 174.4C735.843 175.888 734.307 177.106 733.963 177.106C733.619 177.106 732.517 177.997 731.516 179.085C730.514 180.173 728.926 181.377 727.987 181.76C726.31 182.445 726.3 182.53 727.457 186.548C728.104 188.799 729.167 192.082 729.817 193.842C731.828 199.285 731.077 199.972 726.497 196.88C724.313 195.405 722.257 194.443 721.926 194.74C721.596 195.037 721.558 194.875 721.842 194.379C722.146 193.848 721.221 192.777 719.582 191.764C717.716 190.61 716.94 189.639 717.212 188.798C719.749 180.952 722.334 174.401 723.373 173.187C724.48 171.895 725.7 171.693 732.408 171.693H740.163L737.376 174.4ZM824.242 172.66C824.668 173.192 825.822 175.888 826.806 178.653C827.791 181.418 828.79 183.854 829.026 184.067C829.263 184.279 829.557 185.189 829.681 186.087C829.842 187.267 828.552 188.915 825.041 192.014C819.411 196.982 816.231 199.533 815.669 199.533C815.451 199.533 816.292 195.793 817.536 191.22L819.799 182.907L818.054 181.528C817.094 180.771 814.967 179.031 813.327 177.662C811.686 176.293 809.859 174.895 809.267 174.554C808.674 174.214 808.189 173.432 808.189 172.814C808.189 171.311 823.045 171.167 824.242 172.66ZM0.0429688 285.762V362.709H322.766H645.49L646.691 357.876C647.352 355.218 649.564 347.127 651.607 339.896C653.65 332.665 655.894 324.5 656.593 321.752L657.866 316.755L649.305 310.152C636.592 300.345 626.168 292.429 620.247 288.082C617.35 285.955 611.732 281.667 607.763 278.554C603.793 275.44 598.18 271.09 595.29 268.887C592.399 266.684 588.79 263.93 587.272 262.767C585.727 261.584 584.115 260.902 583.611 261.22C582.761 261.756 579.13 265.644 566.546 279.487C563.141 283.234 560.754 285.257 560.057 284.99C559.154 284.643 559.129 284.779 559.924 285.735C560.457 286.379 561.289 286.679 561.773 286.403C562.256 286.127 562.378 286.201 562.043 286.569C561.709 286.936 562.302 288.123 563.363 289.206C564.424 290.289 567.125 293.263 569.364 295.815C571.604 298.367 573.706 300.368 574.037 300.262C574.368 300.155 574.639 300.467 574.639 300.955C574.639 301.443 576.118 303.457 577.926 305.432C579.733 307.408 584.518 312.652 588.559 317.088C592.6 321.524 598.047 327.373 600.664 330.086C603.281 332.798 605.522 335.245 605.645 335.523C606.385 337.2 611.33 341.708 611.984 341.303C612.418 341.036 612.558 341.162 612.298 341.584C612.037 342.005 612.839 343.539 614.08 344.99C615.321 346.441 616.351 347.89 616.368 348.209C616.386 348.529 606.958 348.789 595.419 348.789H574.439L571.443 346.083C569.796 344.594 568.71 343.364 569.03 343.35C569.35 343.336 568.863 342.698 567.946 341.934C567.031 341.168 564.546 338.483 562.425 335.966C560.305 333.448 556.704 329.422 554.424 327.019C552.144 324.615 548.476 320.613 546.273 318.125C544.07 315.637 540.163 311.34 537.591 308.575C535.02 305.811 532.907 303.288 532.897 302.969C532.887 302.649 528.18 302.388 522.438 302.388H511.998V325.589V348.789H491.172H470.345L470.098 347.049C469.962 346.092 469.942 317.904 470.053 284.408L470.256 223.507H491.127H511.998V246.321C511.998 264.043 512.214 269.14 512.965 269.16C513.497 269.173 520.768 269.182 529.123 269.177C543.492 269.17 544.434 269.26 546.523 270.838L548.732 272.507L546.46 270.047C544.409 267.826 543.754 267.588 539.694 267.588C537.221 267.588 535.198 267.313 535.198 266.975C535.198 266.639 536.469 264.986 538.022 263.302C539.576 261.618 542.451 258.501 544.412 256.374C546.372 254.248 550.299 249.884 553.136 246.677L558.296 240.847L552.354 236.278C549.086 233.765 542.907 229.04 538.623 225.779C534.339 222.517 527.59 217.366 523.626 214.331L516.418 208.814H258.231H0.0429688V285.762ZM1026.21 211.083C1024.33 212.332 1022.02 214.072 1021.09 214.95C1020.15 215.829 1019.18 216.547 1018.94 216.547C1018.7 216.547 1016.79 217.822 1014.7 219.381L1010.91 222.214L1010.9 229.241C1010.89 233.105 1010.87 240.496 1010.84 245.665L1010.81 255.063L1000.56 255.332C991.793 255.562 990.008 255.825 988.209 257.148C984.12 260.155 984.734 268.338 989.052 268.382C990.171 268.394 994.392 268.738 998.432 269.146C1002.47 269.555 1014.5 270.594 1025.15 271.455C1047.18 273.234 1055.32 274.479 1061.21 276.97C1066.12 279.044 1070.37 281.596 1071.81 283.328C1072.38 284.019 1073.21 284.36 1073.65 284.086C1074.1 283.814 1074.24 283.946 1073.97 284.382C1073.7 284.818 1074.16 285.959 1074.99 286.917C1075.82 287.875 1077.2 290.525 1078.05 292.806C1081.26 301.384 1080.75 323.525 1077.17 331.461C1076.22 333.548 1075.55 335.604 1075.67 336.029C1075.8 336.454 1075.67 336.575 1075.39 336.297C1075.11 336.021 1073.5 337.292 1071.82 339.124C1069.2 341.961 1065.17 344.623 1062.23 345.449C1057.39 346.812 1051.36 347.18 1033.41 347.208L1012.32 347.243L1012.53 330.809L1012.74 314.375L1023.18 313.988C1034.51 313.568 1036.38 312.959 1037.94 309.177C1039 306.636 1037.73 302.689 1035.66 302.045C1033.12 301.252 1022.94 300.059 1009.11 298.932C1001.32 298.297 990.602 297.421 985.285 296.985C973.361 296.008 968.302 295.117 962.842 293.036C960.512 292.148 958.17 291.395 957.638 291.362C957.107 291.33 956.672 291.048 956.672 290.736C956.672 290.004 951.074 286.577 950.234 286.795C949.883 286.886 949.799 286.633 950.046 286.233C950.293 285.833 949.663 284.516 948.645 283.307C946.559 280.828 944.298 275.844 944.298 273.726C944.298 272.953 944 272.134 943.635 271.909C942.967 271.496 935.151 276.948 934.197 278.492C933.915 278.948 933.536 279.204 933.354 279.061C933.172 278.918 931.993 279.604 930.734 280.585C929.475 281.565 924.53 285.158 919.744 288.567C914.96 291.976 911.044 295.089 911.044 295.484C911.044 295.878 910.728 296.115 910.341 296.008C909.75 295.846 889.381 310.355 886.765 312.802C886.295 313.242 884.954 314.096 883.784 314.699C882.614 315.303 881.657 316.149 881.657 316.578C881.657 317.695 884.663 327.023 886.056 330.229C886.702 331.718 887.364 333.632 887.525 334.482C887.685 335.333 889.77 342.032 892.156 349.369L896.495 362.709H1234.28H1572.07L1572.54 318.435C1572.81 294.084 1573.13 259.459 1573.27 241.488L1573.51 208.814H1301.57H1029.63L1026.21 211.083ZM775.697 215.626C775.703 215.758 776.111 215.617 776.602 215.314C777.163 214.966 777.284 215.102 776.928 215.679C776.616 216.184 777.168 218.847 778.154 221.599L779.948 226.601H787.882C792.245 226.601 795.807 226.861 795.795 227.181C795.783 227.5 794.479 228.57 792.895 229.559C791.311 230.549 788.467 232.706 786.575 234.353L783.134 237.349L784.873 242.995C785.83 246.1 787.056 249.52 787.598 250.594C789.578 254.515 787.875 254.19 780.679 249.277L773.352 244.274L766.325 249.014C762.46 251.621 759.103 253.559 758.865 253.322C758.627 253.084 759.42 249.353 760.627 245.031L762.821 237.174L759.042 234.014C756.963 232.276 754.207 229.907 752.918 228.75L750.575 226.646L757.922 226.532C761.963 226.469 765.669 226.466 766.158 226.525C766.648 226.584 767.664 224.625 768.418 222.17C769.171 219.715 770.623 215.793 771.646 213.454L773.505 209.2L774.595 212.294C775.195 213.995 775.691 215.495 775.697 215.626ZM834.557 219.988L836.965 226.645L844.661 226.538C848.894 226.478 852.499 226.572 852.673 226.745C852.846 226.919 851.222 228.437 849.063 230.118C846.904 231.799 844.741 233.536 844.257 233.979C843.772 234.421 842.629 235.299 841.717 235.929L840.057 237.074L842.683 245.177C844.127 249.635 845.308 253.383 845.309 253.508C845.312 254.341 842.34 252.931 840.389 251.175C839.103 250.017 837.907 249.212 837.731 249.389C837.556 249.564 836.778 249.12 836.003 248.401C835.229 247.682 833.589 246.503 832.359 245.78C830.143 244.477 830.09 244.492 825.924 247.514C823.613 249.191 821.201 250.792 820.563 251.072C819.925 251.353 818.814 252.088 818.094 252.705C815.482 254.944 815.345 253.16 817.544 245.548C818.773 241.294 819.78 237.605 819.783 237.349C819.789 236.958 816.778 234.417 809.125 228.348C807.122 226.761 808.55 226.396 816.21 226.539L823.517 226.675L825.167 222.191C826.074 219.725 827.285 216.663 827.857 215.387C828.429 214.111 829.154 212.22 829.468 211.185L830.037 209.302L831.093 211.316C831.673 212.424 833.232 216.326 834.557 219.988ZM605.243 215.967C606.473 219.051 607.727 221.684 608.029 221.817C608.332 221.951 608.388 222.56 608.153 223.171C607.919 223.781 608.112 224.281 608.583 224.281C609.054 224.281 609.353 224.716 609.246 225.247C609.105 225.951 611.218 226.319 617.021 226.601L624.988 226.987L621.274 230.064C617.434 233.244 617.273 233.373 614.127 235.774C612.269 237.192 612.259 237.264 613.457 240.607C615.735 246.964 617.345 252.98 616.891 253.434C616.641 253.684 615.906 253.448 615.258 252.91C614.61 252.372 614.08 252.215 614.08 252.561C614.08 252.907 613.645 252.645 613.113 251.979C612.582 251.314 609.962 249.344 607.293 247.602L602.44 244.434L600.057 245.883L597.674 247.332L594.29 244.947C591.112 242.707 590.933 242.389 591.358 239.734C591.8 236.967 591.685 236.808 585.967 232.333C582.753 229.818 580.107 227.5 580.088 227.181C580.069 226.861 583.634 226.601 588.012 226.601H595.97L598.944 218.48C600.581 214.014 602.164 210.36 602.463 210.36C602.762 210.36 604.013 212.883 605.243 215.967ZM663.19 218.537L666.268 226.714L673.621 226.587C677.665 226.517 681.318 226.492 681.74 226.53C682.698 226.618 679.975 229.097 674.159 233.428C669.042 237.24 669.102 236.713 672.562 247.409C673.581 250.56 674.26 253.293 674.069 253.484C673.878 253.675 670.534 251.697 666.637 249.09L659.551 244.35L654.215 247.865C651.281 249.799 648.88 251.721 648.88 252.137C648.88 252.554 648.619 252.839 648.3 252.771C647.981 252.704 647.096 252.921 646.333 253.254C645.571 253.587 644.833 253.729 644.695 253.57C644.557 253.411 645.469 249.687 646.722 245.295L649.001 237.309L646.04 234.69C644.412 233.25 642.558 231.866 641.92 231.617C641.282 231.367 639.95 230.136 638.961 228.881L637.162 226.601H644.118C651.781 226.601 653.52 226.219 653.52 224.535C653.52 223.916 654.39 221.506 655.453 219.181C656.517 216.856 657.387 214.813 657.387 214.641C657.387 213.613 658.995 210.36 659.504 210.36C659.838 210.36 661.497 214.04 663.19 218.537ZM718.306 214.087C718.9 215.87 719.701 217.136 720.085 216.898C720.469 216.661 720.612 216.92 720.402 217.474C720.193 218.027 720.683 220.22 721.493 222.347L722.966 226.214L730.551 226.31C734.723 226.362 738.236 226.71 738.357 227.083C738.478 227.456 737.448 228.536 736.069 229.484C734.69 230.432 732.517 232.12 731.241 233.236C729.965 234.351 728.293 235.711 727.525 236.256C726.195 237.2 726.246 237.614 728.597 244.878C729.956 249.074 731.455 252.764 731.928 253.076C732.492 253.448 732.388 253.648 731.628 253.655C730.99 253.66 727.363 251.597 723.568 249.07C717.658 245.135 716.438 244.598 715.061 245.326C713.341 246.236 708.295 249.867 707.654 250.656C707.075 251.369 702.429 253.668 701.565 253.668C701.143 253.668 701.261 252.735 701.835 251.541C702.397 250.372 703.487 246.681 704.255 243.341L705.654 237.268L702.594 234.545C700.911 233.047 698.142 230.654 696.441 229.226L693.347 226.631L701.468 226.606L709.588 226.581L711.644 221.371C712.775 218.505 714.152 214.85 714.704 213.249C715.942 209.657 716.904 209.88 718.306 214.087ZM890.926 218.452L893.734 226.065L897.556 226.164C899.658 226.219 903.426 226.339 905.929 226.432L910.481 226.601L904.383 231.351C901.029 233.964 898.024 236.329 897.706 236.608C897.388 236.886 898.182 240.488 899.471 244.61C901.833 252.166 902.019 253.539 900.604 252.97C900.179 252.799 899.247 252.638 898.532 252.611C897.819 252.584 897.297 252.319 897.372 252.02C897.6 251.123 888.663 245.161 887.091 245.161C886.29 245.161 885.112 245.683 884.474 246.321C883.836 246.959 883.133 247.481 882.911 247.481C882.574 247.481 879.084 249.813 874.269 253.254C873.694 253.664 873.048 253.824 872.833 253.608C872.618 253.393 873.375 249.627 874.515 245.24L876.588 237.262L874.223 235.218C872.922 234.094 870.147 231.709 868.057 229.917L864.257 226.659L872.386 226.63L880.516 226.601L883.575 218.472C885.258 214.002 886.969 210.455 887.378 210.592C887.786 210.728 889.383 214.265 890.926 218.452ZM944.609 214.226C945.427 216.501 946.334 217.883 946.815 217.586C947.303 217.284 947.401 217.453 947.058 218.007C946.743 218.516 947.107 220.658 947.865 222.766L949.244 226.601L957.792 226.624C964.646 226.643 966.032 226.825 964.792 227.543C963.941 228.034 960.983 230.297 958.218 232.572C954.502 235.628 953.091 237.326 952.805 239.083C952.532 240.759 951.439 242.167 949.096 243.861C946.225 245.936 945.564 246.131 944.225 245.295C942.861 244.442 941.847 244.879 935.648 248.998C931.782 251.567 928.338 253.668 927.994 253.668C927.65 253.668 927.912 251.84 928.578 249.608C929.244 247.375 929.863 245.2 929.953 244.774C930.044 244.349 930.561 242.435 931.103 240.521C932.064 237.129 932.035 237.002 929.987 235.494C928.832 234.643 926.098 232.304 923.913 230.295L919.938 226.642L927.904 226.621L935.87 226.601L936.991 223.919C937.607 222.444 938.111 220.53 938.111 219.665C938.111 218.801 938.421 218.094 938.801 218.094C939.18 218.094 939.705 217.239 939.967 216.194C940.807 212.85 941.922 210.36 942.58 210.36C942.932 210.36 943.845 212.1 944.609 214.226ZM1059.01 223.401C1068.48 225.719 1076.59 233.244 1078.61 241.578C1079.39 244.824 1080.61 261.308 1080.15 262.503C1079.74 263.569 1077.14 263.721 1059.29 263.721H1038.89L1037.89 260.667C1036.43 256.251 1033.35 255.214 1021.67 255.214H1012.46L1012.38 239.026C1012.32 225.612 1012.5 222.728 1013.43 222.206C1015.07 221.283 1054.6 222.319 1059.01 223.401ZM1128.35 284.602V347.243H1107.86C1096.59 347.243 1087.34 346.982 1087.3 346.663C1087.05 344.396 1087.05 222.537 1087.3 222.283C1087.48 222.105 1096.79 221.961 1107.99 221.961H1128.35V284.602ZM1255.97 222.541C1255.98 222.86 1256.01 250.961 1256.03 284.988L1256.08 346.856L1235.33 347.061L1214.58 347.267L1214.74 285.58C1214.83 251.652 1214.92 223.459 1214.94 222.927C1214.96 222.179 1219.6 221.961 1235.46 221.961C1246.73 221.961 1255.96 222.221 1255.97 222.541ZM1376.95 223.138C1389.58 225.748 1397.05 233.313 1399.03 245.518C1400.01 251.544 1400.02 318.368 1399.05 324.324C1398.64 326.818 1397.52 330.473 1396.55 332.444C1395.59 334.416 1394.89 336.316 1395 336.666C1395.11 337.017 1394.86 337.095 1394.44 336.838C1394.03 336.582 1393.32 337.065 1392.87 337.911C1391.61 340.251 1385.9 343.871 1381.19 345.301C1378.88 346.004 1376.52 346.816 1375.96 347.104C1375.39 347.393 1349.74 347.538 1318.94 347.426L1262.94 347.222L1263.12 302.353L1263.3 257.483L1283.98 257.316C1301.08 257.176 1304.73 257.335 1305.07 258.228C1305.3 258.822 1305.47 270.48 1305.45 284.135C1305.43 297.79 1305.42 310.107 1305.43 311.506L1305.45 314.051L1329.88 313.826L1354.31 313.602L1356.17 311.432L1358.04 309.262V284.554V259.844L1356.05 258.109C1354.96 257.155 1353.31 256.148 1352.38 255.872C1351.45 255.595 1330.96 255.334 1306.85 255.292L1263.02 255.214L1262.95 239.12C1262.91 230.269 1263.12 222.786 1263.41 222.493C1263.71 222.2 1288.09 221.961 1317.6 221.961C1362.64 221.961 1372.17 222.15 1376.95 223.138ZM1448.34 245.346L1448.54 268.344L1480.05 268.546L1511.55 268.748V284.988V301.228L1480.03 301.43L1448.52 301.632V324.437V347.243H1427.64H1406.76V284.589V221.935L1427.45 222.141L1448.13 222.347L1448.34 245.346ZM1527.4 238.587V255.214H1488.73H1450.07V239.103C1450.07 230.242 1450.3 222.759 1450.58 222.476C1450.87 222.193 1468.27 221.961 1489.25 221.961H1527.4V238.587ZM150.825 224.663C157.096 225.982 163.489 229.67 166.619 233.774C167.739 235.242 169.587 238.666 170.727 241.382C172.771 246.252 172.8 246.575 172.842 264.495C172.883 281.757 172.801 282.824 171.198 285.762C170.27 287.463 168.639 289.772 167.574 290.894L165.639 292.933L167.598 294.761C168.675 295.766 170.3 297.98 171.209 299.682C172.771 302.604 172.878 304.046 173.136 325.782L173.41 348.789H152.074H130.738V332.213C130.738 323.096 130.413 314.78 130.015 313.734C128.509 309.771 126.072 309.349 104.712 309.349H85.111V329.081V348.814L64.1363 348.608L43.1624 348.403L43.198 313.215C43.2173 293.862 43.2599 277.593 43.2923 277.061C43.338 276.301 51.9445 276.095 83.5891 276.095C126.461 276.095 127.961 275.973 129.903 272.344C130.937 270.411 130.994 263.721 129.998 261.102C128.352 256.771 128.246 256.761 83.9897 256.761H43.3503L43.191 248.061C43.1036 243.276 42.9822 237.099 42.9219 234.334C42.8616 231.569 42.9637 228.003 43.1493 226.407L43.4864 223.507H94.4089C136.624 223.507 146.27 223.705 150.825 224.663ZM299.328 225.41C306.151 227.802 311.659 232.524 314.7 238.587C317.134 243.443 317.876 250.43 317.882 268.567L317.888 285.4L296.814 285.194L275.741 284.988L275.527 273.139C275.322 261.738 275.24 261.211 273.394 259.219L271.475 257.148L250.794 256.904C237.272 256.745 229.111 256.956 227.218 257.514C222.702 258.844 222.049 260.897 222.043 273.789C222.04 279.853 221.923 284.929 221.782 285.07C221.59 285.264 187.082 285.543 181.152 285.4C180.336 285.38 180.189 281.422 180.396 265.075C180.642 245.779 180.745 244.553 182.494 240.302C185.045 234.099 191.653 227.557 196.859 226.079C205.492 223.628 206.069 223.603 250.607 223.762C292.301 223.909 295.34 224.012 299.328 225.41ZM445.49 226.085C448.255 227.289 450.952 228.304 451.484 228.34C452.015 228.375 452.288 228.567 452.09 228.765C451.539 229.316 455.79 232.437 456.689 232.143C457.122 232.001 457.235 232.127 456.94 232.423C456.643 232.719 457.389 234.749 458.595 236.934C461.747 242.644 462.764 248.055 462.831 259.468L462.89 269.521L441.817 269.727L420.743 269.933V266.402C420.743 261.948 419.133 258.79 416.255 257.597C414.644 256.93 408.001 256.736 392.651 256.908C365.66 257.211 367.924 255.784 367.382 272.827L366.996 284.988L345.922 285.194L324.848 285.4L324.861 268.18C324.881 243.552 326.807 236.274 334.904 230.228C343.736 223.635 343.841 223.624 395.609 223.769L440.463 223.894L445.49 226.085ZM643.299 272.035C643.513 280.552 643.116 281.948 641.154 279.583C640.628 278.95 639.803 278.658 639.319 278.934C638.836 279.21 638.701 279.149 639.02 278.797C639.339 278.445 637.25 276.472 634.38 274.413C631.508 272.353 628.137 269.889 626.888 268.935C625.637 267.982 624.245 267.317 623.794 267.459C623.343 267.601 623.232 267.458 623.548 267.142C623.865 266.825 623.429 266.081 622.582 265.487C618.859 262.879 620.926 262.411 633.8 262.948L643.08 263.335L643.299 272.035ZM694.507 317.855V372.763H681.791H669.073L668.837 362.516C668.593 351.952 669.103 348.532 672.771 336.134C673.635 333.215 674.298 330.605 674.247 330.334C674.194 330.063 674.555 328.862 675.049 327.665C675.543 326.468 675.953 325.076 675.959 324.572C675.965 324.068 676.835 320.871 677.892 317.469C678.949 314.066 679.8 310.76 679.784 310.122C679.767 309.484 677.331 307.083 674.37 304.788L668.987 300.614V282.296C668.987 272.222 669.219 263.747 669.503 263.464C669.786 263.18 675.528 262.948 682.263 262.948H694.507V317.855ZM746.134 318.049L746.332 372.763H733.351H720.37L720.617 318.435C720.753 288.556 720.85 263.838 720.833 263.509C720.815 263.179 726.457 263.005 733.368 263.122L745.935 263.335L746.134 318.049ZM798.136 317.874V372.8L785.395 372.588L772.655 372.376L772.393 318.033C772.249 288.144 772.298 263.523 772.502 263.319C772.706 263.115 778.557 262.948 785.505 262.948H798.136V317.874ZM849.95 317.855V372.763H837.2H824.45L824.246 318.822C824.135 289.154 824.167 264.447 824.319 263.915C824.526 263.191 827.794 262.948 837.273 262.948H849.95V317.855ZM901.764 270.264C901.764 275.155 901.444 277.858 900.797 278.418C900.266 278.879 894.536 283.062 888.067 287.713L876.303 296.169L876.08 279.558L875.857 262.946L888.811 262.947L901.764 262.948V270.264ZM552.985 278.028C553.984 279.091 554.976 279.961 555.188 279.961C555.401 279.961 554.758 279.091 553.759 278.028C552.759 276.965 551.768 276.095 551.555 276.095C551.343 276.095 551.986 276.965 552.985 278.028ZM222.09 297.748C222.143 303.703 222.247 308.836 222.321 309.155C222.961 311.911 223.981 313.249 226.272 314.336C228.591 315.436 231.775 315.575 250.157 315.377C277.311 315.085 275.229 316.398 275.528 299.372L275.741 287.308L296.814 287.103L317.888 286.897V304.167C317.888 313.666 317.509 323.489 317.046 325.996C315.583 333.91 311.512 339.903 304.355 344.682C299.185 348.133 297.267 348.276 252.154 348.584C206.653 348.895 202.496 348.659 195.236 345.36C191.851 343.822 184.099 337.259 184.099 335.932C184.099 335.689 183.6 334.393 182.989 333.052C180.631 327.878 180.241 324.004 180.237 305.675L180.233 286.922H201.113H221.993L222.09 297.748ZM367.382 299.601L367.769 311.892L369.951 313.521C372.006 315.055 373.229 315.163 391.217 315.397C401.714 315.534 411.748 315.431 413.512 315.168C418.507 314.425 420.199 312.47 420.597 306.984L420.932 302.347L442.298 302.412L463.664 302.476L463.163 313.452C462.601 325.771 460.938 332.529 457.194 337.696C454.851 340.93 447.257 346.469 445.166 346.469C444.493 346.469 443.943 346.78 443.943 347.161C443.943 348.118 445.309 348.078 397.929 348.515C367.115 348.799 353.797 348.654 349.595 347.988C338.367 346.209 330.544 340.292 327.107 330.983C325.372 326.281 325.244 324.783 325.005 306.436L324.752 286.897L345.873 287.103L366.996 287.308L367.382 299.601ZM985.285 307.372C985.285 308.412 986.125 310.239 987.15 311.432C988.991 313.573 989.156 313.607 999.717 313.989L1010.42 314.375L1010.81 330.522C1011.09 342.535 1010.96 346.758 1010.28 347.018C1009.78 347.21 999.335 347.253 987.077 347.112L964.788 346.856L958.603 343.85C954.024 341.625 951.821 340.019 950.118 337.663C947.275 333.734 945.81 331.085 945.364 329.069C943.918 322.53 943.525 319.036 943.525 312.723V305.482H964.405H985.285V307.372ZM1207.83 330.174C1207.95 338.863 1207.76 346.252 1207.42 346.594C1207.08 346.935 1189.58 347.233 1168.54 347.257L1130.29 347.3V331.998C1130.29 323.581 1130.54 316.083 1130.85 315.335C1131.37 314.058 1133.76 313.986 1169.51 314.175L1207.62 314.375L1207.83 330.174ZM1527.22 330.809L1527.43 347.243H1488.75H1450.07V330.609V313.974L1488.54 314.175L1527.01 314.375L1527.22 330.809ZM878.505 372.546C878.538 373.074 878.054 373.293 877.404 373.043C876.616 372.741 876.262 371.569 876.303 369.393L876.361 366.19L877.404 368.896C877.977 370.385 878.472 372.027 878.505 372.546ZM977.165 397.123V419.55L852.657 419.937C784.177 420.15 693.957 420.233 652.167 420.123L576.186 419.922V397.631C576.186 385.372 576.416 375.11 576.698 374.828C576.981 374.546 667.201 374.401 777.188 374.506L977.165 374.696V397.123ZM585.466 395.577V409.884H598.485H611.503L613.552 407.584L615.601 405.286L604.593 405.071L593.586 404.857L593.348 401.57L593.11 398.283L601.082 398.241C608.961 398.198 609.074 398.171 610.852 395.921L612.65 393.643H602.925H593.199L593.198 389.97L593.196 386.297L603.058 386.462L612.919 386.628L615.122 383.949L617.325 381.27H601.395H585.466V395.577ZM624.133 397.976V414.681L627.42 412.741L630.706 410.802L630.924 401.836C631.044 396.904 631.338 392.87 631.576 392.87C632.139 392.87 635.413 395.442 638.827 398.566C648.16 407.109 652.035 409.884 654.63 409.884H657.266L657.352 395.577L657.438 381.27H653.932H650.427V390.589C650.427 398.352 650.247 399.804 649.345 399.289C648.749 398.948 645.357 396.015 641.805 392.771C631.007 382.908 628.81 381.27 626.38 381.27H624.133V397.976ZM668.044 384.597L665.167 387.843L665.144 396L665.12 404.156L668.053 407.02L670.985 409.884H681.028C690.5 409.884 691.152 409.785 692.51 408.144C693.302 407.187 694.487 405.783 695.145 405.025C695.942 404.105 696.356 401.985 696.39 398.645L696.441 393.643H687.596H678.751L680.974 395.963C682.694 397.759 683.874 398.283 686.19 398.283H689.183L688.945 401.57L688.707 404.857L680.394 405.076L672.08 405.296V395.99V386.683H681.596H691.111L693.734 383.976L696.357 381.27L683.639 381.31L670.92 381.35L668.044 384.597ZM703.788 397.961C703.788 407.141 704.048 414.527 704.368 414.374C704.687 414.222 706.253 413.432 707.848 412.62L710.748 411.144V396.207V381.27H707.268H703.788V397.961ZM718.481 397.897C718.481 407.042 718.705 414.524 718.98 414.524C719.255 414.524 720.994 413.567 722.845 412.397L726.212 410.27L726.213 401.156L726.215 392.04L736.335 400.962C745.565 409.098 746.722 409.884 749.482 409.884H752.508V395.577V381.27H749.028H745.548V390.118C745.548 394.984 745.284 399.129 744.961 399.329C744.637 399.528 742.76 398.244 740.789 396.475C730.663 387.385 727.008 384.363 726.14 384.363C725.614 384.363 725.41 384.137 725.687 383.86C726.583 382.963 723.578 381.319 720.995 381.294L718.481 381.27V397.897ZM760.242 395.577V409.884H773.039H785.836L787.809 407.757L789.781 405.63L778.491 405.416L767.202 405.203V401.743V398.283H775.188C782.534 398.283 783.307 398.14 784.854 396.494C785.779 395.509 786.536 394.465 786.536 394.174C786.536 393.881 782.244 393.643 776.998 393.643C771.752 393.643 767.304 393.487 767.113 393.297C766.923 393.107 766.901 391.541 767.066 389.817L767.364 386.683H777.31C786.328 386.683 787.328 386.545 788.05 385.197C788.488 384.379 789.395 383.161 790.066 382.49C791.177 381.379 789.903 381.27 775.764 381.27H760.242V395.577ZM798.311 395.359L798.522 409.497L811.314 409.708L824.106 409.919L826.346 407.581L828.586 405.243H816.841H805.096V401.763V398.283H813.071C820.905 398.283 821.086 398.242 823.246 395.987L825.446 393.691L815.464 393.474L805.483 393.257V390.163V387.07L815.149 386.852C824.297 386.645 824.911 386.532 826.587 384.725C827.562 383.676 828.084 382.811 827.747 382.805C827.412 382.798 827.637 382.476 828.248 382.09C828.94 381.652 823.449 381.354 813.73 381.303L798.101 381.22L798.311 395.359ZM836.03 397.464C836.03 406.372 836.32 413.838 836.674 414.057C837.698 414.69 842.981 410.739 843.068 409.276C843.111 408.546 843.085 406.827 843.011 405.455C842.711 399.973 842.947 399.83 852.266 399.83C860.418 399.83 860.712 399.89 862.267 401.868C863.27 403.142 863.87 405.041 863.87 406.939V409.972L867.157 409.734L870.444 409.497L870.675 405.936C870.885 402.688 870.662 402.162 868.119 399.929L865.331 397.482L867.087 394.983C868.052 393.608 869.115 392.367 869.449 392.226C870.717 391.688 869.963 389.229 867.329 385.32L864.603 381.27H850.316H836.03V397.464ZM877.79 397.897C877.79 413.109 878.172 416.261 879.711 413.771C879.967 413.357 881.38 412.447 882.85 411.75L885.524 410.481V395.875V381.27H881.657H877.79V397.897ZM892.976 381.873C892.393 382.816 892.396 404.579 892.979 410.044L893.45 414.459L896.441 412.751C898.086 411.812 899.469 410.522 899.513 409.884C899.558 409.246 899.562 405.598 899.523 401.779C899.484 397.96 899.659 394.184 899.912 393.388C900.326 392.084 900.623 392.186 902.934 394.426C904.519 395.963 905.864 396.684 906.457 396.318C907.045 395.954 907.22 396.042 906.909 396.546C906.462 397.269 908.693 399.48 918.221 407.757C919.963 409.27 921.512 409.884 923.59 409.884H926.511V395.577V381.27H923.031H919.551V390.163C919.551 396.084 919.268 399.057 918.705 399.057C918.24 399.057 913.693 395.396 908.6 390.923C903.508 386.449 899.008 382.995 898.6 383.246C898.193 383.499 897.955 383.244 898.071 382.68C898.316 381.506 893.659 380.767 892.976 381.873ZM937.037 384.374C935.206 386.216 934.307 387.705 934.671 388.293C935.047 388.901 934.936 389.044 934.365 388.69C933.712 388.287 933.471 390.227 933.471 395.889V403.64L936.72 406.762L939.97 409.884H949.71H959.451L962.315 406.951C965.042 404.158 965.178 403.77 965.178 398.831V393.643H956.672C951.993 393.643 948.165 393.803 948.165 393.999C948.165 394.194 949.118 395.238 950.284 396.319C951.783 397.71 953.264 398.283 955.355 398.283H958.307L958.069 401.57L957.832 404.857L949.518 405.076L941.205 405.296V395.99V386.683H950.497H959.788L962.677 383.977L965.565 381.271L952.778 381.337L939.99 381.403L937.037 384.374ZM862.388 388.788C862.941 390.24 862.94 391.439 862.386 392.655C861.616 394.345 861.208 394.417 852.382 394.417H843.181L843.199 391.13C843.21 389.323 843.362 387.583 843.537 387.263C843.711 386.944 847.845 386.683 852.722 386.683H861.589L862.388 388.788ZM694.507 423.282C694.507 424.678 693.208 425.903 688.701 428.759C685.336 430.89 683.11 432.786 683.407 433.266C683.702 433.744 683.558 433.873 683.067 433.57C682.598 433.28 679.457 434.952 676.087 437.287C672.717 439.622 669.74 441.313 669.474 441.046C669.206 440.779 668.987 436.268 668.987 431.021V421.484H681.747H694.507V423.282ZM849.95 422.515C849.95 423.082 849.428 423.546 848.79 423.546C848.152 423.546 847.63 423.082 847.63 422.515C847.63 421.948 848.152 421.484 848.79 421.484C849.428 421.484 849.95 421.948 849.95 422.515ZM895.119 425.157C899.688 438.354 900.565 442.158 900.825 449.904C901.081 457.553 901.033 457.831 899.448 457.831C898.545 457.831 897.965 457.57 898.159 457.251C898.352 456.932 893.529 453.365 887.44 449.324L876.367 441.977L876.112 431.729L875.857 421.481L884.852 421.482L893.847 421.484L895.119 425.157ZM642.81 453.817C643.07 459.26 643.003 459.516 640.984 460.743C639.832 461.445 638.702 461.831 638.473 461.603C638.245 461.374 638.539 459.648 639.127 457.769C639.716 455.889 640.609 452.838 641.113 450.989C641.615 449.14 642.143 447.748 642.284 447.896C642.425 448.044 642.662 450.708 642.81 453.817Z" fill="white"/>
</svg>
