<svg width="2951" height="501" viewBox="0 0 2951 501" fill="none" xmlns="http://www.w3.org/2000/svg">
<path fill-rule="evenodd" clip-rule="evenodd" d="M458.148 2.31719C327.57 24.8354 260.371 59.7074 214.707 128.642C182.261 177.625 185.328 193.151 242.684 270.229C269.796 306.655 293.632 340.412 295.661 345.243C300.799 357.478 266.534 400.479 241.206 413.572C215.787 426.713 183.676 424.294 180.783 409.012C179.626 402.898 192.934 378.937 210.356 355.763C227.779 332.59 242.028 311.71 242.028 309.36C242.028 307.011 206.515 305.087 163.117 305.087H84.1985L47.6534 354.083C3.73932 412.944 -6.78082 438.885 3.80903 462.129C26.8083 512.61 235.273 512.875 343.054 462.561C385.957 442.532 430.596 404.39 458.35 364.052C495.216 310.469 494.066 303.351 434.389 215.85C405.275 173.163 381.46 134.018 381.46 128.852C381.46 118.115 412.435 87.4822 435.03 75.8745C455.771 65.2219 482.653 66.0306 492.253 77.6034C498.458 85.077 493.327 96.4686 468.71 129.911C451.399 153.426 437.233 174.223 437.233 176.133C437.233 178.036 473.151 179.598 517.051 179.598H596.876L629.001 134.575C681.26 61.3387 682.292 34.6933 633.658 14.3711C608.943 4.03917 493.94 -3.85268 458.148 2.31719ZM1850.91 275.102C1746.32 379.39 1659.72 461.787 1658.45 458.204C1657.2 454.62 1675.37 425.89 1698.84 394.365C1748.65 327.465 1750.38 312.581 1709.67 301.203L1681.91 293.444L1712.06 288.62C1752.54 282.15 1788.81 262.762 1819.43 231.243C1865.6 183.704 1869.96 147.807 1830.89 136.876C1821.67 134.296 1762.36 131.982 1699.09 131.724L1584.06 131.264L1455.09 302.64C1384.15 396.889 1323.6 478.352 1320.53 483.664C1315.96 491.584 1325.97 493.285 1376.31 493.124L1437.66 492.929L1498.96 409.047C1557.18 329.376 1561.38 325.269 1582.56 327.326C1595.59 328.588 1605.68 333.83 1606.84 339.945C1607.92 345.696 1588.34 378.177 1563.32 412.121C1538.3 446.066 1517.83 478.219 1517.83 483.58C1517.83 491.521 1538.92 493.32 1632.14 493.32H1746.45L1797.15 441.033C1847.75 388.843 1847.92 388.746 1885.02 388.746C1905.46 388.746 1922.18 390.238 1922.18 392.057C1922.18 393.884 1908.39 416.625 1891.52 442.601L1860.86 489.834L1931 491.835C1969.58 492.936 2003.38 491.368 2006.11 488.349C2013.48 480.213 2214.23 105.622 2216.52 95.7435C2217.97 89.49 2195.36 87.0499 2129.77 86.3807L2041.06 85.4813L1850.91 275.102ZM2471.48 88.9671L2257.38 92.4529L2239.34 116.854L2221.31 141.254L2263.46 143.332C2286.65 144.468 2305.62 148.505 2305.62 152.283C2305.62 157.435 2107.66 425.2 2059.93 484.605C2054.43 491.465 2067.81 493.32 2122.7 493.32H2192.46L2323.05 319.03L2453.63 144.74H2501.63C2528.03 144.74 2549.63 146.831 2549.63 149.383C2549.63 151.935 2532.79 185.656 2512.21 224.328C2491.62 262.992 2453.49 335.413 2427.46 385.26C2401.44 435.107 2377.11 479.816 2373.4 484.605C2368.08 491.479 2386.37 493.32 2459.93 493.32H2553.2L2755.29 291.143C2866.44 179.946 2954.26 88.6395 2950.45 88.2421C2946.64 87.8377 2918.7 87.0569 2888.36 86.4992L2833.2 85.4813L2683.17 247.571C2600.66 336.724 2531.79 409.661 2530.13 409.661C2528.47 409.661 2532.55 401.357 2539.2 391.2C2545.85 381.049 2572.38 339.484 2598.14 298.826C2623.9 258.175 2662.71 197.522 2684.4 164.044C2706.08 130.567 2724.63 99.6128 2725.62 95.2555C2727.93 84.9724 2723.55 84.8609 2471.48 88.9671ZM631.28 153.155C618.495 169.294 568.104 235.956 519.296 301.301C430.317 420.425 412.77 454.816 430.227 475.849C450.709 500.528 527.32 506.817 605.555 490.231C665.148 477.599 698.689 459.947 734.376 422.439C757.682 397.934 939.676 159.875 954.665 134.283C957.272 129.835 936.992 127.562 898.704 128.008L838.664 128.705L752.698 243.039C599.602 446.666 607.689 437.547 580.158 437.547C563.133 437.547 555.75 434.389 555.75 427.11C555.75 421.373 604.377 352.194 663.81 273.38C723.243 194.573 771.87 128.677 771.87 126.955C771.87 125.233 745.468 123.825 713.197 123.825H654.524L631.28 153.155ZM972.568 142.997C958.855 158.76 727.265 466.151 720.447 477.634C716.466 484.347 729.392 486.285 776.687 486.062L838.1 485.783L888.051 417.308L938.01 348.84L1008.08 345.466C1069.12 342.524 1084.06 339.178 1123.96 319.539C1162.2 300.715 1175.92 288.724 1206.99 247.006C1252.15 186.388 1261.05 169.831 1255.81 156.187C1248.42 136.925 1209.88 130.797 1096.09 130.797C997.247 130.797 981.854 132.317 972.568 142.997ZM1290.22 160.642C1278.15 176.816 1217.76 256.976 1156.02 338.759C1094.28 420.55 1043.76 488.781 1043.76 490.392C1043.76 492.002 1099.97 493.32 1168.67 493.32H1293.57L1315.65 465.433L1337.74 437.547H1274.41C1239.58 437.547 1211.08 435.539 1211.08 433.078C1211.08 430.624 1229.12 404.146 1251.17 374.238L1291.25 319.859L1358.64 319.448L1426.03 319.03L1448.11 291.143L1470.2 263.257H1406.87C1372.04 263.257 1343.54 261.326 1343.54 258.963C1343.54 256.599 1354.79 239.344 1368.53 220.619L1393.53 186.569L1460.91 186.423L1528.29 186.27L1547.91 158.537L1567.54 130.797L1439.85 131.013L1312.17 131.229L1290.22 160.642ZM2079.54 149.969C2073.86 160.51 2046.27 203.65 2018.22 245.828C1969.83 318.584 1965.88 322.627 1941.21 324.677C1926.91 325.869 1915.21 324.844 1915.21 322.397C1915.21 318.103 2084.04 130.832 2087.94 130.811C2088.99 130.804 2085.21 139.428 2079.54 149.969ZM1116.09 194.691C1115.62 201.07 1101.54 223.819 1084.81 245.242C1054.21 284.416 1024.42 301.482 994.661 296.874C981.75 294.873 984.866 288.355 1023.43 236.751C1064.95 181.18 1067.67 178.957 1091.82 180.978C1110.23 182.519 1116.73 186.193 1116.09 194.691ZM1720.01 192.286C1720.01 209.952 1675.99 259.583 1651.23 269.838C1639.94 274.516 1623.86 277.305 1615.5 276.029C1601.41 273.882 1602.92 270.257 1635.98 226.656C1667.98 184.471 1674.18 179.598 1695.84 179.598C1714.56 179.598 1720.01 182.456 1720.01 192.286Z" fill="white"/>
</svg>
