<svg width="1169" height="340" viewBox="0 0 1169 340" fill="none" xmlns="http://www.w3.org/2000/svg">
<path fill-rule="evenodd" clip-rule="evenodd" d="M127.188 2.60279C41.9157 18.1948 -13.5673 100.305 3.72966 185.311C14.4477 237.982 53.9527 282.468 105.348 299.742C122.961 305.662 131.726 306.966 154.188 307.01C176.407 307.053 185.085 305.795 202.688 299.981C281.508 273.945 325.543 189.254 301.558 109.827C285.474 56.5638 243.187 17.0758 188.188 3.9608C173.358 0.424795 142.82 -0.255206 127.188 2.60279ZM183.688 32.0108C207.388 38.0668 225.872 48.4288 242.592 65.0348C292.45 114.553 292.168 194.34 241.96 243.502C224.228 260.864 203.076 272.069 178.188 277.284C167.755 279.47 144.132 279.724 133.188 277.767C106.923 273.071 82.2157 259.91 64.1357 240.985C47.9967 224.091 38.6487 207.418 32.5467 184.644C29.0667 171.657 28.1217 145.641 30.6387 132.144C40.4457 79.5588 80.9987 39.3928 133.625 30.1408C146.506 27.8758 171.1 28.7948 183.688 32.0108ZM87.1877 91.2938C66.2447 95.3678 52.1937 109.061 50.5157 127.032L49.9007 133.616L82.7947 133.88L115.688 134.144L115.552 174.311L115.416 214.478L112.685 218.059C109.556 222.162 107.296 227.895 107.232 231.894L107.188 234.644H150.028H192.869L193.528 211.982C193.891 199.519 194.188 176.794 194.188 161.482V133.644H225.625H257.062L256.567 129.894C253.832 109.211 242.827 95.9108 224.495 91.1358C216.177 88.9688 98.4397 89.1048 87.1877 91.2938ZM349.059 103.209C343.863 104.808 337.979 110.554 335.442 116.504C331.696 125.293 331.259 131.172 331.223 173.317L331.188 214.491L328.674 217.478C325.333 221.449 323.188 226.779 323.188 231.112V234.644H364.688H406.188V168.144V101.644L379.938 101.714C360.212 101.766 352.538 102.138 349.059 103.209ZM512.188 102.645C485.5 103.186 482.068 103.45 476.188 105.418C460.541 110.656 451.011 121.477 449.525 135.695L448.937 141.323L461.812 141.979C468.894 142.34 482.451 142.638 491.938 142.64L509.188 142.644V179.067V215.491L506.829 218.317C503.321 222.52 501.188 227.163 501.188 230.594V233.644H540.031H578.873L579.528 216.394C579.887 206.906 580.183 186.432 580.185 170.894L580.188 142.644H608.688H637.188V140.354C637.188 139.095 636.517 135.487 635.696 132.337C631.252 115.276 620.024 105.201 602.657 102.691C595.398 101.642 562.565 101.625 512.188 102.645ZM715.71 105.889C699.6 117.824 683.275 150.92 669.623 199.32C667.734 206.017 666.188 212.216 666.188 213.095C666.188 213.974 665.081 215.114 663.729 215.628C660.752 216.76 657.367 223.061 656.556 228.977L655.961 233.317L683.237 233.981C698.239 234.345 717.791 234.644 726.686 234.644H742.858L744.066 221.894C747.664 183.89 755.382 157.122 765.335 148.13C768.606 145.175 769.921 144.644 773.963 144.644C777.794 144.644 779.453 145.238 782.398 147.666C791.718 155.348 798.426 180.148 801.262 217.407L802.5 233.666L842.594 233.405L882.688 233.144L882.372 225.644C881.366 201.766 873.776 174.806 861.068 149.967C855.13 138.362 841.654 117.897 833.692 108.394L828.037 101.644H774.738H721.439L715.71 105.889ZM963.143 103.894C954.303 113.262 942.976 141.263 936.638 169.417C933.584 182.983 929.212 207.906 929.198 211.827C929.191 213.633 928.529 214.718 927.171 215.149C924.378 216.036 921.349 222.42 920.568 229.07L919.913 234.644H935.888C944.674 234.644 964.086 234.347 979.026 233.983L1006.19 233.323V224.09C1006.19 212.682 1008.64 188.691 1010.82 178.644C1014.17 163.305 1017.78 159.4 1025.09 163.247C1032.74 167.279 1058.36 195.063 1080.1 222.912L1088.48 233.644H1128.27C1150.16 233.644 1168.24 233.307 1168.46 232.894C1169.29 231.297 1167.1 205.824 1165.14 194.282C1160.86 169.077 1150.17 132.373 1140.71 110.394L1136.95 101.644H1111.63C1097.49 101.644 1086.06 102.046 1085.74 102.554C1085.43 103.055 1085.84 111.492 1086.66 121.304C1089.63 157.314 1089.57 154.153 1087.33 152.553C1086.24 151.778 1080.7 147.602 1075.02 143.272C1069.34 138.943 1053.29 127.805 1039.37 118.522L1014.05 101.644H989.658C965.658 101.644 965.232 101.68 963.143 103.894ZM1125.37 280.668C1112.77 282.503 1105.13 290.362 1106.72 299.866C1108.11 308.253 1115.26 312.463 1135.19 316.642C1143.14 318.31 1146.04 319.604 1146.74 321.8C1148.8 328.304 1132.44 330.988 1126.56 325.109C1125.26 323.803 1124.19 322.039 1124.19 321.189C1124.19 319.91 1122.64 319.644 1115.19 319.644H1106.19L1106.19 323.394C1106.2 329.146 1109.36 333.373 1115.96 336.433C1121.19 338.857 1122.77 339.087 1134.19 339.092C1148.74 339.097 1156.22 337.31 1161.67 332.525C1167.87 327.078 1168.76 317.851 1163.65 311.786C1160.28 307.778 1154.42 305.237 1142.7 302.698C1130.16 299.981 1127.77 298.858 1127.38 295.504C1127.13 293.331 1127.63 292.685 1130.28 291.761C1136.55 289.575 1144.63 291.317 1146.41 295.241C1147.5 297.631 1147.84 297.707 1156.11 297.43L1164.69 297.144L1164.37 294.176C1163.58 286.905 1157.88 282.449 1147.15 280.708C1139.91 279.533 1133.25 279.52 1125.37 280.668ZM374.188 309.644V338.644H384.188H394.188V327.644V316.644H409.188H424.188V310.644V304.644H409.188H394.188V298.644V292.644H410.188H426.188V286.644V280.644H400.188H374.188V309.644ZM455.352 301.975L455.688 323.306L458.697 328.17C463.94 336.646 475.292 340.401 492.242 339.266C506.548 338.309 513.54 334.829 517.716 326.589C520.107 321.871 520.188 321.036 520.188 301.177V280.644H511.188H502.188L502.132 298.894C502.067 319.749 501.347 323.079 496.266 326.037C492.207 328.4 485.018 328.649 480.688 326.577C475.035 323.872 474.191 320.343 474.19 299.394L474.188 280.644H464.602H455.016L455.352 301.975ZM552.188 309.644V338.644H579.188H606.188V332.644V326.644H589.188H572.188V320.644V314.644H587.188H602.188V308.644V302.644H587.188H572.188V297.644V292.644H588.188H604.188V286.644V280.644H578.188H552.188V309.644ZM636.188 309.644V338.644H661.188H686.188V332.67V326.696L670.938 326.42L655.688 326.144L655.419 303.394L655.15 280.644H645.669H636.188V309.644ZM731.188 286.61V292.576L741.938 292.86L752.688 293.144L752.957 315.894L753.226 338.644H762.688H772.15L772.419 315.894L772.688 293.144L783.438 292.86L794.188 292.576V286.61V280.644H762.688H731.188V286.61ZM836.233 288.894C833.847 293.432 830.225 300.294 828.186 304.144C826.146 307.994 821.233 317.332 817.266 324.894L810.055 338.644H819.632H829.21L831.907 333.144L834.605 327.644H849.78H864.956L867.188 333.144L869.42 338.644H880.307H891.195L876.688 309.644L862.181 280.644H851.377H840.573L836.233 288.894ZM914.188 309.682V338.719L923.277 338.432L932.366 338.144L932.238 319.977C932.164 309.559 932.511 301.563 933.05 301.229C933.568 300.909 939.548 309.192 946.339 319.634L958.688 338.62L971.438 338.632L984.188 338.644V309.644V280.644H975.188H966.188V299.644C966.188 310.094 965.828 318.644 965.388 318.644C964.949 318.644 958.795 310.094 951.714 299.644L938.839 280.644H926.514H914.188V309.682ZM1016.19 309.608V338.644H1026.16H1036.13L1036.41 324.047L1036.69 309.45L1048.19 324L1059.69 338.551L1072.02 338.598L1084.35 338.644L1075.55 327.894C1070.71 321.981 1064.59 314.519 1061.94 311.311L1057.14 305.478L1068.79 293.061L1080.43 280.644H1068.67H1056.91L1046.8 291.318L1036.69 301.992L1036.19 291.568L1035.69 281.144L1025.94 280.858L1016.19 280.572V309.608ZM854.971 304.394C857.299 309.757 859.2 314.481 859.196 314.894C859.191 315.307 854.876 315.644 849.605 315.644C844.334 315.644 840.171 315.271 840.355 314.815C842.304 309.964 849.777 294.644 850.194 294.644C850.494 294.644 852.643 299.031 854.971 304.394Z" fill="white"/>
</svg>
