<svg width="4657" height="501" viewBox="0 0 4657 501" fill="none" xmlns="http://www.w3.org/2000/svg">
<path fill-rule="evenodd" clip-rule="evenodd" d="M659.629 8.851C543.385 29.9001 458.481 154.408 443.359 325.984C437.255 395.217 453.763 443.904 491.776 468.805C543.143 502.464 773.622 511.257 871.023 483.266C968.08 455.387 1047.09 310.053 1048.53 156.772C1049.61 41.318 1000.65 8.77656 818.224 3.67712C756.277 1.94629 684.913 4.27267 659.629 8.851ZM1783.42 9.31631C1672.73 31.2029 1603.79 116.879 1571.65 272.486C1554.13 357.26 1560.01 409.371 1591.25 446.509C1626.39 488.263 1666.92 497.15 1822.92 497.308C1960.81 497.448 1964.09 496.973 2018.34 469.261C2085.35 435.035 2122.15 380.263 2151.69 270.774C2186.6 141.399 2170.96 61.8274 2104.33 29.7791C2045.75 1.60192 1876.91 -9.1645 1783.42 9.31631ZM4276.47 8.71142C4189.78 29.2767 4132.85 106.15 4131.03 205.105C4130.17 252.749 4133.24 262.855 4155.34 284.993C4178.52 308.21 4188.51 310.816 4274 315.971C4376.09 322.131 4404.43 334.657 4371.98 359.279C4356.75 370.837 4334.77 372.326 4251.01 367.477C4194.71 364.22 4135.64 359.326 4119.75 356.599C4091.08 351.686 4090.73 352.104 4076 410.581C4067.84 442.992 4064.36 472.714 4068.27 476.622C4081.37 489.724 4287.17 504.176 4388.37 499.104C4469.61 495.028 4495.92 489.985 4527.83 472.379C4595.22 435.212 4636.66 326.272 4608.9 259.254C4592.15 218.821 4552.1 204.323 4457.18 204.323C4373.52 204.323 4343.11 191.072 4371.91 167.157C4382.27 158.568 4421.33 156.381 4518.59 158.949L4651.15 162.448L4653.83 87.0547L4656.51 11.6613L4593.34 5.69638C4509.65 -2.20403 4314.68 -0.352175 4276.47 8.71142ZM15.8998 19.9804C12.131 26.0662 7.16186 63.7537 4.84478 103.73L0.638672 176.407H53.6431C99.7706 176.407 106.015 178.519 101.781 192.691C89.8137 232.724 30.9468 474.268 30.9468 483.322C30.9468 490.115 64.7353 492.544 134.545 490.776L238.153 488.142L265.233 381.129C280.131 322.271 298.481 252.312 306.009 225.67L319.707 177.216L386.409 174.49L453.121 171.754L473.788 95.6531C485.16 53.7968 492.064 17.1516 489.142 14.2296C486.211 11.2984 380.072 8.9068 253.275 8.9068C85.0958 8.9068 20.8875 11.9032 15.8998 19.9804ZM1054.56 14.8995C1054.56 21.6554 1103.3 204.668 1130.05 298.384C1139.71 332.2 1147.61 364.9 1147.61 371.06C1147.61 377.211 1131.16 403.815 1111.06 430.178C1090.95 456.541 1076.29 481.014 1078.48 484.55C1080.67 488.086 1134.49 491.53 1198.09 492.181L1313.72 493.381L1336.18 462.85C1490.21 253.466 1659.42 18.6962 1659.42 14.3784C1659.42 11.3634 1606.02 8.96271 1540.77 9.03715L1422.13 9.16736L1366.48 106.159C1335.87 159.498 1308.04 198.638 1304.63 193.119C1301.23 187.611 1295.65 151.235 1292.24 112.291C1282.42 0.261967 1293.01 8.9068 1165.6 8.9068C1104.53 8.9068 1054.56 11.6054 1054.56 14.8995ZM2335.12 16.5094C2329.66 25.359 2292.19 158.633 2292.19 169.241C2292.19 173.178 2321.07 176.407 2356.36 176.407H2420.53L2380.94 330.209C2359.17 414.805 2343.9 485.527 2347.01 487.379C2350.13 489.231 2395.36 491.371 2447.54 492.134C2530.17 493.344 2543.48 491.381 2550.83 476.873C2555.48 467.717 2575.5 396.362 2595.34 318.316L2631.42 176.407H2697.66H2763.91L2783.95 107.415C2815.55 -1.32 2837.57 8.9068 2571.91 8.9068C2444.26 8.9068 2337.71 12.322 2335.12 16.5094ZM2815.07 76.372C2787.67 170.944 2718.21 436.729 2713.33 465.688L2709.28 489.771L2810.08 488.952L2910.89 488.142L2973.21 264.809C3007.48 141.976 3035.78 34.1527 3036.08 25.1915C3036.58 10.6469 3025.83 8.9068 2935.64 8.9068H2834.62L2815.07 76.372ZM3069.83 17.1981C3062.39 29.2581 2943.58 464.674 2943.58 479.926C2943.58 490.059 2964.27 492.795 3040.96 492.795C3151.86 492.795 3147.62 495.698 3167.43 406.291C3174 376.634 3182.52 350.42 3186.37 348.038C3190.22 345.656 3209.01 369.925 3228.15 401.973C3285.3 497.708 3275.98 492.795 3400.45 492.795C3460.77 492.795 3512.01 489.65 3514.32 485.816C3516.63 481.982 3489.98 439.111 3455.12 390.555L3391.72 302.283L3439.84 292.41C3466.3 286.975 3497.49 276.45 3509.15 269.015C3542.45 247.78 3567.05 187.164 3567.05 126.333C3567.05 15.8488 3550.05 8.9068 3279.43 8.9068C3166.97 8.9068 3072.65 12.6384 3069.83 17.1981ZM3650.91 29.8443C3646.07 41.3645 3624.85 117.782 3603.76 199.67C3534.74 467.707 3531.18 484.588 3542.74 489.026C3548.62 491.288 3658.02 492.004 3785.86 490.636L4018.3 488.142L4029.31 454.54C4035.35 436.059 4043.16 405.705 4046.66 387.075L4053.02 353.212H3917.04C3802.39 353.212 3781.08 351.025 3781.08 339.254C3781.08 327.463 3802.82 325.295 3920.9 325.295C4077.89 325.295 4068.44 329.827 4083.94 247.194L4090.24 213.629H3953.62C3817.27 213.629 3817.02 213.592 3819.98 192.691C3822.9 172.154 3825.68 171.707 3964.57 169.185L4106.19 166.617L4116.38 127.311C4121.99 105.694 4130.34 73.7385 4134.94 56.3092C4139.54 38.8706 4141.11 21.0784 4138.44 16.7606C4135.78 12.4429 4026.97 8.9068 3896.66 8.9068C3659.75 8.9068 3659.71 8.90681 3650.91 29.8443ZM3344.33 158.121C3368.59 171.102 3366.98 191.212 3339.49 218.7C3320.72 237.479 3307.44 241.545 3264.87 241.545H3213.09L3219.28 215.955C3234.71 152.212 3238.25 148.49 3283.62 148.49C3307.11 148.49 3334.43 152.826 3344.33 158.121ZM823.602 187.368C835.169 204.574 824.654 266.791 802.339 313.133C788.623 341.617 775.167 354.915 752.489 362.396C710.149 376.373 673.774 365.691 662.477 335.959C644.303 288.166 687.183 184.344 731.934 167.79C756.091 158.847 812.547 170.907 823.602 187.368ZM1937.35 179.757C1957.3 195.502 1944.59 282.741 1916.05 325.854C1886.85 369.98 1840.74 383.027 1802.52 357.976C1780.71 343.683 1778.64 337.504 1782.43 298.021C1787.84 241.713 1815.9 184.326 1844.97 170.088C1869.16 158.242 1916.33 163.183 1937.35 179.757Z" fill="white"/>
</svg>
