<svg width="5367" height="500" viewBox="0 0 5367 500" fill="none" xmlns="http://www.w3.org/2000/svg">
<path fill-rule="evenodd" clip-rule="evenodd" d="M5000.87 1.97323C4728.35 14.296 4501.88 99.4283 4363.13 241.702C4308.43 297.78 4281.47 346.359 4285.17 382.159C4289.1 420.125 4320.81 453.175 4369.01 469.528C4443.42 494.769 4621.17 502.427 4763.15 486.508C4876.43 473.806 4990.77 440.953 5084.61 394.144C5123.65 374.665 5171.37 346.343 5170.35 343.251C5169.89 341.836 5167.02 340.364 5163.97 339.981C5158.53 339.294 5054.46 321.061 5005.49 312.216L4980.49 307.7L4958.65 321.716C4871.22 377.812 4792.31 401.18 4690.49 401.134C4647.74 401.116 4629.7 399.11 4606.19 391.753C4589.79 386.62 4574.57 375.516 4568.88 364.524C4558.56 344.595 4572.82 311.588 4611.76 265.232C4652.7 216.502 4700.92 177.685 4752.87 151.652C4823.57 116.224 4894.16 99.8939 4976.34 99.9578C5022.59 99.9943 5049.53 104.684 5070.97 116.432C5090.38 127.07 5098.36 137.447 5099.72 153.811L5100.79 166.663L5112.48 165.406C5118.91 164.712 5177.12 158.765 5241.84 152.188C5323.88 143.85 5360.55 139.284 5362.94 137.111C5365.51 134.772 5366.36 128.748 5366.36 112.929C5366.36 93.7234 5365.7 90.5126 5358.85 76.6175C5336.08 30.391 5270.64 8.25559 5137.69 1.80894C5087.04 -0.646496 5058.06 -0.612273 5000.87 1.97323ZM1418.1 7.86764C1353.8 11.6854 1289.95 19.0768 1242.94 28.1432C1018.47 71.4396 858.748 168.906 794.351 301.885C774.694 342.477 772.893 370.185 787.907 401.152C795.591 417.003 819.279 440.619 838.881 451.97C896.012 485.055 987.765 499.892 1135.91 499.999C1258.93 500.091 1344.38 490.597 1443.23 465.863C1530.87 443.933 1617.46 407.946 1675.37 369.387C1749.16 320.255 1812.47 249.461 1837.76 187.785C1844.56 171.204 1845.25 167.332 1845.3 145.568C1845.36 124.398 1844.67 120.144 1839.4 109.056C1806.56 39.9184 1686.38 5.30039 1484.36 6.78598C1454.2 7.00733 1424.38 7.49339 1418.1 7.86764ZM2962.67 13.1984L2583.38 14.3531L2429.15 94.0063C2344.33 137.816 2270.99 175.702 2266.17 178.196C2261.36 180.693 2253.67 182.842 2249.1 182.977C2238.62 183.285 2240.66 187.206 2202.96 94.2231C2186.68 54.0599 2172.51 19.75 2171.47 17.9792C2169.87 15.2522 2146.59 14.8414 2018.92 15.2978C1936.06 15.5922 1867.92 16.1741 1867.5 16.5872C1867.09 17.0025 1874.14 30.5325 1883.18 46.6548C2029.4 307.446 2022.35 294.38 2019.68 299.466C2018.33 302.052 2007.24 317.003 1995.03 332.692C1963.34 373.44 1878.5 487.042 1878.5 488.731C1878.5 489.511 1937.43 490.15 2009.45 490.15H2140.41L2146.19 483.875C2152.79 476.714 2227.95 380.007 2260.14 337.256C2294.99 290.97 2294.73 291.192 2340.04 269.405C2488.81 197.883 2633.69 129.24 2646.61 124.17L2661.85 118.184H2816.41C2918.58 118.184 2972.47 118.985 2975.39 120.546C2977.82 121.847 2979.81 124.464 2979.81 126.363C2979.81 129.254 2914.94 210.183 2787.9 365.781C2774.58 382.097 2746.46 416.756 2725.42 442.799L2687.15 490.15H2819.66H2952.18L2965.44 474.747C2972.73 466.276 2990 445.628 3003.81 428.867C3017.63 412.106 3055.15 366.849 3087.2 328.297C3119.24 289.745 3170.65 227.789 3201.44 190.615C3232.23 153.443 3259.78 121.94 3262.67 120.608C3266.2 118.976 3317.31 118.184 3419.24 118.184H3570.56L3613.35 67.9185C3636.88 40.2721 3656.13 16.1399 3656.13 14.2915C3656.13 11.3591 3636.11 11.0008 3499.05 11.4869C3412.65 11.7927 3171.28 12.564 2962.67 13.1984ZM3673.87 97.0756C3633.28 144.455 3582.13 204.273 3560.22 230.002C3538.3 255.732 3513.04 284.998 3504.07 295.039C3495.1 305.08 3454.57 352.317 3414 400.011L3340.24 486.727L3652.99 487.437C3825 487.827 4000.69 487.425 4043.42 486.547L4121.1 484.947L4153.09 449.75C4170.69 430.391 4188.56 410.508 4192.8 405.57L4200.52 396.588H3949.17C3728.62 396.588 3697.47 396.168 3694.98 393.167C3692.62 390.338 3693.64 387.88 3700.89 378.905C3719.92 355.343 3780.38 286.705 3784.89 283.554C3789.02 280.665 3821.55 280.206 4022.1 280.206H4254.52L4290.06 241.04C4309.61 219.498 4325.6 200.959 4325.6 199.841C4325.6 198.661 4230.04 197.97 4098.07 198.198C3946.42 198.458 3869.76 197.815 3868.21 196.27C3866.93 194.994 3866.5 192.05 3867.25 189.727C3868 187.404 3885.35 166.506 3905.8 143.286L3942.99 101.069L4108.59 99.6817C4199.67 98.9195 4315.83 98.0637 4366.73 97.7808L4459.27 97.265L4487.83 65.3992C4503.54 47.8734 4520.85 28.449 4526.31 22.2329L4536.22 10.9301H4141.95H3747.68L3673.87 97.0756ZM358.728 17.2056C91.2417 17.735 62.3699 18.1435 61.1201 21.3976C60.3592 23.3807 46.369 46.4745 30.0321 72.7198C13.6975 98.9628 0.331055 120.957 0.331055 121.591C0.331055 122.228 65.8795 122.78 145.992 122.821C301.612 122.899 301.93 122.922 299.09 133.768C298.459 136.18 277.052 170.371 251.519 209.749C204.633 282.064 73.447 489.577 73.447 491.43C73.447 491.98 132.824 492.428 205.399 492.423L337.35 492.414L363.935 451.918C485.956 266.051 567.974 140.573 572.654 132.609C574.996 128.62 579.047 124.784 581.658 124.083C584.268 123.383 637.297 122.794 699.503 122.773C761.709 122.75 830.084 122.064 851.447 121.244L890.29 119.754L923.421 70.7573C941.643 43.8092 956.883 20.3502 957.29 18.6273C957.911 15.9916 934.002 15.5831 806.488 16.0555C723.14 16.3658 521.648 16.8816 358.728 17.2056ZM1446.99 106.795C1505.79 112.52 1542.12 128.953 1555.26 155.778C1560.82 167.124 1561.38 170.3 1560.17 183.331C1558.36 202.616 1548.98 224.436 1531.68 249.607C1458.9 355.462 1364.24 403.441 1220.45 407.35C1152.73 409.189 1113.51 402.179 1083.63 382.887C1060.75 368.12 1053.34 349.193 1059.31 320.764C1063.63 300.199 1069.34 287.938 1086.67 262.041C1113.04 222.627 1143.81 191.388 1180.47 166.791C1246.42 122.547 1355.82 97.92 1446.99 106.795Z" fill="currentColor"/>
</svg>
