<svg width="1500" height="501" viewBox="0 0 1500 501" fill="none" xmlns="http://www.w3.org/2000/svg">
<path fill-rule="evenodd" clip-rule="evenodd" d="M777.864 48.3076C752.632 74.7972 720.045 108.731 705.449 123.711L678.915 150.95L665.896 132.457C658.735 122.287 651.863 112.277 650.629 110.215C648.857 107.264 639.781 115.12 607.917 147.175C585.66 169.564 566.24 187.402 564.758 186.818C563.274 186.231 549.13 177.725 533.326 167.917L504.59 150.083L484.559 170.753C421.425 235.911 371.042 291.264 373.046 293.268C374.378 294.6 401.45 276.012 439.496 247.646C474.807 221.316 505.187 200.346 507.008 201.043C508.828 201.743 523.278 211.953 539.12 223.732C554.96 235.512 568.993 245.149 570.308 245.149C571.622 245.149 579.711 237.561 588.286 228.283C596.86 219.005 612.745 202.16 623.584 190.848L643.295 170.281L667.196 218.035C680.344 244.3 691.971 264.8 693.036 263.59C694.1 262.381 724.03 211.491 759.548 150.503C820.803 45.3141 824.324 39.8692 828.027 44.6044C830.174 47.3481 861.166 90.3297 896.899 140.118L961.867 230.641L963.117 199.372L964.366 168.104L1030.23 222.243C1110.74 288.416 1117.26 293.418 1119.09 290.452C1120.24 288.588 956.205 88.1632 937.996 69.185C933.471 64.4698 933.039 64.6122 913.096 77.306C901.931 84.4101 891.979 90.2247 890.979 90.2247C889.98 90.2247 880.822 78.7003 870.629 64.6122C860.437 50.524 845.719 30.2564 837.92 19.5716L823.742 0.143555L777.864 48.3076ZM5.00508 391.953C7.47638 395.731 22.564 416.816 38.5313 438.805C54.4985 460.794 70.878 483.541 74.9286 489.353L82.295 499.918L107.52 499.973C128.46 500.015 133.398 499.283 136.584 495.653C141.719 489.803 213.481 387.68 213.481 386.223C213.481 385.596 200.495 385.081 184.62 385.081H155.762L132.993 420.064C120.471 439.305 109.564 454.997 108.755 454.937C106.531 454.772 76.048 410.761 76.048 407.718C76.048 406.264 76.8901 405.039 77.9221 404.997C78.9541 404.957 84.8562 400.491 91.0407 395.076L102.285 385.231L51.3975 385.156L0.509766 385.081L5.00508 391.953ZM218.479 430.024V475.038H297.19H375.902V463.793V452.548H319.68C265.124 452.548 263.457 452.401 263.457 447.551C263.457 442.701 265.124 442.553 319.817 442.553H376.177L375.415 430.684L374.653 418.815L319.055 418.143C272.253 417.576 263.457 416.891 263.457 413.817C263.457 410.744 272.253 410.059 319.055 409.492L374.653 408.82V397.575V386.331L296.566 385.671L218.479 385.011V430.024ZM385.897 430.059V475.038H422.754H459.611L474.594 464.418L489.574 453.798L460.226 453.093L430.875 452.391V433.525V414.659L438.997 419.525C451.645 427.101 571.827 498.156 573.931 499.301C574.96 499.861 575.805 474.39 575.805 442.701V385.081H553.316H530.827V410.069C530.827 423.812 530.097 435.057 529.205 435.057C528.313 435.057 508.693 423.812 485.606 410.069L443.629 385.081H414.763H385.897V430.059ZM585.8 431.309V477.536H663.262H740.725V431.309V385.081H663.262H585.8V431.309ZM750.72 430.059V475.038H774.458H798.197V442.553V410.069H814.341H830.486L831.208 431.444L831.93 452.818L852.583 463.928C863.942 470.038 874.342 475.038 875.697 475.038C877.186 475.038 878.158 462.216 878.158 442.553V410.069H894.4H910.642V442.553V475.038H933.131H955.62V430.059V385.081H853.17H750.72V430.059ZM966.183 430.552L966.865 476.022L986.855 486.727C997.85 492.616 1008.25 497.454 1009.97 497.479C1012.35 497.517 1013.09 487.139 1013.09 453.798V410.069H1045.58C1076.39 410.069 1078.06 410.327 1078.06 415.067C1078.06 419.632 1076.39 420.067 1058.7 420.092C1048.05 420.107 1035.11 420.816 1029.96 421.669C1020.83 423.178 1020.59 423.495 1020.59 433.905V444.595L1047.82 459.902L1075.06 475.212L1101.52 474.5L1127.99 473.788L1105.31 460.045L1082.64 446.302L1102.84 445.577L1123.04 444.85V414.967V385.081H1044.27H965.503L966.183 430.552ZM1133.03 430.024V475.038H1211.75H1290.46V463.793V452.548H1234.23C1179.68 452.548 1178.01 452.401 1178.01 447.551C1178.01 442.701 1179.68 442.553 1234.37 442.553H1290.73L1289.97 430.684L1289.21 418.815L1233.61 418.143C1186.81 417.576 1178.01 416.891 1178.01 413.817C1178.01 410.744 1186.81 410.059 1233.61 409.492L1289.21 408.82V397.575V386.331L1211.12 385.671L1133.03 385.011V430.024ZM1296.44 387.148C1297.14 388.285 1311.26 398.47 1327.82 409.782C1344.38 421.094 1357.92 430.647 1357.92 431.011C1357.92 431.374 1344.43 441.114 1327.94 452.651C1311.45 464.19 1297.95 474.615 1297.95 475.817C1297.95 477.037 1308.73 477.224 1322.32 476.24C1345.16 474.588 1347.79 473.808 1364.52 463.736L1382.35 452.996L1412.91 472.851C1429.72 483.771 1446.66 494.353 1450.55 496.365C1458.61 500.53 1501.67 501.67 1499.18 497.652C1498.38 496.345 1476.93 480.94 1451.52 463.418C1415.33 438.458 1406.01 430.927 1408.49 428.635C1410.23 427.026 1422.89 418.093 1436.64 408.782C1473.58 383.757 1473.21 385.081 1443.28 385.081H1417.62L1402.82 395.136C1394.67 400.666 1386.34 405.831 1384.29 406.616C1382.24 407.403 1372.1 402.895 1361.67 396.563L1342.75 385.081H1318.96C1305.87 385.081 1295.73 386.011 1296.44 387.148ZM695.747 431.309V452.548H663.262H630.778V431.309V410.069H663.262H695.747V431.309Z" fill="white"/>
</svg>
