<svg width="1755" height="501" viewBox="0 0 1755 501" fill="none" xmlns="http://www.w3.org/2000/svg">
<path fill-rule="evenodd" clip-rule="evenodd" d="M1061.62 1.70342C1060.77 2.55935 1060.06 53.5998 1060.06 115.127V226.99H1099.82H1139.58L1139.59 180.802C1139.59 139.147 1140.04 133.88 1144.15 127.14C1153.21 112.292 1171.03 106.525 1187.1 113.242C1201.2 119.133 1202.72 125.65 1202.72 180.143V226.99H1241.31H1279.9V166.602C1279.9 96.9765 1278.56 89.8929 1262.42 73.7494C1251.63 62.9566 1237 56.8972 1216.5 54.7247C1192.58 52.1896 1157.61 61.191 1144.87 73.1624L1139.58 78.1343V39.1378V0.143555H1101.38C1080.37 0.143555 1062.48 0.845141 1061.62 1.70342ZM917.409 31.6167V58.4127L899.285 59.0956L881.16 59.7784L880.494 83.7493L879.827 107.72H898.618H917.409V152.828C917.409 194.955 917.757 198.625 922.671 208.37C926.698 216.359 930.676 220.175 939.626 224.651C950.648 230.161 953.4 230.489 987.568 230.327C1007.5 230.234 1026.71 229.424 1030.25 228.529L1036.68 226.901V204.729V182.556H1020.83C994.979 182.556 994.583 181.939 994.583 141.588V107.903L1015.05 107.227L1035.51 106.551L1035.22 88.4266C1034.68 54.9726 1037.21 58.6091 1014.46 58.6091H994.583V31.715V4.8208H955.996H917.409V31.6167ZM0.392947 8.91339C-0.0350214 11.6215 -0.397519 10.3259 25.7155 99.535C39.2702 145.84 53.1172 193.482 56.4895 205.407L62.619 227.088L105.806 226.454L148.991 225.821L163.114 167.982C170.881 136.17 177.792 110.124 178.472 110.101C179.15 110.078 185.991 136.361 193.673 168.508L207.637 226.96L250.902 226.964L294.166 226.969L325.237 120.318C342.328 61.661 356.535 12.4658 356.808 10.9971C357.169 9.07943 345.494 8.32873 315.246 8.32873H273.186L260.151 70.3022C252.981 104.388 246.62 133.686 246.014 135.409C245.41 137.133 238.285 110.824 230.184 76.9439C222.08 43.0643 214.938 13.5018 214.309 11.252C213.289 7.58973 209.524 7.15942 178.531 7.15942H143.893L140.324 21.7758C138.362 29.816 131.253 59.3177 124.529 87.3368C117.803 115.356 111.95 137.928 111.522 137.5C111.092 137.072 104.92 108.885 97.8059 74.8625C90.6895 40.8426 84.3729 11.6917 83.7672 10.0827C82.9463 7.89609 72.3219 7.15942 41.6673 7.15942C19.1183 7.15942 0.544957 7.94988 0.392947 8.91339ZM446.773 53.9132C374.615 62.9169 340.581 110.608 359.898 175.653C366.979 199.495 393.162 219.906 427.903 228.667C450.208 234.293 514.902 234.322 535.594 228.716C564.275 220.947 588.054 204.803 597.186 186.901C599.667 182.042 601.695 177.498 601.695 176.803C601.695 174.385 520.159 175.475 518.653 177.912C517.846 179.217 512.816 182.514 507.474 185.241C493.545 192.346 466.373 192.322 452.517 185.189C443.852 180.732 433.349 168.735 433.323 163.262C433.319 162.299 471.2 161.509 517.505 161.509H601.695V149.137C601.695 122.65 589.997 95.3652 571.782 79.3737C561.803 70.6109 544.843 62.4959 526.627 57.7696C509.904 53.4291 467.184 51.3664 446.773 53.9132ZM708.413 53.9903C675.305 57.7812 655.998 65.7232 643.301 80.7676C639.648 85.094 632.097 103.543 632.097 108.136C632.097 109.194 648.83 110.059 669.281 110.059H706.465L714.424 102.1C720.899 95.6248 724.863 93.8311 735.677 92.4794C765.158 88.7961 786.621 98.7141 780.981 113.415C779.119 118.267 764.405 121.724 745.52 121.745C710.89 121.785 667.427 126.401 653.736 131.495C631.533 139.757 618.124 157.259 618.079 178.038C618.049 191.352 625.018 207.68 634.309 216.073C646.283 226.892 662.808 231.852 691.884 233.36C725.633 235.11 751.297 231.228 770.536 221.464L786.196 213.515L787.676 220.252L789.156 226.99H828.81H868.462L865.456 221.728C863.319 217.986 862.115 199.242 861.282 156.831C860.138 98.5434 859.979 96.9578 854.236 86.6726C846.404 72.6502 830.55 62.3112 809.556 57.5357C789.538 52.9824 734.161 51.0413 708.413 53.9903ZM1398.34 54.0137C1350.58 61.509 1322.83 80.5501 1311.55 113.567C1309.09 120.758 1307.55 132.463 1307.54 143.969C1307.53 179.467 1322.47 203.926 1353.2 218.707C1392.15 237.439 1462.98 239.174 1507.09 222.479C1526.09 215.285 1547.68 195.334 1552.2 180.802L1553.83 175.54H1513.11C1475.62 175.54 1472.06 175.905 1468.23 180.129C1462.24 186.754 1449.85 190.164 1432.13 190.063C1413.53 189.96 1398.53 184.499 1392.12 175.498C1381.81 161.024 1379.11 161.509 1470.36 161.509C1515.94 161.509 1553.68 160.718 1554.21 159.755C1554.74 158.791 1554.37 149.867 1553.37 139.925C1549.09 97.0771 1522.19 67.6362 1478.09 57.531C1459.14 53.1859 1415.8 51.2752 1398.34 54.0137ZM1709.61 56.4716C1696.28 59.6124 1678.78 69.2405 1668.33 79.1773L1658.95 88.0968L1658.27 73.9388L1657.58 59.7784H1620.17H1582.75L1582.13 143.384L1581.52 226.99H1621.15H1660.79L1661.53 186.228C1662.19 149.497 1662.73 144.811 1667.06 138.871C1678.47 123.19 1709.26 116.088 1738.85 122.311L1754.64 125.632V91.2586V56.8832L1745.87 55.4333C1734.3 53.5203 1720.44 53.9178 1709.61 56.4716ZM507.668 99.2544C514.464 102.797 524.488 115.141 524.511 119.998C524.516 120.961 504.097 121.752 479.137 121.752C436.389 121.752 433.817 121.504 434.865 117.493C436.925 109.621 446.104 100.55 455.531 97.0678C467.792 92.5402 497.151 93.7703 507.668 99.2544ZM1451.32 96.1838C1461.49 99.0088 1472.93 108.754 1475.14 116.49L1476.66 121.752H1432.06C1405.36 121.752 1387.47 120.859 1387.47 119.523C1387.47 110.468 1397.99 99.7619 1410.66 95.9242C1419.58 93.2184 1441.15 93.3587 1451.32 96.1838ZM784.107 158.623C784.107 168.782 776.369 180.692 766.353 185.947C758.939 189.836 752.87 190.741 734.206 190.741C712.847 190.741 710.876 190.346 706.727 185.22C696.369 172.43 703.968 160.337 723.696 158.211C730.553 157.472 744.585 155.947 754.875 154.822C785.361 151.492 784.107 151.329 784.107 158.623ZM1134.9 380.17V493.593H1173.49H1212.08L1212.08 448.574C1212.08 410.336 1212.7 402.349 1216.17 395.537C1222.71 382.709 1231.28 377.831 1247.27 377.831C1259.24 377.831 1261.94 378.694 1267.56 384.311L1274.05 390.789L1274.76 442.192L1275.47 493.593H1313.93H1352.39L1352.34 431.035C1352.29 373.166 1351.93 367.689 1347.53 357.953C1338.3 337.572 1324.32 327.555 1298.48 322.822C1272.01 317.974 1239.76 323.893 1221.81 336.896L1212.08 343.951V305.348V266.747H1173.49H1134.9V380.17ZM365.494 301.826V329.889H405.251H445.007V411.741V493.593H489.441H533.875V411.741V329.889H572.462H611.049V301.826V273.762H488.272H365.494V301.826ZM685.885 320.593C643.313 325.586 614.078 342.965 599.988 371.652C594.157 383.526 593.51 387.305 593.51 409.402C593.51 431.021 594.239 435.497 599.609 446.82C610.932 470.7 631.288 485.747 664.838 495.04C676.671 498.319 688.589 499.245 718.626 499.224C765.12 499.192 786.986 494.344 809.835 479C821.977 470.848 837.896 452.365 837.896 446.421C837.896 445.354 819.526 444.482 797.073 444.482C757.386 444.482 756.011 444.646 747.637 450.328C738.928 456.238 730.394 457.618 708.54 456.645C695.032 456.044 686.208 451.83 677.978 442.047C665.881 427.67 663.397 428.111 756.367 428.111H840.88L839.329 412.964C837.213 392.326 829.921 370.336 821.549 359.347C797.601 327.913 746.919 313.437 685.885 320.593ZM961.843 319.55C904.404 325.953 875.33 343.212 864.039 377.607C855.51 403.589 858.249 437.3 870.498 457.122C889.238 487.44 933.702 502.47 996.922 499.851C1030.55 498.46 1048.6 494.774 1066.68 485.609C1086.27 475.684 1103.14 452.749 1105.95 432.211L1107.31 422.265H1067.51H1027.71L1023.82 431.084C1018.47 443.205 1005.82 449.451 986.618 449.451C956.607 449.451 940.465 435.742 940.253 410.069C940.136 395.911 943.884 385.619 951.749 378.5C972.317 359.884 1020.55 365.67 1026 387.408L1027.41 393.032H1067.13C1112.12 393.032 1110.11 394.127 1103.08 373.488C1097.42 356.886 1079.61 338.734 1061.83 331.447C1053.78 328.152 1041.88 324.403 1035.38 323.117C1022.04 320.479 974.287 318.163 961.843 319.55ZM744.589 366.084C752.478 369.922 760.721 379.992 760.721 385.792C760.721 387.56 746.937 388.355 716.287 388.355C691.849 388.355 671.854 387.777 671.854 387.069C671.854 384.209 678.795 372.618 682.202 369.793C694.239 359.803 727.602 357.82 744.589 366.084Z" fill="currentColor"/>
</svg>
