<svg width="2459" height="500" viewBox="0 0 2459 500" fill="none" xmlns="http://www.w3.org/2000/svg">
<path fill-rule="evenodd" clip-rule="evenodd" d="M287.714 5.99623C273.885 14.4764 262.498 38.9151 265.353 53.9811C271.492 86.3623 310.668 105.034 338.422 88.8048C350.384 81.8148 363.272 60.3772 363.272 47.4831C363.272 32.0094 353.728 14.3744 341.294 6.8713C326.72 -1.92511 301.305 -2.3398 287.714 5.99623ZM1109.73 299.349L1110.65 490.003H1146.15H1181.66L1182.76 474.817L1183.87 459.632L1198.95 473.39C1220.8 493.324 1241.29 500.096 1273.56 498.047C1332.87 494.28 1373.09 449.756 1382.22 377.744C1386.1 347.18 1381.16 301.384 1371.3 276.555C1351.97 227.857 1311.84 198.407 1265.39 198.828C1236.64 199.089 1214.76 207.874 1196.5 226.486L1183.43 239.806V174.249V108.696H1146.12H1108.81L1109.73 299.349ZM2336.27 132.01C2334.91 133.363 2333.79 150.808 2333.79 170.784V207.098H2316.04H2298.29V235.213V263.327H2315.7H2333.11L2334.34 357.336C2335.47 443.764 2336.14 452.308 2342.67 463.276C2357.77 488.664 2382.9 497.197 2430.68 493.162L2458.33 490.829L2457.3 462.303L2456.28 433.773L2436.83 432.684C2426.13 432.083 2416.17 429.711 2414.7 427.412C2413.22 425.11 2411.99 387.327 2411.95 343.447L2411.9 263.661L2434.09 262.617L2456.28 261.57V235.213V208.855L2434.21 207.811L2412.14 206.767L2411.13 169.153L2410.13 131.539L2374.44 130.545C2354.82 130 2337.64 130.657 2336.27 132.01ZM293.746 136.702C282.502 141.204 267.963 160.178 265.403 173.701C262.438 189.336 273.981 213.74 288.296 222.111C302.005 230.127 326.716 229.864 340.478 221.556C352.659 214.204 363.272 195.202 363.272 180.74C363.272 166.11 353.075 148.204 340.286 140.381C328.314 133.057 307.046 131.378 293.746 136.702ZM151.716 152.348C135.515 159.331 125.389 173.95 125.389 190.352C125.389 201.513 127.793 206.665 137.461 216.235C147.583 226.254 152.089 228.184 165.386 228.184C212.532 228.184 222.044 167.797 177.528 151.104C165.3 146.517 165.247 146.517 151.716 152.348ZM1520.88 200.558C1476.64 207.815 1442.4 233.167 1424.89 271.639C1405.72 313.744 1402.58 350.093 1414.22 395.129C1426.25 441.716 1448.2 469.135 1488.35 487.771C1506.28 496.093 1512.44 497.031 1549.13 497.031C1595.26 497.031 1611.95 493.166 1636.58 476.775C1681.56 446.854 1704.37 385.377 1694.81 319.834C1689.5 283.412 1676.46 256.671 1653.58 235.248C1618.77 202.659 1576.07 191.498 1520.88 200.558ZM1842.05 199.008C1766.64 208.904 1721.52 264.55 1721.48 347.672C1721.46 423.603 1754.15 473.58 1816.02 492.182C1850.78 502.633 1900.85 500.518 1929.86 487.37C1972.72 467.947 1999.56 430.174 2007.81 377.674C2016.1 324.916 1999.59 265.882 1968.11 235.638C1938.03 206.743 1889.82 192.735 1842.05 199.008ZM2129.64 199.851C2076.31 208.328 2042.61 241.911 2041.96 287.235C2041.21 339.62 2064.04 358.559 2155.51 381.434C2205.29 393.882 2213.07 398.18 2213.07 413.221C2213.07 431.471 2186.74 441.919 2152.5 437.259C2131.44 434.392 2115.22 422.439 2111.86 407.321L2109.55 396.872H2070.28H2031.01L2033.08 414.205C2035.55 434.785 2045.29 454.792 2059.19 467.838C2084.2 491.306 2137.4 504.429 2184.02 498.637C2253.81 489.964 2286.61 462.83 2290.38 410.656C2294.48 353.885 2272.41 334.412 2179.04 312.458C2128.74 300.629 2117.18 295.202 2117.26 283.454C2117.38 267.158 2129.9 259.813 2157.58 259.813C2185.26 259.813 2194.79 264.353 2201.8 280.878L2207.75 294.886L2246.08 294.921L2284.41 294.956L2281.98 281.778C2275.57 246.922 2252.53 220.038 2218.14 207.305C2196.53 199.299 2155.07 195.81 2129.64 199.851ZM921.88 210.261C855.873 227.042 817.812 301.483 831.804 386.424C840.01 436.244 862.033 469.377 898.823 487.261C933.416 504.078 981.234 499.751 1014.79 476.771C1031.69 465.198 1053.24 435.151 1057.6 417.08C1059.69 408.438 1058.97 407.416 1050.77 407.416C1043.15 407.416 1040.31 410.399 1033.92 425.121C1024.1 447.7 999.962 469.019 976.341 475.963C953.689 482.619 944.372 482.563 920.456 475.615C882.516 464.594 855.191 425.55 850.64 375.86L848.701 354.7H955.5C1020.1 354.7 1063.13 353.365 1064.41 351.316C1065.57 349.457 1064.88 334.83 1062.86 318.808C1054.45 251.934 1015.24 211.382 956.203 208.521C943.51 207.906 928.065 208.69 921.88 210.261ZM469.786 218.024C469.786 223.246 551.33 477.773 555.516 485.61C557.32 488.994 561.882 491.76 565.649 491.76C569.417 491.76 573.876 488.994 575.559 485.61C577.238 482.225 591.987 428.502 608.33 366.22C624.673 303.943 638.456 253.392 638.96 253.891C639.464 254.39 653.545 304.558 670.25 365.373C686.955 426.186 702.176 479.502 704.072 483.853C706.036 488.358 710.637 491.76 714.77 491.76C718.895 491.76 723.522 488.351 725.499 483.853C730.609 472.231 810.633 222.167 810.633 217.824C810.633 215.792 806.745 214.126 801.995 214.126C792.785 214.126 791.183 218.484 731.912 404.748C723.461 431.31 715.746 453.053 714.77 453.07C713.793 453.084 698.516 399.723 680.816 334.489C649.643 219.588 648.354 215.852 639.563 214.815C633.24 214.074 629.956 215.673 628.742 220.087C627.783 223.573 613.808 276.243 597.685 337.129C581.563 398.015 567.297 448.997 565.987 450.428C564.673 451.854 555.978 428.923 546.661 399.47C488.515 215.616 487.968 214.126 478.545 214.126C473.727 214.126 469.786 215.88 469.786 218.024ZM987.532 233.694C1015.51 245.242 1038 279.599 1043.19 318.678L1045.63 337.129H947.66C888.094 337.129 849.688 335.818 849.688 333.786C849.688 331.948 851.485 322.066 853.679 311.822C865.601 256.214 906.542 221.949 955.578 226.539C965.974 227.509 980.353 230.732 987.532 233.694ZM1581.22 271.235C1592.33 276.777 1599.72 283.872 1605.94 294.956C1613.83 309.014 1614.82 314.872 1614.82 347.672C1614.82 391.749 1607 412.392 1585.29 425.676C1568 436.254 1538.24 436.63 1520.7 426.491C1489.23 408.298 1478.45 353.038 1496.01 299.929C1506.47 268.261 1547.56 254.429 1581.22 271.235ZM1900.42 273.118C1905.42 276.773 1913.5 286.74 1918.38 295.269C1926.29 309.084 1927.26 314.788 1927.26 347.672C1927.26 380.018 1926.17 386.734 1918.38 402.084C1906.98 424.58 1891.67 433.657 1865.14 433.657C1839.31 433.657 1822.31 423.402 1811.23 401.132C1804.2 386.994 1802.99 379.174 1802.99 347.672C1802.99 314.872 1803.98 309.014 1811.87 294.956C1824.25 272.893 1845.57 262.153 1872.02 264.649C1882.82 265.668 1895.34 269.404 1900.42 273.118ZM288.708 274.749C255.27 297.343 257.688 340.755 293.388 358.784C316.707 370.557 341.994 362.84 356.327 339.575C381.859 298.126 329.045 247.495 288.708 274.749ZM1275.92 274.759C1300.45 291.129 1311 326.579 1304.22 369.858C1299.59 399.361 1292.38 413.091 1275.55 424.404C1265.14 431.408 1259.95 432.427 1240.67 431.25C1219.99 429.988 1217.01 428.769 1206.27 417.168C1191.28 400.97 1185.49 381.223 1185.4 345.914C1185.32 312.236 1195.62 287.478 1215.03 274.752C1231.64 263.854 1259.57 263.858 1275.92 274.759ZM143.912 289.899C122.62 304.66 119.822 331.217 137.543 350.36C148.137 361.803 151.752 363.486 165.712 363.486C204.427 363.486 220.759 315.181 190.115 291.323C179.261 282.874 155.118 282.129 143.912 289.899ZM11.5005 308.743C-5.52051 325.594 -1.89547 349.341 19.3613 360.221C45.3579 373.527 74.1168 348.568 64.843 320.748C57.2485 297.968 28.8446 291.579 11.5005 308.743Z" fill="currentColor"/>
</svg>
