<svg viewBox="0 0 1001 798" fill="none" xmlns="http://www.w3.org/2000/svg">
<path d="M431.438 65.0158C445.52 74.8659 482.221 82.3812 512.866 100.038C543.511 117.623 605.749 122.438 640.918 115.653C676.086 108.867 700.821 77.1278 698.632 66.2562C696.443 55.3846 673.533 68.664 618.81 58.8868C564.087 49.1097 499.441 6.79055 499.441 6.79055C499.441 6.79055 416.699 -18.6009 480.762 29.8472C544.824 78.2952 626.033 88.0724 626.033 88.0724C569.486 96.0985 498.638 58.449 485.65 43.4185C472.59 28.3879 417.283 55.1657 431.438 65.0158Z" fill="currentColor"/>
<path d="M990.634 357.966C990.634 357.966 934.379 308.57 919.275 265.448C904.172 222.326 919.567 203.283 905.85 202.115C892.133 200.948 853.754 222.326 847.114 250.782C840.474 279.238 849.741 328.562 873.381 352.129C897.021 375.696 908.331 404.517 921.391 415.243C934.452 425.969 965.024 380.439 945.615 370.808C926.134 361.177 875.351 306.6 882.429 261.143C882.429 261.143 898.846 325.424 962.762 374.018C1026.75 422.612 990.634 357.966 990.634 357.966Z" fill="currentColor"/>
<path d="M647.995 175.775C690.096 178.475 740.222 172.273 747.591 164.904C754.96 157.534 762.111 152.427 762.111 152.427C764.884 150.019 821.504 102.665 813.405 99.0171C805.233 95.3689 715.56 97.8496 683.164 120.25C650.695 142.65 605.822 173.075 647.995 175.775Z" fill="currentColor"/>
<path d="M762.914 176.359C754.158 182.707 749.853 223.129 756.128 256.473C762.33 289.891 797.28 252.022 823.036 224.661C848.792 197.299 845.728 125.649 840.62 119.374C835.513 113.099 780.206 161.474 777.434 163.882C777.506 163.882 771.669 169.938 762.914 176.359Z" fill="currentColor"/>
<path d="M329.581 156.659C343.663 166.509 380.363 174.024 411.008 191.681C441.653 209.266 503.892 214.081 539.06 207.296C574.229 200.51 598.964 168.771 596.775 157.899C594.586 147.027 571.675 160.307 516.952 150.53C462.229 140.752 397.583 98.4333 397.583 98.4333C397.583 98.4333 314.842 73.0418 378.904 121.49C442.967 169.938 524.175 179.715 524.175 179.715C467.628 187.741 396.78 150.092 383.793 135.061C370.732 120.031 315.426 146.808 329.581 156.659Z" fill="currentColor"/>
<path d="M817.491 357.091C802.387 313.969 817.783 294.925 804.065 293.758C790.348 292.59 751.969 313.969 745.329 342.425C738.69 370.881 747.956 420.204 771.596 443.772C795.237 467.339 806.546 496.16 819.607 506.886C832.667 517.611 863.239 472.082 843.831 462.451C824.349 452.819 773.567 398.242 780.644 352.786C780.644 352.786 797.061 417.067 860.977 465.661C924.894 514.255 888.777 449.536 888.777 449.536C888.777 449.536 832.521 400.212 817.491 357.091Z" fill="currentColor"/>
<path d="M660.18 244.069C662.953 241.662 719.573 194.308 711.474 190.66C703.302 187.012 613.629 189.492 581.233 211.892C548.837 234.292 503.964 264.718 546.065 267.418C588.165 270.118 638.291 263.916 645.661 256.546C653.03 249.104 660.18 244.069 660.18 244.069Z" fill="currentColor"/>
<path d="M721.178 316.304C746.935 288.942 743.87 217.292 738.763 211.017C733.655 204.742 678.348 253.117 675.576 255.525C675.576 255.525 669.739 261.581 661.056 267.929C652.373 274.276 647.995 314.699 654.27 348.043C660.472 381.461 695.422 343.665 721.178 316.304Z" fill="currentColor"/>
<path d="M218.602 251.585C232.684 261.435 269.385 268.95 300.03 286.607C330.675 304.192 392.913 309.007 428.082 302.222C463.251 295.436 487.985 263.697 485.796 252.825C483.608 241.953 460.697 255.233 405.974 245.456C351.251 235.679 286.605 193.359 286.605 193.359C286.605 193.359 203.864 167.968 267.926 216.416C331.988 264.864 413.197 274.641 413.197 274.641C356.65 282.667 285.802 245.018 272.815 229.987C259.827 214.957 204.52 241.735 218.602 251.585Z" fill="currentColor"/>
<path d="M706.513 452.017C691.409 408.895 706.804 389.851 693.087 388.684C679.37 387.517 640.991 408.895 634.351 437.351C627.711 465.807 636.978 515.131 660.618 538.698C684.259 562.265 695.568 591.086 708.628 601.812C721.689 612.537 752.261 567.008 732.853 557.377C713.371 547.746 662.588 493.168 669.666 447.712C669.666 447.712 686.083 511.993 749.999 560.587C813.916 609.181 777.798 544.462 777.798 544.462C777.798 544.462 721.616 495.138 706.513 452.017Z" fill="currentColor"/>
<path d="M549.275 338.923C552.048 336.515 608.668 289.161 600.569 285.513C592.397 281.865 502.724 284.346 470.328 306.745C437.932 329.145 393.059 359.571 435.159 362.271C477.26 364.971 527.386 358.769 534.755 351.399C542.125 344.03 549.275 338.923 549.275 338.923Z" fill="currentColor"/>
<path d="M610.273 411.23C636.029 383.868 632.965 312.218 627.857 305.943C622.75 299.668 567.443 348.043 564.671 350.451C564.671 350.451 558.833 356.507 550.151 362.855C541.468 369.203 537.09 409.625 543.365 443.042C549.64 476.46 584.517 438.591 610.273 411.23Z" fill="currentColor"/>
<path d="M110.251 351.035C124.333 360.885 161.034 368.4 191.679 386.057C222.323 403.642 284.562 408.457 319.73 401.672C354.899 394.886 379.634 363.147 377.445 352.275C375.256 341.403 352.345 354.683 297.622 344.906C242.899 335.128 178.253 292.809 178.253 292.809C178.253 292.809 95.5121 267.418 159.574 315.866C223.637 364.314 304.846 374.091 304.846 374.091C248.299 382.117 177.451 344.468 164.463 329.437C151.403 314.334 96.0958 341.111 110.251 351.035Z" fill="currentColor"/>
<path d="M598.161 551.467C583.057 508.345 598.453 489.301 584.736 488.134C571.018 486.966 532.639 508.345 526 536.801C519.36 565.257 528.626 614.58 552.267 638.148C575.907 661.715 587.216 690.536 600.277 701.262C613.337 711.987 643.909 666.458 624.501 656.827C605.02 647.195 554.237 592.618 561.314 547.162C561.314 547.162 577.731 611.443 641.648 660.037C705.564 708.631 669.447 643.912 669.447 643.912C669.447 643.912 613.265 594.588 598.161 551.467Z" fill="currentColor"/>
<path d="M492.144 384.963C483.972 381.315 394.3 383.795 361.904 406.195C329.508 428.595 284.635 459.021 326.735 461.721C368.835 464.421 418.961 458.219 426.331 450.849C433.7 443.48 440.851 438.372 440.851 438.372C443.696 435.965 500.316 388.611 492.144 384.963Z" fill="currentColor"/>
<path d="M501.849 510.607C527.605 483.245 524.54 411.595 519.433 405.32C514.325 399.045 459.019 447.42 456.246 449.828C456.246 449.828 450.409 455.884 441.726 462.232C432.971 468.58 428.666 509.002 434.941 542.346C441.216 575.837 476.092 537.968 501.849 510.607Z" fill="currentColor"/>
<path d="M270.334 446.69C268.145 435.819 245.234 449.098 190.511 439.321C135.788 429.544 71.1422 387.225 71.1422 387.225C71.1422 387.225 -11.599 361.833 52.4634 410.281C116.526 458.729 197.735 468.507 197.735 468.507C141.188 476.533 70.3396 438.883 57.352 423.853C44.2914 408.749 -11.0153 435.6 3.06677 445.45C17.1488 455.3 53.8497 462.815 84.4946 480.473C115.139 498.057 177.378 502.873 212.546 496.087C247.788 489.301 272.523 457.562 270.334 446.69Z" fill="currentColor"/>
<path d="M490.977 645.882C475.873 602.76 491.269 583.717 477.552 582.549C463.834 581.382 425.455 602.76 418.816 631.216C412.176 659.672 421.442 708.996 445.083 732.563C468.723 756.131 480.032 784.951 493.093 795.677C506.153 806.403 536.725 760.873 517.317 751.315C497.836 741.684 447.053 687.107 454.13 641.65C454.13 641.65 470.547 705.931 534.463 754.525C598.38 803.119 562.263 738.4 562.263 738.4C562.263 738.4 506.08 689.004 490.977 645.882Z" fill="currentColor"/>
<path d="M385.033 479.378C376.861 475.73 287.188 478.211 254.792 500.611C222.396 523.011 177.524 553.437 219.624 556.136C261.724 558.836 311.85 552.634 319.22 545.265C326.589 537.895 333.739 532.788 333.739 532.788C336.512 530.453 393.205 483.026 385.033 479.378Z" fill="currentColor"/>
<path d="M349.135 544.316C349.135 544.316 343.298 550.372 334.615 556.72C325.859 563.068 321.555 603.49 327.829 636.834C334.031 670.252 368.981 632.384 394.737 605.022C420.494 577.661 417.429 506.01 412.322 499.735C407.287 493.533 351.98 541.908 349.135 544.316Z" fill="currentColor"/>
</svg>
