<svg viewBox="0 0 1001 1143" fill="none" xmlns="http://www.w3.org/2000/svg">
<path d="M304.974 940.529L287.613 826.85L136.069 823.957L97.1289 860.747L246.936 869.924C246.936 869.924 259.172 973.185 256.775 983.106C262.397 977.154 304.974 940.529 304.974 940.529Z" fill="currentColor"/>
<path d="M256.94 983.106C256.692 983.354 256.527 983.602 256.444 983.685C254.046 980.461 215.024 928.293 191.792 936.477C167.816 944.91 156.82 928.541 128.959 933.666C101.097 938.792 123.254 969.63 110.44 992.531C97.625 1015.43 148.057 1001.38 131.687 1040.32C115.317 1079.34 141.277 1061.56 141.525 1092.9C141.773 1124.23 175.174 1157.55 183.359 1121.09C191.627 1084.63 224.449 1125.8 225.441 1088.19C226.433 1050.65 321.923 1041.89 271.077 1031.22C220.232 1020.56 283.148 1002.78 256.444 983.685C256.692 983.768 256.857 983.52 256.94 983.106Z" fill="currentColor"/>
<path d="M916.275 587.671C919.334 569.73 874.358 568.656 852.367 554.022C879.732 543.357 904.783 524.507 922.145 552.203C943.558 586.348 962.242 636.449 972.825 603.214C983.407 569.978 944.219 559.561 974.395 514.007C1004.57 468.453 1010.69 452.58 983.242 434.226C955.793 415.872 1021.44 343.448 968.856 349.484C916.275 355.519 912.141 314.181 888 338.901C863.941 363.621 878.162 332.535 847.654 298.225C817.065 263.832 815.99 260.525 808.218 301.78C800.447 343.035 837.485 383.546 799.785 402.644C799.785 402.644 859.808 408.1 835.17 441.666C810.533 475.15 807.888 468.288 817.065 496.315C821.942 511.279 816.403 529.633 815.411 542.696C810.202 546.416 804.415 551.624 797.222 557.329C785.4 566.754 774.9 567.333 767.294 565.762C765.558 538.396 758.365 451.009 758.365 451.009L731.496 487.717L731.413 597.344C725.212 614.788 750.098 628.512 740.011 642.898C729.925 657.283 726.618 643.063 709.835 655.712C693.052 668.362 697.682 667.039 684.288 654.555C683.379 653.646 682.387 652.984 681.56 652.488C680.237 630.91 675.194 568.573 673.292 545.672L712.894 494.661L703.8 416.533C712.067 416.781 721.244 416.864 725.708 414.053C734.472 408.431 717.358 395.203 717.854 377.263C718.35 359.322 703.965 377.345 684.619 372.302C672.714 369.243 669.159 379.329 666.017 388.176L577.472 395.451L650.887 331.295L745.302 340.885L758.117 451.009L799.62 402.644L783.994 308.807L674.698 300.127C687.678 299.382 705.949 294.918 721.409 292.107C753.405 286.402 771.262 307.733 773.081 278.714C774.9 249.695 790.278 253.002 821.86 231.175C853.524 209.349 798.463 191.243 787.053 170.74C775.644 150.236 763.078 204.471 779.695 225.471C796.313 246.47 738.11 253.911 716.78 236.384C695.449 218.857 697.599 253.002 697.599 253.002C697.599 253.002 557.878 269.123 556.059 270.115L557.795 227.372C566.228 229.522 580.448 230.183 571.767 206.208C559.697 173.137 591.113 184.877 570.196 153.791C549.28 122.706 598.389 58.6324 529.52 85.0884C460.652 111.544 436.18 66.3212 422.208 106.915C408.236 147.508 391.287 128.906 377.646 166.11C364.087 203.314 304.809 112.95 275.79 135.686C246.854 158.421 197.662 111.71 208.327 179.255C219.075 246.801 263.885 260.029 213.122 269.702C162.36 279.375 295.632 301.78 276.121 319.142C256.61 336.504 259.669 304.591 241.645 346.342C223.622 388.093 193.28 355.85 179.06 386.853C164.84 417.939 145.99 443.733 128.959 470.768C111.928 497.72 86.8774 430.34 63.6457 466.304C40.414 502.267 87.7042 507.724 71.0865 541.373C54.4688 574.939 -9.52182 567.167 2.21805 600.072C13.9579 632.977 86.464 558.321 89.6884 599.163C92.9954 640.004 148.305 645.543 127.884 659.681C107.464 673.818 118.377 700.522 127.223 696.554C135.986 692.586 134.994 705.152 146.404 703.499C144.585 704.491 115.648 740.868 115.648 740.868L237.512 719.042L188.816 770.052L338.458 761.867L344.328 890.345L321.84 921.1L321.758 1040.81L397.488 1041.97C397.488 1041.97 390.461 1041.89 395.008 1060.08C399.555 1078.27 453.459 1064.05 456.849 1107.04C460.238 1150.11 486.612 1143.08 534.233 1140.35C581.854 1137.63 612.94 1125.31 652.872 1119.02C692.804 1112.74 694.292 1064.21 713.886 1008.74C733.563 953.26 783.746 969.961 802.596 936.477C821.446 902.994 711.571 920.438 729.76 893.404C747.948 866.369 720.913 826.85 756.96 813.953C793.006 801.055 766.137 781.379 812.352 784.107C858.567 786.918 859.642 759.304 901.228 754.509C942.814 749.714 880.063 712.345 892.134 688.535C904.204 664.724 948.353 689.692 981.505 674.81C1014.49 659.764 912.802 607.761 916.275 587.671ZM507.529 247.214C516.044 244.238 523.32 241.179 529.52 238.286C527.205 260.112 522.079 311.784 525.469 307.567L661.47 283.178C656.096 292.603 657.584 297.316 663.206 299.217L636.585 297.15L589.873 346.094C549.114 350.806 477.022 359.322 475.781 360.066L476.691 280.615C488.679 272.761 478.014 257.632 507.529 247.214ZM418.322 335.264C439.983 330.964 447.506 323.937 447.506 323.937L444.944 397.518L560.689 376.766L514.225 425.462C473.549 430.175 400.712 438.773 399.472 439.434L397.736 373.542C397.653 373.542 396.661 339.48 418.322 335.264ZM440.892 500.945C438.247 478.788 447.589 465.973 459.825 471.76C461.809 472.67 464.042 473.414 466.522 473.992L440.892 500.945ZM324.486 436.293C338.375 436.293 356.729 430.505 366.733 425.131L368.634 476.803L427.251 466.304C417.661 482.26 394.842 470.851 403.193 488.543C407.161 496.893 416.917 508.551 426.011 516.653L419.066 523.928C378.969 528.558 303.238 537.487 301.916 538.231L301.502 470.52C305.884 455.969 311.919 436.293 324.486 436.293ZM266.448 510.7L265.456 511.94L271.078 575.6L390.047 554.27L355.572 590.482C314.317 595.277 246.358 603.296 245.035 603.958L236.023 558.486C238.669 549.888 239.496 541.538 236.685 537.983C231.146 531.204 251.318 514.834 266.448 510.7ZM174.844 651.744C149.132 628.512 181.871 592.714 202.623 582.297C205.186 598.253 212.626 643.394 214.197 641.41L350.198 617.021L370.371 600.237L494.466 593.458L500.501 726.069L478.096 756.742L478.014 872.156C468.506 888.36 475.864 908.616 450.979 904.151C451.723 902.581 443.786 805.768 442.05 785.099L476.856 744.506L461.231 650.752L313.738 639.095L273.723 681.094C271.739 670.015 283.066 660.425 269.342 657.449C252.889 653.811 263.389 646.04 245.448 652.323C227.508 658.606 211.221 640.335 219.819 656.87C228.417 673.405 235.775 677.621 233.047 682.665C230.319 687.708 258.18 684.649 254.46 690.353C216.76 694.735 159.632 701.515 148.47 703.168C162.691 699.861 207.004 680.68 174.844 651.744ZM497.69 978.228C492.068 996.251 446.845 956.898 429.401 979.882C425.598 984.842 423.448 988.976 422.208 992.366L357.969 1007.16C358.631 1005.68 350.942 911.509 349.123 889.105L389.882 836.606L379.3 742.852C385.748 738.801 392.031 731.856 394.594 722.597C400.63 700.688 405.756 710.939 404.846 700.192C404.019 689.444 395.008 715.321 373.512 713.502C361.855 712.51 359.044 720.943 358.796 728.88L254.708 737.396L328.124 673.24L422.704 682.747L435.188 790.308L414.933 817.921L414.85 937.635C405.921 956.154 503.312 960.205 497.69 978.228ZM599.298 747.895C603.515 743.927 606.574 740.951 606.822 740.455C607.648 738.718 597.562 617.599 597.562 617.599L570.693 654.307L570.61 771.871C567.303 778.237 565.401 785.512 565.732 793.863C566.641 817.094 530.347 845.7 514.308 842.806C515.052 841.153 506.041 731.36 505.131 720.778L545.973 668.196L533.571 558.9L410.799 568.904L484.214 504.748L578.712 514.338L591.444 624.461L632.947 576.096L617.321 482.343L499.84 473C501.824 471.926 502.32 470.52 500.501 468.949C496.45 465.56 488.431 460.516 481.569 456.548L504.552 452.414L535.39 426.785L661.139 419.923L662.875 458.201C650.887 446.296 637.411 434.639 635.593 439.186C632.534 446.792 662.545 452.249 651.135 467.709C639.726 483.169 639.148 496.315 649.234 499.704C655.848 501.937 660.643 508.799 665.19 509.625L666.761 544.514L645.266 573.864L645.183 684.649C634.931 695.397 644.273 703.168 648.242 724.746C652.706 748.143 617.817 740.785 599.298 747.895Z" fill="currentColor"/>
<path d="M609.054 160.075C604.341 197.361 600.208 220.924 621.124 211.085C642.041 201.247 630.797 192.98 661.635 188.763C692.556 184.547 696.441 185.87 684.867 161.976C673.292 138.083 701.733 98.8952 682.883 89.4703C664.033 80.0453 649.317 -9.8226 639.974 1.99995C630.632 13.8225 661.056 28.1253 636.75 45.8178C612.443 63.5103 600.125 48.298 603.597 69.4629C606.987 90.6277 560.854 98.2338 584.913 121.962C584.995 121.962 613.766 122.706 609.054 160.075Z" fill="currentColor"/>
<path d="M923.716 788.406C898.417 780.469 895.772 753.435 882.874 784.024C869.977 814.697 882.296 819.244 862.784 820.236C836.163 821.559 814.915 800.89 802.349 815.606C789.782 830.322 787.633 832.472 795.569 850.661C803.423 868.849 796.561 850.991 846.084 856.613C895.606 862.318 914.539 848.759 901.89 833.464C889.158 818.252 949.014 796.343 923.716 788.406Z" fill="currentColor"/>
<path d="M969.766 804.114C946.286 804.032 938.349 794.359 930.826 810.646C923.385 826.933 937.77 823.212 941.574 837.763C945.294 852.314 990.104 860.664 981.258 839.665C972.329 818.665 1001.6 804.197 969.766 804.114Z" fill="currentColor"/>
</svg>
