<svg version="1.0" xmlns="http://www.w3.org/2000/svg" viewBox="0 0 1172 1659">
    <g fill="currentColor">
        <path
            d="M143.7 51.6c-.8.8.1 2.4 1.4 2.4.5 0 .9-.7.9-1.5 0-1.5-1.2-2-2.3-.9zM124 58c0 .5.5 1 1 1 .6 0 1-.5 1-1 0-.6-.4-1-1-1-.5 0-1 .4-1 1zM120.5 71.1c-1 1.5.3 2.5 1.6 1.2.7-.7.7-1.3.1-1.7-.6-.3-1.4-.1-1.7.5zM261.6 92.9c-.4.5-.2 1.2.3 1.5.5.4 1.2.2 1.5-.3.4-.5.2-1.2-.3-1.5-.5-.4-1.2-.2-1.5.3zM18.3 98.6c-.3.8-.1 2 .5 2.6 1.6 1.6 4.2.2 4.2-2.2s-3.8-2.8-4.7-.4zM176.4 99.1c-.8 1.4 1.1 3.3 2.5 2.5 1.1-.7.4-3.6-.9-3.6-.5 0-1.2.5-1.6 1.1zM261.7 104.1c-1.5 1.1-3.2 3.8-3.8 5.9-1.6 5.4.6 9 5.6 9 4.2 0 4.6-.6 5.3-8.2.4-5.2.2-6.3-1.3-7.5-2.4-1.7-2.8-1.7-5.8.8zM248.3 107.5c-.7 2 .2 2.9 2.1 2.2.9-.4 1.3-1.3 1-2.2-.8-1.9-2.3-1.9-3.1 0zM277.4 110.4c-1 4.3.3 7.6 3.1 7.6 1.8 0 2.6-.7 3.1-2.4 1.1-4.5.1-7.1-2.8-7.4-2.2-.3-2.9.2-3.4 2.2zM45.2 110.2c-2.6 2.6-.4 5.4 3 3.7 1-.6 1.4-1.6 1.1-2.9-.6-2.3-2.3-2.6-4.1-.8zM64 110.1c0 .5.5.7 1 .4.6-.3 1-.8 1-1.1 0-.2-.4-.4-1-.4-.5 0-1 .5-1 1.1zM61 116c-4.6 4.6-.7 10.9 4.4 6.9 3-2.3 3.3-5 1-7.3-2-2.1-3-2-5.4.4zM25.3 122.7c-.3 1-.8 2.1-1 2.5-.4.8 2.5 3.8 3.7 3.8 1.6 0 4.1-4.6 3.4-6.4-.8-2.2-5.3-2.1-6.1.1zM173.7 121.7c-1.1 1-.8 4.1.5 4.9 1.4.9 3.8-2.3 3.1-4.2-.5-1.5-2.5-1.9-3.6-.7zM10.4 124.4c-.8 2.1.3 3.6 2.7 3.6 1.5 0 2-.6 1.7-2.2-.4-2.7-3.5-3.7-4.4-1.4zM260.3 125.5c-2.8 2-3.6 6.8-1.8 11.1 1.5 3.7 3.5 4.3 5.9 1.8 3.4-3.3 3.4-10.8.1-13-1.8-1.2-2.4-1.1-4.2.1zM242 127.3c-3.4 1.7-3.8 5.2-.7 7.2 3.2 2.1 7.4.6 8.3-3 1.2-4.7-2.5-6.8-7.6-4.2zM214.3 133.6c-.3.8-.1 2 .5 2.6 1.6 1.6 4.2.2 4.2-2.2s-3.8-2.8-4.7-.4zM59 134.1c0 .5.5.7 1 .4.6-.3 1-.8 1-1.1 0-.2-.4-.4-1-.4-.5 0-1 .5-1 1.1zM5.6 137.8c-.8 1.6-1.8 5.1-2.2 7.9-.5 4.3-.3 5.3 1.8 7.8 2 2.2 3 2.7 5.1 2.1 3.3-.8 4.2-3.6 2.3-8-1.1-2.7-1.2-4.2-.4-6.4 1.5-3.8.5-6.2-2.6-6.2-1.8 0-3 .9-4 2.8zM279.2 140.6c.4 2.1 2.2 2.3 2.6.1.2-1-.3-1.7-1.3-1.7s-1.5.6-1.3 1.6zM55.5 142.5c-2.9 2.8-3.1 3.8-.9 5.9 2 2 4.3 2 7.2 0 2.7-1.9 2.9-6 .3-7.4-2.9-1.5-3.9-1.3-6.6 1.5zM215 144c0 1.5.5 2 1.8 1.8.9-.2 1.7-1 1.7-1.8s-.8-1.6-1.7-1.8c-1.3-.2-1.8.3-1.8 1.8zM38.5 146.4c-2 2.9-1.7 5.5.7 7s4.9-1.2 5.1-5.5c.2-2.8-.2-3.5-2-3.7-1.4-.2-2.7.5-3.8 2.2zM21.5 147c-3.5 3.8-1.6 10 3.2 10 2.6 0 7.3-4 7.3-6.3 0-2-4.3-5.7-6.7-5.7-1.1 0-2.8.9-3.8 2zM244.6 153.2c-3.4 5.3-3.2 11.9.4 13.8 1.5.8 2.4.6 4-1 2.6-2.6 2.9-13.4.4-14.4s-3.3-.7-4.8 1.6zM149 158.5c-1 1.2-.9 1.6.3 2.1 1.7.6 3.7-.2 3.7-1.6 0-1.5-2.9-1.9-4-.5zM215.5 158.1c-1 1.5.3 2.5 1.6 1.2.7-.7.7-1.3.1-1.7-.6-.3-1.4-.1-1.7.5zM55.3 159c-2.4 1-3 2.5-4.2 10.2-1.2 7-.1 8.8 4.8 8.8 2.1 0 4.3-.6 4.9-1.3 1.6-2 .9-16.6-.8-17.7-1.8-1.1-1.9-1.1-4.7 0zM37.1 162.8c-1.8 1.4-2.3 3.1-2.8 9.3-.5 7.2-.4 7.8 1.7 8.9 2.9 1.6 6.6.5 8.6-2.4 2.7-4.2-.8-17.6-4.7-17.6-.4 0-1.7.8-2.8 1.8zM23.3 164c-1.2.5-2.6 1.7-3.1 2.7-1.6 3-2.4 14.1-1.2 16.3 2.6 4.8 12.3.4 12.1-5.5-.1-1.7-.2-5.1-.1-7.7 0-3.7-.5-5-1.9-5.8-2.3-1.2-2.9-1.2-5.8 0zM2.7 165.3c-.8 2.1.8 3.9 2.9 3.5 2.7-.5 2.5-4.2-.2-4.6-1.2-.2-2.4.3-2.7 1.1zM150.5 166.3c-1 .8-1.6 2.3-1.3 3.8.2 1.9.9 2.4 3.3 2.4 2.5 0 3.1-.4 3.3-2.7.4-3.4-2.6-5.4-5.3-3.5zM95 168c-.7.4-1.5 3-1.7 5.7-.4 3.8-.1 5.3 1.5 7.3 1.7 2.1 2.2 2.2 3.6 1.1 2.6-2.2 1.9-13.4-.8-14.4-.7-.3-1.9-.2-2.6.3zM131 169.3c-2.9 1.5-4.1 7.1-1.7 8 2.3.9 8.2-2.5 8.2-4.7 0-3-3.5-4.8-6.5-3.3zM246 176.5c-1.5 1.8-.6 6.1 1.6 6.9 1.9.7 3.1.1 4.4-2.4.8-1.5.6-2.4-1-4-2.4-2.4-3.3-2.5-5-.5zM3.3 178.7c-2.1.8-1.4 4.2 1.2 5.9 1.4.9 3.2 1.4 4 1 2.2-.8 1.8-4.3-.7-6-2.4-1.7-2.6-1.7-4.5-.9zM223.3 183.6c-.3.8-.1 2 .5 2.6 1.5 1.5 4.3-.8 3.5-2.8-.7-1.9-3.2-1.8-4 .2zM143.4 184.1c-.7 1.2 1.5 3.1 3.1 2.6.6-.2 1.1-1.1 1.3-2 .4-1.9-3.2-2.4-4.4-.6zM135.1 186c-1.8 1.1-.9 4.4 1.3 4.8 1 .2 2.2-.2 2.6-.9 1.6-2.5-1.4-5.5-3.9-3.9zM250.7 187.6c-1.4 1.4-.7 3.5 1.1 3.2.9-.2 1.7-1 1.7-1.7 0-1.6-1.8-2.5-2.8-1.5zM54.1 190.2c-.9 2.5.3 4.8 2.5 4.8 2.1 0 6.8-4.5 6-5.8-.4-.7-2.3-1.2-4.2-1.2-2.7 0-3.7.5-4.3 2.2zM239 192.1c0 .5.5.7 1 .4.6-.3 1-.8 1-1.1 0-.2-.4-.4-1-.4-.5 0-1 .5-1 1.1zM2.1 193.9c-1.6 1.6-2.1 3.4-2.1 7 0 10.6 6.1 17.8 12 14.2 2.4-1.6 1.7-7.5-1.3-11-1.5-1.8-2.7-4.5-2.7-6s-.9-3.6-1.9-4.5c-1.8-1.7-2-1.7-4 .3zM21.8 193.1c-2 1.1-2.4 5.4-.7 6.4 3.4 2.2 8.4-3 5.9-6-1.4-1.7-2.8-1.8-5.2-.4zM202 193.1c0 .5.5.7 1 .4.6-.3 1-.8 1-1.1 0-.2-.4-.4-1-.4-.5 0-1 .5-1 1.1zM224.5 193c-.4.7-.3 1.6.3 2.2 1.4 1.4 4.5.2 4-1.5-.6-1.6-3.4-2.1-4.3-.7zM38.2 194.2c-3 3 0 13.3 4.2 14.4 3.9.9 4.9-.3 4.4-5.7-.8-7.9-5.1-12.2-8.6-8.7zM96.4 195.4c-.9 2.4.4 4.8 2.3 4.4 1.2-.2 1.8-1.2 1.8-2.8 0-2.9-3.2-4.1-4.1-1.6zM52.7 198.3c-4.4 3.5-1.6 10.6 3.7 9.3 3.3-.8 4.2-2.9 2.8-6.1-1.5-3.3-4.5-4.8-6.5-3.2zM138.7 197.7c-1.2 1.1-.8 2.3.8 2.3.8 0 1.5-.7 1.5-1.5 0-1.6-1.2-2-2.3-.8zM268.6 198.6c-2.2 2.2-2 4.8.8 8.1 2.1 2.4 2.6 2.6 5 1.5 3.3-1.5 3.6-6.2.6-9.2-2.4-2.4-4.3-2.5-6.4-.4zM177.4 199.5c-.8 2 .4 3.5 2.6 3.5 2.3 0 3.2-1.3 2.4-3.4-.8-2-4.3-2.1-5-.1zM247.5 201c-3.2 1.2-4.7 3.6-4.3 6.7.3 2.5.8 2.8 4.1 3.1 4.8.4 8.7-2 8.7-5.2 0-3.8-4.6-6.2-8.5-4.6zM86.7 202.7c-1.4 1.3-.7 3.3 1.1 3.3 2.4 0 3.2-.8 2.5-2.6-.5-1.5-2.5-1.9-3.6-.7zM192 203.9c-2.1 3.9 2.4 8.5 5.4 5.5 1.9-1.8 2-2.8.6-5.5-1.4-2.5-4.6-2.5-6 0zM23.6 203.9c-.4.5-.2 1.2.3 1.5.5.4 1.2.2 1.5-.3.4-.5.2-1.2-.3-1.5-.5-.4-1.2-.2-1.5.3zM95.4 206.4c-.9 2.4 1.5 5.8 3.9 5.4 1.7-.2 2.2-1 2.2-3.3 0-2.5-.4-3-2.8-3.3-1.7-.2-2.9.2-3.3 1.2zM227.4 207.5c-.8 2.1.2 4.5 2 4.5s2.7-3.5 1.3-4.9c-1.5-1.5-2.7-1.4-3.3.4zM111.6 210.9c-1 1.6.5 4.2 2.3 3.9 2.1-.4 2.1-4.2-.1-4.6-.9-.2-1.9.1-2.2.7zM154.5 211c-.9 1.5.4 5 1.9 5 2 0 3.9-2.7 3.2-4.5-.6-1.7-4.2-2-5.1-.5zM182.6 211.7c-1.1 1.1-.6 2.3.9 2.3.8 0 1.5-.4 1.5-.9 0-1.3-1.6-2.2-2.4-1.4zM272.7 211.7c-.4.3-.7 1.4-.7 2.4 0 2.4 3 3.3 4.9 1.4 1.5-1.5 1.4-1.8-.3-3.1-2.2-1.6-3-1.7-3.9-.7zM131.2 216.1c-2.6 1.7-3 2.4-2.1 3.5.6.8 2 1.4 3.1 1.4 3.3 0 3.3 2.9-.1 6-3.6 3.3-3.7 3.7-1.5 6.9 1.4 2 2.2 2.2 5.6 1.7 2.2-.4 5.4-1.4 7-2.2 2-1 4.2-1.4 6.4-.9 5.9 1.1 12.1-3.5 11-8-.8-3.2-4.2-4-8.9-2-4.5 1.9-4.8 1.7-8.7-4.1-3.6-5.1-6.5-5.7-11.8-2.3zM285.4 215.5c-.4.9-.2 2.1.4 2.7 1.5 1.5 4.4.1 4-1.9-.4-2.3-3.6-2.9-4.4-.8zM247.4 217.5c-.4.9-.2 2.1.4 2.7 1.5 1.5 4.4.1 4-1.9-.4-2.3-3.6-2.9-4.4-.8zM55.2 218.7c.4 2.2 4.3 2.5 4.3.3 0-.8-1.1-1.6-2.3-1.8-1.9-.3-2.3 0-2 1.5zM41.4 221.4c-1 2.6.4 4.8 2.8 4.4 1.7-.2 2.3-1 2.3-2.8s-.6-2.6-2.3-2.8c-1.3-.2-2.5.3-2.8 1.2zM97.2 222.2c-1.8 1.8-1.4 4.5 1 6.2 4.2 3 7.9-2.1 4.2-5.8-1.9-1.9-3.6-2-5.2-.4zM25.2 223c-1.2.5-2.6 2-3.1 3.2-.8 2.3 0 13.4 1.3 17.5 1.5 4.8 9.7 3.8 11.7-1.4.8-2.1.6-4.2-.5-8.4-.9-3-1.6-6.5-1.6-7.7s-.9-2.6-1.9-3.2c-2.3-1.2-2.8-1.2-5.9 0zM3.4 225.5c-1.3 2-1.5 3.8-1 8.2.8 7.1 3.2 11.3 7.2 12.9 6.9 2.8 10.1-4.6 4.4-10.1-2.7-2.6-3-3.5-2.8-7.9.3-5.1.3-5.1-2.9-5.4-2.5-.3-3.5.2-4.9 2.3zM275.4 226.5c-.6 1.4 1.7 7.9 4.8 14.2 1.3 2.6 5.8 3.2 5.8.8 0-.8-.9-3.2-2-5.2-1.1-2.1-2-4.6-2-5.6 0-4.7-5.2-8-6.6-4.2zM65.7 228.3c-.8 2 .9 4.1 2.7 3.4 2.3-.9 2.1-4.7-.3-4.7-1 0-2.1.6-2.4 1.3zM287.3 229.6c-.6 1.7 2.6 8.5 6.4 13.2 1.7 2.1 2.4 2.4 3.4 1.5 1.3-1.3.4-5.2-2.9-12.3-1.9-3.9-5.8-5.3-6.9-2.4zM59 232.9c0 1.2.6 2.1 1.6 2.1.9 0 1.4-.7 1.2-1.7-.5-2.5-2.8-2.8-2.8-.4zM99.3 233.6c-.8 2.2.9 4.8 3.4 5.2s3.3-1.5 2.2-4.6c-1-2.6-4.7-3-5.6-.6zM39 235c-1.4 2.6.3 6 3.1 6 2.4 0 4.1-3.8 2.7-6.3-1.2-2.3-4.5-2.2-5.8.3zM86 235c0 .5.5 1 1 1 .6 0 1-.5 1-1 0-.6-.4-1-1-1-.5 0-1 .4-1 1zM112.4 238.4c-.9 2.4.4 4.8 2.3 4.4 1.2-.2 1.8-1.2 1.8-2.8 0-2.9-3.2-4.1-4.1-1.6zM154.3 238.5c-1.8.8-3.8 2.6-4.5 4.1-1.1 2.4-1 2.8 2 5.3 1.9 1.5 3.4 3.9 3.8 5.9 1.1 5.7 7.6 6.8 10.9 1.8 1.4-2 1.4-2.7 0-6.6-.8-2.3-1.5-5.3-1.5-6.5 0-4.3-5.5-6.4-10.7-4zM252 243c-2.4 4.5 3.7 8.2 7.4 4.4 1.9-1.8 1.9-2 .6-4.5-1.5-2.6-6.6-2.6-8 .1zM144 245.5c-1.3 1.6-.6 3.5 1.4 3.5.8 0 1.9-.6 2.5-1.4 1-1.2.8-1.7-.7-2.5s-2.3-.7-3.2.4zM133.7 246.7c-1.2 1.1-.7 5 .7 6.2 1.9 1.6 5.6-.2 5.6-2.7 0-3.2-4.3-5.6-6.3-3.5zM67.4 248.5c-.4.9 0 2.3.8 3.1 2 2 5 .7 4.6-2-.4-2.6-4.5-3.5-5.4-1.1zM87.3 250.5c-.9 2.4.2 10.6 1.8 14 1 2.2 2.4 3.1 4.9 3.6 1.9.4 5 1.3 6.8 2 2.8 1.2 3.4 1.2 4.2-.1.5-.8 1-2.1 1-2.8 0-2-3.8-5.2-6.3-5.2-3 0-5-2.2-7.6-8.3-2.1-4.8-3.7-5.9-4.8-3.2zM284.1 253c-10.4 1.6-8.2 10 2.6 10 5.9 0 7.9-1.9 6.7-6.5-.5-2.1-3.4-4.8-4.6-4.4-.2.1-2.3.5-4.7.9zM43.3 254.6c-.8 2.1 1.3 4.2 2.8 2.7 1.3-1.3.5-4.3-1.1-4.3-.6 0-1.3.7-1.7 1.6zM102.4 254.1c-.3.6-.2 1.5.2 1.9 1.2 1.2 3.8-.5 3-1.9-.9-1.4-2.3-1.4-3.2 0zM27.9 256.1c-1.5 1.5-1.9 2.9-1.6 4.7 2.9 14.1 4.5 17.9 8.3 18.8 3 .8 6.4-1.9 6.4-5.1 0-3.1-4-17.7-5.2-19.2-1.6-2-5.6-1.5-7.9.8zM142.4 256.5c-.8 2.1.4 3.5 3 3.5 2.9 0 3.5-.6 2.9-3.1-.6-2.3-5.1-2.6-5.9-.4zM12.4 257.5c-.8 1.9.3 3.5 2.6 3.5 2.2 0 3.3-2.3 1.7-3.9-1.5-1.5-3.7-1.4-4.3.4zM257.8 257.6c-3.8 2-3.6 5.3.5 10.8 1.7 2.4 4 5.7 4.9 7.5 2 3.7 5.7 4.2 8.8 1.1 2.6-2.6 2.6-3.1-1.2-10.9-5.1-10.6-7-11.8-13-8.5zM70.5 258.1c-.4.5-.4 2.1-.1 3.5.5 1.7 1.3 2.4 3.1 2.4 2.4 0 3-.9 2.5-4-.4-2.7-4.2-4-5.5-1.9zM45.8 263.7c-3.7.9-3.5 9.3.2 11.3 4.2 2.3 8.5-3.3 6.1-7.9-1.4-2.5-4-3.9-6.3-3.4zM179.6 264.6c-1.9 1.9-2 2.6-.4 4.2 1.8 1.8 4.6 1.4 5.8-.7.7-1.5.6-2.3-.6-3.5-1.9-2-2.9-2-4.8 0zM283.7 267.7c-1.4 1.3-.6 3.3 1.3 3.3 1.1 0 2-.4 2-.9 0-1.3-2.6-3.2-3.3-2.4zM193.6 268.9c-1 1.6.5 4.1 2.4 4.1 2.5 0 3.5-1.8 2-3.5-1.4-1.7-3.6-2-4.4-.6zM117.3 270.6c-.8 2.2 1 4.9 3.3 4.9 2.2 0 3.1-3 1.4-5-1.6-2-3.9-1.9-4.7.1zM162.6 271.7c-.9 2.2 2.5 5.6 4.7 4.7.9-.3 1.7-1.4 1.7-2.3 0-3.7-5.2-5.7-6.4-2.4zM209 274c0 .5.5 1 1.1 1 .5 0 .7-.5.4-1-.3-.6-.8-1-1.1-1-.2 0-.4.4-.4 1zM14 276.9c0 1.5.6 2.1 2.1 2.1 1.4 0 1.9-.5 1.7-1.7-.5-2.6-3.8-2.9-3.8-.4zM142.2 277.2c-1.7 1.7-1.5 3.5.5 4.2 2.1.8 4.8-1.7 4-3.8-.8-1.9-2.8-2.1-4.5-.4zM152 277c0 .5.5 1 1 1 .6 0 1-.5 1-1 0-.6-.4-1-1-1-.5 0-1 .4-1 1zM92.9 280.6c-1.9 2.3.8 6.9 4.1 6.9 3.1 0 3.9-3.8 1.4-6.6-2.1-2.3-3.7-2.4-5.5-.3zM165.6 280.1c-2.1.5-6.4 2.2-9.5 3.8s-6.9 3.3-8.6 3.8c-2.4.7-3.1 1.5-3.3 4-.3 2.5.2 3.5 2.2 4.9 2.3 1.5 2.8 1.5 4.9.1 2.2-1.4 7-2.4 15.5-3.1 4.8-.4 11.9-4.8 13.5-8.4.8-1.8.7-2.6-.5-3.8-2-2-9-2.6-14.2-1.3zM66 282.9c-1.2 2.3-.5 4.7 1.7 5.5 3.3 1.3 5.7-3.6 3.1-6.2-1.8-1.8-3.6-1.5-4.8.7zM289.1 283.3c-1.6 1.6-1.4 4.2.7 6.7 3.3 4.1 6.9 0 4.2-4.9-1.2-2.4-3.5-3.2-4.9-1.8zM301 283c0 .5.5 1 1.1 1 .5 0 .7-.5.4-1-.3-.6-.8-1-1.1-1-.2 0-.4.4-.4 1zM311 285.4c0 2.8 2.2 4.9 4.7 4.4 4-.7 1.5-6.8-2.8-6.8-1.3 0-1.9.7-1.9 2.4zM200.3 284.7c-1.7.6-1.6 4.4 0 6.7 3.1 4.2 7.3-.6 4.7-5.3-1.1-2.1-2.3-2.4-4.7-1.4zM271.7 285.2c-.9.7-2.1 2.6-2.7 4.1-1.4 3.8.7 8.1 7.3 15.3 5.6 6.1 9 7.1 10.9 2.9.9-2.1.6-3.5-2-9.3-1.8-3.8-3.2-7.3-3.2-7.9s-.9-2.2-2.1-3.7c-2.2-2.8-5.5-3.4-8.2-1.4zM39 286.3c-1.4.7-3.1 2.5-3.8 4-1.5 3.1-4.7 4.7-9.4 4.7-4 0-7.1 2.6-5.8 4.9 1.9 3.6 13.5 5.2 19.3 2.7 1.1-.5 1.7-.4 1.7.3s-1.6 1.8-3.4 2.6c-4.8 2-5.8 4.2-3.9 8 2.4 4.7 6.4 8.5 9.1 8.5 3.5 0 19.1-7 20.2-9.1 2.4-4.3.1-13.3-4.1-16.2-1.6-1.2-3.5-1.4-6.4-1l-4.2.5-1.4-4.2c-1.8-5.5-4.5-7.4-7.9-5.7zM212.2 289.2c-.7.7-1.2 2.2-1.2 3.4 0 2.8 5.3 4.8 10.4 3.9 7.3-1.4 7.2-6-.2-6.8-2.6-.2-5.4-.7-6.2-1.1-.9-.4-2.1-.1-2.8.6z">
        </path>
        <path
            d="M51 292c0 .5.5 1 1 1 .6 0 1-.5 1-1 0-.6-.4-1-1-1-.5 0-1 .4-1 1zM69.7 293.1c-2.4 1.4-2.3 7.5.2 8.9 2.8 1.5 3.9 1.3 5.1-1 2.3-4.2-1.5-10-5.3-7.9zM79.1 294.9c-1.5 1-.8 4.1.9 4.1 1.5 0 2.5-2.9 1.4-4-.5-.5-1.5-.5-2.3-.1zM98.7 294.6c-1.2 1.2-.8 4.1.9 5.4 2.2 1.9 5.4-1.2 3.8-3.8-1.2-1.9-3.6-2.7-4.7-1.6zM233.3 295.6c-.8 2.2 1 4.9 3.3 4.9 2.2 0 3.1-3 1.4-5-1.6-2-3.9-1.9-4.7.1zM109.3 296.6c-.8 2.2.9 4.9 3.3 4.9 3 0 2.7-5.9-.4-6.3-1.4-.2-2.5.3-2.9 1.4zM293 298c0 2.3 2.6 3.8 4.1 2.3 1.4-1.4 0-4.3-2.2-4.3-1.2 0-1.9.7-1.9 2zM312 301c0 1.5.5 2 1.8 1.8.9-.2 1.7-1 1.7-1.8s-.8-1.6-1.7-1.8c-1.3-.2-1.8.3-1.8 1.8zM172 301.8c-3.1 2.5-2.1 6.5 2 8.2s8-.7 8-5c0-4.8-5.7-6.7-10-3.2zM206.2 301.7c.2 1 1 1.8 1.8 1.8 2.2 0 1.8-2.9-.3-3.3-1.4-.3-1.8.1-1.5 1.5zM220.2 301.9c-.8.5-1.2 1.7-1 2.7.3 1.6 1.2 1.9 5.2 1.9 5.3 0 6.7-1.3 4.1-3.9-1.8-1.7-6.2-2.1-8.3-.7zM134 304.4c0 1 .9 1.6 2.1 1.6 2.4 0 2.1-2.3-.4-2.8-1-.2-1.7.3-1.7 1.2zM152.6 309.1c-1.7 1.4-1.9 2.2-1.1 4.4 1.6 4.4 3.6 5.1 9 3 6.1-2.3 8.9-5 7.6-7.3-1.3-2.4-12.6-2.4-15.5-.1zM101.7 309.7c-1 1-.8 5.2.3 7.4 2.2 4 7.4 1.2 6.2-3.5-.9-4-4.4-6.1-6.5-3.9zM301.8 311.5c-1.6 3.5.3 7.2 4.7 9.1 4.6 1.9 7.5.5 7.5-3.5 0-6.7-9.7-11.1-12.2-5.6zM240 311c0 .5.7 1 1.5 1s1.5-.5 1.5-1c0-.6-.7-1-1.5-1s-1.5.4-1.5 1zM321.2 312.1c-3.1 1.2-3.7 3.5-1.8 6.4 2.2 3.3 8 3.5 9.6.4 2.2-4.1-3-8.6-7.8-6.8zM19.7 313.5c-2 1.9-1.2 4.5 1.4 4.5s3.6-2.8 1.7-4.6c-1.3-1.4-1.7-1.4-3.1.1zM172.1 315.5c-4.6 1.9-9.2 4.2-10.2 5.1-2.4 2.2-2.4 6.6 0 8.8 1.7 1.6 2.3 1.5 10.9-1.4 4.9-1.6 10.2-3 11.6-3 4 0 6.9-3.5 6.2-7.4-1.3-6.6-6-7.1-18.5-2.1zM84.7 313.7c-1.2 1.1-.8 2.3.8 2.3.8 0 1.5-.7 1.5-1.5 0-1.6-1.2-2-2.3-.8zM283.2 316.7c-2.6 2.3-3.6 9.8-1.5 11.8.8.8 1.9 1.5 2.4 1.5s.6 2 .3 4.4c-.6 4.2-.5 4.5 1.8 5.1 1.4.4 4.5.1 6.9-.5 7.8-2.1 9.7-5.6 6-10.8-1-1.5-2.2-4.5-2.7-6.7-1.4-6-8.7-8.7-13.2-4.8zM117.2 317.2c-.7.7-1.2 2-1.2 3 0 1.5-.8 1.8-4.4 1.8-4.1 0-7.6 1.8-7.6 3.9s3.2 4.5 7.1 5.2c2.4.4 6.3 1.3 8.7 1.9 3.3 1 4.5 1 5.7 0 1.7-1.4.3-5-1.9-5-.8 0-1.8-.6-2.4-1.3-.9-1-.6-1.7.8-3 2.1-1.8 1.8-4.3-.8-6.5-2-1.5-2.5-1.5-4 0zM210.6 319.1c-1.3 2-1.3 2.5.1 5.3 3 6.1 9.2 13.3 12.4 14.6 3.1 1.3 3.4 1.3 5.3-1.3l2-2.7 5.1 5c4.6 4.6 5.7 5.2 10.1 5.4 2.7.2 6.4.9 8.1 1.7 2.9 1.2 3.5 1.1 4.9-.3s1.4-1.8.1-4.5c-2.1-3.9-3.4-4.9-8.5-6.3l-4.4-1.1 2.6-2.4c1.7-1.6 2.3-2.9 1.9-4.4-.7-2.8-3.9-5-6.3-4.4-1.1.3-3.5-.4-5.3-1.6-4.8-2.9-6.1-2.7-9.7 1.9-1.7 2.2-3.8 4-4.5 4s-2.7-2.2-4.4-4.9c-4.2-6.6-6.9-7.7-9.5-4zM128.5 321c-1.2 3.8 4.4 7.2 5.9 3.5.6-1.7-.2-4.5-1.4-4.5-.5 0-1.5-.3-2.3-.6-1-.3-1.8.2-2.2 1.6zM70 322.2c-5.2 2.7-6.5 4.6-5.6 8.1.9 3.7 4 5.2 7.5 3.7 1.6-.6 5-1 7.7-.8l4.9.3-2.4 2c-6.2 5.2-6.3 5.4-5.6 10.3 1.2 8.2 2.8 8.8 12.8 4.2 6.7-3 9.2-5.7 8.3-8.8-.9-2.6-7.3-9.2-9-9.2-1.1 0-1.3-.8-.9-3.4.5-3.1.2-3.6-3.3-6-4.7-3.2-8.6-3.3-14.4-.4zM270.4 324.4c-.3.8-.4 2.5-.2 3.8.2 1.8.9 2.3 3.3 2.3s3.1-.5 3.3-2.3c.2-1.3-.2-3-.8-3.8-1.6-1.8-4.9-1.8-5.6 0zM312.2 326.9c-2.1 1.3-1 4.6 1.6 4.9 2.7.4 4-2.2 2.2-4.3-1.4-1.7-2-1.8-3.8-.6zM329.8 328.1c-2.4 1.4-2.3 3.6.2 4.4 2.4.8 7.3-2 6.7-3.8-.5-1.6-4.7-2-6.9-.6zM45.5 331.6c-2.2 1.3-6.3 3.1-9.2 4-8.2 2.4-7.8 6.4.6 6.4 2.6.1 5.7.7 7.1 1.5 3.7 2.1 6.8 1.8 11.6-1 4.5-2.6 5.9-5 4.8-8.1-2.1-5.9-7.9-7-14.9-2.8zM191.1 336.1c-3.5 3.2-3.6 3.2-12.6 1.4-2.7-.6-3.6 0-8.3 4.8-3.4 3.5-5.1 5.9-4.7 6.9.9 2.3 5.1 3.8 8.5 3.1l3.1-.6-1.7 3c-1.7 3-1.7 3 1.7 7.2 1.9 2.4 4.3 6.2 5.4 8.4 1.8 3.7 2.4 4.2 5.8 4.5 4.4.4 8.2-1.7 9.9-5.3 1.6-3.5-.4-5.5-5.4-5.5-4.1 0-6.1-2.1-3.9-4.3.8-.8 2.4-.8 6 .2 4.2 1.1 5.4 1 8-.3 3.7-1.9 5.8-4.9 7.2-9.9 1.3-4.8-.7-8.5-5.2-9.4-1.8-.3-4.1-1.9-5.6-3.9-1.4-1.9-3-3.4-3.7-3.4-.6 0-2.6 1.4-4.5 3.1zm-3.3 11.2c.3 1.2-.4 1.7-2.2 1.7-2.8 0-3.3-.9-1.4-2.8 1.5-1.5 3.2-1 3.6 1.1zM130.4 338.5c-1 2.6.5 6.4 4.1 10.4 2.9 3.2 4.8 4.2 10.5 5.6 3.8.9 7.9 1.4 9.2 1 3.2-1 5.8-3.5 5.8-5.6 0-1.8-4.6-3.9-8.6-3.9-1.3 0-4.1-1.5-6.1-3.4-2.1-1.8-4.8-3.8-6-4.5-3.1-1.6-8.3-1.4-8.9.4zM276.7 337.6c-1.2 1.2-.8 4.2.6 4.7 2.1.8 3.9-.8 3.5-2.9-.3-1.9-2.9-3-4.1-1.8zM311.1 344.1c-5.2 1.6-10.4 3.5-11.6 4.3-1.3.8-4.2 1.4-6.8 1.3-5.1-.2-10 2.6-10.5 6-.5 3 4.5 6.6 8.3 6 1.6-.3 4.8-.1 7 .4s5.4 1.2 7 1.5c2.9.6 2.9.6.8 1.7-1.4.6-2.3 1.9-2.3 3.3 0 3 2.8 5.7 4.9 4.8.9-.4 3.5-.9 5.8-1.2 3.2-.3 4.9-1.2 6.7-3.2 2-2.5 2.9-2.8 6.3-2.3 4.5.6 7.9-1.7 6.7-4.6-1.6-3.9-1.5-4.8.5-5.4 3.9-1 2.4-6.5-3.2-12.5-3.9-4-6.8-4.1-19.6-.1zm16.2 8.6 2.6 3.6-3.2 1.6c-1.9 1-3.3 2.5-3.5 3.8-.4 3.1-1.4 2.9-3.5-.6-2.2-3.8-2.1-5.6.5-9.1 2.8-3.9 3.9-3.8 7.1.7z">
        </path>
        <path
            d="M321 353c0 .5.5 1 1 1 .6 0 1-.5 1-1 0-.6-.4-1-1-1-.5 0-1 .4-1 1zM63 344.6c-1.4.7-4.3 1.4-6.6 1.4-5.4 0-7.7 2.5-7.2 7.7.3 3.3 0 3.8-1.9 4.1-1.6.2-2.6-.5-3.7-2.6-2.5-4.8-8.4-5.8-11-2-2.5 3.5-2.1 13.5.8 21.4 2.8 7.5 6.4 11.8 11.3 13.5 4.9 1.6 7.3-.7 7.3-7.3 0-4.5-.3-5-3.5-6.9-4.2-2.5-3.7-3.9 1.5-3.9 5.6 0 8.7 1.5 10.5 5 1.6 3.2 1.1 5.4-1.9 8-1.9 1.5-2.1 5.1-.4 6.8s4.3 1.5 8.8-.8c2.2-1.1 5.6-2 7.6-2 2.1 0 6.4-.7 9.5-1.6 4.2-1.2 7.4-1.4 11.5-.9 5 .6 6.3 1.3 10.8 5.6 2.8 2.7 5.8 4.9 6.7 4.9 1.8 0 11.9-10.2 11.9-12 0-4.2-7-13-10.4-13-.7 0-4 1.3-7.2 3-6.8 3.4-7.4 3.5-7.4 1.5 0-.8 1.9-2.4 4.3-3.6 2.3-1.2 5-2.8 6-3.7 4.3-3.8-.3-12.1-6.2-10.9-1.6.4-5.1 2.2-7.6 4.1-3.5 2.7-5.6 3.5-8.8 3.6-2.3 0-5.5.2-7.2.3-2.8.2-3-.1-3.5-3.8-.3-2.2-2.1-6.9-4-10.5-3.8-7-5.5-8-10-5.4zM339 345c-.8 1.6-.6 2.4 1 4 4.1 4.1 10.3.2 6.6-3.9-2.4-2.7-6.2-2.7-7.6-.1zM225.7 348.7c-1.4 1.3-.6 6 1.2 7.7 2.8 2.5 8.5 1.8 8.9-1.1.6-4.2-7.4-9.4-10.1-6.6zM239.2 352.2c-2.1 2.1-1.3 5.8 1.9 9.1 3 3 3.1 3.2 1.8 7-1.2 3.7-1.2 4.1 1.1 5.9 1.9 1.5 3.5 1.8 8.8 1.5 3.9-.3 6.8-1 7.3-1.8 2.4-3.7-4.6-18.1-10.1-21.1-4-2.1-9-2.4-10.8-.6zM123.8 358.1c-4.6 2.6.3 7.3 10 9.7 4 .9 7.2 2 7.2 2.4s-1.6 1.4-3.5 2.2c-4.4 1.9-5.1 3.7-3 7 1.7 2.6 1.7 2.6-.8 2.6-3.8 0-5.2 3.1-3.2 7 2.8 5.5 8.6 6.7 12.5 2.5 2.1-2.2 3.2-2.5 9.1-2.5 3.7 0 8-.5 9.6-1.1 2.1-.8 4.3-.6 9.6.7 7.8 2.1 10 1.4 10.5-3.1.3-2-.5-3.7-3.1-6.4-1.9-2-4.5-5.6-5.7-8.1-5.5-11.1-12.5-14-33.9-14-7.5 0-14.4.5-15.3 1.1zM263.6 361.5c-2 2-2 2.5 0 5.3 1 1.5 2.4 2.2 3.7 2 3-.4 3-5.5.1-7.5-1.9-1.2-2.4-1.2-3.8.2zM351 361.5c0 .8.7 1.5 1.5 1.5s1.5-.7 1.5-1.5-.7-1.5-1.5-1.5-1.5.7-1.5 1.5zM205.6 366.3c-2.6 1.9-1.7 5.9 1.6 7.1 4.1 1.4 10.2-.3 10.6-3.1.6-4.3-8-7.1-12.2-4zM229.2 365.9c.2.7.7 1.2 1.1 1.2 1.2-.1.9-1.5-.3-2-.7-.2-1.1.2-.8.8zM268.2 371.9c-2.2 1.4-1 5.5 2.1 6.9 1.6.8 3.5 1.1 4.3.8 2.2-.8 1.7-5.3-.8-7-2.5-1.8-3.7-1.9-5.6-.7z">
        </path>
        <path
            d="M335 376c-.8.5-3.5 1-6 1-5.3 0-14.4 3.9-15.9 6.9-.6 1.1-1.1 2.9-1.1 4 0 1.8-.6 2.1-4.8 2.1-8.3 0-9.6 4.1-3.2 10.1 3.6 3.4 6 7.4 6 9.9 0 .5-2.6 0-5.7-1.1-3.2-1.1-8-2.1-10.8-2.3-3.6-.2-4.9-.6-4.7-1.6 1.2-5.3 1.1-6.8-.8-9.8-3.8-6.1-7.2-7.4-18.1-6.9-8.8.3-10 .2-13.5-2-2.7-1.5-5.4-2.3-8.7-2.3-3.7 0-6.4-.9-12.1-4-9.8-5.4-12.1-5.3-17.9.9-7 7.5-7.3 13.1-.7 13.1 4 0 4.2 1 1 4-6.8 6.4-.2 14.2 8 9.5 3.2-1.8 19.1-2 20.8-.3 1.9 1.9 1.5 2.4-3.7 6.2-2.7 2-5.4 5-6.1 6.7-1.1 2.7-1.1 3.3.7 5.7 1.2 1.7 3.1 2.8 4.9 3 12.7 1.1 13.5 1.3 13.2 3.5-.2 1.4-2 3.1-4.8 4.7-8.5 4.7-8.3 4.6-7.6 7.3.9 3.8 4.8 4.7 11.8 2.8 5-1.3 6.4-1.3 10.5-.1 5.7 1.6 11.9 1.9 11.6.5-.1-.6-.4-2.2-.8-3.7-.6-2.3-.3-2.8 1.8-3.3 1.4-.4 3.3-1.5 4.3-2.6 1.5-1.7 1.6-2.4.5-6-.7-2.2-2.1-5.5-3.2-7.2-2.9-4.9-2.5-6 1.6-4 3 1.4 3.8 1.5 6 .3 1.9-1 3.6-1.1 7.7-.2 2.9.6 7.8 1.4 10.8 1.8 3 .3 7.5 1.4 10 2.4 5.9 2.3 29.5 7.2 33.4 6.9 4.7-.3 6.6 0 6.6 1.1 0 .5-1.1 1-2.5 1-4.8 0-2.3 5.8 3.1 7.4 2.6.8 10-2 10.8-4 .3-.8-.9-2.7-2.9-4.6-1.9-1.7-3.5-3.5-3.5-4.1 0-.5 1.5-2.3 3.3-4.1 3.2-3.2 3.3-3.2 12.7-3.2 7.5.1 9.5.4 9.5 1.5 0 .8-1.8 1.9-4 2.5-7 2-5.5 8.7 1.9 8.5 4.7-.1 13.8-3.2 15-5.2 2.8-4.4-10-19.2-19.1-21.8-7.7-2.2-15.8-1.7-23.3 1.4-10.2 4.4-22.9 10.7-23.5 11.7-1.5 2.4-13.2-.6-18.1-4.6-2.7-2.2-2.8-2.3-.7-2.4 1.2 0 3.1-1.2 4.2-2.7 2.4-3 2.1-4.9-1.5-10.3-1.3-1.9-2.4-4.2-2.4-5.2 0-1.5.4-1.6 2.7-.7 1.5.6 4.3.8 6.1.4 2-.4 3.9-.1 4.8.6 2.1 1.7 1.7 2.6-1.5 3.2-4.4.9-5.8 4.2-3.4 7.6 2.6 3.4 7 3.8 13 1 9.4-4.3 19.8-7.9 22.8-7.9 1.7 0 4.6.5 6.5 1 5.2 1.5 10.9.3 11.6-2.4 2.2-8.8-16.4-26.6-21.3-20.4-.6.7-1.5 2.7-2 4.4-1.5 4.4-.1 6.4 4.7 6.4 3.9 0 5.4 1.5 2.5 2.6-2.7 1.1-8.5-1.7-11.2-5.4-7-9.6-11-12-15.3-9.2zm5 15c0 .5-.4 1-1 1-.5 0-1-.5-1-1 0-.6.5-1 1-1 .6 0 1 .4 1 1zm-86.1 6.6c2.3 2 4 3.8 3.7 4.1-1.1 1.1-9.6-5-9.6-6.9 0-1.6 1.7-.8 5.9 2.8zM93.6 389c-1.5.5-3.6 1.6-4.7 2.6-1.6 1.4-8.3 4.2-18.7 7.7-3.8 1.2-4.1 4.2-.7 6.1 5.4 3 8.7 6.2 11 10.5 2.4 4.8 8.5 11.1 10.8 11.1.7 0 3.9-1.4 7.1-3 3.2-1.7 6.5-3 7.2-3s4-1.4 7.2-3c3.3-1.7 6.5-3 7.1-3 3.9 0 3.2-10.9-1-15.1-2.3-2.3-4.7-1.9-9.5 1.7-2.1 1.7-4.4 2.4-7.5 2.4-2.4.1-5.5.7-6.9 1.5-5.4 3.1-8.5.4-3.4-2.9 2.4-1.7 9.6-9.1 10.2-10.6.4-1.1-2.7-4-4.1-3.9-.7 0-2.5.5-4.1.9zM391.2 390.6c-1.2.8-2.2 2.3-2.2 3.3 0 4.6 7.9 7 10 3.1 1.5-2.8.3-5.9-2.7-7.1-3-1.1-2.4-1.2-5.1.7zM146.9 398.1c-.8 1.7-.8 3.1 0 6 1.9 6.4 8 9.6 13.2 6.8 1.6-.8 3.9-.2 11.9 3.6 12.9 6 16 6.5 19.4 3.2 4.4-4.4 3.3-7.2-6-14.4-2.4-1.8-4.7-2.5-9.5-2.7-3.5-.2-10.1-1.3-14.6-2.5-10.4-2.7-12.9-2.7-14.4 0zM137.6 401.6c-.9 2.3 2.1 6.6 4.2 6.2 2.3-.4 2.7-4.2.7-6.2-2.1-2.1-4.1-2-4.9 0zM47 403.4c0 1.2.5 2.7 1.2 3.4 2.7 2.7 11.3.2 11.3-3.3 0-1.7-.8-1.9-6.2-2.1-5.9-.2-6.3-.1-6.3 2zM201.7 415.7c-3 2.9 2.6 9.9 5.8 7.3 1.8-1.5 2-5.1.3-6.8-1.3-1.3-5-1.6-6.1-.5zM63.6 418.2c-2.3 3.3-2.1 8.5.4 9.3 4.3 1.4 8.7-4.5 6.9-9.3-1.1-2.9-5.3-2.9-7.3 0zM164.5 424c-1 1.6 1.1 3.7 8.7 8.5 6.7 4.4 6.8 4.5 6.8 8.8 0 7.3 7.2 16.7 12.8 16.7 1.2 0 3.9.7 6 1.5 3 1.3 4.5 1.4 8.4.5 2.6-.7 5.2-1.8 5.9-2.6.6-.8 2.8-1.4 4.9-1.4 4.8 0 6.8-2.1 5-5.4-1.6-3-5-4.6-12.2-5.6-9-1.3-11.2-2.8-11.6-7.6-.5-6.8-4.1-9.4-14.8-10.6-4.9-.5-10.4-1.6-12.2-2.4-4.1-1.7-6.8-1.8-7.7-.4z">
        </path>
        <path
            d="M217.5 424.5c-7 2.5-9 6.7-6 12.5 3 5.7 7.9 6.2 9 .8.9-3.7 3-4.5 6.5-2.4 3.2 1.9 10.1 2.1 11.8.4 1.8-1.8-.2-4.2-6.8-8.2-7.7-4.5-9.5-4.9-14.5-3.1zM120.2 427.6c-6.1 3-7.6 5-5.9 8.5 1.4 2.8 5.8 3.7 9.3 1.8 1.2-.6 3-.9 3.8-.6 2 .8 2.1 5.1.1 6.7-1.7 1.4-2 9.1-.5 12.1 1.2 2.1 4.9 2.6 6.7.8.5-.5 3.9-2 7.4-3.2 8.7-3 8.8-4.6 1.2-15.9-5.8-8.6-10.8-12.9-14.9-12.7-1.1 0-4.3 1.2-7.2 2.5zM469.5 430.1c-4.3 3.8-4.4 7.2-.3 10.2 9.1 6.8 21.3-3.5 12.7-10.7-4.2-3.5-8-3.4-12.4.5zM295.1 431.9c-2 3.6 2.1 12.1 5.9 12.1.9 0 2.5-.7 3.6-1.5 2.7-2.1 4.1-1.8 6 1 1.6 2.4 1.5 2.6-1 4.6-3.1 2.5-3.3 5.6-.6 10.9 3.4 6.6 8.9 8.1 11.5 3 2.3-4.5 4.7-5.3 9.5-3.4 2.8 1.2 5.4 1.4 8.6.9 3.8-.5 5.5-.2 10 2 11.3 5.5 15.2.9 6.6-7.9-2.8-2.8-5.7-6.7-6.5-8.6-2.4-6-7.5-9.6-15.4-10.8-29.7-4.6-36.8-5-38.2-2.3zm43.9 15.7 4.5 2.5-5.8-.4c-5.9-.4-8.5-1.7-7.3-3.6 1.1-1.7 3.7-1.2 8.6 1.5zM91.3 436.4c-10.6 3.2-14 5.3-13 8 .5 1.2 2 1.6 5.6 1.6 3.5 0 6.5.8 10.5 2.9 3.1 1.7 5.1 3.3 4.6 3.6-1.7 1.1-1.1 6.6 1.1 10.2 2.7 4.4 6.6 6.3 12.7 6.3 7.5 0 9.7-2.2 9.7-9.8 0-5.3-.4-6.4-2.9-9.1-3.9-4-5.4-4.4-10.6-2.6-5.7 2-5.7 2-2.1-1.4 4-3.8 4.2-8.1.5-11-3.3-2.6-3.6-2.6-16.1 1.3zM385 443.1c-4.7.9-7 3-7 6.2 0 1.3-.5 1.7-1.6 1.3-4-1.5-6.5-1.7-7.9-.6-2.2 1.8-1.8 4.5 1.1 8 2.1 2.5 3.3 3 5.8 2.8 2.8-.3 3.1-.7 3.4-4l.3-3.6 5.3 2.3c7.9 3.5 12.3 4.1 14.6 2 1.8-1.6 1.8-1.8-.1-7.2-3-8.8-3.7-9.2-13.9-7.2z">
        </path>
        <path
            d="M405.3 442.6c-2.1.9-1.5 3.4 1.7 7.1 1.7 1.8 3 3.7 3 4.2s-2 2.5-4.5 4.5c-3.9 3.3-4.5 4.2-4.5 7.6 0 3.3-.5 4.1-3.3 5.9-1.8 1.1-4.2 3-5.2 4.1-1.9 2.1-1.9 2.2 0 5.6 2.4 4.5 6.9 7.7 9.4 6.9 1.1-.3 3.1-2.1 4.5-4 1.4-1.8 4.1-3.9 6-4.5s3.8-2 4.1-3.1c.5-1.3 1.5-1.9 3.8-1.9 3.9 0 9.3-3.1 10.2-5.9.7-2.4-1.8-7.5-7.8-15.7-5.8-7.9-13.3-12.5-17.4-10.8zM72.2 451.2c-3.1 3.1-.1 12.8 5.1 17 4.5 3.6 10.4 1.3 12.7-4.8 1.4-3.7.3-5-8.4-9.4-9.1-4.6-7.9-4.3-9.4-2.8zM234.3 451.2c-2.2 2.8-2.2 3.7-.2 6.2 1.4 1.7 3 2.6 5 2.6 4 0 4.3-3.8.6-7.8-2.3-2.5-4-2.8-5.4-1zM283.7 453.8c-3.7 4.1-1.3 8.1 6.1 10.3 6.2 1.8 7.1 3.4 3.9 6.7-4.6 4.7-3.1 8.5 4.3 11.5 10.7 4.4 14.5 2.8 13.4-5.6-.4-2.9-1.3-6.7-2-8.4-1.3-3.2-9-11.1-14.3-14.5-3.5-2.4-9.3-2.3-11.4 0zM259.8 457c-3.1 1.7-5.9 3.9-6.3 5-.9 2.7 1.4 7.1 4.7 8.9 2.5 1.4 2.9 1.3 8.4-2.1 6.8-4.2 7.9-6.3 5.6-10.9-2.2-4.4-5.1-4.6-12.4-.9zM147.5 466c-3.8 3.3-5.3 4-8.9 4-3 0-6.3 1.1-11.2 3.7-3.8 2-10.6 4.7-15.2 5.9-9.6 2.6-13.2 4.6-13.2 7.5 0 2.2 3.3 3.9 11.8 5.9 2.8.6 5.2 1.6 5.2 2 0 .5-2.5 2.6-5.5 4.7s-5.7 4.4-6 5.1c-.8 2 1.6 6.2 4.8 8.6 3.5 2.6 15.6 3.4 24.1 1.6 7-1.4 19.8-8 24.6-12.5 1.9-1.9 4.9-3.7 6.5-4.1 4.6-1 9.5-4.4 10.6-7.2 1.3-3.3-.4-8.2-4.1-12.2-3.3-3.6-5.8-3.7-12-.7-3.3 1.7-4.7 3-5.3 5.4-1 3.2-1 3.2-3.8 1.7-1.6-.8-2.9-1.8-2.9-2.3 0-.4 2.6-2.5 5.8-4.6 10.7-7 12.3-9.9 8.2-14.3-3.3-3.6-8-2.9-13.5 1.8zM178.8 463.2c-8.7 1.8-6.4 6.8 4.7 9.9 10.2 2.8 10.4 3.4 1.8 6.4-2.7.9-1.1 4.3 4 8.5 8.9 7.3 17.6 9.6 24.2 6.4 3.6-1.7 4.1-1.7 8.5-.1 12.1 4.3 16.9-.5 9.4-9.4-1.9-2.4-4.6-6.3-5.9-8.8-4-7.9-7-9.9-17.6-12.1-10-2.1-21.4-2.4-29.1-.8zM94.7 465.6c-1.2 1.2-.8 4.2.6 4.7 2.1.8 3.9-.8 3.5-2.9-.3-1.9-2.9-3-4.1-1.8zM234.6 471.2c-2.1 2.9-2 4 .5 7.2 1.6 2.1 2.8 2.6 5.3 2.4 4.5-.4 4.9-4.7.7-8.8-3.5-3.6-4.5-3.7-6.5-.8zM247 473.5c0 2.2.4 2.6 2.3 2.3 1.4-.2 2.2-1 2.2-2.3s-.8-2.1-2.2-2.3c-1.9-.3-2.3.1-2.3 2.3zM353.4 473.5c-.8 2 1.3 4.5 3.8 4.5 2.4 0 3.4-2.6 1.8-4.5s-4.9-1.9-5.6 0zM430.8 475c-.8 1.3-2.4 2-4.3 2-4.3 0-7.3 2.5-8.1 6.5-.5 3-1 3.5-3.4 3.5-4.1 0-7.7 1.6-9 4-2.3 4.4 4.5 11 11.4 11 4.5 0 6.9-3.2 6-7.9l-.7-3.2 4 .7c4.5.7 9.2-1 14.1-5 4-3.5 4-5.6.1-10.1-3.6-4.1-8.1-4.8-10.1-1.5zM368.8 477.1c-2.6 1.4-2.2 3.3 1.2 6.8 3.2 3.1 9.1 5.4 11.6 4.4 2-.7 1.8-5.7-.3-7.5-4-3.5-9.9-5.2-12.5-3.7zM317.1 478.6c-2.6 1.8-2.7 4-.3 5.3s5.2-.4 5.2-3.3c0-3-2.2-3.9-4.9-2zM329.3 478.1c-1.9 1.9-1.6 3.7 1.2 6.4 1.9 2 3.4 2.5 7.3 2.5 3.6 0 6 .7 9.5 3 5.3 3.3 9.4 3.9 10.4 1.3.8-2.1-3-5.2-12.2-9.8-8-4-14.4-5.3-16.2-3.4zM271.5 486.7c-5.9 8.3-6.9 12.5-3 13.1 7.4 1.1 8.4 2.6 3.5 5.4-2.4 1.4-3 2.4-3 5.2 0 5.7 5.7 7.4 11.5 3.6 2.6-1.8 4-2 10.5-1.5 13.5 1.1 14.3 2.3 5.9 9.1-5 4-5.9 5.2-5.9 8 0 4.4 3.8 7.4 9.4 7.4 2.2 0 5.8.3 7.9.6 5.2.9 5 2.2-2 18.2-.3.7 2.6 4.2 6.6 8 7.5 7.2 8.4 9.4 6 14.6-2.2 4.7-.4 7.5 6.7 10.8 8 3.7 9.5 6.2 7.1 11.3-1.8 3.8-4.6 4.6-6.8 1.9-3.6-4.3-11.4-5.7-14.2-2.6-2.3 2.5-2.2 3.1 1.4 8.6 1.6 2.7 2.7 5.2 2.2 5.6-.4.5-3.7.2-7.3-.6-3.6-.7-9.5-1.4-13.2-1.4s-8.8-.5-11.3-1.2c-4-1.1-4.8-1-8.3 1-3.2 1.8-4.5 2-7.3 1.2-1.9-.6-5.3-1-7.6-1-4.1 0-4.1 0-3.1-2.8 1.5-3.9.4-7.6-3.6-11.9-2.7-3-4.1-3.7-7.1-3.7-3.1 0-4.3.7-7.4 4.1-2 2.3-5.4 4.9-7.5 5.8-2.2.8-6.7 3.9-10 6.8-8.4 7.3-11.5 9.3-16.2 10.6-7.9 2.1-11.9 7.8-7.9 11.1 2 1.7 16.1 5 18.3 4.4 2-.6.6.5-6.2 4.7-2.2 1.4-4.7 3.8-5.5 5.2-2.5 4.6-.4 6.9 10.6 12.2 8.9 4.2 10.3 4.6 15.3 4.2 12-1.1 24.4-8.4 30.3-17.9 2-3.2 4.5-5.7 7.2-7 5.8-2.9 7.4-4.6 8.1-8.7 1-5.4 2.1-6.3 6.7-5.6 2.2.4 5.8 1.5 8.1 2.5 2.2 1 7 2.2 10.6 2.5 3.6.4 7.6 1.4 9 2.3 1.5.9 5.6 1.7 10.2 2 6.7.4 8.1.2 11.3-1.8 5.9-3.6 6.9-5.9 5.4-12.4-1.1-5-1-5.8.6-7.6 2.1-2.4 4.3-2.6 5.1-.5.9 2.3 4 1.8 6.2-1 2.6-3.3 4.7-3.2 8.2.4 3.1 3 3.1 5.4.1 11-.7 1.1-1.5 4.7-1.9 7.9l-.7 5.7h-4c-3.6 0-4 .3-4.3 2.7-.3 2.6.3 3.1 7.2 6.4 4.2 1.9 7.8 4 8.1 4.5.8 1.2.8 1.2-7.6-1.6-10.8-3.8-20-5.5-28.9-5.5-4.4 0-10.1-.5-12.9-1.1-5.9-1.2-9.1 0-9.1 3.4.1 3.8 3.6 10 8.4 14.7 7.2 7 6 9-2.8 4.5-2.7-1.4-6.2-2.5-7.7-2.5-2.6 0-2.8-.2-1.9-2.6 2.1-5.3-4.8-13.4-12.6-15-3.6-.7-8.4 2.8-10.4 7.6-.7 1.6-1.6 3-2.1 3s-4.1 3-8.1 6.6c-9 8.2-16.7 11.9-27.3 13.2-11.2 1.5-13.5 2.5-13.5 6 0 6.2 7.6 9.2 23.1 9.2 7.8 0 9 .5 6.7 2.8-1.6 1.6-4.1 1.5-10.4-.5-4.4-1.3-5.6-1.4-6.8-.3-2.7 2.2-1.8 4.5 3.4 8.9 2.8 2.4 6.1 6.4 7.5 9.1 2.7 5.3 6 8.1 11.9 10 8.6 2.8 22.3-1.5 32-9.9 2.7-2.4 7.3-6.1 10.3-8.2 4.3-3.2 5.3-4.5 5.3-6.9 0-3.7 1.3-4.5 7.5-4.5h5l.9-4.5c.5-2.5 1.4-4.8 2-5.2 1.8-1.2 10.6-.9 18.1.7 3.9.8 9.9 1.5 13.5 1.5 3.7 0 7.6.7 9 1.5 4.6 2.6 12 1.1 12-2.5 0-2 4.2-1.7 6.9.6 3.1 2.6 6.7 3.2 7.4 1.1.2-.6-.2-2.6-1.1-4.2-1.7-3.4-13.1-18.4-15.6-20.4-.9-.7-1.6-2-1.6-2.7 0-2.7 4.3-1.4 7.6 2.3 1.8 2 4.5 4.4 6 5.3 1.4 1 3.8 4.2 5.3 7.1 3.4 6.9 18.5 19.6 24.3 20.6 4.3.6 4.8 2.1 1.7 4.8-1.1 1.1-1.9 3-1.8 4.5.2 4.1 0 4.2-2.9 2.2-7.9-5.7-11-1.1-4.7 7.1 3.7 4.9 4.4 7.4 2.1 8.3-3 1.1-7.6-2.9-15.5-13.5-4.5-6-8.8-11.1-9.5-11.4s-2.4 0-3.8.7c-2.6 1.4-21.4 1.4-28 .1-3.4-.7-3.8-.5-3.8 1.2 0 2 3.6 5.8 8 8.6 1.4.9 5.9 2.3 10 3.2 8.9 1.9 12 4 4.8 3.2-6.3-.6-8.3.9-7.4 5.3.3 1.8 1.7 4.8 3 6.5 2.4 3.1 13.8 10.5 18.3 11.9 1.3.4 11.1.9 21.8 1.1 17.3.3 20.3.6 25.9 2.6 5.4 1.9 6.7 2.1 8 1 3.7-3.1.2-10.1-9.2-18-2.9-2.4-5.2-5.1-5.2-6.2 0-1.6.7-1.9 5-1.9 4.1 0 5.5-.5 8.5-3.1 3.8-3.4 3.5-3.4 10.4.6 3.2 1.8 4.4 1.2 7-3.5 2.3-4.1 5.4-5.3 6.5-2.5 1 2.8-1.7 6.5-8.1 11.1-3.5 2.5-6.5 5.5-6.9 6.7-.8 3.5 3.3 13.3 7.5 17.8 6.2 6.4 10.8 5.4 16.5-3.8 3.4-5.8 14.7-17.6 13-13.8-.5 1.1-.9 4.8-.9 8.1.1 6.2.1 6.2-2.2 4.7-3.1-2.1-6-.8-8.3 3.7-3.8 7.5-1.7 14.6 6.6 21.9 4.9 4.3 9 5.3 10.1 2.5.6-1.5.2-2.9-2.2-8.7-.6-1.3 0-2 2.3-2.8 1.7-.6 3.4-1.9 3.7-2.9.4-1.1 1.2-1.6 2.4-1.3 2.1.5 17.8 15 17.1 15.7-.3.2-2.2 1.1-4.2 1.9l-3.8 1.6v6.4c0 5.4.4 6.7 2.4 8.6 1.3 1.2 2.6 3.6 3 5.2.7 3.9 4.9 7.9 8.1 7.9 3.6 0 4.2-2.6 1.5-5.5-2.8-2.9-2.3-3.9 1.3-2.6 1.3.5 3.4.7 4.5.4 2-.5 2.1-.2 1.5 6.4-.7 8.6.9 12.5 7.6 18.1 10.1 8.5 13.9 9.5 16.6 4.1 2.3-4.3 1.9-5.7-2.4-8.3-5.3-3.4-6.3-5.1-2.5-4.2 6.2 1.5 9.2 1.8 9.8.7.4-.6 2-1.1 3.5-1.1 3.8 0 5.1-1.7 5.1-6.6 0-3.5-.7-5.1-4-8.9-2.2-2.5-4.3-5.8-4.6-7.3-1.1-5-2.7-8.3-4.5-9.2-2.6-1.4-6.2-1.2-8.5.5-4.5 3.4-9.1.6-24.7-15.3L510 743.3l.6-5.4c.5-5.2.4-5.6-4.1-11.7-5.8-7.9-9.7-10.5-14.7-9.7-3.7.5-3.8.5-3.8-2.7 0-1.8.9-5.3 2-7.7l2-4.3-3.4-3.4c-2.8-2.8-4.1-3.4-7.7-3.4-6.1 0-9.2-1.9-17.6-11-7.8-8.3-9.8-9.4-19.5-10.4-5.1-.5-6-.3-8.3 1.8-2.6 2.5-8.7 4.2-10.6 3.1-.6-.4 1.7-3.1 5.1-6.3l6.2-5.6-.4-5.4c-.6-6.7-4.3-10.9-10.3-11.9-2.2-.3-4.8-1.3-5.9-2.2-2.4-2.1-5.3-7.8-6.1-12.3-.4-2-2-4.8-3.7-6.4-2.6-2.6-3.8-2.9-10.7-3.2-7.3-.4-8-.2-9.5 1.9-.9 1.3-1.6 3.1-1.6 4.1 0 2.2-4.2 2.5-5.9.4-.8-1-.4-2.2 1.9-5.4 1.6-2.2 3.6-4.4 4.3-4.9.8-.4 2.4-2.4 3.5-4.3 2.4-4.2 1.9-5.8-3.5-12-4.8-5.4-5.8-7.3-6.7-12.2-.7-3.8-.7-3.8 2-2.8 9.4 3.6 19.3 10.9 24.9 18.5 1.9 2.5 2.9 2.8 12.4 3.8 8.4.8 10.5.7 11.6-.4 2.1-2.2.1-5.6-4.9-8.7-5.5-3.3-5.5-3.6-1.9-10.1.1-.2 3.1 1.3 6.5 3.4 7.4 4.4 12.1 5.1 12.6 1.8.4-2.5-4.7-8.7-8.9-10.9-1.5-.7-4.2-1.4-5.9-1.4-2.5 0-3.3.6-4.4 3.1l-1.3 3.2-2.1-2.1c-1.2-1.2-2.8-3.4-3.6-5.1-1.7-3.3-5.2-4.9-6.9-3.2-.6.6-1 3.3-.8 6.1.2 3.9-.1 5-1.2 5-.9 0-1.8-1.3-2.2-3-.9-3.9-3.8-7.5-7.5-9-2.7-1.1-3.3-1-6.4 1.4-2.3 1.7-4.7 2.6-7.2 2.6-2.1 0-4.5.7-5.5 1.6-2.1 1.9-5.5 1.1-6.2-1.6-.3-1.2.4-2.7 2-4.2 2.2-2 2.4-2.9 1.9-7.3-.8-6.5.2-8 4.5-7.1 1.9.4 7.4 1 12.3 1.3 7.3.4 9.7 1 12.7 3 7.4 4.9 12.7 1 7.9-5.7-3.2-4.5-6.4-5.7-17.5-6.3-6.5-.5-10.4-1.2-11.3-2.1-3.5-3.5 2.3-4.7 9.8-2.1 2.3.8 5.3 1.5 6.6 1.5 3.9 0 3.2-4.5-1.4-9-4.5-4.5-8.5-5.8-22.3-7-5.5-.4-12.1-1.6-14.8-2.6-9.4-3.4-16.1.4-14 7.9 1.4 5.1 4.6 7.1 9.5 5.8 2.6-.7 4.3-.7 5.8.1 3.3 1.7 3.3 1.8-.4 4.8-3.4 2.8-3.4 2.8-2.3 7.6 2.1 9-2.1 9.1-11.4.3-4.9-4.7-5.5-4.9-10.7-4.9-4.7 0-5.7-.3-6.7-2.3-.6-1.2-2.1-3.2-3.2-4.4-2.4-2.7-1.9-3.4 3-4.2 6-1 6.5-4.1 2-13.5-2-4.2-3.2-7.6-2.7-7.6s2.5.8 4.4 1.7c3.4 1.6 3.7 1.6 5.6-.2 1.9-1.7 2.1-1.7 6.9.4 3 1.3 7.1 2.1 10.4 2.1 2.9 0 7.6.7 10.3 1.5 6.4 1.9 10 1.9 10.8-.1.7-1.9-1.5-4.8-5.5-7.1-2.2-1.3-2.8-2.5-3.1-6.5-.6-5.8-3.8-9.8-7.9-9.8-1.5 0-5.3 1.3-8.4 3-4.3 2.2-7 3-11 3-6.1 0-7-.8-6.1-5.5l.7-3.4 5.6 2c6.5 2.2 9.6 1.8 9.1-1.4-.4-2.6-7.1-6.7-11-6.7-2.1 0-2.9.6-3.4 2.6l-.6 2.5-2.4-3.5c-2.8-4.1-4.1-4.5-14.3-4.9l-7.5-.2-.9 3.5c-.4 1.9-1.1 4.7-1.4 6.2-.3 1.6-1 2.8-1.7 2.8-2.9-.1-9.3-5.8-11.4-10.3-1.8-3.7-3.3-5.2-7.2-7.2-2.8-1.4-5-3.2-5-4 0-2.8-6-8.5-9-8.5-2.4 0-3.8 1.2-8.5 7.7zM252 617.2c0 2.6-1.7 4-3.9 3.3-2.1-.6-2.8-2.5-1.4-3.8 1.1-1.2 5.3-.7 5.3.5zm-15 8.6c0 2.2-9.4 8.2-10.7 6.9-.4-.5 8.8-7.6 10-7.7.4 0 .7.4.7.8zM339 660c0 .5-.7 1-1.6 1-.8 0-1.2-.5-.9-1 .3-.6 1-1 1.6-1 .5 0 .9.4.9 1zm-46 6.4c0 .3-.4.8-1 1.1-.5.3-1 .1-1-.4 0-.6.5-1.1 1-1.1.6 0 1 .2 1 .4zm250.6 112.7c3.1 1.9 5.4 4.6 5.4 6.4 0 .3-1.5-.5-3.3-1.9-3.6-2.7-8.4-3.4-11.8-1.6-2.5 1.4-2.4 0 .1-2.8 2.6-2.8 5.3-2.8 9.6-.1zm13.9 17.5c1.9 2.9 1.4 2.7-4.7-1.7-2.1-1.4-3.5-2.9-3.1-3.2 1-1 5.9 2.1 7.8 4.9zM448.7 497.1c-1 .6-2.2 2.2-2.7 3.5-1.3 3.3 2.5 10.9 8.2 16.3 3.8 3.7 4.2 4.4 3.9 8.7-.1 2.6.7 7.3 1.9 10.9 3.6 10.8 7.6 13.9 12 9.5 2.4-2.4 2.6-6.8.5-9.6s-1.8-4.1 1-4.8c3.6-.9 8.9 1.7 11.3 5.6 3.3 5.2 6.7 8.1 9 7.4 1.1-.4 2.2-1.3 2.5-2 .6-1.4-13.3-20.2-17.9-24.4-1.8-1.6-3.8-2.2-7-2.2-4.3 0-4.4-.1-4.4-3.3-.1-7.7-7.2-16.7-13.3-16.7-1.8 0-4 .5-5 1.1zM387 498.7c-1.8 1.3-2.7 1.4-4.1.5-4.3-2.7-8.3-.4-7.7 4.4.2 2.2 1.4 3.3 5 5.2 5.7 2.9 13.1 4 15.3 2.2 3.1-2.6.6-10.7-4-12.8-1.7-.8-2.8-.7-4.5.5z">
        </path>
        <path
            d="M199.5 503.3c-2.4 1.8-1.3 4.9 3.5 9.3 2.6 2.5 3.9 4.6 4.4 7.4 2.2 13.6 22 22.9 49.9 23.3 9.7.2 11 0 12.3-1.7 2.1-2.9 0-5.4-8.2-9.9s-11-7-13.5-11.9c-1.1-2.1-4.4-5.6-7.4-7.8-4.9-3.6-6.5-4.2-13.3-5-4.2-.5-10.8-1.6-14.7-2.5-3.8-.8-7.9-1.7-9.1-2-1.1-.2-2.9.1-3.9.8zM174 509c-2.5 1.6-5.8 3-7.5 3-1.6 0-4.6 1-6.6 2.3-2 1.2-6.1 3.7-9 5.5-3 1.7-8.4 4.1-12 5.2-7.6 2.3-10.4 4.8-9.5 8.3.6 2.6 5.8 5.7 9.3 5.7 3.1 0 3.3.9 1.1 4.6-2.8 4.8-1.8 9.1 3.5 14.9 5.1 5.6 9.3 6.9 17 5.1s14.9-6.1 23.8-14.3c6.6-6.1 8.5-7.3 11.4-7.3 4.2 0 8.3-3.4 9.1-7.5.8-4.2-2.3-7.8-9.7-11.6-4.8-2.4-5.9-3.4-5.9-5.3 0-5.7-4.2-11.6-8.2-11.6-1.3 0-4.3 1.4-6.8 3zm9.6 15.6c-.3.9-.6 2-.6 2.5 0 1.4-2.6 1.1-4-.6-1.6-1.9-.4-3.5 2.7-3.5 1.9 0 2.4.4 1.9 1.6zM398.9 514c-2.2 1.3-3.2 5.5-2 7.9.6 1 2.4 2.1 4.1 2.5 7 1.3 9.4-4.2 3.9-8.8-3.4-2.9-3.7-3-6-1.6zM425 530.5c-2.6 3.2.8 5.8 12.8 10 3.8 1.4 5.5 1.6 6.3.8 2.2-2.2-.2-5.2-6.4-8.2-8.4-4.1-11-4.6-12.7-2.6zM284.3 535.7c-1.9.7-1.6 4.7.7 7.5 4.4 5.7 13 5.9 13 .4 0-1.9-1-3.1-4.2-5-4.9-2.7-7.8-3.6-9.5-2.9zM479.3 539.7c-1.7.6-1.6 3 .1 3.6 2.1.8 4-1.7 2.4-3-.7-.6-1.9-.8-2.5-.6zM574.2 544.2c-1.9 1.9-1.4 3.4 2.3 6.7 3.8 3.3 7.5 4.7 10 3.7 2.4-.9 1.8-2.6-2.9-7.2-4.4-4.4-7.2-5.4-9.4-3.2zM446 545.7c-2.3.8-6 4.5-6 5.9 0 2.8 3.1 4.4 8.5 4.4 6.9 0 8.5-.7 8.5-3.5 0-2.7-2.2-5.3-5.7-6.6-2.7-1-3.1-1-5.3-.2zM233.8 548c-2.5 1.6-2.2 3.7 1 7.9 1.6 2 4.5 7.1 6.6 11.3 4 8.6 7.4 11.8 15.7 14.9 5.7 2.2 21.8 4.9 29 4.9 5.1 0 6-.7 7.9-6.2 1.3-3.6 1.4-3.7 5.9-3.1 5.3.5 7.9-.9 8.3-4.6.6-5.2-10.1-5-11.8.1-.6 1.9-.9 1.7-4.4-1.7-3.6-3.5-4.2-3.7-8.2-3.1-5.2.7-6.2 0-11-7.5-2-3.1-4.8-6.5-6.2-7.7-5-3.9-28.8-7.7-32.8-5.2zM563.2 549.6c-2.9 2-2.8 4.5.3 8.2 2.9 3.4 6.7 4.7 9.5 3.2 4.5-2.4 3.1-9.2-2.5-11.5-4.3-1.9-4.6-1.9-7.3.1zM206.8 550.5c-4.7 2.6-4.9 8-.4 10.5 3.4 1.8 7.3.5 9.1-3 3.8-7.3-1.1-11.6-8.7-7.5zM487.8 554.4c-2 .7-6.8 3.3-10.7 5.7s-9.1 5.6-11.6 7.1c-4.4 2.7-4.5 2.9-4.5 7.7v5.1l-5 2.5c-2.8 1.4-5.3 3.2-5.6 4-.8 1.9 2.9 7.8 6.1 9.9 3.7 2.4 5.5 2 9.2-2.3 1.8-2.2 4.9-4.5 6.7-5.1 2.1-.7 3.6-1.9 4-3.3.4-1.9 1.2-2.2 5.6-2.2 2.7 0 5 0 5 .1 0 0-2.7 2.8-6 6.2-3.3 3.5-6.8 6.2-7.9 6.2-3.5 0-7.1 2.3-7.8 4.8-1.2 4.8 5.9 13.2 11.1 13.2 3.2 0 7.6-5.5 7.6-9.4 0-3.4 0-3.5 3.2-2.5 5.4 1.5 5 1.7 18.5-10.4 3.2-2.8 6.3-4.7 7.7-4.7 1.3 0 3.3-.8 4.5-1.8 2-1.5 2-1.9.7-3.8-1-1.3-3-2.3-5.6-2.7-6.8-.9-9.3-4.7-4.6-6.9 2.1-.9 3.3-.7 7.2 1.3 3.9 1.9 5 3.2 6.1 6.4 1.6 4.7 3.6 6.5 7.5 6.5 4.1 0 5.5-3.2 2.9-7.3-3.1-5-18.5-19.5-22.5-21.2-2.8-1.2-16.9-4.7-17.9-4.5-.1.1-1.8.7-3.9 1.4zM598 556.3c-3.4 1.7-3.9 6.8-1.1 9.6 2.4 2.4 8.9 2.9 10.9.9 1.9-1.9 1.4-6.3-1-8.5-3.2-2.9-5.9-3.5-8.8-2zM296.7 556.7c-2.7 2.6 2 7.6 4.9 5.2 1.8-1.5 1.8-2.4-.2-4.3-1.6-1.7-3.6-2.1-4.7-.9zM426.2 558.2c-2.1 2.1-1.3 4.9 2.2 8.4 5 5 9.6 4.2 9.6-1.7 0-5.1-8.5-10-11.8-6.7z">
        </path>
        <path
            d="M193 559.4c-2 .7-5.6 2.6-8 4.3-2.5 1.6-9 4.7-14.5 6.8-8.2 3.2-11.2 3.8-16.7 3.8-3.7-.1-7.1.3-7.4.8-1.1 1.8 1.8 7 4.9 8.5 2.1 1.1 4.3 1.4 7.4.9 4.4-.6 15 1 16.8 2.7.6.6 0 1.8-1.9 3.5-2.6 2.2-3.6 2.5-7.8 2-5.4-.7-7.8-.1-7.8 1.8 0 2.5 5 7.4 8.8 8.6 2 .6 7.6 2.9 12.3 5 11 4.9 15.3 5.1 24 .7 4.5-2.2 9-5.8 15.1-12 4.8-4.8 9.6-8.8 10.5-8.8 2.6 0 7.9-3.5 9.8-6.4 1.5-2.2 1.5-2.7 0-6.3-3-7.3-9.8-12.2-15-10.9-1.5.4-3.5 2.2-4.6 4-3.4 5.7-6.8 5.8-10.7.4-3.9-5.7-7.6-9.6-9.7-10.2-1.1-.3-3.6.1-5.5.8zM644.1 587.4c-.6.7-1.3 5.2-1.5 9.9-.5 8.5-.5 8.5 2.9 12.5 3.6 4.2 8.5 6.8 10.9 5.9 1.2-.5 1.4-2.3 1-9.9-.7-12.1-.9-13.1-4-16.7-2.8-3.4-7.3-4.2-9.3-1.7zM606.7 589.8c-3 3.3-2.1 8.2 3.2 17 2.8 4.5 5.9 10.2 7 12.7 2.7 6 5.7 7.4 11 5.1 2.6-1.2 4.9-1.6 7-1.1 4.4.9 6.1-.8 6.1-6 0-3.9-.3-4.3-3.9-5.9-5.2-2.4-8.9-5.9-13.9-13.3-2.3-3.3-5.3-7.1-6.8-8.2-3.3-2.6-7.5-2.7-9.7-.3zM267.5 591.7c-2.1.6-3.5 2.1-3.5 4 0 2.2 5.1 7.1 9.6 9.4l4.6 2.2 4.9-2.3c4.5-2.1 5.2-2.2 9-1 4.5 1.5 7.1.7 7.7-2.4 1-4.7-9.9-9.6-22.3-10.2-4.4-.1-8.9 0-10 .3zM533.5 595.5c-4.5.7-10.1 2.3-12.5 3.5-6.6 3.4-14 9.2-14.6 11.6-.3 1.2.6 4.9 2 8.2 3.2 7.6 3.2 8.7.1 10.8-1.9 1.3-3.7 1.5-7.9 1-6-.8-7.6.6-5.3 4.9 2 3.7 26.9 28.8 30.4 30.7 1.7.9 4.4 3.6 5.9 6 4.2 6.8 8.4 10.7 16.2 15 5.9 3.2 8.1 5.2 11.3 9.9 4.4 6.5 8 8.9 13.3 8.9 2.9 0 4.7-1 10.1-5.9 3.6-3.3 7.4-6.3 8.4-6.6 2.8-.8 3.3-3.3 1.6-6.8-.8-1.6-1.5-4.4-1.5-6.2 0-2.9.2-3.1 3.3-2.7 2.2.2 4.3-.4 7-2.2 5.1-3.5 6.8-3.3 10.5 1.3 3.9 4.8 4 6.4.6 10.4-2 2.4-2.4 3.8-2 6.1.8 4 4.9 7.6 8.8 7.6 1.7 0 7.3 1.2 12.5 2.6 9.3 2.5 9.4 2.5 12.6.7 4-2.4 4.6-6.1 1.7-10.1-3-4-2.3-6.2 2.8-9 2.8-1.6 4.2-3 4-4.1-.2-.9-5.3-6.4-11.3-12.2-10-9.6-11.5-10.7-16.5-11.8-3-.7-6.4-1.5-7.4-1.8-1.1-.3-5.3-3.7-9.3-7.5-11.9-11.3-21-13.9-34.4-9.8-4.1 1.2-9.7 3.5-12.5 5.1-5.6 3.2-11.4 3.7-16.9 1.6-5.7-2.2-19.7-10.2-20.2-11.5-.9-2.3.5-2.5 3.4-.4 4.5 3.1 11.1 6.2 13.4 6.2 1.1 0 3.4-.8 4.9-1.7 2.5-1.5 3.4-1.5 6.9-.3 4.6 1.5 5.1 1.2 6.6-3.3 1-3 1.3-3.1 9.4-4.3 9.5-1.4 12.1-3 10.4-6.6-2.1-4.3-22.6-25-26.8-26.9-4.6-2.1-7.8-2.2-19-.4zM536 614c4.5 3.7 6.9 3.7 10.5 0 3.4-3.5 5.1-3.7 8.5-1 2.4 1.9 2.4 2.1.7 3.4-1.1.8-3.6 1.8-5.8 2.1-4 .7-5.9 2.7-5.9 6.4 0 4.8-11.8 3.2-14.5-1.9-2.7-5.2-1.5-12 2-12 .6 0 2.6 1.3 4.5 3zm61.7 35.9c7.2 5.2 9.7 11.1 4.8 11.1-3.5 0-7.5-2.1-7.5-3.9 0-.9-.7-2.9-1.5-4.5-1.7-3.1-1.9-5.6-.7-5.6.5 0 2.7 1.3 4.9 2.9zm-11.4 15.9c-1.6 2.7-1.5 3.1.6 6.5 1.2 2.1 1.8 3.7 1.3 3.7-2 0-7.7-4.7-8.6-7.2-1.4-4.1-.2-5.8 4.3-5.8h4l-1.6 2.8zM432.7 623c-9.1 1.6-11.2 6.7-5.4 12.5 2.2 2.2 5.3 3.9 9.3 5 9.9 2.7 10.3 3 11 7.7 1.3 8.1 9.7 13.4 18.5 11.7 2.7-.5 7.6-.4 12.6.3 8.3 1.2 13.2.6 14-1.8.7-2.2-4.3-6.8-10.4-9.5-6.5-3-7.6-4.2-8.7-9.6-.7-2.9-.5-3.2 2.1-3.5 2-.2 2.9-.9 3.1-2.5.4-3.1-1.7-3.9-14.7-5.8-6.2-.9-12.7-2.3-14.5-3-4.5-1.8-11.3-2.4-16.9-1.5zM73.5 645.7c-3 .8-6.5 4.4-6.5 6.8 0 1.2 1 3.1 2.3 4.3 3.3 3.1 14.7 8.2 18.5 8.2 9.4 0 9.4-12.8 0-16.9-4.8-2.1-11.2-3.2-14.3-2.4zM495.5 652c-.8 1.3 2.2 6.7 4.4 8 3.3 1.7 7.1 1.3 7.1-.9 0-4-9.7-10-11.5-7.1zM21.4 658.1c-1 1.7 1.3 3.6 2.7 2.2 1.2-1.2.4-3.3-1.1-3.3-.5 0-1.2.5-1.6 1.1zM466 670.4c-2.8 3.4 5.4 10.7 16.8 15 10.2 3.8 14 4.6 21.9 4.6 10.4 0 9.8 1.6-1 2.4-10.2.8-12.6 2-10.8 5.5 2.9 5.3 17.6 9.6 40.6 11.7 12.6 1.2 17.7 1.3 19.8.5 6.1-2.4 1.6-9.2-10-15-4.3-2.1-7.1-4.4-9.3-7.5-3.8-5.2-9.7-10.2-14.3-12-1.9-.7-7.1-1.1-13.1-1-8.1.2-10.7-.2-14.5-1.8-3.3-1.5-7-2.1-13.1-2.3-4.7-.1-9.2-.5-10.1-.9-1-.4-2.1-.1-2.9.8zM886.6 678.6c-3 2.9.9 7.7 8.2 10.2 4.1 1.4 8.2.1 8.2-2.7 0-1.7-5.1-7.1-6.8-7.1-.4 0-2.4-.4-4.5-.9-2.8-.7-4.1-.6-5.1.5zM694.1 690.3c-3.4 1.1-10.1 6.6-10.1 8.5 0 .5.8 2 1.8 3.1 3.5 4.4 12.9 2.5 16.8-3.4 1.5-2.3 1.5-2.7 0-5-2.3-3.5-4.6-4.3-8.5-3.2zM326.2 695.8c-1.5 1.5-3.5 4.2-4.4 5.9-.9 1.8-3.4 4.1-5.5 5.1-2.1 1.1-6.3 4.2-9.4 6.9-5.3 4.6-6.1 5-12.4 5.6-9.3.9-9.9 1.6-9.1 10.2 2 19.5 2.4 20.7 8.4 23.2 3 1.2 3.7 1.2 5.8-.2 1.3-.8 2.4-2.3 2.4-3.2s.3-1.3.7-1c.3.4.9 4.8 1.3 9.8.8 10.3 1.6 11.6 8.1 12.7 4.2.7 4.4.9 4.9 4.8.6 4.3 3.9 10.5 9 16.9 1.8 2.2 4.1 5.7 5.1 7.7 3.3 6.4 6.7 6.9 11.3 1.9 2.4-2.6 5.8-2.7 8-.2 2.7 2.9 1.6 5.4-2.8 6.6-7.3 2.1-6.8 4.6 3.1 15.7 7.4 8.4 11.9 12.2 17.1 14.5 3.1 1.3 3.9 1.2 8.5-.6 2.9-1.1 6.6-2.3 8.2-2.6 1.8-.4 4.9-2.7 8.1-6.1 2.8-3 5.8-5.4 6.7-5.4 2.6 0 9.7 6.9 9.7 9.4 0 3.1-5.7 8.3-11 10-2.5.8-7.5 1.8-11.3 2.1-8.4.8-9.8 2.5-6.7 8.4 2.8 5.6 2.5 7.5-1.5 10.5-4.6 3.5-5.8 6.1-5 10.3s7.7 12 12.3 14c3.7 1.5 6.3 1.1 10.5-1.9 3.5-2.5 5.2-1.3 6.8 4.4 1.3 5.1 1 5.8-3.7 8.3-4.4 2.2-5.3 4.9-3.4 9.6 1.9 4.5 7.4 8.7 13.8 10.4 9.8 2.8 11.2 3.6 17.5 10.9 7.1 8.3 9.8 10.6 12.4 10.6 2.7 0 4.1-1.2 4.8-4.3.8-3.2.7-3.2 4.7-1.1 2.3 1.2 4.7 1.5 8.5 1.1l5.4-.6 9.2 9.3c8.5 8.7 10.1 9.8 22 15.5 13.2 6.4 19 11 23.2 18.2 3.6 6.1 15.7 12.9 19 10.6 1.4-1.1 1.4-1.6 0-5.7-.9-2.5-1.7-7.4-1.8-11l-.2-6.4-9.5-8.4c-12.5-11-18.7-14.5-25.9-14.7-5.2-.2-12-2-18.1-4.9-2.1-1-2.4-1.8-2.2-4.8.4-4.8-3.4-12.3-9.1-17.5l-4.4-4.1-21.8.4-2 3.6c-1.7 3.1-1.8 4.3-.9 8.7 1.3 6.3.7 5.9-8.2-5.5-7.2-9.2-10.9-16.5-10-19.7.3-1.2 2.1-3.2 4-4.4 2.2-1.4 3.6-3.2 3.8-4.8l.3-2.6 3.5 2.6c4.5 3.4 10.7 5 12.6 3.4.8-.6 1.4-2.7 1.4-4.6 0-3.4.1-3.5 3.1-2.9 3.7.7 9.3-1.5 10.8-4.3.6-1.1 3-4.1 5.2-6.7 3.8-4.4 4.1-5.1 3.5-9.1-.9-7 1.3-6.6 10.3 2 13.4 12.5 21.1 16.6 29.2 15.2 4.2-.7 7.1-3.7 6.2-6.4-1.1-3-7.4-10.1-10.3-11.6-1.6-.8-4.4-1.5-6.3-1.5-4.7 0-6.3-1.6-9.2-8.9-1.3-3.5-3.6-7.9-5.1-9.8-2.8-3.7-21.2-18.8-25-20.5-3.3-1.5-5.9.5-8.7 6.6-1.8 3.8-3.8 6.2-6.9 8.4-2.5 1.7-5.2 4.1-6.1 5.4s-1.6 1.8-1.6 1.2c-.1-1.5 9.1-15.5 11.3-17.3 4.3-3.6 5.7-10 3.2-15-2.3-4.3-10.2-11.1-13.1-11.1-2.8 0-5.9 4-7.5 10.1-.9 3.1-1.8 4-6.1 5.8-7 2.9-9.2 2.7-12.4-1-2-2.4-2.5-4.1-2.3-6.8.3-3.5.4-3.6 5-3.9 4.8-.3 8.5-3.2 7.1-5.5-.3-.5-.9-4.5-1.4-8.7-1.1-11.2-5.6-19-14.6-24.9-4.4-3-5.4-3.1-9.9-1.4-.7.3-1.3-1.5-1.6-4.6-.5-5.3-3.8-10.8-8.4-13.7-5.2-3.5-10.4 1.3-10.4 9.6 0 3.8-.2 4.1-2.2 3.4-4.5-1.5-7-.6-11.9 4.2-5.6 5.5-6.8 5.4-10.6-1.2-2.9-5.1-2.9-8.6.2-12.2 1.4-1.7 2.5-3.7 2.5-4.5 0-2.3 4-6.7 6.1-6.7 1.2 0 3.4-1.3 5-2.9 4.2-4.3 3.9-7.5-1.4-12.5-2.4-2.3-5.4-5.8-6.6-7.9-4-6.5-7-7.6-11.5-3.8-1.8 1.5-1.8 1.4-1.2-3.5 1.4-9.6-3.9-17.4-11.6-17.4-3 0-4.6.7-6.6 2.8zm11.4 24.7c-2.2 1.6-4.6 2-4.6.7 0-1.5 1.3-2.2 3.9-2.2 2.5.1 2.5.1.7 1.5zm5.8 49.7c.3 1.8 1.8 4.5 3.2 6 2.9 2.9 2.7 6.2-.3 5.6-2.3-.4-6.3-7.6-6.3-11.4 0-5.5 2.3-5.6 3.4-.2zm49 4c-2.3 6.8-6 7.3-7.9 1-.5-1.9-.3-2.2 1.8-2.2 1.4 0 3.5-.9 4.8-1.9 1.3-1.1 2.5-1.8 2.6-1.7.2.2-.4 2.3-1.3 4.8zm33.1 84.4c-2.5 4.3-2.7 6.1-1 10.6.5 1.1-.7 1.3-6.2 1-7.3-.4-10.3-1.8-12.9-5.7-2.7-4.1-.7-5.3 7.4-4.7 6.7.4 6.9.4 9.3-2.6 1.3-1.7 3.2-3.1 4.2-3.1 1.7-.1 1.6.3-.8 4.5zm6.1 15.5c1.9 1.1 3.2 2.5 2.8 3-.7 1.1-3.3-.2-5.8-3-2.4-2.7-1.3-2.7 3 0zM210.7 703c-5.8 4.6-1.2 14 7 14 4.4 0 5.5-.6 7.2-3.7 1.7-3.3 1.4-5-1.6-8.3-3.8-4.1-8.8-4.9-12.6-2z">
        </path>
        <path
            d="M659.5 704.1c-2.2 1-4.9 1.9-6 1.9s-3.7 1.1-5.7 2.5c-5.5 3.8-15.5 3.1-26-1.6-9.9-4.6-10.2 1-.6 10.8 6.1 6.1 6.1 6.3 4.3 8.3-4.6 5-15.8-1.3-12.3-7 1.7-2.7.4-4.6-5.6-8.8-6.2-4.1-10-4.2-14.9-.1-3.8 3.1-3.9 3.1-13.5 2.8l-9.7-.4-1.7 3.4c-2.7 5.4-3.1 5.6-9.5 3.8-6.7-1.8-30.5-1.7-31.1.1-.2.6 2.3 2.9 5.5 5.3 3.2 2.3 7.2 5.4 8.8 7 4.2 3.9 9.5 5.9 15.9 5.9 9.4 0 7.1 1.8-3.1 2.5-5.4.3-10.7.7-11.8.8-6.3.6 1.7 10.5 10.7 13.2 2.8.8 7 1.5 9.1 1.5 3.4 0 4.6-.6 7.7-4 2-2.2 4.6-4 5.7-4 1.2 0 5.7 1.8 10.1 4 10.6 5.3 15.6 7 20.7 7 8.1 0 8.4-5.2.5-10.9-4.3-3.1-7.8-4.5-14.4-5.6l-4-.7 3.4-2.1c2.7-1.7 4.8-2.1 10-2 6.1.1 6.7.4 9 3.4 9.9 12.9 18.4 18.8 27.3 19.2 3.9.2 4.2 0 4.5-2.5.3-2.1-.7-3.7-4.8-7.5-5.8-5.5-6.2-8.2-1.5-9.5 4.1-1.1 5.5-3.3 5.5-9s1.8-6.4 5-1.8c3 4.2 7.4 6.4 10.1 4.9 1.6-.8 2-1.7 1.5-3.7-2.2-9.5-2.3-9 3-11.2 2.7-1.1 6.1-2.7 7.6-3.5 1.4-.8 3.7-1.5 5.1-1.5s3.3-.7 4.2-1.6c1.5-1.6 1.4-1.9-1.7-5.1-6.3-6.5-10.3-7.5-17.3-4.2zM703.6 708.5c-.6 1.7 2.6 5.5 4.7 5.5 1.4 0 3.7-1.9 3.7-3.1 0-3.2-7.3-5.2-8.4-2.4zM915.3 708.7c-.7.2-1.3 1.5-1.3 2.8 0 2.7 11.1 13.5 14 13.5 2.6 0 3.2-2.7 1.4-6.3-4.3-8.3-9.4-12-14.1-10zM713.3 719.1c-4.9 1.8-3 9.7 2.8 11.8 6.5 2.3 11.4-3.6 7.2-8.7-2.2-2.7-7.1-4.2-10-3.1z">
        </path>
        <path
            d="M679.3 726.2c-4.5 1.5-8.4 5.9-8.5 9.6-.1 1.9 1 4.7 2.5 7 2.3 3.2 3.6 7.2 2.3 7.2-.2 0-5-1.5-10.7-3.4-5.7-1.8-10.9-3.1-11.6-2.9-2.2.9-1.5 3.5 1.8 6.9 3.8 3.9 3.3 6.4-1 6.4-3.4 0-5.8 2.1-7.7 6.7-2.6 6.1-2 7.7 4.9 12.1 8.9 5.9 14.7 8.3 16.9 7.1 2.6-1.4 3.9-4.4 3.2-7.6-.6-2.8-.5-2.9 2.9-2.5 2.7.3 3.8-.1 5.2-2l1.7-2.3-.6 2.5c-.3 1.4-.6 3.3-.6 4.2 0 1-1.6 3.3-3.5 5.2-5.8 5.8-4.6 12.7 3.4 19.9 6.1 5.5 9.5 4.7 13.6-3.2 1.3-2.7 3.6-5.8 5-6.9s3.6-4.5 5-7.6c1.6-3.6 3.4-6.1 5-6.8 1.4-.6 4.1-3.3 6-6l3.5-4.8h6.5c10.9 0 15.6-4.2 10.8-9.8-3.5-4-31.9-25.6-36.2-27.5-5.2-2.3-15.2-3.1-19.8-1.5zM131.5 729.3c-1.3 2.1-1.3 2.9-.1 6.4 2.1 6.1 6.2 13.7 9.2 17.3 4.9 5.7 13 7.8 15.7 3.9 2.2-3 1.1-5.3-6.2-13.4-3.6-4-8.4-9.4-10.7-11.9-4.6-5.2-5.7-5.6-7.9-2.3zM172.3 737.5c-3.1 2.2-2.9 5.6.5 8.9 5.5 5.2 13.5 4.1 13.5-1.8 0-6-9.2-10.6-14-7.1zM400.3 741c-3 1.2-3.7 4.4-1.8 7.4 2.3 3.5 9.5 8 15 9.6 4.2 1.2 4.5 1.5 4.5 4.5 0 5.1.8 6.2 7.6 11.1 7.9 5.6 9.4 7.7 8.7 11.8-.7 4.2 2.3 7.8 8.8 10.7 4.4 2 5.5 3.1 8.1 8.2 3.9 7.9 6.8 10.4 13.6 11.8 7.1 1.4 8.9 2.3 9.7 4.9.8 2.5 14.6 14.5 19.7 17.1 4.6 2.3 22.2 4.9 33.9 4.9 4.7 0 11.9.7 15.8 1.6 21.9 5 19.7-7.3-4.4-24.5-13.2-9.4-23.8-15.3-31.5-17.5-9.1-2.6-26.9-4.7-37.4-4.4-9.6.2-9.9.2-12.2-2.5-2.7-3.2-3-5-1.1-6.9 1.6-1.5 16.4-1.7 29.3-.4 7.5.8 8.3.7 9.2-1 .5-1 .6-2.8.2-4-1.1-2.8-24-24.6-31.8-30.2-7.9-5.6-12-7.1-19.7-7.2-3.3 0-14.1-1.4-24-3s-18-3-18-2.9c0 0-1 .4-2.2.9zM516 819c0 1.3-3 1.3-5 0-1.1-.7-.7-1 1.8-1 1.7 0 3.2.4 3.2 1zM528.2 750.2c-4 4 1.7 11.8 8.8 11.8 8.1 0 7.6-6.2-.9-10.5-5.7-2.9-6.3-2.9-7.9-1.3zM234.4 765.8c-3.6 2.4-1.6 7.1 4.4 10.1 7.8 3.9 13.2 3.4 13.2-1.3 0-5.3-13.1-11.9-17.6-8.8zM572.6 768.6c-.9.8-1.6 2-1.6 2.7 0 2.7 11.1 11.6 20.1 16.1 5.2 2.6 9.5 5.2 9.5 5.7.3 2 .4 2.1 1.7 1 1.5-1.1 4.3 1.4 10.6 9.6 3.9 5.1 6.6 5.9 20.1 6.4 22 .7 36.9.4 38.1-.8 3.6-3.6-4.4-11.1-16.2-15.4-4.9-1.8-7.3-3.6-14-10.6-9.8-10.2-13-12.3-18.9-12.3-2.5 0-8.2-.9-12.8-2-10.9-2.6-34.2-2.9-36.6-.4zm24.5 7.7c4.5 3 5.1 5.7 1.2 5.7s-9.3-3.5-9.3-6c0-2.8 3.8-2.6 8.1.3zM743 774.5c-1.9.7-5 1.4-6.8 1.4-1.8.1-4.2.6-5.2 1.1-2.2 1.2-7 8.9-7 11.2 0 .8 2.3 3.3 5.2 5.4 6.1 4.6 6.8 6 3.5 7.5-2 .9-3.3.7-7.2-1-6.5-2.9-8.2-2.7-10.1 1.1-.9 1.8-2.7 4.7-4 6.4-3.1 4-5.6 11.3-5 14 .8 3.2 10.8 11.8 17.3 15l5.6 2.8 3.9-2.1 3.8-2.1v4.1c0 2.4.9 5.6 2 7.4 2.6 4.3 9.6 9.3 13.1 9.3 3.8 0 8.7-4.4 9.9-9 .6-2.1 2.8-6 5-8.7 2.2-2.6 4.8-7.2 5.7-10 2.1-6.6 3.9-8.2 13.2-11.8 8.8-3.3 10.8-5.1 11.6-10.2.3-2.1 1.1-5.5 1.7-7.5s.8-4.5.6-5.6c-.5-1.9-.2-2 4.6-1.5 4.1.4 5.6.2 6.9-1.2 2.3-2.2 2.1-3.1-.8-6-1.6-1.7-3.5-2.5-5.8-2.5-4.1 0-5.7 1.5-5.7 5.3 0 2.2-.4 2.7-1.7 2.3-1-.2-2.8-.7-4.1-1.1s-4.5-.1-7.2.6c-6 1.5-7.9.8-18.5-7.6-6.7-5.3-14.1-8.6-18.9-8.4-1.2 0-3.7.7-5.6 1.4zm30.6 21c.8 2.1-1.1 4.1-4.5 4.8-1.6.3-4.1.9-5.7 1.3l-2.7.7 3.3-4.1c2.5-3.2 4-4.2 6.2-4.2 1.6 0 3.1.6 3.4 1.5zM748 823.8c0 .7-3.1 3.5-9.7 8.5-2.2 1.6.5-5.7 2.8-7.6 2.2-1.7 6.9-2.4 6.9-.9zM180.9 794.6c-1.8 2.2-1.6 10.3.5 14.2 3.7 7.1 15.1 9 18.5 3.1 1.9-3.5.8-7.1-3.6-12-5.9-6.5-12.5-8.8-15.4-5.3zM302.4 795.5c-.8 2 3.6 7.7 8 10.4 3.5 2.2 6.6 1.9 6.6-.5 0-1.9-5.8-8.2-9.1-10-3.6-1.8-4.8-1.8-5.5.1zM582.5 802.5c-3.5 3.4-3.1 6.5 2.1 16.1 6.4 11.8 9.6 13.6 15.2 8.9 3.4-2.9 4.7-2 3.2 2.1-1.4 3.5-.5 7.7 2.1 10 2.5 2.3 2.4 3.8-.1 2.4-3.7-2-7.2-.8-10.2 3.5-3.3 4.9-3.4 6.2-.6 12.7 1.8 4.3 3.3 5.8 9.6 9.9 5.2 3.4 8.5 4.9 10.9 4.9 3.1 0 3.6-.4 5.4-4.8 4.1-9.4 3.9-10.6-2.9-17.3-6.9-6.6-6.1-7.7 1.8-2.4 2.9 1.9 6 3.5 6.9 3.5 4.6 0 7.5-8.4 4.7-13.8-.9-1.7-4.4-6.4-7.8-10.4-3.3-4-7.1-9.6-8.4-12.4-3.9-8.3-6.9-10.4-19.6-13.4-10.3-2.5-9.4-2.5-12.3.5z">
        </path>
        <path
            d="M990.3 813.5c-.3.9.1 3.7.8 6.3s1.4 7.4 1.4 10.7c.2 9 .3 9.2 3.8 13.1 1.7 2 5 6.5 7.2 9.9 4.3 6.8 17.3 24.7 25.9 35.8 5.8 7.4 9.5 14.4 15.1 28.5 2.4 5.9 5.2 10.8 8.6 14.8 5.2 6.2 8.9 15.5 8.9 22.5 0 4.3-5 13-9.2 16.2-6.3 4.6-28.9 14.9-31.5 14.2-3.8-.9-10.3-8.3-10.3-11.6 0-2.5.5-3 5.8-4.5 11.7-3.6 11.7-6.9-.3-13-4.2-2.1-9.3-5.3-11.3-6.9-2.1-1.7-6.7-5.2-10.4-7.8-3.6-2.6-11.5-10-17.5-16.4-18.8-20.5-25.7-26.3-37.6-31.9-5.9-2.7-9.1-3-12.7-.9-4.7 2.7-6.7 1.9-14.3-5.8-7.9-8-15.6-12.4-26.8-15.3-7.8-2.1-12.4-1.4-17.4 2.6-2.1 1.7-4.5 3-5.4 3-4.1 0-9.8-7.2-8.6-10.9.3-1.1 3-2.5 7.4-3.9 11.2-3.6 10.6-5.4-6.3-18.7-23.6-18.6-28-20.5-48.6-20.5-15.8 0-15.8 0-18.5 9.4-1.5 5.3-1.6 6.2-.2 9.6 1.4 3.8 1.4 3.9-.9 4.4-4.6 1.2-6.3 6.2-4 11.6.5 1.2-.2 1.8-2.6 2.5-4.3 1.3-7.2 6.3-6.3 10.7 1.4 6.2 16 19 23.5 20.5 4.6.9 7-1.8 7-7.8 0-4 .4-5.1 2.4-6.4 1.3-.9 3.7-4.1 5.3-7.1 1.5-2.9 3-5.4 3.3-5.4.7.1 4 7.3 4 8.7 0 .6-1.3 1.6-3 2.2-4.3 1.5-3.8 4 2.1 10.6 2.9 3 5 5.8 4.7 6-.3.3-2.5-.2-5-1.2-5.1-1.8-8.4-1.2-7.4 1.4.5 1.1-.2 2.4-2 3.8l-2.7 2.2 3.6 3.9c4.8 5.3 11.9 8.9 17 8.5 2.1-.1 5.6-7.2 5.7-11.2 0-1.4.7-4.7 1.6-7.2 2.1-6.1 4.9-7 9.8-3.3 4.2 3.2 7.1 7.9 8.1 13.1.4 2.1 1.3 5.2 2.1 6.7 1.3 2.6 1.3 2.8-1.1 4.4-2.7 1.8-3.4 6.4-1.2 8.2.6.5 3.9 1.8 7.2 2.8 6.5 2 4.6 3.4-2 1.5-2-.5-4.3-.7-5.1-.4-3.3 1.3-.7 4.9 9.1 12.6 10.4 8.1 13.7 9.7 16.4 8 2.9-1.8 6.1-7.5 6.1-10.9 0-2.3.5-3.4 1.4-3.4 3.6 0 2.9 8.7-1.1 15.7-2.7 4.6-2.4 6.1 1.9 9.9 3.6 3.3 16.2 10.4 18.4 10.4 2.1 0 5.4-3 7.3-6.7 1.2-2.3.2-6.5-1.9-7.8-1.6-1 .7-2.5 3.7-2.5 2.8 0 4.5-3 3.7-6.7-.3-1.6.2-4.8 1.1-7.3s2.1-6.8 2.6-9.5c1.3-7.6 5-10.5 13.3-10.5 4.9 0 7 .5 9.6 2.2 6.1 4.2 6 5-.6 11.7-5.6 5.9-6.1 6.1-9.6 5.5-5.1-.8-5.8 1.3-2.4 7 2.3 4 2.6 5.5 2.6 14.5 0 9.5-.1 10.2-2.6 12.6-2.4 2.4-2.6 3.2-2.2 8.6.5 7.1 2.3 9.3 14.8 17.8 11.1 7.6 14.2 9.1 18.4 9.1 2.9 0 3.8.5 5 2.7 2.3 4.4 9.4 10.9 15.6 14.2 6.4 3.4 10.1 3.9 12 1.6 2.1-2.5 5.6-1.7 11 2.6 6.2 4.9 7 6.5 4.1 8.6-4.9 3.4-2 6.3 17.7 17.9 8.6 5 30 21.4 31.5 24 .5.9.3 1.6-.8 2-1.6.7-2.6.4-9-2-2.2-.8-5.4-1.5-7.1-1.6-2.8 0-3-.3-2.6-2.8.3-2.4-.5-3.6-5-7.7-7.9-7.1-17.2-13.5-22.8-15.6-5.7-2.2-13.8-2.4-19-.5-3.4 1.3-3.5 1.4-3.2 6.5.1 2.8-.1 5.1-.6 5.1s-5.8-2.4-11.8-5.3c-10.7-5.1-11.1-5.2-19.5-5.1-15.4.2-17.5 1.8-13.6 10.6 3.4 7.7 10.5 13.1 23.8 18.3 7.2 2.9 9.4 4.6 12 9.6 2 4.1 1.7 4.9-2 4.9-3.5 0-9.9 4.5-10.6 7.3-.2 1.2-.4 3.8-.2 5.7.2 3.4.1 3.5-3.4 3.2-7.4-.5-7.5 4.5-.3 10.4 3 2.5 4.7 4.8 5.4 7.5.6 2.1 2.9 7.2 5.1 11.3 6.5 12.1 22.6 25.8 31.9 27.2 5.5.8 9.8 3.6 17 11 4.5 4.7 5.1 5.5 3 5-1.4-.4-6.2-1-10.7-1.5-8.8-.9-12.9-2.7-25.9-11.6-7.4-5.1-11.4-5.9-11.4-2.2 0 2.4 3 5.7 8.8 9.6 3.9 2.7 3.4 4.1-1.8 4.1-2.2 0-7 .5-10.7 1.2l-6.8 1.1-12.2-6.2c-6.7-3.5-13-6.1-14-5.9-1.9.4-2.1 1.9-.8 7.5.5 2.3.4 3.3-.4 3.3-1.5 0-15.5-11.9-15.9-13.6-.2-.8 1.8-1.5 6.3-1.9 7.8-.9 9.3-2.6 5.2-6-5.6-4.3-14.2-9-21.7-11.6-7.4-2.5-15.2-7-17.9-10.3-1.2-1.4-.9-1.6 2.8-1.6 4.5 0 13.4 4.5 28 14.3 4 2.7 9.3 5.8 11.8 6.9 4.4 1.9 4.4 1.9 10.6-.1 3.4-1.1 7.5-2.3 9-2.6 4.8-1 4.6-3.4-.8-8.2-6.2-5.7-11.4-8.3-16.4-8.3-3.7 0-4.5-.6-11.8-8.6-4.3-4.8-10.7-10.7-14.3-13.3-6-4.3-6.9-4.6-13-4.7-3.6-.1-7.8-.7-9.3-1.3-5.3-2.1-23.9-.6-27.5 2.2-.9.7-1.3 2.7-1 5.9.4 6.3-.9 6.2-8.2-.8-4.5-4.3-7.3-6-12-7.5-8.8-2.7-12.2-.6-8.3 5.1 2.4 3.5 4 4.6 10.3 6.9 3 1.1 7.9 3.8 10.7 6 6.4 4.8 10.7 6 13.2 3.7 1.7-1.5 2-1.5 4.2.3 2.3 1.8 2.3 2 .6 3.8-.9 1.1-1.7 2.8-1.7 3.8 0 3.4 10.7 16 20.9 24.6 3.4 3 7.1 7 8.1 8.9 2.5 4.8 7.6 9.5 13 11.9 5.6 2.5 7.6 2.6 8.9.3.9-1.6 1.2-1.6 4.7.3 2 1.1 5.5 3.6 7.8 5.7l4.1 3.7-3.8.1c-7.5 0-5.5 5.1 3.6 9.1 4.9 2.1 9 2.7 22.5 2.8 4.9.1 5.7.4 10.5 5 2.9 2.6 6.2 5.4 7.5 6 1.2.7 7.8 5.8 14.6 11.5 22.1 18.4 35.2 26.6 42.8 26.6 3.5 0 6.8 2 6.8 4.2 0 .5.9 2.1 2 3.5 4.3 5.5 2.7 5.5-9.1.2-7.1-3.2-9.8-4-12.3-3.4-8.6 1.8-10.1 1.7-13.6-.7-3.2-2.2-4.3-3.6-9.5-12-1.4-2.2-6.4-6-16-11.8-7.7-4.7-15.6-9.5-17.5-10.8-4.3-2.7-7-2.8-7-.4 0 1 1.7 2.8 4.1 4.2 5.1 3.1 10.9 7.9 10.9 9.1 0 2.9-17.4-7.8-42-25.6-9.3-6.8-20.5-14.3-24.8-16.9-10.4-5.9-13.2-9.3-13.2-15.5 0-3.6-.5-5.2-2.2-6.8-2.9-2.7-30.6-19.8-33.5-20.7-1.2-.4-3.8-.3-5.7.3-4.4 1.1-5.4.1-6.5-6.6-.4-2.6-1.4-5.8-2.2-7-.7-1.3-8.4-6.9-16.9-12.5-15.8-10.3-28.4-19.7-27.7-20.5.3-.2 2.2.3 4.3 1.2 4.3 1.8 8.4 1.3 8.4-1 0-.8-1.4-3-3.1-5-3.4-3.8-3.2-4 2.1-2.5 3.9 1.1 10-.2 14-3 2.2-1.5 4.3-1.7 15.5-1.3 14 .4 17.7-.4 18.3-4.3.2-1.5-1.6-3.6-6.5-7.7-3.7-3.2-8.9-8.2-11.6-11.1l-4.7-5.5 2.7-.3c3.5-.4 3.3-2.7-.8-8.2-1.6-2.2-2.8-4.1-2.6-4.2.1-.1 3.4 1.3 7.2 3.1 7.7 3.7 9.5 4.1 11.3 2.3s1.5-5-1.1-12c-2.6-6.9-2.6-14.8-.1-14.8 1.9 0 18 4.7 20.3 5.9 1 .6 2.1 1.7 2.4 2.5.7 1.8-1.7 4.6-3.9 4.6-2.8 0-2.6 3 .5 6.5 3.5 4 3.5 4 3.1 14.6-.1 5.6.3 8.7 1.5 11.3 2.1 4.5 10.9 12.4 17 15.5 4.1 2 4.6 2.1 7.3.7 1.6-.8 3.4-2.2 4.1-3 2.5-3 4.8-1.9 6.1 2.8.6 2.4 3 6.6 5.1 9.2 2.2 2.7 5.3 6.6 6.9 8.6 3.2 3.9 11.1 8.1 17.4 9.2 7.6 1.4 9.7-4.7 5.3-15.5l-2.3-5.6 2.7-1.5c5.2-3 5.1-14.9-.1-23.2-5.1-8-23-20.1-28.8-19.4-4.1.5-6.4 5.7-6 13.5.2 3.5.1 6.3-.3 6.3-.3 0-1.9-1-3.5-2.2s-3.1-2.3-3.2-2.4c-.2-.1.7-1.6 1.9-3.3 2.8-3.8 3-11.6.4-17.7-1.1-2.7-1.4-5-.9-7.4.4-1.9.6-4.1.5-4.8-.3-1.7.1-1.6 10.3 2.5 8 3.3 10.1 3.7 17.6 3.7 7.6.1 9.2-.3 15.5-3.3 5.7-2.7 8.8-3.4 16.7-4.1 10.7-.9 11.8-1.2 11.8-4.1 0-2.6-6.6-7.2-18-12.7-7.1-3.4-10.9-5.9-15.2-10.3-7-7.1-25-19.1-31.4-20.9-3.7-1.1-6.8-3.4-15-11-12-11.3-22.6-17.5-32.7-19.1-3.4-.5-7-1.2-8-1.5-1.8-.6-1.7-.7.2-2.1 3.5-2.4 2.5-4.9-3.6-9.8-13.6-10.7-28.4-15.5-48.1-15.5-12.8 0-32.2 1.9-33.9 3.2-2 1.6-1.5 5.3 1 7.5 3.5 3.2 17.6 11 23.3 12.8 2.8.9 10.7 2.5 17.5 3.4l12.4 1.9-8.2.1c-4.5 0-8.8.4-9.7.7-2.7 1-1.8 4 2.2 7.6 8.1 7.3 21.7 11.7 36.3 11.8 4.2 0 9.6.7 12.2 1.6 4.4 1.5 5.1 1.5 9.6-.1 5.3-2 8.5-1.6 12.2 1.4 3.6 2.9 1.2 5.1-5.9 5.1-6.5 0-23.2 4.7-24 6.8-.3.8 0 2.2.6 3.1 2.2 3.1 6.2 11 6.2 12.4 0 .7 1.1 2.4 2.5 3.7 2.2 2.1 3.9 2.5 13.3 3.1 5.9.4 12.4 1.1 14.4 1.4 3.2.6 3.5 1 2.6 2.5-1.7 2.7-.4 4.6 6.6 9.7 3.6 2.6 6.4 4.8 6.2 5-.8.8-12.9-2.3-17.3-4.5-4.9-2.4-5.2-2.5-7.7-.9-1.4.9-3.3 1.7-4.2 1.7-4 0-17.4-13.6-17.4-17.7 0-.7-3.7-3.1-8.2-5.2-4.6-2.1-9.2-4.6-10.3-5.4-1.9-1.4-1.9-1.6-.2-2.2 3.5-1.4 1.9-5.1-5.4-11.9-8.2-7.7-13.1-10.6-15.7-9-3.7 2.3-2.6 5.2 4.3 11.9 5.6 5.4 6.5 6.7 5.6 8.3-.8 1.4-.5 2.8.9 5.4l1.9 3.6-2.9.6c-2.2.4-3.1 1.3-3.6 3.3-.4 1.5-1.2 3.4-1.8 4.2s-1 4.7-.9 9.5c.2 7-.1 8.5-2.2 12.2-1.4 2.4-2.5 5.3-2.5 6.7 0 3.6-.7 3.7-6.3 1.1-5.9-2.7-7.9-2.9-14-1.2-7 1.8-19.4-.2-26.5-4.4-4.5-2.7-5.7-3.9-5.7-5.8 0-3.3 5.4-6 12-6 2.8 0 5.5-.4 6.1-.8 2.1-1.4 2.3-4.1.4-6.5-3.4-4.3-18.3-14.9-26.8-19-9.1-4.4-10.7-6.3-9.8-11.2.6-2.8.2-3.6-2.5-5.9-2.4-2-4.1-2.6-7.9-2.6-2.7 0-7.1-.8-9.7-1.9-10.6-4.1-14.8-4.5-24.8-2.6-8.8 1.8-9.8 1.8-19.3.2-5.6-.9-12.3-1.7-15.1-1.7-3.2 0-5.5-.6-6.5-1.6-1.9-1.8-1.8-1.4-.5-5.1 1-3 1.1-3 9.7-3.6 10.1-.6 12.1-1.2 13.1-4.1 1.3-3.5.1-5.4-6.7-10.9-4.5-3.5-6.1-5.3-5-5.5.9-.2 3 .4 4.7 1.2 3.9 2.1 5.1 2 5.1-.3 0-2.5-1.6-3.7-8.6-6.5-5-2-6.5-3.3-10.3-8.6-5.9-8.3-10.7-11.7-17.9-12.5-3.1-.4-7.6-1.1-9.9-1.6s-8.8-.9-14.5-1c-11.2-.1-24.4-2-27.7-4-2.6-1.7-4.5-5.4-3.7-7.4.5-1.4 2.5-1.6 14.3-1.5 20.3.2 20.1.2 21.3-1.9.8-1.6.5-2.6-1.6-5-2.1-2.5-3.3-3.1-6.5-3.1-2.3 0-6.1-1.1-8.9-2.5-5.1-2.6-6.6-4.1-3-3.2 1 .3 2.4-.1 3.1-.9.9-1.1.4-2-1.9-4.4-3.3-3.2-3.9-3.5-6.1-2.1-1.2.8-1.3 1.4-.3 3.6 1.1 2.4 1 2.5-.7 1.5-1.1-.5-2.9-2.1-4-3.6-1.6-2-1.8-3.1-1-5.1 1.3-3.5-1.2-7.5-8-13.1-4.5-3.7-5.9-4.3-8.4-3.8-1.9.4-6-.3-10.6-1.6-6.6-2-9.9-2.3-24.6-2.3-13.2 0-17.7.3-20 1.5-5.7 2.9-3.8 9 4.1 13.6 2.3 1.4 6.9 5.5 10.1 9.1 6.7 7.7 20 16.9 30 20.7 5.4 2 7.6 3.6 10.6 7.2 2 2.6 4.2 6.5 4.9 8.8 1.6 5.3 10.4 14.2 18 17.9 3.1 1.6 6.4 3.9 7.2 5.1 2.6 4 7.6 8.5 14.4 13 8.2 5.3 9.9 7.1 13.7 14.9 2.2 4.7 3.9 6.7 6.7 8.2 3.2 1.7 4.1 1.8 5.8.7 2.6-1.6 2.7-1.6 3.4 1.2 1 3.9 5.3 8.4 9.4 9.7 8 2.5 17.9 8.6 24.3 14.9 3.7 3.6 8.7 8.4 11.2 10.8 3.3 3.2 5.3 6.3 7.4 11.5 2.4 6.2 3.9 8.3 10.6 14.7 4.4 4.1 12.4 11.9 17.8 17.3 9.6 9.4 13 11.9 15.7 11 4.9-1.8-8.5-20.7-21.5-30.4-4.3-3.2-5.3-4.5-5.3-6.9 0-1.6.5-3.2 1.1-3.5 1.6-1 11.7 4.5 17.2 9.4 4.6 4.2 4.9 4.7 4.3 8.1-.9 5.5 2.3 8.4 18.4 16.7 9.6 4.9 10 5.3 27.2 23l6 6.1-4.1-.5c-3.2-.4-4.2-.2-4.7 1.1-1 2.7-3 1.9-9.1-3.8-9.6-8.9-17.4-11.9-18.1-7-.2 1.5 1.2 3.5 4.6 6.5 4.9 4.5 14 19.3 12.4 20.3s-9-5.4-12.1-10.4c-2.1-3.4-3.9-5.1-5.8-5.6-7.4-1.6-10.4-3.4-24.4-14.5-18.8-14.9-22.9-17.7-29.2-20.1-7.7-2.9-16.7-9.7-16.7-12.5 0-.7 1.1-1.8 2.5-2.3s3-2 3.6-3.3c.9-2 1.8-2.3 5.2-2.3 3.6.1 4.2-.2 4.5-2.1.4-3.1-8.2-12.1-17.5-18.4-8.7-5.9-11.1-6.9-14-5.8-1.9.7-2.3.4-2.9-2.4-.8-3.8-12.8-16.1-19.1-19.5l-4.1-2.2-3.1 2.5c-5.9 5-5 11.9 2.5 18.5 7.3 6.3 15.6 8.4 22.5 5.5 1.3-.5 2 .2 2.8 2.8.6 1.8 2.6 5 4.4 6.9 1.8 2 4 4.4 4.8 5.4 1.2 1.6 1.2 1.7-.1.9-.8-.4-2.7-1.7-4.2-2.7-1.5-1.1-4.4-1.8-7-1.8-3.8 0-6-1-15-6.9-19.6-12.7-46.5-34-44-34.9.6-.2 2.9.6 5.1 1.7 4.9 2.6 6.7 2.6 8 .3 1.1-2.1-.6-7.5-3.7-12-2.5-3.5-2.7-4.3-.8-3.6.7.3 2.1-.2 3-1.1 1.4-1.4 1.4-1.9.1-4.4-2.5-5-18.5-17-26.1-19.6-2.9-1-3.9-2-5-5.1-1.5-4.4-7.7-10.3-14.1-13.5-5.6-2.7-7.6-2.2-8.7 2.3-.6 2.3-1.8 4-3.3 4.7-1.7.8-2.3 1.9-2.3 4.1 0 3.8-1 3.8-8.5-.1-7.1-3.6-9.8-5.9-13.6-11.8-4.1-6.4-3.6-6.9 2.1-1.9 8.8 7.5 14 9.3 14 4.7 0-1-.8-2.7-1.8-3.7-3.6-3.6-5.2-6.7-5.2-10.2 0-6-1.8-10.3-6.9-16.6-5.4-6.7-13.1-12.9-17.3-13.9-2.1-.5-3.3-.1-5.4 2-2.3 2.3-2.6 3.3-2.1 6.8.2 2.3.8 5 1.2 5.9 1.7 4.3-8.3.8-20.3-7-8-5.2-12.4-6.7-15.1-5.2-3.1 1.6-7.1 7.5-7.7 11.2-.5 3.1 0 4.2 5.1 10.1 3.7 4.4 7.5 7.6 10.8 9.4 2.9 1.4 6.9 4.1 9 5.9 2 1.9 4.7 3.4 6 3.4s7 3 12.8 6.6c5.7 3.7 13.5 8 17.3 9.6 8.3 3.4 9.6 4.4 9.6 7.3 0 3.8 41.1 43 49.8 47.4 2 1 7.8 3.1 12.7 4.6 13 3.9 25.5 10.9 25.5 14.2 0 3-11.3 20.3-15.4 23.6-5.7 4.6-5.5 4.6-13.7 5.7-6.2.9-8.1.8-12-.6-5.3-1.9-7.9-1.4-7.9 1.5 0 1.4 2.4 3.6 7.8 7.2 9.8 6.6 14.5 10.5 31.5 25.9 23 20.8 32 25.5 44.3 23 9.3-1.9 18.9-5.9 21.9-9 2.1-2.2 2.8-4.2 3.6-10 1.2-10.1 2.6-11.6 5.4-5.8.8 1.8 4.2 6.4 7.5 10.2 6.5 7.5 8.5 12.4 7.4 18.2-1.2 6.4-3.8 8.3-15.4 11-11.1 2.7-13 3.6-13 6.4 0 4.2 45.5 44 56.6 49.5 3 1.5 9.6 3.3 16.4 4.5 8.4 1.4 12.6 2.7 15.9 4.8 4.5 2.7 4.6 2.9 4.5 7.8 0 2.7-.4 6.3-.8 8-1.1 4.4 2.8 8.6 14.4 15.3 5.3 3.1 10.5 7.1 12.3 9.4 5.9 7.2 30.9 24.1 43.4 29.1 3.2 1.3 8.6 2.9 11.9 3.6 5.6 1.1 6.6 1 10.9-.9 5.3-2.3 9.1-2.6 14.7-1.1 4.1 1.2 5.2 2.7 7.4 10 .8 2.9 2.5 5.7 4.1 7 1.4 1.1 2.4 2.2 2.2 2.3-.2.2-2.6 1.2-5.4 2.3-4 1.5-5.1 2.5-5.3 4.5-.3 2.2 1.7 4.1 15 14.4 17.2 13.5 20.9 17 20.1 19.1-1.7 4.4-17.1-2.3-61.8-26.7-8.8-4.8-20.5-10.6-26-12.9s-13.1-5.6-17-7.2c-7.1-3-10.7-6-13.7-11.6-2.5-4.7-8.5-7.3-16.1-7-5.6.2-7.7-.3-22.2-6.2-31.2-12.6-113.7-56-116.2-61-.7-1.4-2.2-4.7-3.4-7.3-2.5-5.6-8.2-10.3-13.7-11.3-2.7-.5-4.5-.1-7.8 1.7l-4.3 2.3-4.3-2.1c-5.2-2.5-44-26.9-83.7-52.6-28.7-18.7-29.4-19.2-31.7-24.1-2.4-5.2-7.9-11.4-12.2-13.6-1.9-.9-3.1-.9-6 .3-2 .8-4.4 1.2-5.2.9s-10.3-6.9-21-14.7-24.4-17.3-30.4-21.1c-9.9-6.2-11.2-7.4-13.8-12.4-1.5-3-3.7-8.8-4.9-12.9-1.8-6.5-2.8-8.1-7.7-13-5.7-5.6-28.2-19.9-35.1-22.2-3.2-1.1-3.6-1-5.6 1.5l-2.2 2.8-11.4-9.6c-13-10.9-18.9-14.3-22.2-12.9-1.9.9-2.1 1.8-2.2 9.6-.1 8 0 8.9 2.3 10.9 1.9 1.9 3.5 2.3 8.6 2.3 5.6 0 6.7.4 11.4 3.9 2.9 2.1 6.4 5.8 7.8 8.2 1.9 3.1 4.1 5.2 7.4 6.9 3.1 1.5 5.9 4 7.7 6.7 2.2 3.3 5.7 6 15.5 11.9 12.6 7.5 12.7 7.5 9.7 8.6-5.3 2-3 9.1 3.8 12 3.1 1.2 3.8 1.2 6-.2 1.8-1.2 2.4-2.3 2-4.1-.2-1.3-.1-2.4.3-2.4 1.5 0 12.4 8.8 22.5 17.9 13.4 12.2 20.8 17.4 50.4 35.4 24.3 14.7 38.8 24.4 46.1 30.6l3.5 3-5.3.1c-5.7 0-6.9 1.1-5.8 5.5 1.1 4.5 10.8 7.4 13.6 4 .7-.8 1-2.6.8-3.9-.5-2.5-.5-2.5 2.6-.9 4.4 2.2 20.2 13.3 26.1 18.3 2.8 2.3 12.3 7.7 21.4 12.2 9.1 4.4 26.2 14 38 21.3 40.3 24.7 59.8 35.4 108.1 59.5 20.1 10 38.5 19.6 40.8 21.2 2.4 1.7 8.1 6.5 12.6 10.8 10.7 10.1 13.4 11.7 30.7 18.5 7.9 3.2 16.1 6.6 18.2 7.7 2.4 1.2 4.9 1.7 6.5 1.4 3.9-.8 6.1.8 16.1 11.9 10.4 11.5 11.3 13.8 4.9 12.9-10.9-1.6-22-6.4-44.5-19.1-7.3-4.1-19.8-10.4-27.9-13.9-8-3.5-16.2-7.3-18-8.5-1.9-1.1-4.2-1.9-5.1-1.7-3.4.6-1.8 3.3 4.3 7.3 3.3 2.2 8.2 5.7 10.9 7.8 4.6 3.5 17.5 10.2 50.5 26 15.5 7.4 20.5 10.8 25.2 17.1 4.2 5.7 6.5 6.8 11.2 5.4 2.9-.9 4.7-.8 8.9.5 2.8.9 25.5 11.8 50.4 24.2 24.9 12.3 47.4 23 50 23.6 2.6.7 6.8 2.2 9.3 3.5 6.4 3.2 23.4 20.7 25.9 26.7 1.9 4.3 2.4 4.8 4.8 4.5 1.9-.2 3.2-1.2 4.2-3.3.8-1.7 1.9-3.3 2.5-3.8 2.5-1.7 3-1.3 54.7 30.2 6.4 3.9 18.4 10.7 26.7 15.2 15.1 8.1 15.2 8.2 15.8 12.1.8 4.5 1.9 5.1 10.4 6.2 12 1.5 28 6.7 34.2 11.1 2.2 1.5 2.1 1.5-2.2.9-9.1-1.2-8.1 4.4 1.9 10.7 2.5 1.6 5.7 2.9 7.3 2.9h2.7v-17l-10.7-6.2c-5.9-3.4-18.8-11.2-28.7-17.2-24.5-14.9-27.9-16.6-33.4-16.7-3.8 0-4.2-.2-2.3-.9 1.2-.6 2.2-1.8 2.2-3 0-3 2.5-2.6 16.3 2.6 13.5 5.2 27.9 12.1 34.5 16.6 3.9 2.7 20.1 10.8 21.6 10.8.3 0 .6-30.2.6-67.2 0-66.2 0-67.1-1.9-65.4-3.3 3-5.5 1.7-6.3-3.9-.8-6-3.4-8.5-8.7-8.5-5 0-14.5-5.6-14.9-8.9-.3-1.5.4-2.8 2-3.9 3.3-2.4 3.9-2.2 5.2 1.8.8 2.6 2.2 4.1 5.4 5.7 6.1 3.1 13.6 3.9 16.7 1.9l2.5-1.6v-25.4c0-21.3-.2-25.6-1.5-26.6-.8-.7-1.5-2-1.5-3s.7-2.3 1.5-3c2.3-1.9 2.2-34.6-.2-37.2-1.5-1.7-1.5-1.8.1-1.8 1.5 0 1.6-2.2 1.5-22.9l-.1-23-2.9-.6c-1.7-.4-5.7-1.8-8.9-3.1-7-2.8-9.7-3-12.2-.7-1.3 1.1-3.7 1.7-7.1 1.8h-5.2l-.3 4.2c-.2 3-.8 4.3-1.8 4.3-2.6 0-19.7-9.1-26.4-14-7.9-5.9-14.4-12.5-13.6-13.8 1-1.7 11.9.8 19.1 4.3 7.8 3.9 15.4 4.6 18.9 2s8.2-1.7 18.7 3.5c10 5.1 13.9 5.7 13.9 2.4 0-.9-1.3-2.7-3-4.1-4.5-3.7-3.9-4.7 2.4-3.9 3 .3 6.1.9 7 1.2 1.4.5 1.6-.5 1.6-7.3v-8l-6.1-3.4c-12.2-6.9-15.4-9.3-15.7-12-.4-3.5 3.5-8.4 5.4-6.8.8.6 1.4 2 1.4 3.1 0 3.7 2.2 6 8.3 8.9l6.2 2.9.3-35.3.3-35.2-2.3-1.5c-3.7-2.4-10.8-9.2-10.8-10.2 0-.6 2.6-.9 6.5-.6l6.5.4v-4.2c0-4.1-.1-4.2-7.2-8.4-9-5.4-14.5-10.9-18.3-18.4-3.7-7.2-9.1-11.4-12.5-9.6-2.7 1.4-2.1 4.7 1.6 9.6 3.6 4.6 2.4 5.8-4.8 5-4.4-.4-8 0-14.1 1.5-4.5 1.2-8.5 2.6-8.8 3.2-.4.5.1 2.8 1.1 5.1 1.7 3.7 1.8 6.5 1.4 27.8l-.5 23.7 2.6 4.8c1.4 2.6 2.5 5.3 2.5 5.9s1 2.4 2.2 3.9l2.1 2.8-2.4-1.3c-3.1-1.7-8.8-6-16.4-12.6-7.8-6.7-11-12.6-12.5-23.1-1.2-7.8-1.1-8.3.9-10.9 1.9-2.4 2-3.7 1.7-14.3-.2-6.4-.8-12.7-1.5-13.8-1-1.9-.8-2.4 1.1-3.4 1.3-.7 3.5-2.2 5-3.4 1.5-1.3 5.9-3.5 9.8-5 8.8-3.3 10.2-5.5 6.3-9.3-1.5-1.5-12.9-9.1-25.3-16.9s-23.4-15.1-24.4-16.2c-2.5-2.8-1.4-6.9 2.1-7.7 1.5-.4 4.7-.1 7.2.6 11.5 3.3 14.1 2.2 14.1-6.1 0-2.7.4-4.9.9-4.9s5.8 5.1 11.6 11.4c5.9 6.3 12 12 13.5 12.6 6 2.5 8.8-2.7 5.7-10.3-.8-1.8-6.4-7.8-12.5-13.5-7.1-6.6-12.6-12.8-15.3-17-2.3-3.7-6.2-8.9-8.7-11.7-6.1-6.8-8.8-11-16.7-25.5-3.7-6.9-10.9-19-15.9-27-4.9-8-10.6-17.7-12.6-21.5-1.9-3.9-4.5-8.3-5.8-9.9-1.6-2.1-2.2-4.2-2.2-8 0-6.4-1.1-7.6-15.5-16.8-5.5-3.6-12.1-8.6-14.7-11.1-5.2-5.2-5.6-5.4-6.5-3.2zM543 874c0 .5-.4 1-1 1-.5 0-1-.5-1-1 0-.6.5-1 1-1 .6 0 1 .4 1 1zm371.7 22.5c4.9 2.1 10.3 6.3 10.3 8 0 1.1-1.6 1.3-8.2.9-4.6-.3-8.8-.2-9.4.3-.6.4-1.7 2.1-2.5 3.8-1.3 2.7-2 3-6.5 3.3-4.6.3-5.5-.1-9.5-3.4-2.4-2-5-4.5-5.7-5.5-1.1-1.6-1-1.7 1.8-.9 1.6.5 4 1.6 5.2 2.4 5.1 3.6 10.7.9 15-7.2 1.9-3.6 4-4 9.5-1.7zm33.8 55.5c-.3.5-1 1-1.6 1-.5 0-.9-.5-.9-1 0-.6.7-1 1.6-1 .8 0 1.2.4.9 1zm47.3.6c2.5 1.7 3 5.4.7 5.4-1.4 0-5.5-3.7-5.5-5 0-.8 1.1-2 1.9-2 .4 0 1.7.7 2.9 1.6zm-411.2 3.2c1.6 1 3.6 5.2 2.6 5.2-1.3 0-6.2-4-6.2-5.1s2.1-1.2 3.6-.1zm394.8 9.3c-2.1 2.3-4 2.4-4.8.3-.4-.9-.5-1.8-.4-1.9 4-3.1 8.2-1.7 5.2 1.6zM967.1 990c2.2 1.3 2.5 3 .4 3-.8 0-1.9-.9-2.5-2-1.2-2.3-.7-2.5 2.1-1zm51.7 7.1c6.3 4.4 11.2 8.2 11 8.5-.3.2-1.8 0-3.5-.5-4.3-1.3-6.3.2-6.3 4.8 0 4.5-.8 5.6-2.9 3.7-.9-.8-3.5-1.9-5.8-2.5-4.2-1.2-9.7-6.3-9-8.5.2-.6 1.8-1 3.5-.8 4.4.4 4.8-1.3 1.4-6.5-3-4.6-3.3-6.3-.9-6.3.7 0 6.3 3.7 12.5 8.1zm-303 1.1c2.9 2.9 1.3 3.8-6.5 3.8-8.4 0-8.6-.5-1.5-3 6-2.2 6.6-2.2 8-.8zm20.9 1.4c-.3.3-1.2.4-1.9.1-.8-.3-.5-.6.6-.6 1.1-.1 1.7.2 1.3.5zm343.9 6c3.3 1.6 6.4 4.8 6.4 6.8 0 .5-2 .6-4.5.4-5.3-.6-8.1.9-7.3 4 .6 2 .3 2.1-3.7 1.5-5.2-.7-6.4.8-9.1 10.4-1 3.5-2.1 6.3-2.6 6.3s-.7-.9-.3-1.9c.3-1.1.7-5.8.8-10.5.2-8.4.2-8.6 2.7-8.6 3.6 0 4.6-1 6.5-5.8 1.5-3.6 2.1-4.2 4.7-4.2 1.7 0 4.5.7 6.4 1.6zM849.5 1020c1.4 1.6 1.6 2.3.6 3.3-1.6 1.6-4.5-.3-4.9-3.2-.4-2.7 1.9-2.8 4.3-.1zm212 31.5 3 2.4-4.2.1c-3.9 0-4.3-.2-4.3-2.5 0-3.2 1.7-3.2 5.5 0zm-408 .2c-.4 1-1.2 3.9-1.8 6.5-1 3.9-1.6 4.8-3.7 5-1.8.2-3.1 1.5-4.6 4.3-1.8 3.4-2.5 4-5.2 3.9-5.4-.3-12.1-6.5-10.8-10 .4-1 2.2-1.4 6.1-1.4 6.9 0 11-1.7 15.4-6.4 3.7-3.9 5.7-4.7 4.6-1.9zm153.3 16.1c.2.7-.2 1-1.2.6-.9-.3-1.6-1.1-1.6-1.6 0-1.3 2.3-.5 2.8 1zm34.9 16.7c.3.9.3 1.9-.1 2.2-.7.7-3.6-1.6-3.6-2.8 0-1.5 3-1 3.7.6zm315.3 9.4c0 1.1-.4 2.3-1 2.6-.6.4-1-.5-1-1.9s.5-2.6 1-2.6c.6 0 1 .9 1 1.9zm-75.4 8.1c4.2 3 6.2 6.5 5.1 9.4-.7 1.8-8.3 3.6-15.7 3.6-6.1 0-6.2-.1-11.8-5.3-6.8-6.5-8.4-7.1-11.3-4.8l-2.1 1.7 2.3 5.3c2 4.8 2.1 5.8 1 9.5-2.5 8.4-2.5 8.6.5 11.7 5.1 5.3 12.3 10.1 18.7 12.3 5.3 1.8 6.2 2.5 6.5 4.7.2 2.1-.4 3.2-2.8 4.9-2.8 2-3.1 2.6-2.5 5.7l.6 3.5-5.7-4.1c-5.8-4.1-5.8-4.1-7.8-2.2-1.9 2-1.9 2 .6 5.8 1.4 2.1 4.8 6.5 7.6 9.8 4.1 4.8 4.8 6.1 3.4 6.3-.9.2-2.4 1.3-3.3 2.4l-1.6 2.1-3.2-2.2c-4.5-3.2-11.5-12.8-13.5-18.6-2.6-7.4-2.5-8.9.4-9.3 3.5-.5 5-2 5-5 0-3.9-8.6-11.5-21.6-19.1-19.5-11.5-33-21.8-31.1-23.7.3-.4 2.9.3 5.8 1.5 6.5 2.9 8.3 2.3 7.5-2.4-.5-2.7-.4-3.5.7-3.5 1.7 0 11.9 7.4 18 12.9 5.3 4.8 8.3 6.4 10.7 5.6 3.7-1.2 2.5-5.8-3.1-11.9-2.8-3-4.8-6-4.4-6.6s6-1 13.8-1.1c7.3-.1 14.3-.5 15.7-.9s4.9-.8 7.8-.9c4.4-.1 6.1.4 9.8 2.9zm-335.5 5c2.4 1.3 2.4 3.4 0 13.4-1.8 7.3-2.3 8.3-6.7 12.1-4.4 3.9-4.7 4.5-4.8 9.1-.1 4.3-.4 4.9-2.3 5.2-3.6.5-9.3-2.8-11-6.4-2.1-4.3-1.3-5.8 3.6-7.2 2.2-.7 6.8-2.9 10.1-4.9 6.8-4 7.9-6.3 6.1-12.5-1.1-3.4-1-4.3.3-5.7.9-1 1.6-2.3 1.6-2.9 0-1.5.6-1.5 3.1-.2zm57.2 10c6 2.8 11.7 7.8 11.7 10.2 0 1.6-.5 1.9-2.7 1.4-1.6-.2-4.5-.7-6.5-1.1-6.6-1-11.9-8-8.6-11.3 1.5-1.5 1.1-1.6 6.1.8zm-5 20.6c13.4 12.5 14.7 14.1 14.7 17.5 0 3.9-1.6 6.9-3.8 6.9-1.8 0-10.4-3.1-15.8-5.6-5.3-2.5-7-9.9-3.8-16.4 1.5-3 1.5-3.5 0-6.6-.9-2-1.1-3.4-.5-3.4s4.7 3.4 9.2 7.6zm323.7-4.1c0 .8-.6 1.5-1.4 1.5-1.7 0-2.8-1.4-1.9-2.4 1.2-1.2 3.3-.6 3.3.9zm-109.5 7.4c1 2.1 1.2 3.2.4 3.7-1.6.9-5.3-3.1-4.6-5 1-2.4 2.5-1.9 4.2 1.3zm115.5.1c0 .5-.9 1-2.1 1-1.1 0-1.7-.5-1.4-1 .3-.6 1.3-1 2.1-1s1.4.4 1.4 1zm-28.5 2c.3.5-1.4 1.4-3.7 2-2.4.6-5.1 1.3-6 1.6-3.1.9-1.9-1.6 1.5-3.1 3.8-1.7 7.3-1.9 8.2-.5zm-250.7 36.2c-.6 1.8-2.8 2.1-2.8.4 0-.9.7-1.6 1.6-1.6s1.4.5 1.2 1.2zm33.6 15.9c18.8 10.1 24.5 13.9 30 20 3.7 4 4.2 6.5 1.4 6.3-.8-.1-9.1-5-18.4-10.9-9.2-6-18.7-11.4-21-12.1-9.1-2.7-15.7-8.2-13.3-11 .6-.8 1.9-1.4 2.7-1.4.9 0 9.3 4.1 18.6 9.1zm205.7-5.2c1.6 1.6 2.9 3.4 2.9 4 0 2.2-2.7 1-6.5-2.9-3.6-3.7-3.7-4-1.6-4 1.2 0 3.6 1.3 5.2 2.9zm-51.9 2.6c3.1 2.7 11.4 5.5 16.1 5.5 1.6 0 4.5.8 6.4 1.7 3.7 1.7 21.3 17.8 21.3 19.4 0 2.1-7.8-.4-29.5-9.4-3.3-1.4-8.1-2.9-10.7-3.2-2.7-.4-4.8-.8-4.9-.9-.4-1.2-2.4-15.6-2.1-15.6.2 0 1.7 1.1 3.4 2.5zm-28.3 2c2.7 1.3 4.1 3.3 4.1 5.6 0 1.4-3.6.2-8-2.5-1.9-1.1-4.8-2.6-6.5-3.3-2.9-1.1-2.8-1.2 2.3-1.2 2.9-.1 6.6.6 8.1 1.4zm146.2 6.6c1.6 1.1 2.9 2.5 2.9 3 0 1.7-3.3.9-5.7-1.3-4.2-4-2.2-5.3 2.8-1.7zm-30.2 4.8c2 1.5 6.2 4.3 9.4 6.1 4.4 2.5 5.7 3.6 5.1 4.9-.4.9-.6 2.6-.5 3.9l.1 2.2-4.8-2.4c-6-3-14.7-9.9-16.2-12.7-1.4-2.5-.6-4.9 1.6-4.9.9 0 3.3 1.3 5.3 2.9zM1023 1219c1.7 1.3 2 2 1 2-.8 0-2.6-.9-4-2-1.7-1.3-2-2-1-2 .8 0 2.6.9 4 2zm-190.4 3.1c4.9 1.3 6.2 2.4 3.8 3.3-1.8.7-9.7-2.5-10.9-4.5-.6-.9-.3-1.1 1-.6 1 .4 3.7 1.2 6.1 1.8zm331 3.6c3.9 1.7 3.9 1.7 1.1 2.1-2.8.3-5.7-1.2-5.7-2.9 0-1.2.2-1.2 4.6.8zm-68.6 4c6 1.6 12.4 4.9 18.3 9.6 8.5 6.6 6.1 9.9-2.7 3.6-6.3-4.5-10.8-5.5-11.4-2.5-.5 2.3 4 7 13.3 14.1 3.9 2.9 7.7 6.1 8.5 7 1.9 2.3-8.4-2.9-21-10.6-14.8-8.9-18-8.9-18 .2 0 4.5-.2 4.9-2.4 4.9-1.6 0-3.2-1.3-5.1-4.1-4.7-6.7-8.2-7.3-11.1-1.8l-1.5 2.9-4.7-2.4c-2.6-1.3-5.8-3.3-7.2-4.5-2.5-2.1-2.5-2.1-.5-3.6 1.6-1.3 3.3-1.4 8.5-.8 11.3 1.4 18 .8 24.3-2 6.5-3 7.2-5 3.2-8.7-1.4-1.3-2.5-2.7-2.5-3.1 0-1 4.2-.3 12 1.8zm-155.7 3.4c8.5 4.3 21.1 12.3 19.9 12.7-1.7.5-14.6-6.1-21.2-10.8-6-4.4-5.4-5.2 1.3-1.9zm-25.8 12.9c1.8 3.6 1.9 6 .2 6-2.3 0-11-9.7-10.4-11.5.6-1.4 1.1-1.3 4.7.5 2.2 1.1 4.6 3.3 5.5 5zm7.4 25c11 5.9 26.1 20.5 26.1 25.2 0 .7 1.4 3.3 3 5.8s3 4.8 3 5.2c0 1.5-3.2.8-10.3-2.2-8.2-3.4-15.3-9.1-19.9-15.8-1.7-2.6-5.5-7.7-8.5-11.4l-5.3-6.7 2.7-1.5c3.5-1.9 2.6-2.1 9.2 1.4zm148.1 12c3.5 2.8 8.2 5.5 10.5 6.1 8.2 2.3 11.2 5.2 8.5 8.4-1.9 2.3-4.4 1.8-12.3-2.1-10.2-5.1-12.2-6.8-13.6-11.1-.7-2.1-1.5-4.4-1.7-5.1-1.1-2.5 2.3-1 8.6 3.8zm-63.7-1.4c1.8.9 8.4 5.2 14.7 9.4 13.9 9.4 14.4 9.7 21.7 11.5l5.8 1.5-4.7-.4c-3.1-.2-5.5.2-6.9 1.2-1.9 1.3-2.1 2.1-1.5 7.3 1 8.8-.9 17.4-4.5 20-3.4 2.4-3.5 3.5-1.2 8.3 1.5 3.2 1.5 3.7.1 5.3-.8 1-2 3.3-2.8 5-1.2 3.1-1.6 3.3-6 3.3-4.9 0-8-1.7-8-4.4 0-.7-1.8-3.8-4-6.9-2.2-3-4-5.8-4-6.1s1.5-.6 3.4-.6c2.5 0 3.9-.7 5.1-2.3 1-1.5 2.6-2.2 4.7-2.2 5 0 4.7-2.7-.5-6.7-4.6-3.4-7.3-6.6-6.3-7.5.3-.3 3.2.6 6.3 2 9 4 12.6 4 12.1 0-.3-2.5-1.7-3.5-11.3-8.3-12.5-6.3-13.4-7.6-9.1-13.9 1.4-2 2.6-4.1 2.6-4.5s-2.5-3.4-5.7-6.7c-5.7-6-5.7-7.2 0-4.3zm-22.8 3.4c1 1.1 1.5 2 1.1 2-1.4 0-4.6-2.1-4.6-3 0-1.6 1.6-1.1 3.5 1zm-99.1 25c1.4.5 9.2 5.1 17.3 10.1s21.6 13.1 30.1 17.8l15.4 8.6-4.1.6c-2.2.3-4.9 1.3-5.9 2.2-2.6 2.3-4.2 2.2-11.7-1.2-23.5-10.7-51.5-29.9-51.5-35.4 0-3.4 5.1-4.8 10.4-2.7zm-3.2 20.6c4.6 2 8.7 4 9.3 4.5 1.5 1.5-8.3 1-12.1-.6-4.9-2-9.5-5.5-8.9-6.6 1-1.5 3.1-1.1 11.7 2.7zm195.1 6.7c.4 1 .2 2.8-.5 4s-1.5 4.2-1.8 6.7c-.5 4.3-.6 4.4-1.9 2.2-1.4-2.6-1.9-17.2-.6-19.2.7-1.2 3.3 2.2 4.8 6.3zm35.2 1.6c1.9 3.2 12.1 12.4 17.9 16.3.6.4.8 1 .4 1.3-1 1-8.2-3.1-21.3-11.9l-12-8.1 4-.6c7.9-1.2 8.3-1.1 11 3zm-204.8 7.2c1.9 1.2 3.2 2.3 2.9 2.6-.5.6-6.3-2.4-7.1-3.7-1-1.6.5-1.2 4.2 1.1zm238.5 5.5c5.1 2.6 9 9.6 10.4 18.4.5 3.7 1.7 5.5 6 9.9 3 3 5.4 5.8 5.4 6.2 0 .3-.6 1.2-1.4 1.8-1.1.9-2.9.8-8-.3-6.5-1.6-10.6-1.1-12.1 1.3-1.2 2-3.5 1.1-7.9-2.9-4.3-4-10.6-14.3-10.6-17.4 0-2.5 2.1-2 12.1 2.9 8.2 4 9.5 4.3 10.8 3 1.2-1.1 1.2-1.9.3-4-.7-1.4-1.2-4.3-1.2-6.4 0-4-3.3-8-9.7-11.7-1.8-1-3.3-2.2-3.3-2.6 0-1 5.8.2 9.2 1.8zM977.5 1364c9.4 5.4 17.4 10.5 18 11.4 1.2 1.9-2.7 10.3-5.1 11.3-2.4.9-7.6-2.2-18.4-10.8-13.7-11-15-12.5-15-16.9 0-3.8.6-5 2.4-5 .6.1 8.8 4.5 18.1 10zm91.9 4.6c.9.3 1.6 1.2 1.6 1.9 0 2.1-4 6.5-6 6.5-2.2 0-7-2-7-2.9 0-.5 8.7-5.9 9.7-6.1.1 0 .8.3 1.7.6zm-38.1 13.5c17.1 7.2 22.8 10.2 20 10.7-2.5.4-12.5-3.4-23.3-8.9-16.2-8.1-14.2-9.2 3.3-1.8zm16.6 24.5c.3.3 0 .9-.6 1.5-1.2 1.2-7.7-.4-8.8-2-.4-.8 8.5-.2 9.4.5zm96.3 1.4c6.1 3 10.8 6.3 10.8 7.8 0 1.6-8.3-2.7-13.2-6.9-3.9-3.4-3.2-3.6 2.4-.9zm-91.6 11.5c14.1 5.9 27.2 12.8 24.9 13.3-6 1.2-3.8 4.6 6.5 10.1 4.5 2.4 7.9 4.5 7.7 4.7-.6.7-7.7-2.1-15.2-5.9-8.5-4.3-35.7-22.7-36.3-24.5-.6-2.1 3.6-1.3 12.4 2.3zM304.1 817.7c-2.8 2.3-2.1 6.4 1.6 9.3 4.9 3.9 11.1 1.4 9.8-3.9-1.4-5.7-7.5-8.6-11.4-5.4z">
        </path>
        <path
            d="M568.7 820.7c-1.6 1.5-.5 5.3 2.8 9.6l3.4 4.5-2.4.6c-1.5.4-2.5 1.4-2.5 2.4 0 2.3 5.4 7.4 10.7 10.2 4.9 2.5 7.3 1.8 9.3-2.9 1.8-4.4-.2-9.2-6.4-15.6-7.2-7.3-13-10.8-14.9-8.8zM653.5 821.5c-3.3 1.3-4.8 1.4-8.6.4-8.4-2.2-9.7 0-5.2 8.4 2 3.5 6 7.7 13.3 14 11.1 9.4 13.3 10.7 18.1 10.7 1.6 0 5.8 1.4 9.1 3.2 5.6 2.9 7.4 3.3 18.2 3.9 6.7.4 15 1.2 18.6 1.8 8.2 1.4 13.5 1.4 18.3 0 8-2.2 3.1-8.6-11.6-15.2-6.1-2.7-6.8-3.4-7.7-6.8-.8-2.9-2.6-5.2-6.9-8.7-11.9-9.9-17.7-11.8-38.6-12.7-10.3-.4-13.8-.2-17 1zm10.4 10.6c1.9 1.1 4.7 3.3 6.2 4.8 1.5 1.6 4.9 3.4 7.4 4 4 1 6.6 3.3 5.3 4.6-.3.3-2.7-.2-5.3-1-2.9-.8-6.6-1.2-9-.8-2.4.3-5.1 0-6.3-.6-3.3-1.7-5.8-13.1-2.9-13.1.6 0 2.7.9 4.6 2.1zM336.5 832.7c-2.3 2.2-1.5 8.1 1.6 12.3 2.9 3.9 10.5 9 13.4 9 5 0 7.1-6.5 3.8-11.8-5.9-9.5-14.5-13.9-18.8-9.5zM211.1 834.9c-2.5 2.5-2.7 4.8-.6 7.7 1.8 2.7 7.5 5.4 11.2 5.4 9.4 0 5.4-13.4-4.3-14.7-3.4-.4-4.6-.1-6.3 1.6zM648.5 855.4c-1.8 1.3-2 2.6-2 10.9 0 8.6-.1 9.4-1.7 8.6-2.7-1.4-5.3-1.1-7.2 1-2.2 2.4-4.9 12.7-4.2 15.5.6 2.6 16.4 14.7 22 17 2.4 1 8.5 6.1 15.2 12.6 6.2 6.1 12.3 11.2 13.8 11.6 3.6.9 7.1-1.1 9.7-5.3 2.7-4.3 2-8.5-2.2-14.3l-3.1-4.2 5.1 2.8c6.3 3.6 8.4 2.7 8.9-3.5.6-8.2-1.5-14.7-6.6-20.1-5.2-5.5-15.3-12-18.7-12-2.9 0-5.5 3.1-8 9.3s-4.9 7-9.1 3.2l-2.9-2.6 2.6.5c4.8 1 9.9-5.2 9.9-12.1 0-4.6-3.7-10.6-9.3-15-6.4-5-9.4-5.9-12.2-3.9zm15.3 44.5c.3.8-.1 1.2-.9.9-.7-.2-1.5-1-1.7-1.7-.3-.8.1-1.2.9-.9.7.2 1.5 1 1.7 1.7zM195.3 857.2c-2.7 1.3-4.7 5.9-3.8 8.7 1.7 5.5 14.1 12.2 19.9 10.7 7-1.7 2.4-14.6-6.8-19-3.9-1.8-6.1-1.9-9.3-.4zM333.2 860.5c-4.4 3.7-4.4 8 .1 12.3 4.2 4.1 8.9 5.5 13.7 4.2 13-3.5 9-17.6-5.3-18.8-4.6-.4-5.7-.1-8.5 2.3zM746.4 862.4c-.9 2.3 1.5 5.6 4.9 7.1 3.7 1.5 4.7 1.2 4.7-1.6 0-4.5-8.2-9.1-9.6-5.5zM162 869.1c-4.1 1.6-6 4-6 7.4 0 6.9 8.4 14.7 18.2 16.7 4.9 1 6.1 1 9.6-.6 4.5-2 6.8-6.1 5.7-9.7-1.4-4.3-8.5-10.7-14.1-12.9-5.9-2.2-9.5-2.4-13.4-.9zM240.2 870.6c-2.5 1.7-3.1 7.9-1 11.7 2.5 4.8 8.3 10.9 14 14.7 9.4 6.2 15.8 6.4 15.8.3 0-6.5-12.2-22.3-20.4-26.2-5.1-2.5-5.5-2.5-8.4-.5zM718 875.9c-5.8.3-11.1 1-11.7 1.4-1.9 1.2-1.6 5.1.7 7.9 2.9 3.8 11.1 8.7 18.7 11.3 6.7 2.2 6.8 2.3 6.5 5.5-.3 2.6.3 4 3.4 7.1 4.8 4.9 11.1 7.3 24.4 9.3 13.6 2 53 4 54.3 2.7 4.4-4.4-17.1-18.1-28.6-18.1-5.3 0-6.4-1.5-2.8-3.6 4.5-2.6 3.7-4.9-3.4-10.7-13.7-11-15-11.7-26.5-12.7-11-1-17.8-1-35-.1zM370 898.7c-2.6 3.4-2.1 7.1 1.6 12.1 2.6 3.3 7.6 6.2 10.9 6.2 2.3 0 5.5-3.7 5.5-6.5 0-4-3.6-10.1-7.3-12.4-4.7-2.9-8.1-2.7-10.7.6zM717.1 912.8c-.6 1.2-1.1 5.6-1.1 9.9 0 5.3-.5 8.6-1.4 9.9-.8 1-1.3 2.8-1 4 .4 1.5-.4 2.8-3 4.8-4.5 3.4-4.7 6.5-.7 12.8 6.4 10.1 14.9 15.9 18.7 12.7 1.8-1.5 1-4.3-2.3-8.3-1.3-1.6-2.3-3.8-2.1-5 .3-1.8 1-2.1 5.8-2.1 5.5 0 5.5 0 5.8-3.3.3-2.6.8-3.2 2.7-3.2 1.3 0 2.7-.5 3-1 .3-.6 1-1 1.4-1 .9 0 3.1 10.5 3.1 14.8 0 2.8.4 3.2 4.3 4.3 2.3.6 7 2.7 10.4 4.6 7.8 4.3 10.9 4.1 14-.7 5.2-8.2 4.4-7.8 10.4-4.9 5.9 2.8 7.9 2.8 7.9-.1 0-4.5-10.1-13-23.9-20.1-9.6-5-17.8-12-21.5-18.3-3.4-5.7-8.6-8.9-16.1-9.8-3.3-.4-7.6-1-9.7-1.4-3-.5-3.8-.3-4.7 1.4zM185.3 927.2c-2.9 1.4-4.6 5.8-3.7 9.4 1 4 13.1 16.4 15.2 15.7 3.1-1 4.2-3.6 4.2-9.2-.1-7.6-2.7-13.3-7.3-15.4-4-1.9-5.3-2-8.4-.5zM399.7 929.8c-2.8 3-2 6.5 2.3 11.5 4.6 5.1 16.4 11.7 21.2 11.7 3 0 10.2-3.2 11.3-5 .3-.6.4-1.9 0-3-.7-2.2-14.6-12.2-20.9-15.1-5.4-2.4-11.8-2.5-13.9-.1zM429 962.2c-5.7 3-2.3 10.3 7.8 16.6 12 7.5 19.2 7.7 19.2.5 0-5-3.5-11.8-7.7-15.1-2.9-2.1-4.8-2.7-10.2-3-4.1-.2-7.5.2-9.1 1z">
        </path>
        <path
            d="M739.4 968.5c-3.3 5.1-.2 8.9 18.6 22.3 7.5 5.4 10 7.8 12 11.7 3.9 7.7 10.3 11.2 13.9 7.6 2.7-2.7 1.9-4.8-4.5-12.2-3-3.5-6.5-8.6-7.8-11.4-2.9-6-5.8-8.8-10.7-10.4-2-.6-6.2-3.2-9.4-5.6-6.5-5.1-9.7-5.6-12.1-2zM389.7 976c-3.8 5.5 5.4 14.5 10.1 9.8 3.1-3.1-.6-10.1-5.9-11.3-2-.5-3-.1-4.2 1.5zM501 978.3c-1.4.7-2.6 2.2-2.8 3.3-.6 4.3 8 11.4 13.7 11.4 1.1 0 2.8-1.1 3.7-2.4 1.4-2.3 1.4-2.8 0-5.8-2.6-5.5-10.1-8.8-14.6-6.5zM798.3 984.5c-2.8 2-3 6.4-.5 9.3 2.8 3.3 17.8 11.4 20.3 11 3-.4 5.4-4.6 4.6-8-2.3-8.8-18.2-16.8-24.4-12.3zM563.6 992.3c-.9.7-2.7 3-3.9 5.2-2 3.5-2.8 4.1-6.7 4.5-6 .7-6.4 3.3-1.6 9.8 3.8 5.1 14.6 15.9 18.6 18.6 3.1 2.1 9.3 2.1 15.5-.1 4-1.3 5.6-1.4 9.2-.5 5.5 1.5 8.6 1.5 10.1 0 1.7-1.7 1.6-17-.3-21.4-1.7-4.2-7.1-6.9-12-6-2.7.5-4.3-.1-10.1-4.1-9.9-6.8-15.4-8.5-18.8-6zM792.2 1002.2c-1.4 1.4-1.5 9.8-.3 17.2.7 3.9 1.6 5.7 4.6 8.4 3.3 3.1 4.1 3.3 7.9 2.8 2.4-.4 5.5-.2 7.1.4 3.8 1.5 6 .5 7.9-3.4 2.9-6.2 1.6-13.6-3-17.8-1.8-1.5-20-8.8-22.1-8.8-.5 0-1.4.5-2.1 1.2zM1120.7 1003.7c-2.4 2.3 2.1 8.3 6.1 8.3 3.8 0 3.9-3 .4-6.2-3.2-2.8-5.2-3.4-6.5-2.1zM1141.6 1011.7c-1.4 1.4-.4 3.8 3.8 9.8 5.6 7.7 10.9 12.5 14.1 12.5 5 0 2.9-4.6-6.4-14.3-5.7-5.9-10.3-9.1-11.5-8zM492.8 1025.6c-3.4 1.8-4.8 4.3-4.8 8.7 0 13.8 30 26.8 39.9 17.3 1.5-1.4 3.2-2.6 3.7-2.6s2.9 2 5.3 4.4c3 3 6.3 5.1 10.5 6.6 3.3 1.3 8.7 3.6 11.8 5.1 6.2 3.1 10.8 3.8 10.8 1.5 0-2.5-9.4-10.1-27.9-22.5-19.3-13-27.2-17.1-35.9-19-6.9-1.4-10.1-1.3-13.4.5zM852.7 1072.7c-1.6 1.6-.1 3.8 9.4 14 11 11.9 20.2 18.5 25.7 18.7 4.3.1 6-2.1 4.7-6.1-1-2.8-3.5-4.4-13.5-8.7-2.7-1.2-7-4.6-10.6-8.4-8.5-8.9-13.4-11.8-15.7-9.5zM665.1 1122.7c-3 2-2.4 5 2.3 12.9 2.1 3.4 3.1 6.1 2.5 6.3s-4.2-1.1-8.1-2.9-9-3.5-11.4-3.8c-6.4-.7-6.6 1.2-1.3 12.2 5.7 11.9 8.1 15.2 12.3 16.6 3 1 4.2.8 8.2-.9 4.5-2 4.9-2.1 10.1-.4 6.3 2 10 1.1 12.2-2.8 2.6-4.7.7-9-10-23.2-11-14.6-13.3-16.5-16.8-14zM491.2 1138.2c-1.7 1.7-1.5 5.9.4 8.7 3.6 5 12.6 6.2 14 1.9 1.6-5.1-10.8-14.2-14.4-10.6zM546.2 1142.2c-3.2 3.2.4 9.8 6.3 11.8 4.1 1.4 7.1.6 8.6-2.1 2.8-5.4-10.5-14.1-14.9-9.7zM636 1207.1c-4.8 3-5.9 4.8-6 9.7 0 3.7.6 5 3.3 7.7 4.2 4.2 7.9 5.3 11.1 3.2 2.9-1.9 5.8-7.8 6.3-13.2 1-8.4-6.7-12.3-14.7-7.4zM942.3 1209.7c-.7.2-1.3 1-1.3 1.7 0 2 4.4 5.6 6.8 5.6 3.6 0 3.7-2.1.3-5.2-3.2-2.9-3.7-3-5.8-2.1zM676.2 1229.2c-2.1 2.1-1.3 4.6 2.9 8.7l4.1 3.9-1.7 3.1c-1.5 3-1.5 3.4.2 6.4 2.2 3.8 9.4 8.3 14.5 9.2 4.6.9 7.8-1.9 7.8-6.7 0-2.5-1-4.1-4.6-7.5-3.5-3.2-4.5-4.8-4.1-6.4.9-3.4-.2-4.7-6.8-8.4-6.4-3.6-10.3-4.3-12.3-2.3zM780.7 1232.7c-1.5 1.4-.6 4.3 2 6.3 2.8 2.2 6.4 2.4 7 .4.9-2.7-7.1-8.6-9-6.7zM710.8 1248c-2.2 1.8-2.2 1.9-.6 5.4 3.1 6.5 14.2 12.9 21.3 12.4 3.5-.3 4-.6 4.3-2.9.3-2.2-.7-3.5-5.4-7.4-9.9-8-16.1-10.4-19.6-7.5zM504.6 1257.9c-5.4 6 2.8 29.5 11.5 33.1 3.9 1.7 8.4.4 11.5-3.3 2.3-2.7 2.6-3.8 2.2-8.3-.7-8.3-7.1-18.4-14-22-3.9-2-9.1-1.8-11.2.5zM565.8 1273.5c-7.5 4.1-4.6 19.4 5.4 27.9 7.8 6.7 18.4 7.8 22.3 2.3 5.1-7.2-4.5-24-17-29.8-4.8-2.2-7.1-2.3-10.7-.4zM733 1299c-6.7 6.7 6.1 19.6 20.4 20.7 7.2.6 9.6-.9 9.6-5.9 0-5.9-13.4-15.4-23.4-16.5-3.6-.4-4.8-.1-6.6 1.7zM717.8 1311.5c-1.8 1-2.9 2.6-3.2 4.8-1.4 8.7-1.6 14.6-.7 17 1.3 3.4 8.3 8.5 12.9 9.3 6.2 1.2 6.7.2 6.8-13.7 0-6.8-.3-13.2-.8-14.1-2.1-4.3-10-6-15-3.3zM829.5 1345c-2.1 2.4-1.4 6.1 2.1 10.8 2.9 3.8 6.4 5.8 12.9 7.2 3.9.9 5.2.8 7.1-.5 4-2.6 3.2-6.6-2.2-11.4-8.5-7.5-16.4-9.9-19.9-6.1zM739 1363c-2 2-2.2 3-1.8 9.9.6 8.7 5.5 24.5 9.4 30.2 5 7.3 11.5 10.3 15.4 7.1 2.7-2.2 2.6-3.3-1.9-18.7-1.1-3.9-2.7-10.2-3.6-14-1.6-7.3-3.5-10.7-7.6-13.6-4.2-3.1-7.4-3.4-9.9-.9zM762.8 1435.2c-2.1 2.3-4.1 5.2-4.4 6.5-1 3.8 12.9 29 18.3 33.3 5.5 4.3 12.3 1.5 12.3-5.3 0-3.3 1.7-4.2 5.4-2.7 3.8 1.4 6.9-.3 6-3.3-1-3.5-8.2-12.5-18.4-22.9-11.4-11.7-13.1-12.2-19.2-5.6zM1062.7 1483.1c-.8 1.1-1.2 3-.9 4.2 1.6 6.5 13.7 18.9 20.3 20.9 5 1.5 8.9.2 10.7-3.4 2.7-5.6-2-11.1-17.4-20.3-6.6-4-10.6-4.5-12.7-1.4zM1123.7 1485.7c-2.8 2.8 4.3 10.2 12.4 12.8 13.9 4.6 10.2-6.2-3.9-11.5-5.6-2.1-7.5-2.4-8.5-1.3zM1015.8 1500.1c-3.8 1.4-5.1 5.7-3.3 11.5 1.5 4.9 4.9 9.4 7.3 9.4.7 0 3.2-1.6 5.5-3.5 8.1-7 11.5-6.2 22.9 5.6 6.1 6.1 9.5 8.9 11 8.9 4.1-.1 11.3-4.3 11.6-6.8.5-3.6-3.5-8.9-10.4-13.8-5.8-4.2-7.3-4.7-14.3-5.5-4.3-.5-12.2-2.2-17.6-3.9-5.3-1.6-9.8-3-9.9-2.9 0 0-1.3.5-2.8 1zM1114 1502.2c-1.1.4-2.5 1.8-3.1 3.2-1 2-.8 3.3 1.1 7 2.6 5.5 15.1 19 22.3 24.3 2.9 2 11.3 9.5 18.7 16.6s14.7 13.8 16.3 14.9l2.7 1.9v-6.4c0-8.8-1.4-12.2-6.5-15.7-4.5-3.1-18.1-18.7-17.2-19.7.9-.8 7.2 3.3 16 10.5l7.7 6.3V1520h-4.5c-5.7 0-11-2.2-15.5-6.4-1.9-1.8-5.9-5.2-8.9-7.6l-5.4-4.4-10.8-.1c-6 0-11.8.3-12.9.7zm22 25.1c0 .5-.7.4-1.5-.3s-1.5-2-1.5-2.9c.1-1.3.3-1.3 1.5.3.8 1.1 1.5 2.4 1.5 2.9zM808.8 1527.1c-1.2.7-1.8 2.2-1.8 4.7 0 4.4-.6 5.4-4.2 6.9-2 .9-2.8 2-2.8 3.8 0 2.8 1.2 4.1 10.5 12.2 3.3 2.8 8.5 8.4 11.5 12.4s7.7 9.6 10.4 12.6c2.7 2.9 4.3 5.3 3.7 5.3-.7 0-.9.4-.6 1 .9 1.4 12.8 1.3 14.3-.2 2.2-2.2 1.3-3.9-5.8-11.7-3.8-4.3-7-8.1-7-8.6 0-.4 1-.4 2.3-.1 9.9 2.8 17.8 2.4 19.1-1 .9-2.4-3.8-9.8-10.6-16.6-6-6-12.3-9.7-16.6-9.8-1.4 0-4.4-2-7.5-4.9-7.6-7-10.9-8.4-14.9-6zm20.6 26c3.2 3.8 6 8.9 4.8 8.9-.7 0-6.8-7.6-8.6-10.8-1.4-2.4 1.3-1.1 3.8 1.9zM931.2 1535.2c-1.7 1.7-1.5 7.4.4 11.5 3.1 6.5 13.1 10.7 16.3 6.9 1.5-1.8 1.6-6.3.3-9.6-2.8-7.2-13.3-12.5-17-8.8zM1026.1 1540.7c-6 4.2 1.4 14.3 12.7 17.3 8.5 2.2 12-3.7 6.2-10.4-5.1-5.8-15.2-9.5-18.9-6.9zM1058.9 1552.2c-1.9 7.2 1.3 23.2 6.6 32.3 3.6 6.2 11.4 12.9 20.3 17.4 4.3 2.2 8.2 4.7 8.6 5.6 1.1 2.9.7 7.3-1 10.9-1.6 3.2-1.6 3.6.2 6.8 2.1 3.5 4 4.6 20.9 12.4 8.7 4.1 11 5.6 17.6 12.5 8.3 8.7 12.4 10.6 12.4 5.7-.1-1.6 0-2.8.1-2.8s1.8.7 3.8 1.5c2.8 1.2 5.8 1.4 13.6.9l10-.7v-64.6l-3.7-1c-2.1-.6-6.9-1.5-10.8-2.1-6.1-.9-8-.8-14.5 1-4.1 1.1-9.7 2.5-12.4 3.1-17.4 4-39-8.1-57.4-32.1-7.4-9.6-8.8-11-11.4-11-1.2 0-2.1 1.3-2.9 4.2zm57.8 62.2c11.6 4.9 33.3 15.9 33.3 16.8 0 1.3-2.3 1-20.3-2.8-9.5-2-17.9-4.3-18.8-5.1-2.7-2.2-5.1-12.3-3-12.3.5 0 4.5 1.5 8.8 3.4z">
        </path>
    </g>
</svg>
