<svg viewBox="0 0 1001 1038" fill="none" xmlns="http://www.w3.org/2000/svg">
<path d="M964.28 439.248C941.89 467.133 943.694 470.085 906.132 462.54C868.57 454.995 834.535 417.925 809.685 418.909C784.835 419.811 754.244 386.268 739.318 395.125C724.391 403.983 773.517 403.409 771.385 433.097C770.565 444.497 764.906 448.188 757.935 449.418C712.499 429.735 655.664 414.48 617.036 417.187C634.259 386.678 650.334 350.756 655.582 315.982C662.225 318.197 670.919 322.708 672.313 331.811C674.609 346.655 687.485 348.296 690.848 320.493C694.211 292.691 725.786 319.509 712.828 267.841C699.951 216.173 730.05 201.82 722.013 158.025C713.894 114.23 695.441 67.3187 671.247 97.0075C647.053 126.696 665.506 118.085 644.101 171.803C622.695 225.44 631.717 184.762 605.554 225.112C579.392 265.462 545.685 323.938 518.128 323.118C492.622 322.38 458.751 281.783 431.03 275.632C446.613 273.172 463.016 274.32 471.955 287.688C491.556 317.049 501.562 323.774 514.356 307.207C527.068 290.64 552 282.849 559.299 261.526C566.598 240.202 597.189 214.696 607.933 197.31C618.676 179.923 640.328 79.4567 621.547 54.2786C602.848 29.1826 597.435 -23.7159 589.48 12.944C581.524 49.6039 597.107 82.0811 567.91 88.3961C538.714 94.7111 549.949 78.3905 529.692 79.8667C509.435 81.343 500.167 32.8732 490.9 44.027C481.55 55.0988 506.729 87.822 484.175 99.5499C461.621 111.278 461.785 87.4939 442.676 118.823C423.567 150.07 417.744 122.514 403.474 135.308C389.204 148.102 426.93 201.492 413.89 216.255C409.543 221.175 402.408 228.31 395.929 236.348C387.891 215.598 378.788 194.029 359.023 192.881C320.477 190.666 263.642 178.036 260.197 208.463C256.753 238.89 300.055 250.454 272.089 263.494C244.122 276.452 221.487 275.386 216.156 313.85C210.825 352.314 223.701 406.689 201.476 420.221C179.25 433.753 160.223 426.864 165.8 457.045C171.377 487.308 177.774 463.114 136.439 514.044C95.1046 564.974 149.315 594.171 90.1018 605.981C30.8884 617.791 40.7299 553.493 17.6022 601.47C-5.60747 649.284 -3.22909 642.477 15.2239 694.801C33.6768 747.126 88.7896 769.597 86.8213 744.829C84.853 720.061 146.199 712.352 148.003 657.157C149.233 619.267 173.591 604.177 192.126 588.594C167.03 643.953 131.108 736.792 101.994 769.761L129.878 766.973C129.878 766.973 147.101 746.551 166.702 716.043C192.454 717.191 264.544 724.244 319.493 768.367C338.028 783.293 353.364 792.561 365.42 797.646C338.356 812.818 277.01 807.815 254.456 832.337C227.72 861.37 193.356 811.26 177.61 820.855C161.863 830.451 149.889 960.606 202.87 989.146C255.85 1017.69 271.925 1062.79 294.479 1016.54C317.032 970.283 376.328 1066.07 405.852 1027.77C435.377 989.474 499.183 985.046 490.818 934.28C482.453 883.513 579.392 858.909 583.657 839.062C587.922 819.215 630.322 853.25 642.214 812.49C654.106 771.729 705.692 748.438 711.023 726.868C716.436 705.299 762.363 707.759 772.205 688.568C782.047 669.377 809.357 739.006 845.361 721.045C881.365 703.084 904.902 699.968 896.947 671.345C888.992 642.723 942.464 622.22 936.313 599.584C930.162 576.948 962.885 603.685 953.454 542.421C944.022 481.157 998.151 492.885 1000.53 480.255C1003.07 467.379 986.669 411.364 964.28 439.248ZM579.884 316.885C599.895 312.62 621.219 291.297 635.653 296.709C612.197 343.621 573.897 447.368 541.994 490.26C528.544 488.374 515.914 487.718 504.842 488.456C525.838 451.386 545.029 406.115 545.275 364.78C545.275 357.727 544.865 352.642 544.126 349.28C553.886 339.356 563.236 320.411 579.884 316.885ZM433.409 437.69C433.409 432.605 433.245 428.505 432.835 425.388C433.163 424.814 433.573 424.322 433.983 423.666C446.367 405.951 501.726 333.615 523.459 351.248C526.002 353.298 528.298 354.447 530.512 354.939C508.123 392.173 464.246 516.505 428.734 562.924C415.858 561.202 403.72 560.546 392.976 561.366C413.972 524.296 433.245 479.025 433.409 437.69ZM393.96 430.309C404.54 430.719 411.347 431.703 416.022 432.605C394.699 471.397 357.383 573.832 324.905 624.434C311.701 622.63 299.317 621.974 288.41 622.712C309.405 585.642 328.596 540.37 328.842 499.036C328.842 495.099 328.76 491.819 328.514 489.03C339.504 474.268 354.512 428.833 393.96 430.309ZM182.777 689.552C203.772 652.482 222.963 607.211 223.209 565.876C223.291 547.013 220.257 542.257 215.09 547.178C216.894 529.381 212.793 520.441 242.81 502.89C281.192 480.501 298.907 473.448 299.317 495.673C299.481 503.218 301.614 506.499 304.73 507.155C282.013 554.231 246.993 647.152 216.894 691.029C204.592 689.388 193.028 688.814 182.777 689.552ZM446.695 797.646C433.737 800.352 414.382 783.211 398.389 778.126C397.569 775.42 396.339 772.55 394.863 769.597C382.233 744.665 305.878 708.497 239.858 694.719C246.173 686.846 258.721 670.361 272.499 648.956C298.251 650.104 370.341 657.157 425.289 701.28C448.007 719.569 465.886 729.411 478.926 733.265C466.788 761.478 463.836 794.119 446.695 797.646ZM532.153 689.716C517.472 715.386 510.665 706.693 502.218 706.447C501.726 705.299 501.152 704.069 500.578 702.92C488.112 678.317 413.726 642.887 348.361 628.699C355.25 619.841 365.748 605.571 377.148 587.856C402.9 589.004 474.989 596.057 529.938 640.18C543.798 651.334 555.936 659.371 566.188 664.784C554.706 666.097 542.896 670.935 532.153 689.716ZM629.83 606.801C605.308 579.081 597.271 561.694 594.319 579.737C592.268 592.367 603.75 620.989 604.98 641.083C591.448 615.905 514.11 579.573 447.925 566.287L452.19 565.876C452.19 565.876 469.413 545.455 489.014 514.946C514.766 516.095 586.855 523.148 641.804 567.271C668.458 588.676 688.388 598.6 701.756 600.732C680.514 618.119 648.775 628.206 629.83 606.801ZM810.095 550.54C788.116 583.181 779.996 557.429 755.802 571.863C733.823 584.904 733.167 563.662 720.865 578.342C720.045 575.226 718.732 571.945 716.928 568.501C704.462 543.897 629.83 508.303 564.384 494.197C566.188 492.065 582.509 472.3 601.044 443.513C626.796 444.661 698.885 451.714 753.834 495.837C778.028 515.274 796.645 525.198 809.849 528.479C813.786 536.434 814.524 543.979 810.095 550.54Z" fill="currentColor"/>
<path d="M874.311 427.438C909.659 460.326 933.197 432.277 952.798 432.933C972.399 433.589 976.336 383.397 976.336 383.397C976.336 383.397 1007.75 365.108 976.336 344.769C944.925 324.43 992 325.25 970.021 287.524C948.041 249.88 940.168 194.849 919.747 217.649C899.325 240.448 921.305 254.555 919.747 283.587C918.188 312.62 904.82 293.019 905.64 318.115C906.461 343.211 840.44 331.483 854.218 360.516C867.996 389.712 838.964 394.551 874.311 427.438Z" fill="currentColor"/>
</svg>
