<svg id="Layer_1" data-name="Layer 1" xmlns="http://www.w3.org/2000/svg" viewBox="0 0 517.57 161.09"><path d="M122.84,0l-6.27,27.64H79.41L56.68,127.8H14.42L37.16,27.64H0L6.27,0Z"/><path d="M228.07,127.8H185.82l11.51-50.74H157.26L145.75,127.8H103.49L132.49,0h42.26L163.66,48.85h40.07L214.82,0h42.25Z"/><path d="M370.13,0c11.42,0,17.81,6.06,15.8,15l-22.22,97.88c-2,8.9-11.17,15-22.58,15H256.86c-11.41,0-17.81-6.06-15.79-15L263.29,15c2-8.9,11.16-15,22.58-15ZM340.32,29.72c.26-1.13-.74-2.08-2.2-2.08H304.85a3.11,3.11,0,0,0-2.66,2.08l-15.6,68.73c-.21,1,.83,1.7,1.8,1.7h33.27c1.46,0,2.85-.75,3.06-1.7Z"/><path d="M502.08,0c10,0,17,6.25,15.19,14.39L504,72.89c-1.77,7.76-11.77,14.39-21.73,14.39h-1.21l11,40.52H450.74L439.53,87.28h-18l-9.19,40.52H370.11L399.12,0ZM471.87,29.35a1.76,1.76,0,0,0-1.76-1.9h-35l-7.73,34.08h35a3.14,3.14,0,0,0,2.57-1.7Z"/><path d="M240.48,136.35H255.9a5.5,5.5,0,0,1,4.75,2.26,6.07,6.07,0,0,1,.74,5.43l-2.62,9.37a10.31,10.31,0,0,1-3.79,5.4,9.7,9.7,0,0,1-6,2.28H233.48a5.5,5.5,0,0,1-4.77-2.28,6,6,0,0,1-.77-5.4l2.59-9.27a10.47,10.47,0,0,1,3.82-5.51A9.81,9.81,0,0,1,240.48,136.35Zm-1.8,6.45a1.63,1.63,0,0,0-1.71,1.34l-2.59,9.27a1,1,0,0,0,.16.84.89.89,0,0,0,.74.4h15.46a1.63,1.63,0,0,0,1-.4,1.83,1.83,0,0,0,.63-.84L255,144a.93.93,0,0,0-.16-.87.94.94,0,0,0-.79-.37Z"/><path d="M273.68,145.47h24.39l-1.8,6.45H271.88l-2.56,9.17h-6.45l4.74-17a10.51,10.51,0,0,1,3.81-5.51,9.85,9.85,0,0,1,6.14-2.28h23.05l-1.8,6.45H275.76a1.63,1.63,0,0,0-1.71,1.34Z"/><path d="M310.76,145.47h24.39l-1.8,6.45H309l-2.57,9.17H300l4.74-17a10.51,10.51,0,0,1,3.81-5.51,9.83,9.83,0,0,1,6.14-2.28h23.05l-1.8,6.45H312.84a1.63,1.63,0,0,0-1.71,1.34Z"/><path d="M358.5,136.35h23.15a5.46,5.46,0,0,1,4.79,2.31,6.23,6.23,0,0,1,.72,5.48,10.29,10.29,0,0,1-2.76,4.56,6.75,6.75,0,0,1,.2,4.61l-2.17,7.78H376l2.18-7.78c.25-.93-.05-1.39-.91-1.39H360.6L358,161.09h-6.45Zm20.5,9.12a1.64,1.64,0,0,0,1.72-1.33c.25-.9,0-1.34-.87-1.34h-16.7l-.75,2.67Z"/><path d="M403.36,136.35h15.42a5.51,5.51,0,0,1,4.75,2.26,6.07,6.07,0,0,1,.74,5.43l-2.62,9.37a10.31,10.31,0,0,1-3.79,5.4,9.7,9.7,0,0,1-6,2.28H396.35a5.49,5.49,0,0,1-4.76-2.28,6,6,0,0,1-.77-5.4l2.59-9.27a10.51,10.51,0,0,1,3.81-5.51A9.83,9.83,0,0,1,403.36,136.35Zm-1.8,6.45a1.63,1.63,0,0,0-1.71,1.34l-2.59,9.27a1,1,0,0,0,.16.84.89.89,0,0,0,.73.4h15.47a1.58,1.58,0,0,0,.95-.4,1.79,1.79,0,0,0,.64-.84l2.61-9.37a.92.92,0,0,0-.15-.87,1,1,0,0,0-.79-.37Z"/><path d="M452.7,151.92H434.76l-2.57,9.17h-6.44l6.91-24.74h30.83l-6.91,24.74h-6.44Zm-16.14-6.45H454.5l.75-2.67H437.3Z"/><path d="M495.81,153.41a10.37,10.37,0,0,1-3.79,5.4,9.72,9.72,0,0,1-6,2.28H462.83l6.91-24.74h23.05a5.59,5.59,0,0,1,4.86,2.28,6.14,6.14,0,0,1,.75,5.51Zm-6.45,0,2.59-9.27c.25-.9-.07-1.34-1-1.34H474.38l-3.31,11.85h16.71a1.61,1.61,0,0,0,1-.4A1.7,1.7,0,0,0,489.36,153.41Z"/></svg>