<svg width="189" height="85" viewBox="0 0 189 85" fill="none" xmlns="http://www.w3.org/2000/svg">
<path fill-rule="evenodd" clip-rule="evenodd" d="M32.8419 10.8002H24.7253V0H19.0627V26.9965H24.7253V14.9194H32.8383L32.8395 26.9965H38.5045V0H32.8419V10.8002ZM167.955 0V4.12038H175.647V26.9965H181.31V4.12038H189V0H167.955ZM138.056 0H132.394V26.9965H148.591V22.8749H138.054L138.056 0ZM73.2589 22.5059C73.1759 22.7865 72.9674 22.8631 72.6688 22.8631C72.382 22.8631 72.1617 22.7523 72.0716 22.4929L66.1092 0.00117827H59.5034L66.3545 24.628C66.6874 26.249 67.7728 27 69.3096 27H74.5338C76.0706 27 77.0648 26.2195 77.4499 24.6669L84.1363 0.00117827H79.1348L73.2589 22.5059ZM0.00355501 4.21705L0 22.7782C0 25.781 1.54867 26.9988 4.22891 26.9988L16.8919 26.9965V22.8678H7.73385C6.16267 22.8678 5.65909 22.4882 5.65909 20.8047L5.6662 6.18116C5.6662 4.5554 6.04418 4.12038 7.7374 4.12038H16.8919V0.00117827H4.24076C1.34605 -6.66165e-07 0.00355501 1.48782 0.00355501 4.21705ZM47.5667 20.8047L47.569 14.9194H58.8232V10.8002H47.5761L47.575 6.18116C47.575 4.61789 47.9221 4.12038 49.6474 4.12038H58.9429V0.00117827L46.146 0.00589135C43.2204 0.00589135 41.9123 1.45834 41.9123 4.21705L41.9088 22.7782C41.9088 25.6289 43.3046 26.9988 46.1389 26.9988L60.1219 26.9965V22.8678H49.6426C48.0702 22.8678 47.5667 22.5177 47.5667 20.8047ZM100.661 15.5891C103.281 15.5891 104.891 14.4031 104.891 11.3685L104.886 4.21705C104.886 1.39822 103.551 0.00117827 100.654 0.00117827H84.8721V26.9965H90.5347V4.12038H97.1512C98.9049 4.12038 99.2224 4.61789 99.2224 6.18116L99.2295 9.46921C99.2295 11.0631 98.7876 11.5347 97.1559 11.5347L94.0622 11.5371C92.8607 11.5371 92.1853 12.2574 92.1853 13.421C92.1853 14.0058 92.4839 14.429 92.7197 14.8487L99.8682 26.9976H106.876L99.3895 15.5997L100.661 15.5891ZM124.729 0.00471308H112.253C109.266 0.00471308 108.02 1.51729 108.02 4.21587L108.016 22.7771C108.016 25.8423 109.657 26.9976 112.246 26.9976H124.731C127.443 26.9976 128.966 25.7197 128.966 22.7771L128.961 4.21587C128.961 1.45834 127.654 0.00471308 124.729 0.00471308ZM121.232 22.8678H115.749C114.118 22.8678 113.676 22.4281 113.676 20.8047V6.18116C113.676 4.76997 113.87 4.12038 115.749 4.12038H121.234C122.713 4.12038 123.301 4.37385 123.301 6.18116L123.306 20.8047C123.306 22.5472 122.771 22.8678 121.232 22.8678ZM155.349 20.8047L155.351 14.9194H166.605V10.8002H155.358V6.18116C155.358 4.61789 155.705 4.12038 157.429 4.12038H166.724V0.00117827L153.928 0.00589135C151 0.00589135 149.693 1.45834 149.693 4.21705L149.691 22.7782C149.691 25.6289 151.087 26.9988 153.921 26.9988L167.904 26.9965V22.8678H157.425C155.854 22.8678 155.349 22.5177 155.349 20.8047Z" fill="black"/>
<path d="M0 57.4464C0 51.2118 3.90238 47 11.2784 47H59.1606V55.8426H12.7172C11.4164 55.8426 10.261 56.5072 10.261 58.4578V73.2027C10.261 74.9943 11.0168 76.1502 13.3931 76.1502H46.1018C47.8241 76.1502 49.154 75.5433 49.154 73.2894V69.8361H30.0054V61.4125H59.1606V74.9654C59.1606 81.4529 54.4153 85 46.9593 85H11.3583C4.15672 85 0.007267 81.1205 0.007267 74.6331L0 57.4464ZM101.876 85L118.234 56.1821V85H128.488V47H112.718L97.1234 74.2935L81.5284 47H65.7663V85H76.02V56.1821L92.378 85H101.876ZM188.993 85H146.117C138.901 85 134.766 81.1205 134.766 74.6331V57.4464C134.766 51.2118 138.654 47 146.03 47H189V56.5506H147.476C146.176 56.5506 145.013 57.208 145.013 59.1586V72.4947C145.013 74.2935 145.776 75.4422 148.152 75.4422H189V85" fill="black"/>
</svg>
