<svg viewBox="0 0 104 40" fill="none" xmlns="http://www.w3.org/2000/svg">
<path fill-rule="evenodd" clip-rule="evenodd" d="M76.6474 25.982C75.9127 26.7358 75.1489 27.5193 74.3079 28.2953C74.2558 28.3412 74.2033 28.3878 74.1501 28.4349C72.991 29.4632 71.5498 30.7416 68.4253 30.7407C66.5252 30.7407 65.0395 29.2265 65.3969 27.3052C65.6352 25.792 66.1688 25.0355 67.2971 24.6273C67.8317 26.1404 68.8408 26.9559 70.5657 26.9559C72.5249 26.898 73.6512 25.1513 73.7112 23.6381C73.7112 22.3575 72.8803 20.7267 70.5037 20.6099C68.3062 20.4941 66.6423 21.4842 64.2677 24.1621C64.2677 24.1621 64.8613 20.2027 60.4064 20.3194C59.9318 20.3194 59.4563 20.3194 58.9818 20.552C56.6446 21.2776 53.6536 24.8423 51.2118 27.7525C51.1077 27.8765 51.0047 27.9993 50.9027 28.1206C51.0219 27.5378 51.0219 26.9559 51.0219 26.373C51.0219 24.6852 50.3681 22.4724 49.1798 21.3076C48.9426 21.075 48.7043 21.075 48.467 21.075C47.6952 21.075 47.0424 21.7158 47.0424 22.7049C47.6361 23.2878 48.4089 24.7431 48.4089 26.1404C48.4089 27.5378 47.9935 30.0999 47.3988 31.09C45.1413 34.8738 42.2901 37.3192 38.8453 36.7952C37.0042 36.387 35.7568 34.6413 36.1132 32.0212C36.2914 30.5081 37.2425 28.4121 38.1325 27.1315C39.6181 25.1513 42.0528 23.1141 45.6168 22.5901C45.6168 22.5901 45.794 21.8914 45.3195 21.5421C45.1413 21.2507 44.904 20.9013 44.0721 20.9013C39.0235 21.076 35.936 24.6273 34.153 28.1206C34.0258 28.359 33.8871 28.6173 33.7425 28.8868C33.145 30 32.4442 31.3056 32.0146 32.1959C32.0146 32.1959 31.5391 33.4784 29.3416 35.1083C29.2609 35.1709 29.184 35.2304 29.1109 35.2871C28.1633 36.0216 27.8442 36.2689 27.6788 36.2142C27.7388 36.6224 28.0352 37.2053 28.5708 37.6704C28.7193 37.7675 29.1604 37.5378 29.439 37.3927C29.4928 37.3647 29.5405 37.3399 29.5789 37.3211C32.371 35.7491 32.6684 34.9925 32.6684 34.9925C33.262 38.2533 36.1132 39.9411 39.2617 39.9411C43.5976 39.9411 47.576 36.0994 49.8936 32.7218C52.3293 29.1706 55.6551 25.6772 55.6551 25.6772C56.9635 24.4555 58.328 23.64 59.159 23.64C59.9318 23.697 60.4664 24.3378 60.2872 25.0374C59.9919 26.2591 59.5764 27.4229 58.7435 28.8791L52.2693 39.6497H57.3179C59.5629 35.5161 60.147 34.4688 61.6068 31.8515C62.0388 31.077 62.5474 30.165 63.1985 28.9949C63.9694 31.8485 65.5141 32.9544 68.0099 33.0133C70.1482 33.0712 71.6329 32.9554 73.2367 32.1399C72.8212 33.7698 73.0595 35.3998 73.5941 36.5057C74.1868 37.8442 75.3751 39.5329 78.2863 39.5908C81.7903 39.5908 85.2361 38.0767 86.2452 37.2043C86.5416 38.8922 87.3745 39.7655 89.572 39.7655C94.0269 39.6487 97.9463 35.1662 100.323 32.2548C100.738 31.7308 101.273 30.8584 101.273 30.6248C101.273 30.2755 100.798 30.0429 100.559 30.0429C100.328 30.0429 99.9229 30.5443 99.6843 30.8398L99.6692 30.8584C98.54 32.0222 93.8487 36.7961 91.2949 36.9129C91.8295 36.9129 90.4048 37.2034 90.2838 36.0975C90.2348 35.5284 90.6203 34.8434 90.8937 34.3575C90.956 34.2469 91.0124 34.1466 91.0566 34.0603L103.767 11.9942H99.0746L91.412 24.6861C91.3511 24.5665 91.287 24.4303 91.2172 24.2821C90.608 22.9875 89.5685 20.7786 86.4244 20.7267C81.8146 20.6808 79.4406 23.1163 76.6474 25.982ZM65.5741 8.61761C71.2174 8.61761 77.8709 5.06634 77.8709 3.2029C77.8709 2.73679 77.8709 2.27069 76.6835 2.27069C76.0009 2.27069 75.869 2.30252 75.4338 2.40753C75.0356 2.50364 74.3833 2.66105 72.8222 2.91147C70.2336 3.30213 67.1443 3.28333 64.4626 3.26701C63.9448 3.26386 63.4421 3.2608 62.9612 3.2608C54.8832 3.14403 44.9641 1.51411 40.9856 0.815441C37.5398 0.232571 34.3913 0 31.6001 0C16.8106 0 10.8109 5.82196 10.7518 11.586C10.6928 14.6721 13.0094 17.8162 16.4542 17.8162C22.6311 17.8162 26.1951 11.5281 26.4924 9.25742C26.4924 9.25742 26.6116 8.85018 26.2552 8.55875C26.077 8.44198 25.6014 8.50085 25.4232 8.90808C24.5913 10.8294 21.2656 13.0422 18.8889 13.4495C16.6905 13.8577 15.2068 12.6929 15.0877 10.8883C14.8494 6.4637 19.9581 1.63088 31.4219 1.63088C34.6896 1.63088 38.8472 2.50422 43.4213 3.55223C44.6155 3.81601 46.2053 4.33677 48.0705 4.94776C52.7904 6.4938 59.2741 8.61761 65.5741 8.61761ZM79.831 27.5397C81.9684 24.9776 84.5824 23.2309 86.6627 23.4635C89.2136 23.7539 89.4528 26.2003 88.2054 28.47L88.8591 28.6456C88.8591 28.6456 86.8399 31.9643 84.7615 34.0024C81.0794 37.6695 78.7028 36.4468 78.1682 36.0396C77.6336 35.6323 77.2181 34.1771 77.4544 32.7209C77.6336 31.2656 78.7618 28.8203 79.831 27.5397Z" fill="currentColor"/>
<path fill-rule="evenodd" clip-rule="evenodd" d="M44.9051 17.8171C44.1322 17.7583 43.2422 17.2342 43.2422 16.5935C43.954 16.2441 44.5487 15.8359 45.0843 15.4297C45.8571 14.731 46.629 13.2757 46.629 12.2856C46.629 11.3544 45.9172 10.4811 44.847 10.3064C42.9459 10.0149 41.4612 11.5291 41.283 14.0323C41.283 14.6731 41.5203 15.4297 41.5203 15.4297C41.5203 15.4297 37.3626 16.1283 33.7987 16.303C37.5621 10.0714 41.0649 7.29731 42.74 5.9707C43.021 5.7481 43.2507 5.56626 43.4214 5.41567C43.6577 5.241 44.2514 4.6012 44.3114 4.48443C44.5497 3.90253 44.0141 3.55319 43.7768 3.55319C42.3512 3.49432 35.4615 8.5018 30.1156 16.5365C29.9921 16.5523 29.8332 16.5705 29.6448 16.592C27.75 16.8086 22.8759 17.3659 21.1475 19.2724C20.9683 19.5059 20.7901 19.9131 20.7901 20.0299C20.9093 20.496 21.2657 20.7286 21.7993 20.3213C22.9876 18.9829 27.799 18.4579 28.9272 18.4C21.9184 28.0646 15.4442 34.4106 9.68271 34.4106C9.5641 34.4106 9.44544 34.413 9.32628 34.4153C8.84906 34.4248 8.36378 34.4344 7.84067 34.2938C5.52506 33.7708 4.15854 31.3833 4.15854 29.2294C4.15854 26.3759 6.94967 23.2907 8.55346 22.7078C9.08904 22.4753 9.32631 22.1848 9.32631 21.9513C9.32631 21.6019 9.08905 21.3684 8.43532 21.3684C2.91115 22.7078 -0.0591629 27.1334 0.00089311 30.7426C0.120021 36.6813 4.69314 40 9.86091 40C17.108 40 20.7901 36.9139 32.6103 18.1665C37.3036 17.7004 39.6202 17.4089 41.9948 17.0017C41.9948 17.0017 42.7076 18.6905 44.4896 18.6905C44.7033 18.7322 44.7322 18.5923 44.7985 18.2711C44.8241 18.1469 44.8554 17.9956 44.9051 17.8171ZM44.4286 14.3807C43.5386 15.3708 42.9439 15.3119 42.9439 15.3119C42.7667 14.6142 42.6476 13.9734 42.9439 13.0422C43.1812 12.1688 43.7158 11.7616 44.6078 11.586C45.0232 11.5281 45.2004 11.9353 45.2605 12.2847C45.3796 12.9833 44.785 14.0313 44.4286 14.3807Z" fill="currentColor"/>
</svg>
