<svg width="190" height="77" viewBox="0 0 190 77" fill="none" xmlns="http://www.w3.org/2000/svg">
<path fill-rule="evenodd" clip-rule="evenodd" d="M94.8563 17C94.8563 7.61219 102.385 0 111.67 0C120.96 0 128.487 7.61219 128.487 17C128.487 26.3906 120.958 34 111.67 34C102.385 34 94.8563 26.3906 94.8563 17ZM111.67 27.7661C116.856 27.7661 121.061 22.9448 121.061 16.9986C121.061 11.0538 116.856 6.23243 111.67 6.23243C106.485 6.23243 102.282 11.0538 102.282 16.9986C102.282 22.9462 106.486 27.7661 111.67 27.7661ZM147.567 7.0825V33.2282H140.48V7.0825H140.506H130.598V1.17187H157.449V7.0825H147.567ZM166.02 26.0162L166.015 26.0233L163.297 33.2297H155.02L168.102 1.17187H176.921L190 33.2297H181.726L179.008 26.0233L179 26.0162H166.02ZM172.511 20.6053H176.97L176.967 20.6068L172.541 8.87377H172.48L168.054 20.6068L168.051 20.6053H172.511ZM16.9689 7.0825V33.2282H9.88363V7.0825H9.90898H0V1.17187H26.8525V7.0825H16.9689ZM28.6651 17C28.6651 7.61219 36.194 0 45.4819 0C54.7684 0 62.2973 7.61219 62.2973 17C62.2973 26.3906 54.7684 34 45.4819 34C36.194 34 28.6651 26.3906 28.6651 17ZM45.4819 27.7661C50.6659 27.7661 54.8712 22.9448 54.8712 16.9986C54.8712 11.0538 50.6659 6.23243 45.4819 6.23243C40.2964 6.23243 36.0926 11.0538 36.0926 16.9986C36.0926 22.9462 40.2964 27.7661 45.4819 27.7661ZM78.5747 33.2282H82.1673V21.0567L94.5282 1.17187H86.2543L78.5747 14.6463L70.8979 1.17187H62.624L74.9835 21.0567V33.2282H78.5747Z" fill="black"/>
<path fill-rule="evenodd" clip-rule="evenodd" d="M74.8183 72.3765L84.3086 66.3436L69.9435 55.9846V58.5207H48.6947C45.9223 58.5207 43.6413 60.4296 43.2279 62.9151L67.8619 62.8899V67.4107L49.0279 67.4358C46.0525 67.4358 43.6153 69.6242 43.4849 72.3765H74.8183ZM165.057 58.445H186.84V54H164.934C156.741 54 150.048 60.06 149.712 67.6594L176.119 67.6325C177.834 67.6325 179.219 68.7265 179.219 70.0442C179.219 71.3852 177.832 72.4541 176.119 72.4541L147.046 72.4522V54.0001H138.423V72.3315H121.107C118.565 71.9314 117.768 70.1451 117.768 66.6662L117.77 54.0001H103.865L91.3637 61.8463L80.486 54.0001H47.0265C39.6102 54.0001 33.4284 58.9407 32.0673 65.5216H38.789C36.253 67.1872 34.3016 69.5485 33.2235 72.3334L11.9487 72.3315C9.44066 71.9314 8.6177 70.1451 8.6177 66.6662L8.61953 54H0.0208402V65.8209C-0.340343 73.6492 4.04636 76.4539 9.05134 76.8991L75.8944 76.8972L88.2114 69.1969L98.9642 77H112.121L95.3707 64.8042L109.146 56.1613L109.172 65.8208C108.818 73.6491 113.637 76.4539 118.643 76.8991L181.196 76.8972C185.507 76.8972 189 73.8456 189 70.0442C189 66.266 185.505 63.2144 181.196 63.2144H159.592C159.795 60.5557 162.16 58.445 165.057 58.445Z" fill="black"/>
</svg>
